<svg version="1.1" viewBox="0.0 0.0 600.0 371.0" fill="none" stroke="none" stroke-linecap="square" stroke-miterlimit="10" width="600" height="371" xmlns:xlink="http://www.w3.org/1999/xlink" xmlns="http://www.w3.org/2000/svg"><path fill="#ffffff" d="M0 0L600.0 0L600.0 371.0L0 371.0L0 0Z" fill-rule="nonzero"/><path stroke="#333333" stroke-width="1.0" stroke-linecap="butt" d="M45.5 332.5L581.5 332.5" fill-rule="nonzero"/><path stroke="#cccccc" stroke-width="1.0" stroke-linecap="butt" d="M45.5 271.5L581.5 271.5" fill-rule="nonzero"/><path stroke="#cccccc" stroke-width="1.0" stroke-linecap="butt" d="M45.5 210.5L581.5 210.5" fill-rule="nonzero"/><path stroke="#cccccc" stroke-width="1.0" stroke-linecap="butt" d="M45.5 149.5L581.5 149.5" fill-rule="nonzero"/><path stroke="#cccccc" stroke-width="1.0" stroke-linecap="butt" d="M45.5 88.5L581.5 88.5" fill-rule="nonzero"/><clipPath id="id_0"><path d="M45.55 88.28333L581.45 88.28333L581.45 332.45L45.55 332.45L45.55 88.28333Z" clip-rule="nonzero"/></clipPath><path stroke="#000000" stroke-width="0.0" stroke-linecap="butt" stroke-opacity="0.0" clip-path="url(#id_0)" d="M75.0 332.0L65.0 332.0L65.0 226.0C65.0 224.89543 65.89543 224.0 67.0 224.0L73.0 224.0C74.10457 224.0 75.0 224.89543 75.0 226.0Z" fill-rule="nonzero"/><path fill="#4285f4" clip-path="url(#id_0)" d="M75.0 332.0L65.0 332.0L65.0 226.0C65.0 224.89543 65.89543 224.0 67.0 224.0L73.0 224.0C74.10457 224.0 75.0 224.89543 75.0 226.0Z" fill-rule="nonzero"/><path stroke="#000000" stroke-width="0.0" stroke-linecap="butt" stroke-opacity="0.0" clip-path="url(#id_0)" d="M126.0 332.0L116.0 332.0L116.0 228.0C116.0 226.89543 116.89543 226.0 118.0 226.0L124.0 226.0C125.10457 226.0 126.0 226.89543 126.0 228.0Z" fill-rule="nonzero"/><path fill="#4285f4" clip-path="url(#id_0)" d="M126.0 332.0L116.0 332.0L116.0 228.0C116.0 226.89543 116.89543 226.0 118.0 226.0L124.0 226.0C125.10457 226.0 126.0 226.89543 126.0 228.0Z" fill-rule="nonzero"/><path stroke="#000000" stroke-width="0.0" stroke-linecap="butt" stroke-opacity="0.0" clip-path="url(#id_0)" d="M178.0 332.0L168.0 332.0L168.0 227.0C168.0 225.89543 168.89543 225.0 170.0 225.0L176.0 225.0C177.10457 225.0 178.0 225.89543 178.0 227.0Z" fill-rule="nonzero"/><path fill="#4285f4" clip-path="url(#id_0)" d="M178.0 332.0L168.0 332.0L168.0 227.0C168.0 225.89543 168.89543 225.0 170.0 225.0L176.0 225.0C177.10457 225.0 178.0 225.89543 178.0 227.0Z" fill-rule="nonzero"/><path stroke="#000000" stroke-width="0.0" stroke-linecap="butt" stroke-opacity="0.0" clip-path="url(#id_0)" d="M230.0 332.0L220.0 332.0L220.0 226.0C220.0 224.89543 220.89543 224.0 222.0 224.0L228.0 224.0C229.10457 224.0 230.0 224.89543 230.0 226.0Z" fill-rule="nonzero"/><path fill="#4285f4" clip-path="url(#id_0)" d="M230.0 332.0L220.0 332.0L220.0 226.0C220.0 224.89543 220.89543 224.0 222.0 224.0L228.0 224.0C229.10457 224.0 230.0 224.89543 230.0 226.0Z" fill-rule="nonzero"/><path stroke="#000000" stroke-width="0.0" stroke-linecap="butt" stroke-opacity="0.0" clip-path="url(#id_0)" d="M282.0 332.0L272.0 332.0L272.0 227.0C272.0 225.89543 272.89542 225.0 274.0 225.0L280.0 225.0C281.10458 225.0 282.0 225.89543 282.0 227.0Z" fill-rule="nonzero"/><path fill="#4285f4" clip-path="url(#id_0)" d="M282.0 332.0L272.0 332.0L272.0 227.0C272.0 225.89543 272.89542 225.0 274.0 225.0L280.0 225.0C281.10458 225.0 282.0 225.89543 282.0 227.0Z" fill-rule="nonzero"/><path stroke="#000000" stroke-width="0.0" stroke-linecap="butt" stroke-opacity="0.0" clip-path="url(#id_0)" d="M333.0 332.0L323.0 332.0L323.0 226.0C323.0 224.89543 323.89542 224.0 325.0 224.0L331.0 224.0C332.10458 224.0 333.0 224.89543 333.0 226.0Z" fill-rule="nonzero"/><path fill="#4285f4" clip-path="url(#id_0)" d="M333.0 332.0L323.0 332.0L323.0 226.0C323.0 224.89543 323.89542 224.0 325.0 224.0L331.0 224.0C332.10458 224.0 333.0 224.89543 333.0 226.0Z" fill-rule="nonzero"/><path stroke="#000000" stroke-width="0.0" stroke-linecap="butt" stroke-opacity="0.0" clip-path="url(#id_0)" d="M385.0 332.0L375.0 332.0L375.0 225.0C375.0 223.89543 375.89542 223.0 377.0 223.0L383.0 223.0C384.10458 223.0 385.0 223.89543 385.0 225.0Z" fill-rule="nonzero"/><path fill="#4285f4" clip-path="url(#id_0)" d="M385.0 332.0L375.0 332.0L375.0 225.0C375.0 223.89543 375.89542 223.0 377.0 223.0L383.0 223.0C384.10458 223.0 385.0 223.89543 385.0 225.0Z" fill-rule="nonzero"/><path stroke="#000000" stroke-width="0.0" stroke-linecap="butt" stroke-opacity="0.0" clip-path="url(#id_0)" d="M437.0 332.0L427.0 332.0L427.0 225.0C427.0 223.89543 427.89542 223.0 429.0 223.0L435.0 223.0C436.10458 223.0 437.0 223.89543 437.0 225.0Z" fill-rule="nonzero"/><path fill="#4285f4" clip-path="url(#id_0)" d="M437.0 332.0L427.0 332.0L427.0 225.0C427.0 223.89543 427.89542 223.0 429.0 223.0L435.0 223.0C436.10458 223.0 437.0 223.89543 437.0 225.0Z" fill-rule="nonzero"/><path stroke="#000000" stroke-width="0.0" stroke-linecap="butt" stroke-opacity="0.0" clip-path="url(#id_0)" d="M489.0 332.0L479.0 332.0L479.0 227.0C479.0 225.89543 479.89542 225.0 481.0 225.0L487.0 225.0C488.10458 225.0 489.0 225.89543 489.0 227.0Z" fill-rule="nonzero"/><path fill="#4285f4" clip-path="url(#id_0)" d="M489.0 332.0L479.0 332.0L479.0 227.0C479.0 225.89543 479.89542 225.0 481.0 225.0L487.0 225.0C488.10458 225.0 489.0 225.89543 489.0 227.0Z" fill-rule="nonzero"/><path stroke="#000000" stroke-width="0.0" stroke-linecap="butt" stroke-opacity="0.0" clip-path="url(#id_0)" d="M541.0 332.0L531.0 332.0L531.0 228.0C531.0 226.89543 531.89545 226.0 533.0 226.0L539.0 226.0C540.10455 226.0 541.0 226.89543 541.0 228.0Z" fill-rule="nonzero"/><path fill="#4285f4" clip-path="url(#id_0)" d="M541.0 332.0L531.0 332.0L531.0 228.0C531.0 226.89543 531.89545 226.0 533.0 226.0L539.0 226.0C540.10455 226.0 541.0 226.89543 541.0 228.0Z" fill-rule="nonzero"/><path stroke="#000000" stroke-width="0.0" stroke-linecap="butt" stroke-opacity="0.0" clip-path="url(#id_0)" d="M86.0 332.0L76.0 332.0L76.0 233.0C76.0 231.89543 76.89543 231.0 78.0 231.0L84.0 231.0C85.10457 231.0 86.0 231.89543 86.0 233.0Z" fill-rule="nonzero"/><path fill="#ea4335" clip-path="url(#id_0)" d="M86.0 332.0L76.0 332.0L76.0 233.0C76.0 231.89543 76.89543 231.0 78.0 231.0L84.0 231.0C85.10457 231.0 86.0 231.89543 86.0 233.0Z" fill-rule="nonzero"/><path stroke="#000000" stroke-width="0.0" stroke-linecap="butt" stroke-opacity="0.0" clip-path="url(#id_0)" d="M137.0 332.0L127.0 332.0L127.0 235.0C127.0 233.89543 127.89543 233.0 129.0 233.0L135.0 233.0C136.10457 233.0 137.0 233.89543 137.0 235.0Z" fill-rule="nonzero"/><path fill="#ea4335" clip-path="url(#id_0)" d="M137.0 332.0L127.0 332.0L127.0 235.0C127.0 233.89543 127.89543 233.0 129.0 233.0L135.0 233.0C136.10457 233.0 137.0 233.89543 137.0 235.0Z" fill-rule="nonzero"/><path stroke="#000000" stroke-width="0.0" stroke-linecap="butt" stroke-opacity="0.0" clip-path="url(#id_0)" d="M189.0 332.0L179.0 332.0L179.0 233.0C179.0 231.89543 179.89543 231.0 181.0 231.0L187.0 231.0C188.10457 231.0 189.0 231.89543 189.0 233.0Z" fill-rule="nonzero"/><path fill="#ea4335" clip-path="url(#id_0)" d="M189.0 332.0L179.0 332.0L179.0 233.0C179.0 231.89543 179.89543 231.0 181.0 231.0L187.0 231.0C188.10457 231.0 189.0 231.89543 189.0 233.0Z" fill-rule="nonzero"/><path stroke="#000000" stroke-width="0.0" stroke-linecap="butt" stroke-opacity="0.0" clip-path="url(#id_0)" d="M241.0 332.0L231.0 332.0L231.0 233.0C231.0 231.89543 231.89543 231.0 233.0 231.0L239.0 231.0C240.10457 231.0 241.0 231.89543 241.0 233.0Z" fill-rule="nonzero"/><path fill="#ea4335" clip-path="url(#id_0)" d="M241.0 332.0L231.0 332.0L231.0 233.0C231.0 231.89543 231.89543 231.0 233.0 231.0L239.0 231.0C240.10457 231.0 241.0 231.89543 241.0 233.0Z" fill-rule="nonzero"/><path stroke="#000000" stroke-width="0.0" stroke-linecap="butt" stroke-opacity="0.0" clip-path="url(#id_0)" d="M293.0 332.0L283.0 332.0L283.0 233.0C283.0 231.89543 283.89542 231.0 285.0 231.0L291.0 231.0C292.10458 231.0 293.0 231.89543 293.0 233.0Z" fill-rule="nonzero"/><path fill="#ea4335" clip-path="url(#id_0)" d="M293.0 332.0L283.0 332.0L283.0 233.0C283.0 231.89543 283.89542 231.0 285.0 231.0L291.0 231.0C292.10458 231.0 293.0 231.89543 293.0 233.0Z" fill-rule="nonzero"/><path stroke="#000000" stroke-width="0.0" stroke-linecap="butt" stroke-opacity="0.0" clip-path="url(#id_0)" d="M344.0 332.0L334.0 332.0L334.0 234.0C334.0 232.89543 334.89542 232.0 336.0 232.0L342.0 232.0C343.10458 232.0 344.0 232.89543 344.0 234.0Z" fill-rule="nonzero"/><path fill="#ea4335" clip-path="url(#id_0)" d="M344.0 332.0L334.0 332.0L334.0 234.0C334.0 232.89543 334.89542 232.0 336.0 232.0L342.0 232.0C343.10458 232.0 344.0 232.89543 344.0 234.0Z" fill-rule="nonzero"/><path stroke="#000000" stroke-width="0.0" stroke-linecap="butt" stroke-opacity="0.0" clip-path="url(#id_0)" d="M396.0 332.0L386.0 332.0L386.0 232.0C386.0 230.89543 386.89542 230.0 388.0 230.0L394.0 230.0C395.10458 230.0 396.0 230.89543 396.0 232.0Z" fill-rule="nonzero"/><path fill="#ea4335" clip-path="url(#id_0)" d="M396.0 332.0L386.0 332.0L386.0 232.0C386.0 230.89543 386.89542 230.0 388.0 230.0L394.0 230.0C395.10458 230.0 396.0 230.89543 396.0 232.0Z" fill-rule="nonzero"/><path stroke="#000000" stroke-width="0.0" stroke-linecap="butt" stroke-opacity="0.0" clip-path="url(#id_0)" d="M448.0 332.0L438.0 332.0L438.0 233.0C438.0 231.89543 438.89542 231.0 440.0 231.0L446.0 231.0C447.10458 231.0 448.0 231.89543 448.0 233.0Z" fill-rule="nonzero"/><path fill="#ea4335" clip-path="url(#id_0)" d="M448.0 332.0L438.0 332.0L438.0 233.0C438.0 231.89543 438.89542 231.0 440.0 231.0L446.0 231.0C447.10458 231.0 448.0 231.89543 448.0 233.0Z" fill-rule="nonzero"/><path stroke="#000000" stroke-width="0.0" stroke-linecap="butt" stroke-opacity="0.0" clip-path="url(#id_0)" d="M500.0 332.0L490.0 332.0L490.0 235.0C490.0 233.89543 490.89542 233.0 492.0 233.0L498.0 233.0C499.10458 233.0 500.0 233.89543 500.0 235.0Z" fill-rule="nonzero"/><path fill="#ea4335" clip-path="url(#id_0)" d="M500.0 332.0L490.0 332.0L490.0 235.0C490.0 233.89543 490.89542 233.0 492.0 233.0L498.0 233.0C499.10458 233.0 500.0 233.89543 500.0 235.0Z" fill-rule="nonzero"/><path stroke="#000000" stroke-width="0.0" stroke-linecap="butt" stroke-opacity="0.0" clip-path="url(#id_0)" d="M552.0 332.0L542.0 332.0L542.0 235.0C542.0 233.89543 542.89545 233.0 544.0 233.0L550.0 233.0C551.10455 233.0 552.0 233.89543 552.0 235.0Z" fill-rule="nonzero"/><path fill="#ea4335" clip-path="url(#id_0)" d="M552.0 332.0L542.0 332.0L542.0 235.0C542.0 233.89543 542.89545 233.0 544.0 233.0L550.0 233.0C551.10455 233.0 552.0 233.89543 552.0 235.0Z" fill-rule="nonzero"/><path stroke="#000000" stroke-width="0.0" stroke-linecap="butt" stroke-opacity="0.0" clip-path="url(#id_0)" d="M97.0 332.0L87.0 332.0L87.0 229.0C87.0 227.89543 87.89543 227.0 89.0 227.0L95.0 227.0C96.10457 227.0 97.0 227.89543 97.0 229.0Z" fill-rule="nonzero"/><path fill="#fbbc04" clip-path="url(#id_0)" d="M97.0 332.0L87.0 332.0L87.0 229.0C87.0 227.89543 87.89543 227.0 89.0 227.0L95.0 227.0C96.10457 227.0 97.0 227.89543 97.0 229.0Z" fill-rule="nonzero"/><path stroke="#000000" stroke-width="0.0" stroke-linecap="butt" stroke-opacity="0.0" clip-path="url(#id_0)" d="M148.0 332.0L138.0 332.0L138.0 231.0C138.0 229.89543 138.89543 229.0 140.0 229.0L146.0 229.0C147.10457 229.0 148.0 229.89543 148.0 231.0Z" fill-rule="nonzero"/><path fill="#fbbc04" clip-path="url(#id_0)" d="M148.0 332.0L138.0 332.0L138.0 231.0C138.0 229.89543 138.89543 229.0 140.0 229.0L146.0 229.0C147.10457 229.0 148.0 229.89543 148.0 231.0Z" fill-rule="nonzero"/><path stroke="#000000" stroke-width="0.0" stroke-linecap="butt" stroke-opacity="0.0" clip-path="url(#id_0)" d="M200.0 332.0L190.0 332.0L190.0 230.0C190.0 228.89543 190.89543 228.0 192.0 228.0L198.0 228.0C199.10457 228.0 200.0 228.89543 200.0 230.0Z" fill-rule="nonzero"/><path fill="#fbbc04" clip-path="url(#id_0)" d="M200.0 332.0L190.0 332.0L190.0 230.0C190.0 228.89543 190.89543 228.0 192.0 228.0L198.0 228.0C199.10457 228.0 200.0 228.89543 200.0 230.0Z" fill-rule="nonzero"/><path stroke="#000000" stroke-width="0.0" stroke-linecap="butt" stroke-opacity="0.0" clip-path="url(#id_0)" d="M252.0 332.0L242.0 332.0L242.0 230.0C242.0 228.89543 242.89543 228.0 244.0 228.0L250.0 228.0C251.10457 228.0 252.0 228.89543 252.0 230.0Z" fill-rule="nonzero"/><path fill="#fbbc04" clip-path="url(#id_0)" d="M252.0 332.0L242.0 332.0L242.0 230.0C242.0 228.89543 242.89543 228.0 244.0 228.0L250.0 228.0C251.10457 228.0 252.0 228.89543 252.0 230.0Z" fill-rule="nonzero"/><path stroke="#000000" stroke-width="0.0" stroke-linecap="butt" stroke-opacity="0.0" clip-path="url(#id_0)" d="M304.0 332.0L294.0 332.0L294.0 230.0C294.0 228.89543 294.89542 228.0 296.0 228.0L302.0 228.0C303.10458 228.0 304.0 228.89543 304.0 230.0Z" fill-rule="nonzero"/><path fill="#fbbc04" clip-path="url(#id_0)" d="M304.0 332.0L294.0 332.0L294.0 230.0C294.0 228.89543 294.89542 228.0 296.0 228.0L302.0 228.0C303.10458 228.0 304.0 228.89543 304.0 230.0Z" fill-rule="nonzero"/><path stroke="#000000" stroke-width="0.0" stroke-linecap="butt" stroke-opacity="0.0" clip-path="url(#id_0)" d="M355.0 332.0L345.0 332.0L345.0 230.0C345.0 228.89543 345.89542 228.0 347.0 228.0L353.0 228.0C354.10458 228.0 355.0 228.89543 355.0 230.0Z" fill-rule="nonzero"/><path fill="#fbbc04" clip-path="url(#id_0)" d="M355.0 332.0L345.0 332.0L345.0 230.0C345.0 228.89543 345.89542 228.0 347.0 228.0L353.0 228.0C354.10458 228.0 355.0 228.89543 355.0 230.0Z" fill-rule="nonzero"/><path stroke="#000000" stroke-width="0.0" stroke-linecap="butt" stroke-opacity="0.0" clip-path="url(#id_0)" d="M407.0 332.0L397.0 332.0L397.0 228.0C397.0 226.89543 397.89542 226.0 399.0 226.0L405.0 226.0C406.10458 226.0 407.0 226.89543 407.0 228.0Z" fill-rule="nonzero"/><path fill="#fbbc04" clip-path="url(#id_0)" d="M407.0 332.0L397.0 332.0L397.0 228.0C397.0 226.89543 397.89542 226.0 399.0 226.0L405.0 226.0C406.10458 226.0 407.0 226.89543 407.0 228.0Z" fill-rule="nonzero"/><path stroke="#000000" stroke-width="0.0" stroke-linecap="butt" stroke-opacity="0.0" clip-path="url(#id_0)" d="M459.0 332.0L449.0 332.0L449.0 229.0C449.0 227.89543 449.89542 227.0 451.0 227.0L457.0 227.0C458.10458 227.0 459.0 227.89543 459.0 229.0Z" fill-rule="nonzero"/><path fill="#fbbc04" clip-path="url(#id_0)" d="M459.0 332.0L449.0 332.0L449.0 229.0C449.0 227.89543 449.89542 227.0 451.0 227.0L457.0 227.0C458.10458 227.0 459.0 227.89543 459.0 229.0Z" fill-rule="nonzero"/><path stroke="#000000" stroke-width="0.0" stroke-linecap="butt" stroke-opacity="0.0" clip-path="url(#id_0)" d="M511.0 332.0L501.0 332.0L501.0 231.0C501.0 229.89543 501.89542 229.0 503.0 229.0L509.0 229.0C510.10458 229.0 511.0 229.89543 511.0 231.0Z" fill-rule="nonzero"/><path fill="#fbbc04" clip-path="url(#id_0)" d="M511.0 332.0L501.0 332.0L501.0 231.0C501.0 229.89543 501.89542 229.0 503.0 229.0L509.0 229.0C510.10458 229.0 511.0 229.89543 511.0 231.0Z" fill-rule="nonzero"/><path stroke="#000000" stroke-width="0.0" stroke-linecap="butt" stroke-opacity="0.0" clip-path="url(#id_0)" d="M563.0 332.0L553.0 332.0L553.0 232.0C553.0 230.89543 553.89545 230.0 555.0 230.0L561.0 230.0C562.10455 230.0 563.0 230.89543 563.0 232.0Z" fill-rule="nonzero"/><path fill="#fbbc04" clip-path="url(#id_0)" d="M563.0 332.0L553.0 332.0L553.0 232.0C553.0 230.89543 553.89545 230.0 555.0 230.0L561.0 230.0C562.10455 230.0 563.0 230.89543 563.0 232.0Z" fill-rule="nonzero"/><path fill="#000000" d="M33.05 332.21564Q33.05 330.6844 33.3625 329.7625Q33.675 328.825 34.284374 328.325Q34.909374 327.825 35.846874 327.825Q36.534374 327.825 37.05 328.10626Q37.58125 328.3875 37.925 328.91876Q38.26875 329.4344 38.45625 330.1844Q38.64375 330.9344 38.64375 332.21564Q38.64375 333.73126 38.33125 334.65314Q38.034374 335.575 37.409374 336.09064Q36.8 336.59064 35.846874 336.59064Q34.6125 336.59064 33.89375 335.7Q33.05 334.6375 33.05 332.21564ZM34.128124 332.21564Q34.128124 334.325 34.628124 335.02814Q35.128124 335.73126 35.846874 335.73126Q36.58125 335.73126 37.065624 335.02814Q37.565624 334.325 37.565624 332.21564Q37.565624 330.09064 37.065624 329.40314Q36.58125 328.7 35.83125 328.7Q35.1125 328.7 34.675 329.3094Q34.128124 330.09064 34.128124 332.21564Z" fill-rule="nonzero"/><path fill="#000000" d="M31.596874 274.3927L31.596874 275.40833L25.909374 275.40833Q25.909374 275.03333 26.034374 274.67395Q26.253124 274.09583 26.721874 273.53333Q27.20625 272.97083 28.1125 272.23645Q29.51875 271.0802 30.003124 270.40833Q30.503124 269.73645 30.503124 269.1427Q30.503124 268.5177 30.05 268.09583Q29.596874 267.65833 28.878124 267.65833Q28.1125 267.65833 27.659374 268.11145Q27.20625 268.56458 27.190624 269.37708L26.1125 269.2677Q26.221874 268.04895 26.940624 267.42395Q27.675 266.78333 28.909374 266.78333Q30.14375 266.78333 30.8625 267.47083Q31.58125 268.15833 31.58125 269.17395Q31.58125 269.68958 31.3625 270.18958Q31.159374 270.67395 30.659374 271.23645Q30.175 271.78333 29.05 272.73645Q28.096874 273.53333 27.815624 273.8302Q27.55 274.11145 27.378124 274.3927L31.596874 274.3927ZM33.05 273.15833L34.159374 273.06458Q34.284374 273.87708 34.721874 274.28333Q35.175 274.68958 35.815624 274.68958Q36.565624 274.68958 37.096874 274.11145Q37.628124 273.53333 37.628124 272.59583Q37.628124 271.68958 37.1125 271.17395Q36.6125 270.6427 35.784374 270.6427Q35.284374 270.6427 34.8625 270.87708Q34.45625 271.11145 34.221874 271.47083L33.2375 271.34583L34.065624 266.93958L38.346874 266.93958L38.346874 267.93958L34.909374 267.93958L34.45625 270.25208Q35.221874 269.7052 36.065624 269.7052Q37.190624 269.7052 37.95625 270.48645Q38.7375 271.2677 38.7375 272.50208Q38.7375 273.65833 38.065624 274.5177Q37.2375 275.54895 35.815624 275.54895Q34.64375 275.54895 33.89375 274.8927Q33.159374 274.23645 33.05 273.15833Z" fill-rule="nonzero"/><path fill="#000000" d="M26.05 212.11667L27.159374 212.02292Q27.284374 212.83542 27.721874 213.24167Q28.175 213.64792 28.815624 213.64792Q29.565624 213.64792 30.096874 213.0698Q30.628124 212.49167 30.628124 211.55417Q30.628124 210.64792 30.1125 210.1323Q29.6125 209.60104 28.784374 209.60104Q28.284374 209.60104 27.8625 209.83542Q27.45625 210.0698 27.221874 210.42917L26.2375 210.30417L27.065624 205.89792L31.346874 205.89792L31.346874 206.89792L27.909374 206.89792L27.45625 209.21042Q28.221874 208.66354 29.065624 208.66354Q30.190624 208.66354 30.95625 209.4448Q31.7375 210.22604 31.7375 211.46042Q31.7375 212.61667 31.065624 213.47604Q30.2375 214.5073 28.815624 214.5073Q27.64375 214.5073 26.89375 213.85104Q26.159374 213.1948 26.05 212.11667ZM33.05 210.1323Q33.05 208.60104 33.3625 207.67917Q33.675 206.74167 34.284374 206.24167Q34.909374 205.74167 35.846874 205.74167Q36.534374 205.74167 37.05 206.02292Q37.58125 206.30417 37.925 206.83542Q38.26875 207.35104 38.45625 208.10104Q38.64375 208.85104 38.64375 210.1323Q38.64375 211.64792 38.33125 212.5698Q38.034374 213.49167 37.409374 214.0073Q36.8 214.5073 35.846874 214.5073Q34.6125 214.5073 33.89375 213.61667Q33.05 212.55417 33.05 210.1323ZM34.128124 210.1323Q34.128124 212.24167 34.628124 212.9448Q35.128124 213.64792 35.846874 213.64792Q36.58125 213.64792 37.065624 212.9448Q37.565624 212.24167 37.565624 210.1323Q37.565624 208.0073 37.065624 207.3198Q36.58125 206.61667 35.83125 206.61667Q35.1125 206.61667 34.675 207.22604Q34.128124 208.0073 34.128124 210.1323Z" fill-rule="nonzero"/><path fill="#000000" d="M26.1125 145.85625L26.1125 144.84062L31.675 144.84062L31.675 145.66875Q30.8625 146.54375 30.05 147.99687Q29.253124 149.43437 28.815624 150.96562Q28.4875 152.04375 28.409374 153.325L27.315624 153.325Q27.33125 152.30937 27.70625 150.87187Q28.096874 149.43437 28.8 148.10625Q29.51875 146.77812 30.33125 145.85625L26.1125 145.85625ZM33.05 151.075L34.159374 150.98125Q34.284374 151.79375 34.721874 152.2Q35.175 152.60625 35.815624 152.60625Q36.565624 152.60625 37.096874 152.02812Q37.628124 151.45 37.628124 150.5125Q37.628124 149.60625 37.1125 149.09062Q36.6125 148.55937 35.784374 148.55937Q35.284374 148.55937 34.8625 148.79375Q34.45625 149.02812 34.221874 149.3875L33.2375 149.2625L34.065624 144.85625L38.346874 144.85625L38.346874 145.85625L34.909374 145.85625L34.45625 148.16875Q35.221874 147.62187 36.065624 147.62187Q37.190624 147.62187 37.95625 148.40312Q38.7375 149.18437 38.7375 150.41875Q38.7375 151.575 38.065624 152.43437Q37.2375 153.46562 35.815624 153.46562Q34.64375 153.46562 33.89375 152.80937Q33.159374 152.15312 33.05 151.075Z" fill-rule="nonzero"/><path fill="#000000" d="M23.01875 92.28333L21.971874 92.28333L21.971874 85.56458Q21.58125 85.92396 20.95625 86.29896Q20.346874 86.65833 19.8625 86.83021L19.8625 85.81458Q20.7375 85.39271 21.39375 84.81458Q22.065624 84.22083 22.346874 83.65833L23.01875 83.65833L23.01875 92.28333ZM26.05 88.04896Q26.05 86.51771 26.3625 85.59583Q26.675 84.65833 27.284374 84.15833Q27.909374 83.65833 28.846874 83.65833Q29.534374 83.65833 30.05 83.93958Q30.58125 84.22083 30.925 84.75208Q31.26875 85.26771 31.45625 86.01771Q31.64375 86.76771 31.64375 88.04896Q31.64375 89.56458 31.33125 90.48646Q31.034374 91.40833 30.409374 91.92396Q29.8 92.42396 28.846874 92.42396Q27.6125 92.42396 26.89375 91.53333Q26.05 90.47083 26.05 88.04896ZM27.128124 88.04896Q27.128124 90.15833 27.628124 90.86146Q28.128124 91.56458 28.846874 91.56458Q29.58125 91.56458 30.065624 90.86146Q30.565624 90.15833 30.565624 88.04896Q30.565624 85.92396 30.065624 85.23646Q29.58125 84.53333 28.83125 84.53333Q28.1125 84.53333 27.675 85.14271Q27.128124 85.92396 27.128124 88.04896ZM33.05 88.04896Q33.05 86.51771 33.3625 85.59583Q33.675 84.65833 34.284374 84.15833Q34.909374 83.65833 35.846874 83.65833Q36.534374 83.65833 37.05 83.93958Q37.58125 84.22083 37.925 84.75208Q38.26875 85.26771 38.45625 86.01771Q38.64375 86.76771 38.64375 88.04896Q38.64375 89.56458 38.33125 90.48646Q38.034374 91.40833 37.409374 91.92396Q36.8 92.42396 35.846874 92.42396Q34.6125 92.42396 33.89375 91.53333Q33.05 90.47083 33.05 88.04896ZM34.128124 88.04896Q34.128124 90.15833 34.628124 90.86146Q35.128124 91.56458 35.846874 91.56458Q36.58125 91.56458 37.065624 90.86146Q37.565624 90.15833 37.565624 88.04896Q37.565624 85.92396 37.065624 85.23646Q36.58125 84.53333 35.83125 84.53333Q35.1125 84.53333 34.675 85.14271Q34.128124 85.92396 34.128124 88.04896Z" fill-rule="nonzero"/><path fill="#000000" d="M81.46875 349.45L80.421875 349.45L80.421875 342.73126Q80.03125 343.09064 79.40625 343.46564Q78.796875 343.825 78.3125 343.9969L78.3125 342.98126Q79.1875 342.5594 79.84375 341.98126Q80.515625 341.3875 80.796875 340.825L81.46875 340.825L81.46875 349.45Z" fill-rule="nonzero"/><path fill="#000000" d="M134.82465 348.4344L134.82465 349.45L129.13715 349.45Q129.13715 349.075 129.26215 348.71564Q129.4809 348.1375 129.94965 347.575Q130.43402 347.0125 131.34027 346.27814Q132.74652 345.1219 133.2309 344.45Q133.7309 343.77814 133.7309 343.1844Q133.7309 342.5594 133.27777 342.1375Q132.82465 341.7 132.1059 341.7Q131.34027 341.7 130.88715 342.15314Q130.43402 342.60626 130.4184 343.41876L129.34027 343.3094Q129.44965 342.09064 130.1684 341.46564Q130.90277 340.825 132.13715 340.825Q133.37152 340.825 134.09027 341.5125Q134.80902 342.2 134.80902 343.21564Q134.80902 343.73126 134.59027 344.23126Q134.38715 344.71564 133.88715 345.27814Q133.40277 345.825 132.27777 346.77814Q131.32465 347.575 131.0434 347.8719Q130.77777 348.15314 130.6059 348.4344L134.82465 348.4344Z" fill-rule="nonzero"/><path fill="#000000" d="M181.05556 347.1844L182.11806 347.04376Q182.28993 347.9344 182.72743 348.34064Q183.16493 348.73126 183.78993 348.73126Q184.53993 348.73126 185.05556 348.21564Q185.57118 347.7 185.57118 346.9344Q185.57118 346.21564 185.0868 345.7469Q184.61806 345.2625 183.88368 345.2625Q183.5868 345.2625 183.13368 345.3875L183.25868 344.45Q183.36806 344.46564 183.43056 344.46564Q184.10243 344.46564 184.63368 344.1219Q185.18056 343.7625 185.18056 343.02814Q185.18056 342.45 184.78993 342.075Q184.3993 341.6844 183.7743 341.6844Q183.16493 341.6844 182.74306 342.075Q182.3368 342.46564 182.22743 343.23126L181.16493 343.04376Q181.35243 341.9969 182.03993 341.41876Q182.72743 340.825 183.74306 340.825Q184.44618 340.825 185.03993 341.1375Q185.63368 341.4344 185.94618 341.95Q186.25868 342.46564 186.25868 343.0594Q186.25868 343.60626 185.9618 344.075Q185.66493 344.52814 185.0868 344.79376Q185.8368 344.96564 186.25868 345.52814Q186.68056 346.075 186.68056 346.91876Q186.68056 348.04376 185.85243 348.825Q185.03993 349.60626 183.78993 349.60626Q182.66493 349.60626 181.91493 348.9344Q181.16493 348.2469 181.05556 347.1844Z" fill-rule="nonzero"/><path fill="#000000" d="M236.20833 349.45L236.20833 347.3875L232.48958 347.3875L232.48958 346.41876L236.41145 340.85626L237.27083 340.85626L237.27083 346.41876L238.42708 346.41876L238.42708 347.3875L237.27083 347.3875L237.27083 349.45L236.20833 349.45ZM236.20833 346.41876L236.20833 342.5594L233.52083 346.41876L236.20833 346.41876Z" fill-rule="nonzero"/><path fill="#000000" d="M284.6111 347.2L285.7205 347.10626Q285.8455 347.91876 286.283 348.325Q286.7361 348.73126 287.37674 348.73126Q288.12674 348.73126 288.658 348.15314Q289.18924 347.575 289.18924 346.6375Q289.18924 345.73126 288.6736 345.21564Q288.1736 344.6844 287.3455 344.6844Q286.8455 344.6844 286.4236 344.91876Q286.01736 345.15314 285.783 345.5125L284.7986 345.3875L285.62674 340.98126L289.908 340.98126L289.908 341.98126L286.4705 341.98126L286.01736 344.29376Q286.783 343.7469 287.62674 343.7469Q288.75174 343.7469 289.51736 344.52814Q290.2986 345.3094 290.2986 346.54376Q290.2986 347.7 289.62674 348.5594Q288.7986 349.59064 287.37674 349.59064Q286.20486 349.59064 285.45486 348.9344Q284.7205 348.27814 284.6111 347.2Z" fill-rule="nonzero"/><path fill="#000000" d="M341.85764 342.96564L340.81076 343.04376Q340.67014 342.41876 340.42014 342.1375Q339.98264 341.6844 339.35764 341.6844Q338.85764 341.6844 338.467 341.96564Q337.98264 342.34064 337.68576 343.04376Q337.4045 343.73126 337.3889 345.0125Q337.7639 344.4344 338.31076 344.15314Q338.87326 343.8719 339.48264 343.8719Q340.5295 343.8719 341.2639 344.65314Q342.0139 345.4344 342.0139 346.65314Q342.0139 347.46564 341.6545 348.16876Q341.31076 348.85626 340.7014 349.23126Q340.092 349.59064 339.3264 349.59064Q337.99826 349.59064 337.17014 348.6219Q336.342 347.65314 336.342 345.4344Q336.342 342.9344 337.2639 341.8094Q338.06076 340.825 339.42014 340.825Q340.43576 340.825 341.0764 341.40314Q341.73264 341.96564 341.85764 342.96564ZM337.56076 346.66876Q337.56076 347.21564 337.7795 347.71564Q338.0139 348.2 338.42014 348.46564Q338.842 348.73126 339.31076 348.73126Q339.967 348.73126 340.4514 348.2Q340.93576 347.65314 340.93576 346.73126Q340.93576 345.84064 340.4514 345.325Q339.98264 344.8094 339.2639 344.8094Q338.54514 344.8094 338.04514 345.325Q337.56076 345.84064 337.56076 346.66876Z" fill-rule="nonzero"/><path fill="#000000" d="M388.22916 341.98126L388.22916 340.96564L393.79166 340.96564L393.79166 341.79376Q392.97916 342.66876 392.16666 344.1219Q391.36978 345.5594 390.93228 347.09064Q390.60416 348.16876 390.52603 349.45L389.43228 349.45Q389.4479 348.4344 389.8229 346.9969Q390.21353 345.5594 390.91666 344.23126Q391.6354 342.90314 392.4479 341.98126L388.22916 341.98126Z" fill-rule="nonzero"/><path fill="#000000" d="M441.56946 344.79376Q440.9132 344.54376 440.58508 344.10626Q440.27258 343.65314 440.27258 343.04376Q440.27258 342.10626 440.94446 341.46564Q441.63196 340.825 442.74133 340.825Q443.86633 340.825 444.55383 341.48126Q445.24133 342.1375 445.24133 343.075Q445.24133 343.66876 444.92883 344.10626Q444.61633 344.54376 443.9757 344.79376Q444.77258 345.04376 445.17883 345.6219Q445.58508 346.2 445.58508 346.9969Q445.58508 348.09064 444.80383 348.84064Q444.0382 349.59064 442.75696 349.59064Q441.49133 349.59064 440.71008 348.84064Q439.92883 348.09064 439.92883 346.96564Q439.92883 346.1219 440.3507 345.5594Q440.7882 344.9969 441.56946 344.79376ZM441.3507 342.9969Q441.3507 343.60626 441.74133 343.9969Q442.14758 344.3875 442.77258 344.3875Q443.38196 344.3875 443.77258 344.0125Q444.1632 343.6219 444.1632 343.0594Q444.1632 342.48126 443.75696 342.09064Q443.3507 341.6844 442.75696 341.6844Q442.14758 341.6844 441.74133 342.075Q441.3507 342.46564 441.3507 342.9969ZM441.02258 346.96564Q441.02258 347.41876 441.2257 347.84064Q441.44446 348.2625 441.86633 348.4969Q442.2882 348.73126 442.77258 348.73126Q443.52258 348.73126 444.00696 348.2469Q444.50696 347.7625 444.50696 347.0125Q444.50696 346.2469 444.00696 345.7469Q443.50696 345.2469 442.74133 345.2469Q441.99133 345.2469 441.50696 345.7469Q441.02258 346.23126 441.02258 346.96564Z" fill-rule="nonzero"/><path fill="#000000" d="M491.87848 347.46564L492.8941 347.3719Q493.0191 348.09064 493.37848 348.41876Q493.75348 348.73126 494.31598 348.73126Q494.80035 348.73126 495.15973 348.5125Q495.53473 348.27814 495.7691 347.91876Q496.00348 347.54376 496.15973 346.91876Q496.31598 346.27814 496.31598 345.6219Q496.31598 345.54376 496.31598 345.40314Q496.00348 345.90314 495.4566 346.23126Q494.90973 346.54376 494.2691 346.54376Q493.19098 346.54376 492.4566 345.77814Q491.72223 344.9969 491.72223 343.73126Q491.72223 342.41876 492.48785 341.6219Q493.2691 340.825 494.42535 340.825Q495.25348 340.825 495.94098 341.27814Q496.6441 341.73126 497.00348 342.575Q497.36285 343.40314 497.36285 344.98126Q497.36285 346.6219 497.00348 347.60626Q496.65973 348.575 495.94098 349.09064Q495.23785 349.59064 494.30035 349.59064Q493.28473 349.59064 492.6441 349.04376Q492.00348 348.48126 491.87848 347.46564ZM496.19098 343.66876Q496.19098 342.7625 495.7066 342.23126Q495.23785 341.7 494.55035 341.7Q493.84723 341.7 493.31598 342.27814Q492.80035 342.84064 492.80035 343.7625Q492.80035 344.575 493.30035 345.09064Q493.80035 345.60626 494.5191 345.60626Q495.25348 345.60626 495.72223 345.09064Q496.19098 344.575 496.19098 343.66876Z" fill-rule="nonzero"/><path fill="#000000" d="M543.96875 349.45L542.9219 349.45L542.9219 342.73126Q542.53125 343.09064 541.90625 343.46564Q541.2969 343.825 540.8125 343.9969L540.8125 342.98126Q541.6875 342.5594 542.34375 341.98126Q543.0156 341.3875 543.2969 340.825L543.96875 340.825L543.96875 349.45ZM547.0 345.21564Q547.0 343.6844 547.3125 342.7625Q547.625 341.825 548.2344 341.325Q548.8594 340.825 549.7969 340.825Q550.4844 340.825 551.0 341.10626Q551.53125 341.3875 551.875 341.91876Q552.21875 342.4344 552.40625 343.1844Q552.59375 343.9344 552.59375 345.21564Q552.59375 346.73126 552.28125 347.65314Q551.9844 348.575 551.3594 349.09064Q550.75 349.59064 549.7969 349.59064Q548.5625 349.59064 547.84375 348.7Q547.0 347.6375 547.0 345.21564ZM548.0781 345.21564Q548.0781 347.325 548.5781 348.02814Q549.0781 348.73126 549.7969 348.73126Q550.53125 348.73126 551.0156 348.02814Q551.5156 347.325 551.5156 345.21564Q551.5156 343.09064 551.0156 342.40314Q550.53125 341.7 549.78125 341.7Q549.0625 341.7 548.625 342.3094Q548.0781 343.09064 548.0781 345.21564Z" fill-rule="nonzero"/><path fill="#4285f4" d="M231.5 56.916668C231.5 56.364384 231.94771 55.916668 232.5 55.916668L242.5 55.916668C243.05229 55.916668 243.5 56.364384 243.5 56.916668L243.5 66.916664C243.5 67.46895 243.05229 67.916664 242.5 67.916664L232.5 67.916664C231.94771 67.916664 231.5 67.46895 231.5 66.916664Z" fill-rule="nonzero"/><path fill="#1a1a1a" d="M252.375 65.916664L252.375 57.322914L253.51562 57.322914L253.51562 64.90104L257.75 64.90104L257.75 65.916664L252.375 65.916664ZM259.42188 65.916664L259.42188 57.322914L262.67188 57.322914Q263.51562 57.322914 263.96875 57.40104Q264.60938 57.510414 265.03125 57.80729Q265.46875 58.104164 265.71875 58.635414Q265.98438 59.166664 265.98438 59.80729Q265.98438 60.90104 265.28125 61.666664Q264.59375 62.416664 262.76562 62.416664L260.5625 62.416664L260.5625 65.916664L259.42188 65.916664ZM260.5625 61.416664L262.78125 61.416664Q263.89062 61.416664 264.34375 61.010414Q264.8125 60.58854 264.8125 59.83854Q264.8125 59.30729 264.53125 58.93229Q264.26562 58.541664 263.82812 58.416664Q263.53125 58.33854 262.76562 58.33854L260.5625 58.33854L260.5625 61.416664Z" fill-rule="nonzero"/><path fill="#ea4335" d="M282.5 56.916668C282.5 56.364384 282.94772 55.916668 283.5 55.916668L293.5 55.916668C294.05228 55.916668 294.5 56.364384 294.5 56.916668L294.5 66.916664C294.5 67.46895 294.05228 67.916664 293.5 67.916664L283.5 67.916664C282.94772 67.916664 282.5 67.46895 282.5 66.916664Z" fill-rule="nonzero"/><path fill="#1a1a1a" d="M303.375 65.916664L303.375 57.322914L304.51562 57.322914L304.51562 64.90104L308.75 64.90104L308.75 65.916664L303.375 65.916664ZM310.4375 65.916664L310.4375 57.322914L314.25 57.322914Q315.40625 57.322914 316.0 57.55729Q316.59375 57.791664 316.95312 58.385414Q317.3125 58.96354 317.3125 59.666664Q317.3125 60.58854 316.71875 61.21354Q316.125 61.83854 314.89062 62.010414Q315.34375 62.229164 315.57812 62.43229Q316.07812 62.885414 316.51562 63.572914L318.01562 65.916664L316.57812 65.916664L315.45312 64.135414Q314.95312 63.354164 314.625 62.947914Q314.3125 62.541664 314.04688 62.385414Q313.79688 62.21354 313.53125 62.135414Q313.34375 62.104164 312.90625 62.104164L311.57812 62.104164L311.57812 65.916664L310.4375 65.916664ZM311.57812 61.11979L314.03125 61.11979Q314.79688 61.11979 315.23438 60.96354Q315.6875 60.791664 315.90625 60.447914Q316.14062 60.08854 316.14062 59.666664Q316.14062 59.05729 315.6875 58.666664Q315.25 58.27604 314.29688 58.27604L311.57812 58.27604L311.57812 61.11979Z" fill-rule="nonzero"/><path fill="#fbbc04" d="M334.5 56.916668C334.5 56.364384 334.94772 55.916668 335.5 55.916668L345.5 55.916668C346.05228 55.916668 346.5 56.364384 346.5 56.916668L346.5 66.916664C346.5 67.46895 346.05228 67.916664 345.5 67.916664L335.5 67.916664C334.94772 67.916664 334.5 67.46895 334.5 66.916664Z" fill-rule="nonzero"/><path fill="#1a1a1a" d="M355.48438 65.916664L355.48438 57.322914L361.28125 57.322914L361.28125 58.33854L356.625 58.33854L356.625 60.99479L360.65625 60.99479L360.65625 62.010414L356.625 62.010414L356.625 65.916664L355.48438 65.916664ZM365.96875 65.916664L364.92188 65.916664L364.92188 59.197914Q364.53125 59.55729 363.90625 59.93229Q363.29688 60.291664 362.8125 60.46354L362.8125 59.447914Q363.6875 59.02604 364.34375 58.447914Q365.01562 57.854164 365.29688 57.291664L365.96875 57.291664L365.96875 65.916664Z" fill-rule="nonzero"/><path fill="#757575" d="M20.096874 37.55L20.096874 23.2375L25.4875 23.2375Q26.925 23.2375 27.675 23.3625Q28.721874 23.55 29.440624 24.05Q30.159374 24.534374 30.58125 25.425Q31.01875 26.315624 31.01875 27.378124Q31.01875 29.20625 29.846874 30.471874Q28.690624 31.721874 25.659374 31.721874L21.9875 31.721874L21.9875 37.55L20.096874 37.55ZM21.9875 30.034374L25.690624 30.034374Q27.51875 30.034374 28.284374 29.3625Q29.065624 28.675 29.065624 27.425Q29.065624 26.534374 28.6125 25.89375Q28.159374 25.253124 27.425 25.05Q26.940624 24.925 25.64375 24.925L21.9875 24.925L21.9875 30.034374ZM43.315624 32.534374L45.20625 33.003124Q44.6125 35.346874 43.065624 36.58125Q41.51875 37.8 39.26875 37.8Q36.95625 37.8 35.503124 36.8625Q34.065624 35.909374 33.3 34.128124Q32.55 32.33125 32.55 30.284374Q32.55 28.05 33.39375 26.39375Q34.253124 24.721874 35.83125 23.8625Q37.409374 22.9875 39.3 22.9875Q41.45625 22.9875 42.909374 24.08125Q44.378124 25.175 44.95625 27.159374L43.096874 27.596874Q42.596874 26.034374 41.64375 25.33125Q40.70625 24.6125 39.26875 24.6125Q37.6125 24.6125 36.503124 25.409374Q35.39375 26.190624 34.940624 27.534374Q34.503124 28.8625 34.503124 30.26875Q34.503124 32.096874 35.034374 33.471874Q35.565624 34.83125 36.690624 35.503124Q37.815624 36.175 39.1125 36.175Q40.70625 36.175 41.815624 35.253124Q42.925 34.33125 43.315624 32.534374ZM47.190624 37.55L47.190624 23.2375L56.846874 23.2375L56.846874 24.925L49.08125 24.925L49.08125 29.3625L55.8 29.3625L55.8 31.05L49.08125 31.05L49.08125 37.55L47.190624 37.55ZM65.8 31.940624L65.8 30.253124L71.8625 30.2375L71.8625 35.55Q70.45625 36.675 68.97188 37.2375Q67.4875 37.8 65.925 37.8Q63.815624 37.8 62.096874 36.89375Q60.378124 35.9875 59.4875 34.284374Q58.6125 32.565624 58.6125 30.45625Q58.6125 28.3625 59.4875 26.565624Q60.3625 24.753124 62.003124 23.878124Q63.64375 22.9875 65.78438 22.9875Q67.33125 22.9875 68.58125 23.4875Q69.84688 23.9875 70.55 24.89375Q71.26875 25.784374 71.64375 27.2375L69.94063 27.70625Q69.6125 26.6125 69.12813 25.9875Q68.65938 25.3625 67.76875 24.9875Q66.87813 24.6125 65.8 24.6125Q64.4875 24.6125 63.534374 25.003124Q62.596874 25.39375 62.01875 26.05Q61.440624 26.690624 61.1125 27.45625Q60.565624 28.784374 60.565624 30.346874Q60.565624 32.253124 61.221874 33.55Q61.89375 34.83125 63.14375 35.45625Q64.40938 36.08125 65.81563 36.08125Q67.05 36.08125 68.22188 35.6125Q69.39375 35.14375 70.00313 34.596874L70.00313 31.940624L65.8 31.940624ZM80.19063 33.253124L80.19063 31.4875L85.58125 31.4875L85.58125 33.253124L80.19063 33.253124ZM94.01875 37.55L94.01875 23.2375L99.39375 23.2375Q101.03438 23.2375 102.01875 23.675Q103.00313 24.096874 103.56563 25.003124Q104.12813 25.909374 104.12813 26.89375Q104.12813 27.815624 103.62813 28.628124Q103.14375 29.440624 102.12813 29.925Q103.425 30.315624 104.12813 31.2375Q104.83125 32.14375 104.83125 33.39375Q104.83125 34.409374 104.39375 35.26875Q103.97188 36.128124 103.34688 36.596874Q102.72188 37.065624 101.78438 37.315624Q100.84688 37.55 99.47188 37.55L94.01875 37.55ZM95.90938 29.253124L99.00313 29.253124Q100.26875 29.253124 100.81563 29.08125Q101.53438 28.8625 101.89375 28.378124Q102.26875 27.878124 102.26875 27.1125Q102.26875 26.409374 101.925 25.8625Q101.58125 25.315624 100.94063 25.128124Q100.31563 24.925 98.76875 24.925L95.90938 24.925L95.90938 29.253124ZM95.90938 35.8625L99.47188 35.8625Q100.39375 35.8625 100.76875 35.784374Q101.425 35.675 101.8625 35.409374Q102.3 35.128124 102.58125 34.6125Q102.8625 34.08125 102.8625 33.39375Q102.8625 32.596874 102.45625 32.003124Q102.05 31.409374 101.31563 31.175Q100.58125 30.940624 99.22188 30.940624L95.90938 30.940624L95.90938 35.8625ZM106.22188 32.3625Q106.22188 29.4875 107.81563 28.096874Q109.15938 26.940624 111.08125 26.940624Q113.22188 26.940624 114.56563 28.346874Q115.925 29.753124 115.925 32.221874Q115.925 34.221874 115.33125 35.378124Q114.7375 36.51875 113.58125 37.159374Q112.44063 37.784374 111.08125 37.784374Q108.89375 37.784374 107.55 36.39375Q106.22188 34.9875 106.22188 32.3625ZM108.01875 32.3625Q108.01875 34.3625 108.87813 35.346874Q109.75313 36.33125 111.08125 36.33125Q112.39375 36.33125 113.25313 35.346874Q114.12813 34.346874 114.12813 32.3Q114.12813 30.378124 113.25313 29.39375Q112.37813 28.39375 111.08125 28.39375Q109.75313 28.39375 108.87813 29.39375Q108.01875 30.378124 108.01875 32.3625ZM117.15938 34.45625L118.90938 34.175Q119.05 35.221874 119.72188 35.784374Q120.39375 36.33125 121.59688 36.33125Q122.8 36.33125 123.37813 35.846874Q123.97188 35.346874 123.97188 34.690624Q123.97188 34.096874 123.45625 33.753124Q123.09688 33.51875 121.65938 33.159374Q119.72188 32.659374 118.97188 32.315624Q118.2375 31.95625 117.84688 31.33125Q117.45625 30.690624 117.45625 29.925Q117.45625 29.2375 117.76875 28.64375Q118.09688 28.05 118.64375 27.659374Q119.05 27.3625 119.75313 27.159374Q120.47188 26.940624 121.28438 26.940624Q122.50313 26.940624 123.425 27.3Q124.34688 27.64375 124.78438 28.253124Q125.22188 28.846874 125.39375 29.846874L123.675 30.08125Q123.55 29.284374 122.9875 28.846874Q122.425 28.39375 121.40938 28.39375Q120.19063 28.39375 119.675 28.8Q119.15938 29.190624 119.15938 29.721874Q119.15938 30.065624 119.37813 30.346874Q119.58125 30.628124 120.05 30.815624Q120.31563 30.909374 121.59688 31.253124Q123.47188 31.753124 124.20625 32.08125Q124.94063 32.39375 125.3625 33.003124Q125.78438 33.596874 125.78438 34.503124Q125.78438 35.378124 125.26875 36.159374Q124.75313 36.940624 123.78438 37.3625Q122.81563 37.784374 121.59688 37.784374Q119.58125 37.784374 118.51875 36.940624Q117.45625 36.096874 117.15938 34.45625ZM134.4875 41.51875L134.4875 36.440624Q134.06563 37.01875 133.33125 37.409374Q132.59688 37.784374 131.76875 37.784374Q129.925 37.784374 128.58125 36.315624Q127.25313 34.83125 127.25313 32.26875Q127.25313 30.70625 127.78438 29.471874Q128.33125 28.221874 129.3625 27.58125Q130.39375 26.940624 131.62813 26.940624Q133.55 26.940624 134.65938 28.565624L134.65938 27.175L136.2375 27.175L136.2375 41.51875L134.4875 41.51875ZM129.06563 32.33125Q129.06563 34.33125 129.89375 35.33125Q130.7375 36.33125 131.90938 36.33125Q133.03438 36.33125 133.84688 35.39375Q134.65938 34.440624 134.65938 32.4875Q134.65938 30.425 133.8 29.378124Q132.94063 28.33125 131.8 28.33125Q130.65938 28.33125 129.8625 29.3Q129.06563 30.26875 129.06563 32.33125ZM145.65938 37.55L145.65938 36.01875Q144.45625 37.784374 142.37813 37.784374Q141.45625 37.784374 140.65938 37.440624Q139.8625 37.08125 139.47188 36.55Q139.09688 36.01875 138.94063 35.2375Q138.83125 34.721874 138.83125 33.596874L138.83125 27.175L140.58125 27.175L140.58125 32.925Q140.58125 34.3 140.69063 34.784374Q140.8625 35.471874 141.39375 35.878124Q141.94063 36.26875 142.72188 36.26875Q143.51875 36.26875 144.20625 35.8625Q144.90938 35.45625 145.19063 34.76875Q145.4875 34.065624 145.4875 32.7375L145.4875 27.175L147.2375 27.175L147.2375 37.55L145.65938 37.55ZM156.97188 34.20625L158.78438 34.440624Q158.3625 36.01875 157.19063 36.909374Q156.03438 37.784374 154.22188 37.784374Q151.95625 37.784374 150.6125 36.39375Q149.28438 34.9875 149.28438 32.45625Q149.28438 29.83125 150.62813 28.39375Q151.97188 26.940624 154.12813 26.940624Q156.20625 26.940624 157.51875 28.3625Q158.84688 29.76875 158.84688 32.346874Q158.84688 32.503124 158.83125 32.815624L151.09688 32.815624Q151.19063 34.51875 152.06563 35.425Q152.94063 36.33125 154.2375 36.33125Q155.20625 36.33125 155.87813 35.83125Q156.56563 35.315624 156.97188 34.20625ZM151.19063 31.3625L156.9875 31.3625Q156.87813 30.065624 156.33125 29.409374Q155.4875 28.39375 154.14375 28.39375Q152.94063 28.39375 152.1125 29.20625Q151.28438 30.003124 151.19063 31.3625Z" fill-rule="nonzero"/></svg>