<svg version="1.1" viewBox="0.0 0.0 600.0 371.0" fill="none" stroke="none" stroke-linecap="square" stroke-miterlimit="10" width="600" height="371" xmlns:xlink="http://www.w3.org/1999/xlink" xmlns="http://www.w3.org/2000/svg"><path fill="#ffffff" d="M0 0L600.0 0L600.0 371.0L0 371.0L0 0Z" fill-rule="nonzero"/><path stroke="#333333" stroke-width="1.0" stroke-linecap="butt" d="M45.5 300.5L581.5 300.5" fill-rule="nonzero"/><path stroke="#cccccc" stroke-width="1.0" stroke-linecap="butt" d="M45.5 247.5L581.5 247.5" fill-rule="nonzero"/><path stroke="#cccccc" stroke-width="1.0" stroke-linecap="butt" d="M45.5 194.5L581.5 194.5" fill-rule="nonzero"/><path stroke="#cccccc" stroke-width="1.0" stroke-linecap="butt" d="M45.5 141.5L581.5 141.5" fill-rule="nonzero"/><path stroke="#cccccc" stroke-width="1.0" stroke-linecap="butt" d="M45.5 88.5L581.5 88.5" fill-rule="nonzero"/><clipPath id="id_0"><path d="M45.55 88.28333L581.45 88.28333L581.45 300.45L45.55 300.45L45.55 88.28333Z" clip-rule="nonzero"/></clipPath><path stroke="#000000" stroke-width="0.0" stroke-linecap="butt" stroke-opacity="0.0" clip-path="url(#id_0)" d="M75.0 300.0L65.0 300.0L65.0 192.0C65.0 190.89543 65.89543 190.0 67.0 190.0L73.0 190.0C74.10457 190.0 75.0 190.89543 75.0 192.0Z" fill-rule="nonzero"/><path fill="#4285f4" clip-path="url(#id_0)" d="M75.0 300.0L65.0 300.0L65.0 192.0C65.0 190.89543 65.89543 190.0 67.0 190.0L73.0 190.0C74.10457 190.0 75.0 190.89543 75.0 192.0Z" fill-rule="nonzero"/><path stroke="#000000" stroke-width="0.0" stroke-linecap="butt" stroke-opacity="0.0" clip-path="url(#id_0)" d="M126.0 300.0L116.0 300.0L116.0 211.0C116.0 209.89543 116.89543 209.0 118.0 209.0L124.0 209.0C125.10457 209.0 126.0 209.89543 126.0 211.0Z" fill-rule="nonzero"/><path fill="#4285f4" clip-path="url(#id_0)" d="M126.0 300.0L116.0 300.0L116.0 211.0C116.0 209.89543 116.89543 209.0 118.0 209.0L124.0 209.0C125.10457 209.0 126.0 209.89543 126.0 211.0Z" fill-rule="nonzero"/><path stroke="#000000" stroke-width="0.0" stroke-linecap="butt" stroke-opacity="0.0" clip-path="url(#id_0)" d="M178.0 300.0L168.0 300.0L168.0 218.0C168.0 216.89543 168.89543 216.0 170.0 216.0L176.0 216.0C177.10457 216.0 178.0 216.89543 178.0 218.0Z" fill-rule="nonzero"/><path fill="#4285f4" clip-path="url(#id_0)" d="M178.0 300.0L168.0 300.0L168.0 218.0C168.0 216.89543 168.89543 216.0 170.0 216.0L176.0 216.0C177.10457 216.0 178.0 216.89543 178.0 218.0Z" fill-rule="nonzero"/><path stroke="#000000" stroke-width="0.0" stroke-linecap="butt" stroke-opacity="0.0" clip-path="url(#id_0)" d="M230.0 300.0L220.0 300.0L220.0 210.0C220.0 208.89543 220.89543 208.0 222.0 208.0L228.0 208.0C229.10457 208.0 230.0 208.89543 230.0 210.0Z" fill-rule="nonzero"/><path fill="#4285f4" clip-path="url(#id_0)" d="M230.0 300.0L220.0 300.0L220.0 210.0C220.0 208.89543 220.89543 208.0 222.0 208.0L228.0 208.0C229.10457 208.0 230.0 208.89543 230.0 210.0Z" fill-rule="nonzero"/><path stroke="#000000" stroke-width="0.0" stroke-linecap="butt" stroke-opacity="0.0" clip-path="url(#id_0)" d="M282.0 300.0L272.0 300.0L272.0 214.0C272.0 212.89543 272.89542 212.0 274.0 212.0L280.0 212.0C281.10458 212.0 282.0 212.89543 282.0 214.0Z" fill-rule="nonzero"/><path fill="#4285f4" clip-path="url(#id_0)" d="M282.0 300.0L272.0 300.0L272.0 214.0C272.0 212.89543 272.89542 212.0 274.0 212.0L280.0 212.0C281.10458 212.0 282.0 212.89543 282.0 214.0Z" fill-rule="nonzero"/><path stroke="#000000" stroke-width="0.0" stroke-linecap="butt" stroke-opacity="0.0" clip-path="url(#id_0)" d="M333.0 300.0L323.0 300.0L323.0 214.0C323.0 212.89543 323.89542 212.0 325.0 212.0L331.0 212.0C332.10458 212.0 333.0 212.89543 333.0 214.0Z" fill-rule="nonzero"/><path fill="#4285f4" clip-path="url(#id_0)" d="M333.0 300.0L323.0 300.0L323.0 214.0C323.0 212.89543 323.89542 212.0 325.0 212.0L331.0 212.0C332.10458 212.0 333.0 212.89543 333.0 214.0Z" fill-rule="nonzero"/><path stroke="#000000" stroke-width="0.0" stroke-linecap="butt" stroke-opacity="0.0" clip-path="url(#id_0)" d="M385.0 300.0L375.0 300.0L375.0 209.0C375.0 207.89543 375.89542 207.0 377.0 207.0L383.0 207.0C384.10458 207.0 385.0 207.89543 385.0 209.0Z" fill-rule="nonzero"/><path fill="#4285f4" clip-path="url(#id_0)" d="M385.0 300.0L375.0 300.0L375.0 209.0C375.0 207.89543 375.89542 207.0 377.0 207.0L383.0 207.0C384.10458 207.0 385.0 207.89543 385.0 209.0Z" fill-rule="nonzero"/><path stroke="#000000" stroke-width="0.0" stroke-linecap="butt" stroke-opacity="0.0" clip-path="url(#id_0)" d="M437.0 300.0L427.0 300.0L427.0 213.0C427.0 211.89543 427.89542 211.0 429.0 211.0L435.0 211.0C436.10458 211.0 437.0 211.89543 437.0 213.0Z" fill-rule="nonzero"/><path fill="#4285f4" clip-path="url(#id_0)" d="M437.0 300.0L427.0 300.0L427.0 213.0C427.0 211.89543 427.89542 211.0 429.0 211.0L435.0 211.0C436.10458 211.0 437.0 211.89543 437.0 213.0Z" fill-rule="nonzero"/><path stroke="#000000" stroke-width="0.0" stroke-linecap="butt" stroke-opacity="0.0" clip-path="url(#id_0)" d="M489.0 300.0L479.0 300.0L479.0 220.0C479.0 218.89543 479.89542 218.0 481.0 218.0L487.0 218.0C488.10458 218.0 489.0 218.89543 489.0 220.0Z" fill-rule="nonzero"/><path fill="#4285f4" clip-path="url(#id_0)" d="M489.0 300.0L479.0 300.0L479.0 220.0C479.0 218.89543 479.89542 218.0 481.0 218.0L487.0 218.0C488.10458 218.0 489.0 218.89543 489.0 220.0Z" fill-rule="nonzero"/><path stroke="#000000" stroke-width="0.0" stroke-linecap="butt" stroke-opacity="0.0" clip-path="url(#id_0)" d="M541.0 300.0L531.0 300.0L531.0 220.0C531.0 218.89543 531.89545 218.0 533.0 218.0L539.0 218.0C540.10455 218.0 541.0 218.89543 541.0 220.0Z" fill-rule="nonzero"/><path fill="#4285f4" clip-path="url(#id_0)" d="M541.0 300.0L531.0 300.0L531.0 220.0C531.0 218.89543 531.89545 218.0 533.0 218.0L539.0 218.0C540.10455 218.0 541.0 218.89543 541.0 220.0Z" fill-rule="nonzero"/><path stroke="#000000" stroke-width="0.0" stroke-linecap="butt" stroke-opacity="0.0" clip-path="url(#id_0)" d="M86.0 300.0L76.0 300.0L76.0 191.0C76.0 189.89543 76.89543 189.0 78.0 189.0L84.0 189.0C85.10457 189.0 86.0 189.89543 86.0 191.0Z" fill-rule="nonzero"/><path fill="#ea4335" clip-path="url(#id_0)" d="M86.0 300.0L76.0 300.0L76.0 191.0C76.0 189.89543 76.89543 189.0 78.0 189.0L84.0 189.0C85.10457 189.0 86.0 189.89543 86.0 191.0Z" fill-rule="nonzero"/><path stroke="#000000" stroke-width="0.0" stroke-linecap="butt" stroke-opacity="0.0" clip-path="url(#id_0)" d="M137.0 300.0L127.0 300.0L127.0 202.0C127.0 200.89543 127.89543 200.0 129.0 200.0L135.0 200.0C136.10457 200.0 137.0 200.89543 137.0 202.0Z" fill-rule="nonzero"/><path fill="#ea4335" clip-path="url(#id_0)" d="M137.0 300.0L127.0 300.0L127.0 202.0C127.0 200.89543 127.89543 200.0 129.0 200.0L135.0 200.0C136.10457 200.0 137.0 200.89543 137.0 202.0Z" fill-rule="nonzero"/><path stroke="#000000" stroke-width="0.0" stroke-linecap="butt" stroke-opacity="0.0" clip-path="url(#id_0)" d="M189.0 300.0L179.0 300.0L179.0 209.0C179.0 207.89543 179.89543 207.0 181.0 207.0L187.0 207.0C188.10457 207.0 189.0 207.89543 189.0 209.0Z" fill-rule="nonzero"/><path fill="#ea4335" clip-path="url(#id_0)" d="M189.0 300.0L179.0 300.0L179.0 209.0C179.0 207.89543 179.89543 207.0 181.0 207.0L187.0 207.0C188.10457 207.0 189.0 207.89543 189.0 209.0Z" fill-rule="nonzero"/><path stroke="#000000" stroke-width="0.0" stroke-linecap="butt" stroke-opacity="0.0" clip-path="url(#id_0)" d="M241.0 300.0L231.0 300.0L231.0 200.0C231.0 198.89543 231.89543 198.0 233.0 198.0L239.0 198.0C240.10457 198.0 241.0 198.89543 241.0 200.0Z" fill-rule="nonzero"/><path fill="#ea4335" clip-path="url(#id_0)" d="M241.0 300.0L231.0 300.0L231.0 200.0C231.0 198.89543 231.89543 198.0 233.0 198.0L239.0 198.0C240.10457 198.0 241.0 198.89543 241.0 200.0Z" fill-rule="nonzero"/><path stroke="#000000" stroke-width="0.0" stroke-linecap="butt" stroke-opacity="0.0" clip-path="url(#id_0)" d="M293.0 300.0L283.0 300.0L283.0 207.0C283.0 205.89543 283.89542 205.0 285.0 205.0L291.0 205.0C292.10458 205.0 293.0 205.89543 293.0 207.0Z" fill-rule="nonzero"/><path fill="#ea4335" clip-path="url(#id_0)" d="M293.0 300.0L283.0 300.0L283.0 207.0C283.0 205.89543 283.89542 205.0 285.0 205.0L291.0 205.0C292.10458 205.0 293.0 205.89543 293.0 207.0Z" fill-rule="nonzero"/><path stroke="#000000" stroke-width="0.0" stroke-linecap="butt" stroke-opacity="0.0" clip-path="url(#id_0)" d="M344.0 300.0L334.0 300.0L334.0 208.0C334.0 206.89543 334.89542 206.0 336.0 206.0L342.0 206.0C343.10458 206.0 344.0 206.89543 344.0 208.0Z" fill-rule="nonzero"/><path fill="#ea4335" clip-path="url(#id_0)" d="M344.0 300.0L334.0 300.0L334.0 208.0C334.0 206.89543 334.89542 206.0 336.0 206.0L342.0 206.0C343.10458 206.0 344.0 206.89543 344.0 208.0Z" fill-rule="nonzero"/><path stroke="#000000" stroke-width="0.0" stroke-linecap="butt" stroke-opacity="0.0" clip-path="url(#id_0)" d="M396.0 300.0L386.0 300.0L386.0 204.0C386.0 202.89543 386.89542 202.0 388.0 202.0L394.0 202.0C395.10458 202.0 396.0 202.89543 396.0 204.0Z" fill-rule="nonzero"/><path fill="#ea4335" clip-path="url(#id_0)" d="M396.0 300.0L386.0 300.0L386.0 204.0C386.0 202.89543 386.89542 202.0 388.0 202.0L394.0 202.0C395.10458 202.0 396.0 202.89543 396.0 204.0Z" fill-rule="nonzero"/><path stroke="#000000" stroke-width="0.0" stroke-linecap="butt" stroke-opacity="0.0" clip-path="url(#id_0)" d="M448.0 300.0L438.0 300.0L438.0 207.0C438.0 205.89543 438.89542 205.0 440.0 205.0L446.0 205.0C447.10458 205.0 448.0 205.89543 448.0 207.0Z" fill-rule="nonzero"/><path fill="#ea4335" clip-path="url(#id_0)" d="M448.0 300.0L438.0 300.0L438.0 207.0C438.0 205.89543 438.89542 205.0 440.0 205.0L446.0 205.0C447.10458 205.0 448.0 205.89543 448.0 207.0Z" fill-rule="nonzero"/><path stroke="#000000" stroke-width="0.0" stroke-linecap="butt" stroke-opacity="0.0" clip-path="url(#id_0)" d="M500.0 300.0L490.0 300.0L490.0 207.0C490.0 205.89543 490.89542 205.0 492.0 205.0L498.0 205.0C499.10458 205.0 500.0 205.89543 500.0 207.0Z" fill-rule="nonzero"/><path fill="#ea4335" clip-path="url(#id_0)" d="M500.0 300.0L490.0 300.0L490.0 207.0C490.0 205.89543 490.89542 205.0 492.0 205.0L498.0 205.0C499.10458 205.0 500.0 205.89543 500.0 207.0Z" fill-rule="nonzero"/><path stroke="#000000" stroke-width="0.0" stroke-linecap="butt" stroke-opacity="0.0" clip-path="url(#id_0)" d="M552.0 300.0L542.0 300.0L542.0 209.0C542.0 207.89543 542.89545 207.0 544.0 207.0L550.0 207.0C551.10455 207.0 552.0 207.89543 552.0 209.0Z" fill-rule="nonzero"/><path fill="#ea4335" clip-path="url(#id_0)" d="M552.0 300.0L542.0 300.0L542.0 209.0C542.0 207.89543 542.89545 207.0 544.0 207.0L550.0 207.0C551.10455 207.0 552.0 207.89543 552.0 209.0Z" fill-rule="nonzero"/><path stroke="#000000" stroke-width="0.0" stroke-linecap="butt" stroke-opacity="0.0" clip-path="url(#id_0)" d="M97.0 300.0L87.0 300.0L87.0 192.0C87.0 190.89543 87.89543 190.0 89.0 190.0L95.0 190.0C96.10457 190.0 97.0 190.89543 97.0 192.0Z" fill-rule="nonzero"/><path fill="#fbbc04" clip-path="url(#id_0)" d="M97.0 300.0L87.0 300.0L87.0 192.0C87.0 190.89543 87.89543 190.0 89.0 190.0L95.0 190.0C96.10457 190.0 97.0 190.89543 97.0 192.0Z" fill-rule="nonzero"/><path stroke="#000000" stroke-width="0.0" stroke-linecap="butt" stroke-opacity="0.0" clip-path="url(#id_0)" d="M148.0 300.0L138.0 300.0L138.0 207.0C138.0 205.89543 138.89543 205.0 140.0 205.0L146.0 205.0C147.10457 205.0 148.0 205.89543 148.0 207.0Z" fill-rule="nonzero"/><path fill="#fbbc04" clip-path="url(#id_0)" d="M148.0 300.0L138.0 300.0L138.0 207.0C138.0 205.89543 138.89543 205.0 140.0 205.0L146.0 205.0C147.10457 205.0 148.0 205.89543 148.0 207.0Z" fill-rule="nonzero"/><path stroke="#000000" stroke-width="0.0" stroke-linecap="butt" stroke-opacity="0.0" clip-path="url(#id_0)" d="M200.0 300.0L190.0 300.0L190.0 214.0C190.0 212.89543 190.89543 212.0 192.0 212.0L198.0 212.0C199.10457 212.0 200.0 212.89543 200.0 214.0Z" fill-rule="nonzero"/><path fill="#fbbc04" clip-path="url(#id_0)" d="M200.0 300.0L190.0 300.0L190.0 214.0C190.0 212.89543 190.89543 212.0 192.0 212.0L198.0 212.0C199.10457 212.0 200.0 212.89543 200.0 214.0Z" fill-rule="nonzero"/><path stroke="#000000" stroke-width="0.0" stroke-linecap="butt" stroke-opacity="0.0" clip-path="url(#id_0)" d="M252.0 300.0L242.0 300.0L242.0 205.0C242.0 203.89543 242.89543 203.0 244.0 203.0L250.0 203.0C251.10457 203.0 252.0 203.89543 252.0 205.0Z" fill-rule="nonzero"/><path fill="#fbbc04" clip-path="url(#id_0)" d="M252.0 300.0L242.0 300.0L242.0 205.0C242.0 203.89543 242.89543 203.0 244.0 203.0L250.0 203.0C251.10457 203.0 252.0 203.89543 252.0 205.0Z" fill-rule="nonzero"/><path stroke="#000000" stroke-width="0.0" stroke-linecap="butt" stroke-opacity="0.0" clip-path="url(#id_0)" d="M304.0 300.0L294.0 300.0L294.0 211.0C294.0 209.89543 294.89542 209.0 296.0 209.0L302.0 209.0C303.10458 209.0 304.0 209.89543 304.0 211.0Z" fill-rule="nonzero"/><path fill="#fbbc04" clip-path="url(#id_0)" d="M304.0 300.0L294.0 300.0L294.0 211.0C294.0 209.89543 294.89542 209.0 296.0 209.0L302.0 209.0C303.10458 209.0 304.0 209.89543 304.0 211.0Z" fill-rule="nonzero"/><path stroke="#000000" stroke-width="0.0" stroke-linecap="butt" stroke-opacity="0.0" clip-path="url(#id_0)" d="M355.0 300.0L345.0 300.0L345.0 211.0C345.0 209.89543 345.89542 209.0 347.0 209.0L353.0 209.0C354.10458 209.0 355.0 209.89543 355.0 211.0Z" fill-rule="nonzero"/><path fill="#fbbc04" clip-path="url(#id_0)" d="M355.0 300.0L345.0 300.0L345.0 211.0C345.0 209.89543 345.89542 209.0 347.0 209.0L353.0 209.0C354.10458 209.0 355.0 209.89543 355.0 211.0Z" fill-rule="nonzero"/><path stroke="#000000" stroke-width="0.0" stroke-linecap="butt" stroke-opacity="0.0" clip-path="url(#id_0)" d="M407.0 300.0L397.0 300.0L397.0 207.0C397.0 205.89543 397.89542 205.0 399.0 205.0L405.0 205.0C406.10458 205.0 407.0 205.89543 407.0 207.0Z" fill-rule="nonzero"/><path fill="#fbbc04" clip-path="url(#id_0)" d="M407.0 300.0L397.0 300.0L397.0 207.0C397.0 205.89543 397.89542 205.0 399.0 205.0L405.0 205.0C406.10458 205.0 407.0 205.89543 407.0 207.0Z" fill-rule="nonzero"/><path stroke="#000000" stroke-width="0.0" stroke-linecap="butt" stroke-opacity="0.0" clip-path="url(#id_0)" d="M459.0 300.0L449.0 300.0L449.0 210.0C449.0 208.89543 449.89542 208.0 451.0 208.0L457.0 208.0C458.10458 208.0 459.0 208.89543 459.0 210.0Z" fill-rule="nonzero"/><path fill="#fbbc04" clip-path="url(#id_0)" d="M459.0 300.0L449.0 300.0L449.0 210.0C449.0 208.89543 449.89542 208.0 451.0 208.0L457.0 208.0C458.10458 208.0 459.0 208.89543 459.0 210.0Z" fill-rule="nonzero"/><path stroke="#000000" stroke-width="0.0" stroke-linecap="butt" stroke-opacity="0.0" clip-path="url(#id_0)" d="M511.0 300.0L501.0 300.0L501.0 214.0C501.0 212.89543 501.89542 212.0 503.0 212.0L509.0 212.0C510.10458 212.0 511.0 212.89543 511.0 214.0Z" fill-rule="nonzero"/><path fill="#fbbc04" clip-path="url(#id_0)" d="M511.0 300.0L501.0 300.0L501.0 214.0C501.0 212.89543 501.89542 212.0 503.0 212.0L509.0 212.0C510.10458 212.0 511.0 212.89543 511.0 214.0Z" fill-rule="nonzero"/><path stroke="#000000" stroke-width="0.0" stroke-linecap="butt" stroke-opacity="0.0" clip-path="url(#id_0)" d="M563.0 300.0L553.0 300.0L553.0 215.0C553.0 213.89543 553.89545 213.0 555.0 213.0L561.0 213.0C562.10455 213.0 563.0 213.89543 563.0 215.0Z" fill-rule="nonzero"/><path fill="#fbbc04" clip-path="url(#id_0)" d="M563.0 300.0L553.0 300.0L553.0 215.0C553.0 213.89543 553.89545 213.0 555.0 213.0L561.0 213.0C562.10455 213.0 563.0 213.89543 563.0 215.0Z" fill-rule="nonzero"/><path fill="#000000" d="M236.54688 349.45L236.54688 344.04376L235.60938 344.04376L235.60938 343.23126L236.54688 343.23126L236.54688 342.5594Q236.54688 341.9344 236.65625 341.6375Q236.8125 341.21564 237.1875 340.96564Q237.57812 340.71564 238.26562 340.71564Q238.71875 340.71564 239.25 340.825L239.09375 341.73126Q238.76562 341.6844 238.46875 341.6844Q237.98438 341.6844 237.78125 341.8875Q237.59375 342.09064 237.59375 342.65314L237.59375 343.23126L238.8125 343.23126L238.8125 344.04376L237.59375 344.04376L237.59375 349.45L236.54688 349.45ZM243.35938 348.6844Q242.76562 349.1844 242.21875 349.3875Q241.6875 349.59064 241.0625 349.59064Q240.03125 349.59064 239.48438 349.09064Q238.9375 348.59064 238.9375 347.8094Q238.9375 347.35626 239.14062 346.98126Q239.34375 346.59064 239.6875 346.3719Q240.03125 346.1375 240.45312 346.02814Q240.75 345.9344 241.39062 345.85626Q242.65625 345.71564 243.26562 345.4969Q243.26562 345.27814 243.26562 345.23126Q243.26562 344.575 242.96875 344.3094Q242.5625 343.96564 241.76562 343.96564Q241.03125 343.96564 240.67188 344.23126Q240.3125 344.48126 240.14062 345.1375L239.10938 344.9969Q239.25 344.34064 239.57812 343.9344Q239.90625 343.52814 240.51562 343.3094Q241.125 343.09064 241.92188 343.09064Q242.71875 343.09064 243.21875 343.27814Q243.71875 343.46564 243.95312 343.7469Q244.1875 344.02814 244.28125 344.46564Q244.32812 344.73126 244.32812 345.4344L244.32812 346.84064Q244.32812 348.3094 244.39062 348.7Q244.46875 349.09064 244.67188 349.45L243.5625 349.45Q243.40625 349.1219 243.35938 348.6844ZM243.26562 346.325Q242.6875 346.5594 241.54688 346.73126Q240.89062 346.825 240.625 346.95Q240.35938 347.0594 240.20312 347.27814Q240.0625 347.4969 240.0625 347.77814Q240.0625 348.2 240.375 348.48126Q240.70312 348.7625 241.3125 348.7625Q241.92188 348.7625 242.39062 348.4969Q242.875 348.23126 243.09375 347.7625Q243.26562 347.40314 243.26562 346.71564L243.26562 346.325ZM250.35938 347.16876L251.39062 347.3094Q251.21875 348.3719 250.51562 348.98126Q249.8125 349.59064 248.79688 349.59064Q247.51562 349.59064 246.73438 348.7625Q245.96875 347.91876 245.96875 346.35626Q245.96875 345.35626 246.29688 344.60626Q246.64062 343.84064 247.3125 343.46564Q248.0 343.09064 248.8125 343.09064Q249.8125 343.09064 250.45312 343.60626Q251.10938 344.10626 251.29688 345.0594L250.26562 345.21564Q250.125 344.59064 249.75 344.27814Q249.375 343.95 248.84375 343.95Q248.04688 343.95 247.54688 344.52814Q247.04688 345.09064 247.04688 346.325Q247.04688 347.59064 247.53125 348.15314Q248.01562 348.71564 248.78125 348.71564Q249.40625 348.71564 249.8125 348.34064Q250.23438 347.96564 250.35938 347.16876ZM254.59375 348.5125L254.75 349.4344Q254.29688 349.52814 253.95312 349.52814Q253.375 349.52814 253.0625 349.35626Q252.75 349.16876 252.60938 348.8719Q252.48438 348.575 252.48438 347.6219L252.48438 344.04376L251.71875 344.04376L251.71875 343.23126L252.48438 343.23126L252.48438 341.6844L253.53125 341.0594L253.53125 343.23126L254.59375 343.23126L254.59375 344.04376L253.53125 344.04376L253.53125 347.6844Q253.53125 348.1375 253.57812 348.2625Q253.64062 348.3875 253.76562 348.46564Q253.89062 348.54376 254.125 348.54376Q254.3125 348.54376 254.59375 348.5125ZM254.90625 346.34064Q254.90625 344.60626 255.85938 343.77814Q256.65625 343.09064 257.8125 343.09064Q259.09375 343.09064 259.90625 343.9344Q260.73438 344.7625 260.73438 346.2469Q260.73438 347.45 260.375 348.1375Q260.01562 348.825 259.3125 349.21564Q258.625 349.59064 257.8125 349.59064Q256.51562 349.59064 255.70312 348.7625Q254.90625 347.91876 254.90625 346.34064ZM255.98438 346.34064Q255.98438 347.52814 256.5 348.1219Q257.03125 348.71564 257.8125 348.71564Q258.60938 348.71564 259.125 348.1219Q259.64062 347.52814 259.64062 346.3094Q259.64062 345.15314 259.10938 344.5594Q258.59375 343.96564 257.8125 343.96564Q257.03125 343.96564 256.5 344.5594Q255.98438 345.1375 255.98438 346.34064ZM262.28125 349.45L262.28125 343.23126L263.23438 343.23126L263.23438 344.16876Q263.59375 343.5125 263.89062 343.3094Q264.20312 343.09064 264.57812 343.09064Q265.10938 343.09064 265.65625 343.41876L265.29688 344.40314Q264.90625 344.16876 264.53125 344.16876Q264.17188 344.16876 263.89062 344.3875Q263.625 344.59064 263.51562 344.96564Q263.32812 345.52814 263.32812 346.1844L263.32812 349.45L262.28125 349.45ZM269.375 349.45L269.375 340.85626L270.51562 340.85626L270.51562 348.4344L274.75 348.4344L274.75 349.45L269.375 349.45ZM276.42188 349.45L276.42188 340.85626L279.67188 340.85626Q280.51562 340.85626 280.96875 340.9344Q281.60938 341.04376 282.03125 341.34064Q282.46875 341.6375 282.71875 342.16876Q282.98438 342.7 282.98438 343.34064Q282.98438 344.4344 282.28125 345.2Q281.59375 345.95 279.76562 345.95L277.5625 345.95L277.5625 349.45L276.42188 349.45ZM277.5625 344.95L279.78125 344.95Q280.89062 344.95 281.34375 344.54376Q281.8125 344.1219 281.8125 343.3719Q281.8125 342.84064 281.53125 342.46564Q281.26562 342.075 280.82812 341.95Q280.53125 341.8719 279.76562 341.8719L277.5625 341.8719L277.5625 344.95ZM283.5 349.59064L285.98438 340.71564L286.82812 340.71564L284.34375 349.59064L283.5 349.59064ZM287.375 349.45L287.375 340.85626L288.51562 340.85626L288.51562 348.4344L292.75 348.4344L292.75 349.45L287.375 349.45ZM294.4375 349.45L294.4375 340.85626L298.25 340.85626Q299.40625 340.85626 300.0 341.09064Q300.59375 341.325 300.95312 341.91876Q301.3125 342.4969 301.3125 343.2Q301.3125 344.1219 300.71875 344.7469Q300.125 345.3719 298.89062 345.54376Q299.34375 345.7625 299.57812 345.96564Q300.07812 346.41876 300.51562 347.10626L302.01562 349.45L300.57812 349.45L299.45312 347.66876Q298.95312 346.8875 298.625 346.48126Q298.3125 346.075 298.04688 345.91876Q297.79688 345.7469 297.53125 345.66876Q297.34375 345.6375 296.90625 345.6375L295.57812 345.6375L295.57812 349.45L294.4375 349.45ZM295.57812 344.65314L298.03125 344.65314Q298.79688 344.65314 299.23438 344.4969Q299.6875 344.325 299.90625 343.98126Q300.14062 343.6219 300.14062 343.2Q300.14062 342.59064 299.6875 342.2Q299.25 341.8094 298.29688 341.8094L295.57812 341.8094L295.57812 344.65314ZM305.875 347.59064L306.90625 347.4344Q307.0 348.0594 307.39062 348.3875Q307.79688 348.71564 308.53125 348.71564Q309.25 348.71564 309.59375 348.4344Q309.95312 348.1375 309.95312 347.73126Q309.95312 347.3719 309.64062 347.16876Q309.42188 347.02814 308.5625 346.8094Q307.40625 346.5125 306.95312 346.3094Q306.51562 346.09064 306.28125 345.71564Q306.04688 345.34064 306.04688 344.8719Q306.04688 344.46564 306.23438 344.10626Q306.42188 343.7469 306.75 343.5125Q307.0 343.34064 307.42188 343.21564Q307.84375 343.09064 308.34375 343.09064Q309.0625 343.09064 309.60938 343.3094Q310.17188 343.5125 310.4375 343.8719Q310.70312 344.23126 310.79688 344.825L309.76562 344.96564Q309.70312 344.4969 309.35938 344.23126Q309.03125 343.95 308.40625 343.95Q307.6875 343.95 307.375 344.2Q307.0625 344.4344 307.0625 344.7625Q307.0625 344.96564 307.1875 345.1219Q307.32812 345.29376 307.59375 345.40314Q307.75 345.46564 308.53125 345.66876Q309.65625 345.98126 310.09375 346.16876Q310.53125 346.35626 310.78125 346.71564Q311.03125 347.075 311.03125 347.6219Q311.03125 348.15314 310.71875 348.6219Q310.42188 349.075 309.84375 349.34064Q309.26562 349.59064 308.53125 349.59064Q307.3125 349.59064 306.67188 349.09064Q306.04688 348.575 305.875 347.59064ZM316.375 349.45L316.375 348.52814Q315.64062 349.59064 314.39062 349.59064Q313.84375 349.59064 313.35938 349.3875Q312.89062 349.16876 312.65625 348.85626Q312.42188 348.52814 312.32812 348.0594Q312.26562 347.7625 312.26562 347.075L312.26562 343.23126L313.32812 343.23126L313.32812 346.6844Q313.32812 347.4969 313.39062 347.79376Q313.48438 348.2 313.79688 348.45Q314.125 348.6844 314.60938 348.6844Q315.07812 348.6844 315.48438 348.45Q315.90625 348.2 316.07812 347.77814Q316.26562 347.35626 316.26562 346.5594L316.26562 343.23126L317.3125 343.23126L317.3125 349.45L316.375 349.45ZM319.29688 349.45L319.29688 343.23126L320.23438 343.23126L320.23438 344.10626Q320.53125 343.6375 321.01562 343.3719Q321.5 343.09064 322.125 343.09064Q322.8125 343.09064 323.25 343.3719Q323.70312 343.65314 323.875 344.16876Q324.625 343.09064 325.79688 343.09064Q326.73438 343.09064 327.21875 343.60626Q327.71875 344.10626 327.71875 345.1844L327.71875 349.45L326.67188 349.45L326.67188 345.52814Q326.67188 344.90314 326.5625 344.6219Q326.46875 344.34064 326.20312 344.16876Q325.9375 343.9969 325.5625 343.9969Q324.90625 343.9969 324.46875 344.4344Q324.04688 344.8719 324.04688 345.84064L324.04688 349.45L322.98438 349.45L322.98438 345.40314Q322.98438 344.7 322.71875 344.35626Q322.46875 343.9969 321.89062 343.9969Q321.4375 343.9969 321.0625 344.23126Q320.6875 344.46564 320.51562 344.91876Q320.34375 345.3719 320.34375 346.21564L320.34375 349.45L319.29688 349.45ZM329.29688 349.45L329.29688 343.23126L330.23438 343.23126L330.23438 344.10626Q330.53125 343.6375 331.01562 343.3719Q331.5 343.09064 332.125 343.09064Q332.8125 343.09064 333.25 343.3719Q333.70312 343.65314 333.875 344.16876Q334.625 343.09064 335.79688 343.09064Q336.73438 343.09064 337.21875 343.60626Q337.71875 344.10626 337.71875 345.1844L337.71875 349.45L336.67188 349.45L336.67188 345.52814Q336.67188 344.90314 336.5625 344.6219Q336.46875 344.34064 336.20312 344.16876Q335.9375 343.9969 335.5625 343.9969Q334.90625 343.9969 334.46875 344.4344Q334.04688 344.8719 334.04688 345.84064L334.04688 349.45L332.98438 349.45L332.98438 345.40314Q332.98438 344.7 332.71875 344.35626Q332.46875 343.9969 331.89062 343.9969Q331.4375 343.9969 331.0625 344.23126Q330.6875 344.46564 330.51562 344.91876Q330.34375 345.3719 330.34375 346.21564L330.34375 349.45L329.29688 349.45ZM343.35938 348.6844Q342.76562 349.1844 342.21875 349.3875Q341.6875 349.59064 341.0625 349.59064Q340.03125 349.59064 339.48438 349.09064Q338.9375 348.59064 338.9375 347.8094Q338.9375 347.35626 339.14062 346.98126Q339.34375 346.59064 339.6875 346.3719Q340.03125 346.1375 340.45312 346.02814Q340.75 345.9344 341.39062 345.85626Q342.65625 345.71564 343.26562 345.4969Q343.26562 345.27814 343.26562 345.23126Q343.26562 344.575 342.96875 344.3094Q342.5625 343.96564 341.76562 343.96564Q341.03125 343.96564 340.67188 344.23126Q340.3125 344.48126 340.14062 345.1375L339.10938 344.9969Q339.25 344.34064 339.57812 343.9344Q339.90625 343.52814 340.51562 343.3094Q341.125 343.09064 341.92188 343.09064Q342.71875 343.09064 343.21875 343.27814Q343.71875 343.46564 343.95312 343.7469Q344.1875 344.02814 344.28125 344.46564Q344.32812 344.73126 344.32812 345.4344L344.32812 346.84064Q344.32812 348.3094 344.39062 348.7Q344.46875 349.09064 344.67188 349.45L343.5625 349.45Q343.40625 349.1219 343.35938 348.6844ZM343.26562 346.325Q342.6875 346.5594 341.54688 346.73126Q340.89062 346.825 340.625 346.95Q340.35938 347.0594 340.20312 347.27814Q340.0625 347.4969 340.0625 347.77814Q340.0625 348.2 340.375 348.48126Q340.70312 348.7625 341.3125 348.7625Q341.92188 348.7625 342.39062 348.4969Q342.875 348.23126 343.09375 347.7625Q343.26562 347.40314 343.26562 346.71564L343.26562 346.325ZM346.28125 349.45L346.28125 343.23126L347.23438 343.23126L347.23438 344.16876Q347.59375 343.5125 347.89062 343.3094Q348.20312 343.09064 348.57812 343.09064Q349.10938 343.09064 349.65625 343.41876L349.29688 344.40314Q348.90625 344.16876 348.53125 344.16876Q348.17188 344.16876 347.89062 344.3875Q347.625 344.59064 347.51562 344.96564Q347.32812 345.52814 347.32812 346.1844L347.32812 349.45L346.28125 349.45ZM350.25 351.84064L350.125 350.85626Q350.46875 350.95 350.73438 350.95Q351.07812 350.95 351.28125 350.825Q351.5 350.71564 351.64062 350.5125Q351.73438 350.34064 351.96875 349.71564Q351.98438 349.6375 352.0625 349.46564L349.6875 343.23126L350.82812 343.23126L352.125 346.825Q352.375 347.5125 352.57812 348.27814Q352.76562 347.54376 353.01562 346.85626L354.34375 343.23126L355.39062 343.23126L353.03125 349.5594Q352.64062 350.575 352.4375 350.96564Q352.15625 351.4969 351.78125 351.73126Q351.42188 351.98126 350.92188 351.98126Q350.625 351.98126 350.25 351.84064ZM363.54688 347.45L364.64062 347.575Q364.39062 348.52814 363.6875 349.0594Q362.98438 349.59064 361.90625 349.59064Q360.54688 349.59064 359.73438 348.7469Q358.9375 347.90314 358.9375 346.3875Q358.9375 344.825 359.75 343.96564Q360.5625 343.09064 361.84375 343.09064Q363.09375 343.09064 363.875 343.9344Q364.67188 344.77814 364.67188 346.325Q364.67188 346.41876 364.67188 346.60626L360.03125 346.60626Q360.09375 347.6375 360.60938 348.1844Q361.125 348.71564 361.90625 348.71564Q362.48438 348.71564 362.89062 348.41876Q363.3125 348.10626 363.54688 347.45ZM360.09375 345.7469L363.5625 345.7469Q363.5 344.95 363.17188 344.5594Q362.65625 343.95 361.85938 343.95Q361.125 343.95 360.625 344.4344Q360.14062 344.91876 360.09375 345.7469ZM368.01562 349.45L365.65625 343.23126L366.76562 343.23126L368.10938 346.95Q368.3125 347.5594 368.5 348.2Q368.64062 347.71564 368.89062 347.02814L370.28125 343.23126L371.35938 343.23126L369.0 349.45L368.01562 349.45ZM376.35938 348.6844Q375.76562 349.1844 375.21875 349.3875Q374.6875 349.59064 374.0625 349.59064Q373.03125 349.59064 372.48438 349.09064Q371.9375 348.59064 371.9375 347.8094Q371.9375 347.35626 372.14062 346.98126Q372.34375 346.59064 372.6875 346.3719Q373.03125 346.1375 373.45312 346.02814Q373.75 345.9344 374.39062 345.85626Q375.65625 345.71564 376.26562 345.4969Q376.26562 345.27814 376.26562 345.23126Q376.26562 344.575 375.96875 344.3094Q375.5625 343.96564 374.76562 343.96564Q374.03125 343.96564 373.67188 344.23126Q373.3125 344.48126 373.14062 345.1375L372.10938 344.9969Q372.25 344.34064 372.57812 343.9344Q372.90625 343.52814 373.51562 343.3094Q374.125 343.09064 374.92188 343.09064Q375.71875 343.09064 376.21875 343.27814Q376.71875 343.46564 376.95312 343.7469Q377.1875 344.02814 377.28125 344.46564Q377.32812 344.73126 377.32812 345.4344L377.32812 346.84064Q377.32812 348.3094 377.39062 348.7Q377.46875 349.09064 377.67188 349.45L376.5625 349.45Q376.40625 349.1219 376.35938 348.6844ZM376.26562 346.325Q375.6875 346.5594 374.54688 346.73126Q373.89062 346.825 373.625 346.95Q373.35938 347.0594 373.20312 347.27814Q373.0625 347.4969 373.0625 347.77814Q373.0625 348.2 373.375 348.48126Q373.70312 348.7625 374.3125 348.7625Q374.92188 348.7625 375.39062 348.4969Q375.875 348.23126 376.09375 347.7625Q376.26562 347.40314 376.26562 346.71564L376.26562 346.325ZM379.26562 349.45L379.26562 340.85626L380.32812 340.85626L380.32812 349.45L379.26562 349.45ZM383.26562 349.45L382.28125 349.45L382.28125 340.85626L383.34375 340.85626L383.34375 343.91876Q384.01562 343.09064 385.04688 343.09064Q385.625 343.09064 386.125 343.325Q386.64062 343.54376 386.96875 343.96564Q387.3125 344.3875 387.5 344.98126Q387.6875 345.575 387.6875 346.2469Q387.6875 347.84064 386.89062 348.71564Q386.09375 349.59064 385.0 349.59064Q383.89062 349.59064 383.26562 348.66876L383.26562 349.45ZM383.25 346.29376Q383.25 347.40314 383.5625 347.90314Q384.0625 348.71564 384.90625 348.71564Q385.59375 348.71564 386.09375 348.1219Q386.60938 347.52814 386.60938 346.325Q386.60938 345.10626 386.125 344.52814Q385.64062 343.95 384.95312 343.95Q384.26562 343.95 383.75 344.5594Q383.25 345.15314 383.25 346.29376ZM389.57812 344.4344L389.57812 343.23126L390.78125 343.23126L390.78125 344.4344L389.57812 344.4344ZM389.57812 349.45L389.57812 348.2469L390.78125 348.2469L390.78125 349.45L389.57812 349.45Z" fill-rule="nonzero"/><path fill="#000000" d="M33.05 300.21564Q33.05 298.6844 33.3625 297.7625Q33.675 296.825 34.284374 296.325Q34.909374 295.825 35.846874 295.825Q36.534374 295.825 37.05 296.10626Q37.58125 296.3875 37.925 296.91876Q38.26875 297.4344 38.45625 298.1844Q38.64375 298.9344 38.64375 300.21564Q38.64375 301.73126 38.33125 302.65314Q38.034374 303.575 37.409374 304.09064Q36.8 304.59064 35.846874 304.59064Q34.6125 304.59064 33.89375 303.7Q33.05 302.6375 33.05 300.21564ZM34.128124 300.21564Q34.128124 302.325 34.628124 303.02814Q35.128124 303.73126 35.846874 303.73126Q36.58125 303.73126 37.065624 303.02814Q37.565624 302.325 37.565624 300.21564Q37.565624 298.09064 37.065624 297.40314Q36.58125 296.7 35.83125 296.7Q35.1125 296.7 34.675 297.3094Q34.128124 298.09064 34.128124 300.21564Z" fill-rule="nonzero"/><path fill="#000000" d="M31.596874 250.39272L31.596874 251.40834L25.909374 251.40834Q25.909374 251.03334 26.034374 250.67397Q26.253124 250.09584 26.721874 249.53334Q27.20625 248.97084 28.1125 248.23647Q29.51875 247.08022 30.003124 246.40834Q30.503124 245.73647 30.503124 245.14272Q30.503124 244.51772 30.05 244.09584Q29.596874 243.65834 28.878124 243.65834Q28.1125 243.65834 27.659374 244.11147Q27.20625 244.56459 27.190624 245.37709L26.1125 245.26772Q26.221874 244.04897 26.940624 243.42397Q27.675 242.78334 28.909374 242.78334Q30.14375 242.78334 30.8625 243.47084Q31.58125 244.15834 31.58125 245.17397Q31.58125 245.68959 31.3625 246.18959Q31.159374 246.67397 30.659374 247.23647Q30.175 247.78334 29.05 248.73647Q28.096874 249.53334 27.815624 249.83022Q27.55 250.11147 27.378124 250.39272L31.596874 250.39272ZM33.05 249.15834L34.159374 249.06459Q34.284374 249.87709 34.721874 250.28334Q35.175 250.68959 35.815624 250.68959Q36.565624 250.68959 37.096874 250.11147Q37.628124 249.53334 37.628124 248.59584Q37.628124 247.68959 37.1125 247.17397Q36.6125 246.64272 35.784374 246.64272Q35.284374 246.64272 34.8625 246.87709Q34.45625 247.11147 34.221874 247.47084L33.2375 247.34584L34.065624 242.93959L38.346874 242.93959L38.346874 243.93959L34.909374 243.93959L34.45625 246.25209Q35.221874 245.70522 36.065624 245.70522Q37.190624 245.70522 37.95625 246.48647Q38.7375 247.26772 38.7375 248.50209Q38.7375 249.65834 38.065624 250.51772Q37.2375 251.54897 35.815624 251.54897Q34.64375 251.54897 33.89375 250.89272Q33.159374 250.23647 33.05 249.15834Z" fill-rule="nonzero"/><path fill="#000000" d="M26.05 196.11667L27.159374 196.02292Q27.284374 196.83542 27.721874 197.24167Q28.175 197.64792 28.815624 197.64792Q29.565624 197.64792 30.096874 197.0698Q30.628124 196.49167 30.628124 195.55417Q30.628124 194.64792 30.1125 194.1323Q29.6125 193.60104 28.784374 193.60104Q28.284374 193.60104 27.8625 193.83542Q27.45625 194.0698 27.221874 194.42917L26.2375 194.30417L27.065624 189.89792L31.346874 189.89792L31.346874 190.89792L27.909374 190.89792L27.45625 193.21042Q28.221874 192.66354 29.065624 192.66354Q30.190624 192.66354 30.95625 193.4448Q31.7375 194.22604 31.7375 195.46042Q31.7375 196.61667 31.065624 197.47604Q30.2375 198.5073 28.815624 198.5073Q27.64375 198.5073 26.89375 197.85104Q26.159374 197.1948 26.05 196.11667ZM33.05 194.1323Q33.05 192.60104 33.3625 191.67917Q33.675 190.74167 34.284374 190.24167Q34.909374 189.74167 35.846874 189.74167Q36.534374 189.74167 37.05 190.02292Q37.58125 190.30417 37.925 190.83542Q38.26875 191.35104 38.45625 192.10104Q38.64375 192.85104 38.64375 194.1323Q38.64375 195.64792 38.33125 196.5698Q38.034374 197.49167 37.409374 198.0073Q36.8 198.5073 35.846874 198.5073Q34.6125 198.5073 33.89375 197.61667Q33.05 196.55417 33.05 194.1323ZM34.128124 194.1323Q34.128124 196.24167 34.628124 196.9448Q35.128124 197.64792 35.846874 197.64792Q36.58125 197.64792 37.065624 196.9448Q37.565624 196.24167 37.565624 194.1323Q37.565624 192.0073 37.065624 191.3198Q36.58125 190.61667 35.83125 190.61667Q35.1125 190.61667 34.675 191.22604Q34.128124 192.0073 34.128124 194.1323Z" fill-rule="nonzero"/><path fill="#000000" d="M26.1125 137.85625L26.1125 136.84062L31.675 136.84062L31.675 137.66875Q30.8625 138.54375 30.05 139.99687Q29.253124 141.43437 28.815624 142.96562Q28.4875 144.04375 28.409374 145.325L27.315624 145.325Q27.33125 144.30937 27.70625 142.87187Q28.096874 141.43437 28.8 140.10625Q29.51875 138.77812 30.33125 137.85625L26.1125 137.85625ZM33.05 143.075L34.159374 142.98125Q34.284374 143.79375 34.721874 144.2Q35.175 144.60625 35.815624 144.60625Q36.565624 144.60625 37.096874 144.02812Q37.628124 143.45 37.628124 142.5125Q37.628124 141.60625 37.1125 141.09062Q36.6125 140.55937 35.784374 140.55937Q35.284374 140.55937 34.8625 140.79375Q34.45625 141.02812 34.221874 141.3875L33.2375 141.2625L34.065624 136.85625L38.346874 136.85625L38.346874 137.85625L34.909374 137.85625L34.45625 140.16875Q35.221874 139.62187 36.065624 139.62187Q37.190624 139.62187 37.95625 140.40312Q38.7375 141.18437 38.7375 142.41875Q38.7375 143.575 38.065624 144.43437Q37.2375 145.46562 35.815624 145.46562Q34.64375 145.46562 33.89375 144.80937Q33.159374 144.15312 33.05 143.075Z" fill-rule="nonzero"/><path fill="#000000" d="M23.01875 92.28333L21.971874 92.28333L21.971874 85.56458Q21.58125 85.92396 20.95625 86.29896Q20.346874 86.65833 19.8625 86.83021L19.8625 85.81458Q20.7375 85.39271 21.39375 84.81458Q22.065624 84.22083 22.346874 83.65833L23.01875 83.65833L23.01875 92.28333ZM26.05 88.04896Q26.05 86.51771 26.3625 85.59583Q26.675 84.65833 27.284374 84.15833Q27.909374 83.65833 28.846874 83.65833Q29.534374 83.65833 30.05 83.93958Q30.58125 84.22083 30.925 84.75208Q31.26875 85.26771 31.45625 86.01771Q31.64375 86.76771 31.64375 88.04896Q31.64375 89.56458 31.33125 90.48646Q31.034374 91.40833 30.409374 91.92396Q29.8 92.42396 28.846874 92.42396Q27.6125 92.42396 26.89375 91.53333Q26.05 90.47083 26.05 88.04896ZM27.128124 88.04896Q27.128124 90.15833 27.628124 90.86146Q28.128124 91.56458 28.846874 91.56458Q29.58125 91.56458 30.065624 90.86146Q30.565624 90.15833 30.565624 88.04896Q30.565624 85.92396 30.065624 85.23646Q29.58125 84.53333 28.83125 84.53333Q28.1125 84.53333 27.675 85.14271Q27.128124 85.92396 27.128124 88.04896ZM33.05 88.04896Q33.05 86.51771 33.3625 85.59583Q33.675 84.65833 34.284374 84.15833Q34.909374 83.65833 35.846874 83.65833Q36.534374 83.65833 37.05 83.93958Q37.58125 84.22083 37.925 84.75208Q38.26875 85.26771 38.45625 86.01771Q38.64375 86.76771 38.64375 88.04896Q38.64375 89.56458 38.33125 90.48646Q38.034374 91.40833 37.409374 91.92396Q36.8 92.42396 35.846874 92.42396Q34.6125 92.42396 33.89375 91.53333Q33.05 90.47083 33.05 88.04896ZM34.128124 88.04896Q34.128124 90.15833 34.628124 90.86146Q35.128124 91.56458 35.846874 91.56458Q36.58125 91.56458 37.065624 90.86146Q37.565624 90.15833 37.565624 88.04896Q37.565624 85.92396 37.065624 85.23646Q36.58125 84.53333 35.83125 84.53333Q35.1125 84.53333 34.675 85.14271Q34.128124 85.92396 34.128124 88.04896Z" fill-rule="nonzero"/><path fill="#000000" d="M66.546875 317.45L66.546875 312.04376L65.609375 312.04376L65.609375 311.23126L66.546875 311.23126L66.546875 310.5594Q66.546875 309.9344 66.65625 309.6375Q66.8125 309.21564 67.1875 308.96564Q67.578125 308.71564 68.265625 308.71564Q68.71875 308.71564 69.25 308.825L69.09375 309.73126Q68.765625 309.6844 68.46875 309.6844Q67.984375 309.6844 67.78125 309.8875Q67.59375 310.09064 67.59375 310.65314L67.59375 311.23126L68.8125 311.23126L68.8125 312.04376L67.59375 312.04376L67.59375 317.45L66.546875 317.45ZM68.90625 314.34064Q68.90625 312.60626 69.859375 311.77814Q70.65625 311.09064 71.8125 311.09064Q73.09375 311.09064 73.90625 311.9344Q74.734375 312.7625 74.734375 314.2469Q74.734375 315.45 74.375 316.1375Q74.015625 316.825 73.3125 317.21564Q72.625 317.59064 71.8125 317.59064Q70.515625 317.59064 69.703125 316.7625Q68.90625 315.91876 68.90625 314.34064ZM69.984375 314.34064Q69.984375 315.52814 70.5 316.1219Q71.03125 316.71564 71.8125 316.71564Q72.609375 316.71564 73.125 316.1219Q73.640625 315.52814 73.640625 314.3094Q73.640625 313.15314 73.109375 312.5594Q72.59375 311.96564 71.8125 311.96564Q71.03125 311.96564 70.5 312.5594Q69.984375 313.1375 69.984375 314.34064ZM76.265625 317.45L76.265625 308.85626L77.328125 308.85626L77.328125 317.45L76.265625 317.45ZM83.328125 317.45L83.328125 316.66876Q82.734375 317.59064 81.59375 317.59064Q80.84375 317.59064 80.21875 317.1844Q79.59375 316.7625 79.25 316.02814Q78.90625 315.29376 78.90625 314.34064Q78.90625 313.41876 79.21875 312.65314Q79.53125 311.8875 80.15625 311.4969Q80.78125 311.09064 81.546875 311.09064Q82.109375 311.09064 82.546875 311.325Q82.984375 311.5594 83.265625 311.9344L83.265625 308.85626L84.3125 308.85626L84.3125 317.45L83.328125 317.45ZM80.0 314.34064Q80.0 315.54376 80.5 316.1375Q81.0 316.71564 81.6875 316.71564Q82.375 316.71564 82.859375 316.15314Q83.34375 315.59064 83.34375 314.4344Q83.34375 313.15314 82.84375 312.5594Q82.359375 311.96564 81.640625 311.96564Q80.9375 311.96564 80.46875 312.54376Q80.0 313.10626 80.0 314.34064ZM92.96875 317.45L91.921875 317.45L91.921875 310.73126Q91.53125 311.09064 90.90625 311.46564Q90.296875 311.825 89.8125 311.9969L89.8125 310.98126Q90.6875 310.5594 91.34375 309.98126Q92.015625 309.3875 92.296875 308.825L92.96875 308.825L92.96875 317.45Z" fill-rule="nonzero"/><path fill="#000000" d="M118.32465 317.45L118.32465 312.04376L117.38715 312.04376L117.38715 311.23126L118.32465 311.23126L118.32465 310.5594Q118.32465 309.9344 118.43403 309.6375Q118.59028 309.21564 118.96528 308.96564Q119.3559 308.71564 120.0434 308.71564Q120.49653 308.71564 121.02778 308.825L120.87153 309.73126Q120.5434 309.6844 120.24653 309.6844Q119.76215 309.6844 119.55903 309.8875Q119.37153 310.09064 119.37153 310.65314L119.37153 311.23126L120.59028 311.23126L120.59028 312.04376L119.37153 312.04376L119.37153 317.45L118.32465 317.45ZM120.68403 314.34064Q120.68403 312.60626 121.63715 311.77814Q122.43403 311.09064 123.59028 311.09064Q124.87153 311.09064 125.68403 311.9344Q126.51215 312.7625 126.51215 314.2469Q126.51215 315.45 126.15278 316.1375Q125.7934 316.825 125.09028 317.21564Q124.40278 317.59064 123.59028 317.59064Q122.2934 317.59064 121.4809 316.7625Q120.68403 315.91876 120.68403 314.34064ZM121.76215 314.34064Q121.76215 315.52814 122.27778 316.1219Q122.80903 316.71564 123.59028 316.71564Q124.38715 316.71564 124.90278 316.1219Q125.4184 315.52814 125.4184 314.3094Q125.4184 313.15314 124.88715 312.5594Q124.37153 311.96564 123.59028 311.96564Q122.80903 311.96564 122.27778 312.5594Q121.76215 313.1375 121.76215 314.34064ZM128.0434 317.45L128.0434 308.85626L129.1059 308.85626L129.1059 317.45L128.0434 317.45ZM135.1059 317.45L135.1059 316.66876Q134.51215 317.59064 133.37152 317.59064Q132.62152 317.59064 131.99652 317.1844Q131.37152 316.7625 131.02777 316.02814Q130.68402 315.29376 130.68402 314.34064Q130.68402 313.41876 130.99652 312.65314Q131.30902 311.8875 131.93402 311.4969Q132.55902 311.09064 133.32465 311.09064Q133.88715 311.09064 134.32465 311.325Q134.76215 311.5594 135.0434 311.9344L135.0434 308.85626L136.09027 308.85626L136.09027 317.45L135.1059 317.45ZM131.77777 314.34064Q131.77777 315.54376 132.27777 316.1375Q132.77777 316.71564 133.46527 316.71564Q134.15277 316.71564 134.63715 316.15314Q135.12152 315.59064 135.12152 314.4344Q135.12152 313.15314 134.62152 312.5594Q134.13715 311.96564 133.4184 311.96564Q132.71527 311.96564 132.24652 312.54376Q131.77777 313.10626 131.77777 314.34064ZM146.32465 316.4344L146.32465 317.45L140.63715 317.45Q140.63715 317.075 140.76215 316.71564Q140.9809 316.1375 141.44965 315.575Q141.93402 315.0125 142.84027 314.27814Q144.24652 313.1219 144.7309 312.45Q145.2309 311.77814 145.2309 311.1844Q145.2309 310.5594 144.77777 310.1375Q144.32465 309.7 143.6059 309.7Q142.84027 309.7 142.38715 310.15314Q141.93402 310.60626 141.9184 311.41876L140.84027 311.3094Q140.94965 310.09064 141.6684 309.46564Q142.40277 308.825 143.63715 308.825Q144.87152 308.825 145.59027 309.5125Q146.30902 310.2 146.30902 311.21564Q146.30902 311.73126 146.09027 312.23126Q145.88715 312.71564 145.38715 313.27814Q144.90277 313.825 143.77777 314.77814Q142.82465 315.575 142.5434 315.8719Q142.27777 316.15314 142.1059 316.4344L146.32465 316.4344Z" fill-rule="nonzero"/><path fill="#000000" d="M170.10243 317.45L170.10243 312.04376L169.16493 312.04376L169.16493 311.23126L170.10243 311.23126L170.10243 310.5594Q170.10243 309.9344 170.2118 309.6375Q170.36806 309.21564 170.74306 308.96564Q171.13368 308.71564 171.82118 308.71564Q172.2743 308.71564 172.80556 308.825L172.6493 309.73126Q172.32118 309.6844 172.0243 309.6844Q171.53993 309.6844 171.3368 309.8875Q171.1493 310.09064 171.1493 310.65314L171.1493 311.23126L172.36806 311.23126L172.36806 312.04376L171.1493 312.04376L171.1493 317.45L170.10243 317.45ZM172.4618 314.34064Q172.4618 312.60626 173.41493 311.77814Q174.2118 311.09064 175.36806 311.09064Q176.6493 311.09064 177.4618 311.9344Q178.28993 312.7625 178.28993 314.2469Q178.28993 315.45 177.93056 316.1375Q177.57118 316.825 176.86806 317.21564Q176.18056 317.59064 175.36806 317.59064Q174.07118 317.59064 173.25868 316.7625Q172.4618 315.91876 172.4618 314.34064ZM173.53993 314.34064Q173.53993 315.52814 174.05556 316.1219Q174.5868 316.71564 175.36806 316.71564Q176.16493 316.71564 176.68056 316.1219Q177.19618 315.52814 177.19618 314.3094Q177.19618 313.15314 176.66493 312.5594Q176.1493 311.96564 175.36806 311.96564Q174.5868 311.96564 174.05556 312.5594Q173.53993 313.1375 173.53993 314.34064ZM179.82118 317.45L179.82118 308.85626L180.88368 308.85626L180.88368 317.45L179.82118 317.45ZM186.88368 317.45L186.88368 316.66876Q186.28993 317.59064 185.1493 317.59064Q184.3993 317.59064 183.7743 317.1844Q183.1493 316.7625 182.80556 316.02814Q182.4618 315.29376 182.4618 314.34064Q182.4618 313.41876 182.7743 312.65314Q183.0868 311.8875 183.7118 311.4969Q184.3368 311.09064 185.10243 311.09064Q185.66493 311.09064 186.10243 311.325Q186.53993 311.5594 186.82118 311.9344L186.82118 308.85626L187.86806 308.85626L187.86806 317.45L186.88368 317.45ZM183.55556 314.34064Q183.55556 315.54376 184.05556 316.1375Q184.55556 316.71564 185.24306 316.71564Q185.93056 316.71564 186.41493 316.15314Q186.8993 315.59064 186.8993 314.4344Q186.8993 313.15314 186.3993 312.5594Q185.91493 311.96564 185.19618 311.96564Q184.49306 311.96564 184.0243 312.54376Q183.55556 313.10626 183.55556 314.34064ZM192.55556 315.1844L193.61806 315.04376Q193.78993 315.9344 194.22743 316.34064Q194.66493 316.73126 195.28993 316.73126Q196.03993 316.73126 196.55556 316.21564Q197.07118 315.7 197.07118 314.9344Q197.07118 314.21564 196.5868 313.7469Q196.11806 313.2625 195.38368 313.2625Q195.0868 313.2625 194.63368 313.3875L194.75868 312.45Q194.86806 312.46564 194.93056 312.46564Q195.60243 312.46564 196.13368 312.1219Q196.68056 311.7625 196.68056 311.02814Q196.68056 310.45 196.28993 310.075Q195.8993 309.6844 195.2743 309.6844Q194.66493 309.6844 194.24306 310.075Q193.8368 310.46564 193.72743 311.23126L192.66493 311.04376Q192.85243 309.9969 193.53993 309.41876Q194.22743 308.825 195.24306 308.825Q195.94618 308.825 196.53993 309.1375Q197.13368 309.4344 197.44618 309.95Q197.75868 310.46564 197.75868 311.0594Q197.75868 311.60626 197.4618 312.075Q197.16493 312.52814 196.5868 312.79376Q197.3368 312.96564 197.75868 313.52814Q198.18056 314.075 198.18056 314.91876Q198.18056 316.04376 197.35243 316.825Q196.53993 317.60626 195.28993 317.60626Q194.16493 317.60626 193.41493 316.9344Q192.66493 316.2469 192.55556 315.1844Z" fill-rule="nonzero"/><path fill="#000000" d="M221.8802 317.45L221.8802 312.04376L220.9427 312.04376L220.9427 311.23126L221.8802 311.23126L221.8802 310.5594Q221.8802 309.9344 221.98958 309.6375Q222.14583 309.21564 222.52083 308.96564Q222.91145 308.71564 223.59895 308.71564Q224.05208 308.71564 224.58333 308.825L224.42708 309.73126Q224.09895 309.6844 223.80208 309.6844Q223.3177 309.6844 223.11458 309.8875Q222.92708 310.09064 222.92708 310.65314L222.92708 311.23126L224.14583 311.23126L224.14583 312.04376L222.92708 312.04376L222.92708 317.45L221.8802 317.45ZM224.23958 314.34064Q224.23958 312.60626 225.1927 311.77814Q225.98958 311.09064 227.14583 311.09064Q228.42708 311.09064 229.23958 311.9344Q230.0677 312.7625 230.0677 314.2469Q230.0677 315.45 229.70833 316.1375Q229.34895 316.825 228.64583 317.21564Q227.95833 317.59064 227.14583 317.59064Q225.84895 317.59064 225.03645 316.7625Q224.23958 315.91876 224.23958 314.34064ZM225.3177 314.34064Q225.3177 315.52814 225.83333 316.1219Q226.36458 316.71564 227.14583 316.71564Q227.9427 316.71564 228.45833 316.1219Q228.97395 315.52814 228.97395 314.3094Q228.97395 313.15314 228.4427 312.5594Q227.92708 311.96564 227.14583 311.96564Q226.36458 311.96564 225.83333 312.5594Q225.3177 313.1375 225.3177 314.34064ZM231.59895 317.45L231.59895 308.85626L232.66145 308.85626L232.66145 317.45L231.59895 317.45ZM238.66145 317.45L238.66145 316.66876Q238.0677 317.59064 236.92708 317.59064Q236.17708 317.59064 235.55208 317.1844Q234.92708 316.7625 234.58333 316.02814Q234.23958 315.29376 234.23958 314.34064Q234.23958 313.41876 234.55208 312.65314Q234.86458 311.8875 235.48958 311.4969Q236.11458 311.09064 236.8802 311.09064Q237.4427 311.09064 237.8802 311.325Q238.3177 311.5594 238.59895 311.9344L238.59895 308.85626L239.64583 308.85626L239.64583 317.45L238.66145 317.45ZM235.33333 314.34064Q235.33333 315.54376 235.83333 316.1375Q236.33333 316.71564 237.02083 316.71564Q237.70833 316.71564 238.1927 316.15314Q238.67708 315.59064 238.67708 314.4344Q238.67708 313.15314 238.17708 312.5594Q237.6927 311.96564 236.97395 311.96564Q236.27083 311.96564 235.80208 312.54376Q235.33333 313.10626 235.33333 314.34064ZM247.70833 317.45L247.70833 315.3875L243.98958 315.3875L243.98958 314.41876L247.91145 308.85626L248.77083 308.85626L248.77083 314.41876L249.92708 314.41876L249.92708 315.3875L248.77083 315.3875L248.77083 317.45L247.70833 317.45ZM247.70833 314.41876L247.70833 310.5594L245.02083 314.41876L247.70833 314.41876Z" fill-rule="nonzero"/><path fill="#000000" d="M273.658 317.45L273.658 312.04376L272.7205 312.04376L272.7205 311.23126L273.658 311.23126L273.658 310.5594Q273.658 309.9344 273.76736 309.6375Q273.9236 309.21564 274.2986 308.96564Q274.68924 308.71564 275.37674 308.71564Q275.82986 308.71564 276.3611 308.825L276.20486 309.73126Q275.87674 309.6844 275.57986 309.6844Q275.0955 309.6844 274.89236 309.8875Q274.70486 310.09064 274.70486 310.65314L274.70486 311.23126L275.9236 311.23126L275.9236 312.04376L274.70486 312.04376L274.70486 317.45L273.658 317.45ZM276.01736 314.34064Q276.01736 312.60626 276.9705 311.77814Q277.76736 311.09064 278.9236 311.09064Q280.20486 311.09064 281.01736 311.9344Q281.8455 312.7625 281.8455 314.2469Q281.8455 315.45 281.4861 316.1375Q281.12674 316.825 280.4236 317.21564Q279.7361 317.59064 278.9236 317.59064Q277.62674 317.59064 276.81424 316.7625Q276.01736 315.91876 276.01736 314.34064ZM277.0955 314.34064Q277.0955 315.52814 277.6111 316.1219Q278.14236 316.71564 278.9236 316.71564Q279.7205 316.71564 280.2361 316.1219Q280.75174 315.52814 280.75174 314.3094Q280.75174 313.15314 280.2205 312.5594Q279.70486 311.96564 278.9236 311.96564Q278.14236 311.96564 277.6111 312.5594Q277.0955 313.1375 277.0955 314.34064ZM283.37674 317.45L283.37674 308.85626L284.43924 308.85626L284.43924 317.45L283.37674 317.45ZM290.43924 317.45L290.43924 316.66876Q289.8455 317.59064 288.70486 317.59064Q287.95486 317.59064 287.32986 317.1844Q286.70486 316.7625 286.3611 316.02814Q286.01736 315.29376 286.01736 314.34064Q286.01736 313.41876 286.32986 312.65314Q286.64236 311.8875 287.26736 311.4969Q287.89236 311.09064 288.658 311.09064Q289.2205 311.09064 289.658 311.325Q290.0955 311.5594 290.37674 311.9344L290.37674 308.85626L291.4236 308.85626L291.4236 317.45L290.43924 317.45ZM287.1111 314.34064Q287.1111 315.54376 287.6111 316.1375Q288.1111 316.71564 288.7986 316.71564Q289.4861 316.71564 289.9705 316.15314Q290.45486 315.59064 290.45486 314.4344Q290.45486 313.15314 289.95486 312.5594Q289.4705 311.96564 288.75174 311.96564Q288.0486 311.96564 287.57986 312.54376Q287.1111 313.10626 287.1111 314.34064ZM296.1111 315.2L297.2205 315.10626Q297.3455 315.91876 297.783 316.325Q298.2361 316.73126 298.87674 316.73126Q299.62674 316.73126 300.158 316.15314Q300.68924 315.575 300.68924 314.6375Q300.68924 313.73126 300.1736 313.21564Q299.6736 312.6844 298.8455 312.6844Q298.3455 312.6844 297.9236 312.91876Q297.51736 313.15314 297.283 313.5125L296.2986 313.3875L297.12674 308.98126L301.408 308.98126L301.408 309.98126L297.9705 309.98126L297.51736 312.29376Q298.283 311.7469 299.12674 311.7469Q300.25174 311.7469 301.01736 312.52814Q301.7986 313.3094 301.7986 314.54376Q301.7986 315.7 301.12674 316.5594Q300.2986 317.59064 298.87674 317.59064Q297.70486 317.59064 296.95486 316.9344Q296.2205 316.27814 296.1111 315.2Z" fill-rule="nonzero"/><path fill="#000000" d="M325.43576 317.45L325.43576 312.04376L324.49826 312.04376L324.49826 311.23126L325.43576 311.23126L325.43576 310.5594Q325.43576 309.9344 325.54514 309.6375Q325.7014 309.21564 326.0764 308.96564Q326.467 308.71564 327.1545 308.71564Q327.60764 308.71564 328.1389 308.825L327.98264 309.73126Q327.6545 309.6844 327.35764 309.6844Q326.87326 309.6844 326.67014 309.8875Q326.48264 310.09064 326.48264 310.65314L326.48264 311.23126L327.7014 311.23126L327.7014 312.04376L326.48264 312.04376L326.48264 317.45L325.43576 317.45ZM327.79514 314.34064Q327.79514 312.60626 328.74826 311.77814Q329.54514 311.09064 330.7014 311.09064Q331.98264 311.09064 332.79514 311.9344Q333.62326 312.7625 333.62326 314.2469Q333.62326 315.45 333.2639 316.1375Q332.9045 316.825 332.2014 317.21564Q331.5139 317.59064 330.7014 317.59064Q329.4045 317.59064 328.592 316.7625Q327.79514 315.91876 327.79514 314.34064ZM328.87326 314.34064Q328.87326 315.52814 329.3889 316.1219Q329.92014 316.71564 330.7014 316.71564Q331.49826 316.71564 332.0139 316.1219Q332.5295 315.52814 332.5295 314.3094Q332.5295 313.15314 331.99826 312.5594Q331.48264 311.96564 330.7014 311.96564Q329.92014 311.96564 329.3889 312.5594Q328.87326 313.1375 328.87326 314.34064ZM335.1545 317.45L335.1545 308.85626L336.217 308.85626L336.217 317.45L335.1545 317.45ZM342.217 317.45L342.217 316.66876Q341.62326 317.59064 340.48264 317.59064Q339.73264 317.59064 339.10764 317.1844Q338.48264 316.7625 338.1389 316.02814Q337.79514 315.29376 337.79514 314.34064Q337.79514 313.41876 338.10764 312.65314Q338.42014 311.8875 339.04514 311.4969Q339.67014 311.09064 340.43576 311.09064Q340.99826 311.09064 341.43576 311.325Q341.87326 311.5594 342.1545 311.9344L342.1545 308.85626L343.2014 308.85626L343.2014 317.45L342.217 317.45ZM338.8889 314.34064Q338.8889 315.54376 339.3889 316.1375Q339.8889 316.71564 340.5764 316.71564Q341.2639 316.71564 341.74826 316.15314Q342.23264 315.59064 342.23264 314.4344Q342.23264 313.15314 341.73264 312.5594Q341.24826 311.96564 340.5295 311.96564Q339.8264 311.96564 339.35764 312.54376Q338.8889 313.10626 338.8889 314.34064ZM353.35764 310.96564L352.31076 311.04376Q352.17014 310.41876 351.92014 310.1375Q351.48264 309.6844 350.85764 309.6844Q350.35764 309.6844 349.967 309.96564Q349.48264 310.34064 349.18576 311.04376Q348.9045 311.73126 348.8889 313.0125Q349.2639 312.4344 349.81076 312.15314Q350.37326 311.8719 350.98264 311.8719Q352.0295 311.8719 352.7639 312.65314Q353.5139 313.4344 353.5139 314.65314Q353.5139 315.46564 353.1545 316.16876Q352.81076 316.85626 352.2014 317.23126Q351.592 317.59064 350.8264 317.59064Q349.49826 317.59064 348.67014 316.6219Q347.842 315.65314 347.842 313.4344Q347.842 310.9344 348.7639 309.8094Q349.56076 308.825 350.92014 308.825Q351.93576 308.825 352.5764 309.40314Q353.23264 309.96564 353.35764 310.96564ZM349.06076 314.66876Q349.06076 315.21564 349.2795 315.71564Q349.5139 316.2 349.92014 316.46564Q350.342 316.73126 350.81076 316.73126Q351.467 316.73126 351.9514 316.2Q352.43576 315.65314 352.43576 314.73126Q352.43576 313.84064 351.9514 313.325Q351.48264 312.8094 350.7639 312.8094Q350.04514 312.8094 349.54514 313.325Q349.06076 313.84064 349.06076 314.66876Z" fill-rule="nonzero"/><path fill="#000000" d="M377.21353 317.45L377.21353 312.04376L376.27603 312.04376L376.27603 311.23126L377.21353 311.23126L377.21353 310.5594Q377.21353 309.9344 377.3229 309.6375Q377.47916 309.21564 377.85416 308.96564Q378.24478 308.71564 378.93228 308.71564Q379.3854 308.71564 379.91666 308.825L379.7604 309.73126Q379.43228 309.6844 379.1354 309.6844Q378.65103 309.6844 378.4479 309.8875Q378.2604 310.09064 378.2604 310.65314L378.2604 311.23126L379.47916 311.23126L379.47916 312.04376L378.2604 312.04376L378.2604 317.45L377.21353 317.45ZM379.5729 314.34064Q379.5729 312.60626 380.52603 311.77814Q381.3229 311.09064 382.47916 311.09064Q383.7604 311.09064 384.5729 311.9344Q385.40103 312.7625 385.40103 314.2469Q385.40103 315.45 385.04166 316.1375Q384.68228 316.825 383.97916 317.21564Q383.29166 317.59064 382.47916 317.59064Q381.18228 317.59064 380.36978 316.7625Q379.5729 315.91876 379.5729 314.34064ZM380.65103 314.34064Q380.65103 315.52814 381.16666 316.1219Q381.6979 316.71564 382.47916 316.71564Q383.27603 316.71564 383.79166 316.1219Q384.30728 315.52814 384.30728 314.3094Q384.30728 313.15314 383.77603 312.5594Q383.2604 311.96564 382.47916 311.96564Q381.6979 311.96564 381.16666 312.5594Q380.65103 313.1375 380.65103 314.34064ZM386.93228 317.45L386.93228 308.85626L387.99478 308.85626L387.99478 317.45L386.93228 317.45ZM393.99478 317.45L393.99478 316.66876Q393.40103 317.59064 392.2604 317.59064Q391.5104 317.59064 390.8854 317.1844Q390.2604 316.7625 389.91666 316.02814Q389.5729 315.29376 389.5729 314.34064Q389.5729 313.41876 389.8854 312.65314Q390.1979 311.8875 390.8229 311.4969Q391.4479 311.09064 392.21353 311.09064Q392.77603 311.09064 393.21353 311.325Q393.65103 311.5594 393.93228 311.9344L393.93228 308.85626L394.97916 308.85626L394.97916 317.45L393.99478 317.45ZM390.66666 314.34064Q390.66666 315.54376 391.16666 316.1375Q391.66666 316.71564 392.35416 316.71564Q393.04166 316.71564 393.52603 316.15314Q394.0104 315.59064 394.0104 314.4344Q394.0104 313.15314 393.5104 312.5594Q393.02603 311.96564 392.30728 311.96564Q391.60416 311.96564 391.1354 312.54376Q390.66666 313.10626 390.66666 314.34064ZM399.72916 309.98126L399.72916 308.96564L405.29166 308.96564L405.29166 309.79376Q404.47916 310.66876 403.66666 312.1219Q402.86978 313.5594 402.43228 315.09064Q402.10416 316.16876 402.02603 317.45L400.93228 317.45Q400.9479 316.4344 401.3229 314.9969Q401.71353 313.5594 402.41666 312.23126Q403.1354 310.90314 403.9479 309.98126L399.72916 309.98126Z" fill-rule="nonzero"/><path fill="#000000" d="M428.99133 317.45L428.99133 312.04376L428.05383 312.04376L428.05383 311.23126L428.99133 311.23126L428.99133 310.5594Q428.99133 309.9344 429.1007 309.6375Q429.25696 309.21564 429.63196 308.96564Q430.02258 308.71564 430.71008 308.71564Q431.1632 308.71564 431.69446 308.825L431.5382 309.73126Q431.21008 309.6844 430.9132 309.6844Q430.42883 309.6844 430.2257 309.8875Q430.0382 310.09064 430.0382 310.65314L430.0382 311.23126L431.25696 311.23126L431.25696 312.04376L430.0382 312.04376L430.0382 317.45L428.99133 317.45ZM431.3507 314.34064Q431.3507 312.60626 432.30383 311.77814Q433.1007 311.09064 434.25696 311.09064Q435.5382 311.09064 436.3507 311.9344Q437.17883 312.7625 437.17883 314.2469Q437.17883 315.45 436.81946 316.1375Q436.46008 316.825 435.75696 317.21564Q435.06946 317.59064 434.25696 317.59064Q432.96008 317.59064 432.14758 316.7625Q431.3507 315.91876 431.3507 314.34064ZM432.42883 314.34064Q432.42883 315.52814 432.94446 316.1219Q433.4757 316.71564 434.25696 316.71564Q435.05383 316.71564 435.56946 316.1219Q436.08508 315.52814 436.08508 314.3094Q436.08508 313.15314 435.55383 312.5594Q435.0382 311.96564 434.25696 311.96564Q433.4757 311.96564 432.94446 312.5594Q432.42883 313.1375 432.42883 314.34064ZM438.71008 317.45L438.71008 308.85626L439.77258 308.85626L439.77258 317.45L438.71008 317.45ZM445.77258 317.45L445.77258 316.66876Q445.17883 317.59064 444.0382 317.59064Q443.2882 317.59064 442.6632 317.1844Q442.0382 316.7625 441.69446 316.02814Q441.3507 315.29376 441.3507 314.34064Q441.3507 313.41876 441.6632 312.65314Q441.9757 311.8875 442.6007 311.4969Q443.2257 311.09064 443.99133 311.09064Q444.55383 311.09064 444.99133 311.325Q445.42883 311.5594 445.71008 311.9344L445.71008 308.85626L446.75696 308.85626L446.75696 317.45L445.77258 317.45ZM442.44446 314.34064Q442.44446 315.54376 442.94446 316.1375Q443.44446 316.71564 444.13196 316.71564Q444.81946 316.71564 445.30383 316.15314Q445.7882 315.59064 445.7882 314.4344Q445.7882 313.15314 445.2882 312.5594Q444.80383 311.96564 444.08508 311.96564Q443.38196 311.96564 442.9132 312.54376Q442.44446 313.10626 442.44446 314.34064ZM453.06946 312.79376Q452.4132 312.54376 452.08508 312.10626Q451.77258 311.65314 451.77258 311.04376Q451.77258 310.10626 452.44446 309.46564Q453.13196 308.825 454.24133 308.825Q455.36633 308.825 456.05383 309.48126Q456.74133 310.1375 456.74133 311.075Q456.74133 311.66876 456.42883 312.10626Q456.11633 312.54376 455.4757 312.79376Q456.27258 313.04376 456.67883 313.6219Q457.08508 314.2 457.08508 314.9969Q457.08508 316.09064 456.30383 316.84064Q455.5382 317.59064 454.25696 317.59064Q452.99133 317.59064 452.21008 316.84064Q451.42883 316.09064 451.42883 314.96564Q451.42883 314.1219 451.8507 313.5594Q452.2882 312.9969 453.06946 312.79376ZM452.8507 310.9969Q452.8507 311.60626 453.24133 311.9969Q453.64758 312.3875 454.27258 312.3875Q454.88196 312.3875 455.27258 312.0125Q455.6632 311.6219 455.6632 311.0594Q455.6632 310.48126 455.25696 310.09064Q454.8507 309.6844 454.25696 309.6844Q453.64758 309.6844 453.24133 310.075Q452.8507 310.46564 452.8507 310.9969ZM452.52258 314.96564Q452.52258 315.41876 452.7257 315.84064Q452.94446 316.2625 453.36633 316.4969Q453.7882 316.73126 454.27258 316.73126Q455.02258 316.73126 455.50696 316.2469Q456.00696 315.7625 456.00696 315.0125Q456.00696 314.2469 455.50696 313.7469Q455.00696 313.2469 454.24133 313.2469Q453.49133 313.2469 453.00696 313.7469Q452.52258 314.23126 452.52258 314.96564Z" fill-rule="nonzero"/><path fill="#000000" d="M480.7691 317.45L480.7691 312.04376L479.8316 312.04376L479.8316 311.23126L480.7691 311.23126L480.7691 310.5594Q480.7691 309.9344 480.87848 309.6375Q481.03473 309.21564 481.40973 308.96564Q481.80035 308.71564 482.48785 308.71564Q482.94098 308.71564 483.47223 308.825L483.31598 309.73126Q482.98785 309.6844 482.69098 309.6844Q482.2066 309.6844 482.00348 309.8875Q481.81598 310.09064 481.81598 310.65314L481.81598 311.23126L483.03473 311.23126L483.03473 312.04376L481.81598 312.04376L481.81598 317.45L480.7691 317.45ZM483.12848 314.34064Q483.12848 312.60626 484.0816 311.77814Q484.87848 311.09064 486.03473 311.09064Q487.31598 311.09064 488.12848 311.9344Q488.9566 312.7625 488.9566 314.2469Q488.9566 315.45 488.59723 316.1375Q488.23785 316.825 487.53473 317.21564Q486.84723 317.59064 486.03473 317.59064Q484.73785 317.59064 483.92535 316.7625Q483.12848 315.91876 483.12848 314.34064ZM484.2066 314.34064Q484.2066 315.52814 484.72223 316.1219Q485.25348 316.71564 486.03473 316.71564Q486.8316 316.71564 487.34723 316.1219Q487.86285 315.52814 487.86285 314.3094Q487.86285 313.15314 487.3316 312.5594Q486.81598 311.96564 486.03473 311.96564Q485.25348 311.96564 484.72223 312.5594Q484.2066 313.1375 484.2066 314.34064ZM490.48785 317.45L490.48785 308.85626L491.55035 308.85626L491.55035 317.45L490.48785 317.45ZM497.55035 317.45L497.55035 316.66876Q496.9566 317.59064 495.81598 317.59064Q495.06598 317.59064 494.44098 317.1844Q493.81598 316.7625 493.47223 316.02814Q493.12848 315.29376 493.12848 314.34064Q493.12848 313.41876 493.44098 312.65314Q493.75348 311.8875 494.37848 311.4969Q495.00348 311.09064 495.7691 311.09064Q496.3316 311.09064 496.7691 311.325Q497.2066 311.5594 497.48785 311.9344L497.48785 308.85626L498.53473 308.85626L498.53473 317.45L497.55035 317.45ZM494.22223 314.34064Q494.22223 315.54376 494.72223 316.1375Q495.22223 316.71564 495.90973 316.71564Q496.59723 316.71564 497.0816 316.15314Q497.56598 315.59064 497.56598 314.4344Q497.56598 313.15314 497.06598 312.5594Q496.5816 311.96564 495.86285 311.96564Q495.15973 311.96564 494.69098 312.54376Q494.22223 313.10626 494.22223 314.34064ZM503.37848 315.46564L504.3941 315.3719Q504.5191 316.09064 504.87848 316.41876Q505.25348 316.73126 505.81598 316.73126Q506.30035 316.73126 506.65973 316.5125Q507.03473 316.27814 507.2691 315.91876Q507.50348 315.54376 507.65973 314.91876Q507.81598 314.27814 507.81598 313.6219Q507.81598 313.54376 507.81598 313.40314Q507.50348 313.90314 506.9566 314.23126Q506.40973 314.54376 505.7691 314.54376Q504.69098 314.54376 503.9566 313.77814Q503.22223 312.9969 503.22223 311.73126Q503.22223 310.41876 503.98785 309.6219Q504.7691 308.825 505.92535 308.825Q506.75348 308.825 507.44098 309.27814Q508.1441 309.73126 508.50348 310.575Q508.86285 311.40314 508.86285 312.98126Q508.86285 314.6219 508.50348 315.60626Q508.15973 316.575 507.44098 317.09064Q506.73785 317.59064 505.80035 317.59064Q504.78473 317.59064 504.1441 317.04376Q503.50348 316.48126 503.37848 315.46564ZM507.69098 311.66876Q507.69098 310.7625 507.2066 310.23126Q506.73785 309.7 506.05035 309.7Q505.34723 309.7 504.81598 310.27814Q504.30035 310.84064 504.30035 311.7625Q504.30035 312.575 504.80035 313.09064Q505.30035 313.60626 506.0191 313.60626Q506.75348 313.60626 507.22223 313.09064Q507.69098 312.575 507.69098 311.66876Z" fill-rule="nonzero"/><path fill="#000000" d="M529.0469 317.45L529.0469 312.04376L528.1094 312.04376L528.1094 311.23126L529.0469 311.23126L529.0469 310.5594Q529.0469 309.9344 529.15625 309.6375Q529.3125 309.21564 529.6875 308.96564Q530.0781 308.71564 530.7656 308.71564Q531.21875 308.71564 531.75 308.825L531.59375 309.73126Q531.2656 309.6844 530.96875 309.6844Q530.4844 309.6844 530.28125 309.8875Q530.09375 310.09064 530.09375 310.65314L530.09375 311.23126L531.3125 311.23126L531.3125 312.04376L530.09375 312.04376L530.09375 317.45L529.0469 317.45ZM531.40625 314.34064Q531.40625 312.60626 532.3594 311.77814Q533.15625 311.09064 534.3125 311.09064Q535.59375 311.09064 536.40625 311.9344Q537.2344 312.7625 537.2344 314.2469Q537.2344 315.45 536.875 316.1375Q536.5156 316.825 535.8125 317.21564Q535.125 317.59064 534.3125 317.59064Q533.0156 317.59064 532.2031 316.7625Q531.40625 315.91876 531.40625 314.34064ZM532.4844 314.34064Q532.4844 315.52814 533.0 316.1219Q533.53125 316.71564 534.3125 316.71564Q535.1094 316.71564 535.625 316.1219Q536.1406 315.52814 536.1406 314.3094Q536.1406 313.15314 535.6094 312.5594Q535.09375 311.96564 534.3125 311.96564Q533.53125 311.96564 533.0 312.5594Q532.4844 313.1375 532.4844 314.34064ZM538.7656 317.45L538.7656 308.85626L539.8281 308.85626L539.8281 317.45L538.7656 317.45ZM545.8281 317.45L545.8281 316.66876Q545.2344 317.59064 544.09375 317.59064Q543.34375 317.59064 542.71875 317.1844Q542.09375 316.7625 541.75 316.02814Q541.40625 315.29376 541.40625 314.34064Q541.40625 313.41876 541.71875 312.65314Q542.03125 311.8875 542.65625 311.4969Q543.28125 311.09064 544.0469 311.09064Q544.6094 311.09064 545.0469 311.325Q545.4844 311.5594 545.7656 311.9344L545.7656 308.85626L546.8125 308.85626L546.8125 317.45L545.8281 317.45ZM542.5 314.34064Q542.5 315.54376 543.0 316.1375Q543.5 316.71564 544.1875 316.71564Q544.875 316.71564 545.3594 316.15314Q545.84375 315.59064 545.84375 314.4344Q545.84375 313.15314 545.34375 312.5594Q544.8594 311.96564 544.1406 311.96564Q543.4375 311.96564 542.96875 312.54376Q542.5 313.10626 542.5 314.34064ZM555.46875 317.45L554.4219 317.45L554.4219 310.73126Q554.03125 311.09064 553.40625 311.46564Q552.7969 311.825 552.3125 311.9969L552.3125 310.98126Q553.1875 310.5594 553.84375 309.98126Q554.5156 309.3875 554.7969 308.825L555.46875 308.825L555.46875 317.45ZM558.5 313.21564Q558.5 311.6844 558.8125 310.7625Q559.125 309.825 559.7344 309.325Q560.3594 308.825 561.2969 308.825Q561.9844 308.825 562.5 309.10626Q563.03125 309.3875 563.375 309.91876Q563.71875 310.4344 563.90625 311.1844Q564.09375 311.9344 564.09375 313.21564Q564.09375 314.73126 563.78125 315.65314Q563.4844 316.575 562.8594 317.09064Q562.25 317.59064 561.2969 317.59064Q560.0625 317.59064 559.34375 316.7Q558.5 315.6375 558.5 313.21564ZM559.5781 313.21564Q559.5781 315.325 560.0781 316.02814Q560.5781 316.73126 561.2969 316.73126Q562.03125 316.73126 562.5156 316.02814Q563.0156 315.325 563.0156 313.21564Q563.0156 311.09064 562.5156 310.40314Q562.03125 309.7 561.28125 309.7Q560.5625 309.7 560.125 310.3094Q559.5781 311.09064 559.5781 313.21564Z" fill-rule="nonzero"/><path fill="#4285f4" d="M231.5 56.916668C231.5 56.364384 231.94771 55.916668 232.5 55.916668L242.5 55.916668C243.05229 55.916668 243.5 56.364384 243.5 56.916668L243.5 66.916664C243.5 67.46895 243.05229 67.916664 242.5 67.916664L232.5 67.916664C231.94771 67.916664 231.5 67.46895 231.5 66.916664Z" fill-rule="nonzero"/><path fill="#1a1a1a" d="M252.375 65.916664L252.375 57.322914L253.51562 57.322914L253.51562 64.90104L257.75 64.90104L257.75 65.916664L252.375 65.916664ZM259.42188 65.916664L259.42188 57.322914L262.67188 57.322914Q263.51562 57.322914 263.96875 57.40104Q264.60938 57.510414 265.03125 57.80729Q265.46875 58.104164 265.71875 58.635414Q265.98438 59.166664 265.98438 59.80729Q265.98438 60.90104 265.28125 61.666664Q264.59375 62.416664 262.76562 62.416664L260.5625 62.416664L260.5625 65.916664L259.42188 65.916664ZM260.5625 61.416664L262.78125 61.416664Q263.89062 61.416664 264.34375 61.010414Q264.8125 60.58854 264.8125 59.83854Q264.8125 59.30729 264.53125 58.93229Q264.26562 58.541664 263.82812 58.416664Q263.53125 58.33854 262.76562 58.33854L260.5625 58.33854L260.5625 61.416664Z" fill-rule="nonzero"/><path fill="#ea4335" d="M282.5 56.916668C282.5 56.364384 282.94772 55.916668 283.5 55.916668L293.5 55.916668C294.05228 55.916668 294.5 56.364384 294.5 56.916668L294.5 66.916664C294.5 67.46895 294.05228 67.916664 293.5 67.916664L283.5 67.916664C282.94772 67.916664 282.5 67.46895 282.5 66.916664Z" fill-rule="nonzero"/><path fill="#1a1a1a" d="M303.375 65.916664L303.375 57.322914L304.51562 57.322914L304.51562 64.90104L308.75 64.90104L308.75 65.916664L303.375 65.916664ZM310.4375 65.916664L310.4375 57.322914L314.25 57.322914Q315.40625 57.322914 316.0 57.55729Q316.59375 57.791664 316.95312 58.385414Q317.3125 58.96354 317.3125 59.666664Q317.3125 60.58854 316.71875 61.21354Q316.125 61.83854 314.89062 62.010414Q315.34375 62.229164 315.57812 62.43229Q316.07812 62.885414 316.51562 63.572914L318.01562 65.916664L316.57812 65.916664L315.45312 64.135414Q314.95312 63.354164 314.625 62.947914Q314.3125 62.541664 314.04688 62.385414Q313.79688 62.21354 313.53125 62.135414Q313.34375 62.104164 312.90625 62.104164L311.57812 62.104164L311.57812 65.916664L310.4375 65.916664ZM311.57812 61.11979L314.03125 61.11979Q314.79688 61.11979 315.23438 60.96354Q315.6875 60.791664 315.90625 60.447914Q316.14062 60.08854 316.14062 59.666664Q316.14062 59.05729 315.6875 58.666664Q315.25 58.27604 314.29688 58.27604L311.57812 58.27604L311.57812 61.11979Z" fill-rule="nonzero"/><path fill="#fbbc04" d="M334.5 56.916668C334.5 56.364384 334.94772 55.916668 335.5 55.916668L345.5 55.916668C346.05228 55.916668 346.5 56.364384 346.5 56.916668L346.5 66.916664C346.5 67.46895 346.05228 67.916664 345.5 67.916664L335.5 67.916664C334.94772 67.916664 334.5 67.46895 334.5 66.916664Z" fill-rule="nonzero"/><path fill="#1a1a1a" d="M355.48438 65.916664L355.48438 57.322914L361.28125 57.322914L361.28125 58.33854L356.625 58.33854L356.625 60.99479L360.65625 60.99479L360.65625 62.010414L356.625 62.010414L356.625 65.916664L355.48438 65.916664ZM365.96875 65.916664L364.92188 65.916664L364.92188 59.197914Q364.53125 59.55729 363.90625 59.93229Q363.29688 60.291664 362.8125 60.46354L362.8125 59.447914Q363.6875 59.02604 364.34375 58.447914Q365.01562 57.854164 365.29688 57.291664L365.96875 57.291664L365.96875 65.916664Z" fill-rule="nonzero"/><path fill="#757575" d="M20.284374 37.55L20.284374 28.55L18.7375 28.55L18.7375 27.175L20.284374 27.175L20.284374 26.08125Q20.284374 25.034374 20.471874 24.51875Q20.721874 23.83125 21.3625 23.409374Q22.003124 22.9875 23.159374 22.9875Q23.909374 22.9875 24.8 23.159374L24.534374 24.690624Q23.9875 24.596874 23.503124 24.596874Q22.70625 24.596874 22.3625 24.940624Q22.034374 25.284374 22.034374 26.221874L22.034374 27.175L24.065624 27.175L24.065624 28.55L22.034374 28.55L22.034374 37.55L20.284374 37.55ZM32.64375 36.26875Q31.659374 37.096874 30.753124 37.440624Q29.846874 37.784374 28.815624 37.784374Q27.1125 37.784374 26.190624 36.95625Q25.26875 36.1125 25.26875 34.815624Q25.26875 34.05 25.6125 33.425Q25.971874 32.8 26.534374 32.425Q27.096874 32.034374 27.8 31.83125Q28.315624 31.70625 29.3625 31.565624Q31.4875 31.315624 32.4875 30.971874Q32.503124 30.6125 32.503124 30.503124Q32.503124 29.440624 32.003124 28.9875Q31.33125 28.39375 30.003124 28.39375Q28.753124 28.39375 28.159374 28.83125Q27.58125 29.26875 27.3 30.378124L25.58125 30.14375Q25.815624 29.034374 26.346874 28.3625Q26.878124 27.675 27.89375 27.315624Q28.909374 26.940624 30.253124 26.940624Q31.58125 26.940624 32.409374 27.253124Q33.2375 27.565624 33.628124 28.05Q34.01875 28.51875 34.175 29.2375Q34.26875 29.690624 34.26875 30.8625L34.26875 33.20625Q34.26875 35.659374 34.378124 36.315624Q34.4875 36.95625 34.83125 37.55L32.9875 37.55Q32.721874 37.003124 32.64375 36.26875ZM32.4875 32.346874Q31.534374 32.7375 29.6125 33.003124Q28.534374 33.159374 28.08125 33.3625Q27.64375 33.55 27.39375 33.925Q27.14375 34.3 27.14375 34.76875Q27.14375 35.471874 27.675 35.940624Q28.20625 36.409374 29.2375 36.409374Q30.253124 36.409374 31.034374 35.971874Q31.83125 35.51875 32.20625 34.753124Q32.4875 34.14375 32.4875 32.9875L32.4875 32.346874ZM43.64375 33.753124L45.3625 33.971874Q45.08125 35.76875 43.909374 36.784374Q42.753124 37.784374 41.05 37.784374Q38.925 37.784374 37.628124 36.39375Q36.33125 35.003124 36.33125 32.409374Q36.33125 30.721874 36.878124 29.471874Q37.440624 28.20625 38.58125 27.58125Q39.721874 26.940624 41.065624 26.940624Q42.753124 26.940624 43.815624 27.8Q44.89375 28.659374 45.20625 30.221874L43.4875 30.4875Q43.253124 29.440624 42.628124 28.925Q42.003124 28.39375 41.128124 28.39375Q39.8 28.39375 38.971874 29.346874Q38.14375 30.3 38.14375 32.346874Q38.14375 34.440624 38.940624 35.39375Q39.7375 36.33125 41.034374 36.33125Q42.065624 36.33125 42.753124 35.70625Q43.45625 35.065624 43.64375 33.753124ZM50.70625 35.971874L50.95625 37.534374Q50.221874 37.690624 49.628124 37.690624Q48.675 37.690624 48.14375 37.39375Q47.628124 37.08125 47.409374 36.596874Q47.190624 36.096874 47.190624 34.51875L47.190624 28.55L45.909374 28.55L45.909374 27.175L47.190624 27.175L47.190624 24.6125L48.940624 23.55L48.940624 27.175L50.70625 27.175L50.70625 28.55L48.940624 28.55L48.940624 34.6125Q48.940624 35.3625 49.034374 35.58125Q49.128124 35.784374 49.33125 35.925Q49.55 36.05 49.940624 36.05Q50.221874 36.05 50.70625 35.971874ZM52.221874 32.3625Q52.221874 29.4875 53.815624 28.096874Q55.159374 26.940624 57.08125 26.940624Q59.221874 26.940624 60.565624 28.346874Q61.925 29.753124 61.925 32.221874Q61.925 34.221874 61.33125 35.378124Q60.7375 36.51875 59.58125 37.159374Q58.440624 37.784374 57.08125 37.784374Q54.89375 37.784374 53.55 36.39375Q52.221874 34.9875 52.221874 32.3625ZM54.01875 32.3625Q54.01875 34.3625 54.878124 35.346874Q55.753124 36.33125 57.08125 36.33125Q58.39375 36.33125 59.253124 35.346874Q60.128124 34.346874 60.128124 32.3Q60.128124 30.378124 59.253124 29.39375Q58.378124 28.39375 57.08125 28.39375Q55.753124 28.39375 54.878124 29.39375Q54.01875 30.378124 54.01875 32.3625ZM63.846874 37.55L63.846874 27.175L65.425 27.175L65.425 28.753124Q66.03438 27.64375 66.55 27.3Q67.06563 26.940624 67.675 26.940624Q68.56563 26.940624 69.4875 27.503124L68.87813 29.14375Q68.2375 28.753124 67.59688 28.753124Q67.01875 28.753124 66.55 29.1125Q66.09688 29.45625 65.89375 30.065624Q65.6125 31.003124 65.6125 32.1125L65.6125 37.55L63.846874 37.55Z" fill-rule="nonzero"/></svg>