<svg version="1.1" viewBox="0.0 0.0 600.0 371.0" fill="none" stroke="none" stroke-linecap="square" stroke-miterlimit="10" width="600" height="371" xmlns:xlink="http://www.w3.org/1999/xlink" xmlns="http://www.w3.org/2000/svg"><path fill="#ffffff" d="M0 0L600.0 0L600.0 371.0L0 371.0L0 0Z" fill-rule="nonzero"/><path stroke="#333333" stroke-width="1.0" stroke-linecap="butt" d="M45.5 300.5L581.5 300.5" fill-rule="nonzero"/><path stroke="#cccccc" stroke-width="1.0" stroke-linecap="butt" d="M45.5 247.5L581.5 247.5" fill-rule="nonzero"/><path stroke="#cccccc" stroke-width="1.0" stroke-linecap="butt" d="M45.5 194.5L581.5 194.5" fill-rule="nonzero"/><path stroke="#cccccc" stroke-width="1.0" stroke-linecap="butt" d="M45.5 141.5L581.5 141.5" fill-rule="nonzero"/><path stroke="#cccccc" stroke-width="1.0" stroke-linecap="butt" d="M45.5 88.5L581.5 88.5" fill-rule="nonzero"/><clipPath id="id_0"><path d="M45.55 88.28333L581.45 88.28333L581.45 300.45L45.55 300.45L45.55 88.28333Z" clip-rule="nonzero"/></clipPath><path stroke="#000000" stroke-width="0.0" stroke-linecap="butt" stroke-opacity="0.0" clip-path="url(#id_0)" d="M75.0 300.0L65.0 300.0L65.0 181.0C65.0 179.89543 65.89543 179.0 67.0 179.0L73.0 179.0C74.10457 179.0 75.0 179.89543 75.0 181.0Z" fill-rule="nonzero"/><path fill="#4285f4" clip-path="url(#id_0)" d="M75.0 300.0L65.0 300.0L65.0 181.0C65.0 179.89543 65.89543 179.0 67.0 179.0L73.0 179.0C74.10457 179.0 75.0 179.89543 75.0 181.0Z" fill-rule="nonzero"/><path stroke="#000000" stroke-width="0.0" stroke-linecap="butt" stroke-opacity="0.0" clip-path="url(#id_0)" d="M126.0 300.0L116.0 300.0L116.0 198.0C116.0 196.89543 116.89543 196.0 118.0 196.0L124.0 196.0C125.10457 196.0 126.0 196.89543 126.0 198.0Z" fill-rule="nonzero"/><path fill="#4285f4" clip-path="url(#id_0)" d="M126.0 300.0L116.0 300.0L116.0 198.0C116.0 196.89543 116.89543 196.0 118.0 196.0L124.0 196.0C125.10457 196.0 126.0 196.89543 126.0 198.0Z" fill-rule="nonzero"/><path stroke="#000000" stroke-width="0.0" stroke-linecap="butt" stroke-opacity="0.0" clip-path="url(#id_0)" d="M178.0 300.0L168.0 300.0L168.0 198.0C168.0 196.89543 168.89543 196.0 170.0 196.0L176.0 196.0C177.10457 196.0 178.0 196.89543 178.0 198.0Z" fill-rule="nonzero"/><path fill="#4285f4" clip-path="url(#id_0)" d="M178.0 300.0L168.0 300.0L168.0 198.0C168.0 196.89543 168.89543 196.0 170.0 196.0L176.0 196.0C177.10457 196.0 178.0 196.89543 178.0 198.0Z" fill-rule="nonzero"/><path stroke="#000000" stroke-width="0.0" stroke-linecap="butt" stroke-opacity="0.0" clip-path="url(#id_0)" d="M230.0 300.0L220.0 300.0L220.0 176.0C220.0 174.89543 220.89543 174.0 222.0 174.0L228.0 174.0C229.10457 174.0 230.0 174.89543 230.0 176.0Z" fill-rule="nonzero"/><path fill="#4285f4" clip-path="url(#id_0)" d="M230.0 300.0L220.0 300.0L220.0 176.0C220.0 174.89543 220.89543 174.0 222.0 174.0L228.0 174.0C229.10457 174.0 230.0 174.89543 230.0 176.0Z" fill-rule="nonzero"/><path stroke="#000000" stroke-width="0.0" stroke-linecap="butt" stroke-opacity="0.0" clip-path="url(#id_0)" d="M282.0 300.0L272.0 300.0L272.0 203.0C272.0 201.89543 272.89542 201.0 274.0 201.0L280.0 201.0C281.10458 201.0 282.0 201.89543 282.0 203.0Z" fill-rule="nonzero"/><path fill="#4285f4" clip-path="url(#id_0)" d="M282.0 300.0L272.0 300.0L272.0 203.0C272.0 201.89543 272.89542 201.0 274.0 201.0L280.0 201.0C281.10458 201.0 282.0 201.89543 282.0 203.0Z" fill-rule="nonzero"/><path stroke="#000000" stroke-width="0.0" stroke-linecap="butt" stroke-opacity="0.0" clip-path="url(#id_0)" d="M333.0 300.0L323.0 300.0L323.0 189.0C323.0 187.89543 323.89542 187.0 325.0 187.0L331.0 187.0C332.10458 187.0 333.0 187.89543 333.0 189.0Z" fill-rule="nonzero"/><path fill="#4285f4" clip-path="url(#id_0)" d="M333.0 300.0L323.0 300.0L323.0 189.0C323.0 187.89543 323.89542 187.0 325.0 187.0L331.0 187.0C332.10458 187.0 333.0 187.89543 333.0 189.0Z" fill-rule="nonzero"/><path stroke="#000000" stroke-width="0.0" stroke-linecap="butt" stroke-opacity="0.0" clip-path="url(#id_0)" d="M385.0 300.0L375.0 300.0L375.0 202.0C375.0 200.89543 375.89542 200.0 377.0 200.0L383.0 200.0C384.10458 200.0 385.0 200.89543 385.0 202.0Z" fill-rule="nonzero"/><path fill="#4285f4" clip-path="url(#id_0)" d="M385.0 300.0L375.0 300.0L375.0 202.0C375.0 200.89543 375.89542 200.0 377.0 200.0L383.0 200.0C384.10458 200.0 385.0 200.89543 385.0 202.0Z" fill-rule="nonzero"/><path stroke="#000000" stroke-width="0.0" stroke-linecap="butt" stroke-opacity="0.0" clip-path="url(#id_0)" d="M437.0 300.0L427.0 300.0L427.0 193.0C427.0 191.89543 427.89542 191.0 429.0 191.0L435.0 191.0C436.10458 191.0 437.0 191.89543 437.0 193.0Z" fill-rule="nonzero"/><path fill="#4285f4" clip-path="url(#id_0)" d="M437.0 300.0L427.0 300.0L427.0 193.0C427.0 191.89543 427.89542 191.0 429.0 191.0L435.0 191.0C436.10458 191.0 437.0 191.89543 437.0 193.0Z" fill-rule="nonzero"/><path stroke="#000000" stroke-width="0.0" stroke-linecap="butt" stroke-opacity="0.0" clip-path="url(#id_0)" d="M489.0 300.0L479.0 300.0L479.0 192.0C479.0 190.89543 479.89542 190.0 481.0 190.0L487.0 190.0C488.10458 190.0 489.0 190.89543 489.0 192.0Z" fill-rule="nonzero"/><path fill="#4285f4" clip-path="url(#id_0)" d="M489.0 300.0L479.0 300.0L479.0 192.0C479.0 190.89543 479.89542 190.0 481.0 190.0L487.0 190.0C488.10458 190.0 489.0 190.89543 489.0 192.0Z" fill-rule="nonzero"/><path stroke="#000000" stroke-width="0.0" stroke-linecap="butt" stroke-opacity="0.0" clip-path="url(#id_0)" d="M541.0 300.0L531.0 300.0L531.0 196.0C531.0 194.89543 531.89545 194.0 533.0 194.0L539.0 194.0C540.10455 194.0 541.0 194.89543 541.0 196.0Z" fill-rule="nonzero"/><path fill="#4285f4" clip-path="url(#id_0)" d="M541.0 300.0L531.0 300.0L531.0 196.0C531.0 194.89543 531.89545 194.0 533.0 194.0L539.0 194.0C540.10455 194.0 541.0 194.89543 541.0 196.0Z" fill-rule="nonzero"/><path stroke="#000000" stroke-width="0.0" stroke-linecap="butt" stroke-opacity="0.0" clip-path="url(#id_0)" d="M86.0 300.0L76.0 300.0L76.0 181.0C76.0 179.89543 76.89543 179.0 78.0 179.0L84.0 179.0C85.10457 179.0 86.0 179.89543 86.0 181.0Z" fill-rule="nonzero"/><path fill="#ea4335" clip-path="url(#id_0)" d="M86.0 300.0L76.0 300.0L76.0 181.0C76.0 179.89543 76.89543 179.0 78.0 179.0L84.0 179.0C85.10457 179.0 86.0 179.89543 86.0 181.0Z" fill-rule="nonzero"/><path stroke="#000000" stroke-width="0.0" stroke-linecap="butt" stroke-opacity="0.0" clip-path="url(#id_0)" d="M137.0 300.0L127.0 300.0L127.0 198.0C127.0 196.89543 127.89543 196.0 129.0 196.0L135.0 196.0C136.10457 196.0 137.0 196.89543 137.0 198.0Z" fill-rule="nonzero"/><path fill="#ea4335" clip-path="url(#id_0)" d="M137.0 300.0L127.0 300.0L127.0 198.0C127.0 196.89543 127.89543 196.0 129.0 196.0L135.0 196.0C136.10457 196.0 137.0 196.89543 137.0 198.0Z" fill-rule="nonzero"/><path stroke="#000000" stroke-width="0.0" stroke-linecap="butt" stroke-opacity="0.0" clip-path="url(#id_0)" d="M189.0 300.0L179.0 300.0L179.0 198.0C179.0 196.89543 179.89543 196.0 181.0 196.0L187.0 196.0C188.10457 196.0 189.0 196.89543 189.0 198.0Z" fill-rule="nonzero"/><path fill="#ea4335" clip-path="url(#id_0)" d="M189.0 300.0L179.0 300.0L179.0 198.0C179.0 196.89543 179.89543 196.0 181.0 196.0L187.0 196.0C188.10457 196.0 189.0 196.89543 189.0 198.0Z" fill-rule="nonzero"/><path stroke="#000000" stroke-width="0.0" stroke-linecap="butt" stroke-opacity="0.0" clip-path="url(#id_0)" d="M241.0 300.0L231.0 300.0L231.0 176.0C231.0 174.89543 231.89543 174.0 233.0 174.0L239.0 174.0C240.10457 174.0 241.0 174.89543 241.0 176.0Z" fill-rule="nonzero"/><path fill="#ea4335" clip-path="url(#id_0)" d="M241.0 300.0L231.0 300.0L231.0 176.0C231.0 174.89543 231.89543 174.0 233.0 174.0L239.0 174.0C240.10457 174.0 241.0 174.89543 241.0 176.0Z" fill-rule="nonzero"/><path stroke="#000000" stroke-width="0.0" stroke-linecap="butt" stroke-opacity="0.0" clip-path="url(#id_0)" d="M293.0 300.0L283.0 300.0L283.0 203.0C283.0 201.89543 283.89542 201.0 285.0 201.0L291.0 201.0C292.10458 201.0 293.0 201.89543 293.0 203.0Z" fill-rule="nonzero"/><path fill="#ea4335" clip-path="url(#id_0)" d="M293.0 300.0L283.0 300.0L283.0 203.0C283.0 201.89543 283.89542 201.0 285.0 201.0L291.0 201.0C292.10458 201.0 293.0 201.89543 293.0 203.0Z" fill-rule="nonzero"/><path stroke="#000000" stroke-width="0.0" stroke-linecap="butt" stroke-opacity="0.0" clip-path="url(#id_0)" d="M344.0 300.0L334.0 300.0L334.0 189.0C334.0 187.89543 334.89542 187.0 336.0 187.0L342.0 187.0C343.10458 187.0 344.0 187.89543 344.0 189.0Z" fill-rule="nonzero"/><path fill="#ea4335" clip-path="url(#id_0)" d="M344.0 300.0L334.0 300.0L334.0 189.0C334.0 187.89543 334.89542 187.0 336.0 187.0L342.0 187.0C343.10458 187.0 344.0 187.89543 344.0 189.0Z" fill-rule="nonzero"/><path stroke="#000000" stroke-width="0.0" stroke-linecap="butt" stroke-opacity="0.0" clip-path="url(#id_0)" d="M396.0 300.0L386.0 300.0L386.0 202.0C386.0 200.89543 386.89542 200.0 388.0 200.0L394.0 200.0C395.10458 200.0 396.0 200.89543 396.0 202.0Z" fill-rule="nonzero"/><path fill="#ea4335" clip-path="url(#id_0)" d="M396.0 300.0L386.0 300.0L386.0 202.0C386.0 200.89543 386.89542 200.0 388.0 200.0L394.0 200.0C395.10458 200.0 396.0 200.89543 396.0 202.0Z" fill-rule="nonzero"/><path stroke="#000000" stroke-width="0.0" stroke-linecap="butt" stroke-opacity="0.0" clip-path="url(#id_0)" d="M448.0 300.0L438.0 300.0L438.0 193.0C438.0 191.89543 438.89542 191.0 440.0 191.0L446.0 191.0C447.10458 191.0 448.0 191.89543 448.0 193.0Z" fill-rule="nonzero"/><path fill="#ea4335" clip-path="url(#id_0)" d="M448.0 300.0L438.0 300.0L438.0 193.0C438.0 191.89543 438.89542 191.0 440.0 191.0L446.0 191.0C447.10458 191.0 448.0 191.89543 448.0 193.0Z" fill-rule="nonzero"/><path stroke="#000000" stroke-width="0.0" stroke-linecap="butt" stroke-opacity="0.0" clip-path="url(#id_0)" d="M500.0 300.0L490.0 300.0L490.0 192.0C490.0 190.89543 490.89542 190.0 492.0 190.0L498.0 190.0C499.10458 190.0 500.0 190.89543 500.0 192.0Z" fill-rule="nonzero"/><path fill="#ea4335" clip-path="url(#id_0)" d="M500.0 300.0L490.0 300.0L490.0 192.0C490.0 190.89543 490.89542 190.0 492.0 190.0L498.0 190.0C499.10458 190.0 500.0 190.89543 500.0 192.0Z" fill-rule="nonzero"/><path stroke="#000000" stroke-width="0.0" stroke-linecap="butt" stroke-opacity="0.0" clip-path="url(#id_0)" d="M552.0 300.0L542.0 300.0L542.0 196.0C542.0 194.89543 542.89545 194.0 544.0 194.0L550.0 194.0C551.10455 194.0 552.0 194.89543 552.0 196.0Z" fill-rule="nonzero"/><path fill="#ea4335" clip-path="url(#id_0)" d="M552.0 300.0L542.0 300.0L542.0 196.0C542.0 194.89543 542.89545 194.0 544.0 194.0L550.0 194.0C551.10455 194.0 552.0 194.89543 552.0 196.0Z" fill-rule="nonzero"/><path stroke="#000000" stroke-width="0.0" stroke-linecap="butt" stroke-opacity="0.0" clip-path="url(#id_0)" d="M97.0 300.0L87.0 300.0L87.0 181.0C87.0 179.89543 87.89543 179.0 89.0 179.0L95.0 179.0C96.10457 179.0 97.0 179.89543 97.0 181.0Z" fill-rule="nonzero"/><path fill="#fbbc04" clip-path="url(#id_0)" d="M97.0 300.0L87.0 300.0L87.0 181.0C87.0 179.89543 87.89543 179.0 89.0 179.0L95.0 179.0C96.10457 179.0 97.0 179.89543 97.0 181.0Z" fill-rule="nonzero"/><path stroke="#000000" stroke-width="0.0" stroke-linecap="butt" stroke-opacity="0.0" clip-path="url(#id_0)" d="M148.0 300.0L138.0 300.0L138.0 198.0C138.0 196.89543 138.89543 196.0 140.0 196.0L146.0 196.0C147.10457 196.0 148.0 196.89543 148.0 198.0Z" fill-rule="nonzero"/><path fill="#fbbc04" clip-path="url(#id_0)" d="M148.0 300.0L138.0 300.0L138.0 198.0C138.0 196.89543 138.89543 196.0 140.0 196.0L146.0 196.0C147.10457 196.0 148.0 196.89543 148.0 198.0Z" fill-rule="nonzero"/><path stroke="#000000" stroke-width="0.0" stroke-linecap="butt" stroke-opacity="0.0" clip-path="url(#id_0)" d="M200.0 300.0L190.0 300.0L190.0 198.0C190.0 196.89543 190.89543 196.0 192.0 196.0L198.0 196.0C199.10457 196.0 200.0 196.89543 200.0 198.0Z" fill-rule="nonzero"/><path fill="#fbbc04" clip-path="url(#id_0)" d="M200.0 300.0L190.0 300.0L190.0 198.0C190.0 196.89543 190.89543 196.0 192.0 196.0L198.0 196.0C199.10457 196.0 200.0 196.89543 200.0 198.0Z" fill-rule="nonzero"/><path stroke="#000000" stroke-width="0.0" stroke-linecap="butt" stroke-opacity="0.0" clip-path="url(#id_0)" d="M252.0 300.0L242.0 300.0L242.0 176.0C242.0 174.89543 242.89543 174.0 244.0 174.0L250.0 174.0C251.10457 174.0 252.0 174.89543 252.0 176.0Z" fill-rule="nonzero"/><path fill="#fbbc04" clip-path="url(#id_0)" d="M252.0 300.0L242.0 300.0L242.0 176.0C242.0 174.89543 242.89543 174.0 244.0 174.0L250.0 174.0C251.10457 174.0 252.0 174.89543 252.0 176.0Z" fill-rule="nonzero"/><path stroke="#000000" stroke-width="0.0" stroke-linecap="butt" stroke-opacity="0.0" clip-path="url(#id_0)" d="M304.0 300.0L294.0 300.0L294.0 203.0C294.0 201.89543 294.89542 201.0 296.0 201.0L302.0 201.0C303.10458 201.0 304.0 201.89543 304.0 203.0Z" fill-rule="nonzero"/><path fill="#fbbc04" clip-path="url(#id_0)" d="M304.0 300.0L294.0 300.0L294.0 203.0C294.0 201.89543 294.89542 201.0 296.0 201.0L302.0 201.0C303.10458 201.0 304.0 201.89543 304.0 203.0Z" fill-rule="nonzero"/><path stroke="#000000" stroke-width="0.0" stroke-linecap="butt" stroke-opacity="0.0" clip-path="url(#id_0)" d="M355.0 300.0L345.0 300.0L345.0 189.0C345.0 187.89543 345.89542 187.0 347.0 187.0L353.0 187.0C354.10458 187.0 355.0 187.89543 355.0 189.0Z" fill-rule="nonzero"/><path fill="#fbbc04" clip-path="url(#id_0)" d="M355.0 300.0L345.0 300.0L345.0 189.0C345.0 187.89543 345.89542 187.0 347.0 187.0L353.0 187.0C354.10458 187.0 355.0 187.89543 355.0 189.0Z" fill-rule="nonzero"/><path stroke="#000000" stroke-width="0.0" stroke-linecap="butt" stroke-opacity="0.0" clip-path="url(#id_0)" d="M407.0 300.0L397.0 300.0L397.0 202.0C397.0 200.89543 397.89542 200.0 399.0 200.0L405.0 200.0C406.10458 200.0 407.0 200.89543 407.0 202.0Z" fill-rule="nonzero"/><path fill="#fbbc04" clip-path="url(#id_0)" d="M407.0 300.0L397.0 300.0L397.0 202.0C397.0 200.89543 397.89542 200.0 399.0 200.0L405.0 200.0C406.10458 200.0 407.0 200.89543 407.0 202.0Z" fill-rule="nonzero"/><path stroke="#000000" stroke-width="0.0" stroke-linecap="butt" stroke-opacity="0.0" clip-path="url(#id_0)" d="M459.0 300.0L449.0 300.0L449.0 193.0C449.0 191.89543 449.89542 191.0 451.0 191.0L457.0 191.0C458.10458 191.0 459.0 191.89543 459.0 193.0Z" fill-rule="nonzero"/><path fill="#fbbc04" clip-path="url(#id_0)" d="M459.0 300.0L449.0 300.0L449.0 193.0C449.0 191.89543 449.89542 191.0 451.0 191.0L457.0 191.0C458.10458 191.0 459.0 191.89543 459.0 193.0Z" fill-rule="nonzero"/><path stroke="#000000" stroke-width="0.0" stroke-linecap="butt" stroke-opacity="0.0" clip-path="url(#id_0)" d="M511.0 300.0L501.0 300.0L501.0 192.0C501.0 190.89543 501.89542 190.0 503.0 190.0L509.0 190.0C510.10458 190.0 511.0 190.89543 511.0 192.0Z" fill-rule="nonzero"/><path fill="#fbbc04" clip-path="url(#id_0)" d="M511.0 300.0L501.0 300.0L501.0 192.0C501.0 190.89543 501.89542 190.0 503.0 190.0L509.0 190.0C510.10458 190.0 511.0 190.89543 511.0 192.0Z" fill-rule="nonzero"/><path stroke="#000000" stroke-width="0.0" stroke-linecap="butt" stroke-opacity="0.0" clip-path="url(#id_0)" d="M563.0 300.0L553.0 300.0L553.0 196.0C553.0 194.89543 553.89545 194.0 555.0 194.0L561.0 194.0C562.10455 194.0 563.0 194.89543 563.0 196.0Z" fill-rule="nonzero"/><path fill="#fbbc04" clip-path="url(#id_0)" d="M563.0 300.0L553.0 300.0L553.0 196.0C553.0 194.89543 553.89545 194.0 555.0 194.0L561.0 194.0C562.10455 194.0 563.0 194.89543 563.0 196.0Z" fill-rule="nonzero"/><path fill="#000000" d="M253.32812 349.45L253.32812 348.66876Q252.73438 349.59064 251.59375 349.59064Q250.84375 349.59064 250.21875 349.1844Q249.59375 348.7625 249.25 348.02814Q248.90625 347.29376 248.90625 346.34064Q248.90625 345.41876 249.21875 344.65314Q249.53125 343.8875 250.15625 343.4969Q250.78125 343.09064 251.54688 343.09064Q252.10938 343.09064 252.54688 343.325Q252.98438 343.5594 253.26562 343.9344L253.26562 340.85626L254.3125 340.85626L254.3125 349.45L253.32812 349.45ZM250.0 346.34064Q250.0 347.54376 250.5 348.1375Q251.0 348.71564 251.6875 348.71564Q252.375 348.71564 252.85938 348.15314Q253.34375 347.59064 253.34375 346.4344Q253.34375 345.15314 252.84375 344.5594Q252.35938 343.96564 251.64062 343.96564Q250.9375 343.96564 250.46875 344.54376Q250.0 345.10626 250.0 346.34064ZM260.54688 347.45L261.64062 347.575Q261.39062 348.52814 260.6875 349.0594Q259.98438 349.59064 258.90625 349.59064Q257.54688 349.59064 256.73438 348.7469Q255.9375 347.90314 255.9375 346.3875Q255.9375 344.825 256.75 343.96564Q257.5625 343.09064 258.84375 343.09064Q260.09375 343.09064 260.875 343.9344Q261.67188 344.77814 261.67188 346.325Q261.67188 346.41876 261.67188 346.60626L257.03125 346.60626Q257.09375 347.6375 257.60938 348.1844Q258.125 348.71564 258.90625 348.71564Q259.48438 348.71564 259.89062 348.41876Q260.3125 348.10626 260.54688 347.45ZM257.09375 345.7469L260.5625 345.7469Q260.5 344.95 260.17188 344.5594Q259.65625 343.95 258.85938 343.95Q258.125 343.95 257.625 344.4344Q257.14062 344.91876 257.09375 345.7469ZM263.29688 351.84064L263.29688 343.23126L264.25 343.23126L264.25 344.02814Q264.59375 343.5594 265.01562 343.325Q265.45312 343.09064 266.0625 343.09064Q266.85938 343.09064 267.46875 343.4969Q268.07812 343.90314 268.375 344.65314Q268.6875 345.40314 268.6875 346.29376Q268.6875 347.2469 268.34375 348.0125Q268.01562 348.77814 267.35938 349.1844Q266.70312 349.59064 265.98438 349.59064Q265.45312 349.59064 265.03125 349.3719Q264.60938 349.1375 264.34375 348.8094L264.34375 351.84064L263.29688 351.84064ZM264.25 346.3719Q264.25 347.575 264.73438 348.15314Q265.21875 348.71564 265.90625 348.71564Q266.60938 348.71564 267.10938 348.1219Q267.60938 347.52814 267.60938 346.27814Q267.60938 345.09064 267.125 344.5125Q266.64062 343.91876 265.95312 343.91876Q265.28125 343.91876 264.76562 344.54376Q264.25 345.16876 264.25 346.3719ZM273.42188 349.45L273.42188 340.85626L276.39062 340.85626Q277.39062 340.85626 277.92188 340.98126Q278.65625 341.15314 279.17188 341.59064Q279.85938 342.16876 280.1875 343.075Q280.53125 343.96564 280.53125 345.10626Q280.53125 346.09064 280.29688 346.84064Q280.07812 347.59064 279.71875 348.09064Q279.35938 348.59064 278.92188 348.8719Q278.5 349.15314 277.90625 349.3094Q277.3125 349.45 276.53125 349.45L273.42188 349.45ZM274.5625 348.4344L276.39062 348.4344Q277.25 348.4344 277.73438 348.27814Q278.21875 348.1219 278.5 347.825Q278.90625 347.4344 279.125 346.7469Q279.35938 346.0594 279.35938 345.09064Q279.35938 343.7469 278.90625 343.02814Q278.46875 342.29376 277.84375 342.04376Q277.375 341.8719 276.375 341.8719L274.5625 341.8719L274.5625 348.4344ZM281.48438 349.45L284.78125 340.85626L286.0 340.85626L289.51562 349.45L288.23438 349.45L287.21875 346.84064L283.64062 346.84064L282.6875 349.45L281.48438 349.45ZM283.96875 345.91876L286.875 345.91876L285.98438 343.54376Q285.5625 342.46564 285.375 341.7625Q285.20312 342.59064 284.90625 343.40314L283.96875 345.91876ZM292.875 347.59064L293.90625 347.4344Q294.0 348.0594 294.39062 348.3875Q294.79688 348.71564 295.53125 348.71564Q296.25 348.71564 296.59375 348.4344Q296.95312 348.1375 296.95312 347.73126Q296.95312 347.3719 296.64062 347.16876Q296.42188 347.02814 295.5625 346.8094Q294.40625 346.5125 293.95312 346.3094Q293.51562 346.09064 293.28125 345.71564Q293.04688 345.34064 293.04688 344.8719Q293.04688 344.46564 293.23438 344.10626Q293.42188 343.7469 293.75 343.5125Q294.0 343.34064 294.42188 343.21564Q294.84375 343.09064 295.34375 343.09064Q296.0625 343.09064 296.60938 343.3094Q297.17188 343.5125 297.4375 343.8719Q297.70312 344.23126 297.79688 344.825L296.76562 344.96564Q296.70312 344.4969 296.35938 344.23126Q296.03125 343.95 295.40625 343.95Q294.6875 343.95 294.375 344.2Q294.0625 344.4344 294.0625 344.7625Q294.0625 344.96564 294.1875 345.1219Q294.32812 345.29376 294.59375 345.40314Q294.75 345.46564 295.53125 345.66876Q296.65625 345.98126 297.09375 346.16876Q297.53125 346.35626 297.78125 346.71564Q298.03125 347.075 298.03125 347.6219Q298.03125 348.15314 297.71875 348.6219Q297.42188 349.075 296.84375 349.34064Q296.26562 349.59064 295.53125 349.59064Q294.3125 349.59064 293.67188 349.09064Q293.04688 348.575 292.875 347.59064ZM303.375 349.45L303.375 348.52814Q302.64062 349.59064 301.39062 349.59064Q300.84375 349.59064 300.35938 349.3875Q299.89062 349.16876 299.65625 348.85626Q299.42188 348.52814 299.32812 348.0594Q299.26562 347.7625 299.26562 347.075L299.26562 343.23126L300.32812 343.23126L300.32812 346.6844Q300.32812 347.4969 300.39062 347.79376Q300.48438 348.2 300.79688 348.45Q301.125 348.6844 301.60938 348.6844Q302.07812 348.6844 302.48438 348.45Q302.90625 348.2 303.07812 347.77814Q303.26562 347.35626 303.26562 346.5594L303.26562 343.23126L304.3125 343.23126L304.3125 349.45L303.375 349.45ZM306.29688 349.45L306.29688 343.23126L307.23438 343.23126L307.23438 344.10626Q307.53125 343.6375 308.01562 343.3719Q308.5 343.09064 309.125 343.09064Q309.8125 343.09064 310.25 343.3719Q310.70312 343.65314 310.875 344.16876Q311.625 343.09064 312.79688 343.09064Q313.73438 343.09064 314.21875 343.60626Q314.71875 344.10626 314.71875 345.1844L314.71875 349.45L313.67188 349.45L313.67188 345.52814Q313.67188 344.90314 313.5625 344.6219Q313.46875 344.34064 313.20312 344.16876Q312.9375 343.9969 312.5625 343.9969Q311.90625 343.9969 311.46875 344.4344Q311.04688 344.8719 311.04688 345.84064L311.04688 349.45L309.98438 349.45L309.98438 345.40314Q309.98438 344.7 309.71875 344.35626Q309.46875 343.9969 308.89062 343.9969Q308.4375 343.9969 308.0625 344.23126Q307.6875 344.46564 307.51562 344.91876Q307.34375 345.3719 307.34375 346.21564L307.34375 349.45L306.29688 349.45ZM316.29688 349.45L316.29688 343.23126L317.23438 343.23126L317.23438 344.10626Q317.53125 343.6375 318.01562 343.3719Q318.5 343.09064 319.125 343.09064Q319.8125 343.09064 320.25 343.3719Q320.70312 343.65314 320.875 344.16876Q321.625 343.09064 322.79688 343.09064Q323.73438 343.09064 324.21875 343.60626Q324.71875 344.10626 324.71875 345.1844L324.71875 349.45L323.67188 349.45L323.67188 345.52814Q323.67188 344.90314 323.5625 344.6219Q323.46875 344.34064 323.20312 344.16876Q322.9375 343.9969 322.5625 343.9969Q321.90625 343.9969 321.46875 344.4344Q321.04688 344.8719 321.04688 345.84064L321.04688 349.45L319.98438 349.45L319.98438 345.40314Q319.98438 344.7 319.71875 344.35626Q319.46875 343.9969 318.89062 343.9969Q318.4375 343.9969 318.0625 344.23126Q317.6875 344.46564 317.51562 344.91876Q317.34375 345.3719 317.34375 346.21564L317.34375 349.45L316.29688 349.45ZM330.35938 348.6844Q329.76562 349.1844 329.21875 349.3875Q328.6875 349.59064 328.0625 349.59064Q327.03125 349.59064 326.48438 349.09064Q325.9375 348.59064 325.9375 347.8094Q325.9375 347.35626 326.14062 346.98126Q326.34375 346.59064 326.6875 346.3719Q327.03125 346.1375 327.45312 346.02814Q327.75 345.9344 328.39062 345.85626Q329.65625 345.71564 330.26562 345.4969Q330.26562 345.27814 330.26562 345.23126Q330.26562 344.575 329.96875 344.3094Q329.5625 343.96564 328.76562 343.96564Q328.03125 343.96564 327.67188 344.23126Q327.3125 344.48126 327.14062 345.1375L326.10938 344.9969Q326.25 344.34064 326.57812 343.9344Q326.90625 343.52814 327.51562 343.3094Q328.125 343.09064 328.92188 343.09064Q329.71875 343.09064 330.21875 343.27814Q330.71875 343.46564 330.95312 343.7469Q331.1875 344.02814 331.28125 344.46564Q331.32812 344.73126 331.32812 345.4344L331.32812 346.84064Q331.32812 348.3094 331.39062 348.7Q331.46875 349.09064 331.67188 349.45L330.5625 349.45Q330.40625 349.1219 330.35938 348.6844ZM330.26562 346.325Q329.6875 346.5594 328.54688 346.73126Q327.89062 346.825 327.625 346.95Q327.35938 347.0594 327.20312 347.27814Q327.0625 347.4969 327.0625 347.77814Q327.0625 348.2 327.375 348.48126Q327.70312 348.7625 328.3125 348.7625Q328.92188 348.7625 329.39062 348.4969Q329.875 348.23126 330.09375 347.7625Q330.26562 347.40314 330.26562 346.71564L330.26562 346.325ZM333.28125 349.45L333.28125 343.23126L334.23438 343.23126L334.23438 344.16876Q334.59375 343.5125 334.89062 343.3094Q335.20312 343.09064 335.57812 343.09064Q336.10938 343.09064 336.65625 343.41876L336.29688 344.40314Q335.90625 344.16876 335.53125 344.16876Q335.17188 344.16876 334.89062 344.3875Q334.625 344.59064 334.51562 344.96564Q334.32812 345.52814 334.32812 346.1844L334.32812 349.45L333.28125 349.45ZM337.25 351.84064L337.125 350.85626Q337.46875 350.95 337.73438 350.95Q338.07812 350.95 338.28125 350.825Q338.5 350.71564 338.64062 350.5125Q338.73438 350.34064 338.96875 349.71564Q338.98438 349.6375 339.0625 349.46564L336.6875 343.23126L337.82812 343.23126L339.125 346.825Q339.375 347.5125 339.57812 348.27814Q339.76562 347.54376 340.01562 346.85626L341.34375 343.23126L342.39062 343.23126L340.03125 349.5594Q339.64062 350.575 339.4375 350.96564Q339.15625 351.4969 338.78125 351.73126Q338.42188 351.98126 337.92188 351.98126Q337.625 351.98126 337.25 351.84064ZM350.54688 347.45L351.64062 347.575Q351.39062 348.52814 350.6875 349.0594Q349.98438 349.59064 348.90625 349.59064Q347.54688 349.59064 346.73438 348.7469Q345.9375 347.90314 345.9375 346.3875Q345.9375 344.825 346.75 343.96564Q347.5625 343.09064 348.84375 343.09064Q350.09375 343.09064 350.875 343.9344Q351.67188 344.77814 351.67188 346.325Q351.67188 346.41876 351.67188 346.60626L347.03125 346.60626Q347.09375 347.6375 347.60938 348.1844Q348.125 348.71564 348.90625 348.71564Q349.48438 348.71564 349.89062 348.41876Q350.3125 348.10626 350.54688 347.45ZM347.09375 345.7469L350.5625 345.7469Q350.5 344.95 350.17188 344.5594Q349.65625 343.95 348.85938 343.95Q348.125 343.95 347.625 344.4344Q347.14062 344.91876 347.09375 345.7469ZM355.01562 349.45L352.65625 343.23126L353.76562 343.23126L355.10938 346.95Q355.3125 347.5594 355.5 348.2Q355.64062 347.71564 355.89062 347.02814L357.28125 343.23126L358.35938 343.23126L356.0 349.45L355.01562 349.45ZM363.35938 348.6844Q362.76562 349.1844 362.21875 349.3875Q361.6875 349.59064 361.0625 349.59064Q360.03125 349.59064 359.48438 349.09064Q358.9375 348.59064 358.9375 347.8094Q358.9375 347.35626 359.14062 346.98126Q359.34375 346.59064 359.6875 346.3719Q360.03125 346.1375 360.45312 346.02814Q360.75 345.9344 361.39062 345.85626Q362.65625 345.71564 363.26562 345.4969Q363.26562 345.27814 363.26562 345.23126Q363.26562 344.575 362.96875 344.3094Q362.5625 343.96564 361.76562 343.96564Q361.03125 343.96564 360.67188 344.23126Q360.3125 344.48126 360.14062 345.1375L359.10938 344.9969Q359.25 344.34064 359.57812 343.9344Q359.90625 343.52814 360.51562 343.3094Q361.125 343.09064 361.92188 343.09064Q362.71875 343.09064 363.21875 343.27814Q363.71875 343.46564 363.95312 343.7469Q364.1875 344.02814 364.28125 344.46564Q364.32812 344.73126 364.32812 345.4344L364.32812 346.84064Q364.32812 348.3094 364.39062 348.7Q364.46875 349.09064 364.67188 349.45L363.5625 349.45Q363.40625 349.1219 363.35938 348.6844ZM363.26562 346.325Q362.6875 346.5594 361.54688 346.73126Q360.89062 346.825 360.625 346.95Q360.35938 347.0594 360.20312 347.27814Q360.0625 347.4969 360.0625 347.77814Q360.0625 348.2 360.375 348.48126Q360.70312 348.7625 361.3125 348.7625Q361.92188 348.7625 362.39062 348.4969Q362.875 348.23126 363.09375 347.7625Q363.26562 347.40314 363.26562 346.71564L363.26562 346.325ZM366.26562 349.45L366.26562 340.85626L367.32812 340.85626L367.32812 349.45L366.26562 349.45ZM370.26562 349.45L369.28125 349.45L369.28125 340.85626L370.34375 340.85626L370.34375 343.91876Q371.01562 343.09064 372.04688 343.09064Q372.625 343.09064 373.125 343.325Q373.64062 343.54376 373.96875 343.96564Q374.3125 344.3875 374.5 344.98126Q374.6875 345.575 374.6875 346.2469Q374.6875 347.84064 373.89062 348.71564Q373.09375 349.59064 372.0 349.59064Q370.89062 349.59064 370.26562 348.66876L370.26562 349.45ZM370.25 346.29376Q370.25 347.40314 370.5625 347.90314Q371.0625 348.71564 371.90625 348.71564Q372.59375 348.71564 373.09375 348.1219Q373.60938 347.52814 373.60938 346.325Q373.60938 345.10626 373.125 344.52814Q372.64062 343.95 371.95312 343.95Q371.26562 343.95 370.75 344.5594Q370.25 345.15314 370.25 346.29376ZM376.57812 344.4344L376.57812 343.23126L377.78125 343.23126L377.78125 344.4344L376.57812 344.4344ZM376.57812 349.45L376.57812 348.2469L377.78125 348.2469L377.78125 349.45L376.57812 349.45Z" fill-rule="nonzero"/><path fill="#000000" d="M33.05 300.21564Q33.05 298.6844 33.3625 297.7625Q33.675 296.825 34.284374 296.325Q34.909374 295.825 35.846874 295.825Q36.534374 295.825 37.05 296.10626Q37.58125 296.3875 37.925 296.91876Q38.26875 297.4344 38.45625 298.1844Q38.64375 298.9344 38.64375 300.21564Q38.64375 301.73126 38.33125 302.65314Q38.034374 303.575 37.409374 304.09064Q36.8 304.59064 35.846874 304.59064Q34.6125 304.59064 33.89375 303.7Q33.05 302.6375 33.05 300.21564ZM34.128124 300.21564Q34.128124 302.325 34.628124 303.02814Q35.128124 303.73126 35.846874 303.73126Q36.58125 303.73126 37.065624 303.02814Q37.565624 302.325 37.565624 300.21564Q37.565624 298.09064 37.065624 297.40314Q36.58125 296.7 35.83125 296.7Q35.1125 296.7 34.675 297.3094Q34.128124 298.09064 34.128124 300.21564Z" fill-rule="nonzero"/><path fill="#000000" d="M31.596874 250.39272L31.596874 251.40834L25.909374 251.40834Q25.909374 251.03334 26.034374 250.67397Q26.253124 250.09584 26.721874 249.53334Q27.20625 248.97084 28.1125 248.23647Q29.51875 247.08022 30.003124 246.40834Q30.503124 245.73647 30.503124 245.14272Q30.503124 244.51772 30.05 244.09584Q29.596874 243.65834 28.878124 243.65834Q28.1125 243.65834 27.659374 244.11147Q27.20625 244.56459 27.190624 245.37709L26.1125 245.26772Q26.221874 244.04897 26.940624 243.42397Q27.675 242.78334 28.909374 242.78334Q30.14375 242.78334 30.8625 243.47084Q31.58125 244.15834 31.58125 245.17397Q31.58125 245.68959 31.3625 246.18959Q31.159374 246.67397 30.659374 247.23647Q30.175 247.78334 29.05 248.73647Q28.096874 249.53334 27.815624 249.83022Q27.55 250.11147 27.378124 250.39272L31.596874 250.39272ZM33.05 249.15834L34.159374 249.06459Q34.284374 249.87709 34.721874 250.28334Q35.175 250.68959 35.815624 250.68959Q36.565624 250.68959 37.096874 250.11147Q37.628124 249.53334 37.628124 248.59584Q37.628124 247.68959 37.1125 247.17397Q36.6125 246.64272 35.784374 246.64272Q35.284374 246.64272 34.8625 246.87709Q34.45625 247.11147 34.221874 247.47084L33.2375 247.34584L34.065624 242.93959L38.346874 242.93959L38.346874 243.93959L34.909374 243.93959L34.45625 246.25209Q35.221874 245.70522 36.065624 245.70522Q37.190624 245.70522 37.95625 246.48647Q38.7375 247.26772 38.7375 248.50209Q38.7375 249.65834 38.065624 250.51772Q37.2375 251.54897 35.815624 251.54897Q34.64375 251.54897 33.89375 250.89272Q33.159374 250.23647 33.05 249.15834Z" fill-rule="nonzero"/><path fill="#000000" d="M26.05 196.11667L27.159374 196.02292Q27.284374 196.83542 27.721874 197.24167Q28.175 197.64792 28.815624 197.64792Q29.565624 197.64792 30.096874 197.0698Q30.628124 196.49167 30.628124 195.55417Q30.628124 194.64792 30.1125 194.1323Q29.6125 193.60104 28.784374 193.60104Q28.284374 193.60104 27.8625 193.83542Q27.45625 194.0698 27.221874 194.42917L26.2375 194.30417L27.065624 189.89792L31.346874 189.89792L31.346874 190.89792L27.909374 190.89792L27.45625 193.21042Q28.221874 192.66354 29.065624 192.66354Q30.190624 192.66354 30.95625 193.4448Q31.7375 194.22604 31.7375 195.46042Q31.7375 196.61667 31.065624 197.47604Q30.2375 198.5073 28.815624 198.5073Q27.64375 198.5073 26.89375 197.85104Q26.159374 197.1948 26.05 196.11667ZM33.05 194.1323Q33.05 192.60104 33.3625 191.67917Q33.675 190.74167 34.284374 190.24167Q34.909374 189.74167 35.846874 189.74167Q36.534374 189.74167 37.05 190.02292Q37.58125 190.30417 37.925 190.83542Q38.26875 191.35104 38.45625 192.10104Q38.64375 192.85104 38.64375 194.1323Q38.64375 195.64792 38.33125 196.5698Q38.034374 197.49167 37.409374 198.0073Q36.8 198.5073 35.846874 198.5073Q34.6125 198.5073 33.89375 197.61667Q33.05 196.55417 33.05 194.1323ZM34.128124 194.1323Q34.128124 196.24167 34.628124 196.9448Q35.128124 197.64792 35.846874 197.64792Q36.58125 197.64792 37.065624 196.9448Q37.565624 196.24167 37.565624 194.1323Q37.565624 192.0073 37.065624 191.3198Q36.58125 190.61667 35.83125 190.61667Q35.1125 190.61667 34.675 191.22604Q34.128124 192.0073 34.128124 194.1323Z" fill-rule="nonzero"/><path fill="#000000" d="M26.1125 137.85625L26.1125 136.84062L31.675 136.84062L31.675 137.66875Q30.8625 138.54375 30.05 139.99687Q29.253124 141.43437 28.815624 142.96562Q28.4875 144.04375 28.409374 145.325L27.315624 145.325Q27.33125 144.30937 27.70625 142.87187Q28.096874 141.43437 28.8 140.10625Q29.51875 138.77812 30.33125 137.85625L26.1125 137.85625ZM33.05 143.075L34.159374 142.98125Q34.284374 143.79375 34.721874 144.2Q35.175 144.60625 35.815624 144.60625Q36.565624 144.60625 37.096874 144.02812Q37.628124 143.45 37.628124 142.5125Q37.628124 141.60625 37.1125 141.09062Q36.6125 140.55937 35.784374 140.55937Q35.284374 140.55937 34.8625 140.79375Q34.45625 141.02812 34.221874 141.3875L33.2375 141.2625L34.065624 136.85625L38.346874 136.85625L38.346874 137.85625L34.909374 137.85625L34.45625 140.16875Q35.221874 139.62187 36.065624 139.62187Q37.190624 139.62187 37.95625 140.40312Q38.7375 141.18437 38.7375 142.41875Q38.7375 143.575 38.065624 144.43437Q37.2375 145.46562 35.815624 145.46562Q34.64375 145.46562 33.89375 144.80937Q33.159374 144.15312 33.05 143.075Z" fill-rule="nonzero"/><path fill="#000000" d="M23.01875 92.28333L21.971874 92.28333L21.971874 85.56458Q21.58125 85.92396 20.95625 86.29896Q20.346874 86.65833 19.8625 86.83021L19.8625 85.81458Q20.7375 85.39271 21.39375 84.81458Q22.065624 84.22083 22.346874 83.65833L23.01875 83.65833L23.01875 92.28333ZM26.05 88.04896Q26.05 86.51771 26.3625 85.59583Q26.675 84.65833 27.284374 84.15833Q27.909374 83.65833 28.846874 83.65833Q29.534374 83.65833 30.05 83.93958Q30.58125 84.22083 30.925 84.75208Q31.26875 85.26771 31.45625 86.01771Q31.64375 86.76771 31.64375 88.04896Q31.64375 89.56458 31.33125 90.48646Q31.034374 91.40833 30.409374 91.92396Q29.8 92.42396 28.846874 92.42396Q27.6125 92.42396 26.89375 91.53333Q26.05 90.47083 26.05 88.04896ZM27.128124 88.04896Q27.128124 90.15833 27.628124 90.86146Q28.128124 91.56458 28.846874 91.56458Q29.58125 91.56458 30.065624 90.86146Q30.565624 90.15833 30.565624 88.04896Q30.565624 85.92396 30.065624 85.23646Q29.58125 84.53333 28.83125 84.53333Q28.1125 84.53333 27.675 85.14271Q27.128124 85.92396 27.128124 88.04896ZM33.05 88.04896Q33.05 86.51771 33.3625 85.59583Q33.675 84.65833 34.284374 84.15833Q34.909374 83.65833 35.846874 83.65833Q36.534374 83.65833 37.05 83.93958Q37.58125 84.22083 37.925 84.75208Q38.26875 85.26771 38.45625 86.01771Q38.64375 86.76771 38.64375 88.04896Q38.64375 89.56458 38.33125 90.48646Q38.034374 91.40833 37.409374 91.92396Q36.8 92.42396 35.846874 92.42396Q34.6125 92.42396 33.89375 91.53333Q33.05 90.47083 33.05 88.04896ZM34.128124 88.04896Q34.128124 90.15833 34.628124 90.86146Q35.128124 91.56458 35.846874 91.56458Q36.58125 91.56458 37.065624 90.86146Q37.565624 90.15833 37.565624 88.04896Q37.565624 85.92396 37.065624 85.23646Q36.58125 84.53333 35.83125 84.53333Q35.1125 84.53333 34.675 85.14271Q34.128124 85.92396 34.128124 88.04896Z" fill-rule="nonzero"/><path fill="#000000" d="M66.546875 317.45L66.546875 312.04376L65.609375 312.04376L65.609375 311.23126L66.546875 311.23126L66.546875 310.5594Q66.546875 309.9344 66.65625 309.6375Q66.8125 309.21564 67.1875 308.96564Q67.578125 308.71564 68.265625 308.71564Q68.71875 308.71564 69.25 308.825L69.09375 309.73126Q68.765625 309.6844 68.46875 309.6844Q67.984375 309.6844 67.78125 309.8875Q67.59375 310.09064 67.59375 310.65314L67.59375 311.23126L68.8125 311.23126L68.8125 312.04376L67.59375 312.04376L67.59375 317.45L66.546875 317.45ZM68.90625 314.34064Q68.90625 312.60626 69.859375 311.77814Q70.65625 311.09064 71.8125 311.09064Q73.09375 311.09064 73.90625 311.9344Q74.734375 312.7625 74.734375 314.2469Q74.734375 315.45 74.375 316.1375Q74.015625 316.825 73.3125 317.21564Q72.625 317.59064 71.8125 317.59064Q70.515625 317.59064 69.703125 316.7625Q68.90625 315.91876 68.90625 314.34064ZM69.984375 314.34064Q69.984375 315.52814 70.5 316.1219Q71.03125 316.71564 71.8125 316.71564Q72.609375 316.71564 73.125 316.1219Q73.640625 315.52814 73.640625 314.3094Q73.640625 313.15314 73.109375 312.5594Q72.59375 311.96564 71.8125 311.96564Q71.03125 311.96564 70.5 312.5594Q69.984375 313.1375 69.984375 314.34064ZM76.265625 317.45L76.265625 308.85626L77.328125 308.85626L77.328125 317.45L76.265625 317.45ZM83.328125 317.45L83.328125 316.66876Q82.734375 317.59064 81.59375 317.59064Q80.84375 317.59064 80.21875 317.1844Q79.59375 316.7625 79.25 316.02814Q78.90625 315.29376 78.90625 314.34064Q78.90625 313.41876 79.21875 312.65314Q79.53125 311.8875 80.15625 311.4969Q80.78125 311.09064 81.546875 311.09064Q82.109375 311.09064 82.546875 311.325Q82.984375 311.5594 83.265625 311.9344L83.265625 308.85626L84.3125 308.85626L84.3125 317.45L83.328125 317.45ZM80.0 314.34064Q80.0 315.54376 80.5 316.1375Q81.0 316.71564 81.6875 316.71564Q82.375 316.71564 82.859375 316.15314Q83.34375 315.59064 83.34375 314.4344Q83.34375 313.15314 82.84375 312.5594Q82.359375 311.96564 81.640625 311.96564Q80.9375 311.96564 80.46875 312.54376Q80.0 313.10626 80.0 314.34064ZM92.96875 317.45L91.921875 317.45L91.921875 310.73126Q91.53125 311.09064 90.90625 311.46564Q90.296875 311.825 89.8125 311.9969L89.8125 310.98126Q90.6875 310.5594 91.34375 309.98126Q92.015625 309.3875 92.296875 308.825L92.96875 308.825L92.96875 317.45Z" fill-rule="nonzero"/><path fill="#000000" d="M118.32465 317.45L118.32465 312.04376L117.38715 312.04376L117.38715 311.23126L118.32465 311.23126L118.32465 310.5594Q118.32465 309.9344 118.43403 309.6375Q118.59028 309.21564 118.96528 308.96564Q119.3559 308.71564 120.0434 308.71564Q120.49653 308.71564 121.02778 308.825L120.87153 309.73126Q120.5434 309.6844 120.24653 309.6844Q119.76215 309.6844 119.55903 309.8875Q119.37153 310.09064 119.37153 310.65314L119.37153 311.23126L120.59028 311.23126L120.59028 312.04376L119.37153 312.04376L119.37153 317.45L118.32465 317.45ZM120.68403 314.34064Q120.68403 312.60626 121.63715 311.77814Q122.43403 311.09064 123.59028 311.09064Q124.87153 311.09064 125.68403 311.9344Q126.51215 312.7625 126.51215 314.2469Q126.51215 315.45 126.15278 316.1375Q125.7934 316.825 125.09028 317.21564Q124.40278 317.59064 123.59028 317.59064Q122.2934 317.59064 121.4809 316.7625Q120.68403 315.91876 120.68403 314.34064ZM121.76215 314.34064Q121.76215 315.52814 122.27778 316.1219Q122.80903 316.71564 123.59028 316.71564Q124.38715 316.71564 124.90278 316.1219Q125.4184 315.52814 125.4184 314.3094Q125.4184 313.15314 124.88715 312.5594Q124.37153 311.96564 123.59028 311.96564Q122.80903 311.96564 122.27778 312.5594Q121.76215 313.1375 121.76215 314.34064ZM128.0434 317.45L128.0434 308.85626L129.1059 308.85626L129.1059 317.45L128.0434 317.45ZM135.1059 317.45L135.1059 316.66876Q134.51215 317.59064 133.37152 317.59064Q132.62152 317.59064 131.99652 317.1844Q131.37152 316.7625 131.02777 316.02814Q130.68402 315.29376 130.68402 314.34064Q130.68402 313.41876 130.99652 312.65314Q131.30902 311.8875 131.93402 311.4969Q132.55902 311.09064 133.32465 311.09064Q133.88715 311.09064 134.32465 311.325Q134.76215 311.5594 135.0434 311.9344L135.0434 308.85626L136.09027 308.85626L136.09027 317.45L135.1059 317.45ZM131.77777 314.34064Q131.77777 315.54376 132.27777 316.1375Q132.77777 316.71564 133.46527 316.71564Q134.15277 316.71564 134.63715 316.15314Q135.12152 315.59064 135.12152 314.4344Q135.12152 313.15314 134.62152 312.5594Q134.13715 311.96564 133.4184 311.96564Q132.71527 311.96564 132.24652 312.54376Q131.77777 313.10626 131.77777 314.34064ZM146.32465 316.4344L146.32465 317.45L140.63715 317.45Q140.63715 317.075 140.76215 316.71564Q140.9809 316.1375 141.44965 315.575Q141.93402 315.0125 142.84027 314.27814Q144.24652 313.1219 144.7309 312.45Q145.2309 311.77814 145.2309 311.1844Q145.2309 310.5594 144.77777 310.1375Q144.32465 309.7 143.6059 309.7Q142.84027 309.7 142.38715 310.15314Q141.93402 310.60626 141.9184 311.41876L140.84027 311.3094Q140.94965 310.09064 141.6684 309.46564Q142.40277 308.825 143.63715 308.825Q144.87152 308.825 145.59027 309.5125Q146.30902 310.2 146.30902 311.21564Q146.30902 311.73126 146.09027 312.23126Q145.88715 312.71564 145.38715 313.27814Q144.90277 313.825 143.77777 314.77814Q142.82465 315.575 142.5434 315.8719Q142.27777 316.15314 142.1059 316.4344L146.32465 316.4344Z" fill-rule="nonzero"/><path fill="#000000" d="M170.10243 317.45L170.10243 312.04376L169.16493 312.04376L169.16493 311.23126L170.10243 311.23126L170.10243 310.5594Q170.10243 309.9344 170.2118 309.6375Q170.36806 309.21564 170.74306 308.96564Q171.13368 308.71564 171.82118 308.71564Q172.2743 308.71564 172.80556 308.825L172.6493 309.73126Q172.32118 309.6844 172.0243 309.6844Q171.53993 309.6844 171.3368 309.8875Q171.1493 310.09064 171.1493 310.65314L171.1493 311.23126L172.36806 311.23126L172.36806 312.04376L171.1493 312.04376L171.1493 317.45L170.10243 317.45ZM172.4618 314.34064Q172.4618 312.60626 173.41493 311.77814Q174.2118 311.09064 175.36806 311.09064Q176.6493 311.09064 177.4618 311.9344Q178.28993 312.7625 178.28993 314.2469Q178.28993 315.45 177.93056 316.1375Q177.57118 316.825 176.86806 317.21564Q176.18056 317.59064 175.36806 317.59064Q174.07118 317.59064 173.25868 316.7625Q172.4618 315.91876 172.4618 314.34064ZM173.53993 314.34064Q173.53993 315.52814 174.05556 316.1219Q174.5868 316.71564 175.36806 316.71564Q176.16493 316.71564 176.68056 316.1219Q177.19618 315.52814 177.19618 314.3094Q177.19618 313.15314 176.66493 312.5594Q176.1493 311.96564 175.36806 311.96564Q174.5868 311.96564 174.05556 312.5594Q173.53993 313.1375 173.53993 314.34064ZM179.82118 317.45L179.82118 308.85626L180.88368 308.85626L180.88368 317.45L179.82118 317.45ZM186.88368 317.45L186.88368 316.66876Q186.28993 317.59064 185.1493 317.59064Q184.3993 317.59064 183.7743 317.1844Q183.1493 316.7625 182.80556 316.02814Q182.4618 315.29376 182.4618 314.34064Q182.4618 313.41876 182.7743 312.65314Q183.0868 311.8875 183.7118 311.4969Q184.3368 311.09064 185.10243 311.09064Q185.66493 311.09064 186.10243 311.325Q186.53993 311.5594 186.82118 311.9344L186.82118 308.85626L187.86806 308.85626L187.86806 317.45L186.88368 317.45ZM183.55556 314.34064Q183.55556 315.54376 184.05556 316.1375Q184.55556 316.71564 185.24306 316.71564Q185.93056 316.71564 186.41493 316.15314Q186.8993 315.59064 186.8993 314.4344Q186.8993 313.15314 186.3993 312.5594Q185.91493 311.96564 185.19618 311.96564Q184.49306 311.96564 184.0243 312.54376Q183.55556 313.10626 183.55556 314.34064ZM192.55556 315.1844L193.61806 315.04376Q193.78993 315.9344 194.22743 316.34064Q194.66493 316.73126 195.28993 316.73126Q196.03993 316.73126 196.55556 316.21564Q197.07118 315.7 197.07118 314.9344Q197.07118 314.21564 196.5868 313.7469Q196.11806 313.2625 195.38368 313.2625Q195.0868 313.2625 194.63368 313.3875L194.75868 312.45Q194.86806 312.46564 194.93056 312.46564Q195.60243 312.46564 196.13368 312.1219Q196.68056 311.7625 196.68056 311.02814Q196.68056 310.45 196.28993 310.075Q195.8993 309.6844 195.2743 309.6844Q194.66493 309.6844 194.24306 310.075Q193.8368 310.46564 193.72743 311.23126L192.66493 311.04376Q192.85243 309.9969 193.53993 309.41876Q194.22743 308.825 195.24306 308.825Q195.94618 308.825 196.53993 309.1375Q197.13368 309.4344 197.44618 309.95Q197.75868 310.46564 197.75868 311.0594Q197.75868 311.60626 197.4618 312.075Q197.16493 312.52814 196.5868 312.79376Q197.3368 312.96564 197.75868 313.52814Q198.18056 314.075 198.18056 314.91876Q198.18056 316.04376 197.35243 316.825Q196.53993 317.60626 195.28993 317.60626Q194.16493 317.60626 193.41493 316.9344Q192.66493 316.2469 192.55556 315.1844Z" fill-rule="nonzero"/><path fill="#000000" d="M221.8802 317.45L221.8802 312.04376L220.9427 312.04376L220.9427 311.23126L221.8802 311.23126L221.8802 310.5594Q221.8802 309.9344 221.98958 309.6375Q222.14583 309.21564 222.52083 308.96564Q222.91145 308.71564 223.59895 308.71564Q224.05208 308.71564 224.58333 308.825L224.42708 309.73126Q224.09895 309.6844 223.80208 309.6844Q223.3177 309.6844 223.11458 309.8875Q222.92708 310.09064 222.92708 310.65314L222.92708 311.23126L224.14583 311.23126L224.14583 312.04376L222.92708 312.04376L222.92708 317.45L221.8802 317.45ZM224.23958 314.34064Q224.23958 312.60626 225.1927 311.77814Q225.98958 311.09064 227.14583 311.09064Q228.42708 311.09064 229.23958 311.9344Q230.0677 312.7625 230.0677 314.2469Q230.0677 315.45 229.70833 316.1375Q229.34895 316.825 228.64583 317.21564Q227.95833 317.59064 227.14583 317.59064Q225.84895 317.59064 225.03645 316.7625Q224.23958 315.91876 224.23958 314.34064ZM225.3177 314.34064Q225.3177 315.52814 225.83333 316.1219Q226.36458 316.71564 227.14583 316.71564Q227.9427 316.71564 228.45833 316.1219Q228.97395 315.52814 228.97395 314.3094Q228.97395 313.15314 228.4427 312.5594Q227.92708 311.96564 227.14583 311.96564Q226.36458 311.96564 225.83333 312.5594Q225.3177 313.1375 225.3177 314.34064ZM231.59895 317.45L231.59895 308.85626L232.66145 308.85626L232.66145 317.45L231.59895 317.45ZM238.66145 317.45L238.66145 316.66876Q238.0677 317.59064 236.92708 317.59064Q236.17708 317.59064 235.55208 317.1844Q234.92708 316.7625 234.58333 316.02814Q234.23958 315.29376 234.23958 314.34064Q234.23958 313.41876 234.55208 312.65314Q234.86458 311.8875 235.48958 311.4969Q236.11458 311.09064 236.8802 311.09064Q237.4427 311.09064 237.8802 311.325Q238.3177 311.5594 238.59895 311.9344L238.59895 308.85626L239.64583 308.85626L239.64583 317.45L238.66145 317.45ZM235.33333 314.34064Q235.33333 315.54376 235.83333 316.1375Q236.33333 316.71564 237.02083 316.71564Q237.70833 316.71564 238.1927 316.15314Q238.67708 315.59064 238.67708 314.4344Q238.67708 313.15314 238.17708 312.5594Q237.6927 311.96564 236.97395 311.96564Q236.27083 311.96564 235.80208 312.54376Q235.33333 313.10626 235.33333 314.34064ZM247.70833 317.45L247.70833 315.3875L243.98958 315.3875L243.98958 314.41876L247.91145 308.85626L248.77083 308.85626L248.77083 314.41876L249.92708 314.41876L249.92708 315.3875L248.77083 315.3875L248.77083 317.45L247.70833 317.45ZM247.70833 314.41876L247.70833 310.5594L245.02083 314.41876L247.70833 314.41876Z" fill-rule="nonzero"/><path fill="#000000" d="M273.658 317.45L273.658 312.04376L272.7205 312.04376L272.7205 311.23126L273.658 311.23126L273.658 310.5594Q273.658 309.9344 273.76736 309.6375Q273.9236 309.21564 274.2986 308.96564Q274.68924 308.71564 275.37674 308.71564Q275.82986 308.71564 276.3611 308.825L276.20486 309.73126Q275.87674 309.6844 275.57986 309.6844Q275.0955 309.6844 274.89236 309.8875Q274.70486 310.09064 274.70486 310.65314L274.70486 311.23126L275.9236 311.23126L275.9236 312.04376L274.70486 312.04376L274.70486 317.45L273.658 317.45ZM276.01736 314.34064Q276.01736 312.60626 276.9705 311.77814Q277.76736 311.09064 278.9236 311.09064Q280.20486 311.09064 281.01736 311.9344Q281.8455 312.7625 281.8455 314.2469Q281.8455 315.45 281.4861 316.1375Q281.12674 316.825 280.4236 317.21564Q279.7361 317.59064 278.9236 317.59064Q277.62674 317.59064 276.81424 316.7625Q276.01736 315.91876 276.01736 314.34064ZM277.0955 314.34064Q277.0955 315.52814 277.6111 316.1219Q278.14236 316.71564 278.9236 316.71564Q279.7205 316.71564 280.2361 316.1219Q280.75174 315.52814 280.75174 314.3094Q280.75174 313.15314 280.2205 312.5594Q279.70486 311.96564 278.9236 311.96564Q278.14236 311.96564 277.6111 312.5594Q277.0955 313.1375 277.0955 314.34064ZM283.37674 317.45L283.37674 308.85626L284.43924 308.85626L284.43924 317.45L283.37674 317.45ZM290.43924 317.45L290.43924 316.66876Q289.8455 317.59064 288.70486 317.59064Q287.95486 317.59064 287.32986 317.1844Q286.70486 316.7625 286.3611 316.02814Q286.01736 315.29376 286.01736 314.34064Q286.01736 313.41876 286.32986 312.65314Q286.64236 311.8875 287.26736 311.4969Q287.89236 311.09064 288.658 311.09064Q289.2205 311.09064 289.658 311.325Q290.0955 311.5594 290.37674 311.9344L290.37674 308.85626L291.4236 308.85626L291.4236 317.45L290.43924 317.45ZM287.1111 314.34064Q287.1111 315.54376 287.6111 316.1375Q288.1111 316.71564 288.7986 316.71564Q289.4861 316.71564 289.9705 316.15314Q290.45486 315.59064 290.45486 314.4344Q290.45486 313.15314 289.95486 312.5594Q289.4705 311.96564 288.75174 311.96564Q288.0486 311.96564 287.57986 312.54376Q287.1111 313.10626 287.1111 314.34064ZM296.1111 315.2L297.2205 315.10626Q297.3455 315.91876 297.783 316.325Q298.2361 316.73126 298.87674 316.73126Q299.62674 316.73126 300.158 316.15314Q300.68924 315.575 300.68924 314.6375Q300.68924 313.73126 300.1736 313.21564Q299.6736 312.6844 298.8455 312.6844Q298.3455 312.6844 297.9236 312.91876Q297.51736 313.15314 297.283 313.5125L296.2986 313.3875L297.12674 308.98126L301.408 308.98126L301.408 309.98126L297.9705 309.98126L297.51736 312.29376Q298.283 311.7469 299.12674 311.7469Q300.25174 311.7469 301.01736 312.52814Q301.7986 313.3094 301.7986 314.54376Q301.7986 315.7 301.12674 316.5594Q300.2986 317.59064 298.87674 317.59064Q297.70486 317.59064 296.95486 316.9344Q296.2205 316.27814 296.1111 315.2Z" fill-rule="nonzero"/><path fill="#000000" d="M325.43576 317.45L325.43576 312.04376L324.49826 312.04376L324.49826 311.23126L325.43576 311.23126L325.43576 310.5594Q325.43576 309.9344 325.54514 309.6375Q325.7014 309.21564 326.0764 308.96564Q326.467 308.71564 327.1545 308.71564Q327.60764 308.71564 328.1389 308.825L327.98264 309.73126Q327.6545 309.6844 327.35764 309.6844Q326.87326 309.6844 326.67014 309.8875Q326.48264 310.09064 326.48264 310.65314L326.48264 311.23126L327.7014 311.23126L327.7014 312.04376L326.48264 312.04376L326.48264 317.45L325.43576 317.45ZM327.79514 314.34064Q327.79514 312.60626 328.74826 311.77814Q329.54514 311.09064 330.7014 311.09064Q331.98264 311.09064 332.79514 311.9344Q333.62326 312.7625 333.62326 314.2469Q333.62326 315.45 333.2639 316.1375Q332.9045 316.825 332.2014 317.21564Q331.5139 317.59064 330.7014 317.59064Q329.4045 317.59064 328.592 316.7625Q327.79514 315.91876 327.79514 314.34064ZM328.87326 314.34064Q328.87326 315.52814 329.3889 316.1219Q329.92014 316.71564 330.7014 316.71564Q331.49826 316.71564 332.0139 316.1219Q332.5295 315.52814 332.5295 314.3094Q332.5295 313.15314 331.99826 312.5594Q331.48264 311.96564 330.7014 311.96564Q329.92014 311.96564 329.3889 312.5594Q328.87326 313.1375 328.87326 314.34064ZM335.1545 317.45L335.1545 308.85626L336.217 308.85626L336.217 317.45L335.1545 317.45ZM342.217 317.45L342.217 316.66876Q341.62326 317.59064 340.48264 317.59064Q339.73264 317.59064 339.10764 317.1844Q338.48264 316.7625 338.1389 316.02814Q337.79514 315.29376 337.79514 314.34064Q337.79514 313.41876 338.10764 312.65314Q338.42014 311.8875 339.04514 311.4969Q339.67014 311.09064 340.43576 311.09064Q340.99826 311.09064 341.43576 311.325Q341.87326 311.5594 342.1545 311.9344L342.1545 308.85626L343.2014 308.85626L343.2014 317.45L342.217 317.45ZM338.8889 314.34064Q338.8889 315.54376 339.3889 316.1375Q339.8889 316.71564 340.5764 316.71564Q341.2639 316.71564 341.74826 316.15314Q342.23264 315.59064 342.23264 314.4344Q342.23264 313.15314 341.73264 312.5594Q341.24826 311.96564 340.5295 311.96564Q339.8264 311.96564 339.35764 312.54376Q338.8889 313.10626 338.8889 314.34064ZM353.35764 310.96564L352.31076 311.04376Q352.17014 310.41876 351.92014 310.1375Q351.48264 309.6844 350.85764 309.6844Q350.35764 309.6844 349.967 309.96564Q349.48264 310.34064 349.18576 311.04376Q348.9045 311.73126 348.8889 313.0125Q349.2639 312.4344 349.81076 312.15314Q350.37326 311.8719 350.98264 311.8719Q352.0295 311.8719 352.7639 312.65314Q353.5139 313.4344 353.5139 314.65314Q353.5139 315.46564 353.1545 316.16876Q352.81076 316.85626 352.2014 317.23126Q351.592 317.59064 350.8264 317.59064Q349.49826 317.59064 348.67014 316.6219Q347.842 315.65314 347.842 313.4344Q347.842 310.9344 348.7639 309.8094Q349.56076 308.825 350.92014 308.825Q351.93576 308.825 352.5764 309.40314Q353.23264 309.96564 353.35764 310.96564ZM349.06076 314.66876Q349.06076 315.21564 349.2795 315.71564Q349.5139 316.2 349.92014 316.46564Q350.342 316.73126 350.81076 316.73126Q351.467 316.73126 351.9514 316.2Q352.43576 315.65314 352.43576 314.73126Q352.43576 313.84064 351.9514 313.325Q351.48264 312.8094 350.7639 312.8094Q350.04514 312.8094 349.54514 313.325Q349.06076 313.84064 349.06076 314.66876Z" fill-rule="nonzero"/><path fill="#000000" d="M377.21353 317.45L377.21353 312.04376L376.27603 312.04376L376.27603 311.23126L377.21353 311.23126L377.21353 310.5594Q377.21353 309.9344 377.3229 309.6375Q377.47916 309.21564 377.85416 308.96564Q378.24478 308.71564 378.93228 308.71564Q379.3854 308.71564 379.91666 308.825L379.7604 309.73126Q379.43228 309.6844 379.1354 309.6844Q378.65103 309.6844 378.4479 309.8875Q378.2604 310.09064 378.2604 310.65314L378.2604 311.23126L379.47916 311.23126L379.47916 312.04376L378.2604 312.04376L378.2604 317.45L377.21353 317.45ZM379.5729 314.34064Q379.5729 312.60626 380.52603 311.77814Q381.3229 311.09064 382.47916 311.09064Q383.7604 311.09064 384.5729 311.9344Q385.40103 312.7625 385.40103 314.2469Q385.40103 315.45 385.04166 316.1375Q384.68228 316.825 383.97916 317.21564Q383.29166 317.59064 382.47916 317.59064Q381.18228 317.59064 380.36978 316.7625Q379.5729 315.91876 379.5729 314.34064ZM380.65103 314.34064Q380.65103 315.52814 381.16666 316.1219Q381.6979 316.71564 382.47916 316.71564Q383.27603 316.71564 383.79166 316.1219Q384.30728 315.52814 384.30728 314.3094Q384.30728 313.15314 383.77603 312.5594Q383.2604 311.96564 382.47916 311.96564Q381.6979 311.96564 381.16666 312.5594Q380.65103 313.1375 380.65103 314.34064ZM386.93228 317.45L386.93228 308.85626L387.99478 308.85626L387.99478 317.45L386.93228 317.45ZM393.99478 317.45L393.99478 316.66876Q393.40103 317.59064 392.2604 317.59064Q391.5104 317.59064 390.8854 317.1844Q390.2604 316.7625 389.91666 316.02814Q389.5729 315.29376 389.5729 314.34064Q389.5729 313.41876 389.8854 312.65314Q390.1979 311.8875 390.8229 311.4969Q391.4479 311.09064 392.21353 311.09064Q392.77603 311.09064 393.21353 311.325Q393.65103 311.5594 393.93228 311.9344L393.93228 308.85626L394.97916 308.85626L394.97916 317.45L393.99478 317.45ZM390.66666 314.34064Q390.66666 315.54376 391.16666 316.1375Q391.66666 316.71564 392.35416 316.71564Q393.04166 316.71564 393.52603 316.15314Q394.0104 315.59064 394.0104 314.4344Q394.0104 313.15314 393.5104 312.5594Q393.02603 311.96564 392.30728 311.96564Q391.60416 311.96564 391.1354 312.54376Q390.66666 313.10626 390.66666 314.34064ZM399.72916 309.98126L399.72916 308.96564L405.29166 308.96564L405.29166 309.79376Q404.47916 310.66876 403.66666 312.1219Q402.86978 313.5594 402.43228 315.09064Q402.10416 316.16876 402.02603 317.45L400.93228 317.45Q400.9479 316.4344 401.3229 314.9969Q401.71353 313.5594 402.41666 312.23126Q403.1354 310.90314 403.9479 309.98126L399.72916 309.98126Z" fill-rule="nonzero"/><path fill="#000000" d="M428.99133 317.45L428.99133 312.04376L428.05383 312.04376L428.05383 311.23126L428.99133 311.23126L428.99133 310.5594Q428.99133 309.9344 429.1007 309.6375Q429.25696 309.21564 429.63196 308.96564Q430.02258 308.71564 430.71008 308.71564Q431.1632 308.71564 431.69446 308.825L431.5382 309.73126Q431.21008 309.6844 430.9132 309.6844Q430.42883 309.6844 430.2257 309.8875Q430.0382 310.09064 430.0382 310.65314L430.0382 311.23126L431.25696 311.23126L431.25696 312.04376L430.0382 312.04376L430.0382 317.45L428.99133 317.45ZM431.3507 314.34064Q431.3507 312.60626 432.30383 311.77814Q433.1007 311.09064 434.25696 311.09064Q435.5382 311.09064 436.3507 311.9344Q437.17883 312.7625 437.17883 314.2469Q437.17883 315.45 436.81946 316.1375Q436.46008 316.825 435.75696 317.21564Q435.06946 317.59064 434.25696 317.59064Q432.96008 317.59064 432.14758 316.7625Q431.3507 315.91876 431.3507 314.34064ZM432.42883 314.34064Q432.42883 315.52814 432.94446 316.1219Q433.4757 316.71564 434.25696 316.71564Q435.05383 316.71564 435.56946 316.1219Q436.08508 315.52814 436.08508 314.3094Q436.08508 313.15314 435.55383 312.5594Q435.0382 311.96564 434.25696 311.96564Q433.4757 311.96564 432.94446 312.5594Q432.42883 313.1375 432.42883 314.34064ZM438.71008 317.45L438.71008 308.85626L439.77258 308.85626L439.77258 317.45L438.71008 317.45ZM445.77258 317.45L445.77258 316.66876Q445.17883 317.59064 444.0382 317.59064Q443.2882 317.59064 442.6632 317.1844Q442.0382 316.7625 441.69446 316.02814Q441.3507 315.29376 441.3507 314.34064Q441.3507 313.41876 441.6632 312.65314Q441.9757 311.8875 442.6007 311.4969Q443.2257 311.09064 443.99133 311.09064Q444.55383 311.09064 444.99133 311.325Q445.42883 311.5594 445.71008 311.9344L445.71008 308.85626L446.75696 308.85626L446.75696 317.45L445.77258 317.45ZM442.44446 314.34064Q442.44446 315.54376 442.94446 316.1375Q443.44446 316.71564 444.13196 316.71564Q444.81946 316.71564 445.30383 316.15314Q445.7882 315.59064 445.7882 314.4344Q445.7882 313.15314 445.2882 312.5594Q444.80383 311.96564 444.08508 311.96564Q443.38196 311.96564 442.9132 312.54376Q442.44446 313.10626 442.44446 314.34064ZM453.06946 312.79376Q452.4132 312.54376 452.08508 312.10626Q451.77258 311.65314 451.77258 311.04376Q451.77258 310.10626 452.44446 309.46564Q453.13196 308.825 454.24133 308.825Q455.36633 308.825 456.05383 309.48126Q456.74133 310.1375 456.74133 311.075Q456.74133 311.66876 456.42883 312.10626Q456.11633 312.54376 455.4757 312.79376Q456.27258 313.04376 456.67883 313.6219Q457.08508 314.2 457.08508 314.9969Q457.08508 316.09064 456.30383 316.84064Q455.5382 317.59064 454.25696 317.59064Q452.99133 317.59064 452.21008 316.84064Q451.42883 316.09064 451.42883 314.96564Q451.42883 314.1219 451.8507 313.5594Q452.2882 312.9969 453.06946 312.79376ZM452.8507 310.9969Q452.8507 311.60626 453.24133 311.9969Q453.64758 312.3875 454.27258 312.3875Q454.88196 312.3875 455.27258 312.0125Q455.6632 311.6219 455.6632 311.0594Q455.6632 310.48126 455.25696 310.09064Q454.8507 309.6844 454.25696 309.6844Q453.64758 309.6844 453.24133 310.075Q452.8507 310.46564 452.8507 310.9969ZM452.52258 314.96564Q452.52258 315.41876 452.7257 315.84064Q452.94446 316.2625 453.36633 316.4969Q453.7882 316.73126 454.27258 316.73126Q455.02258 316.73126 455.50696 316.2469Q456.00696 315.7625 456.00696 315.0125Q456.00696 314.2469 455.50696 313.7469Q455.00696 313.2469 454.24133 313.2469Q453.49133 313.2469 453.00696 313.7469Q452.52258 314.23126 452.52258 314.96564Z" fill-rule="nonzero"/><path fill="#000000" d="M480.7691 317.45L480.7691 312.04376L479.8316 312.04376L479.8316 311.23126L480.7691 311.23126L480.7691 310.5594Q480.7691 309.9344 480.87848 309.6375Q481.03473 309.21564 481.40973 308.96564Q481.80035 308.71564 482.48785 308.71564Q482.94098 308.71564 483.47223 308.825L483.31598 309.73126Q482.98785 309.6844 482.69098 309.6844Q482.2066 309.6844 482.00348 309.8875Q481.81598 310.09064 481.81598 310.65314L481.81598 311.23126L483.03473 311.23126L483.03473 312.04376L481.81598 312.04376L481.81598 317.45L480.7691 317.45ZM483.12848 314.34064Q483.12848 312.60626 484.0816 311.77814Q484.87848 311.09064 486.03473 311.09064Q487.31598 311.09064 488.12848 311.9344Q488.9566 312.7625 488.9566 314.2469Q488.9566 315.45 488.59723 316.1375Q488.23785 316.825 487.53473 317.21564Q486.84723 317.59064 486.03473 317.59064Q484.73785 317.59064 483.92535 316.7625Q483.12848 315.91876 483.12848 314.34064ZM484.2066 314.34064Q484.2066 315.52814 484.72223 316.1219Q485.25348 316.71564 486.03473 316.71564Q486.8316 316.71564 487.34723 316.1219Q487.86285 315.52814 487.86285 314.3094Q487.86285 313.15314 487.3316 312.5594Q486.81598 311.96564 486.03473 311.96564Q485.25348 311.96564 484.72223 312.5594Q484.2066 313.1375 484.2066 314.34064ZM490.48785 317.45L490.48785 308.85626L491.55035 308.85626L491.55035 317.45L490.48785 317.45ZM497.55035 317.45L497.55035 316.66876Q496.9566 317.59064 495.81598 317.59064Q495.06598 317.59064 494.44098 317.1844Q493.81598 316.7625 493.47223 316.02814Q493.12848 315.29376 493.12848 314.34064Q493.12848 313.41876 493.44098 312.65314Q493.75348 311.8875 494.37848 311.4969Q495.00348 311.09064 495.7691 311.09064Q496.3316 311.09064 496.7691 311.325Q497.2066 311.5594 497.48785 311.9344L497.48785 308.85626L498.53473 308.85626L498.53473 317.45L497.55035 317.45ZM494.22223 314.34064Q494.22223 315.54376 494.72223 316.1375Q495.22223 316.71564 495.90973 316.71564Q496.59723 316.71564 497.0816 316.15314Q497.56598 315.59064 497.56598 314.4344Q497.56598 313.15314 497.06598 312.5594Q496.5816 311.96564 495.86285 311.96564Q495.15973 311.96564 494.69098 312.54376Q494.22223 313.10626 494.22223 314.34064ZM503.37848 315.46564L504.3941 315.3719Q504.5191 316.09064 504.87848 316.41876Q505.25348 316.73126 505.81598 316.73126Q506.30035 316.73126 506.65973 316.5125Q507.03473 316.27814 507.2691 315.91876Q507.50348 315.54376 507.65973 314.91876Q507.81598 314.27814 507.81598 313.6219Q507.81598 313.54376 507.81598 313.40314Q507.50348 313.90314 506.9566 314.23126Q506.40973 314.54376 505.7691 314.54376Q504.69098 314.54376 503.9566 313.77814Q503.22223 312.9969 503.22223 311.73126Q503.22223 310.41876 503.98785 309.6219Q504.7691 308.825 505.92535 308.825Q506.75348 308.825 507.44098 309.27814Q508.1441 309.73126 508.50348 310.575Q508.86285 311.40314 508.86285 312.98126Q508.86285 314.6219 508.50348 315.60626Q508.15973 316.575 507.44098 317.09064Q506.73785 317.59064 505.80035 317.59064Q504.78473 317.59064 504.1441 317.04376Q503.50348 316.48126 503.37848 315.46564ZM507.69098 311.66876Q507.69098 310.7625 507.2066 310.23126Q506.73785 309.7 506.05035 309.7Q505.34723 309.7 504.81598 310.27814Q504.30035 310.84064 504.30035 311.7625Q504.30035 312.575 504.80035 313.09064Q505.30035 313.60626 506.0191 313.60626Q506.75348 313.60626 507.22223 313.09064Q507.69098 312.575 507.69098 311.66876Z" fill-rule="nonzero"/><path fill="#000000" d="M529.0469 317.45L529.0469 312.04376L528.1094 312.04376L528.1094 311.23126L529.0469 311.23126L529.0469 310.5594Q529.0469 309.9344 529.15625 309.6375Q529.3125 309.21564 529.6875 308.96564Q530.0781 308.71564 530.7656 308.71564Q531.21875 308.71564 531.75 308.825L531.59375 309.73126Q531.2656 309.6844 530.96875 309.6844Q530.4844 309.6844 530.28125 309.8875Q530.09375 310.09064 530.09375 310.65314L530.09375 311.23126L531.3125 311.23126L531.3125 312.04376L530.09375 312.04376L530.09375 317.45L529.0469 317.45ZM531.40625 314.34064Q531.40625 312.60626 532.3594 311.77814Q533.15625 311.09064 534.3125 311.09064Q535.59375 311.09064 536.40625 311.9344Q537.2344 312.7625 537.2344 314.2469Q537.2344 315.45 536.875 316.1375Q536.5156 316.825 535.8125 317.21564Q535.125 317.59064 534.3125 317.59064Q533.0156 317.59064 532.2031 316.7625Q531.40625 315.91876 531.40625 314.34064ZM532.4844 314.34064Q532.4844 315.52814 533.0 316.1219Q533.53125 316.71564 534.3125 316.71564Q535.1094 316.71564 535.625 316.1219Q536.1406 315.52814 536.1406 314.3094Q536.1406 313.15314 535.6094 312.5594Q535.09375 311.96564 534.3125 311.96564Q533.53125 311.96564 533.0 312.5594Q532.4844 313.1375 532.4844 314.34064ZM538.7656 317.45L538.7656 308.85626L539.8281 308.85626L539.8281 317.45L538.7656 317.45ZM545.8281 317.45L545.8281 316.66876Q545.2344 317.59064 544.09375 317.59064Q543.34375 317.59064 542.71875 317.1844Q542.09375 316.7625 541.75 316.02814Q541.40625 315.29376 541.40625 314.34064Q541.40625 313.41876 541.71875 312.65314Q542.03125 311.8875 542.65625 311.4969Q543.28125 311.09064 544.0469 311.09064Q544.6094 311.09064 545.0469 311.325Q545.4844 311.5594 545.7656 311.9344L545.7656 308.85626L546.8125 308.85626L546.8125 317.45L545.8281 317.45ZM542.5 314.34064Q542.5 315.54376 543.0 316.1375Q543.5 316.71564 544.1875 316.71564Q544.875 316.71564 545.3594 316.15314Q545.84375 315.59064 545.84375 314.4344Q545.84375 313.15314 545.34375 312.5594Q544.8594 311.96564 544.1406 311.96564Q543.4375 311.96564 542.96875 312.54376Q542.5 313.10626 542.5 314.34064ZM555.46875 317.45L554.4219 317.45L554.4219 310.73126Q554.03125 311.09064 553.40625 311.46564Q552.7969 311.825 552.3125 311.9969L552.3125 310.98126Q553.1875 310.5594 553.84375 309.98126Q554.5156 309.3875 554.7969 308.825L555.46875 308.825L555.46875 317.45ZM558.5 313.21564Q558.5 311.6844 558.8125 310.7625Q559.125 309.825 559.7344 309.325Q560.3594 308.825 561.2969 308.825Q561.9844 308.825 562.5 309.10626Q563.03125 309.3875 563.375 309.91876Q563.71875 310.4344 563.90625 311.1844Q564.09375 311.9344 564.09375 313.21564Q564.09375 314.73126 563.78125 315.65314Q563.4844 316.575 562.8594 317.09064Q562.25 317.59064 561.2969 317.59064Q560.0625 317.59064 559.34375 316.7Q558.5 315.6375 558.5 313.21564ZM559.5781 313.21564Q559.5781 315.325 560.0781 316.02814Q560.5781 316.73126 561.2969 316.73126Q562.03125 316.73126 562.5156 316.02814Q563.0156 315.325 563.0156 313.21564Q563.0156 311.09064 562.5156 310.40314Q562.03125 309.7 561.28125 309.7Q560.5625 309.7 560.125 310.3094Q559.5781 311.09064 559.5781 313.21564Z" fill-rule="nonzero"/><path fill="#4285f4" d="M231.5 56.916668C231.5 56.364384 231.94771 55.916668 232.5 55.916668L242.5 55.916668C243.05229 55.916668 243.5 56.364384 243.5 56.916668L243.5 66.916664C243.5 67.46895 243.05229 67.916664 242.5 67.916664L232.5 67.916664C231.94771 67.916664 231.5 67.46895 231.5 66.916664Z" fill-rule="nonzero"/><path fill="#1a1a1a" d="M252.375 65.916664L252.375 57.322914L253.51562 57.322914L253.51562 64.90104L257.75 64.90104L257.75 65.916664L252.375 65.916664ZM259.42188 65.916664L259.42188 57.322914L262.67188 57.322914Q263.51562 57.322914 263.96875 57.40104Q264.60938 57.510414 265.03125 57.80729Q265.46875 58.104164 265.71875 58.635414Q265.98438 59.166664 265.98438 59.80729Q265.98438 60.90104 265.28125 61.666664Q264.59375 62.416664 262.76562 62.416664L260.5625 62.416664L260.5625 65.916664L259.42188 65.916664ZM260.5625 61.416664L262.78125 61.416664Q263.89062 61.416664 264.34375 61.010414Q264.8125 60.58854 264.8125 59.83854Q264.8125 59.30729 264.53125 58.93229Q264.26562 58.541664 263.82812 58.416664Q263.53125 58.33854 262.76562 58.33854L260.5625 58.33854L260.5625 61.416664Z" fill-rule="nonzero"/><path fill="#ea4335" d="M282.5 56.916668C282.5 56.364384 282.94772 55.916668 283.5 55.916668L293.5 55.916668C294.05228 55.916668 294.5 56.364384 294.5 56.916668L294.5 66.916664C294.5 67.46895 294.05228 67.916664 293.5 67.916664L283.5 67.916664C282.94772 67.916664 282.5 67.46895 282.5 66.916664Z" fill-rule="nonzero"/><path fill="#1a1a1a" d="M303.375 65.916664L303.375 57.322914L304.51562 57.322914L304.51562 64.90104L308.75 64.90104L308.75 65.916664L303.375 65.916664ZM310.4375 65.916664L310.4375 57.322914L314.25 57.322914Q315.40625 57.322914 316.0 57.55729Q316.59375 57.791664 316.95312 58.385414Q317.3125 58.96354 317.3125 59.666664Q317.3125 60.58854 316.71875 61.21354Q316.125 61.83854 314.89062 62.010414Q315.34375 62.229164 315.57812 62.43229Q316.07812 62.885414 316.51562 63.572914L318.01562 65.916664L316.57812 65.916664L315.45312 64.135414Q314.95312 63.354164 314.625 62.947914Q314.3125 62.541664 314.04688 62.385414Q313.79688 62.21354 313.53125 62.135414Q313.34375 62.104164 312.90625 62.104164L311.57812 62.104164L311.57812 65.916664L310.4375 65.916664ZM311.57812 61.11979L314.03125 61.11979Q314.79688 61.11979 315.23438 60.96354Q315.6875 60.791664 315.90625 60.447914Q316.14062 60.08854 316.14062 59.666664Q316.14062 59.05729 315.6875 58.666664Q315.25 58.27604 314.29688 58.27604L311.57812 58.27604L311.57812 61.11979Z" fill-rule="nonzero"/><path fill="#fbbc04" d="M334.5 56.916668C334.5 56.364384 334.94772 55.916668 335.5 55.916668L345.5 55.916668C346.05228 55.916668 346.5 56.364384 346.5 56.916668L346.5 66.916664C346.5 67.46895 346.05228 67.916664 345.5 67.916664L335.5 67.916664C334.94772 67.916664 334.5 67.46895 334.5 66.916664Z" fill-rule="nonzero"/><path fill="#1a1a1a" d="M355.48438 65.916664L355.48438 57.322914L361.28125 57.322914L361.28125 58.33854L356.625 58.33854L356.625 60.99479L360.65625 60.99479L360.65625 62.010414L356.625 62.010414L356.625 65.916664L355.48438 65.916664ZM365.96875 65.916664L364.92188 65.916664L364.92188 59.197914Q364.53125 59.55729 363.90625 59.93229Q363.29688 60.291664 362.8125 60.46354L362.8125 59.447914Q363.6875 59.02604 364.34375 58.447914Q365.01562 57.854164 365.29688 57.291664L365.96875 57.291664L365.96875 65.916664Z" fill-rule="nonzero"/><path fill="#757575" d="M26.596874 37.55L26.596874 36.2375Q25.6125 37.784374 23.690624 37.784374Q22.45625 37.784374 21.409374 37.096874Q20.378124 36.409374 19.8 35.190624Q19.2375 33.971874 19.2375 32.378124Q19.2375 30.815624 19.753124 29.55Q20.26875 28.284374 21.3 27.6125Q22.346874 26.940624 23.6125 26.940624Q24.55 26.940624 25.284374 27.346874Q26.01875 27.7375 26.4875 28.3625L26.4875 23.2375L28.221874 23.2375L28.221874 37.55L26.596874 37.55ZM21.034374 32.378124Q21.034374 34.3625 21.878124 35.346874Q22.721874 36.33125 23.8625 36.33125Q25.01875 36.33125 25.815624 35.39375Q26.628124 34.45625 26.628124 32.51875Q26.628124 30.39375 25.8 29.39375Q24.9875 28.39375 23.784374 28.39375Q22.6125 28.39375 21.815624 29.3625Q21.034374 30.315624 21.034374 32.378124ZM37.971874 34.20625L39.784374 34.440624Q39.3625 36.01875 38.190624 36.909374Q37.034374 37.784374 35.221874 37.784374Q32.95625 37.784374 31.6125 36.39375Q30.284374 34.9875 30.284374 32.45625Q30.284374 29.83125 31.628124 28.39375Q32.971874 26.940624 35.128124 26.940624Q37.20625 26.940624 38.51875 28.3625Q39.846874 29.76875 39.846874 32.346874Q39.846874 32.503124 39.83125 32.815624L32.096874 32.815624Q32.190624 34.51875 33.065624 35.425Q33.940624 36.33125 35.2375 36.33125Q36.20625 36.33125 36.878124 35.83125Q37.565624 35.315624 37.971874 34.20625ZM32.190624 31.3625L37.9875 31.3625Q37.878124 30.065624 37.33125 29.409374Q36.4875 28.39375 35.14375 28.39375Q33.940624 28.39375 33.1125 29.20625Q32.284374 30.003124 32.190624 31.3625ZM41.8625 41.51875L41.8625 27.175L43.471874 27.175L43.471874 28.51875Q44.034374 27.7375 44.7375 27.346874Q45.45625 26.940624 46.471874 26.940624Q47.8 26.940624 48.815624 27.628124Q49.83125 28.315624 50.346874 29.565624Q50.878124 30.8 50.878124 32.284374Q50.878124 33.878124 50.3 35.159374Q49.7375 36.425 48.64375 37.1125Q47.55 37.784374 46.346874 37.784374Q45.471874 37.784374 44.76875 37.409374Q44.08125 37.034374 43.628124 36.471874L43.628124 41.51875L41.8625 41.51875ZM43.45625 32.425Q43.45625 34.425 44.26875 35.378124Q45.08125 36.33125 46.2375 36.33125Q47.409374 36.33125 48.2375 35.346874Q49.08125 34.3625 49.08125 32.26875Q49.08125 30.3 48.253124 29.315624Q47.440624 28.315624 46.315624 28.315624Q45.190624 28.315624 44.315624 29.378124Q43.45625 30.425 43.45625 32.425ZM59.096874 37.55L59.096874 23.2375L64.01875 23.2375Q65.69063 23.2375 66.58125 23.440624Q67.8 23.721874 68.675 24.45625Q69.8 25.425 70.3625 26.909374Q70.925 28.39375 70.925 30.315624Q70.925 31.940624 70.55 33.20625Q70.175 34.45625 69.56563 35.284374Q68.97188 36.1125 68.26875 36.596874Q67.56563 37.065624 66.56563 37.315624Q65.56563 37.55 64.25313 37.55L59.096874 37.55ZM60.9875 35.8625L64.05 35.8625Q65.45625 35.8625 66.25313 35.596874Q67.06563 35.33125 67.55 34.846874Q68.22188 34.175 68.59688 33.05Q68.97188 31.909374 68.97188 30.284374Q68.97188 28.034374 68.2375 26.83125Q67.50313 25.628124 66.44063 25.221874Q65.69063 24.925 64.00313 24.925L60.9875 24.925L60.9875 35.8625ZM71.51875 37.55L77.01875 23.2375L79.06563 23.2375L84.925 37.55L82.76875 37.55L81.09688 33.20625L75.1125 33.20625L73.53438 37.55L71.51875 37.55ZM75.65938 31.675L80.50313 31.675L79.01875 27.70625Q78.33125 25.89375 78.00313 24.7375Q77.72188 26.1125 77.22188 27.471874L75.65938 31.675Z" fill-rule="nonzero"/></svg>