<svg version="1.1" viewBox="0.0 0.0 600.0 371.0" fill="none" stroke="none" stroke-linecap="square" stroke-miterlimit="10" width="600" height="371" xmlns:xlink="http://www.w3.org/1999/xlink" xmlns="http://www.w3.org/2000/svg"><path fill="#ffffff" d="M0 0L600.0 0L600.0 371.0L0 371.0L0 0Z" fill-rule="nonzero"/><path stroke="#333333" stroke-width="1.0" stroke-linecap="butt" d="M45.5 300.5L581.5 300.5" fill-rule="nonzero"/><path stroke="#cccccc" stroke-width="1.0" stroke-linecap="butt" d="M45.5 247.5L581.5 247.5" fill-rule="nonzero"/><path stroke="#cccccc" stroke-width="1.0" stroke-linecap="butt" d="M45.5 194.5L581.5 194.5" fill-rule="nonzero"/><path stroke="#cccccc" stroke-width="1.0" stroke-linecap="butt" d="M45.5 141.5L581.5 141.5" fill-rule="nonzero"/><path stroke="#cccccc" stroke-width="1.0" stroke-linecap="butt" d="M45.5 88.5L581.5 88.5" fill-rule="nonzero"/><clipPath id="id_0"><path d="M45.55 88.28333L581.45 88.28333L581.45 300.45L45.55 300.45L45.55 88.28333Z" clip-rule="nonzero"/></clipPath><path stroke="#000000" stroke-width="0.0" stroke-linecap="butt" stroke-opacity="0.0" clip-path="url(#id_0)" d="M75.0 300.0L65.0 300.0L65.0 206.0C65.0 204.89543 65.89543 204.0 67.0 204.0L73.0 204.0C74.10457 204.0 75.0 204.89543 75.0 206.0Z" fill-rule="nonzero"/><path fill="#4285f4" clip-path="url(#id_0)" d="M75.0 300.0L65.0 300.0L65.0 206.0C65.0 204.89543 65.89543 204.0 67.0 204.0L73.0 204.0C74.10457 204.0 75.0 204.89543 75.0 206.0Z" fill-rule="nonzero"/><path stroke="#000000" stroke-width="0.0" stroke-linecap="butt" stroke-opacity="0.0" clip-path="url(#id_0)" d="M126.0 300.0L116.0 300.0L116.0 211.0C116.0 209.89543 116.89543 209.0 118.0 209.0L124.0 209.0C125.10457 209.0 126.0 209.89543 126.0 211.0Z" fill-rule="nonzero"/><path fill="#4285f4" clip-path="url(#id_0)" d="M126.0 300.0L116.0 300.0L116.0 211.0C116.0 209.89543 116.89543 209.0 118.0 209.0L124.0 209.0C125.10457 209.0 126.0 209.89543 126.0 211.0Z" fill-rule="nonzero"/><path stroke="#000000" stroke-width="0.0" stroke-linecap="butt" stroke-opacity="0.0" clip-path="url(#id_0)" d="M178.0 300.0L168.0 300.0L168.0 218.0C168.0 216.89543 168.89543 216.0 170.0 216.0L176.0 216.0C177.10457 216.0 178.0 216.89543 178.0 218.0Z" fill-rule="nonzero"/><path fill="#4285f4" clip-path="url(#id_0)" d="M178.0 300.0L168.0 300.0L168.0 218.0C168.0 216.89543 168.89543 216.0 170.0 216.0L176.0 216.0C177.10457 216.0 178.0 216.89543 178.0 218.0Z" fill-rule="nonzero"/><path stroke="#000000" stroke-width="0.0" stroke-linecap="butt" stroke-opacity="0.0" clip-path="url(#id_0)" d="M230.0 300.0L220.0 300.0L220.0 210.0C220.0 208.89543 220.89543 208.0 222.0 208.0L228.0 208.0C229.10457 208.0 230.0 208.89543 230.0 210.0Z" fill-rule="nonzero"/><path fill="#4285f4" clip-path="url(#id_0)" d="M230.0 300.0L220.0 300.0L220.0 210.0C220.0 208.89543 220.89543 208.0 222.0 208.0L228.0 208.0C229.10457 208.0 230.0 208.89543 230.0 210.0Z" fill-rule="nonzero"/><path stroke="#000000" stroke-width="0.0" stroke-linecap="butt" stroke-opacity="0.0" clip-path="url(#id_0)" d="M282.0 300.0L272.0 300.0L272.0 214.0C272.0 212.89543 272.89542 212.0 274.0 212.0L280.0 212.0C281.10458 212.0 282.0 212.89543 282.0 214.0Z" fill-rule="nonzero"/><path fill="#4285f4" clip-path="url(#id_0)" d="M282.0 300.0L272.0 300.0L272.0 214.0C272.0 212.89543 272.89542 212.0 274.0 212.0L280.0 212.0C281.10458 212.0 282.0 212.89543 282.0 214.0Z" fill-rule="nonzero"/><path stroke="#000000" stroke-width="0.0" stroke-linecap="butt" stroke-opacity="0.0" clip-path="url(#id_0)" d="M333.0 300.0L323.0 300.0L323.0 215.0C323.0 213.89543 323.89542 213.0 325.0 213.0L331.0 213.0C332.10458 213.0 333.0 213.89543 333.0 215.0Z" fill-rule="nonzero"/><path fill="#4285f4" clip-path="url(#id_0)" d="M333.0 300.0L323.0 300.0L323.0 215.0C323.0 213.89543 323.89542 213.0 325.0 213.0L331.0 213.0C332.10458 213.0 333.0 213.89543 333.0 215.0Z" fill-rule="nonzero"/><path stroke="#000000" stroke-width="0.0" stroke-linecap="butt" stroke-opacity="0.0" clip-path="url(#id_0)" d="M385.0 300.0L375.0 300.0L375.0 208.0C375.0 206.89543 375.89542 206.0 377.0 206.0L383.0 206.0C384.10458 206.0 385.0 206.89543 385.0 208.0Z" fill-rule="nonzero"/><path fill="#4285f4" clip-path="url(#id_0)" d="M385.0 300.0L375.0 300.0L375.0 208.0C375.0 206.89543 375.89542 206.0 377.0 206.0L383.0 206.0C384.10458 206.0 385.0 206.89543 385.0 208.0Z" fill-rule="nonzero"/><path stroke="#000000" stroke-width="0.0" stroke-linecap="butt" stroke-opacity="0.0" clip-path="url(#id_0)" d="M437.0 300.0L427.0 300.0L427.0 214.0C427.0 212.89543 427.89542 212.0 429.0 212.0L435.0 212.0C436.10458 212.0 437.0 212.89543 437.0 214.0Z" fill-rule="nonzero"/><path fill="#4285f4" clip-path="url(#id_0)" d="M437.0 300.0L427.0 300.0L427.0 214.0C427.0 212.89543 427.89542 212.0 429.0 212.0L435.0 212.0C436.10458 212.0 437.0 212.89543 437.0 214.0Z" fill-rule="nonzero"/><path stroke="#000000" stroke-width="0.0" stroke-linecap="butt" stroke-opacity="0.0" clip-path="url(#id_0)" d="M489.0 300.0L479.0 300.0L479.0 220.0C479.0 218.89543 479.89542 218.0 481.0 218.0L487.0 218.0C488.10458 218.0 489.0 218.89543 489.0 220.0Z" fill-rule="nonzero"/><path fill="#4285f4" clip-path="url(#id_0)" d="M489.0 300.0L479.0 300.0L479.0 220.0C479.0 218.89543 479.89542 218.0 481.0 218.0L487.0 218.0C488.10458 218.0 489.0 218.89543 489.0 220.0Z" fill-rule="nonzero"/><path stroke="#000000" stroke-width="0.0" stroke-linecap="butt" stroke-opacity="0.0" clip-path="url(#id_0)" d="M541.0 300.0L531.0 300.0L531.0 218.0C531.0 216.89543 531.89545 216.0 533.0 216.0L539.0 216.0C540.10455 216.0 541.0 216.89543 541.0 218.0Z" fill-rule="nonzero"/><path fill="#4285f4" clip-path="url(#id_0)" d="M541.0 300.0L531.0 300.0L531.0 218.0C531.0 216.89543 531.89545 216.0 533.0 216.0L539.0 216.0C540.10455 216.0 541.0 216.89543 541.0 218.0Z" fill-rule="nonzero"/><path stroke="#000000" stroke-width="0.0" stroke-linecap="butt" stroke-opacity="0.0" clip-path="url(#id_0)" d="M86.0 300.0L76.0 300.0L76.0 207.0C76.0 205.89543 76.89543 205.0 78.0 205.0L84.0 205.0C85.10457 205.0 86.0 205.89543 86.0 207.0Z" fill-rule="nonzero"/><path fill="#ea4335" clip-path="url(#id_0)" d="M86.0 300.0L76.0 300.0L76.0 207.0C76.0 205.89543 76.89543 205.0 78.0 205.0L84.0 205.0C85.10457 205.0 86.0 205.89543 86.0 207.0Z" fill-rule="nonzero"/><path stroke="#000000" stroke-width="0.0" stroke-linecap="butt" stroke-opacity="0.0" clip-path="url(#id_0)" d="M137.0 300.0L127.0 300.0L127.0 204.0C127.0 202.89543 127.89543 202.0 129.0 202.0L135.0 202.0C136.10457 202.0 137.0 202.89543 137.0 204.0Z" fill-rule="nonzero"/><path fill="#ea4335" clip-path="url(#id_0)" d="M137.0 300.0L127.0 300.0L127.0 204.0C127.0 202.89543 127.89543 202.0 129.0 202.0L135.0 202.0C136.10457 202.0 137.0 202.89543 137.0 204.0Z" fill-rule="nonzero"/><path stroke="#000000" stroke-width="0.0" stroke-linecap="butt" stroke-opacity="0.0" clip-path="url(#id_0)" d="M189.0 300.0L179.0 300.0L179.0 212.0C179.0 210.89543 179.89543 210.0 181.0 210.0L187.0 210.0C188.10457 210.0 189.0 210.89543 189.0 212.0Z" fill-rule="nonzero"/><path fill="#ea4335" clip-path="url(#id_0)" d="M189.0 300.0L179.0 300.0L179.0 212.0C179.0 210.89543 179.89543 210.0 181.0 210.0L187.0 210.0C188.10457 210.0 189.0 210.89543 189.0 212.0Z" fill-rule="nonzero"/><path stroke="#000000" stroke-width="0.0" stroke-linecap="butt" stroke-opacity="0.0" clip-path="url(#id_0)" d="M241.0 300.0L231.0 300.0L231.0 202.0C231.0 200.89543 231.89543 200.0 233.0 200.0L239.0 200.0C240.10457 200.0 241.0 200.89543 241.0 202.0Z" fill-rule="nonzero"/><path fill="#ea4335" clip-path="url(#id_0)" d="M241.0 300.0L231.0 300.0L231.0 202.0C231.0 200.89543 231.89543 200.0 233.0 200.0L239.0 200.0C240.10457 200.0 241.0 200.89543 241.0 202.0Z" fill-rule="nonzero"/><path stroke="#000000" stroke-width="0.0" stroke-linecap="butt" stroke-opacity="0.0" clip-path="url(#id_0)" d="M293.0 300.0L283.0 300.0L283.0 210.0C283.0 208.89543 283.89542 208.0 285.0 208.0L291.0 208.0C292.10458 208.0 293.0 208.89543 293.0 210.0Z" fill-rule="nonzero"/><path fill="#ea4335" clip-path="url(#id_0)" d="M293.0 300.0L283.0 300.0L283.0 210.0C283.0 208.89543 283.89542 208.0 285.0 208.0L291.0 208.0C292.10458 208.0 293.0 208.89543 293.0 210.0Z" fill-rule="nonzero"/><path stroke="#000000" stroke-width="0.0" stroke-linecap="butt" stroke-opacity="0.0" clip-path="url(#id_0)" d="M344.0 300.0L334.0 300.0L334.0 211.0C334.0 209.89543 334.89542 209.0 336.0 209.0L342.0 209.0C343.10458 209.0 344.0 209.89543 344.0 211.0Z" fill-rule="nonzero"/><path fill="#ea4335" clip-path="url(#id_0)" d="M344.0 300.0L334.0 300.0L334.0 211.0C334.0 209.89543 334.89542 209.0 336.0 209.0L342.0 209.0C343.10458 209.0 344.0 209.89543 344.0 211.0Z" fill-rule="nonzero"/><path stroke="#000000" stroke-width="0.0" stroke-linecap="butt" stroke-opacity="0.0" clip-path="url(#id_0)" d="M396.0 300.0L386.0 300.0L386.0 206.0C386.0 204.89543 386.89542 204.0 388.0 204.0L394.0 204.0C395.10458 204.0 396.0 204.89543 396.0 206.0Z" fill-rule="nonzero"/><path fill="#ea4335" clip-path="url(#id_0)" d="M396.0 300.0L386.0 300.0L386.0 206.0C386.0 204.89543 386.89542 204.0 388.0 204.0L394.0 204.0C395.10458 204.0 396.0 204.89543 396.0 206.0Z" fill-rule="nonzero"/><path stroke="#000000" stroke-width="0.0" stroke-linecap="butt" stroke-opacity="0.0" clip-path="url(#id_0)" d="M448.0 300.0L438.0 300.0L438.0 209.0C438.0 207.89543 438.89542 207.0 440.0 207.0L446.0 207.0C447.10458 207.0 448.0 207.89543 448.0 209.0Z" fill-rule="nonzero"/><path fill="#ea4335" clip-path="url(#id_0)" d="M448.0 300.0L438.0 300.0L438.0 209.0C438.0 207.89543 438.89542 207.0 440.0 207.0L446.0 207.0C447.10458 207.0 448.0 207.89543 448.0 209.0Z" fill-rule="nonzero"/><path stroke="#000000" stroke-width="0.0" stroke-linecap="butt" stroke-opacity="0.0" clip-path="url(#id_0)" d="M500.0 300.0L490.0 300.0L490.0 208.0C490.0 206.89543 490.89542 206.0 492.0 206.0L498.0 206.0C499.10458 206.0 500.0 206.89543 500.0 208.0Z" fill-rule="nonzero"/><path fill="#ea4335" clip-path="url(#id_0)" d="M500.0 300.0L490.0 300.0L490.0 208.0C490.0 206.89543 490.89542 206.0 492.0 206.0L498.0 206.0C499.10458 206.0 500.0 206.89543 500.0 208.0Z" fill-rule="nonzero"/><path stroke="#000000" stroke-width="0.0" stroke-linecap="butt" stroke-opacity="0.0" clip-path="url(#id_0)" d="M552.0 300.0L542.0 300.0L542.0 209.0C542.0 207.89543 542.89545 207.0 544.0 207.0L550.0 207.0C551.10455 207.0 552.0 207.89543 552.0 209.0Z" fill-rule="nonzero"/><path fill="#ea4335" clip-path="url(#id_0)" d="M552.0 300.0L542.0 300.0L542.0 209.0C542.0 207.89543 542.89545 207.0 544.0 207.0L550.0 207.0C551.10455 207.0 552.0 207.89543 552.0 209.0Z" fill-rule="nonzero"/><path stroke="#000000" stroke-width="0.0" stroke-linecap="butt" stroke-opacity="0.0" clip-path="url(#id_0)" d="M97.0 300.0L87.0 300.0L87.0 206.0C87.0 204.89543 87.89543 204.0 89.0 204.0L95.0 204.0C96.10457 204.0 97.0 204.89543 97.0 206.0Z" fill-rule="nonzero"/><path fill="#fbbc04" clip-path="url(#id_0)" d="M97.0 300.0L87.0 300.0L87.0 206.0C87.0 204.89543 87.89543 204.0 89.0 204.0L95.0 204.0C96.10457 204.0 97.0 204.89543 97.0 206.0Z" fill-rule="nonzero"/><path stroke="#000000" stroke-width="0.0" stroke-linecap="butt" stroke-opacity="0.0" clip-path="url(#id_0)" d="M148.0 300.0L138.0 300.0L138.0 208.0C138.0 206.89543 138.89543 206.0 140.0 206.0L146.0 206.0C147.10457 206.0 148.0 206.89543 148.0 208.0Z" fill-rule="nonzero"/><path fill="#fbbc04" clip-path="url(#id_0)" d="M148.0 300.0L138.0 300.0L138.0 208.0C138.0 206.89543 138.89543 206.0 140.0 206.0L146.0 206.0C147.10457 206.0 148.0 206.89543 148.0 208.0Z" fill-rule="nonzero"/><path stroke="#000000" stroke-width="0.0" stroke-linecap="butt" stroke-opacity="0.0" clip-path="url(#id_0)" d="M200.0 300.0L190.0 300.0L190.0 215.0C190.0 213.89543 190.89543 213.0 192.0 213.0L198.0 213.0C199.10457 213.0 200.0 213.89543 200.0 215.0Z" fill-rule="nonzero"/><path fill="#fbbc04" clip-path="url(#id_0)" d="M200.0 300.0L190.0 300.0L190.0 215.0C190.0 213.89543 190.89543 213.0 192.0 213.0L198.0 213.0C199.10457 213.0 200.0 213.89543 200.0 215.0Z" fill-rule="nonzero"/><path stroke="#000000" stroke-width="0.0" stroke-linecap="butt" stroke-opacity="0.0" clip-path="url(#id_0)" d="M252.0 300.0L242.0 300.0L242.0 206.0C242.0 204.89543 242.89543 204.0 244.0 204.0L250.0 204.0C251.10457 204.0 252.0 204.89543 252.0 206.0Z" fill-rule="nonzero"/><path fill="#fbbc04" clip-path="url(#id_0)" d="M252.0 300.0L242.0 300.0L242.0 206.0C242.0 204.89543 242.89543 204.0 244.0 204.0L250.0 204.0C251.10457 204.0 252.0 204.89543 252.0 206.0Z" fill-rule="nonzero"/><path stroke="#000000" stroke-width="0.0" stroke-linecap="butt" stroke-opacity="0.0" clip-path="url(#id_0)" d="M304.0 300.0L294.0 300.0L294.0 212.0C294.0 210.89543 294.89542 210.0 296.0 210.0L302.0 210.0C303.10458 210.0 304.0 210.89543 304.0 212.0Z" fill-rule="nonzero"/><path fill="#fbbc04" clip-path="url(#id_0)" d="M304.0 300.0L294.0 300.0L294.0 212.0C294.0 210.89543 294.89542 210.0 296.0 210.0L302.0 210.0C303.10458 210.0 304.0 210.89543 304.0 212.0Z" fill-rule="nonzero"/><path stroke="#000000" stroke-width="0.0" stroke-linecap="butt" stroke-opacity="0.0" clip-path="url(#id_0)" d="M355.0 300.0L345.0 300.0L345.0 213.0C345.0 211.89543 345.89542 211.0 347.0 211.0L353.0 211.0C354.10458 211.0 355.0 211.89543 355.0 213.0Z" fill-rule="nonzero"/><path fill="#fbbc04" clip-path="url(#id_0)" d="M355.0 300.0L345.0 300.0L345.0 213.0C345.0 211.89543 345.89542 211.0 347.0 211.0L353.0 211.0C354.10458 211.0 355.0 211.89543 355.0 213.0Z" fill-rule="nonzero"/><path stroke="#000000" stroke-width="0.0" stroke-linecap="butt" stroke-opacity="0.0" clip-path="url(#id_0)" d="M407.0 300.0L397.0 300.0L397.0 207.0C397.0 205.89543 397.89542 205.0 399.0 205.0L405.0 205.0C406.10458 205.0 407.0 205.89543 407.0 207.0Z" fill-rule="nonzero"/><path fill="#fbbc04" clip-path="url(#id_0)" d="M407.0 300.0L397.0 300.0L397.0 207.0C397.0 205.89543 397.89542 205.0 399.0 205.0L405.0 205.0C406.10458 205.0 407.0 205.89543 407.0 207.0Z" fill-rule="nonzero"/><path stroke="#000000" stroke-width="0.0" stroke-linecap="butt" stroke-opacity="0.0" clip-path="url(#id_0)" d="M459.0 300.0L449.0 300.0L449.0 212.0C449.0 210.89543 449.89542 210.0 451.0 210.0L457.0 210.0C458.10458 210.0 459.0 210.89543 459.0 212.0Z" fill-rule="nonzero"/><path fill="#fbbc04" clip-path="url(#id_0)" d="M459.0 300.0L449.0 300.0L449.0 212.0C449.0 210.89543 449.89542 210.0 451.0 210.0L457.0 210.0C458.10458 210.0 459.0 210.89543 459.0 212.0Z" fill-rule="nonzero"/><path stroke="#000000" stroke-width="0.0" stroke-linecap="butt" stroke-opacity="0.0" clip-path="url(#id_0)" d="M511.0 300.0L501.0 300.0L501.0 215.0C501.0 213.89543 501.89542 213.0 503.0 213.0L509.0 213.0C510.10458 213.0 511.0 213.89543 511.0 215.0Z" fill-rule="nonzero"/><path fill="#fbbc04" clip-path="url(#id_0)" d="M511.0 300.0L501.0 300.0L501.0 215.0C501.0 213.89543 501.89542 213.0 503.0 213.0L509.0 213.0C510.10458 213.0 511.0 213.89543 511.0 215.0Z" fill-rule="nonzero"/><path stroke="#000000" stroke-width="0.0" stroke-linecap="butt" stroke-opacity="0.0" clip-path="url(#id_0)" d="M563.0 300.0L553.0 300.0L553.0 214.0C553.0 212.89543 553.89545 212.0 555.0 212.0L561.0 212.0C562.10455 212.0 563.0 212.89543 563.0 214.0Z" fill-rule="nonzero"/><path fill="#fbbc04" clip-path="url(#id_0)" d="M563.0 300.0L553.0 300.0L553.0 214.0C553.0 212.89543 553.89545 212.0 555.0 212.0L561.0 212.0C562.10455 212.0 563.0 212.89543 563.0 214.0Z" fill-rule="nonzero"/><path fill="#000000" d="M239.79688 351.84064L239.79688 343.23126L240.75 343.23126L240.75 344.02814Q241.09375 343.5594 241.51562 343.325Q241.95312 343.09064 242.5625 343.09064Q243.35938 343.09064 243.96875 343.4969Q244.57812 343.90314 244.875 344.65314Q245.1875 345.40314 245.1875 346.29376Q245.1875 347.2469 244.84375 348.0125Q244.51562 348.77814 243.85938 349.1844Q243.20312 349.59064 242.48438 349.59064Q241.95312 349.59064 241.53125 349.3719Q241.10938 349.1375 240.84375 348.8094L240.84375 351.84064L239.79688 351.84064ZM240.75 346.3719Q240.75 347.575 241.23438 348.15314Q241.71875 348.71564 242.40625 348.71564Q243.10938 348.71564 243.60938 348.1219Q244.10938 347.52814 244.10938 346.27814Q244.10938 345.09064 243.625 344.5125Q243.14062 343.91876 242.45312 343.91876Q241.78125 343.91876 241.26562 344.54376Q240.75 345.16876 240.75 346.3719ZM250.85938 347.16876L251.89062 347.3094Q251.71875 348.3719 251.01562 348.98126Q250.3125 349.59064 249.29688 349.59064Q248.01562 349.59064 247.23438 348.7625Q246.46875 347.91876 246.46875 346.35626Q246.46875 345.35626 246.79688 344.60626Q247.14062 343.84064 247.8125 343.46564Q248.5 343.09064 249.3125 343.09064Q250.3125 343.09064 250.95312 343.60626Q251.60938 344.10626 251.79688 345.0594L250.76562 345.21564Q250.625 344.59064 250.25 344.27814Q249.875 343.95 249.34375 343.95Q248.54688 343.95 248.04688 344.52814Q247.54688 345.09064 247.54688 346.325Q247.54688 347.59064 248.03125 348.15314Q248.51562 348.71564 249.28125 348.71564Q249.90625 348.71564 250.3125 348.34064Q250.73438 347.96564 250.85938 347.16876ZM253.04688 349.45L253.04688 344.04376L252.10938 344.04376L252.10938 343.23126L253.04688 343.23126L253.04688 342.5594Q253.04688 341.9344 253.15625 341.6375Q253.3125 341.21564 253.6875 340.96564Q254.07812 340.71564 254.76562 340.71564Q255.21875 340.71564 255.75 340.825L255.59375 341.73126Q255.26562 341.6844 254.96875 341.6844Q254.48438 341.6844 254.28125 341.8875Q254.09375 342.09064 254.09375 342.65314L254.09375 343.23126L255.3125 343.23126L255.3125 344.04376L254.09375 344.04376L254.09375 349.45L253.04688 349.45ZM255.59375 349.96564L256.625 350.1219Q256.6875 350.59064 256.98438 350.8094Q257.375 351.10626 258.04688 351.10626Q258.78125 351.10626 259.17188 350.8094Q259.57812 350.5125 259.71875 349.9969Q259.8125 349.66876 259.79688 348.6375Q259.10938 349.45 258.07812 349.45Q256.79688 349.45 256.09375 348.52814Q255.39062 347.59064 255.39062 346.3094Q255.39062 345.41876 255.70312 344.66876Q256.03125 343.90314 256.64062 343.4969Q257.25 343.09064 258.07812 343.09064Q259.1875 343.09064 259.90625 343.98126L259.90625 343.23126L260.875 343.23126L260.875 348.60626Q260.875 350.0594 260.57812 350.66876Q260.28125 351.27814 259.64062 351.6219Q259.0 351.98126 258.0625 351.98126Q256.95312 351.98126 256.26562 351.48126Q255.57812 350.98126 255.59375 349.96564ZM256.46875 346.23126Q256.46875 347.45 256.95312 348.0125Q257.4375 348.575 258.17188 348.575Q258.90625 348.575 259.39062 348.0125Q259.89062 347.45 259.89062 346.2625Q259.89062 345.1219 259.375 344.54376Q258.875 343.96564 258.15625 343.96564Q257.45312 343.96564 256.95312 344.54376Q256.46875 345.10626 256.46875 346.23126ZM265.875 349.45L265.875 340.85626L267.01562 340.85626L267.01562 348.4344L271.25 348.4344L271.25 349.45L265.875 349.45ZM272.92188 349.45L272.92188 340.85626L276.17188 340.85626Q277.01562 340.85626 277.46875 340.9344Q278.10938 341.04376 278.53125 341.34064Q278.96875 341.6375 279.21875 342.16876Q279.48438 342.7 279.48438 343.34064Q279.48438 344.4344 278.78125 345.2Q278.09375 345.95 276.26562 345.95L274.0625 345.95L274.0625 349.45L272.92188 349.45ZM274.0625 344.95L276.28125 344.95Q277.39062 344.95 277.84375 344.54376Q278.3125 344.1219 278.3125 343.3719Q278.3125 342.84064 278.03125 342.46564Q277.76562 342.075 277.32812 341.95Q277.03125 341.8719 276.26562 341.8719L274.0625 341.8719L274.0625 344.95ZM280.0 349.59064L282.48438 340.71564L283.32812 340.71564L280.84375 349.59064L280.0 349.59064ZM283.875 349.45L283.875 340.85626L285.01562 340.85626L285.01562 348.4344L289.25 348.4344L289.25 349.45L283.875 349.45ZM290.9375 349.45L290.9375 340.85626L294.75 340.85626Q295.90625 340.85626 296.5 341.09064Q297.09375 341.325 297.45312 341.91876Q297.8125 342.4969 297.8125 343.2Q297.8125 344.1219 297.21875 344.7469Q296.625 345.3719 295.39062 345.54376Q295.84375 345.7625 296.07812 345.96564Q296.57812 346.41876 297.01562 347.10626L298.51562 349.45L297.07812 349.45L295.95312 347.66876Q295.45312 346.8875 295.125 346.48126Q294.8125 346.075 294.54688 345.91876Q294.29688 345.7469 294.03125 345.66876Q293.84375 345.6375 293.40625 345.6375L292.07812 345.6375L292.07812 349.45L290.9375 349.45ZM292.07812 344.65314L294.53125 344.65314Q295.29688 344.65314 295.73438 344.4969Q296.1875 344.325 296.40625 343.98126Q296.64062 343.6219 296.64062 343.2Q296.64062 342.59064 296.1875 342.2Q295.75 341.8094 294.79688 341.8094L292.07812 341.8094L292.07812 344.65314ZM302.375 347.59064L303.40625 347.4344Q303.5 348.0594 303.89062 348.3875Q304.29688 348.71564 305.03125 348.71564Q305.75 348.71564 306.09375 348.4344Q306.45312 348.1375 306.45312 347.73126Q306.45312 347.3719 306.14062 347.16876Q305.92188 347.02814 305.0625 346.8094Q303.90625 346.5125 303.45312 346.3094Q303.01562 346.09064 302.78125 345.71564Q302.54688 345.34064 302.54688 344.8719Q302.54688 344.46564 302.73438 344.10626Q302.92188 343.7469 303.25 343.5125Q303.5 343.34064 303.92188 343.21564Q304.34375 343.09064 304.84375 343.09064Q305.5625 343.09064 306.10938 343.3094Q306.67188 343.5125 306.9375 343.8719Q307.20312 344.23126 307.29688 344.825L306.26562 344.96564Q306.20312 344.4969 305.85938 344.23126Q305.53125 343.95 304.90625 343.95Q304.1875 343.95 303.875 344.2Q303.5625 344.4344 303.5625 344.7625Q303.5625 344.96564 303.6875 345.1219Q303.82812 345.29376 304.09375 345.40314Q304.25 345.46564 305.03125 345.66876Q306.15625 345.98126 306.59375 346.16876Q307.03125 346.35626 307.28125 346.71564Q307.53125 347.075 307.53125 347.6219Q307.53125 348.15314 307.21875 348.6219Q306.92188 349.075 306.34375 349.34064Q305.76562 349.59064 305.03125 349.59064Q303.8125 349.59064 303.17188 349.09064Q302.54688 348.575 302.375 347.59064ZM312.875 349.45L312.875 348.52814Q312.14062 349.59064 310.89062 349.59064Q310.34375 349.59064 309.85938 349.3875Q309.39062 349.16876 309.15625 348.85626Q308.92188 348.52814 308.82812 348.0594Q308.76562 347.7625 308.76562 347.075L308.76562 343.23126L309.82812 343.23126L309.82812 346.6844Q309.82812 347.4969 309.89062 347.79376Q309.98438 348.2 310.29688 348.45Q310.625 348.6844 311.10938 348.6844Q311.57812 348.6844 311.98438 348.45Q312.40625 348.2 312.57812 347.77814Q312.76562 347.35626 312.76562 346.5594L312.76562 343.23126L313.8125 343.23126L313.8125 349.45L312.875 349.45ZM315.79688 349.45L315.79688 343.23126L316.73438 343.23126L316.73438 344.10626Q317.03125 343.6375 317.51562 343.3719Q318.0 343.09064 318.625 343.09064Q319.3125 343.09064 319.75 343.3719Q320.20312 343.65314 320.375 344.16876Q321.125 343.09064 322.29688 343.09064Q323.23438 343.09064 323.71875 343.60626Q324.21875 344.10626 324.21875 345.1844L324.21875 349.45L323.17188 349.45L323.17188 345.52814Q323.17188 344.90314 323.0625 344.6219Q322.96875 344.34064 322.70312 344.16876Q322.4375 343.9969 322.0625 343.9969Q321.40625 343.9969 320.96875 344.4344Q320.54688 344.8719 320.54688 345.84064L320.54688 349.45L319.48438 349.45L319.48438 345.40314Q319.48438 344.7 319.21875 344.35626Q318.96875 343.9969 318.39062 343.9969Q317.9375 343.9969 317.5625 344.23126Q317.1875 344.46564 317.01562 344.91876Q316.84375 345.3719 316.84375 346.21564L316.84375 349.45L315.79688 349.45ZM325.79688 349.45L325.79688 343.23126L326.73438 343.23126L326.73438 344.10626Q327.03125 343.6375 327.51562 343.3719Q328.0 343.09064 328.625 343.09064Q329.3125 343.09064 329.75 343.3719Q330.20312 343.65314 330.375 344.16876Q331.125 343.09064 332.29688 343.09064Q333.23438 343.09064 333.71875 343.60626Q334.21875 344.10626 334.21875 345.1844L334.21875 349.45L333.17188 349.45L333.17188 345.52814Q333.17188 344.90314 333.0625 344.6219Q332.96875 344.34064 332.70312 344.16876Q332.4375 343.9969 332.0625 343.9969Q331.40625 343.9969 330.96875 344.4344Q330.54688 344.8719 330.54688 345.84064L330.54688 349.45L329.48438 349.45L329.48438 345.40314Q329.48438 344.7 329.21875 344.35626Q328.96875 343.9969 328.39062 343.9969Q327.9375 343.9969 327.5625 344.23126Q327.1875 344.46564 327.01562 344.91876Q326.84375 345.3719 326.84375 346.21564L326.84375 349.45L325.79688 349.45ZM339.85938 348.6844Q339.26562 349.1844 338.71875 349.3875Q338.1875 349.59064 337.5625 349.59064Q336.53125 349.59064 335.98438 349.09064Q335.4375 348.59064 335.4375 347.8094Q335.4375 347.35626 335.64062 346.98126Q335.84375 346.59064 336.1875 346.3719Q336.53125 346.1375 336.95312 346.02814Q337.25 345.9344 337.89062 345.85626Q339.15625 345.71564 339.76562 345.4969Q339.76562 345.27814 339.76562 345.23126Q339.76562 344.575 339.46875 344.3094Q339.0625 343.96564 338.26562 343.96564Q337.53125 343.96564 337.17188 344.23126Q336.8125 344.48126 336.64062 345.1375L335.60938 344.9969Q335.75 344.34064 336.07812 343.9344Q336.40625 343.52814 337.01562 343.3094Q337.625 343.09064 338.42188 343.09064Q339.21875 343.09064 339.71875 343.27814Q340.21875 343.46564 340.45312 343.7469Q340.6875 344.02814 340.78125 344.46564Q340.82812 344.73126 340.82812 345.4344L340.82812 346.84064Q340.82812 348.3094 340.89062 348.7Q340.96875 349.09064 341.17188 349.45L340.0625 349.45Q339.90625 349.1219 339.85938 348.6844ZM339.76562 346.325Q339.1875 346.5594 338.04688 346.73126Q337.39062 346.825 337.125 346.95Q336.85938 347.0594 336.70312 347.27814Q336.5625 347.4969 336.5625 347.77814Q336.5625 348.2 336.875 348.48126Q337.20312 348.7625 337.8125 348.7625Q338.42188 348.7625 338.89062 348.4969Q339.375 348.23126 339.59375 347.7625Q339.76562 347.40314 339.76562 346.71564L339.76562 346.325ZM342.78125 349.45L342.78125 343.23126L343.73438 343.23126L343.73438 344.16876Q344.09375 343.5125 344.39062 343.3094Q344.70312 343.09064 345.07812 343.09064Q345.60938 343.09064 346.15625 343.41876L345.79688 344.40314Q345.40625 344.16876 345.03125 344.16876Q344.67188 344.16876 344.39062 344.3875Q344.125 344.59064 344.01562 344.96564Q343.82812 345.52814 343.82812 346.1844L343.82812 349.45L342.78125 349.45ZM346.75 351.84064L346.625 350.85626Q346.96875 350.95 347.23438 350.95Q347.57812 350.95 347.78125 350.825Q348.0 350.71564 348.14062 350.5125Q348.23438 350.34064 348.46875 349.71564Q348.48438 349.6375 348.5625 349.46564L346.1875 343.23126L347.32812 343.23126L348.625 346.825Q348.875 347.5125 349.07812 348.27814Q349.26562 347.54376 349.51562 346.85626L350.84375 343.23126L351.89062 343.23126L349.53125 349.5594Q349.14062 350.575 348.9375 350.96564Q348.65625 351.4969 348.28125 351.73126Q347.92188 351.98126 347.42188 351.98126Q347.125 351.98126 346.75 351.84064ZM360.04688 347.45L361.14062 347.575Q360.89062 348.52814 360.1875 349.0594Q359.48438 349.59064 358.40625 349.59064Q357.04688 349.59064 356.23438 348.7469Q355.4375 347.90314 355.4375 346.3875Q355.4375 344.825 356.25 343.96564Q357.0625 343.09064 358.34375 343.09064Q359.59375 343.09064 360.375 343.9344Q361.17188 344.77814 361.17188 346.325Q361.17188 346.41876 361.17188 346.60626L356.53125 346.60626Q356.59375 347.6375 357.10938 348.1844Q357.625 348.71564 358.40625 348.71564Q358.98438 348.71564 359.39062 348.41876Q359.8125 348.10626 360.04688 347.45ZM356.59375 345.7469L360.0625 345.7469Q360.0 344.95 359.67188 344.5594Q359.15625 343.95 358.35938 343.95Q357.625 343.95 357.125 344.4344Q356.64062 344.91876 356.59375 345.7469ZM364.51562 349.45L362.15625 343.23126L363.26562 343.23126L364.60938 346.95Q364.8125 347.5594 365.0 348.2Q365.14062 347.71564 365.39062 347.02814L366.78125 343.23126L367.85938 343.23126L365.5 349.45L364.51562 349.45ZM372.85938 348.6844Q372.26562 349.1844 371.71875 349.3875Q371.1875 349.59064 370.5625 349.59064Q369.53125 349.59064 368.98438 349.09064Q368.4375 348.59064 368.4375 347.8094Q368.4375 347.35626 368.64062 346.98126Q368.84375 346.59064 369.1875 346.3719Q369.53125 346.1375 369.95312 346.02814Q370.25 345.9344 370.89062 345.85626Q372.15625 345.71564 372.76562 345.4969Q372.76562 345.27814 372.76562 345.23126Q372.76562 344.575 372.46875 344.3094Q372.0625 343.96564 371.26562 343.96564Q370.53125 343.96564 370.17188 344.23126Q369.8125 344.48126 369.64062 345.1375L368.60938 344.9969Q368.75 344.34064 369.07812 343.9344Q369.40625 343.52814 370.01562 343.3094Q370.625 343.09064 371.42188 343.09064Q372.21875 343.09064 372.71875 343.27814Q373.21875 343.46564 373.45312 343.7469Q373.6875 344.02814 373.78125 344.46564Q373.82812 344.73126 373.82812 345.4344L373.82812 346.84064Q373.82812 348.3094 373.89062 348.7Q373.96875 349.09064 374.17188 349.45L373.0625 349.45Q372.90625 349.1219 372.85938 348.6844ZM372.76562 346.325Q372.1875 346.5594 371.04688 346.73126Q370.39062 346.825 370.125 346.95Q369.85938 347.0594 369.70312 347.27814Q369.5625 347.4969 369.5625 347.77814Q369.5625 348.2 369.875 348.48126Q370.20312 348.7625 370.8125 348.7625Q371.42188 348.7625 371.89062 348.4969Q372.375 348.23126 372.59375 347.7625Q372.76562 347.40314 372.76562 346.71564L372.76562 346.325ZM375.76562 349.45L375.76562 340.85626L376.82812 340.85626L376.82812 349.45L375.76562 349.45ZM379.76562 349.45L378.78125 349.45L378.78125 340.85626L379.84375 340.85626L379.84375 343.91876Q380.51562 343.09064 381.54688 343.09064Q382.125 343.09064 382.625 343.325Q383.14062 343.54376 383.46875 343.96564Q383.8125 344.3875 384.0 344.98126Q384.1875 345.575 384.1875 346.2469Q384.1875 347.84064 383.39062 348.71564Q382.59375 349.59064 381.5 349.59064Q380.39062 349.59064 379.76562 348.66876L379.76562 349.45ZM379.75 346.29376Q379.75 347.40314 380.0625 347.90314Q380.5625 348.71564 381.40625 348.71564Q382.09375 348.71564 382.59375 348.1219Q383.10938 347.52814 383.10938 346.325Q383.10938 345.10626 382.625 344.52814Q382.14062 343.95 381.45312 343.95Q380.76562 343.95 380.25 344.5594Q379.75 345.15314 379.75 346.29376ZM386.07812 344.4344L386.07812 343.23126L387.28125 343.23126L387.28125 344.4344L386.07812 344.4344ZM386.07812 349.45L386.07812 348.2469L387.28125 348.2469L387.28125 349.45L386.07812 349.45Z" fill-rule="nonzero"/><path fill="#000000" d="M33.05 300.21564Q33.05 298.6844 33.3625 297.7625Q33.675 296.825 34.284374 296.325Q34.909374 295.825 35.846874 295.825Q36.534374 295.825 37.05 296.10626Q37.58125 296.3875 37.925 296.91876Q38.26875 297.4344 38.45625 298.1844Q38.64375 298.9344 38.64375 300.21564Q38.64375 301.73126 38.33125 302.65314Q38.034374 303.575 37.409374 304.09064Q36.8 304.59064 35.846874 304.59064Q34.6125 304.59064 33.89375 303.7Q33.05 302.6375 33.05 300.21564ZM34.128124 300.21564Q34.128124 302.325 34.628124 303.02814Q35.128124 303.73126 35.846874 303.73126Q36.58125 303.73126 37.065624 303.02814Q37.565624 302.325 37.565624 300.21564Q37.565624 298.09064 37.065624 297.40314Q36.58125 296.7 35.83125 296.7Q35.1125 296.7 34.675 297.3094Q34.128124 298.09064 34.128124 300.21564Z" fill-rule="nonzero"/><path fill="#000000" d="M31.596874 250.39272L31.596874 251.40834L25.909374 251.40834Q25.909374 251.03334 26.034374 250.67397Q26.253124 250.09584 26.721874 249.53334Q27.20625 248.97084 28.1125 248.23647Q29.51875 247.08022 30.003124 246.40834Q30.503124 245.73647 30.503124 245.14272Q30.503124 244.51772 30.05 244.09584Q29.596874 243.65834 28.878124 243.65834Q28.1125 243.65834 27.659374 244.11147Q27.20625 244.56459 27.190624 245.37709L26.1125 245.26772Q26.221874 244.04897 26.940624 243.42397Q27.675 242.78334 28.909374 242.78334Q30.14375 242.78334 30.8625 243.47084Q31.58125 244.15834 31.58125 245.17397Q31.58125 245.68959 31.3625 246.18959Q31.159374 246.67397 30.659374 247.23647Q30.175 247.78334 29.05 248.73647Q28.096874 249.53334 27.815624 249.83022Q27.55 250.11147 27.378124 250.39272L31.596874 250.39272ZM33.05 249.15834L34.159374 249.06459Q34.284374 249.87709 34.721874 250.28334Q35.175 250.68959 35.815624 250.68959Q36.565624 250.68959 37.096874 250.11147Q37.628124 249.53334 37.628124 248.59584Q37.628124 247.68959 37.1125 247.17397Q36.6125 246.64272 35.784374 246.64272Q35.284374 246.64272 34.8625 246.87709Q34.45625 247.11147 34.221874 247.47084L33.2375 247.34584L34.065624 242.93959L38.346874 242.93959L38.346874 243.93959L34.909374 243.93959L34.45625 246.25209Q35.221874 245.70522 36.065624 245.70522Q37.190624 245.70522 37.95625 246.48647Q38.7375 247.26772 38.7375 248.50209Q38.7375 249.65834 38.065624 250.51772Q37.2375 251.54897 35.815624 251.54897Q34.64375 251.54897 33.89375 250.89272Q33.159374 250.23647 33.05 249.15834Z" fill-rule="nonzero"/><path fill="#000000" d="M26.05 196.11667L27.159374 196.02292Q27.284374 196.83542 27.721874 197.24167Q28.175 197.64792 28.815624 197.64792Q29.565624 197.64792 30.096874 197.0698Q30.628124 196.49167 30.628124 195.55417Q30.628124 194.64792 30.1125 194.1323Q29.6125 193.60104 28.784374 193.60104Q28.284374 193.60104 27.8625 193.83542Q27.45625 194.0698 27.221874 194.42917L26.2375 194.30417L27.065624 189.89792L31.346874 189.89792L31.346874 190.89792L27.909374 190.89792L27.45625 193.21042Q28.221874 192.66354 29.065624 192.66354Q30.190624 192.66354 30.95625 193.4448Q31.7375 194.22604 31.7375 195.46042Q31.7375 196.61667 31.065624 197.47604Q30.2375 198.5073 28.815624 198.5073Q27.64375 198.5073 26.89375 197.85104Q26.159374 197.1948 26.05 196.11667ZM33.05 194.1323Q33.05 192.60104 33.3625 191.67917Q33.675 190.74167 34.284374 190.24167Q34.909374 189.74167 35.846874 189.74167Q36.534374 189.74167 37.05 190.02292Q37.58125 190.30417 37.925 190.83542Q38.26875 191.35104 38.45625 192.10104Q38.64375 192.85104 38.64375 194.1323Q38.64375 195.64792 38.33125 196.5698Q38.034374 197.49167 37.409374 198.0073Q36.8 198.5073 35.846874 198.5073Q34.6125 198.5073 33.89375 197.61667Q33.05 196.55417 33.05 194.1323ZM34.128124 194.1323Q34.128124 196.24167 34.628124 196.9448Q35.128124 197.64792 35.846874 197.64792Q36.58125 197.64792 37.065624 196.9448Q37.565624 196.24167 37.565624 194.1323Q37.565624 192.0073 37.065624 191.3198Q36.58125 190.61667 35.83125 190.61667Q35.1125 190.61667 34.675 191.22604Q34.128124 192.0073 34.128124 194.1323Z" fill-rule="nonzero"/><path fill="#000000" d="M26.1125 137.85625L26.1125 136.84062L31.675 136.84062L31.675 137.66875Q30.8625 138.54375 30.05 139.99687Q29.253124 141.43437 28.815624 142.96562Q28.4875 144.04375 28.409374 145.325L27.315624 145.325Q27.33125 144.30937 27.70625 142.87187Q28.096874 141.43437 28.8 140.10625Q29.51875 138.77812 30.33125 137.85625L26.1125 137.85625ZM33.05 143.075L34.159374 142.98125Q34.284374 143.79375 34.721874 144.2Q35.175 144.60625 35.815624 144.60625Q36.565624 144.60625 37.096874 144.02812Q37.628124 143.45 37.628124 142.5125Q37.628124 141.60625 37.1125 141.09062Q36.6125 140.55937 35.784374 140.55937Q35.284374 140.55937 34.8625 140.79375Q34.45625 141.02812 34.221874 141.3875L33.2375 141.2625L34.065624 136.85625L38.346874 136.85625L38.346874 137.85625L34.909374 137.85625L34.45625 140.16875Q35.221874 139.62187 36.065624 139.62187Q37.190624 139.62187 37.95625 140.40312Q38.7375 141.18437 38.7375 142.41875Q38.7375 143.575 38.065624 144.43437Q37.2375 145.46562 35.815624 145.46562Q34.64375 145.46562 33.89375 144.80937Q33.159374 144.15312 33.05 143.075Z" fill-rule="nonzero"/><path fill="#000000" d="M23.01875 92.28333L21.971874 92.28333L21.971874 85.56458Q21.58125 85.92396 20.95625 86.29896Q20.346874 86.65833 19.8625 86.83021L19.8625 85.81458Q20.7375 85.39271 21.39375 84.81458Q22.065624 84.22083 22.346874 83.65833L23.01875 83.65833L23.01875 92.28333ZM26.05 88.04896Q26.05 86.51771 26.3625 85.59583Q26.675 84.65833 27.284374 84.15833Q27.909374 83.65833 28.846874 83.65833Q29.534374 83.65833 30.05 83.93958Q30.58125 84.22083 30.925 84.75208Q31.26875 85.26771 31.45625 86.01771Q31.64375 86.76771 31.64375 88.04896Q31.64375 89.56458 31.33125 90.48646Q31.034374 91.40833 30.409374 91.92396Q29.8 92.42396 28.846874 92.42396Q27.6125 92.42396 26.89375 91.53333Q26.05 90.47083 26.05 88.04896ZM27.128124 88.04896Q27.128124 90.15833 27.628124 90.86146Q28.128124 91.56458 28.846874 91.56458Q29.58125 91.56458 30.065624 90.86146Q30.565624 90.15833 30.565624 88.04896Q30.565624 85.92396 30.065624 85.23646Q29.58125 84.53333 28.83125 84.53333Q28.1125 84.53333 27.675 85.14271Q27.128124 85.92396 27.128124 88.04896ZM33.05 88.04896Q33.05 86.51771 33.3625 85.59583Q33.675 84.65833 34.284374 84.15833Q34.909374 83.65833 35.846874 83.65833Q36.534374 83.65833 37.05 83.93958Q37.58125 84.22083 37.925 84.75208Q38.26875 85.26771 38.45625 86.01771Q38.64375 86.76771 38.64375 88.04896Q38.64375 89.56458 38.33125 90.48646Q38.034374 91.40833 37.409374 91.92396Q36.8 92.42396 35.846874 92.42396Q34.6125 92.42396 33.89375 91.53333Q33.05 90.47083 33.05 88.04896ZM34.128124 88.04896Q34.128124 90.15833 34.628124 90.86146Q35.128124 91.56458 35.846874 91.56458Q36.58125 91.56458 37.065624 90.86146Q37.565624 90.15833 37.565624 88.04896Q37.565624 85.92396 37.065624 85.23646Q36.58125 84.53333 35.83125 84.53333Q35.1125 84.53333 34.675 85.14271Q34.128124 85.92396 34.128124 88.04896Z" fill-rule="nonzero"/><path fill="#000000" d="M66.546875 317.45L66.546875 312.04376L65.609375 312.04376L65.609375 311.23126L66.546875 311.23126L66.546875 310.5594Q66.546875 309.9344 66.65625 309.6375Q66.8125 309.21564 67.1875 308.96564Q67.578125 308.71564 68.265625 308.71564Q68.71875 308.71564 69.25 308.825L69.09375 309.73126Q68.765625 309.6844 68.46875 309.6844Q67.984375 309.6844 67.78125 309.8875Q67.59375 310.09064 67.59375 310.65314L67.59375 311.23126L68.8125 311.23126L68.8125 312.04376L67.59375 312.04376L67.59375 317.45L66.546875 317.45ZM68.90625 314.34064Q68.90625 312.60626 69.859375 311.77814Q70.65625 311.09064 71.8125 311.09064Q73.09375 311.09064 73.90625 311.9344Q74.734375 312.7625 74.734375 314.2469Q74.734375 315.45 74.375 316.1375Q74.015625 316.825 73.3125 317.21564Q72.625 317.59064 71.8125 317.59064Q70.515625 317.59064 69.703125 316.7625Q68.90625 315.91876 68.90625 314.34064ZM69.984375 314.34064Q69.984375 315.52814 70.5 316.1219Q71.03125 316.71564 71.8125 316.71564Q72.609375 316.71564 73.125 316.1219Q73.640625 315.52814 73.640625 314.3094Q73.640625 313.15314 73.109375 312.5594Q72.59375 311.96564 71.8125 311.96564Q71.03125 311.96564 70.5 312.5594Q69.984375 313.1375 69.984375 314.34064ZM76.265625 317.45L76.265625 308.85626L77.328125 308.85626L77.328125 317.45L76.265625 317.45ZM83.328125 317.45L83.328125 316.66876Q82.734375 317.59064 81.59375 317.59064Q80.84375 317.59064 80.21875 317.1844Q79.59375 316.7625 79.25 316.02814Q78.90625 315.29376 78.90625 314.34064Q78.90625 313.41876 79.21875 312.65314Q79.53125 311.8875 80.15625 311.4969Q80.78125 311.09064 81.546875 311.09064Q82.109375 311.09064 82.546875 311.325Q82.984375 311.5594 83.265625 311.9344L83.265625 308.85626L84.3125 308.85626L84.3125 317.45L83.328125 317.45ZM80.0 314.34064Q80.0 315.54376 80.5 316.1375Q81.0 316.71564 81.6875 316.71564Q82.375 316.71564 82.859375 316.15314Q83.34375 315.59064 83.34375 314.4344Q83.34375 313.15314 82.84375 312.5594Q82.359375 311.96564 81.640625 311.96564Q80.9375 311.96564 80.46875 312.54376Q80.0 313.10626 80.0 314.34064ZM92.96875 317.45L91.921875 317.45L91.921875 310.73126Q91.53125 311.09064 90.90625 311.46564Q90.296875 311.825 89.8125 311.9969L89.8125 310.98126Q90.6875 310.5594 91.34375 309.98126Q92.015625 309.3875 92.296875 308.825L92.96875 308.825L92.96875 317.45Z" fill-rule="nonzero"/><path fill="#000000" d="M118.32465 317.45L118.32465 312.04376L117.38715 312.04376L117.38715 311.23126L118.32465 311.23126L118.32465 310.5594Q118.32465 309.9344 118.43403 309.6375Q118.59028 309.21564 118.96528 308.96564Q119.3559 308.71564 120.0434 308.71564Q120.49653 308.71564 121.02778 308.825L120.87153 309.73126Q120.5434 309.6844 120.24653 309.6844Q119.76215 309.6844 119.55903 309.8875Q119.37153 310.09064 119.37153 310.65314L119.37153 311.23126L120.59028 311.23126L120.59028 312.04376L119.37153 312.04376L119.37153 317.45L118.32465 317.45ZM120.68403 314.34064Q120.68403 312.60626 121.63715 311.77814Q122.43403 311.09064 123.59028 311.09064Q124.87153 311.09064 125.68403 311.9344Q126.51215 312.7625 126.51215 314.2469Q126.51215 315.45 126.15278 316.1375Q125.7934 316.825 125.09028 317.21564Q124.40278 317.59064 123.59028 317.59064Q122.2934 317.59064 121.4809 316.7625Q120.68403 315.91876 120.68403 314.34064ZM121.76215 314.34064Q121.76215 315.52814 122.27778 316.1219Q122.80903 316.71564 123.59028 316.71564Q124.38715 316.71564 124.90278 316.1219Q125.4184 315.52814 125.4184 314.3094Q125.4184 313.15314 124.88715 312.5594Q124.37153 311.96564 123.59028 311.96564Q122.80903 311.96564 122.27778 312.5594Q121.76215 313.1375 121.76215 314.34064ZM128.0434 317.45L128.0434 308.85626L129.1059 308.85626L129.1059 317.45L128.0434 317.45ZM135.1059 317.45L135.1059 316.66876Q134.51215 317.59064 133.37152 317.59064Q132.62152 317.59064 131.99652 317.1844Q131.37152 316.7625 131.02777 316.02814Q130.68402 315.29376 130.68402 314.34064Q130.68402 313.41876 130.99652 312.65314Q131.30902 311.8875 131.93402 311.4969Q132.55902 311.09064 133.32465 311.09064Q133.88715 311.09064 134.32465 311.325Q134.76215 311.5594 135.0434 311.9344L135.0434 308.85626L136.09027 308.85626L136.09027 317.45L135.1059 317.45ZM131.77777 314.34064Q131.77777 315.54376 132.27777 316.1375Q132.77777 316.71564 133.46527 316.71564Q134.15277 316.71564 134.63715 316.15314Q135.12152 315.59064 135.12152 314.4344Q135.12152 313.15314 134.62152 312.5594Q134.13715 311.96564 133.4184 311.96564Q132.71527 311.96564 132.24652 312.54376Q131.77777 313.10626 131.77777 314.34064ZM146.32465 316.4344L146.32465 317.45L140.63715 317.45Q140.63715 317.075 140.76215 316.71564Q140.9809 316.1375 141.44965 315.575Q141.93402 315.0125 142.84027 314.27814Q144.24652 313.1219 144.7309 312.45Q145.2309 311.77814 145.2309 311.1844Q145.2309 310.5594 144.77777 310.1375Q144.32465 309.7 143.6059 309.7Q142.84027 309.7 142.38715 310.15314Q141.93402 310.60626 141.9184 311.41876L140.84027 311.3094Q140.94965 310.09064 141.6684 309.46564Q142.40277 308.825 143.63715 308.825Q144.87152 308.825 145.59027 309.5125Q146.30902 310.2 146.30902 311.21564Q146.30902 311.73126 146.09027 312.23126Q145.88715 312.71564 145.38715 313.27814Q144.90277 313.825 143.77777 314.77814Q142.82465 315.575 142.5434 315.8719Q142.27777 316.15314 142.1059 316.4344L146.32465 316.4344Z" fill-rule="nonzero"/><path fill="#000000" d="M170.10243 317.45L170.10243 312.04376L169.16493 312.04376L169.16493 311.23126L170.10243 311.23126L170.10243 310.5594Q170.10243 309.9344 170.2118 309.6375Q170.36806 309.21564 170.74306 308.96564Q171.13368 308.71564 171.82118 308.71564Q172.2743 308.71564 172.80556 308.825L172.6493 309.73126Q172.32118 309.6844 172.0243 309.6844Q171.53993 309.6844 171.3368 309.8875Q171.1493 310.09064 171.1493 310.65314L171.1493 311.23126L172.36806 311.23126L172.36806 312.04376L171.1493 312.04376L171.1493 317.45L170.10243 317.45ZM172.4618 314.34064Q172.4618 312.60626 173.41493 311.77814Q174.2118 311.09064 175.36806 311.09064Q176.6493 311.09064 177.4618 311.9344Q178.28993 312.7625 178.28993 314.2469Q178.28993 315.45 177.93056 316.1375Q177.57118 316.825 176.86806 317.21564Q176.18056 317.59064 175.36806 317.59064Q174.07118 317.59064 173.25868 316.7625Q172.4618 315.91876 172.4618 314.34064ZM173.53993 314.34064Q173.53993 315.52814 174.05556 316.1219Q174.5868 316.71564 175.36806 316.71564Q176.16493 316.71564 176.68056 316.1219Q177.19618 315.52814 177.19618 314.3094Q177.19618 313.15314 176.66493 312.5594Q176.1493 311.96564 175.36806 311.96564Q174.5868 311.96564 174.05556 312.5594Q173.53993 313.1375 173.53993 314.34064ZM179.82118 317.45L179.82118 308.85626L180.88368 308.85626L180.88368 317.45L179.82118 317.45ZM186.88368 317.45L186.88368 316.66876Q186.28993 317.59064 185.1493 317.59064Q184.3993 317.59064 183.7743 317.1844Q183.1493 316.7625 182.80556 316.02814Q182.4618 315.29376 182.4618 314.34064Q182.4618 313.41876 182.7743 312.65314Q183.0868 311.8875 183.7118 311.4969Q184.3368 311.09064 185.10243 311.09064Q185.66493 311.09064 186.10243 311.325Q186.53993 311.5594 186.82118 311.9344L186.82118 308.85626L187.86806 308.85626L187.86806 317.45L186.88368 317.45ZM183.55556 314.34064Q183.55556 315.54376 184.05556 316.1375Q184.55556 316.71564 185.24306 316.71564Q185.93056 316.71564 186.41493 316.15314Q186.8993 315.59064 186.8993 314.4344Q186.8993 313.15314 186.3993 312.5594Q185.91493 311.96564 185.19618 311.96564Q184.49306 311.96564 184.0243 312.54376Q183.55556 313.10626 183.55556 314.34064ZM192.55556 315.1844L193.61806 315.04376Q193.78993 315.9344 194.22743 316.34064Q194.66493 316.73126 195.28993 316.73126Q196.03993 316.73126 196.55556 316.21564Q197.07118 315.7 197.07118 314.9344Q197.07118 314.21564 196.5868 313.7469Q196.11806 313.2625 195.38368 313.2625Q195.0868 313.2625 194.63368 313.3875L194.75868 312.45Q194.86806 312.46564 194.93056 312.46564Q195.60243 312.46564 196.13368 312.1219Q196.68056 311.7625 196.68056 311.02814Q196.68056 310.45 196.28993 310.075Q195.8993 309.6844 195.2743 309.6844Q194.66493 309.6844 194.24306 310.075Q193.8368 310.46564 193.72743 311.23126L192.66493 311.04376Q192.85243 309.9969 193.53993 309.41876Q194.22743 308.825 195.24306 308.825Q195.94618 308.825 196.53993 309.1375Q197.13368 309.4344 197.44618 309.95Q197.75868 310.46564 197.75868 311.0594Q197.75868 311.60626 197.4618 312.075Q197.16493 312.52814 196.5868 312.79376Q197.3368 312.96564 197.75868 313.52814Q198.18056 314.075 198.18056 314.91876Q198.18056 316.04376 197.35243 316.825Q196.53993 317.60626 195.28993 317.60626Q194.16493 317.60626 193.41493 316.9344Q192.66493 316.2469 192.55556 315.1844Z" fill-rule="nonzero"/><path fill="#000000" d="M221.8802 317.45L221.8802 312.04376L220.9427 312.04376L220.9427 311.23126L221.8802 311.23126L221.8802 310.5594Q221.8802 309.9344 221.98958 309.6375Q222.14583 309.21564 222.52083 308.96564Q222.91145 308.71564 223.59895 308.71564Q224.05208 308.71564 224.58333 308.825L224.42708 309.73126Q224.09895 309.6844 223.80208 309.6844Q223.3177 309.6844 223.11458 309.8875Q222.92708 310.09064 222.92708 310.65314L222.92708 311.23126L224.14583 311.23126L224.14583 312.04376L222.92708 312.04376L222.92708 317.45L221.8802 317.45ZM224.23958 314.34064Q224.23958 312.60626 225.1927 311.77814Q225.98958 311.09064 227.14583 311.09064Q228.42708 311.09064 229.23958 311.9344Q230.0677 312.7625 230.0677 314.2469Q230.0677 315.45 229.70833 316.1375Q229.34895 316.825 228.64583 317.21564Q227.95833 317.59064 227.14583 317.59064Q225.84895 317.59064 225.03645 316.7625Q224.23958 315.91876 224.23958 314.34064ZM225.3177 314.34064Q225.3177 315.52814 225.83333 316.1219Q226.36458 316.71564 227.14583 316.71564Q227.9427 316.71564 228.45833 316.1219Q228.97395 315.52814 228.97395 314.3094Q228.97395 313.15314 228.4427 312.5594Q227.92708 311.96564 227.14583 311.96564Q226.36458 311.96564 225.83333 312.5594Q225.3177 313.1375 225.3177 314.34064ZM231.59895 317.45L231.59895 308.85626L232.66145 308.85626L232.66145 317.45L231.59895 317.45ZM238.66145 317.45L238.66145 316.66876Q238.0677 317.59064 236.92708 317.59064Q236.17708 317.59064 235.55208 317.1844Q234.92708 316.7625 234.58333 316.02814Q234.23958 315.29376 234.23958 314.34064Q234.23958 313.41876 234.55208 312.65314Q234.86458 311.8875 235.48958 311.4969Q236.11458 311.09064 236.8802 311.09064Q237.4427 311.09064 237.8802 311.325Q238.3177 311.5594 238.59895 311.9344L238.59895 308.85626L239.64583 308.85626L239.64583 317.45L238.66145 317.45ZM235.33333 314.34064Q235.33333 315.54376 235.83333 316.1375Q236.33333 316.71564 237.02083 316.71564Q237.70833 316.71564 238.1927 316.15314Q238.67708 315.59064 238.67708 314.4344Q238.67708 313.15314 238.17708 312.5594Q237.6927 311.96564 236.97395 311.96564Q236.27083 311.96564 235.80208 312.54376Q235.33333 313.10626 235.33333 314.34064ZM247.70833 317.45L247.70833 315.3875L243.98958 315.3875L243.98958 314.41876L247.91145 308.85626L248.77083 308.85626L248.77083 314.41876L249.92708 314.41876L249.92708 315.3875L248.77083 315.3875L248.77083 317.45L247.70833 317.45ZM247.70833 314.41876L247.70833 310.5594L245.02083 314.41876L247.70833 314.41876Z" fill-rule="nonzero"/><path fill="#000000" d="M273.658 317.45L273.658 312.04376L272.7205 312.04376L272.7205 311.23126L273.658 311.23126L273.658 310.5594Q273.658 309.9344 273.76736 309.6375Q273.9236 309.21564 274.2986 308.96564Q274.68924 308.71564 275.37674 308.71564Q275.82986 308.71564 276.3611 308.825L276.20486 309.73126Q275.87674 309.6844 275.57986 309.6844Q275.0955 309.6844 274.89236 309.8875Q274.70486 310.09064 274.70486 310.65314L274.70486 311.23126L275.9236 311.23126L275.9236 312.04376L274.70486 312.04376L274.70486 317.45L273.658 317.45ZM276.01736 314.34064Q276.01736 312.60626 276.9705 311.77814Q277.76736 311.09064 278.9236 311.09064Q280.20486 311.09064 281.01736 311.9344Q281.8455 312.7625 281.8455 314.2469Q281.8455 315.45 281.4861 316.1375Q281.12674 316.825 280.4236 317.21564Q279.7361 317.59064 278.9236 317.59064Q277.62674 317.59064 276.81424 316.7625Q276.01736 315.91876 276.01736 314.34064ZM277.0955 314.34064Q277.0955 315.52814 277.6111 316.1219Q278.14236 316.71564 278.9236 316.71564Q279.7205 316.71564 280.2361 316.1219Q280.75174 315.52814 280.75174 314.3094Q280.75174 313.15314 280.2205 312.5594Q279.70486 311.96564 278.9236 311.96564Q278.14236 311.96564 277.6111 312.5594Q277.0955 313.1375 277.0955 314.34064ZM283.37674 317.45L283.37674 308.85626L284.43924 308.85626L284.43924 317.45L283.37674 317.45ZM290.43924 317.45L290.43924 316.66876Q289.8455 317.59064 288.70486 317.59064Q287.95486 317.59064 287.32986 317.1844Q286.70486 316.7625 286.3611 316.02814Q286.01736 315.29376 286.01736 314.34064Q286.01736 313.41876 286.32986 312.65314Q286.64236 311.8875 287.26736 311.4969Q287.89236 311.09064 288.658 311.09064Q289.2205 311.09064 289.658 311.325Q290.0955 311.5594 290.37674 311.9344L290.37674 308.85626L291.4236 308.85626L291.4236 317.45L290.43924 317.45ZM287.1111 314.34064Q287.1111 315.54376 287.6111 316.1375Q288.1111 316.71564 288.7986 316.71564Q289.4861 316.71564 289.9705 316.15314Q290.45486 315.59064 290.45486 314.4344Q290.45486 313.15314 289.95486 312.5594Q289.4705 311.96564 288.75174 311.96564Q288.0486 311.96564 287.57986 312.54376Q287.1111 313.10626 287.1111 314.34064ZM296.1111 315.2L297.2205 315.10626Q297.3455 315.91876 297.783 316.325Q298.2361 316.73126 298.87674 316.73126Q299.62674 316.73126 300.158 316.15314Q300.68924 315.575 300.68924 314.6375Q300.68924 313.73126 300.1736 313.21564Q299.6736 312.6844 298.8455 312.6844Q298.3455 312.6844 297.9236 312.91876Q297.51736 313.15314 297.283 313.5125L296.2986 313.3875L297.12674 308.98126L301.408 308.98126L301.408 309.98126L297.9705 309.98126L297.51736 312.29376Q298.283 311.7469 299.12674 311.7469Q300.25174 311.7469 301.01736 312.52814Q301.7986 313.3094 301.7986 314.54376Q301.7986 315.7 301.12674 316.5594Q300.2986 317.59064 298.87674 317.59064Q297.70486 317.59064 296.95486 316.9344Q296.2205 316.27814 296.1111 315.2Z" fill-rule="nonzero"/><path fill="#000000" d="M325.43576 317.45L325.43576 312.04376L324.49826 312.04376L324.49826 311.23126L325.43576 311.23126L325.43576 310.5594Q325.43576 309.9344 325.54514 309.6375Q325.7014 309.21564 326.0764 308.96564Q326.467 308.71564 327.1545 308.71564Q327.60764 308.71564 328.1389 308.825L327.98264 309.73126Q327.6545 309.6844 327.35764 309.6844Q326.87326 309.6844 326.67014 309.8875Q326.48264 310.09064 326.48264 310.65314L326.48264 311.23126L327.7014 311.23126L327.7014 312.04376L326.48264 312.04376L326.48264 317.45L325.43576 317.45ZM327.79514 314.34064Q327.79514 312.60626 328.74826 311.77814Q329.54514 311.09064 330.7014 311.09064Q331.98264 311.09064 332.79514 311.9344Q333.62326 312.7625 333.62326 314.2469Q333.62326 315.45 333.2639 316.1375Q332.9045 316.825 332.2014 317.21564Q331.5139 317.59064 330.7014 317.59064Q329.4045 317.59064 328.592 316.7625Q327.79514 315.91876 327.79514 314.34064ZM328.87326 314.34064Q328.87326 315.52814 329.3889 316.1219Q329.92014 316.71564 330.7014 316.71564Q331.49826 316.71564 332.0139 316.1219Q332.5295 315.52814 332.5295 314.3094Q332.5295 313.15314 331.99826 312.5594Q331.48264 311.96564 330.7014 311.96564Q329.92014 311.96564 329.3889 312.5594Q328.87326 313.1375 328.87326 314.34064ZM335.1545 317.45L335.1545 308.85626L336.217 308.85626L336.217 317.45L335.1545 317.45ZM342.217 317.45L342.217 316.66876Q341.62326 317.59064 340.48264 317.59064Q339.73264 317.59064 339.10764 317.1844Q338.48264 316.7625 338.1389 316.02814Q337.79514 315.29376 337.79514 314.34064Q337.79514 313.41876 338.10764 312.65314Q338.42014 311.8875 339.04514 311.4969Q339.67014 311.09064 340.43576 311.09064Q340.99826 311.09064 341.43576 311.325Q341.87326 311.5594 342.1545 311.9344L342.1545 308.85626L343.2014 308.85626L343.2014 317.45L342.217 317.45ZM338.8889 314.34064Q338.8889 315.54376 339.3889 316.1375Q339.8889 316.71564 340.5764 316.71564Q341.2639 316.71564 341.74826 316.15314Q342.23264 315.59064 342.23264 314.4344Q342.23264 313.15314 341.73264 312.5594Q341.24826 311.96564 340.5295 311.96564Q339.8264 311.96564 339.35764 312.54376Q338.8889 313.10626 338.8889 314.34064ZM353.35764 310.96564L352.31076 311.04376Q352.17014 310.41876 351.92014 310.1375Q351.48264 309.6844 350.85764 309.6844Q350.35764 309.6844 349.967 309.96564Q349.48264 310.34064 349.18576 311.04376Q348.9045 311.73126 348.8889 313.0125Q349.2639 312.4344 349.81076 312.15314Q350.37326 311.8719 350.98264 311.8719Q352.0295 311.8719 352.7639 312.65314Q353.5139 313.4344 353.5139 314.65314Q353.5139 315.46564 353.1545 316.16876Q352.81076 316.85626 352.2014 317.23126Q351.592 317.59064 350.8264 317.59064Q349.49826 317.59064 348.67014 316.6219Q347.842 315.65314 347.842 313.4344Q347.842 310.9344 348.7639 309.8094Q349.56076 308.825 350.92014 308.825Q351.93576 308.825 352.5764 309.40314Q353.23264 309.96564 353.35764 310.96564ZM349.06076 314.66876Q349.06076 315.21564 349.2795 315.71564Q349.5139 316.2 349.92014 316.46564Q350.342 316.73126 350.81076 316.73126Q351.467 316.73126 351.9514 316.2Q352.43576 315.65314 352.43576 314.73126Q352.43576 313.84064 351.9514 313.325Q351.48264 312.8094 350.7639 312.8094Q350.04514 312.8094 349.54514 313.325Q349.06076 313.84064 349.06076 314.66876Z" fill-rule="nonzero"/><path fill="#000000" d="M377.21353 317.45L377.21353 312.04376L376.27603 312.04376L376.27603 311.23126L377.21353 311.23126L377.21353 310.5594Q377.21353 309.9344 377.3229 309.6375Q377.47916 309.21564 377.85416 308.96564Q378.24478 308.71564 378.93228 308.71564Q379.3854 308.71564 379.91666 308.825L379.7604 309.73126Q379.43228 309.6844 379.1354 309.6844Q378.65103 309.6844 378.4479 309.8875Q378.2604 310.09064 378.2604 310.65314L378.2604 311.23126L379.47916 311.23126L379.47916 312.04376L378.2604 312.04376L378.2604 317.45L377.21353 317.45ZM379.5729 314.34064Q379.5729 312.60626 380.52603 311.77814Q381.3229 311.09064 382.47916 311.09064Q383.7604 311.09064 384.5729 311.9344Q385.40103 312.7625 385.40103 314.2469Q385.40103 315.45 385.04166 316.1375Q384.68228 316.825 383.97916 317.21564Q383.29166 317.59064 382.47916 317.59064Q381.18228 317.59064 380.36978 316.7625Q379.5729 315.91876 379.5729 314.34064ZM380.65103 314.34064Q380.65103 315.52814 381.16666 316.1219Q381.6979 316.71564 382.47916 316.71564Q383.27603 316.71564 383.79166 316.1219Q384.30728 315.52814 384.30728 314.3094Q384.30728 313.15314 383.77603 312.5594Q383.2604 311.96564 382.47916 311.96564Q381.6979 311.96564 381.16666 312.5594Q380.65103 313.1375 380.65103 314.34064ZM386.93228 317.45L386.93228 308.85626L387.99478 308.85626L387.99478 317.45L386.93228 317.45ZM393.99478 317.45L393.99478 316.66876Q393.40103 317.59064 392.2604 317.59064Q391.5104 317.59064 390.8854 317.1844Q390.2604 316.7625 389.91666 316.02814Q389.5729 315.29376 389.5729 314.34064Q389.5729 313.41876 389.8854 312.65314Q390.1979 311.8875 390.8229 311.4969Q391.4479 311.09064 392.21353 311.09064Q392.77603 311.09064 393.21353 311.325Q393.65103 311.5594 393.93228 311.9344L393.93228 308.85626L394.97916 308.85626L394.97916 317.45L393.99478 317.45ZM390.66666 314.34064Q390.66666 315.54376 391.16666 316.1375Q391.66666 316.71564 392.35416 316.71564Q393.04166 316.71564 393.52603 316.15314Q394.0104 315.59064 394.0104 314.4344Q394.0104 313.15314 393.5104 312.5594Q393.02603 311.96564 392.30728 311.96564Q391.60416 311.96564 391.1354 312.54376Q390.66666 313.10626 390.66666 314.34064ZM399.72916 309.98126L399.72916 308.96564L405.29166 308.96564L405.29166 309.79376Q404.47916 310.66876 403.66666 312.1219Q402.86978 313.5594 402.43228 315.09064Q402.10416 316.16876 402.02603 317.45L400.93228 317.45Q400.9479 316.4344 401.3229 314.9969Q401.71353 313.5594 402.41666 312.23126Q403.1354 310.90314 403.9479 309.98126L399.72916 309.98126Z" fill-rule="nonzero"/><path fill="#000000" d="M428.99133 317.45L428.99133 312.04376L428.05383 312.04376L428.05383 311.23126L428.99133 311.23126L428.99133 310.5594Q428.99133 309.9344 429.1007 309.6375Q429.25696 309.21564 429.63196 308.96564Q430.02258 308.71564 430.71008 308.71564Q431.1632 308.71564 431.69446 308.825L431.5382 309.73126Q431.21008 309.6844 430.9132 309.6844Q430.42883 309.6844 430.2257 309.8875Q430.0382 310.09064 430.0382 310.65314L430.0382 311.23126L431.25696 311.23126L431.25696 312.04376L430.0382 312.04376L430.0382 317.45L428.99133 317.45ZM431.3507 314.34064Q431.3507 312.60626 432.30383 311.77814Q433.1007 311.09064 434.25696 311.09064Q435.5382 311.09064 436.3507 311.9344Q437.17883 312.7625 437.17883 314.2469Q437.17883 315.45 436.81946 316.1375Q436.46008 316.825 435.75696 317.21564Q435.06946 317.59064 434.25696 317.59064Q432.96008 317.59064 432.14758 316.7625Q431.3507 315.91876 431.3507 314.34064ZM432.42883 314.34064Q432.42883 315.52814 432.94446 316.1219Q433.4757 316.71564 434.25696 316.71564Q435.05383 316.71564 435.56946 316.1219Q436.08508 315.52814 436.08508 314.3094Q436.08508 313.15314 435.55383 312.5594Q435.0382 311.96564 434.25696 311.96564Q433.4757 311.96564 432.94446 312.5594Q432.42883 313.1375 432.42883 314.34064ZM438.71008 317.45L438.71008 308.85626L439.77258 308.85626L439.77258 317.45L438.71008 317.45ZM445.77258 317.45L445.77258 316.66876Q445.17883 317.59064 444.0382 317.59064Q443.2882 317.59064 442.6632 317.1844Q442.0382 316.7625 441.69446 316.02814Q441.3507 315.29376 441.3507 314.34064Q441.3507 313.41876 441.6632 312.65314Q441.9757 311.8875 442.6007 311.4969Q443.2257 311.09064 443.99133 311.09064Q444.55383 311.09064 444.99133 311.325Q445.42883 311.5594 445.71008 311.9344L445.71008 308.85626L446.75696 308.85626L446.75696 317.45L445.77258 317.45ZM442.44446 314.34064Q442.44446 315.54376 442.94446 316.1375Q443.44446 316.71564 444.13196 316.71564Q444.81946 316.71564 445.30383 316.15314Q445.7882 315.59064 445.7882 314.4344Q445.7882 313.15314 445.2882 312.5594Q444.80383 311.96564 444.08508 311.96564Q443.38196 311.96564 442.9132 312.54376Q442.44446 313.10626 442.44446 314.34064ZM453.06946 312.79376Q452.4132 312.54376 452.08508 312.10626Q451.77258 311.65314 451.77258 311.04376Q451.77258 310.10626 452.44446 309.46564Q453.13196 308.825 454.24133 308.825Q455.36633 308.825 456.05383 309.48126Q456.74133 310.1375 456.74133 311.075Q456.74133 311.66876 456.42883 312.10626Q456.11633 312.54376 455.4757 312.79376Q456.27258 313.04376 456.67883 313.6219Q457.08508 314.2 457.08508 314.9969Q457.08508 316.09064 456.30383 316.84064Q455.5382 317.59064 454.25696 317.59064Q452.99133 317.59064 452.21008 316.84064Q451.42883 316.09064 451.42883 314.96564Q451.42883 314.1219 451.8507 313.5594Q452.2882 312.9969 453.06946 312.79376ZM452.8507 310.9969Q452.8507 311.60626 453.24133 311.9969Q453.64758 312.3875 454.27258 312.3875Q454.88196 312.3875 455.27258 312.0125Q455.6632 311.6219 455.6632 311.0594Q455.6632 310.48126 455.25696 310.09064Q454.8507 309.6844 454.25696 309.6844Q453.64758 309.6844 453.24133 310.075Q452.8507 310.46564 452.8507 310.9969ZM452.52258 314.96564Q452.52258 315.41876 452.7257 315.84064Q452.94446 316.2625 453.36633 316.4969Q453.7882 316.73126 454.27258 316.73126Q455.02258 316.73126 455.50696 316.2469Q456.00696 315.7625 456.00696 315.0125Q456.00696 314.2469 455.50696 313.7469Q455.00696 313.2469 454.24133 313.2469Q453.49133 313.2469 453.00696 313.7469Q452.52258 314.23126 452.52258 314.96564Z" fill-rule="nonzero"/><path fill="#000000" d="M480.7691 317.45L480.7691 312.04376L479.8316 312.04376L479.8316 311.23126L480.7691 311.23126L480.7691 310.5594Q480.7691 309.9344 480.87848 309.6375Q481.03473 309.21564 481.40973 308.96564Q481.80035 308.71564 482.48785 308.71564Q482.94098 308.71564 483.47223 308.825L483.31598 309.73126Q482.98785 309.6844 482.69098 309.6844Q482.2066 309.6844 482.00348 309.8875Q481.81598 310.09064 481.81598 310.65314L481.81598 311.23126L483.03473 311.23126L483.03473 312.04376L481.81598 312.04376L481.81598 317.45L480.7691 317.45ZM483.12848 314.34064Q483.12848 312.60626 484.0816 311.77814Q484.87848 311.09064 486.03473 311.09064Q487.31598 311.09064 488.12848 311.9344Q488.9566 312.7625 488.9566 314.2469Q488.9566 315.45 488.59723 316.1375Q488.23785 316.825 487.53473 317.21564Q486.84723 317.59064 486.03473 317.59064Q484.73785 317.59064 483.92535 316.7625Q483.12848 315.91876 483.12848 314.34064ZM484.2066 314.34064Q484.2066 315.52814 484.72223 316.1219Q485.25348 316.71564 486.03473 316.71564Q486.8316 316.71564 487.34723 316.1219Q487.86285 315.52814 487.86285 314.3094Q487.86285 313.15314 487.3316 312.5594Q486.81598 311.96564 486.03473 311.96564Q485.25348 311.96564 484.72223 312.5594Q484.2066 313.1375 484.2066 314.34064ZM490.48785 317.45L490.48785 308.85626L491.55035 308.85626L491.55035 317.45L490.48785 317.45ZM497.55035 317.45L497.55035 316.66876Q496.9566 317.59064 495.81598 317.59064Q495.06598 317.59064 494.44098 317.1844Q493.81598 316.7625 493.47223 316.02814Q493.12848 315.29376 493.12848 314.34064Q493.12848 313.41876 493.44098 312.65314Q493.75348 311.8875 494.37848 311.4969Q495.00348 311.09064 495.7691 311.09064Q496.3316 311.09064 496.7691 311.325Q497.2066 311.5594 497.48785 311.9344L497.48785 308.85626L498.53473 308.85626L498.53473 317.45L497.55035 317.45ZM494.22223 314.34064Q494.22223 315.54376 494.72223 316.1375Q495.22223 316.71564 495.90973 316.71564Q496.59723 316.71564 497.0816 316.15314Q497.56598 315.59064 497.56598 314.4344Q497.56598 313.15314 497.06598 312.5594Q496.5816 311.96564 495.86285 311.96564Q495.15973 311.96564 494.69098 312.54376Q494.22223 313.10626 494.22223 314.34064ZM503.37848 315.46564L504.3941 315.3719Q504.5191 316.09064 504.87848 316.41876Q505.25348 316.73126 505.81598 316.73126Q506.30035 316.73126 506.65973 316.5125Q507.03473 316.27814 507.2691 315.91876Q507.50348 315.54376 507.65973 314.91876Q507.81598 314.27814 507.81598 313.6219Q507.81598 313.54376 507.81598 313.40314Q507.50348 313.90314 506.9566 314.23126Q506.40973 314.54376 505.7691 314.54376Q504.69098 314.54376 503.9566 313.77814Q503.22223 312.9969 503.22223 311.73126Q503.22223 310.41876 503.98785 309.6219Q504.7691 308.825 505.92535 308.825Q506.75348 308.825 507.44098 309.27814Q508.1441 309.73126 508.50348 310.575Q508.86285 311.40314 508.86285 312.98126Q508.86285 314.6219 508.50348 315.60626Q508.15973 316.575 507.44098 317.09064Q506.73785 317.59064 505.80035 317.59064Q504.78473 317.59064 504.1441 317.04376Q503.50348 316.48126 503.37848 315.46564ZM507.69098 311.66876Q507.69098 310.7625 507.2066 310.23126Q506.73785 309.7 506.05035 309.7Q505.34723 309.7 504.81598 310.27814Q504.30035 310.84064 504.30035 311.7625Q504.30035 312.575 504.80035 313.09064Q505.30035 313.60626 506.0191 313.60626Q506.75348 313.60626 507.22223 313.09064Q507.69098 312.575 507.69098 311.66876Z" fill-rule="nonzero"/><path fill="#000000" d="M529.0469 317.45L529.0469 312.04376L528.1094 312.04376L528.1094 311.23126L529.0469 311.23126L529.0469 310.5594Q529.0469 309.9344 529.15625 309.6375Q529.3125 309.21564 529.6875 308.96564Q530.0781 308.71564 530.7656 308.71564Q531.21875 308.71564 531.75 308.825L531.59375 309.73126Q531.2656 309.6844 530.96875 309.6844Q530.4844 309.6844 530.28125 309.8875Q530.09375 310.09064 530.09375 310.65314L530.09375 311.23126L531.3125 311.23126L531.3125 312.04376L530.09375 312.04376L530.09375 317.45L529.0469 317.45ZM531.40625 314.34064Q531.40625 312.60626 532.3594 311.77814Q533.15625 311.09064 534.3125 311.09064Q535.59375 311.09064 536.40625 311.9344Q537.2344 312.7625 537.2344 314.2469Q537.2344 315.45 536.875 316.1375Q536.5156 316.825 535.8125 317.21564Q535.125 317.59064 534.3125 317.59064Q533.0156 317.59064 532.2031 316.7625Q531.40625 315.91876 531.40625 314.34064ZM532.4844 314.34064Q532.4844 315.52814 533.0 316.1219Q533.53125 316.71564 534.3125 316.71564Q535.1094 316.71564 535.625 316.1219Q536.1406 315.52814 536.1406 314.3094Q536.1406 313.15314 535.6094 312.5594Q535.09375 311.96564 534.3125 311.96564Q533.53125 311.96564 533.0 312.5594Q532.4844 313.1375 532.4844 314.34064ZM538.7656 317.45L538.7656 308.85626L539.8281 308.85626L539.8281 317.45L538.7656 317.45ZM545.8281 317.45L545.8281 316.66876Q545.2344 317.59064 544.09375 317.59064Q543.34375 317.59064 542.71875 317.1844Q542.09375 316.7625 541.75 316.02814Q541.40625 315.29376 541.40625 314.34064Q541.40625 313.41876 541.71875 312.65314Q542.03125 311.8875 542.65625 311.4969Q543.28125 311.09064 544.0469 311.09064Q544.6094 311.09064 545.0469 311.325Q545.4844 311.5594 545.7656 311.9344L545.7656 308.85626L546.8125 308.85626L546.8125 317.45L545.8281 317.45ZM542.5 314.34064Q542.5 315.54376 543.0 316.1375Q543.5 316.71564 544.1875 316.71564Q544.875 316.71564 545.3594 316.15314Q545.84375 315.59064 545.84375 314.4344Q545.84375 313.15314 545.34375 312.5594Q544.8594 311.96564 544.1406 311.96564Q543.4375 311.96564 542.96875 312.54376Q542.5 313.10626 542.5 314.34064ZM555.46875 317.45L554.4219 317.45L554.4219 310.73126Q554.03125 311.09064 553.40625 311.46564Q552.7969 311.825 552.3125 311.9969L552.3125 310.98126Q553.1875 310.5594 553.84375 309.98126Q554.5156 309.3875 554.7969 308.825L555.46875 308.825L555.46875 317.45ZM558.5 313.21564Q558.5 311.6844 558.8125 310.7625Q559.125 309.825 559.7344 309.325Q560.3594 308.825 561.2969 308.825Q561.9844 308.825 562.5 309.10626Q563.03125 309.3875 563.375 309.91876Q563.71875 310.4344 563.90625 311.1844Q564.09375 311.9344 564.09375 313.21564Q564.09375 314.73126 563.78125 315.65314Q563.4844 316.575 562.8594 317.09064Q562.25 317.59064 561.2969 317.59064Q560.0625 317.59064 559.34375 316.7Q558.5 315.6375 558.5 313.21564ZM559.5781 313.21564Q559.5781 315.325 560.0781 316.02814Q560.5781 316.73126 561.2969 316.73126Q562.03125 316.73126 562.5156 316.02814Q563.0156 315.325 563.0156 313.21564Q563.0156 311.09064 562.5156 310.40314Q562.03125 309.7 561.28125 309.7Q560.5625 309.7 560.125 310.3094Q559.5781 311.09064 559.5781 313.21564Z" fill-rule="nonzero"/><path fill="#4285f4" d="M231.5 56.916668C231.5 56.364384 231.94771 55.916668 232.5 55.916668L242.5 55.916668C243.05229 55.916668 243.5 56.364384 243.5 56.916668L243.5 66.916664C243.5 67.46895 243.05229 67.916664 242.5 67.916664L232.5 67.916664C231.94771 67.916664 231.5 67.46895 231.5 66.916664Z" fill-rule="nonzero"/><path fill="#1a1a1a" d="M252.375 65.916664L252.375 57.322914L253.51562 57.322914L253.51562 64.90104L257.75 64.90104L257.75 65.916664L252.375 65.916664ZM259.42188 65.916664L259.42188 57.322914L262.67188 57.322914Q263.51562 57.322914 263.96875 57.40104Q264.60938 57.510414 265.03125 57.80729Q265.46875 58.104164 265.71875 58.635414Q265.98438 59.166664 265.98438 59.80729Q265.98438 60.90104 265.28125 61.666664Q264.59375 62.416664 262.76562 62.416664L260.5625 62.416664L260.5625 65.916664L259.42188 65.916664ZM260.5625 61.416664L262.78125 61.416664Q263.89062 61.416664 264.34375 61.010414Q264.8125 60.58854 264.8125 59.83854Q264.8125 59.30729 264.53125 58.93229Q264.26562 58.541664 263.82812 58.416664Q263.53125 58.33854 262.76562 58.33854L260.5625 58.33854L260.5625 61.416664Z" fill-rule="nonzero"/><path fill="#ea4335" d="M282.5 56.916668C282.5 56.364384 282.94772 55.916668 283.5 55.916668L293.5 55.916668C294.05228 55.916668 294.5 56.364384 294.5 56.916668L294.5 66.916664C294.5 67.46895 294.05228 67.916664 293.5 67.916664L283.5 67.916664C282.94772 67.916664 282.5 67.46895 282.5 66.916664Z" fill-rule="nonzero"/><path fill="#1a1a1a" d="M303.375 65.916664L303.375 57.322914L304.51562 57.322914L304.51562 64.90104L308.75 64.90104L308.75 65.916664L303.375 65.916664ZM310.4375 65.916664L310.4375 57.322914L314.25 57.322914Q315.40625 57.322914 316.0 57.55729Q316.59375 57.791664 316.95312 58.385414Q317.3125 58.96354 317.3125 59.666664Q317.3125 60.58854 316.71875 61.21354Q316.125 61.83854 314.89062 62.010414Q315.34375 62.229164 315.57812 62.43229Q316.07812 62.885414 316.51562 63.572914L318.01562 65.916664L316.57812 65.916664L315.45312 64.135414Q314.95312 63.354164 314.625 62.947914Q314.3125 62.541664 314.04688 62.385414Q313.79688 62.21354 313.53125 62.135414Q313.34375 62.104164 312.90625 62.104164L311.57812 62.104164L311.57812 65.916664L310.4375 65.916664ZM311.57812 61.11979L314.03125 61.11979Q314.79688 61.11979 315.23438 60.96354Q315.6875 60.791664 315.90625 60.447914Q316.14062 60.08854 316.14062 59.666664Q316.14062 59.05729 315.6875 58.666664Q315.25 58.27604 314.29688 58.27604L311.57812 58.27604L311.57812 61.11979Z" fill-rule="nonzero"/><path fill="#fbbc04" d="M334.5 56.916668C334.5 56.364384 334.94772 55.916668 335.5 55.916668L345.5 55.916668C346.05228 55.916668 346.5 56.364384 346.5 56.916668L346.5 66.916664C346.5 67.46895 346.05228 67.916664 345.5 67.916664L335.5 67.916664C334.94772 67.916664 334.5 67.46895 334.5 66.916664Z" fill-rule="nonzero"/><path fill="#1a1a1a" d="M355.48438 65.916664L355.48438 57.322914L361.28125 57.322914L361.28125 58.33854L356.625 58.33854L356.625 60.99479L360.65625 60.99479L360.65625 62.010414L356.625 62.010414L356.625 65.916664L355.48438 65.916664ZM365.96875 65.916664L364.92188 65.916664L364.92188 59.197914Q364.53125 59.55729 363.90625 59.93229Q363.29688 60.291664 362.8125 60.46354L362.8125 59.447914Q363.6875 59.02604 364.34375 58.447914Q365.01562 57.854164 365.29688 57.291664L365.96875 57.291664L365.96875 65.916664Z" fill-rule="nonzero"/><path fill="#757575" d="M20.096874 37.55L20.096874 23.2375L25.4875 23.2375Q26.925 23.2375 27.675 23.3625Q28.721874 23.55 29.440624 24.05Q30.159374 24.534374 30.58125 25.425Q31.01875 26.315624 31.01875 27.378124Q31.01875 29.20625 29.846874 30.471874Q28.690624 31.721874 25.659374 31.721874L21.9875 31.721874L21.9875 37.55L20.096874 37.55ZM21.9875 30.034374L25.690624 30.034374Q27.51875 30.034374 28.284374 29.3625Q29.065624 28.675 29.065624 27.425Q29.065624 26.534374 28.6125 25.89375Q28.159374 25.253124 27.425 25.05Q26.940624 24.925 25.64375 24.925L21.9875 24.925L21.9875 30.034374ZM43.315624 32.534374L45.20625 33.003124Q44.6125 35.346874 43.065624 36.58125Q41.51875 37.8 39.26875 37.8Q36.95625 37.8 35.503124 36.8625Q34.065624 35.909374 33.3 34.128124Q32.55 32.33125 32.55 30.284374Q32.55 28.05 33.39375 26.39375Q34.253124 24.721874 35.83125 23.8625Q37.409374 22.9875 39.3 22.9875Q41.45625 22.9875 42.909374 24.08125Q44.378124 25.175 44.95625 27.159374L43.096874 27.596874Q42.596874 26.034374 41.64375 25.33125Q40.70625 24.6125 39.26875 24.6125Q37.6125 24.6125 36.503124 25.409374Q35.39375 26.190624 34.940624 27.534374Q34.503124 28.8625 34.503124 30.26875Q34.503124 32.096874 35.034374 33.471874Q35.565624 34.83125 36.690624 35.503124Q37.815624 36.175 39.1125 36.175Q40.70625 36.175 41.815624 35.253124Q42.925 34.33125 43.315624 32.534374ZM47.190624 37.55L47.190624 23.2375L56.846874 23.2375L56.846874 24.925L49.08125 24.925L49.08125 29.3625L55.8 29.3625L55.8 31.05L49.08125 31.05L49.08125 37.55L47.190624 37.55ZM65.8 31.940624L65.8 30.253124L71.8625 30.2375L71.8625 35.55Q70.45625 36.675 68.97188 37.2375Q67.4875 37.8 65.925 37.8Q63.815624 37.8 62.096874 36.89375Q60.378124 35.9875 59.4875 34.284374Q58.6125 32.565624 58.6125 30.45625Q58.6125 28.3625 59.4875 26.565624Q60.3625 24.753124 62.003124 23.878124Q63.64375 22.9875 65.78438 22.9875Q67.33125 22.9875 68.58125 23.4875Q69.84688 23.9875 70.55 24.89375Q71.26875 25.784374 71.64375 27.2375L69.94063 27.70625Q69.6125 26.6125 69.12813 25.9875Q68.65938 25.3625 67.76875 24.9875Q66.87813 24.6125 65.8 24.6125Q64.4875 24.6125 63.534374 25.003124Q62.596874 25.39375 62.01875 26.05Q61.440624 26.690624 61.1125 27.45625Q60.565624 28.784374 60.565624 30.346874Q60.565624 32.253124 61.221874 33.55Q61.89375 34.83125 63.14375 35.45625Q64.40938 36.08125 65.81563 36.08125Q67.05 36.08125 68.22188 35.6125Q69.39375 35.14375 70.00313 34.596874L70.00313 31.940624L65.8 31.940624ZM74.19063 33.253124L74.19063 31.4875L79.58125 31.4875L79.58125 33.253124L74.19063 33.253124ZM92.31563 32.534374L94.20625 33.003124Q93.6125 35.346874 92.06563 36.58125Q90.51875 37.8 88.26875 37.8Q85.95625 37.8 84.50313 36.8625Q83.06563 35.909374 82.3 34.128124Q81.55 32.33125 81.55 30.284374Q81.55 28.05 82.39375 26.39375Q83.25313 24.721874 84.83125 23.8625Q86.40938 22.9875 88.3 22.9875Q90.45625 22.9875 91.90938 24.08125Q93.37813 25.175 93.95625 27.159374L92.09688 27.596874Q91.59688 26.034374 90.64375 25.33125Q89.70625 24.6125 88.26875 24.6125Q86.6125 24.6125 85.50313 25.409374Q84.39375 26.190624 83.94063 27.534374Q83.50313 28.8625 83.50313 30.26875Q83.50313 32.096874 84.03438 33.471874Q84.56563 34.83125 85.69063 35.503124Q86.81563 36.175 88.1125 36.175Q89.70625 36.175 90.81563 35.253124Q91.925 34.33125 92.31563 32.534374ZM95.87813 25.253124L95.87813 23.2375L97.64375 23.2375L97.64375 25.253124L95.87813 25.253124ZM95.87813 37.55L95.87813 27.175L97.64375 27.175L97.64375 37.55L95.87813 37.55ZM99.8625 37.55L99.8625 27.175L101.45625 27.175L101.45625 28.659374Q102.59688 26.940624 104.75313 26.940624Q105.69063 26.940624 106.47188 27.284374Q107.26875 27.6125 107.65938 28.159374Q108.05 28.70625 108.20625 29.45625Q108.3 29.95625 108.3 31.175L108.3 37.55L106.53438 37.55L106.53438 31.2375Q106.53438 30.159374 106.33125 29.628124Q106.12813 29.096874 105.59688 28.784374Q105.08125 28.471874 104.37813 28.471874Q103.25313 28.471874 102.44063 29.190624Q101.62813 29.89375 101.62813 31.878124L101.62813 37.55L99.8625 37.55ZM114.70625 35.971874L114.95625 37.534374Q114.22188 37.690624 113.62813 37.690624Q112.675 37.690624 112.14375 37.39375Q111.62813 37.08125 111.40938 36.596874Q111.19063 36.096874 111.19063 34.51875L111.19063 28.55L109.90938 28.55L109.90938 27.175L111.19063 27.175L111.19063 24.6125L112.94063 23.55L112.94063 27.175L114.70625 27.175L114.70625 28.55L112.94063 28.55L112.94063 34.6125Q112.94063 35.3625 113.03438 35.58125Q113.12813 35.784374 113.33125 35.925Q113.55 36.05 113.94063 36.05Q114.22188 36.05 114.70625 35.971874ZM116.87813 25.253124L116.87813 23.2375L118.64375 23.2375L118.64375 25.253124L116.87813 25.253124ZM116.87813 37.55L116.87813 27.175L118.64375 27.175L118.64375 37.55L116.87813 37.55ZM120.83125 37.55L120.83125 23.2375L122.58125 23.2375L122.58125 37.55L120.83125 37.55Z" fill-rule="nonzero"/></svg>