<svg version="1.1" viewBox="0.0 0.0 600.0 371.0" fill="none" stroke="none" stroke-linecap="square" stroke-miterlimit="10" width="600" height="371" xmlns:xlink="http://www.w3.org/1999/xlink" xmlns="http://www.w3.org/2000/svg"><path fill="#ffffff" d="M0 0L600.0 0L600.0 371.0L0 371.0L0 0Z" fill-rule="nonzero"/><path stroke="#333333" stroke-width="1.0" stroke-linecap="butt" d="M45.5 332.5L581.5 332.5" fill-rule="nonzero"/><path stroke="#cccccc" stroke-width="1.0" stroke-linecap="butt" d="M45.5 271.5L581.5 271.5" fill-rule="nonzero"/><path stroke="#cccccc" stroke-width="1.0" stroke-linecap="butt" d="M45.5 210.5L581.5 210.5" fill-rule="nonzero"/><path stroke="#cccccc" stroke-width="1.0" stroke-linecap="butt" d="M45.5 149.5L581.5 149.5" fill-rule="nonzero"/><path stroke="#cccccc" stroke-width="1.0" stroke-linecap="butt" d="M45.5 88.5L581.5 88.5" fill-rule="nonzero"/><clipPath id="id_0"><path d="M45.55 88.28333L581.45 88.28333L581.45 332.45L45.55 332.45L45.55 88.28333Z" clip-rule="nonzero"/></clipPath><path stroke="#000000" stroke-width="0.0" stroke-linecap="butt" stroke-opacity="0.0" clip-path="url(#id_0)" d="M75.0 332.0L65.0 332.0L65.0 193.0C65.0 191.89543 65.89543 191.0 67.0 191.0L73.0 191.0C74.10457 191.0 75.0 191.89543 75.0 193.0Z" fill-rule="nonzero"/><path fill="#4285f4" clip-path="url(#id_0)" d="M75.0 332.0L65.0 332.0L65.0 193.0C65.0 191.89543 65.89543 191.0 67.0 191.0L73.0 191.0C74.10457 191.0 75.0 191.89543 75.0 193.0Z" fill-rule="nonzero"/><path stroke="#000000" stroke-width="0.0" stroke-linecap="butt" stroke-opacity="0.0" clip-path="url(#id_0)" d="M126.0 332.0L116.0 332.0L116.0 182.0C116.0 180.89543 116.89543 180.0 118.0 180.0L124.0 180.0C125.10457 180.0 126.0 180.89543 126.0 182.0Z" fill-rule="nonzero"/><path fill="#4285f4" clip-path="url(#id_0)" d="M126.0 332.0L116.0 332.0L116.0 182.0C116.0 180.89543 116.89543 180.0 118.0 180.0L124.0 180.0C125.10457 180.0 126.0 180.89543 126.0 182.0Z" fill-rule="nonzero"/><path stroke="#000000" stroke-width="0.0" stroke-linecap="butt" stroke-opacity="0.0" clip-path="url(#id_0)" d="M178.0 332.0L168.0 332.0L168.0 198.0C168.0 196.89543 168.89543 196.0 170.0 196.0L176.0 196.0C177.10457 196.0 178.0 196.89543 178.0 198.0Z" fill-rule="nonzero"/><path fill="#4285f4" clip-path="url(#id_0)" d="M178.0 332.0L168.0 332.0L168.0 198.0C168.0 196.89543 168.89543 196.0 170.0 196.0L176.0 196.0C177.10457 196.0 178.0 196.89543 178.0 198.0Z" fill-rule="nonzero"/><path stroke="#000000" stroke-width="0.0" stroke-linecap="butt" stroke-opacity="0.0" clip-path="url(#id_0)" d="M230.0 332.0L220.0 332.0L220.0 203.0C220.0 201.89543 220.89543 201.0 222.0 201.0L228.0 201.0C229.10457 201.0 230.0 201.89543 230.0 203.0Z" fill-rule="nonzero"/><path fill="#4285f4" clip-path="url(#id_0)" d="M230.0 332.0L220.0 332.0L220.0 203.0C220.0 201.89543 220.89543 201.0 222.0 201.0L228.0 201.0C229.10457 201.0 230.0 201.89543 230.0 203.0Z" fill-rule="nonzero"/><path stroke="#000000" stroke-width="0.0" stroke-linecap="butt" stroke-opacity="0.0" clip-path="url(#id_0)" d="M282.0 332.0L272.0 332.0L272.0 184.0C272.0 182.89543 272.89542 182.0 274.0 182.0L280.0 182.0C281.10458 182.0 282.0 182.89543 282.0 184.0Z" fill-rule="nonzero"/><path fill="#4285f4" clip-path="url(#id_0)" d="M282.0 332.0L272.0 332.0L272.0 184.0C272.0 182.89543 272.89542 182.0 274.0 182.0L280.0 182.0C281.10458 182.0 282.0 182.89543 282.0 184.0Z" fill-rule="nonzero"/><path stroke="#000000" stroke-width="0.0" stroke-linecap="butt" stroke-opacity="0.0" clip-path="url(#id_0)" d="M333.0 332.0L323.0 332.0L323.0 191.0C323.0 189.89543 323.89542 189.0 325.0 189.0L331.0 189.0C332.10458 189.0 333.0 189.89543 333.0 191.0Z" fill-rule="nonzero"/><path fill="#4285f4" clip-path="url(#id_0)" d="M333.0 332.0L323.0 332.0L323.0 191.0C323.0 189.89543 323.89542 189.0 325.0 189.0L331.0 189.0C332.10458 189.0 333.0 189.89543 333.0 191.0Z" fill-rule="nonzero"/><path stroke="#000000" stroke-width="0.0" stroke-linecap="butt" stroke-opacity="0.0" clip-path="url(#id_0)" d="M385.0 332.0L375.0 332.0L375.0 182.0C375.0 180.89543 375.89542 180.0 377.0 180.0L383.0 180.0C384.10458 180.0 385.0 180.89543 385.0 182.0Z" fill-rule="nonzero"/><path fill="#4285f4" clip-path="url(#id_0)" d="M385.0 332.0L375.0 332.0L375.0 182.0C375.0 180.89543 375.89542 180.0 377.0 180.0L383.0 180.0C384.10458 180.0 385.0 180.89543 385.0 182.0Z" fill-rule="nonzero"/><path stroke="#000000" stroke-width="0.0" stroke-linecap="butt" stroke-opacity="0.0" clip-path="url(#id_0)" d="M437.0 332.0L427.0 332.0L427.0 205.0C427.0 203.89543 427.89542 203.0 429.0 203.0L435.0 203.0C436.10458 203.0 437.0 203.89543 437.0 205.0Z" fill-rule="nonzero"/><path fill="#4285f4" clip-path="url(#id_0)" d="M437.0 332.0L427.0 332.0L427.0 205.0C427.0 203.89543 427.89542 203.0 429.0 203.0L435.0 203.0C436.10458 203.0 437.0 203.89543 437.0 205.0Z" fill-rule="nonzero"/><path stroke="#000000" stroke-width="0.0" stroke-linecap="butt" stroke-opacity="0.0" clip-path="url(#id_0)" d="M489.0 332.0L479.0 332.0L479.0 184.0C479.0 182.89543 479.89542 182.0 481.0 182.0L487.0 182.0C488.10458 182.0 489.0 182.89543 489.0 184.0Z" fill-rule="nonzero"/><path fill="#4285f4" clip-path="url(#id_0)" d="M489.0 332.0L479.0 332.0L479.0 184.0C479.0 182.89543 479.89542 182.0 481.0 182.0L487.0 182.0C488.10458 182.0 489.0 182.89543 489.0 184.0Z" fill-rule="nonzero"/><path stroke="#000000" stroke-width="0.0" stroke-linecap="butt" stroke-opacity="0.0" clip-path="url(#id_0)" d="M541.0 332.0L531.0 332.0L531.0 180.0C531.0 178.89543 531.89545 178.0 533.0 178.0L539.0 178.0C540.10455 178.0 541.0 178.89543 541.0 180.0Z" fill-rule="nonzero"/><path fill="#4285f4" clip-path="url(#id_0)" d="M541.0 332.0L531.0 332.0L531.0 180.0C531.0 178.89543 531.89545 178.0 533.0 178.0L539.0 178.0C540.10455 178.0 541.0 178.89543 541.0 180.0Z" fill-rule="nonzero"/><path stroke="#000000" stroke-width="0.0" stroke-linecap="butt" stroke-opacity="0.0" clip-path="url(#id_0)" d="M86.0 332.0L76.0 332.0L76.0 173.0C76.0 171.89543 76.89543 171.0 78.0 171.0L84.0 171.0C85.10457 171.0 86.0 171.89543 86.0 173.0Z" fill-rule="nonzero"/><path fill="#ea4335" clip-path="url(#id_0)" d="M86.0 332.0L76.0 332.0L76.0 173.0C76.0 171.89543 76.89543 171.0 78.0 171.0L84.0 171.0C85.10457 171.0 86.0 171.89543 86.0 173.0Z" fill-rule="nonzero"/><path stroke="#000000" stroke-width="0.0" stroke-linecap="butt" stroke-opacity="0.0" clip-path="url(#id_0)" d="M137.0 332.0L127.0 332.0L127.0 182.0C127.0 180.89543 127.89543 180.0 129.0 180.0L135.0 180.0C136.10457 180.0 137.0 180.89543 137.0 182.0Z" fill-rule="nonzero"/><path fill="#ea4335" clip-path="url(#id_0)" d="M137.0 332.0L127.0 332.0L127.0 182.0C127.0 180.89543 127.89543 180.0 129.0 180.0L135.0 180.0C136.10457 180.0 137.0 180.89543 137.0 182.0Z" fill-rule="nonzero"/><path stroke="#000000" stroke-width="0.0" stroke-linecap="butt" stroke-opacity="0.0" clip-path="url(#id_0)" d="M189.0 332.0L179.0 332.0L179.0 201.0C179.0 199.89543 179.89543 199.0 181.0 199.0L187.0 199.0C188.10457 199.0 189.0 199.89543 189.0 201.0Z" fill-rule="nonzero"/><path fill="#ea4335" clip-path="url(#id_0)" d="M189.0 332.0L179.0 332.0L179.0 201.0C179.0 199.89543 179.89543 199.0 181.0 199.0L187.0 199.0C188.10457 199.0 189.0 199.89543 189.0 201.0Z" fill-rule="nonzero"/><path stroke="#000000" stroke-width="0.0" stroke-linecap="butt" stroke-opacity="0.0" clip-path="url(#id_0)" d="M241.0 332.0L231.0 332.0L231.0 209.0C231.0 207.89543 231.89543 207.0 233.0 207.0L239.0 207.0C240.10457 207.0 241.0 207.89543 241.0 209.0Z" fill-rule="nonzero"/><path fill="#ea4335" clip-path="url(#id_0)" d="M241.0 332.0L231.0 332.0L231.0 209.0C231.0 207.89543 231.89543 207.0 233.0 207.0L239.0 207.0C240.10457 207.0 241.0 207.89543 241.0 209.0Z" fill-rule="nonzero"/><path stroke="#000000" stroke-width="0.0" stroke-linecap="butt" stroke-opacity="0.0" clip-path="url(#id_0)" d="M293.0 332.0L283.0 332.0L283.0 177.0C283.0 175.89543 283.89542 175.0 285.0 175.0L291.0 175.0C292.10458 175.0 293.0 175.89543 293.0 177.0Z" fill-rule="nonzero"/><path fill="#ea4335" clip-path="url(#id_0)" d="M293.0 332.0L283.0 332.0L283.0 177.0C283.0 175.89543 283.89542 175.0 285.0 175.0L291.0 175.0C292.10458 175.0 293.0 175.89543 293.0 177.0Z" fill-rule="nonzero"/><path stroke="#000000" stroke-width="0.0" stroke-linecap="butt" stroke-opacity="0.0" clip-path="url(#id_0)" d="M344.0 332.0L334.0 332.0L334.0 194.0C334.0 192.89543 334.89542 192.0 336.0 192.0L342.0 192.0C343.10458 192.0 344.0 192.89543 344.0 194.0Z" fill-rule="nonzero"/><path fill="#ea4335" clip-path="url(#id_0)" d="M344.0 332.0L334.0 332.0L334.0 194.0C334.0 192.89543 334.89542 192.0 336.0 192.0L342.0 192.0C343.10458 192.0 344.0 192.89543 344.0 194.0Z" fill-rule="nonzero"/><path stroke="#000000" stroke-width="0.0" stroke-linecap="butt" stroke-opacity="0.0" clip-path="url(#id_0)" d="M396.0 332.0L386.0 332.0L386.0 179.0C386.0 177.89543 386.89542 177.0 388.0 177.0L394.0 177.0C395.10458 177.0 396.0 177.89543 396.0 179.0Z" fill-rule="nonzero"/><path fill="#ea4335" clip-path="url(#id_0)" d="M396.0 332.0L386.0 332.0L386.0 179.0C386.0 177.89543 386.89542 177.0 388.0 177.0L394.0 177.0C395.10458 177.0 396.0 177.89543 396.0 179.0Z" fill-rule="nonzero"/><path stroke="#000000" stroke-width="0.0" stroke-linecap="butt" stroke-opacity="0.0" clip-path="url(#id_0)" d="M448.0 332.0L438.0 332.0L438.0 202.0C438.0 200.89543 438.89542 200.0 440.0 200.0L446.0 200.0C447.10458 200.0 448.0 200.89543 448.0 202.0Z" fill-rule="nonzero"/><path fill="#ea4335" clip-path="url(#id_0)" d="M448.0 332.0L438.0 332.0L438.0 202.0C438.0 200.89543 438.89542 200.0 440.0 200.0L446.0 200.0C447.10458 200.0 448.0 200.89543 448.0 202.0Z" fill-rule="nonzero"/><path stroke="#000000" stroke-width="0.0" stroke-linecap="butt" stroke-opacity="0.0" clip-path="url(#id_0)" d="M500.0 332.0L490.0 332.0L490.0 194.0C490.0 192.89543 490.89542 192.0 492.0 192.0L498.0 192.0C499.10458 192.0 500.0 192.89543 500.0 194.0Z" fill-rule="nonzero"/><path fill="#ea4335" clip-path="url(#id_0)" d="M500.0 332.0L490.0 332.0L490.0 194.0C490.0 192.89543 490.89542 192.0 492.0 192.0L498.0 192.0C499.10458 192.0 500.0 192.89543 500.0 194.0Z" fill-rule="nonzero"/><path stroke="#000000" stroke-width="0.0" stroke-linecap="butt" stroke-opacity="0.0" clip-path="url(#id_0)" d="M552.0 332.0L542.0 332.0L542.0 178.0C542.0 176.89543 542.89545 176.0 544.0 176.0L550.0 176.0C551.10455 176.0 552.0 176.89543 552.0 178.0Z" fill-rule="nonzero"/><path fill="#ea4335" clip-path="url(#id_0)" d="M552.0 332.0L542.0 332.0L542.0 178.0C542.0 176.89543 542.89545 176.0 544.0 176.0L550.0 176.0C551.10455 176.0 552.0 176.89543 552.0 178.0Z" fill-rule="nonzero"/><path stroke="#000000" stroke-width="0.0" stroke-linecap="butt" stroke-opacity="0.0" clip-path="url(#id_0)" d="M97.0 332.0L87.0 332.0L87.0 184.0C87.0 182.89543 87.89543 182.0 89.0 182.0L95.0 182.0C96.10457 182.0 97.0 182.89543 97.0 184.0Z" fill-rule="nonzero"/><path fill="#fbbc04" clip-path="url(#id_0)" d="M97.0 332.0L87.0 332.0L87.0 184.0C87.0 182.89543 87.89543 182.0 89.0 182.0L95.0 182.0C96.10457 182.0 97.0 182.89543 97.0 184.0Z" fill-rule="nonzero"/><path stroke="#000000" stroke-width="0.0" stroke-linecap="butt" stroke-opacity="0.0" clip-path="url(#id_0)" d="M148.0 332.0L138.0 332.0L138.0 182.0C138.0 180.89543 138.89543 180.0 140.0 180.0L146.0 180.0C147.10457 180.0 148.0 180.89543 148.0 182.0Z" fill-rule="nonzero"/><path fill="#fbbc04" clip-path="url(#id_0)" d="M148.0 332.0L138.0 332.0L138.0 182.0C138.0 180.89543 138.89543 180.0 140.0 180.0L146.0 180.0C147.10457 180.0 148.0 180.89543 148.0 182.0Z" fill-rule="nonzero"/><path stroke="#000000" stroke-width="0.0" stroke-linecap="butt" stroke-opacity="0.0" clip-path="url(#id_0)" d="M200.0 332.0L190.0 332.0L190.0 200.0C190.0 198.89543 190.89543 198.0 192.0 198.0L198.0 198.0C199.10457 198.0 200.0 198.89543 200.0 200.0Z" fill-rule="nonzero"/><path fill="#fbbc04" clip-path="url(#id_0)" d="M200.0 332.0L190.0 332.0L190.0 200.0C190.0 198.89543 190.89543 198.0 192.0 198.0L198.0 198.0C199.10457 198.0 200.0 198.89543 200.0 200.0Z" fill-rule="nonzero"/><path stroke="#000000" stroke-width="0.0" stroke-linecap="butt" stroke-opacity="0.0" clip-path="url(#id_0)" d="M252.0 332.0L242.0 332.0L242.0 206.0C242.0 204.89543 242.89543 204.0 244.0 204.0L250.0 204.0C251.10457 204.0 252.0 204.89543 252.0 206.0Z" fill-rule="nonzero"/><path fill="#fbbc04" clip-path="url(#id_0)" d="M252.0 332.0L242.0 332.0L242.0 206.0C242.0 204.89543 242.89543 204.0 244.0 204.0L250.0 204.0C251.10457 204.0 252.0 204.89543 252.0 206.0Z" fill-rule="nonzero"/><path stroke="#000000" stroke-width="0.0" stroke-linecap="butt" stroke-opacity="0.0" clip-path="url(#id_0)" d="M304.0 332.0L294.0 332.0L294.0 181.0C294.0 179.89543 294.89542 179.0 296.0 179.0L302.0 179.0C303.10458 179.0 304.0 179.89543 304.0 181.0Z" fill-rule="nonzero"/><path fill="#fbbc04" clip-path="url(#id_0)" d="M304.0 332.0L294.0 332.0L294.0 181.0C294.0 179.89543 294.89542 179.0 296.0 179.0L302.0 179.0C303.10458 179.0 304.0 179.89543 304.0 181.0Z" fill-rule="nonzero"/><path stroke="#000000" stroke-width="0.0" stroke-linecap="butt" stroke-opacity="0.0" clip-path="url(#id_0)" d="M355.0 332.0L345.0 332.0L345.0 192.0C345.0 190.89543 345.89542 190.0 347.0 190.0L353.0 190.0C354.10458 190.0 355.0 190.89543 355.0 192.0Z" fill-rule="nonzero"/><path fill="#fbbc04" clip-path="url(#id_0)" d="M355.0 332.0L345.0 332.0L345.0 192.0C345.0 190.89543 345.89542 190.0 347.0 190.0L353.0 190.0C354.10458 190.0 355.0 190.89543 355.0 192.0Z" fill-rule="nonzero"/><path stroke="#000000" stroke-width="0.0" stroke-linecap="butt" stroke-opacity="0.0" clip-path="url(#id_0)" d="M407.0 332.0L397.0 332.0L397.0 180.0C397.0 178.89543 397.89542 178.0 399.0 178.0L405.0 178.0C406.10458 178.0 407.0 178.89543 407.0 180.0Z" fill-rule="nonzero"/><path fill="#fbbc04" clip-path="url(#id_0)" d="M407.0 332.0L397.0 332.0L397.0 180.0C397.0 178.89543 397.89542 178.0 399.0 178.0L405.0 178.0C406.10458 178.0 407.0 178.89543 407.0 180.0Z" fill-rule="nonzero"/><path stroke="#000000" stroke-width="0.0" stroke-linecap="butt" stroke-opacity="0.0" clip-path="url(#id_0)" d="M459.0 332.0L449.0 332.0L449.0 204.0C449.0 202.89543 449.89542 202.0 451.0 202.0L457.0 202.0C458.10458 202.0 459.0 202.89543 459.0 204.0Z" fill-rule="nonzero"/><path fill="#fbbc04" clip-path="url(#id_0)" d="M459.0 332.0L449.0 332.0L449.0 204.0C449.0 202.89543 449.89542 202.0 451.0 202.0L457.0 202.0C458.10458 202.0 459.0 202.89543 459.0 204.0Z" fill-rule="nonzero"/><path stroke="#000000" stroke-width="0.0" stroke-linecap="butt" stroke-opacity="0.0" clip-path="url(#id_0)" d="M511.0 332.0L501.0 332.0L501.0 189.0C501.0 187.89543 501.89542 187.0 503.0 187.0L509.0 187.0C510.10458 187.0 511.0 187.89543 511.0 189.0Z" fill-rule="nonzero"/><path fill="#fbbc04" clip-path="url(#id_0)" d="M511.0 332.0L501.0 332.0L501.0 189.0C501.0 187.89543 501.89542 187.0 503.0 187.0L509.0 187.0C510.10458 187.0 511.0 187.89543 511.0 189.0Z" fill-rule="nonzero"/><path stroke="#000000" stroke-width="0.0" stroke-linecap="butt" stroke-opacity="0.0" clip-path="url(#id_0)" d="M563.0 332.0L553.0 332.0L553.0 179.0C553.0 177.89543 553.89545 177.0 555.0 177.0L561.0 177.0C562.10455 177.0 563.0 177.89543 563.0 179.0Z" fill-rule="nonzero"/><path fill="#fbbc04" clip-path="url(#id_0)" d="M563.0 332.0L553.0 332.0L553.0 179.0C553.0 177.89543 553.89545 177.0 555.0 177.0L561.0 177.0C562.10455 177.0 563.0 177.89543 563.0 179.0Z" fill-rule="nonzero"/><path fill="#000000" d="M33.05 332.21564Q33.05 330.6844 33.3625 329.7625Q33.675 328.825 34.284374 328.325Q34.909374 327.825 35.846874 327.825Q36.534374 327.825 37.05 328.10626Q37.58125 328.3875 37.925 328.91876Q38.26875 329.4344 38.45625 330.1844Q38.64375 330.9344 38.64375 332.21564Q38.64375 333.73126 38.33125 334.65314Q38.034374 335.575 37.409374 336.09064Q36.8 336.59064 35.846874 336.59064Q34.6125 336.59064 33.89375 335.7Q33.05 334.6375 33.05 332.21564ZM34.128124 332.21564Q34.128124 334.325 34.628124 335.02814Q35.128124 335.73126 35.846874 335.73126Q36.58125 335.73126 37.065624 335.02814Q37.565624 334.325 37.565624 332.21564Q37.565624 330.09064 37.065624 329.40314Q36.58125 328.7 35.83125 328.7Q35.1125 328.7 34.675 329.3094Q34.128124 330.09064 34.128124 332.21564Z" fill-rule="nonzero"/><path fill="#000000" d="M31.596874 274.3927L31.596874 275.40833L25.909374 275.40833Q25.909374 275.03333 26.034374 274.67395Q26.253124 274.09583 26.721874 273.53333Q27.20625 272.97083 28.1125 272.23645Q29.51875 271.0802 30.003124 270.40833Q30.503124 269.73645 30.503124 269.1427Q30.503124 268.5177 30.05 268.09583Q29.596874 267.65833 28.878124 267.65833Q28.1125 267.65833 27.659374 268.11145Q27.20625 268.56458 27.190624 269.37708L26.1125 269.2677Q26.221874 268.04895 26.940624 267.42395Q27.675 266.78333 28.909374 266.78333Q30.14375 266.78333 30.8625 267.47083Q31.58125 268.15833 31.58125 269.17395Q31.58125 269.68958 31.3625 270.18958Q31.159374 270.67395 30.659374 271.23645Q30.175 271.78333 29.05 272.73645Q28.096874 273.53333 27.815624 273.8302Q27.55 274.11145 27.378124 274.3927L31.596874 274.3927ZM33.05 273.15833L34.159374 273.06458Q34.284374 273.87708 34.721874 274.28333Q35.175 274.68958 35.815624 274.68958Q36.565624 274.68958 37.096874 274.11145Q37.628124 273.53333 37.628124 272.59583Q37.628124 271.68958 37.1125 271.17395Q36.6125 270.6427 35.784374 270.6427Q35.284374 270.6427 34.8625 270.87708Q34.45625 271.11145 34.221874 271.47083L33.2375 271.34583L34.065624 266.93958L38.346874 266.93958L38.346874 267.93958L34.909374 267.93958L34.45625 270.25208Q35.221874 269.7052 36.065624 269.7052Q37.190624 269.7052 37.95625 270.48645Q38.7375 271.2677 38.7375 272.50208Q38.7375 273.65833 38.065624 274.5177Q37.2375 275.54895 35.815624 275.54895Q34.64375 275.54895 33.89375 274.8927Q33.159374 274.23645 33.05 273.15833Z" fill-rule="nonzero"/><path fill="#000000" d="M26.05 212.11667L27.159374 212.02292Q27.284374 212.83542 27.721874 213.24167Q28.175 213.64792 28.815624 213.64792Q29.565624 213.64792 30.096874 213.0698Q30.628124 212.49167 30.628124 211.55417Q30.628124 210.64792 30.1125 210.1323Q29.6125 209.60104 28.784374 209.60104Q28.284374 209.60104 27.8625 209.83542Q27.45625 210.0698 27.221874 210.42917L26.2375 210.30417L27.065624 205.89792L31.346874 205.89792L31.346874 206.89792L27.909374 206.89792L27.45625 209.21042Q28.221874 208.66354 29.065624 208.66354Q30.190624 208.66354 30.95625 209.4448Q31.7375 210.22604 31.7375 211.46042Q31.7375 212.61667 31.065624 213.47604Q30.2375 214.5073 28.815624 214.5073Q27.64375 214.5073 26.89375 213.85104Q26.159374 213.1948 26.05 212.11667ZM33.05 210.1323Q33.05 208.60104 33.3625 207.67917Q33.675 206.74167 34.284374 206.24167Q34.909374 205.74167 35.846874 205.74167Q36.534374 205.74167 37.05 206.02292Q37.58125 206.30417 37.925 206.83542Q38.26875 207.35104 38.45625 208.10104Q38.64375 208.85104 38.64375 210.1323Q38.64375 211.64792 38.33125 212.5698Q38.034374 213.49167 37.409374 214.0073Q36.8 214.5073 35.846874 214.5073Q34.6125 214.5073 33.89375 213.61667Q33.05 212.55417 33.05 210.1323ZM34.128124 210.1323Q34.128124 212.24167 34.628124 212.9448Q35.128124 213.64792 35.846874 213.64792Q36.58125 213.64792 37.065624 212.9448Q37.565624 212.24167 37.565624 210.1323Q37.565624 208.0073 37.065624 207.3198Q36.58125 206.61667 35.83125 206.61667Q35.1125 206.61667 34.675 207.22604Q34.128124 208.0073 34.128124 210.1323Z" fill-rule="nonzero"/><path fill="#000000" d="M26.1125 145.85625L26.1125 144.84062L31.675 144.84062L31.675 145.66875Q30.8625 146.54375 30.05 147.99687Q29.253124 149.43437 28.815624 150.96562Q28.4875 152.04375 28.409374 153.325L27.315624 153.325Q27.33125 152.30937 27.70625 150.87187Q28.096874 149.43437 28.8 148.10625Q29.51875 146.77812 30.33125 145.85625L26.1125 145.85625ZM33.05 151.075L34.159374 150.98125Q34.284374 151.79375 34.721874 152.2Q35.175 152.60625 35.815624 152.60625Q36.565624 152.60625 37.096874 152.02812Q37.628124 151.45 37.628124 150.5125Q37.628124 149.60625 37.1125 149.09062Q36.6125 148.55937 35.784374 148.55937Q35.284374 148.55937 34.8625 148.79375Q34.45625 149.02812 34.221874 149.3875L33.2375 149.2625L34.065624 144.85625L38.346874 144.85625L38.346874 145.85625L34.909374 145.85625L34.45625 148.16875Q35.221874 147.62187 36.065624 147.62187Q37.190624 147.62187 37.95625 148.40312Q38.7375 149.18437 38.7375 150.41875Q38.7375 151.575 38.065624 152.43437Q37.2375 153.46562 35.815624 153.46562Q34.64375 153.46562 33.89375 152.80937Q33.159374 152.15312 33.05 151.075Z" fill-rule="nonzero"/><path fill="#000000" d="M23.01875 92.28333L21.971874 92.28333L21.971874 85.56458Q21.58125 85.92396 20.95625 86.29896Q20.346874 86.65833 19.8625 86.83021L19.8625 85.81458Q20.7375 85.39271 21.39375 84.81458Q22.065624 84.22083 22.346874 83.65833L23.01875 83.65833L23.01875 92.28333ZM26.05 88.04896Q26.05 86.51771 26.3625 85.59583Q26.675 84.65833 27.284374 84.15833Q27.909374 83.65833 28.846874 83.65833Q29.534374 83.65833 30.05 83.93958Q30.58125 84.22083 30.925 84.75208Q31.26875 85.26771 31.45625 86.01771Q31.64375 86.76771 31.64375 88.04896Q31.64375 89.56458 31.33125 90.48646Q31.034374 91.40833 30.409374 91.92396Q29.8 92.42396 28.846874 92.42396Q27.6125 92.42396 26.89375 91.53333Q26.05 90.47083 26.05 88.04896ZM27.128124 88.04896Q27.128124 90.15833 27.628124 90.86146Q28.128124 91.56458 28.846874 91.56458Q29.58125 91.56458 30.065624 90.86146Q30.565624 90.15833 30.565624 88.04896Q30.565624 85.92396 30.065624 85.23646Q29.58125 84.53333 28.83125 84.53333Q28.1125 84.53333 27.675 85.14271Q27.128124 85.92396 27.128124 88.04896ZM33.05 88.04896Q33.05 86.51771 33.3625 85.59583Q33.675 84.65833 34.284374 84.15833Q34.909374 83.65833 35.846874 83.65833Q36.534374 83.65833 37.05 83.93958Q37.58125 84.22083 37.925 84.75208Q38.26875 85.26771 38.45625 86.01771Q38.64375 86.76771 38.64375 88.04896Q38.64375 89.56458 38.33125 90.48646Q38.034374 91.40833 37.409374 91.92396Q36.8 92.42396 35.846874 92.42396Q34.6125 92.42396 33.89375 91.53333Q33.05 90.47083 33.05 88.04896ZM34.128124 88.04896Q34.128124 90.15833 34.628124 90.86146Q35.128124 91.56458 35.846874 91.56458Q36.58125 91.56458 37.065624 90.86146Q37.565624 90.15833 37.565624 88.04896Q37.565624 85.92396 37.065624 85.23646Q36.58125 84.53333 35.83125 84.53333Q35.1125 84.53333 34.675 85.14271Q34.128124 85.92396 34.128124 88.04896Z" fill-rule="nonzero"/><path fill="#000000" d="M66.546875 349.45L66.546875 344.04376L65.609375 344.04376L65.609375 343.23126L66.546875 343.23126L66.546875 342.5594Q66.546875 341.9344 66.65625 341.6375Q66.8125 341.21564 67.1875 340.96564Q67.578125 340.71564 68.265625 340.71564Q68.71875 340.71564 69.25 340.825L69.09375 341.73126Q68.765625 341.6844 68.46875 341.6844Q67.984375 341.6844 67.78125 341.8875Q67.59375 342.09064 67.59375 342.65314L67.59375 343.23126L68.8125 343.23126L68.8125 344.04376L67.59375 344.04376L67.59375 349.45L66.546875 349.45ZM68.90625 346.34064Q68.90625 344.60626 69.859375 343.77814Q70.65625 343.09064 71.8125 343.09064Q73.09375 343.09064 73.90625 343.9344Q74.734375 344.7625 74.734375 346.2469Q74.734375 347.45 74.375 348.1375Q74.015625 348.825 73.3125 349.21564Q72.625 349.59064 71.8125 349.59064Q70.515625 349.59064 69.703125 348.7625Q68.90625 347.91876 68.90625 346.34064ZM69.984375 346.34064Q69.984375 347.52814 70.5 348.1219Q71.03125 348.71564 71.8125 348.71564Q72.609375 348.71564 73.125 348.1219Q73.640625 347.52814 73.640625 346.3094Q73.640625 345.15314 73.109375 344.5594Q72.59375 343.96564 71.8125 343.96564Q71.03125 343.96564 70.5 344.5594Q69.984375 345.1375 69.984375 346.34064ZM76.265625 349.45L76.265625 340.85626L77.328125 340.85626L77.328125 349.45L76.265625 349.45ZM83.328125 349.45L83.328125 348.66876Q82.734375 349.59064 81.59375 349.59064Q80.84375 349.59064 80.21875 349.1844Q79.59375 348.7625 79.25 348.02814Q78.90625 347.29376 78.90625 346.34064Q78.90625 345.41876 79.21875 344.65314Q79.53125 343.8875 80.15625 343.4969Q80.78125 343.09064 81.546875 343.09064Q82.109375 343.09064 82.546875 343.325Q82.984375 343.5594 83.265625 343.9344L83.265625 340.85626L84.3125 340.85626L84.3125 349.45L83.328125 349.45ZM80.0 346.34064Q80.0 347.54376 80.5 348.1375Q81.0 348.71564 81.6875 348.71564Q82.375 348.71564 82.859375 348.15314Q83.34375 347.59064 83.34375 346.4344Q83.34375 345.15314 82.84375 344.5594Q82.359375 343.96564 81.640625 343.96564Q80.9375 343.96564 80.46875 344.54376Q80.0 345.10626 80.0 346.34064ZM92.96875 349.45L91.921875 349.45L91.921875 342.73126Q91.53125 343.09064 90.90625 343.46564Q90.296875 343.825 89.8125 343.9969L89.8125 342.98126Q90.6875 342.5594 91.34375 341.98126Q92.015625 341.3875 92.296875 340.825L92.96875 340.825L92.96875 349.45Z" fill-rule="nonzero"/><path fill="#000000" d="M118.32465 349.45L118.32465 344.04376L117.38715 344.04376L117.38715 343.23126L118.32465 343.23126L118.32465 342.5594Q118.32465 341.9344 118.43403 341.6375Q118.59028 341.21564 118.96528 340.96564Q119.3559 340.71564 120.0434 340.71564Q120.49653 340.71564 121.02778 340.825L120.87153 341.73126Q120.5434 341.6844 120.24653 341.6844Q119.76215 341.6844 119.55903 341.8875Q119.37153 342.09064 119.37153 342.65314L119.37153 343.23126L120.59028 343.23126L120.59028 344.04376L119.37153 344.04376L119.37153 349.45L118.32465 349.45ZM120.68403 346.34064Q120.68403 344.60626 121.63715 343.77814Q122.43403 343.09064 123.59028 343.09064Q124.87153 343.09064 125.68403 343.9344Q126.51215 344.7625 126.51215 346.2469Q126.51215 347.45 126.15278 348.1375Q125.7934 348.825 125.09028 349.21564Q124.40278 349.59064 123.59028 349.59064Q122.2934 349.59064 121.4809 348.7625Q120.68403 347.91876 120.68403 346.34064ZM121.76215 346.34064Q121.76215 347.52814 122.27778 348.1219Q122.80903 348.71564 123.59028 348.71564Q124.38715 348.71564 124.90278 348.1219Q125.4184 347.52814 125.4184 346.3094Q125.4184 345.15314 124.88715 344.5594Q124.37153 343.96564 123.59028 343.96564Q122.80903 343.96564 122.27778 344.5594Q121.76215 345.1375 121.76215 346.34064ZM128.0434 349.45L128.0434 340.85626L129.1059 340.85626L129.1059 349.45L128.0434 349.45ZM135.1059 349.45L135.1059 348.66876Q134.51215 349.59064 133.37152 349.59064Q132.62152 349.59064 131.99652 349.1844Q131.37152 348.7625 131.02777 348.02814Q130.68402 347.29376 130.68402 346.34064Q130.68402 345.41876 130.99652 344.65314Q131.30902 343.8875 131.93402 343.4969Q132.55902 343.09064 133.32465 343.09064Q133.88715 343.09064 134.32465 343.325Q134.76215 343.5594 135.0434 343.9344L135.0434 340.85626L136.09027 340.85626L136.09027 349.45L135.1059 349.45ZM131.77777 346.34064Q131.77777 347.54376 132.27777 348.1375Q132.77777 348.71564 133.46527 348.71564Q134.15277 348.71564 134.63715 348.15314Q135.12152 347.59064 135.12152 346.4344Q135.12152 345.15314 134.62152 344.5594Q134.13715 343.96564 133.4184 343.96564Q132.71527 343.96564 132.24652 344.54376Q131.77777 345.10626 131.77777 346.34064ZM146.32465 348.4344L146.32465 349.45L140.63715 349.45Q140.63715 349.075 140.76215 348.71564Q140.9809 348.1375 141.44965 347.575Q141.93402 347.0125 142.84027 346.27814Q144.24652 345.1219 144.7309 344.45Q145.2309 343.77814 145.2309 343.1844Q145.2309 342.5594 144.77777 342.1375Q144.32465 341.7 143.6059 341.7Q142.84027 341.7 142.38715 342.15314Q141.93402 342.60626 141.9184 343.41876L140.84027 343.3094Q140.94965 342.09064 141.6684 341.46564Q142.40277 340.825 143.63715 340.825Q144.87152 340.825 145.59027 341.5125Q146.30902 342.2 146.30902 343.21564Q146.30902 343.73126 146.09027 344.23126Q145.88715 344.71564 145.38715 345.27814Q144.90277 345.825 143.77777 346.77814Q142.82465 347.575 142.5434 347.8719Q142.27777 348.15314 142.1059 348.4344L146.32465 348.4344Z" fill-rule="nonzero"/><path fill="#000000" d="M170.10243 349.45L170.10243 344.04376L169.16493 344.04376L169.16493 343.23126L170.10243 343.23126L170.10243 342.5594Q170.10243 341.9344 170.2118 341.6375Q170.36806 341.21564 170.74306 340.96564Q171.13368 340.71564 171.82118 340.71564Q172.2743 340.71564 172.80556 340.825L172.6493 341.73126Q172.32118 341.6844 172.0243 341.6844Q171.53993 341.6844 171.3368 341.8875Q171.1493 342.09064 171.1493 342.65314L171.1493 343.23126L172.36806 343.23126L172.36806 344.04376L171.1493 344.04376L171.1493 349.45L170.10243 349.45ZM172.4618 346.34064Q172.4618 344.60626 173.41493 343.77814Q174.2118 343.09064 175.36806 343.09064Q176.6493 343.09064 177.4618 343.9344Q178.28993 344.7625 178.28993 346.2469Q178.28993 347.45 177.93056 348.1375Q177.57118 348.825 176.86806 349.21564Q176.18056 349.59064 175.36806 349.59064Q174.07118 349.59064 173.25868 348.7625Q172.4618 347.91876 172.4618 346.34064ZM173.53993 346.34064Q173.53993 347.52814 174.05556 348.1219Q174.5868 348.71564 175.36806 348.71564Q176.16493 348.71564 176.68056 348.1219Q177.19618 347.52814 177.19618 346.3094Q177.19618 345.15314 176.66493 344.5594Q176.1493 343.96564 175.36806 343.96564Q174.5868 343.96564 174.05556 344.5594Q173.53993 345.1375 173.53993 346.34064ZM179.82118 349.45L179.82118 340.85626L180.88368 340.85626L180.88368 349.45L179.82118 349.45ZM186.88368 349.45L186.88368 348.66876Q186.28993 349.59064 185.1493 349.59064Q184.3993 349.59064 183.7743 349.1844Q183.1493 348.7625 182.80556 348.02814Q182.4618 347.29376 182.4618 346.34064Q182.4618 345.41876 182.7743 344.65314Q183.0868 343.8875 183.7118 343.4969Q184.3368 343.09064 185.10243 343.09064Q185.66493 343.09064 186.10243 343.325Q186.53993 343.5594 186.82118 343.9344L186.82118 340.85626L187.86806 340.85626L187.86806 349.45L186.88368 349.45ZM183.55556 346.34064Q183.55556 347.54376 184.05556 348.1375Q184.55556 348.71564 185.24306 348.71564Q185.93056 348.71564 186.41493 348.15314Q186.8993 347.59064 186.8993 346.4344Q186.8993 345.15314 186.3993 344.5594Q185.91493 343.96564 185.19618 343.96564Q184.49306 343.96564 184.0243 344.54376Q183.55556 345.10626 183.55556 346.34064ZM192.55556 347.1844L193.61806 347.04376Q193.78993 347.9344 194.22743 348.34064Q194.66493 348.73126 195.28993 348.73126Q196.03993 348.73126 196.55556 348.21564Q197.07118 347.7 197.07118 346.9344Q197.07118 346.21564 196.5868 345.7469Q196.11806 345.2625 195.38368 345.2625Q195.0868 345.2625 194.63368 345.3875L194.75868 344.45Q194.86806 344.46564 194.93056 344.46564Q195.60243 344.46564 196.13368 344.1219Q196.68056 343.7625 196.68056 343.02814Q196.68056 342.45 196.28993 342.075Q195.8993 341.6844 195.2743 341.6844Q194.66493 341.6844 194.24306 342.075Q193.8368 342.46564 193.72743 343.23126L192.66493 343.04376Q192.85243 341.9969 193.53993 341.41876Q194.22743 340.825 195.24306 340.825Q195.94618 340.825 196.53993 341.1375Q197.13368 341.4344 197.44618 341.95Q197.75868 342.46564 197.75868 343.0594Q197.75868 343.60626 197.4618 344.075Q197.16493 344.52814 196.5868 344.79376Q197.3368 344.96564 197.75868 345.52814Q198.18056 346.075 198.18056 346.91876Q198.18056 348.04376 197.35243 348.825Q196.53993 349.60626 195.28993 349.60626Q194.16493 349.60626 193.41493 348.9344Q192.66493 348.2469 192.55556 347.1844Z" fill-rule="nonzero"/><path fill="#000000" d="M221.8802 349.45L221.8802 344.04376L220.9427 344.04376L220.9427 343.23126L221.8802 343.23126L221.8802 342.5594Q221.8802 341.9344 221.98958 341.6375Q222.14583 341.21564 222.52083 340.96564Q222.91145 340.71564 223.59895 340.71564Q224.05208 340.71564 224.58333 340.825L224.42708 341.73126Q224.09895 341.6844 223.80208 341.6844Q223.3177 341.6844 223.11458 341.8875Q222.92708 342.09064 222.92708 342.65314L222.92708 343.23126L224.14583 343.23126L224.14583 344.04376L222.92708 344.04376L222.92708 349.45L221.8802 349.45ZM224.23958 346.34064Q224.23958 344.60626 225.1927 343.77814Q225.98958 343.09064 227.14583 343.09064Q228.42708 343.09064 229.23958 343.9344Q230.0677 344.7625 230.0677 346.2469Q230.0677 347.45 229.70833 348.1375Q229.34895 348.825 228.64583 349.21564Q227.95833 349.59064 227.14583 349.59064Q225.84895 349.59064 225.03645 348.7625Q224.23958 347.91876 224.23958 346.34064ZM225.3177 346.34064Q225.3177 347.52814 225.83333 348.1219Q226.36458 348.71564 227.14583 348.71564Q227.9427 348.71564 228.45833 348.1219Q228.97395 347.52814 228.97395 346.3094Q228.97395 345.15314 228.4427 344.5594Q227.92708 343.96564 227.14583 343.96564Q226.36458 343.96564 225.83333 344.5594Q225.3177 345.1375 225.3177 346.34064ZM231.59895 349.45L231.59895 340.85626L232.66145 340.85626L232.66145 349.45L231.59895 349.45ZM238.66145 349.45L238.66145 348.66876Q238.0677 349.59064 236.92708 349.59064Q236.17708 349.59064 235.55208 349.1844Q234.92708 348.7625 234.58333 348.02814Q234.23958 347.29376 234.23958 346.34064Q234.23958 345.41876 234.55208 344.65314Q234.86458 343.8875 235.48958 343.4969Q236.11458 343.09064 236.8802 343.09064Q237.4427 343.09064 237.8802 343.325Q238.3177 343.5594 238.59895 343.9344L238.59895 340.85626L239.64583 340.85626L239.64583 349.45L238.66145 349.45ZM235.33333 346.34064Q235.33333 347.54376 235.83333 348.1375Q236.33333 348.71564 237.02083 348.71564Q237.70833 348.71564 238.1927 348.15314Q238.67708 347.59064 238.67708 346.4344Q238.67708 345.15314 238.17708 344.5594Q237.6927 343.96564 236.97395 343.96564Q236.27083 343.96564 235.80208 344.54376Q235.33333 345.10626 235.33333 346.34064ZM247.70833 349.45L247.70833 347.3875L243.98958 347.3875L243.98958 346.41876L247.91145 340.85626L248.77083 340.85626L248.77083 346.41876L249.92708 346.41876L249.92708 347.3875L248.77083 347.3875L248.77083 349.45L247.70833 349.45ZM247.70833 346.41876L247.70833 342.5594L245.02083 346.41876L247.70833 346.41876Z" fill-rule="nonzero"/><path fill="#000000" d="M273.658 349.45L273.658 344.04376L272.7205 344.04376L272.7205 343.23126L273.658 343.23126L273.658 342.5594Q273.658 341.9344 273.76736 341.6375Q273.9236 341.21564 274.2986 340.96564Q274.68924 340.71564 275.37674 340.71564Q275.82986 340.71564 276.3611 340.825L276.20486 341.73126Q275.87674 341.6844 275.57986 341.6844Q275.0955 341.6844 274.89236 341.8875Q274.70486 342.09064 274.70486 342.65314L274.70486 343.23126L275.9236 343.23126L275.9236 344.04376L274.70486 344.04376L274.70486 349.45L273.658 349.45ZM276.01736 346.34064Q276.01736 344.60626 276.9705 343.77814Q277.76736 343.09064 278.9236 343.09064Q280.20486 343.09064 281.01736 343.9344Q281.8455 344.7625 281.8455 346.2469Q281.8455 347.45 281.4861 348.1375Q281.12674 348.825 280.4236 349.21564Q279.7361 349.59064 278.9236 349.59064Q277.62674 349.59064 276.81424 348.7625Q276.01736 347.91876 276.01736 346.34064ZM277.0955 346.34064Q277.0955 347.52814 277.6111 348.1219Q278.14236 348.71564 278.9236 348.71564Q279.7205 348.71564 280.2361 348.1219Q280.75174 347.52814 280.75174 346.3094Q280.75174 345.15314 280.2205 344.5594Q279.70486 343.96564 278.9236 343.96564Q278.14236 343.96564 277.6111 344.5594Q277.0955 345.1375 277.0955 346.34064ZM283.37674 349.45L283.37674 340.85626L284.43924 340.85626L284.43924 349.45L283.37674 349.45ZM290.43924 349.45L290.43924 348.66876Q289.8455 349.59064 288.70486 349.59064Q287.95486 349.59064 287.32986 349.1844Q286.70486 348.7625 286.3611 348.02814Q286.01736 347.29376 286.01736 346.34064Q286.01736 345.41876 286.32986 344.65314Q286.64236 343.8875 287.26736 343.4969Q287.89236 343.09064 288.658 343.09064Q289.2205 343.09064 289.658 343.325Q290.0955 343.5594 290.37674 343.9344L290.37674 340.85626L291.4236 340.85626L291.4236 349.45L290.43924 349.45ZM287.1111 346.34064Q287.1111 347.54376 287.6111 348.1375Q288.1111 348.71564 288.7986 348.71564Q289.4861 348.71564 289.9705 348.15314Q290.45486 347.59064 290.45486 346.4344Q290.45486 345.15314 289.95486 344.5594Q289.4705 343.96564 288.75174 343.96564Q288.0486 343.96564 287.57986 344.54376Q287.1111 345.10626 287.1111 346.34064ZM296.1111 347.2L297.2205 347.10626Q297.3455 347.91876 297.783 348.325Q298.2361 348.73126 298.87674 348.73126Q299.62674 348.73126 300.158 348.15314Q300.68924 347.575 300.68924 346.6375Q300.68924 345.73126 300.1736 345.21564Q299.6736 344.6844 298.8455 344.6844Q298.3455 344.6844 297.9236 344.91876Q297.51736 345.15314 297.283 345.5125L296.2986 345.3875L297.12674 340.98126L301.408 340.98126L301.408 341.98126L297.9705 341.98126L297.51736 344.29376Q298.283 343.7469 299.12674 343.7469Q300.25174 343.7469 301.01736 344.52814Q301.7986 345.3094 301.7986 346.54376Q301.7986 347.7 301.12674 348.5594Q300.2986 349.59064 298.87674 349.59064Q297.70486 349.59064 296.95486 348.9344Q296.2205 348.27814 296.1111 347.2Z" fill-rule="nonzero"/><path fill="#000000" d="M325.43576 349.45L325.43576 344.04376L324.49826 344.04376L324.49826 343.23126L325.43576 343.23126L325.43576 342.5594Q325.43576 341.9344 325.54514 341.6375Q325.7014 341.21564 326.0764 340.96564Q326.467 340.71564 327.1545 340.71564Q327.60764 340.71564 328.1389 340.825L327.98264 341.73126Q327.6545 341.6844 327.35764 341.6844Q326.87326 341.6844 326.67014 341.8875Q326.48264 342.09064 326.48264 342.65314L326.48264 343.23126L327.7014 343.23126L327.7014 344.04376L326.48264 344.04376L326.48264 349.45L325.43576 349.45ZM327.79514 346.34064Q327.79514 344.60626 328.74826 343.77814Q329.54514 343.09064 330.7014 343.09064Q331.98264 343.09064 332.79514 343.9344Q333.62326 344.7625 333.62326 346.2469Q333.62326 347.45 333.2639 348.1375Q332.9045 348.825 332.2014 349.21564Q331.5139 349.59064 330.7014 349.59064Q329.4045 349.59064 328.592 348.7625Q327.79514 347.91876 327.79514 346.34064ZM328.87326 346.34064Q328.87326 347.52814 329.3889 348.1219Q329.92014 348.71564 330.7014 348.71564Q331.49826 348.71564 332.0139 348.1219Q332.5295 347.52814 332.5295 346.3094Q332.5295 345.15314 331.99826 344.5594Q331.48264 343.96564 330.7014 343.96564Q329.92014 343.96564 329.3889 344.5594Q328.87326 345.1375 328.87326 346.34064ZM335.1545 349.45L335.1545 340.85626L336.217 340.85626L336.217 349.45L335.1545 349.45ZM342.217 349.45L342.217 348.66876Q341.62326 349.59064 340.48264 349.59064Q339.73264 349.59064 339.10764 349.1844Q338.48264 348.7625 338.1389 348.02814Q337.79514 347.29376 337.79514 346.34064Q337.79514 345.41876 338.10764 344.65314Q338.42014 343.8875 339.04514 343.4969Q339.67014 343.09064 340.43576 343.09064Q340.99826 343.09064 341.43576 343.325Q341.87326 343.5594 342.1545 343.9344L342.1545 340.85626L343.2014 340.85626L343.2014 349.45L342.217 349.45ZM338.8889 346.34064Q338.8889 347.54376 339.3889 348.1375Q339.8889 348.71564 340.5764 348.71564Q341.2639 348.71564 341.74826 348.15314Q342.23264 347.59064 342.23264 346.4344Q342.23264 345.15314 341.73264 344.5594Q341.24826 343.96564 340.5295 343.96564Q339.8264 343.96564 339.35764 344.54376Q338.8889 345.10626 338.8889 346.34064ZM353.35764 342.96564L352.31076 343.04376Q352.17014 342.41876 351.92014 342.1375Q351.48264 341.6844 350.85764 341.6844Q350.35764 341.6844 349.967 341.96564Q349.48264 342.34064 349.18576 343.04376Q348.9045 343.73126 348.8889 345.0125Q349.2639 344.4344 349.81076 344.15314Q350.37326 343.8719 350.98264 343.8719Q352.0295 343.8719 352.7639 344.65314Q353.5139 345.4344 353.5139 346.65314Q353.5139 347.46564 353.1545 348.16876Q352.81076 348.85626 352.2014 349.23126Q351.592 349.59064 350.8264 349.59064Q349.49826 349.59064 348.67014 348.6219Q347.842 347.65314 347.842 345.4344Q347.842 342.9344 348.7639 341.8094Q349.56076 340.825 350.92014 340.825Q351.93576 340.825 352.5764 341.40314Q353.23264 341.96564 353.35764 342.96564ZM349.06076 346.66876Q349.06076 347.21564 349.2795 347.71564Q349.5139 348.2 349.92014 348.46564Q350.342 348.73126 350.81076 348.73126Q351.467 348.73126 351.9514 348.2Q352.43576 347.65314 352.43576 346.73126Q352.43576 345.84064 351.9514 345.325Q351.48264 344.8094 350.7639 344.8094Q350.04514 344.8094 349.54514 345.325Q349.06076 345.84064 349.06076 346.66876Z" fill-rule="nonzero"/><path fill="#000000" d="M377.21353 349.45L377.21353 344.04376L376.27603 344.04376L376.27603 343.23126L377.21353 343.23126L377.21353 342.5594Q377.21353 341.9344 377.3229 341.6375Q377.47916 341.21564 377.85416 340.96564Q378.24478 340.71564 378.93228 340.71564Q379.3854 340.71564 379.91666 340.825L379.7604 341.73126Q379.43228 341.6844 379.1354 341.6844Q378.65103 341.6844 378.4479 341.8875Q378.2604 342.09064 378.2604 342.65314L378.2604 343.23126L379.47916 343.23126L379.47916 344.04376L378.2604 344.04376L378.2604 349.45L377.21353 349.45ZM379.5729 346.34064Q379.5729 344.60626 380.52603 343.77814Q381.3229 343.09064 382.47916 343.09064Q383.7604 343.09064 384.5729 343.9344Q385.40103 344.7625 385.40103 346.2469Q385.40103 347.45 385.04166 348.1375Q384.68228 348.825 383.97916 349.21564Q383.29166 349.59064 382.47916 349.59064Q381.18228 349.59064 380.36978 348.7625Q379.5729 347.91876 379.5729 346.34064ZM380.65103 346.34064Q380.65103 347.52814 381.16666 348.1219Q381.6979 348.71564 382.47916 348.71564Q383.27603 348.71564 383.79166 348.1219Q384.30728 347.52814 384.30728 346.3094Q384.30728 345.15314 383.77603 344.5594Q383.2604 343.96564 382.47916 343.96564Q381.6979 343.96564 381.16666 344.5594Q380.65103 345.1375 380.65103 346.34064ZM386.93228 349.45L386.93228 340.85626L387.99478 340.85626L387.99478 349.45L386.93228 349.45ZM393.99478 349.45L393.99478 348.66876Q393.40103 349.59064 392.2604 349.59064Q391.5104 349.59064 390.8854 349.1844Q390.2604 348.7625 389.91666 348.02814Q389.5729 347.29376 389.5729 346.34064Q389.5729 345.41876 389.8854 344.65314Q390.1979 343.8875 390.8229 343.4969Q391.4479 343.09064 392.21353 343.09064Q392.77603 343.09064 393.21353 343.325Q393.65103 343.5594 393.93228 343.9344L393.93228 340.85626L394.97916 340.85626L394.97916 349.45L393.99478 349.45ZM390.66666 346.34064Q390.66666 347.54376 391.16666 348.1375Q391.66666 348.71564 392.35416 348.71564Q393.04166 348.71564 393.52603 348.15314Q394.0104 347.59064 394.0104 346.4344Q394.0104 345.15314 393.5104 344.5594Q393.02603 343.96564 392.30728 343.96564Q391.60416 343.96564 391.1354 344.54376Q390.66666 345.10626 390.66666 346.34064ZM399.72916 341.98126L399.72916 340.96564L405.29166 340.96564L405.29166 341.79376Q404.47916 342.66876 403.66666 344.1219Q402.86978 345.5594 402.43228 347.09064Q402.10416 348.16876 402.02603 349.45L400.93228 349.45Q400.9479 348.4344 401.3229 346.9969Q401.71353 345.5594 402.41666 344.23126Q403.1354 342.90314 403.9479 341.98126L399.72916 341.98126Z" fill-rule="nonzero"/><path fill="#000000" d="M428.99133 349.45L428.99133 344.04376L428.05383 344.04376L428.05383 343.23126L428.99133 343.23126L428.99133 342.5594Q428.99133 341.9344 429.1007 341.6375Q429.25696 341.21564 429.63196 340.96564Q430.02258 340.71564 430.71008 340.71564Q431.1632 340.71564 431.69446 340.825L431.5382 341.73126Q431.21008 341.6844 430.9132 341.6844Q430.42883 341.6844 430.2257 341.8875Q430.0382 342.09064 430.0382 342.65314L430.0382 343.23126L431.25696 343.23126L431.25696 344.04376L430.0382 344.04376L430.0382 349.45L428.99133 349.45ZM431.3507 346.34064Q431.3507 344.60626 432.30383 343.77814Q433.1007 343.09064 434.25696 343.09064Q435.5382 343.09064 436.3507 343.9344Q437.17883 344.7625 437.17883 346.2469Q437.17883 347.45 436.81946 348.1375Q436.46008 348.825 435.75696 349.21564Q435.06946 349.59064 434.25696 349.59064Q432.96008 349.59064 432.14758 348.7625Q431.3507 347.91876 431.3507 346.34064ZM432.42883 346.34064Q432.42883 347.52814 432.94446 348.1219Q433.4757 348.71564 434.25696 348.71564Q435.05383 348.71564 435.56946 348.1219Q436.08508 347.52814 436.08508 346.3094Q436.08508 345.15314 435.55383 344.5594Q435.0382 343.96564 434.25696 343.96564Q433.4757 343.96564 432.94446 344.5594Q432.42883 345.1375 432.42883 346.34064ZM438.71008 349.45L438.71008 340.85626L439.77258 340.85626L439.77258 349.45L438.71008 349.45ZM445.77258 349.45L445.77258 348.66876Q445.17883 349.59064 444.0382 349.59064Q443.2882 349.59064 442.6632 349.1844Q442.0382 348.7625 441.69446 348.02814Q441.3507 347.29376 441.3507 346.34064Q441.3507 345.41876 441.6632 344.65314Q441.9757 343.8875 442.6007 343.4969Q443.2257 343.09064 443.99133 343.09064Q444.55383 343.09064 444.99133 343.325Q445.42883 343.5594 445.71008 343.9344L445.71008 340.85626L446.75696 340.85626L446.75696 349.45L445.77258 349.45ZM442.44446 346.34064Q442.44446 347.54376 442.94446 348.1375Q443.44446 348.71564 444.13196 348.71564Q444.81946 348.71564 445.30383 348.15314Q445.7882 347.59064 445.7882 346.4344Q445.7882 345.15314 445.2882 344.5594Q444.80383 343.96564 444.08508 343.96564Q443.38196 343.96564 442.9132 344.54376Q442.44446 345.10626 442.44446 346.34064ZM453.06946 344.79376Q452.4132 344.54376 452.08508 344.10626Q451.77258 343.65314 451.77258 343.04376Q451.77258 342.10626 452.44446 341.46564Q453.13196 340.825 454.24133 340.825Q455.36633 340.825 456.05383 341.48126Q456.74133 342.1375 456.74133 343.075Q456.74133 343.66876 456.42883 344.10626Q456.11633 344.54376 455.4757 344.79376Q456.27258 345.04376 456.67883 345.6219Q457.08508 346.2 457.08508 346.9969Q457.08508 348.09064 456.30383 348.84064Q455.5382 349.59064 454.25696 349.59064Q452.99133 349.59064 452.21008 348.84064Q451.42883 348.09064 451.42883 346.96564Q451.42883 346.1219 451.8507 345.5594Q452.2882 344.9969 453.06946 344.79376ZM452.8507 342.9969Q452.8507 343.60626 453.24133 343.9969Q453.64758 344.3875 454.27258 344.3875Q454.88196 344.3875 455.27258 344.0125Q455.6632 343.6219 455.6632 343.0594Q455.6632 342.48126 455.25696 342.09064Q454.8507 341.6844 454.25696 341.6844Q453.64758 341.6844 453.24133 342.075Q452.8507 342.46564 452.8507 342.9969ZM452.52258 346.96564Q452.52258 347.41876 452.7257 347.84064Q452.94446 348.2625 453.36633 348.4969Q453.7882 348.73126 454.27258 348.73126Q455.02258 348.73126 455.50696 348.2469Q456.00696 347.7625 456.00696 347.0125Q456.00696 346.2469 455.50696 345.7469Q455.00696 345.2469 454.24133 345.2469Q453.49133 345.2469 453.00696 345.7469Q452.52258 346.23126 452.52258 346.96564Z" fill-rule="nonzero"/><path fill="#000000" d="M480.7691 349.45L480.7691 344.04376L479.8316 344.04376L479.8316 343.23126L480.7691 343.23126L480.7691 342.5594Q480.7691 341.9344 480.87848 341.6375Q481.03473 341.21564 481.40973 340.96564Q481.80035 340.71564 482.48785 340.71564Q482.94098 340.71564 483.47223 340.825L483.31598 341.73126Q482.98785 341.6844 482.69098 341.6844Q482.2066 341.6844 482.00348 341.8875Q481.81598 342.09064 481.81598 342.65314L481.81598 343.23126L483.03473 343.23126L483.03473 344.04376L481.81598 344.04376L481.81598 349.45L480.7691 349.45ZM483.12848 346.34064Q483.12848 344.60626 484.0816 343.77814Q484.87848 343.09064 486.03473 343.09064Q487.31598 343.09064 488.12848 343.9344Q488.9566 344.7625 488.9566 346.2469Q488.9566 347.45 488.59723 348.1375Q488.23785 348.825 487.53473 349.21564Q486.84723 349.59064 486.03473 349.59064Q484.73785 349.59064 483.92535 348.7625Q483.12848 347.91876 483.12848 346.34064ZM484.2066 346.34064Q484.2066 347.52814 484.72223 348.1219Q485.25348 348.71564 486.03473 348.71564Q486.8316 348.71564 487.34723 348.1219Q487.86285 347.52814 487.86285 346.3094Q487.86285 345.15314 487.3316 344.5594Q486.81598 343.96564 486.03473 343.96564Q485.25348 343.96564 484.72223 344.5594Q484.2066 345.1375 484.2066 346.34064ZM490.48785 349.45L490.48785 340.85626L491.55035 340.85626L491.55035 349.45L490.48785 349.45ZM497.55035 349.45L497.55035 348.66876Q496.9566 349.59064 495.81598 349.59064Q495.06598 349.59064 494.44098 349.1844Q493.81598 348.7625 493.47223 348.02814Q493.12848 347.29376 493.12848 346.34064Q493.12848 345.41876 493.44098 344.65314Q493.75348 343.8875 494.37848 343.4969Q495.00348 343.09064 495.7691 343.09064Q496.3316 343.09064 496.7691 343.325Q497.2066 343.5594 497.48785 343.9344L497.48785 340.85626L498.53473 340.85626L498.53473 349.45L497.55035 349.45ZM494.22223 346.34064Q494.22223 347.54376 494.72223 348.1375Q495.22223 348.71564 495.90973 348.71564Q496.59723 348.71564 497.0816 348.15314Q497.56598 347.59064 497.56598 346.4344Q497.56598 345.15314 497.06598 344.5594Q496.5816 343.96564 495.86285 343.96564Q495.15973 343.96564 494.69098 344.54376Q494.22223 345.10626 494.22223 346.34064ZM503.37848 347.46564L504.3941 347.3719Q504.5191 348.09064 504.87848 348.41876Q505.25348 348.73126 505.81598 348.73126Q506.30035 348.73126 506.65973 348.5125Q507.03473 348.27814 507.2691 347.91876Q507.50348 347.54376 507.65973 346.91876Q507.81598 346.27814 507.81598 345.6219Q507.81598 345.54376 507.81598 345.40314Q507.50348 345.90314 506.9566 346.23126Q506.40973 346.54376 505.7691 346.54376Q504.69098 346.54376 503.9566 345.77814Q503.22223 344.9969 503.22223 343.73126Q503.22223 342.41876 503.98785 341.6219Q504.7691 340.825 505.92535 340.825Q506.75348 340.825 507.44098 341.27814Q508.1441 341.73126 508.50348 342.575Q508.86285 343.40314 508.86285 344.98126Q508.86285 346.6219 508.50348 347.60626Q508.15973 348.575 507.44098 349.09064Q506.73785 349.59064 505.80035 349.59064Q504.78473 349.59064 504.1441 349.04376Q503.50348 348.48126 503.37848 347.46564ZM507.69098 343.66876Q507.69098 342.7625 507.2066 342.23126Q506.73785 341.7 506.05035 341.7Q505.34723 341.7 504.81598 342.27814Q504.30035 342.84064 504.30035 343.7625Q504.30035 344.575 504.80035 345.09064Q505.30035 345.60626 506.0191 345.60626Q506.75348 345.60626 507.22223 345.09064Q507.69098 344.575 507.69098 343.66876Z" fill-rule="nonzero"/><path fill="#000000" d="M529.0469 349.45L529.0469 344.04376L528.1094 344.04376L528.1094 343.23126L529.0469 343.23126L529.0469 342.5594Q529.0469 341.9344 529.15625 341.6375Q529.3125 341.21564 529.6875 340.96564Q530.0781 340.71564 530.7656 340.71564Q531.21875 340.71564 531.75 340.825L531.59375 341.73126Q531.2656 341.6844 530.96875 341.6844Q530.4844 341.6844 530.28125 341.8875Q530.09375 342.09064 530.09375 342.65314L530.09375 343.23126L531.3125 343.23126L531.3125 344.04376L530.09375 344.04376L530.09375 349.45L529.0469 349.45ZM531.40625 346.34064Q531.40625 344.60626 532.3594 343.77814Q533.15625 343.09064 534.3125 343.09064Q535.59375 343.09064 536.40625 343.9344Q537.2344 344.7625 537.2344 346.2469Q537.2344 347.45 536.875 348.1375Q536.5156 348.825 535.8125 349.21564Q535.125 349.59064 534.3125 349.59064Q533.0156 349.59064 532.2031 348.7625Q531.40625 347.91876 531.40625 346.34064ZM532.4844 346.34064Q532.4844 347.52814 533.0 348.1219Q533.53125 348.71564 534.3125 348.71564Q535.1094 348.71564 535.625 348.1219Q536.1406 347.52814 536.1406 346.3094Q536.1406 345.15314 535.6094 344.5594Q535.09375 343.96564 534.3125 343.96564Q533.53125 343.96564 533.0 344.5594Q532.4844 345.1375 532.4844 346.34064ZM538.7656 349.45L538.7656 340.85626L539.8281 340.85626L539.8281 349.45L538.7656 349.45ZM545.8281 349.45L545.8281 348.66876Q545.2344 349.59064 544.09375 349.59064Q543.34375 349.59064 542.71875 349.1844Q542.09375 348.7625 541.75 348.02814Q541.40625 347.29376 541.40625 346.34064Q541.40625 345.41876 541.71875 344.65314Q542.03125 343.8875 542.65625 343.4969Q543.28125 343.09064 544.0469 343.09064Q544.6094 343.09064 545.0469 343.325Q545.4844 343.5594 545.7656 343.9344L545.7656 340.85626L546.8125 340.85626L546.8125 349.45L545.8281 349.45ZM542.5 346.34064Q542.5 347.54376 543.0 348.1375Q543.5 348.71564 544.1875 348.71564Q544.875 348.71564 545.3594 348.15314Q545.84375 347.59064 545.84375 346.4344Q545.84375 345.15314 545.34375 344.5594Q544.8594 343.96564 544.1406 343.96564Q543.4375 343.96564 542.96875 344.54376Q542.5 345.10626 542.5 346.34064ZM555.46875 349.45L554.4219 349.45L554.4219 342.73126Q554.03125 343.09064 553.40625 343.46564Q552.7969 343.825 552.3125 343.9969L552.3125 342.98126Q553.1875 342.5594 553.84375 341.98126Q554.5156 341.3875 554.7969 340.825L555.46875 340.825L555.46875 349.45ZM558.5 345.21564Q558.5 343.6844 558.8125 342.7625Q559.125 341.825 559.7344 341.325Q560.3594 340.825 561.2969 340.825Q561.9844 340.825 562.5 341.10626Q563.03125 341.3875 563.375 341.91876Q563.71875 342.4344 563.90625 343.1844Q564.09375 343.9344 564.09375 345.21564Q564.09375 346.73126 563.78125 347.65314Q563.4844 348.575 562.8594 349.09064Q562.25 349.59064 561.2969 349.59064Q560.0625 349.59064 559.34375 348.7Q558.5 347.6375 558.5 345.21564ZM559.5781 345.21564Q559.5781 347.325 560.0781 348.02814Q560.5781 348.73126 561.2969 348.73126Q562.03125 348.73126 562.5156 348.02814Q563.0156 347.325 563.0156 345.21564Q563.0156 343.09064 562.5156 342.40314Q562.03125 341.7 561.28125 341.7Q560.5625 341.7 560.125 342.3094Q559.5781 343.09064 559.5781 345.21564Z" fill-rule="nonzero"/><path fill="#4285f4" d="M231.5 56.916668C231.5 56.364384 231.94771 55.916668 232.5 55.916668L242.5 55.916668C243.05229 55.916668 243.5 56.364384 243.5 56.916668L243.5 66.916664C243.5 67.46895 243.05229 67.916664 242.5 67.916664L232.5 67.916664C231.94771 67.916664 231.5 67.46895 231.5 66.916664Z" fill-rule="nonzero"/><path fill="#1a1a1a" d="M252.375 65.916664L252.375 57.322914L253.51562 57.322914L253.51562 64.90104L257.75 64.90104L257.75 65.916664L252.375 65.916664ZM259.42188 65.916664L259.42188 57.322914L262.67188 57.322914Q263.51562 57.322914 263.96875 57.40104Q264.60938 57.510414 265.03125 57.80729Q265.46875 58.104164 265.71875 58.635414Q265.98438 59.166664 265.98438 59.80729Q265.98438 60.90104 265.28125 61.666664Q264.59375 62.416664 262.76562 62.416664L260.5625 62.416664L260.5625 65.916664L259.42188 65.916664ZM260.5625 61.416664L262.78125 61.416664Q263.89062 61.416664 264.34375 61.010414Q264.8125 60.58854 264.8125 59.83854Q264.8125 59.30729 264.53125 58.93229Q264.26562 58.541664 263.82812 58.416664Q263.53125 58.33854 262.76562 58.33854L260.5625 58.33854L260.5625 61.416664Z" fill-rule="nonzero"/><path fill="#ea4335" d="M282.5 56.916668C282.5 56.364384 282.94772 55.916668 283.5 55.916668L293.5 55.916668C294.05228 55.916668 294.5 56.364384 294.5 56.916668L294.5 66.916664C294.5 67.46895 294.05228 67.916664 293.5 67.916664L283.5 67.916664C282.94772 67.916664 282.5 67.46895 282.5 66.916664Z" fill-rule="nonzero"/><path fill="#1a1a1a" d="M303.375 65.916664L303.375 57.322914L304.51562 57.322914L304.51562 64.90104L308.75 64.90104L308.75 65.916664L303.375 65.916664ZM310.4375 65.916664L310.4375 57.322914L314.25 57.322914Q315.40625 57.322914 316.0 57.55729Q316.59375 57.791664 316.95312 58.385414Q317.3125 58.96354 317.3125 59.666664Q317.3125 60.58854 316.71875 61.21354Q316.125 61.83854 314.89062 62.010414Q315.34375 62.229164 315.57812 62.43229Q316.07812 62.885414 316.51562 63.572914L318.01562 65.916664L316.57812 65.916664L315.45312 64.135414Q314.95312 63.354164 314.625 62.947914Q314.3125 62.541664 314.04688 62.385414Q313.79688 62.21354 313.53125 62.135414Q313.34375 62.104164 312.90625 62.104164L311.57812 62.104164L311.57812 65.916664L310.4375 65.916664ZM311.57812 61.11979L314.03125 61.11979Q314.79688 61.11979 315.23438 60.96354Q315.6875 60.791664 315.90625 60.447914Q316.14062 60.08854 316.14062 59.666664Q316.14062 59.05729 315.6875 58.666664Q315.25 58.27604 314.29688 58.27604L311.57812 58.27604L311.57812 61.11979Z" fill-rule="nonzero"/><path fill="#fbbc04" d="M334.5 56.916668C334.5 56.364384 334.94772 55.916668 335.5 55.916668L345.5 55.916668C346.05228 55.916668 346.5 56.364384 346.5 56.916668L346.5 66.916664C346.5 67.46895 346.05228 67.916664 345.5 67.916664L335.5 67.916664C334.94772 67.916664 334.5 67.46895 334.5 66.916664Z" fill-rule="nonzero"/><path fill="#1a1a1a" d="M355.48438 65.916664L355.48438 57.322914L361.28125 57.322914L361.28125 58.33854L356.625 58.33854L356.625 60.99479L360.65625 60.99479L360.65625 62.010414L356.625 62.010414L356.625 65.916664L355.48438 65.916664ZM365.96875 65.916664L364.92188 65.916664L364.92188 59.197914Q364.53125 59.55729 363.90625 59.93229Q363.29688 60.291664 362.8125 60.46354L362.8125 59.447914Q363.6875 59.02604 364.34375 58.447914Q365.01562 57.854164 365.29688 57.291664L365.96875 57.291664L365.96875 65.916664Z" fill-rule="nonzero"/><path fill="#757575" d="M19.8625 41.51875L19.8625 27.175L21.471874 27.175L21.471874 28.51875Q22.034374 27.7375 22.7375 27.346874Q23.45625 26.940624 24.471874 26.940624Q25.8 26.940624 26.815624 27.628124Q27.83125 28.315624 28.346874 29.565624Q28.878124 30.8 28.878124 32.284374Q28.878124 33.878124 28.3 35.159374Q27.7375 36.425 26.64375 37.1125Q25.55 37.784374 24.346874 37.784374Q23.471874 37.784374 22.76875 37.409374Q22.08125 37.034374 21.628124 36.471874L21.628124 41.51875L19.8625 41.51875ZM21.45625 32.425Q21.45625 34.425 22.26875 35.378124Q23.08125 36.33125 24.2375 36.33125Q25.409374 36.33125 26.2375 35.346874Q27.08125 34.3625 27.08125 32.26875Q27.08125 30.3 26.253124 29.315624Q25.440624 28.315624 24.315624 28.315624Q23.190624 28.315624 22.315624 29.378124Q21.45625 30.425 21.45625 32.425ZM37.64375 33.753124L39.3625 33.971874Q39.08125 35.76875 37.909374 36.784374Q36.753124 37.784374 35.05 37.784374Q32.925 37.784374 31.628124 36.39375Q30.33125 35.003124 30.33125 32.409374Q30.33125 30.721874 30.878124 29.471874Q31.440624 28.20625 32.58125 27.58125Q33.721874 26.940624 35.065624 26.940624Q36.753124 26.940624 37.815624 27.8Q38.89375 28.659374 39.20625 30.221874L37.4875 30.4875Q37.253124 29.440624 36.628124 28.925Q36.003124 28.39375 35.128124 28.39375Q33.8 28.39375 32.971874 29.346874Q32.14375 30.3 32.14375 32.346874Q32.14375 34.440624 32.940624 35.39375Q33.7375 36.33125 35.034374 36.33125Q36.065624 36.33125 36.753124 35.70625Q37.45625 35.065624 37.64375 33.753124ZM41.284374 37.55L41.284374 28.55L39.7375 28.55L39.7375 27.175L41.284374 27.175L41.284374 26.08125Q41.284374 25.034374 41.471874 24.51875Q41.721874 23.83125 42.3625 23.409374Q43.003124 22.9875 44.159374 22.9875Q44.909374 22.9875 45.8 23.159374L45.534374 24.690624Q44.9875 24.596874 44.503124 24.596874Q43.70625 24.596874 43.3625 24.940624Q43.034374 25.284374 43.034374 26.221874L43.034374 27.175L45.065624 27.175L45.065624 28.55L43.034374 28.55L43.034374 37.55L41.284374 37.55ZM46.55 38.409374L48.253124 38.659374Q48.3625 39.45625 48.846874 39.815624Q49.503124 40.3 50.64375 40.3Q51.8625 40.3 52.51875 39.815624Q53.190624 39.33125 53.425 38.45625Q53.565624 37.909374 53.55 36.190624Q52.39375 37.55 50.675 37.55Q48.534374 37.55 47.3625 36.003124Q46.190624 34.45625 46.190624 32.3Q46.190624 30.815624 46.721874 29.565624Q47.26875 28.315624 48.284374 27.628124Q49.315624 26.940624 50.690624 26.940624Q52.51875 26.940624 53.721874 28.425L53.721874 27.175L55.33125 27.175L55.33125 36.14375Q55.33125 38.565624 54.83125 39.565624Q54.346874 40.58125 53.26875 41.159374Q52.20625 41.753124 50.64375 41.753124Q48.8 41.753124 47.64375 40.925Q46.503124 40.096874 46.55 38.409374ZM48.003124 32.175Q48.003124 34.221874 48.815624 35.159374Q49.628124 36.096874 50.846874 36.096874Q52.05 36.096874 52.8625 35.159374Q53.690624 34.221874 53.690624 32.2375Q53.690624 30.33125 52.846874 29.3625Q52.003124 28.39375 50.815624 28.39375Q49.64375 28.39375 48.815624 29.346874Q48.003124 30.3 48.003124 32.175ZM64.01875 37.55L64.01875 23.2375L65.90938 23.2375L65.90938 35.8625L72.95625 35.8625L72.95625 37.55L64.01875 37.55ZM75.09688 37.55L75.09688 23.2375L80.4875 23.2375Q81.925 23.2375 82.675 23.3625Q83.72188 23.55 84.44063 24.05Q85.15938 24.534374 85.58125 25.425Q86.01875 26.315624 86.01875 27.378124Q86.01875 29.20625 84.84688 30.471874Q83.69063 31.721874 80.65938 31.721874L76.9875 31.721874L76.9875 37.55L75.09688 37.55ZM76.9875 30.034374L80.69063 30.034374Q82.51875 30.034374 83.28438 29.3625Q84.06563 28.675 84.06563 27.425Q84.06563 26.534374 83.6125 25.89375Q83.15938 25.253124 82.425 25.05Q81.94063 24.925 80.64375 24.925L76.9875 24.925L76.9875 30.034374ZM86.55 37.8L90.70625 22.9875L92.1125 22.9875L87.97188 37.8L86.55 37.8ZM94.01875 37.55L94.01875 23.2375L95.90938 23.2375L95.90938 35.8625L102.95625 35.8625L102.95625 37.55L94.01875 37.55ZM105.12813 37.55L105.12813 23.2375L111.47188 23.2375Q113.37813 23.2375 114.37813 23.628124Q115.37813 24.003124 115.97188 24.9875Q116.56563 25.95625 116.56563 27.14375Q116.56563 28.659374 115.58125 29.70625Q114.59688 30.753124 112.53438 31.034374Q113.28438 31.39375 113.675 31.753124Q114.50313 32.503124 115.25313 33.659374L117.7375 37.55L115.3625 37.55L113.45625 34.565624Q112.62813 33.284374 112.09688 32.596874Q111.56563 31.909374 111.12813 31.64375Q110.70625 31.3625 110.26875 31.253124Q109.94063 31.190624 109.22188 31.190624L107.01875 31.190624L107.01875 37.55L105.12813 37.55ZM107.01875 29.55L111.09688 29.55Q112.39375 29.55 113.1125 29.284374Q113.84688 29.01875 114.22188 28.425Q114.6125 27.83125 114.6125 27.14375Q114.6125 26.128124 113.87813 25.471874Q113.14375 24.815624 111.55 24.815624L107.01875 24.815624L107.01875 29.55ZM124.19063 33.253124L124.19063 31.4875L129.58125 31.4875L129.58125 33.253124L124.19063 33.253124ZM148.31563 32.534374L150.20625 33.003124Q149.6125 35.346874 148.06563 36.58125Q146.51875 37.8 144.26875 37.8Q141.95625 37.8 140.50313 36.8625Q139.06563 35.909374 138.3 34.128124Q137.55 32.33125 137.55 30.284374Q137.55 28.05 138.39375 26.39375Q139.25313 24.721874 140.83125 23.8625Q142.40938 22.9875 144.3 22.9875Q146.45625 22.9875 147.90938 24.08125Q149.37813 25.175 149.95625 27.159374L148.09688 27.596874Q147.59688 26.034374 146.64375 25.33125Q145.70625 24.6125 144.26875 24.6125Q142.6125 24.6125 141.50313 25.409374Q140.39375 26.190624 139.94063 27.534374Q139.50313 28.8625 139.50313 30.26875Q139.50313 32.096874 140.03438 33.471874Q140.56563 34.83125 141.69063 35.503124Q142.81563 36.175 144.1125 36.175Q145.70625 36.175 146.81563 35.253124Q147.925 34.33125 148.31563 32.534374ZM152.40938 37.55L152.40938 23.2375L154.31563 23.2375L154.31563 37.55L152.40938 37.55ZM158.08125 37.55L158.08125 23.2375L160.01875 23.2375L167.53438 34.471874L167.53438 23.2375L169.34688 23.2375L169.34688 37.55L167.40938 37.55L159.89375 26.3L159.89375 37.55L158.08125 37.55ZM175.7375 37.55L175.7375 24.925L171.01875 24.925L171.01875 23.2375L182.3625 23.2375L182.3625 24.925L177.62813 24.925L177.62813 37.55L175.7375 37.55ZM184.40938 37.55L184.40938 23.2375L186.31563 23.2375L186.31563 37.55L184.40938 37.55ZM190.01875 37.55L190.01875 23.2375L191.90938 23.2375L191.90938 35.8625L198.95625 35.8625L198.95625 37.55L190.01875 37.55Z" fill-rule="nonzero"/></svg>