<svg version="1.1" viewBox="0.0 0.0 600.0 371.0" fill="none" stroke="none" stroke-linecap="square" stroke-miterlimit="10" width="600" height="371" xmlns:xlink="http://www.w3.org/1999/xlink" xmlns="http://www.w3.org/2000/svg"><path fill="#ffffff" d="M0 0L600.0 0L600.0 371.0L0 371.0L0 0Z" fill-rule="nonzero"/><path stroke="#333333" stroke-width="1.0" stroke-linecap="butt" d="M45.5 300.5L581.5 300.5" fill-rule="nonzero"/><path stroke="#cccccc" stroke-width="1.0" stroke-linecap="butt" d="M45.5 247.5L581.5 247.5" fill-rule="nonzero"/><path stroke="#cccccc" stroke-width="1.0" stroke-linecap="butt" d="M45.5 194.5L581.5 194.5" fill-rule="nonzero"/><path stroke="#cccccc" stroke-width="1.0" stroke-linecap="butt" d="M45.5 141.5L581.5 141.5" fill-rule="nonzero"/><path stroke="#cccccc" stroke-width="1.0" stroke-linecap="butt" d="M45.5 88.5L581.5 88.5" fill-rule="nonzero"/><clipPath id="id_0"><path d="M45.55 88.28333L581.45 88.28333L581.45 300.45L45.55 300.45L45.55 88.28333Z" clip-rule="nonzero"/></clipPath><path stroke="#000000" stroke-width="0.0" stroke-linecap="butt" stroke-opacity="0.0" clip-path="url(#id_0)" d="M80.0 300.0L64.0 300.0L64.0 171.0C64.0 169.89543 64.89543 169.0 66.0 169.0L78.0 169.0C79.10457 169.0 80.0 169.89543 80.0 171.0Z" fill-rule="nonzero"/><path fill="#4285f4" clip-path="url(#id_0)" d="M80.0 300.0L64.0 300.0L64.0 171.0C64.0 169.89543 64.89543 169.0 66.0 169.0L78.0 169.0C79.10457 169.0 80.0 169.89543 80.0 171.0Z" fill-rule="nonzero"/><path stroke="#000000" stroke-width="0.0" stroke-linecap="butt" stroke-opacity="0.0" clip-path="url(#id_0)" d="M131.0 300.0L115.0 300.0L115.0 170.0C115.0 168.89543 115.89543 168.0 117.0 168.0L129.0 168.0C130.10457 168.0 131.0 168.89543 131.0 170.0Z" fill-rule="nonzero"/><path fill="#4285f4" clip-path="url(#id_0)" d="M131.0 300.0L115.0 300.0L115.0 170.0C115.0 168.89543 115.89543 168.0 117.0 168.0L129.0 168.0C130.10457 168.0 131.0 168.89543 131.0 170.0Z" fill-rule="nonzero"/><path stroke="#000000" stroke-width="0.0" stroke-linecap="butt" stroke-opacity="0.0" clip-path="url(#id_0)" d="M183.0 300.0L167.0 300.0L167.0 185.0C167.0 183.89543 167.89543 183.0 169.0 183.0L181.0 183.0C182.10457 183.0 183.0 183.89543 183.0 185.0Z" fill-rule="nonzero"/><path fill="#4285f4" clip-path="url(#id_0)" d="M183.0 300.0L167.0 300.0L167.0 185.0C167.0 183.89543 167.89543 183.0 169.0 183.0L181.0 183.0C182.10457 183.0 183.0 183.89543 183.0 185.0Z" fill-rule="nonzero"/><path stroke="#000000" stroke-width="0.0" stroke-linecap="butt" stroke-opacity="0.0" clip-path="url(#id_0)" d="M235.0 300.0L219.0 300.0L219.0 191.0C219.0 189.89543 219.89543 189.0 221.0 189.0L233.0 189.0C234.10457 189.0 235.0 189.89543 235.0 191.0Z" fill-rule="nonzero"/><path fill="#4285f4" clip-path="url(#id_0)" d="M235.0 300.0L219.0 300.0L219.0 191.0C219.0 189.89543 219.89543 189.0 221.0 189.0L233.0 189.0C234.10457 189.0 235.0 189.89543 235.0 191.0Z" fill-rule="nonzero"/><path stroke="#000000" stroke-width="0.0" stroke-linecap="butt" stroke-opacity="0.0" clip-path="url(#id_0)" d="M287.0 300.0L271.0 300.0L271.0 169.0C271.0 167.89543 271.89542 167.0 273.0 167.0L285.0 167.0C286.10458 167.0 287.0 167.89543 287.0 169.0Z" fill-rule="nonzero"/><path fill="#4285f4" clip-path="url(#id_0)" d="M287.0 300.0L271.0 300.0L271.0 169.0C271.0 167.89543 271.89542 167.0 273.0 167.0L285.0 167.0C286.10458 167.0 287.0 167.89543 287.0 169.0Z" fill-rule="nonzero"/><path stroke="#000000" stroke-width="0.0" stroke-linecap="butt" stroke-opacity="0.0" clip-path="url(#id_0)" d="M338.0 300.0L322.0 300.0L322.0 179.0C322.0 177.89543 322.89542 177.0 324.0 177.0L336.0 177.0C337.10458 177.0 338.0 177.89543 338.0 179.0Z" fill-rule="nonzero"/><path fill="#4285f4" clip-path="url(#id_0)" d="M338.0 300.0L322.0 300.0L322.0 179.0C322.0 177.89543 322.89542 177.0 324.0 177.0L336.0 177.0C337.10458 177.0 338.0 177.89543 338.0 179.0Z" fill-rule="nonzero"/><path stroke="#000000" stroke-width="0.0" stroke-linecap="butt" stroke-opacity="0.0" clip-path="url(#id_0)" d="M390.0 300.0L374.0 300.0L374.0 169.0C374.0 167.89543 374.89542 167.0 376.0 167.0L388.0 167.0C389.10458 167.0 390.0 167.89543 390.0 169.0Z" fill-rule="nonzero"/><path fill="#4285f4" clip-path="url(#id_0)" d="M390.0 300.0L374.0 300.0L374.0 169.0C374.0 167.89543 374.89542 167.0 376.0 167.0L388.0 167.0C389.10458 167.0 390.0 167.89543 390.0 169.0Z" fill-rule="nonzero"/><path stroke="#000000" stroke-width="0.0" stroke-linecap="butt" stroke-opacity="0.0" clip-path="url(#id_0)" d="M442.0 300.0L426.0 300.0L426.0 189.0C426.0 187.89543 426.89542 187.0 428.0 187.0L440.0 187.0C441.10458 187.0 442.0 187.89543 442.0 189.0Z" fill-rule="nonzero"/><path fill="#4285f4" clip-path="url(#id_0)" d="M442.0 300.0L426.0 300.0L426.0 189.0C426.0 187.89543 426.89542 187.0 428.0 187.0L440.0 187.0C441.10458 187.0 442.0 187.89543 442.0 189.0Z" fill-rule="nonzero"/><path stroke="#000000" stroke-width="0.0" stroke-linecap="butt" stroke-opacity="0.0" clip-path="url(#id_0)" d="M494.0 300.0L478.0 300.0L478.0 176.0C478.0 174.89543 478.89542 174.0 480.0 174.0L492.0 174.0C493.10458 174.0 494.0 174.89543 494.0 176.0Z" fill-rule="nonzero"/><path fill="#4285f4" clip-path="url(#id_0)" d="M494.0 300.0L478.0 300.0L478.0 176.0C478.0 174.89543 478.89542 174.0 480.0 174.0L492.0 174.0C493.10458 174.0 494.0 174.89543 494.0 176.0Z" fill-rule="nonzero"/><path stroke="#000000" stroke-width="0.0" stroke-linecap="butt" stroke-opacity="0.0" clip-path="url(#id_0)" d="M546.0 300.0L530.0 300.0L530.0 167.0C530.0 165.89543 530.89545 165.0 532.0 165.0L544.0 165.0C545.10455 165.0 546.0 165.89543 546.0 167.0Z" fill-rule="nonzero"/><path fill="#4285f4" clip-path="url(#id_0)" d="M546.0 300.0L530.0 300.0L530.0 167.0C530.0 165.89543 530.89545 165.0 532.0 165.0L544.0 165.0C545.10455 165.0 546.0 165.89543 546.0 167.0Z" fill-rule="nonzero"/><path stroke="#000000" stroke-width="0.0" stroke-linecap="butt" stroke-opacity="0.0" clip-path="url(#id_0)" d="M97.0 300.0L81.0 300.0L81.0 197.0C81.0 195.89543 81.89543 195.0 83.0 195.0L95.0 195.0C96.10457 195.0 97.0 195.89543 97.0 197.0Z" fill-rule="nonzero"/><path fill="#ea4335" clip-path="url(#id_0)" d="M97.0 300.0L81.0 300.0L81.0 197.0C81.0 195.89543 81.89543 195.0 83.0 195.0L95.0 195.0C96.10457 195.0 97.0 195.89543 97.0 197.0Z" fill-rule="nonzero"/><path stroke="#000000" stroke-width="0.0" stroke-linecap="butt" stroke-opacity="0.0" clip-path="url(#id_0)" d="M148.0 300.0L132.0 300.0L132.0 197.0C132.0 195.89543 132.89543 195.0 134.0 195.0L146.0 195.0C147.10457 195.0 148.0 195.89543 148.0 197.0Z" fill-rule="nonzero"/><path fill="#ea4335" clip-path="url(#id_0)" d="M148.0 300.0L132.0 300.0L132.0 197.0C132.0 195.89543 132.89543 195.0 134.0 195.0L146.0 195.0C147.10457 195.0 148.0 195.89543 148.0 197.0Z" fill-rule="nonzero"/><path stroke="#000000" stroke-width="0.0" stroke-linecap="butt" stroke-opacity="0.0" clip-path="url(#id_0)" d="M200.0 300.0L184.0 300.0L184.0 202.0C184.0 200.89543 184.89543 200.0 186.0 200.0L198.0 200.0C199.10457 200.0 200.0 200.89543 200.0 202.0Z" fill-rule="nonzero"/><path fill="#ea4335" clip-path="url(#id_0)" d="M200.0 300.0L184.0 300.0L184.0 202.0C184.0 200.89543 184.89543 200.0 186.0 200.0L198.0 200.0C199.10457 200.0 200.0 200.89543 200.0 202.0Z" fill-rule="nonzero"/><path stroke="#000000" stroke-width="0.0" stroke-linecap="butt" stroke-opacity="0.0" clip-path="url(#id_0)" d="M252.0 300.0L236.0 300.0L236.0 195.0C236.0 193.89543 236.89543 193.0 238.0 193.0L250.0 193.0C251.10457 193.0 252.0 193.89543 252.0 195.0Z" fill-rule="nonzero"/><path fill="#ea4335" clip-path="url(#id_0)" d="M252.0 300.0L236.0 300.0L236.0 195.0C236.0 193.89543 236.89543 193.0 238.0 193.0L250.0 193.0C251.10457 193.0 252.0 193.89543 252.0 195.0Z" fill-rule="nonzero"/><path stroke="#000000" stroke-width="0.0" stroke-linecap="butt" stroke-opacity="0.0" clip-path="url(#id_0)" d="M304.0 300.0L288.0 300.0L288.0 200.0C288.0 198.89543 288.89542 198.0 290.0 198.0L302.0 198.0C303.10458 198.0 304.0 198.89543 304.0 200.0Z" fill-rule="nonzero"/><path fill="#ea4335" clip-path="url(#id_0)" d="M304.0 300.0L288.0 300.0L288.0 200.0C288.0 198.89543 288.89542 198.0 290.0 198.0L302.0 198.0C303.10458 198.0 304.0 198.89543 304.0 200.0Z" fill-rule="nonzero"/><path stroke="#000000" stroke-width="0.0" stroke-linecap="butt" stroke-opacity="0.0" clip-path="url(#id_0)" d="M355.0 300.0L339.0 300.0L339.0 194.0C339.0 192.89543 339.89542 192.0 341.0 192.0L353.0 192.0C354.10458 192.0 355.0 192.89543 355.0 194.0Z" fill-rule="nonzero"/><path fill="#ea4335" clip-path="url(#id_0)" d="M355.0 300.0L339.0 300.0L339.0 194.0C339.0 192.89543 339.89542 192.0 341.0 192.0L353.0 192.0C354.10458 192.0 355.0 192.89543 355.0 194.0Z" fill-rule="nonzero"/><path stroke="#000000" stroke-width="0.0" stroke-linecap="butt" stroke-opacity="0.0" clip-path="url(#id_0)" d="M407.0 300.0L391.0 300.0L391.0 203.0C391.0 201.89543 391.89542 201.0 393.0 201.0L405.0 201.0C406.10458 201.0 407.0 201.89543 407.0 203.0Z" fill-rule="nonzero"/><path fill="#ea4335" clip-path="url(#id_0)" d="M407.0 300.0L391.0 300.0L391.0 203.0C391.0 201.89543 391.89542 201.0 393.0 201.0L405.0 201.0C406.10458 201.0 407.0 201.89543 407.0 203.0Z" fill-rule="nonzero"/><path stroke="#000000" stroke-width="0.0" stroke-linecap="butt" stroke-opacity="0.0" clip-path="url(#id_0)" d="M459.0 300.0L443.0 300.0L443.0 201.0C443.0 199.89543 443.89542 199.0 445.0 199.0L457.0 199.0C458.10458 199.0 459.0 199.89543 459.0 201.0Z" fill-rule="nonzero"/><path fill="#ea4335" clip-path="url(#id_0)" d="M459.0 300.0L443.0 300.0L443.0 201.0C443.0 199.89543 443.89542 199.0 445.0 199.0L457.0 199.0C458.10458 199.0 459.0 199.89543 459.0 201.0Z" fill-rule="nonzero"/><path stroke="#000000" stroke-width="0.0" stroke-linecap="butt" stroke-opacity="0.0" clip-path="url(#id_0)" d="M511.0 300.0L495.0 300.0L495.0 196.0C495.0 194.89543 495.89542 194.0 497.0 194.0L509.0 194.0C510.10458 194.0 511.0 194.89543 511.0 196.0Z" fill-rule="nonzero"/><path fill="#ea4335" clip-path="url(#id_0)" d="M511.0 300.0L495.0 300.0L495.0 196.0C495.0 194.89543 495.89542 194.0 497.0 194.0L509.0 194.0C510.10458 194.0 511.0 194.89543 511.0 196.0Z" fill-rule="nonzero"/><path stroke="#000000" stroke-width="0.0" stroke-linecap="butt" stroke-opacity="0.0" clip-path="url(#id_0)" d="M563.0 300.0L547.0 300.0L547.0 189.0C547.0 187.89543 547.89545 187.0 549.0 187.0L561.0 187.0C562.10455 187.0 563.0 187.89543 563.0 189.0Z" fill-rule="nonzero"/><path fill="#ea4335" clip-path="url(#id_0)" d="M563.0 300.0L547.0 300.0L547.0 189.0C547.0 187.89543 547.89545 187.0 549.0 187.0L561.0 187.0C562.10455 187.0 563.0 187.89543 563.0 189.0Z" fill-rule="nonzero"/><path fill="#000000" d="M299.48438 349.45L299.48438 340.85626L305.28125 340.85626L305.28125 341.8719L300.625 341.8719L300.625 344.52814L304.65625 344.52814L304.65625 345.54376L300.625 345.54376L300.625 349.45L299.48438 349.45ZM305.90625 346.34064Q305.90625 344.60626 306.85938 343.77814Q307.65625 343.09064 308.8125 343.09064Q310.09375 343.09064 310.90625 343.9344Q311.73438 344.7625 311.73438 346.2469Q311.73438 347.45 311.375 348.1375Q311.01562 348.825 310.3125 349.21564Q309.625 349.59064 308.8125 349.59064Q307.51562 349.59064 306.70312 348.7625Q305.90625 347.91876 305.90625 346.34064ZM306.98438 346.34064Q306.98438 347.52814 307.5 348.1219Q308.03125 348.71564 308.8125 348.71564Q309.60938 348.71564 310.125 348.1219Q310.64062 347.52814 310.64062 346.3094Q310.64062 345.15314 310.10938 344.5594Q309.59375 343.96564 308.8125 343.96564Q308.03125 343.96564 307.5 344.5594Q306.98438 345.1375 306.98438 346.34064ZM313.26562 349.45L313.26562 340.85626L314.32812 340.85626L314.32812 349.45L313.26562 349.45ZM320.32812 349.45L320.32812 348.66876Q319.73438 349.59064 318.59375 349.59064Q317.84375 349.59064 317.21875 349.1844Q316.59375 348.7625 316.25 348.02814Q315.90625 347.29376 315.90625 346.34064Q315.90625 345.41876 316.21875 344.65314Q316.53125 343.8875 317.15625 343.4969Q317.78125 343.09064 318.54688 343.09064Q319.10938 343.09064 319.54688 343.325Q319.98438 343.5594 320.26562 343.9344L320.26562 340.85626L321.3125 340.85626L321.3125 349.45L320.32812 349.45ZM317.0 346.34064Q317.0 347.54376 317.5 348.1375Q318.0 348.71564 318.6875 348.71564Q319.375 348.71564 319.85938 348.15314Q320.34375 347.59064 320.34375 346.4344Q320.34375 345.15314 319.84375 344.5594Q319.35938 343.96564 318.64062 343.96564Q317.9375 343.96564 317.46875 344.54376Q317.0 345.10626 317.0 346.34064ZM322.875 347.59064L323.90625 347.4344Q324.0 348.0594 324.39062 348.3875Q324.79688 348.71564 325.53125 348.71564Q326.25 348.71564 326.59375 348.4344Q326.95312 348.1375 326.95312 347.73126Q326.95312 347.3719 326.64062 347.16876Q326.42188 347.02814 325.5625 346.8094Q324.40625 346.5125 323.95312 346.3094Q323.51562 346.09064 323.28125 345.71564Q323.04688 345.34064 323.04688 344.8719Q323.04688 344.46564 323.23438 344.10626Q323.42188 343.7469 323.75 343.5125Q324.0 343.34064 324.42188 343.21564Q324.84375 343.09064 325.34375 343.09064Q326.0625 343.09064 326.60938 343.3094Q327.17188 343.5125 327.4375 343.8719Q327.70312 344.23126 327.79688 344.825L326.76562 344.96564Q326.70312 344.4969 326.35938 344.23126Q326.03125 343.95 325.40625 343.95Q324.6875 343.95 324.375 344.2Q324.0625 344.4344 324.0625 344.7625Q324.0625 344.96564 324.1875 345.1219Q324.32812 345.29376 324.59375 345.40314Q324.75 345.46564 325.53125 345.66876Q326.65625 345.98126 327.09375 346.16876Q327.53125 346.35626 327.78125 346.71564Q328.03125 347.075 328.03125 347.6219Q328.03125 348.15314 327.71875 348.6219Q327.42188 349.075 326.84375 349.34064Q326.26562 349.59064 325.53125 349.59064Q324.3125 349.59064 323.67188 349.09064Q323.04688 348.575 322.875 347.59064Z" fill-rule="nonzero"/><path fill="#000000" d="M33.05 300.21564Q33.05 298.6844 33.3625 297.7625Q33.675 296.825 34.284374 296.325Q34.909374 295.825 35.846874 295.825Q36.534374 295.825 37.05 296.10626Q37.58125 296.3875 37.925 296.91876Q38.26875 297.4344 38.45625 298.1844Q38.64375 298.9344 38.64375 300.21564Q38.64375 301.73126 38.33125 302.65314Q38.034374 303.575 37.409374 304.09064Q36.8 304.59064 35.846874 304.59064Q34.6125 304.59064 33.89375 303.7Q33.05 302.6375 33.05 300.21564ZM34.128124 300.21564Q34.128124 302.325 34.628124 303.02814Q35.128124 303.73126 35.846874 303.73126Q36.58125 303.73126 37.065624 303.02814Q37.565624 302.325 37.565624 300.21564Q37.565624 298.09064 37.065624 297.40314Q36.58125 296.7 35.83125 296.7Q35.1125 296.7 34.675 297.3094Q34.128124 298.09064 34.128124 300.21564Z" fill-rule="nonzero"/><path fill="#000000" d="M31.596874 250.39272L31.596874 251.40834L25.909374 251.40834Q25.909374 251.03334 26.034374 250.67397Q26.253124 250.09584 26.721874 249.53334Q27.20625 248.97084 28.1125 248.23647Q29.51875 247.08022 30.003124 246.40834Q30.503124 245.73647 30.503124 245.14272Q30.503124 244.51772 30.05 244.09584Q29.596874 243.65834 28.878124 243.65834Q28.1125 243.65834 27.659374 244.11147Q27.20625 244.56459 27.190624 245.37709L26.1125 245.26772Q26.221874 244.04897 26.940624 243.42397Q27.675 242.78334 28.909374 242.78334Q30.14375 242.78334 30.8625 243.47084Q31.58125 244.15834 31.58125 245.17397Q31.58125 245.68959 31.3625 246.18959Q31.159374 246.67397 30.659374 247.23647Q30.175 247.78334 29.05 248.73647Q28.096874 249.53334 27.815624 249.83022Q27.55 250.11147 27.378124 250.39272L31.596874 250.39272ZM33.05 249.15834L34.159374 249.06459Q34.284374 249.87709 34.721874 250.28334Q35.175 250.68959 35.815624 250.68959Q36.565624 250.68959 37.096874 250.11147Q37.628124 249.53334 37.628124 248.59584Q37.628124 247.68959 37.1125 247.17397Q36.6125 246.64272 35.784374 246.64272Q35.284374 246.64272 34.8625 246.87709Q34.45625 247.11147 34.221874 247.47084L33.2375 247.34584L34.065624 242.93959L38.346874 242.93959L38.346874 243.93959L34.909374 243.93959L34.45625 246.25209Q35.221874 245.70522 36.065624 245.70522Q37.190624 245.70522 37.95625 246.48647Q38.7375 247.26772 38.7375 248.50209Q38.7375 249.65834 38.065624 250.51772Q37.2375 251.54897 35.815624 251.54897Q34.64375 251.54897 33.89375 250.89272Q33.159374 250.23647 33.05 249.15834Z" fill-rule="nonzero"/><path fill="#000000" d="M26.05 196.11667L27.159374 196.02292Q27.284374 196.83542 27.721874 197.24167Q28.175 197.64792 28.815624 197.64792Q29.565624 197.64792 30.096874 197.0698Q30.628124 196.49167 30.628124 195.55417Q30.628124 194.64792 30.1125 194.1323Q29.6125 193.60104 28.784374 193.60104Q28.284374 193.60104 27.8625 193.83542Q27.45625 194.0698 27.221874 194.42917L26.2375 194.30417L27.065624 189.89792L31.346874 189.89792L31.346874 190.89792L27.909374 190.89792L27.45625 193.21042Q28.221874 192.66354 29.065624 192.66354Q30.190624 192.66354 30.95625 193.4448Q31.7375 194.22604 31.7375 195.46042Q31.7375 196.61667 31.065624 197.47604Q30.2375 198.5073 28.815624 198.5073Q27.64375 198.5073 26.89375 197.85104Q26.159374 197.1948 26.05 196.11667ZM33.05 194.1323Q33.05 192.60104 33.3625 191.67917Q33.675 190.74167 34.284374 190.24167Q34.909374 189.74167 35.846874 189.74167Q36.534374 189.74167 37.05 190.02292Q37.58125 190.30417 37.925 190.83542Q38.26875 191.35104 38.45625 192.10104Q38.64375 192.85104 38.64375 194.1323Q38.64375 195.64792 38.33125 196.5698Q38.034374 197.49167 37.409374 198.0073Q36.8 198.5073 35.846874 198.5073Q34.6125 198.5073 33.89375 197.61667Q33.05 196.55417 33.05 194.1323ZM34.128124 194.1323Q34.128124 196.24167 34.628124 196.9448Q35.128124 197.64792 35.846874 197.64792Q36.58125 197.64792 37.065624 196.9448Q37.565624 196.24167 37.565624 194.1323Q37.565624 192.0073 37.065624 191.3198Q36.58125 190.61667 35.83125 190.61667Q35.1125 190.61667 34.675 191.22604Q34.128124 192.0073 34.128124 194.1323Z" fill-rule="nonzero"/><path fill="#000000" d="M26.1125 137.85625L26.1125 136.84062L31.675 136.84062L31.675 137.66875Q30.8625 138.54375 30.05 139.99687Q29.253124 141.43437 28.815624 142.96562Q28.4875 144.04375 28.409374 145.325L27.315624 145.325Q27.33125 144.30937 27.70625 142.87187Q28.096874 141.43437 28.8 140.10625Q29.51875 138.77812 30.33125 137.85625L26.1125 137.85625ZM33.05 143.075L34.159374 142.98125Q34.284374 143.79375 34.721874 144.2Q35.175 144.60625 35.815624 144.60625Q36.565624 144.60625 37.096874 144.02812Q37.628124 143.45 37.628124 142.5125Q37.628124 141.60625 37.1125 141.09062Q36.6125 140.55937 35.784374 140.55937Q35.284374 140.55937 34.8625 140.79375Q34.45625 141.02812 34.221874 141.3875L33.2375 141.2625L34.065624 136.85625L38.346874 136.85625L38.346874 137.85625L34.909374 137.85625L34.45625 140.16875Q35.221874 139.62187 36.065624 139.62187Q37.190624 139.62187 37.95625 140.40312Q38.7375 141.18437 38.7375 142.41875Q38.7375 143.575 38.065624 144.43437Q37.2375 145.46562 35.815624 145.46562Q34.64375 145.46562 33.89375 144.80937Q33.159374 144.15312 33.05 143.075Z" fill-rule="nonzero"/><path fill="#000000" d="M23.01875 92.28333L21.971874 92.28333L21.971874 85.56458Q21.58125 85.92396 20.95625 86.29896Q20.346874 86.65833 19.8625 86.83021L19.8625 85.81458Q20.7375 85.39271 21.39375 84.81458Q22.065624 84.22083 22.346874 83.65833L23.01875 83.65833L23.01875 92.28333ZM26.05 88.04896Q26.05 86.51771 26.3625 85.59583Q26.675 84.65833 27.284374 84.15833Q27.909374 83.65833 28.846874 83.65833Q29.534374 83.65833 30.05 83.93958Q30.58125 84.22083 30.925 84.75208Q31.26875 85.26771 31.45625 86.01771Q31.64375 86.76771 31.64375 88.04896Q31.64375 89.56458 31.33125 90.48646Q31.034374 91.40833 30.409374 91.92396Q29.8 92.42396 28.846874 92.42396Q27.6125 92.42396 26.89375 91.53333Q26.05 90.47083 26.05 88.04896ZM27.128124 88.04896Q27.128124 90.15833 27.628124 90.86146Q28.128124 91.56458 28.846874 91.56458Q29.58125 91.56458 30.065624 90.86146Q30.565624 90.15833 30.565624 88.04896Q30.565624 85.92396 30.065624 85.23646Q29.58125 84.53333 28.83125 84.53333Q28.1125 84.53333 27.675 85.14271Q27.128124 85.92396 27.128124 88.04896ZM33.05 88.04896Q33.05 86.51771 33.3625 85.59583Q33.675 84.65833 34.284374 84.15833Q34.909374 83.65833 35.846874 83.65833Q36.534374 83.65833 37.05 83.93958Q37.58125 84.22083 37.925 84.75208Q38.26875 85.26771 38.45625 86.01771Q38.64375 86.76771 38.64375 88.04896Q38.64375 89.56458 38.33125 90.48646Q38.034374 91.40833 37.409374 91.92396Q36.8 92.42396 35.846874 92.42396Q34.6125 92.42396 33.89375 91.53333Q33.05 90.47083 33.05 88.04896ZM34.128124 88.04896Q34.128124 90.15833 34.628124 90.86146Q35.128124 91.56458 35.846874 91.56458Q36.58125 91.56458 37.065624 90.86146Q37.565624 90.15833 37.565624 88.04896Q37.565624 85.92396 37.065624 85.23646Q36.58125 84.53333 35.83125 84.53333Q35.1125 84.53333 34.675 85.14271Q34.128124 85.92396 34.128124 88.04896Z" fill-rule="nonzero"/><path fill="#000000" d="M81.46875 317.45L80.421875 317.45L80.421875 310.73126Q80.03125 311.09064 79.40625 311.46564Q78.796875 311.825 78.3125 311.9969L78.3125 310.98126Q79.1875 310.5594 79.84375 309.98126Q80.515625 309.3875 80.796875 308.825L81.46875 308.825L81.46875 317.45Z" fill-rule="nonzero"/><path fill="#000000" d="M134.82465 316.4344L134.82465 317.45L129.13715 317.45Q129.13715 317.075 129.26215 316.71564Q129.4809 316.1375 129.94965 315.575Q130.43402 315.0125 131.34027 314.27814Q132.74652 313.1219 133.2309 312.45Q133.7309 311.77814 133.7309 311.1844Q133.7309 310.5594 133.27777 310.1375Q132.82465 309.7 132.1059 309.7Q131.34027 309.7 130.88715 310.15314Q130.43402 310.60626 130.4184 311.41876L129.34027 311.3094Q129.44965 310.09064 130.1684 309.46564Q130.90277 308.825 132.13715 308.825Q133.37152 308.825 134.09027 309.5125Q134.80902 310.2 134.80902 311.21564Q134.80902 311.73126 134.59027 312.23126Q134.38715 312.71564 133.88715 313.27814Q133.40277 313.825 132.27777 314.77814Q131.32465 315.575 131.0434 315.8719Q130.77777 316.15314 130.6059 316.4344L134.82465 316.4344Z" fill-rule="nonzero"/><path fill="#000000" d="M181.05556 315.1844L182.11806 315.04376Q182.28993 315.9344 182.72743 316.34064Q183.16493 316.73126 183.78993 316.73126Q184.53993 316.73126 185.05556 316.21564Q185.57118 315.7 185.57118 314.9344Q185.57118 314.21564 185.0868 313.7469Q184.61806 313.2625 183.88368 313.2625Q183.5868 313.2625 183.13368 313.3875L183.25868 312.45Q183.36806 312.46564 183.43056 312.46564Q184.10243 312.46564 184.63368 312.1219Q185.18056 311.7625 185.18056 311.02814Q185.18056 310.45 184.78993 310.075Q184.3993 309.6844 183.7743 309.6844Q183.16493 309.6844 182.74306 310.075Q182.3368 310.46564 182.22743 311.23126L181.16493 311.04376Q181.35243 309.9969 182.03993 309.41876Q182.72743 308.825 183.74306 308.825Q184.44618 308.825 185.03993 309.1375Q185.63368 309.4344 185.94618 309.95Q186.25868 310.46564 186.25868 311.0594Q186.25868 311.60626 185.9618 312.075Q185.66493 312.52814 185.0868 312.79376Q185.8368 312.96564 186.25868 313.52814Q186.68056 314.075 186.68056 314.91876Q186.68056 316.04376 185.85243 316.825Q185.03993 317.60626 183.78993 317.60626Q182.66493 317.60626 181.91493 316.9344Q181.16493 316.2469 181.05556 315.1844Z" fill-rule="nonzero"/><path fill="#000000" d="M236.20833 317.45L236.20833 315.3875L232.48958 315.3875L232.48958 314.41876L236.41145 308.85626L237.27083 308.85626L237.27083 314.41876L238.42708 314.41876L238.42708 315.3875L237.27083 315.3875L237.27083 317.45L236.20833 317.45ZM236.20833 314.41876L236.20833 310.5594L233.52083 314.41876L236.20833 314.41876Z" fill-rule="nonzero"/><path fill="#000000" d="M284.6111 315.2L285.7205 315.10626Q285.8455 315.91876 286.283 316.325Q286.7361 316.73126 287.37674 316.73126Q288.12674 316.73126 288.658 316.15314Q289.18924 315.575 289.18924 314.6375Q289.18924 313.73126 288.6736 313.21564Q288.1736 312.6844 287.3455 312.6844Q286.8455 312.6844 286.4236 312.91876Q286.01736 313.15314 285.783 313.5125L284.7986 313.3875L285.62674 308.98126L289.908 308.98126L289.908 309.98126L286.4705 309.98126L286.01736 312.29376Q286.783 311.7469 287.62674 311.7469Q288.75174 311.7469 289.51736 312.52814Q290.2986 313.3094 290.2986 314.54376Q290.2986 315.7 289.62674 316.5594Q288.7986 317.59064 287.37674 317.59064Q286.20486 317.59064 285.45486 316.9344Q284.7205 316.27814 284.6111 315.2Z" fill-rule="nonzero"/><path fill="#000000" d="M341.85764 310.96564L340.81076 311.04376Q340.67014 310.41876 340.42014 310.1375Q339.98264 309.6844 339.35764 309.6844Q338.85764 309.6844 338.467 309.96564Q337.98264 310.34064 337.68576 311.04376Q337.4045 311.73126 337.3889 313.0125Q337.7639 312.4344 338.31076 312.15314Q338.87326 311.8719 339.48264 311.8719Q340.5295 311.8719 341.2639 312.65314Q342.0139 313.4344 342.0139 314.65314Q342.0139 315.46564 341.6545 316.16876Q341.31076 316.85626 340.7014 317.23126Q340.092 317.59064 339.3264 317.59064Q337.99826 317.59064 337.17014 316.6219Q336.342 315.65314 336.342 313.4344Q336.342 310.9344 337.2639 309.8094Q338.06076 308.825 339.42014 308.825Q340.43576 308.825 341.0764 309.40314Q341.73264 309.96564 341.85764 310.96564ZM337.56076 314.66876Q337.56076 315.21564 337.7795 315.71564Q338.0139 316.2 338.42014 316.46564Q338.842 316.73126 339.31076 316.73126Q339.967 316.73126 340.4514 316.2Q340.93576 315.65314 340.93576 314.73126Q340.93576 313.84064 340.4514 313.325Q339.98264 312.8094 339.2639 312.8094Q338.54514 312.8094 338.04514 313.325Q337.56076 313.84064 337.56076 314.66876Z" fill-rule="nonzero"/><path fill="#000000" d="M388.22916 309.98126L388.22916 308.96564L393.79166 308.96564L393.79166 309.79376Q392.97916 310.66876 392.16666 312.1219Q391.36978 313.5594 390.93228 315.09064Q390.60416 316.16876 390.52603 317.45L389.43228 317.45Q389.4479 316.4344 389.8229 314.9969Q390.21353 313.5594 390.91666 312.23126Q391.6354 310.90314 392.4479 309.98126L388.22916 309.98126Z" fill-rule="nonzero"/><path fill="#000000" d="M441.56946 312.79376Q440.9132 312.54376 440.58508 312.10626Q440.27258 311.65314 440.27258 311.04376Q440.27258 310.10626 440.94446 309.46564Q441.63196 308.825 442.74133 308.825Q443.86633 308.825 444.55383 309.48126Q445.24133 310.1375 445.24133 311.075Q445.24133 311.66876 444.92883 312.10626Q444.61633 312.54376 443.9757 312.79376Q444.77258 313.04376 445.17883 313.6219Q445.58508 314.2 445.58508 314.9969Q445.58508 316.09064 444.80383 316.84064Q444.0382 317.59064 442.75696 317.59064Q441.49133 317.59064 440.71008 316.84064Q439.92883 316.09064 439.92883 314.96564Q439.92883 314.1219 440.3507 313.5594Q440.7882 312.9969 441.56946 312.79376ZM441.3507 310.9969Q441.3507 311.60626 441.74133 311.9969Q442.14758 312.3875 442.77258 312.3875Q443.38196 312.3875 443.77258 312.0125Q444.1632 311.6219 444.1632 311.0594Q444.1632 310.48126 443.75696 310.09064Q443.3507 309.6844 442.75696 309.6844Q442.14758 309.6844 441.74133 310.075Q441.3507 310.46564 441.3507 310.9969ZM441.02258 314.96564Q441.02258 315.41876 441.2257 315.84064Q441.44446 316.2625 441.86633 316.4969Q442.2882 316.73126 442.77258 316.73126Q443.52258 316.73126 444.00696 316.2469Q444.50696 315.7625 444.50696 315.0125Q444.50696 314.2469 444.00696 313.7469Q443.50696 313.2469 442.74133 313.2469Q441.99133 313.2469 441.50696 313.7469Q441.02258 314.23126 441.02258 314.96564Z" fill-rule="nonzero"/><path fill="#000000" d="M491.87848 315.46564L492.8941 315.3719Q493.0191 316.09064 493.37848 316.41876Q493.75348 316.73126 494.31598 316.73126Q494.80035 316.73126 495.15973 316.5125Q495.53473 316.27814 495.7691 315.91876Q496.00348 315.54376 496.15973 314.91876Q496.31598 314.27814 496.31598 313.6219Q496.31598 313.54376 496.31598 313.40314Q496.00348 313.90314 495.4566 314.23126Q494.90973 314.54376 494.2691 314.54376Q493.19098 314.54376 492.4566 313.77814Q491.72223 312.9969 491.72223 311.73126Q491.72223 310.41876 492.48785 309.6219Q493.2691 308.825 494.42535 308.825Q495.25348 308.825 495.94098 309.27814Q496.6441 309.73126 497.00348 310.575Q497.36285 311.40314 497.36285 312.98126Q497.36285 314.6219 497.00348 315.60626Q496.65973 316.575 495.94098 317.09064Q495.23785 317.59064 494.30035 317.59064Q493.28473 317.59064 492.6441 317.04376Q492.00348 316.48126 491.87848 315.46564ZM496.19098 311.66876Q496.19098 310.7625 495.7066 310.23126Q495.23785 309.7 494.55035 309.7Q493.84723 309.7 493.31598 310.27814Q492.80035 310.84064 492.80035 311.7625Q492.80035 312.575 493.30035 313.09064Q493.80035 313.60626 494.5191 313.60626Q495.25348 313.60626 495.72223 313.09064Q496.19098 312.575 496.19098 311.66876Z" fill-rule="nonzero"/><path fill="#000000" d="M543.96875 317.45L542.9219 317.45L542.9219 310.73126Q542.53125 311.09064 541.90625 311.46564Q541.2969 311.825 540.8125 311.9969L540.8125 310.98126Q541.6875 310.5594 542.34375 309.98126Q543.0156 309.3875 543.2969 308.825L543.96875 308.825L543.96875 317.45ZM547.0 313.21564Q547.0 311.6844 547.3125 310.7625Q547.625 309.825 548.2344 309.325Q548.8594 308.825 549.7969 308.825Q550.4844 308.825 551.0 309.10626Q551.53125 309.3875 551.875 309.91876Q552.21875 310.4344 552.40625 311.1844Q552.59375 311.9344 552.59375 313.21564Q552.59375 314.73126 552.28125 315.65314Q551.9844 316.575 551.3594 317.09064Q550.75 317.59064 549.7969 317.59064Q548.5625 317.59064 547.84375 316.7Q547.0 315.6375 547.0 313.21564ZM548.0781 313.21564Q548.0781 315.325 548.5781 316.02814Q549.0781 316.73126 549.7969 316.73126Q550.53125 316.73126 551.0156 316.02814Q551.5156 315.325 551.5156 313.21564Q551.5156 311.09064 551.0156 310.40314Q550.53125 309.7 549.78125 309.7Q549.0625 309.7 548.625 310.3094Q548.0781 311.09064 548.0781 313.21564Z" fill-rule="nonzero"/><path fill="#4285f4" d="M227.5 56.916668C227.5 56.364384 227.94771 55.916668 228.5 55.916668L238.5 55.916668C239.05229 55.916668 239.5 56.364384 239.5 56.916668L239.5 66.916664C239.5 67.46895 239.05229 67.916664 238.5 67.916664L228.5 67.916664C227.94771 67.916664 227.5 67.46895 227.5 66.916664Z" fill-rule="nonzero"/><path fill="#1a1a1a" d="M254.5625 62.90104L255.6875 63.197914Q255.32812 64.58854 254.40625 65.322914Q253.48438 66.05729 252.14062 66.05729Q250.75 66.05729 249.875 65.49479Q249.0 64.93229 248.54688 63.86979Q248.09375 62.791664 248.09375 61.55729Q248.09375 60.21354 248.60938 59.21354Q249.125 58.21354 250.0625 57.697914Q251.01562 57.18229 252.15625 57.18229Q253.4375 57.18229 254.3125 57.83854Q255.20312 58.49479 255.54688 59.68229L254.42188 59.947914Q254.125 59.010414 253.54688 58.58854Q252.98438 58.15104 252.125 58.15104Q251.14062 58.15104 250.46875 58.635414Q249.8125 59.104164 249.53125 59.90104Q249.26562 60.697914 249.26562 61.55729Q249.26562 62.65104 249.57812 63.46354Q249.90625 64.27604 250.57812 64.68229Q251.25 65.08854 252.04688 65.08854Q253.0 65.08854 253.65625 64.541664Q254.32812 63.99479 254.5625 62.90104ZM257.625 65.916664L257.625 57.322914L258.75 57.322914L258.75 65.916664L257.625 65.916664ZM260.42188 65.916664L260.42188 57.322914L261.57812 57.322914L266.09375 64.072914L266.09375 57.322914L267.1875 57.322914L267.1875 65.916664L266.01562 65.916664L261.5 59.166664L261.5 65.916664L260.42188 65.916664ZM271.60938 65.916664L271.60938 58.33854L268.78125 58.33854L268.78125 57.322914L275.59375 57.322914L275.59375 58.33854L272.75 58.33854L272.75 65.916664L271.60938 65.916664ZM276.625 65.916664L276.625 57.322914L277.75 57.322914L277.75 65.916664L276.625 65.916664ZM279.375 65.916664L279.375 57.322914L280.51562 57.322914L280.51562 64.90104L284.75 64.90104L284.75 65.916664L279.375 65.916664Z" fill-rule="nonzero"/><path fill="#ea4335" d="M301.5 56.916668C301.5 56.364384 301.94772 55.916668 302.5 55.916668L312.5 55.916668C313.05228 55.916668 313.5 56.364384 313.5 56.916668L313.5 66.916664C313.5 67.46895 313.05228 67.916664 312.5 67.916664L302.5 67.916664C301.94772 67.916664 301.5 67.46895 301.5 66.916664Z" fill-rule="nonzero"/><path fill="#1a1a1a" d="M322.375 65.916664L322.375 57.322914L325.60938 57.322914Q326.59375 57.322914 327.1875 57.58854Q327.78125 57.854164 328.10938 58.40104Q328.45312 58.93229 328.45312 59.52604Q328.45312 60.072914 328.15625 60.55729Q327.85938 61.041664 327.25 61.33854Q328.03125 61.572914 328.4375 62.135414Q328.85938 62.68229 328.85938 63.43229Q328.85938 64.02604 328.60938 64.55729Q328.35938 65.072914 327.98438 65.354164Q327.60938 65.635414 327.03125 65.77604Q326.46875 65.916664 325.65625 65.916664L322.375 65.916664ZM323.51562 60.93229L325.375 60.93229Q326.125 60.93229 326.45312 60.83854Q326.89062 60.71354 327.10938 60.416664Q327.32812 60.104164 327.32812 59.65104Q327.32812 59.229164 327.125 58.90104Q326.92188 58.572914 326.53125 58.46354Q326.15625 58.33854 325.23438 58.33854L323.51562 58.33854L323.51562 60.93229ZM323.51562 64.90104L325.65625 64.90104Q326.20312 64.90104 326.42188 64.854164Q326.82812 64.791664 327.07812 64.635414Q327.34375 64.46354 327.51562 64.15104Q327.6875 63.83854 327.6875 63.43229Q327.6875 62.947914 327.4375 62.58854Q327.20312 62.229164 326.76562 62.08854Q326.32812 61.947914 325.5 61.947914L323.51562 61.947914L323.51562 64.90104ZM330.07812 61.729164Q330.07812 59.58854 331.21875 58.385414Q332.375 57.166664 334.1875 57.166664Q335.39062 57.166664 336.34375 57.74479Q337.29688 58.30729 337.79688 59.322914Q338.29688 60.33854 338.29688 61.635414Q338.29688 62.93229 337.76562 63.96354Q337.23438 64.99479 336.26562 65.52604Q335.3125 66.05729 334.1875 66.05729Q332.96875 66.05729 332.01562 65.479164Q331.0625 64.885414 330.5625 63.885414Q330.07812 62.86979 330.07812 61.729164ZM331.25 61.74479Q331.25 63.30729 332.07812 64.197914Q332.92188 65.08854 334.1875 65.08854Q335.46875 65.08854 336.29688 64.197914Q337.125 63.291664 337.125 61.61979Q337.125 60.572914 336.76562 59.791664Q336.42188 59.010414 335.73438 58.58854Q335.04688 58.15104 334.20312 58.15104Q333.0 58.15104 332.125 58.979164Q331.25 59.80729 331.25 61.74479ZM339.04688 63.15104L340.10938 63.05729Q340.1875 63.71354 340.46875 64.11979Q340.75 64.52604 341.32812 64.791664Q341.92188 65.041664 342.65625 65.041664Q343.29688 65.041664 343.79688 64.854164Q344.29688 64.65104 344.53125 64.322914Q344.78125 63.979164 344.78125 63.58854Q344.78125 63.18229 344.54688 62.885414Q344.3125 62.572914 343.78125 62.36979Q343.42188 62.229164 342.23438 61.947914Q341.0625 61.666664 340.59375 61.416664Q339.96875 61.08854 339.67188 60.61979Q339.375 60.135414 339.375 59.541664Q339.375 58.90104 339.73438 58.33854Q340.10938 57.760414 340.8125 57.479164Q341.53125 57.18229 342.39062 57.18229Q343.34375 57.18229 344.07812 57.49479Q344.8125 57.791664 345.20312 58.40104Q345.59375 58.99479 345.625 59.74479L344.53125 59.822914Q344.4375 59.010414 343.92188 58.604164Q343.42188 58.18229 342.4375 58.18229Q341.40625 58.18229 340.9375 58.55729Q340.46875 58.93229 340.46875 59.46354Q340.46875 59.93229 340.79688 60.229164Q341.125 60.52604 342.5 60.83854Q343.89062 61.15104 344.40625 61.385414Q345.15625 61.74479 345.51562 62.27604Q345.875 62.791664 345.875 63.49479Q345.875 64.18229 345.48438 64.791664Q345.09375 65.385414 344.35938 65.729164Q343.625 66.05729 342.70312 66.05729Q341.53125 66.05729 340.73438 65.729164Q339.95312 65.385414 339.5 64.697914Q339.0625 64.010414 339.04688 63.15104ZM353.9375 64.99479Q354.73438 65.541664 355.39062 65.791664L355.0625 66.58854Q354.14062 66.24479 353.21875 65.52604Q352.26562 66.05729 351.10938 66.05729Q349.9375 66.05729 348.98438 65.49479Q348.04688 64.93229 347.53125 63.916664Q347.01562 62.90104 347.01562 61.61979Q347.01562 60.354164 347.53125 59.30729Q348.04688 58.260414 349.0 57.71354Q349.95312 57.166664 351.125 57.166664Q352.3125 57.166664 353.26562 57.74479Q354.23438 58.30729 354.73438 59.322914Q355.23438 60.33854 355.23438 61.61979Q355.23438 62.68229 354.90625 63.52604Q354.59375 64.36979 353.9375 64.99479ZM351.4375 63.541664Q352.42188 63.822914 353.0625 64.36979Q354.0625 63.447914 354.0625 61.61979Q354.0625 60.572914 353.70312 59.791664Q353.34375 59.010414 352.65625 58.58854Q351.98438 58.15104 351.14062 58.15104Q349.85938 58.15104 349.01562 59.02604Q348.1875 59.885414 348.1875 61.61979Q348.1875 63.291664 349.01562 64.197914Q349.84375 65.08854 351.14062 65.08854Q351.75 65.08854 352.28125 64.854164Q351.75 64.510414 351.15625 64.36979L351.4375 63.541664ZM362.0625 57.322914L363.20312 57.322914L363.20312 62.291664Q363.20312 63.58854 362.90625 64.354164Q362.60938 65.104164 361.84375 65.58854Q361.07812 66.05729 359.84375 66.05729Q358.64062 66.05729 357.85938 65.65104Q357.09375 65.229164 356.76562 64.447914Q356.4375 63.65104 356.4375 62.291664L356.4375 57.322914L357.57812 57.322914L357.57812 62.27604Q357.57812 63.40104 357.78125 63.93229Q358.0 64.46354 358.5 64.760414Q359.01562 65.041664 359.75 65.041664Q361.0 65.041664 361.53125 64.479164Q362.0625 63.90104 362.0625 62.27604L362.0625 57.322914ZM365.45312 65.916664L365.45312 57.322914L371.65625 57.322914L371.65625 58.33854L366.59375 58.33854L366.59375 60.96354L371.34375 60.96354L371.34375 61.979164L366.59375 61.979164L366.59375 64.90104L371.85938 64.90104L371.85938 65.916664L365.45312 65.916664Z" fill-rule="nonzero"/><path fill="#757575" d="M30.315624 32.534374L32.20625 33.003124Q31.6125 35.346874 30.065624 36.58125Q28.51875 37.8 26.26875 37.8Q23.95625 37.8 22.503124 36.8625Q21.065624 35.909374 20.3 34.128124Q19.55 32.33125 19.55 30.284374Q19.55 28.05 20.39375 26.39375Q21.253124 24.721874 22.83125 23.8625Q24.409374 22.9875 26.3 22.9875Q28.45625 22.9875 29.909374 24.08125Q31.378124 25.175 31.95625 27.159374L30.096874 27.596874Q29.596874 26.034374 28.64375 25.33125Q27.70625 24.6125 26.26875 24.6125Q24.6125 24.6125 23.503124 25.409374Q22.39375 26.190624 21.940624 27.534374Q21.503124 28.8625 21.503124 30.26875Q21.503124 32.096874 22.034374 33.471874Q22.565624 34.83125 23.690624 35.503124Q24.815624 36.175 26.1125 36.175Q27.70625 36.175 28.815624 35.253124Q29.925 34.33125 30.315624 32.534374ZM33.221874 32.3625Q33.221874 29.4875 34.815624 28.096874Q36.159374 26.940624 38.08125 26.940624Q40.221874 26.940624 41.565624 28.346874Q42.925 29.753124 42.925 32.221874Q42.925 34.221874 42.33125 35.378124Q41.7375 36.51875 40.58125 37.159374Q39.440624 37.784374 38.08125 37.784374Q35.89375 37.784374 34.55 36.39375Q33.221874 34.9875 33.221874 32.3625ZM35.01875 32.3625Q35.01875 34.3625 35.878124 35.346874Q36.753124 36.33125 38.08125 36.33125Q39.39375 36.33125 40.253124 35.346874Q41.128124 34.346874 41.128124 32.3Q41.128124 30.378124 40.253124 29.39375Q39.378124 28.39375 38.08125 28.39375Q36.753124 28.39375 35.878124 29.39375Q35.01875 30.378124 35.01875 32.3625ZM44.8625 37.55L44.8625 27.175L46.440624 27.175L46.440624 28.628124Q46.925 27.878124 47.7375 27.409374Q48.55 26.940624 49.58125 26.940624Q50.7375 26.940624 51.471874 27.425Q52.20625 27.89375 52.51875 28.753124Q53.753124 26.940624 55.721874 26.940624Q57.26875 26.940624 58.096874 27.8Q58.925 28.659374 58.925 30.425L58.925 37.55L57.175 37.55L57.175 31.01875Q57.175 29.95625 57.003124 29.503124Q56.83125 29.034374 56.378124 28.753124Q55.940624 28.471874 55.33125 28.471874Q54.2375 28.471874 53.503124 29.20625Q52.784374 29.925 52.784374 31.51875L52.784374 37.55L51.034374 37.55L51.034374 30.815624Q51.034374 29.64375 50.596874 29.065624Q50.175 28.471874 49.190624 28.471874Q48.45625 28.471874 47.815624 28.8625Q47.190624 29.253124 46.909374 30.003124Q46.628124 30.753124 46.628124 32.175L46.628124 37.55L44.8625 37.55ZM61.8625 41.51875L61.8625 27.175L63.471874 27.175L63.471874 28.51875Q64.03438 27.7375 64.7375 27.346874Q65.45625 26.940624 66.47188 26.940624Q67.8 26.940624 68.81563 27.628124Q69.83125 28.315624 70.34688 29.565624Q70.87813 30.8 70.87813 32.284374Q70.87813 33.878124 70.3 35.159374Q69.7375 36.425 68.64375 37.1125Q67.55 37.784374 66.34688 37.784374Q65.47188 37.784374 64.76875 37.409374Q64.08125 37.034374 63.628124 36.471874L63.628124 41.51875L61.8625 41.51875ZM63.45625 32.425Q63.45625 34.425 64.26875 35.378124Q65.08125 36.33125 66.2375 36.33125Q67.40938 36.33125 68.2375 35.346874Q69.08125 34.3625 69.08125 32.26875Q69.08125 30.3 68.25313 29.315624Q67.44063 28.315624 66.31563 28.315624Q65.19063 28.315624 64.31563 29.378124Q63.45625 30.425 63.45625 32.425ZM79.64375 36.26875Q78.65938 37.096874 77.75313 37.440624Q76.84688 37.784374 75.81563 37.784374Q74.1125 37.784374 73.19063 36.95625Q72.26875 36.1125 72.26875 34.815624Q72.26875 34.05 72.6125 33.425Q72.97188 32.8 73.53438 32.425Q74.09688 32.034374 74.8 31.83125Q75.31563 31.70625 76.3625 31.565624Q78.4875 31.315624 79.4875 30.971874Q79.50313 30.6125 79.50313 30.503124Q79.50313 29.440624 79.00313 28.9875Q78.33125 28.39375 77.00313 28.39375Q75.75313 28.39375 75.15938 28.83125Q74.58125 29.26875 74.3 30.378124L72.58125 30.14375Q72.81563 29.034374 73.34688 28.3625Q73.87813 27.675 74.89375 27.315624Q75.90938 26.940624 77.25313 26.940624Q78.58125 26.940624 79.40938 27.253124Q80.2375 27.565624 80.62813 28.05Q81.01875 28.51875 81.175 29.2375Q81.26875 29.690624 81.26875 30.8625L81.26875 33.20625Q81.26875 35.659374 81.37813 36.315624Q81.4875 36.95625 81.83125 37.55L79.9875 37.55Q79.72188 37.003124 79.64375 36.26875ZM79.4875 32.346874Q78.53438 32.7375 76.6125 33.003124Q75.53438 33.159374 75.08125 33.3625Q74.64375 33.55 74.39375 33.925Q74.14375 34.3 74.14375 34.76875Q74.14375 35.471874 74.675 35.940624Q75.20625 36.409374 76.2375 36.409374Q77.25313 36.409374 78.03438 35.971874Q78.83125 35.51875 79.20625 34.753124Q79.4875 34.14375 79.4875 32.9875L79.4875 32.346874ZM83.84688 37.55L83.84688 27.175L85.425 27.175L85.425 28.753124Q86.03438 27.64375 86.55 27.3Q87.06563 26.940624 87.675 26.940624Q88.56563 26.940624 89.4875 27.503124L88.87813 29.14375Q88.2375 28.753124 87.59688 28.753124Q87.01875 28.753124 86.55 29.1125Q86.09688 29.45625 85.89375 30.065624Q85.6125 31.003124 85.6125 32.1125L85.6125 37.55L83.84688 37.55ZM97.64375 36.26875Q96.65938 37.096874 95.75313 37.440624Q94.84688 37.784374 93.81563 37.784374Q92.1125 37.784374 91.19063 36.95625Q90.26875 36.1125 90.26875 34.815624Q90.26875 34.05 90.6125 33.425Q90.97188 32.8 91.53438 32.425Q92.09688 32.034374 92.8 31.83125Q93.31563 31.70625 94.3625 31.565624Q96.4875 31.315624 97.4875 30.971874Q97.50313 30.6125 97.50313 30.503124Q97.50313 29.440624 97.00313 28.9875Q96.33125 28.39375 95.00313 28.39375Q93.75313 28.39375 93.15938 28.83125Q92.58125 29.26875 92.3 30.378124L90.58125 30.14375Q90.81563 29.034374 91.34688 28.3625Q91.87813 27.675 92.89375 27.315624Q93.90938 26.940624 95.25313 26.940624Q96.58125 26.940624 97.40938 27.253124Q98.2375 27.565624 98.62813 28.05Q99.01875 28.51875 99.175 29.2375Q99.26875 29.690624 99.26875 30.8625L99.26875 33.20625Q99.26875 35.659374 99.37813 36.315624Q99.4875 36.95625 99.83125 37.55L97.9875 37.55Q97.72188 37.003124 97.64375 36.26875ZM97.4875 32.346874Q96.53438 32.7375 94.6125 33.003124Q93.53438 33.159374 93.08125 33.3625Q92.64375 33.55 92.39375 33.925Q92.14375 34.3 92.14375 34.76875Q92.14375 35.471874 92.675 35.940624Q93.20625 36.409374 94.2375 36.409374Q95.25313 36.409374 96.03438 35.971874Q96.83125 35.51875 97.20625 34.753124Q97.4875 34.14375 97.4875 32.9875L97.4875 32.346874ZM105.70625 35.971874L105.95625 37.534374Q105.22188 37.690624 104.62813 37.690624Q103.675 37.690624 103.14375 37.39375Q102.62813 37.08125 102.40938 36.596874Q102.19063 36.096874 102.19063 34.51875L102.19063 28.55L100.90938 28.55L100.90938 27.175L102.19063 27.175L102.19063 24.6125L103.94063 23.55L103.94063 27.175L105.70625 27.175L105.70625 28.55L103.94063 28.55L103.94063 34.6125Q103.94063 35.3625 104.03438 35.58125Q104.12813 35.784374 104.33125 35.925Q104.55 36.05 104.94063 36.05Q105.22188 36.05 105.70625 35.971874ZM107.87813 25.253124L107.87813 23.2375L109.64375 23.2375L109.64375 25.253124L107.87813 25.253124ZM107.87813 37.55L107.87813 27.175L109.64375 27.175L109.64375 37.55L107.87813 37.55ZM114.75313 37.55L110.8 27.175L112.65938 27.175L114.89375 33.39375Q115.25313 34.39375 115.55 35.471874Q115.78438 34.659374 116.20625 33.503124L118.50313 27.175L120.31563 27.175L116.39375 37.55L114.75313 37.55ZM121.22188 32.3625Q121.22188 29.4875 122.81563 28.096874Q124.15938 26.940624 126.08125 26.940624Q128.22188 26.940624 129.56563 28.346874Q130.925 29.753124 130.925 32.221874Q130.925 34.221874 130.33125 35.378124Q129.7375 36.51875 128.58125 37.159374Q127.44063 37.784374 126.08125 37.784374Q123.89375 37.784374 122.55 36.39375Q121.22188 34.9875 121.22188 32.3625ZM123.01875 32.3625Q123.01875 34.3625 123.87813 35.346874Q124.75313 36.33125 126.08125 36.33125Q127.39375 36.33125 128.25313 35.346874Q129.12813 34.346874 129.12813 32.3Q129.12813 30.378124 128.25313 29.39375Q127.37813 28.39375 126.08125 28.39375Q124.75313 28.39375 123.87813 29.39375Q123.01875 30.378124 123.01875 32.3625ZM139.19063 37.55L139.19063 23.2375L148.84688 23.2375L148.84688 24.925L141.08125 24.925L141.08125 29.3625L147.8 29.3625L147.8 31.05L141.08125 31.05L141.08125 37.55L139.19063 37.55ZM157.00313 37.55L155.2375 37.55L155.2375 26.346874Q154.6125 26.95625 153.58125 27.565624Q152.55 28.159374 151.72188 28.471874L151.72188 26.76875Q153.20625 26.08125 154.3 25.096874Q155.40938 24.096874 155.8625 23.175L157.00313 23.175L157.00313 37.55ZM161.19063 33.253124L161.19063 31.4875L166.58125 31.4875L166.58125 33.253124L161.19063 33.253124ZM168.45625 32.95625L170.2375 32.8Q170.3625 33.8625 170.81563 34.55Q171.28438 35.2375 172.25313 35.675Q173.2375 36.096874 174.47188 36.096874Q175.55 36.096874 176.37813 35.784374Q177.20625 35.45625 177.6125 34.89375Q178.01875 34.33125 178.01875 33.659374Q178.01875 32.9875 177.62813 32.4875Q177.2375 31.9875 176.34688 31.64375Q175.76875 31.409374 173.78438 30.940624Q171.81563 30.471874 171.03438 30.05Q170.00313 29.51875 169.50313 28.721874Q169.00313 27.925 169.00313 26.940624Q169.00313 25.846874 169.6125 24.909374Q170.22188 23.971874 171.40938 23.4875Q172.59688 22.9875 174.03438 22.9875Q175.62813 22.9875 176.84688 23.503124Q178.06563 24.01875 178.70625 25.01875Q179.3625 26.003124 179.40938 27.26875L177.59688 27.409374Q177.45625 26.05 176.6125 25.3625Q175.76875 24.659374 174.1125 24.659374Q172.39375 24.659374 171.59688 25.3Q170.81563 25.925 170.81563 26.8Q170.81563 27.58125 171.37813 28.08125Q171.925 28.58125 174.2375 29.096874Q176.55 29.6125 177.40938 30.003124Q178.65938 30.58125 179.25313 31.471874Q179.84688 32.346874 179.84688 33.503124Q179.84688 34.64375 179.19063 35.659374Q178.53438 36.675 177.3 37.2375Q176.08125 37.8 174.55 37.8Q172.6125 37.8 171.3 37.2375Q169.9875 36.659374 169.2375 35.51875Q168.4875 34.378124 168.45625 32.95625ZM188.64375 33.753124L190.3625 33.971874Q190.08125 35.76875 188.90938 36.784374Q187.75313 37.784374 186.05 37.784374Q183.925 37.784374 182.62813 36.39375Q181.33125 35.003124 181.33125 32.409374Q181.33125 30.721874 181.87813 29.471874Q182.44063 28.20625 183.58125 27.58125Q184.72188 26.940624 186.06563 26.940624Q187.75313 26.940624 188.81563 27.8Q189.89375 28.659374 190.20625 30.221874L188.4875 30.4875Q188.25313 29.440624 187.62813 28.925Q187.00313 28.39375 186.12813 28.39375Q184.8 28.39375 183.97188 29.346874Q183.14375 30.3 183.14375 32.346874Q183.14375 34.440624 183.94063 35.39375Q184.7375 36.33125 186.03438 36.33125Q187.06563 36.33125 187.75313 35.70625Q188.45625 35.065624 188.64375 33.753124ZM191.22188 32.3625Q191.22188 29.4875 192.81563 28.096874Q194.15938 26.940624 196.08125 26.940624Q198.22188 26.940624 199.56563 28.346874Q200.925 29.753124 200.925 32.221874Q200.925 34.221874 200.33125 35.378124Q199.7375 36.51875 198.58125 37.159374Q197.44063 37.784374 196.08125 37.784374Q193.89375 37.784374 192.55 36.39375Q191.22188 34.9875 191.22188 32.3625ZM193.01875 32.3625Q193.01875 34.3625 193.87813 35.346874Q194.75313 36.33125 196.08125 36.33125Q197.39375 36.33125 198.25313 35.346874Q199.12813 34.346874 199.12813 32.3Q199.12813 30.378124 198.25313 29.39375Q197.37813 28.39375 196.08125 28.39375Q194.75313 28.39375 193.87813 29.39375Q193.01875 30.378124 193.01875 32.3625ZM202.84688 37.55L202.84688 27.175L204.425 27.175L204.425 28.753124Q205.03438 27.64375 205.55 27.3Q206.06563 26.940624 206.675 26.940624Q207.56563 26.940624 208.4875 27.503124L207.87813 29.14375Q207.2375 28.753124 206.59688 28.753124Q206.01875 28.753124 205.55 29.1125Q205.09688 29.45625 204.89375 30.065624Q204.6125 31.003124 204.6125 32.1125L204.6125 37.55L202.84688 37.55ZM216.97188 34.20625L218.78438 34.440624Q218.3625 36.01875 217.19063 36.909374Q216.03438 37.784374 214.22188 37.784374Q211.95625 37.784374 210.6125 36.39375Q209.28438 34.9875 209.28438 32.45625Q209.28438 29.83125 210.62813 28.39375Q211.97188 26.940624 214.12813 26.940624Q216.20625 26.940624 217.51875 28.3625Q218.84688 29.76875 218.84688 32.346874Q218.84688 32.503124 218.83125 32.815624L211.09688 32.815624Q211.19063 34.51875 212.06563 35.425Q212.94063 36.33125 214.2375 36.33125Q215.20625 36.33125 215.87813 35.83125Q216.56563 35.315624 216.97188 34.20625ZM211.19063 31.3625L216.9875 31.3625Q216.87813 30.065624 216.33125 29.409374Q215.4875 28.39375 214.14375 28.39375Q212.94063 28.39375 212.1125 29.20625Q211.28438 30.003124 211.19063 31.3625ZM221.3625 29.175L221.3625 27.175L223.3625 27.175L223.3625 29.175L221.3625 29.175ZM221.3625 37.55L221.3625 35.55L223.3625 35.55L223.3625 37.55L221.3625 37.55ZM243.31563 32.534374L245.20625 33.003124Q244.6125 35.346874 243.06563 36.58125Q241.51875 37.8 239.26875 37.8Q236.95625 37.8 235.50313 36.8625Q234.06563 35.909374 233.3 34.128124Q232.55 32.33125 232.55 30.284374Q232.55 28.05 233.39375 26.39375Q234.25313 24.721874 235.83125 23.8625Q237.40938 22.9875 239.3 22.9875Q241.45625 22.9875 242.90938 24.08125Q244.37813 25.175 244.95625 27.159374L243.09688 27.596874Q242.59688 26.034374 241.64375 25.33125Q240.70625 24.6125 239.26875 24.6125Q237.6125 24.6125 236.50313 25.409374Q235.39375 26.190624 234.94063 27.534374Q234.50313 28.8625 234.50313 30.26875Q234.50313 32.096874 235.03438 33.471874Q235.56563 34.83125 236.69063 35.503124Q237.81563 36.175 239.1125 36.175Q240.70625 36.175 241.81563 35.253124Q242.925 34.33125 243.31563 32.534374ZM247.40938 37.55L247.40938 23.2375L249.31563 23.2375L249.31563 37.55L247.40938 37.55ZM253.08125 37.55L253.08125 23.2375L255.01875 23.2375L262.53436 34.471874L262.53436 23.2375L264.34686 23.2375L264.34686 37.55L262.40936 37.55L254.89375 26.3L254.89375 37.55L253.08125 37.55ZM270.7375 37.55L270.7375 24.925L266.01874 24.925L266.01874 23.2375L277.3625 23.2375L277.3625 24.925L272.6281 24.925L272.6281 37.55L270.7375 37.55ZM279.40936 37.55L279.40936 23.2375L281.3156 23.2375L281.3156 37.55L279.40936 37.55ZM285.01874 37.55L285.01874 23.2375L286.90936 23.2375L286.90936 35.8625L293.95624 35.8625L293.95624 37.55L285.01874 37.55ZM308.97186 34.20625L310.78436 34.440624Q310.3625 36.01875 309.1906 36.909374Q308.03436 37.784374 306.22186 37.784374Q303.95624 37.784374 302.6125 36.39375Q301.28436 34.9875 301.28436 32.45625Q301.28436 29.83125 302.6281 28.39375Q303.97186 26.940624 306.1281 26.940624Q308.20624 26.940624 309.51874 28.3625Q310.84686 29.76875 310.84686 32.346874Q310.84686 32.503124 310.83124 32.815624L303.09686 32.815624Q303.1906 34.51875 304.0656 35.425Q304.9406 36.33125 306.2375 36.33125Q307.20624 36.33125 307.8781 35.83125Q308.5656 35.315624 308.97186 34.20625ZM303.1906 31.3625L308.9875 31.3625Q308.8781 30.065624 308.33124 29.409374Q307.4875 28.39375 306.14374 28.39375Q304.9406 28.39375 304.1125 29.20625Q303.28436 30.003124 303.1906 31.3625ZM319.01874 37.55L319.01874 23.2375L324.39374 23.2375Q326.03436 23.2375 327.01874 23.675Q328.0031 24.096874 328.5656 25.003124Q329.1281 25.909374 329.1281 26.89375Q329.1281 27.815624 328.6281 28.628124Q328.14374 29.440624 327.1281 29.925Q328.425 30.315624 329.1281 31.2375Q329.83124 32.14375 329.83124 33.39375Q329.83124 34.409374 329.39374 35.26875Q328.97186 36.128124 328.34686 36.596874Q327.72186 37.065624 326.78436 37.315624Q325.84686 37.55 324.47186 37.55L319.01874 37.55ZM320.90936 29.253124L324.0031 29.253124Q325.26874 29.253124 325.8156 29.08125Q326.53436 28.8625 326.89374 28.378124Q327.26874 27.878124 327.26874 27.1125Q327.26874 26.409374 326.925 25.8625Q326.58124 25.315624 325.9406 25.128124Q325.3156 24.925 323.76874 24.925L320.90936 24.925L320.90936 29.253124ZM320.90936 35.8625L324.47186 35.8625Q325.39374 35.8625 325.76874 35.784374Q326.425 35.675 326.8625 35.409374Q327.3 35.128124 327.58124 34.6125Q327.8625 34.08125 327.8625 33.39375Q327.8625 32.596874 327.45624 32.003124Q327.05 31.409374 326.3156 31.175Q325.58124 30.940624 324.22186 30.940624L320.90936 30.940624L320.90936 35.8625ZM331.22186 32.3625Q331.22186 29.4875 332.8156 28.096874Q334.15936 26.940624 336.08124 26.940624Q338.22186 26.940624 339.5656 28.346874Q340.925 29.753124 340.925 32.221874Q340.925 34.221874 340.33124 35.378124Q339.7375 36.51875 338.58124 37.159374Q337.4406 37.784374 336.08124 37.784374Q333.89374 37.784374 332.55 36.39375Q331.22186 34.9875 331.22186 32.3625ZM333.01874 32.3625Q333.01874 34.3625 333.8781 35.346874Q334.7531 36.33125 336.08124 36.33125Q337.39374 36.33125 338.2531 35.346874Q339.1281 34.346874 339.1281 32.3Q339.1281 30.378124 338.2531 29.39375Q337.3781 28.39375 336.08124 28.39375Q334.7531 28.39375 333.8781 29.39375Q333.01874 30.378124 333.01874 32.3625ZM342.15936 34.45625L343.90936 34.175Q344.05 35.221874 344.72186 35.784374Q345.39374 36.33125 346.59686 36.33125Q347.8 36.33125 348.3781 35.846874Q348.97186 35.346874 348.97186 34.690624Q348.97186 34.096874 348.45624 33.753124Q348.09686 33.51875 346.65936 33.159374Q344.72186 32.659374 343.97186 32.315624Q343.2375 31.95625 342.84686 31.33125Q342.45624 30.690624 342.45624 29.925Q342.45624 29.2375 342.76874 28.64375Q343.09686 28.05 343.64374 27.659374Q344.05 27.3625 344.7531 27.159374Q345.47186 26.940624 346.28436 26.940624Q347.5031 26.940624 348.425 27.3Q349.34686 27.64375 349.78436 28.253124Q350.22186 28.846874 350.39374 29.846874L348.675 30.08125Q348.55 29.284374 347.9875 28.846874Q347.425 28.39375 346.40936 28.39375Q345.1906 28.39375 344.675 28.8Q344.15936 29.190624 344.15936 29.721874Q344.15936 30.065624 344.3781 30.346874Q344.58124 30.628124 345.05 30.815624Q345.3156 30.909374 346.59686 31.253124Q348.47186 31.753124 349.20624 32.08125Q349.9406 32.39375 350.3625 33.003124Q350.78436 33.596874 350.78436 34.503124Q350.78436 35.378124 350.26874 36.159374Q349.7531 36.940624 348.78436 37.3625Q347.8156 37.784374 346.59686 37.784374Q344.58124 37.784374 343.51874 36.940624Q342.45624 36.096874 342.15936 34.45625ZM359.4875 41.51875L359.4875 36.440624Q359.0656 37.01875 358.33124 37.409374Q357.59686 37.784374 356.76874 37.784374Q354.925 37.784374 353.58124 36.315624Q352.2531 34.83125 352.2531 32.26875Q352.2531 30.70625 352.78436 29.471874Q353.33124 28.221874 354.3625 27.58125Q355.39374 26.940624 356.6281 26.940624Q358.55 26.940624 359.65936 28.565624L359.65936 27.175L361.2375 27.175L361.2375 41.51875L359.4875 41.51875ZM354.0656 32.33125Q354.0656 34.33125 354.89374 35.33125Q355.7375 36.33125 356.90936 36.33125Q358.03436 36.33125 358.84686 35.39375Q359.65936 34.440624 359.65936 32.4875Q359.65936 30.425 358.8 29.378124Q357.9406 28.33125 356.8 28.33125Q355.65936 28.33125 354.8625 29.3Q354.0656 30.26875 354.0656 32.33125ZM370.65936 37.55L370.65936 36.01875Q369.45624 37.784374 367.3781 37.784374Q366.45624 37.784374 365.65936 37.440624Q364.8625 37.08125 364.47186 36.55Q364.09686 36.01875 363.9406 35.2375Q363.83124 34.721874 363.83124 33.596874L363.83124 27.175L365.58124 27.175L365.58124 32.925Q365.58124 34.3 365.6906 34.784374Q365.8625 35.471874 366.39374 35.878124Q366.9406 36.26875 367.72186 36.26875Q368.51874 36.26875 369.20624 35.8625Q369.90936 35.45625 370.1906 34.76875Q370.4875 34.065624 370.4875 32.7375L370.4875 27.175L372.2375 27.175L372.2375 37.55L370.65936 37.55ZM381.97186 34.20625L383.78436 34.440624Q383.3625 36.01875 382.1906 36.909374Q381.03436 37.784374 379.22186 37.784374Q376.95624 37.784374 375.6125 36.39375Q374.28436 34.9875 374.28436 32.45625Q374.28436 29.83125 375.6281 28.39375Q376.97186 26.940624 379.1281 26.940624Q381.20624 26.940624 382.51874 28.3625Q383.84686 29.76875 383.84686 32.346874Q383.84686 32.503124 383.83124 32.815624L376.09686 32.815624Q376.1906 34.51875 377.0656 35.425Q377.9406 36.33125 379.2375 36.33125Q380.20624 36.33125 380.8781 35.83125Q381.5656 35.315624 381.97186 34.20625ZM376.1906 31.3625L381.9875 31.3625Q381.8781 30.065624 381.33124 29.409374Q380.4875 28.39375 379.14374 28.39375Q377.9406 28.39375 377.1125 29.20625Q376.28436 30.003124 376.1906 31.3625Z" fill-rule="nonzero"/></svg>