<svg version="1.1" viewBox="0.0 0.0 600.0 371.0" fill="none" stroke="none" stroke-linecap="square" stroke-miterlimit="10" width="600" height="371" xmlns:xlink="http://www.w3.org/1999/xlink" xmlns="http://www.w3.org/2000/svg"><path fill="#ffffff" d="M0 0L600.0 0L600.0 371.0L0 371.0L0 0Z" fill-rule="nonzero"/><path stroke="#333333" stroke-width="1.0" stroke-linecap="butt" d="M45.5 332.5L581.5 332.5" fill-rule="nonzero"/><path stroke="#cccccc" stroke-width="1.0" stroke-linecap="butt" d="M45.5 291.5L581.5 291.5" fill-rule="nonzero"/><path stroke="#cccccc" stroke-width="1.0" stroke-linecap="butt" d="M45.5 251.5L581.5 251.5" fill-rule="nonzero"/><path stroke="#cccccc" stroke-width="1.0" stroke-linecap="butt" d="M45.5 210.5L581.5 210.5" fill-rule="nonzero"/><path stroke="#cccccc" stroke-width="1.0" stroke-linecap="butt" d="M45.5 169.5L581.5 169.5" fill-rule="nonzero"/><path stroke="#cccccc" stroke-width="1.0" stroke-linecap="butt" d="M45.5 128.5L581.5 128.5" fill-rule="nonzero"/><path stroke="#cccccc" stroke-width="1.0" stroke-linecap="butt" d="M45.5 88.5L581.5 88.5" fill-rule="nonzero"/><clipPath id="id_0"><path d="M45.55 88.28333L581.45 88.28333L581.45 332.45L45.55 332.45L45.55 88.28333Z" clip-rule="nonzero"/></clipPath><path stroke="#000000" stroke-width="0.0" stroke-linecap="butt" stroke-opacity="0.0" clip-path="url(#id_0)" d="M80.0 332.0L64.0 332.0L64.0 106.0C64.0 104.89543 64.89543 104.0 66.0 104.0L78.0 104.0C79.10457 104.0 80.0 104.89543 80.0 106.0Z" fill-rule="nonzero"/><path fill="#4285f4" clip-path="url(#id_0)" d="M80.0 332.0L64.0 332.0L64.0 106.0C64.0 104.89543 64.89543 104.0 66.0 104.0L78.0 104.0C79.10457 104.0 80.0 104.89543 80.0 106.0Z" fill-rule="nonzero"/><path stroke="#000000" stroke-width="0.0" stroke-linecap="butt" stroke-opacity="0.0" clip-path="url(#id_0)" d="M131.0 332.0L115.0 332.0L115.0 248.0C115.0 246.89543 115.89543 246.0 117.0 246.0L129.0 246.0C130.10457 246.0 131.0 246.89543 131.0 248.0Z" fill-rule="nonzero"/><path fill="#4285f4" clip-path="url(#id_0)" d="M131.0 332.0L115.0 332.0L115.0 248.0C115.0 246.89543 115.89543 246.0 117.0 246.0L129.0 246.0C130.10457 246.0 131.0 246.89543 131.0 248.0Z" fill-rule="nonzero"/><path stroke="#000000" stroke-width="0.0" stroke-linecap="butt" stroke-opacity="0.0" clip-path="url(#id_0)" d="M183.0 332.0L167.0 332.0L167.0 262.0C167.0 260.89542 167.89543 260.0 169.0 260.0L181.0 260.0C182.10457 260.0 183.0 260.89542 183.0 262.0Z" fill-rule="nonzero"/><path fill="#4285f4" clip-path="url(#id_0)" d="M183.0 332.0L167.0 332.0L167.0 262.0C167.0 260.89542 167.89543 260.0 169.0 260.0L181.0 260.0C182.10457 260.0 183.0 260.89542 183.0 262.0Z" fill-rule="nonzero"/><path stroke="#000000" stroke-width="0.0" stroke-linecap="butt" stroke-opacity="0.0" clip-path="url(#id_0)" d="M235.0 332.0L219.0 332.0L219.0 249.0C219.0 247.89543 219.89543 247.0 221.0 247.0L233.0 247.0C234.10457 247.0 235.0 247.89543 235.0 249.0Z" fill-rule="nonzero"/><path fill="#4285f4" clip-path="url(#id_0)" d="M235.0 332.0L219.0 332.0L219.0 249.0C219.0 247.89543 219.89543 247.0 221.0 247.0L233.0 247.0C234.10457 247.0 235.0 247.89543 235.0 249.0Z" fill-rule="nonzero"/><path stroke="#000000" stroke-width="0.0" stroke-linecap="butt" stroke-opacity="0.0" clip-path="url(#id_0)" d="M287.0 332.0L271.0 332.0L271.0 251.0C271.0 249.89543 271.89542 249.0 273.0 249.0L285.0 249.0C286.10458 249.0 287.0 249.89543 287.0 251.0Z" fill-rule="nonzero"/><path fill="#4285f4" clip-path="url(#id_0)" d="M287.0 332.0L271.0 332.0L271.0 251.0C271.0 249.89543 271.89542 249.0 273.0 249.0L285.0 249.0C286.10458 249.0 287.0 249.89543 287.0 251.0Z" fill-rule="nonzero"/><path stroke="#000000" stroke-width="0.0" stroke-linecap="butt" stroke-opacity="0.0" clip-path="url(#id_0)" d="M338.0 332.0L322.0 332.0L322.0 264.0C322.0 262.89542 322.89542 262.0 324.0 262.0L336.0 262.0C337.10458 262.0 338.0 262.89542 338.0 264.0Z" fill-rule="nonzero"/><path fill="#4285f4" clip-path="url(#id_0)" d="M338.0 332.0L322.0 332.0L322.0 264.0C322.0 262.89542 322.89542 262.0 324.0 262.0L336.0 262.0C337.10458 262.0 338.0 262.89542 338.0 264.0Z" fill-rule="nonzero"/><path stroke="#000000" stroke-width="0.0" stroke-linecap="butt" stroke-opacity="0.0" clip-path="url(#id_0)" d="M390.0 332.0L374.0 332.0L374.0 199.0C374.0 197.89543 374.89542 197.0 376.0 197.0L388.0 197.0C389.10458 197.0 390.0 197.89543 390.0 199.0Z" fill-rule="nonzero"/><path fill="#4285f4" clip-path="url(#id_0)" d="M390.0 332.0L374.0 332.0L374.0 199.0C374.0 197.89543 374.89542 197.0 376.0 197.0L388.0 197.0C389.10458 197.0 390.0 197.89543 390.0 199.0Z" fill-rule="nonzero"/><path stroke="#000000" stroke-width="0.0" stroke-linecap="butt" stroke-opacity="0.0" clip-path="url(#id_0)" d="M442.0 332.0L426.0 332.0L426.0 239.0C426.0 237.89543 426.89542 237.0 428.0 237.0L440.0 237.0C441.10458 237.0 442.0 237.89543 442.0 239.0Z" fill-rule="nonzero"/><path fill="#4285f4" clip-path="url(#id_0)" d="M442.0 332.0L426.0 332.0L426.0 239.0C426.0 237.89543 426.89542 237.0 428.0 237.0L440.0 237.0C441.10458 237.0 442.0 237.89543 442.0 239.0Z" fill-rule="nonzero"/><path stroke="#000000" stroke-width="0.0" stroke-linecap="butt" stroke-opacity="0.0" clip-path="url(#id_0)" d="M494.0 332.0L478.0 332.0L478.0 271.0C478.0 269.89542 478.89542 269.0 480.0 269.0L492.0 269.0C493.10458 269.0 494.0 269.89542 494.0 271.0Z" fill-rule="nonzero"/><path fill="#4285f4" clip-path="url(#id_0)" d="M494.0 332.0L478.0 332.0L478.0 271.0C478.0 269.89542 478.89542 269.0 480.0 269.0L492.0 269.0C493.10458 269.0 494.0 269.89542 494.0 271.0Z" fill-rule="nonzero"/><path stroke="#000000" stroke-width="0.0" stroke-linecap="butt" stroke-opacity="0.0" clip-path="url(#id_0)" d="M546.0 332.0L530.0 332.0L530.0 276.0C530.0 274.89542 530.89545 274.0 532.0 274.0L544.0 274.0C545.10455 274.0 546.0 274.89542 546.0 276.0Z" fill-rule="nonzero"/><path fill="#4285f4" clip-path="url(#id_0)" d="M546.0 332.0L530.0 332.0L530.0 276.0C530.0 274.89542 530.89545 274.0 532.0 274.0L544.0 274.0C545.10455 274.0 546.0 274.89542 546.0 276.0Z" fill-rule="nonzero"/><path stroke="#000000" stroke-width="0.0" stroke-linecap="butt" stroke-opacity="0.0" clip-path="url(#id_0)" d="M97.0 332.0L81.0 332.0L81.0 196.0C81.0 194.89543 81.89543 194.0 83.0 194.0L95.0 194.0C96.10457 194.0 97.0 194.89543 97.0 196.0Z" fill-rule="nonzero"/><path fill="#ea4335" clip-path="url(#id_0)" d="M97.0 332.0L81.0 332.0L81.0 196.0C81.0 194.89543 81.89543 194.0 83.0 194.0L95.0 194.0C96.10457 194.0 97.0 194.89543 97.0 196.0Z" fill-rule="nonzero"/><path stroke="#000000" stroke-width="0.0" stroke-linecap="butt" stroke-opacity="0.0" clip-path="url(#id_0)" d="M148.0 332.0L132.0 332.0L132.0 193.0C132.0 191.89543 132.89543 191.0 134.0 191.0L146.0 191.0C147.10457 191.0 148.0 191.89543 148.0 193.0Z" fill-rule="nonzero"/><path fill="#ea4335" clip-path="url(#id_0)" d="M148.0 332.0L132.0 332.0L132.0 193.0C132.0 191.89543 132.89543 191.0 134.0 191.0L146.0 191.0C147.10457 191.0 148.0 191.89543 148.0 193.0Z" fill-rule="nonzero"/><path stroke="#000000" stroke-width="0.0" stroke-linecap="butt" stroke-opacity="0.0" clip-path="url(#id_0)" d="M200.0 332.0L184.0 332.0L184.0 161.0C184.0 159.89543 184.89543 159.0 186.0 159.0L198.0 159.0C199.10457 159.0 200.0 159.89543 200.0 161.0Z" fill-rule="nonzero"/><path fill="#ea4335" clip-path="url(#id_0)" d="M200.0 332.0L184.0 332.0L184.0 161.0C184.0 159.89543 184.89543 159.0 186.0 159.0L198.0 159.0C199.10457 159.0 200.0 159.89543 200.0 161.0Z" fill-rule="nonzero"/><path stroke="#000000" stroke-width="0.0" stroke-linecap="butt" stroke-opacity="0.0" clip-path="url(#id_0)" d="M252.0 332.0L236.0 332.0L236.0 179.0C236.0 177.89543 236.89543 177.0 238.0 177.0L250.0 177.0C251.10457 177.0 252.0 177.89543 252.0 179.0Z" fill-rule="nonzero"/><path fill="#ea4335" clip-path="url(#id_0)" d="M252.0 332.0L236.0 332.0L236.0 179.0C236.0 177.89543 236.89543 177.0 238.0 177.0L250.0 177.0C251.10457 177.0 252.0 177.89543 252.0 179.0Z" fill-rule="nonzero"/><path stroke="#000000" stroke-width="0.0" stroke-linecap="butt" stroke-opacity="0.0" clip-path="url(#id_0)" d="M304.0 332.0L288.0 332.0L288.0 161.0C288.0 159.89543 288.89542 159.0 290.0 159.0L302.0 159.0C303.10458 159.0 304.0 159.89543 304.0 161.0Z" fill-rule="nonzero"/><path fill="#ea4335" clip-path="url(#id_0)" d="M304.0 332.0L288.0 332.0L288.0 161.0C288.0 159.89543 288.89542 159.0 290.0 159.0L302.0 159.0C303.10458 159.0 304.0 159.89543 304.0 161.0Z" fill-rule="nonzero"/><path stroke="#000000" stroke-width="0.0" stroke-linecap="butt" stroke-opacity="0.0" clip-path="url(#id_0)" d="M355.0 332.0L339.0 332.0L339.0 181.0C339.0 179.89543 339.89542 179.0 341.0 179.0L353.0 179.0C354.10458 179.0 355.0 179.89543 355.0 181.0Z" fill-rule="nonzero"/><path fill="#ea4335" clip-path="url(#id_0)" d="M355.0 332.0L339.0 332.0L339.0 181.0C339.0 179.89543 339.89542 179.0 341.0 179.0L353.0 179.0C354.10458 179.0 355.0 179.89543 355.0 181.0Z" fill-rule="nonzero"/><path stroke="#000000" stroke-width="0.0" stroke-linecap="butt" stroke-opacity="0.0" clip-path="url(#id_0)" d="M407.0 332.0L391.0 332.0L391.0 167.0C391.0 165.89543 391.89542 165.0 393.0 165.0L405.0 165.0C406.10458 165.0 407.0 165.89543 407.0 167.0Z" fill-rule="nonzero"/><path fill="#ea4335" clip-path="url(#id_0)" d="M407.0 332.0L391.0 332.0L391.0 167.0C391.0 165.89543 391.89542 165.0 393.0 165.0L405.0 165.0C406.10458 165.0 407.0 165.89543 407.0 167.0Z" fill-rule="nonzero"/><path stroke="#000000" stroke-width="0.0" stroke-linecap="butt" stroke-opacity="0.0" clip-path="url(#id_0)" d="M459.0 332.0L443.0 332.0L443.0 158.0C443.0 156.89543 443.89542 156.0 445.0 156.0L457.0 156.0C458.10458 156.0 459.0 156.89543 459.0 158.0Z" fill-rule="nonzero"/><path fill="#ea4335" clip-path="url(#id_0)" d="M459.0 332.0L443.0 332.0L443.0 158.0C443.0 156.89543 443.89542 156.0 445.0 156.0L457.0 156.0C458.10458 156.0 459.0 156.89543 459.0 158.0Z" fill-rule="nonzero"/><path stroke="#000000" stroke-width="0.0" stroke-linecap="butt" stroke-opacity="0.0" clip-path="url(#id_0)" d="M511.0 332.0L495.0 332.0L495.0 182.0C495.0 180.89543 495.89542 180.0 497.0 180.0L509.0 180.0C510.10458 180.0 511.0 180.89543 511.0 182.0Z" fill-rule="nonzero"/><path fill="#ea4335" clip-path="url(#id_0)" d="M511.0 332.0L495.0 332.0L495.0 182.0C495.0 180.89543 495.89542 180.0 497.0 180.0L509.0 180.0C510.10458 180.0 511.0 180.89543 511.0 182.0Z" fill-rule="nonzero"/><path stroke="#000000" stroke-width="0.0" stroke-linecap="butt" stroke-opacity="0.0" clip-path="url(#id_0)" d="M563.0 332.0L547.0 332.0L547.0 172.0C547.0 170.89543 547.89545 170.0 549.0 170.0L561.0 170.0C562.10455 170.0 563.0 170.89543 563.0 172.0Z" fill-rule="nonzero"/><path fill="#ea4335" clip-path="url(#id_0)" d="M563.0 332.0L547.0 332.0L547.0 172.0C547.0 170.89543 547.89545 170.0 549.0 170.0L561.0 170.0C562.10455 170.0 563.0 170.89543 563.0 172.0Z" fill-rule="nonzero"/><path fill="#000000" d="M33.05 332.21564Q33.05 330.6844 33.3625 329.7625Q33.675 328.825 34.284374 328.325Q34.909374 327.825 35.846874 327.825Q36.534374 327.825 37.05 328.10626Q37.58125 328.3875 37.925 328.91876Q38.26875 329.4344 38.45625 330.1844Q38.64375 330.9344 38.64375 332.21564Q38.64375 333.73126 38.33125 334.65314Q38.034374 335.575 37.409374 336.09064Q36.8 336.59064 35.846874 336.59064Q34.6125 336.59064 33.89375 335.7Q33.05 334.6375 33.05 332.21564ZM34.128124 332.21564Q34.128124 334.325 34.628124 335.02814Q35.128124 335.73126 35.846874 335.73126Q36.58125 335.73126 37.065624 335.02814Q37.565624 334.325 37.565624 332.21564Q37.565624 330.09064 37.065624 329.40314Q36.58125 328.7 35.83125 328.7Q35.1125 328.7 34.675 329.3094Q34.128124 330.09064 34.128124 332.21564Z" fill-rule="nonzero"/><path fill="#000000" d="M38.596874 294.73993L38.596874 295.75555L32.909374 295.75555Q32.909374 295.38055 33.034374 295.02118Q33.253124 294.44305 33.721874 293.88055Q34.20625 293.31805 35.1125 292.58368Q36.51875 291.42743 37.003124 290.75555Q37.503124 290.08368 37.503124 289.48993Q37.503124 288.86493 37.05 288.44305Q36.596874 288.00555 35.878124 288.00555Q35.1125 288.00555 34.659374 288.45868Q34.20625 288.9118 34.190624 289.7243L33.1125 289.61493Q33.221874 288.39618 33.940624 287.77118Q34.675 287.13055 35.909374 287.13055Q37.14375 287.13055 37.8625 287.81805Q38.58125 288.50555 38.58125 289.52118Q38.58125 290.0368 38.3625 290.5368Q38.159374 291.02118 37.659374 291.58368Q37.175 292.13055 36.05 293.08368Q35.096874 293.88055 34.815624 294.17743Q34.55 294.45868 34.378124 294.73993L38.596874 294.73993Z" fill-rule="nonzero"/><path fill="#000000" d="M36.425 255.06111L36.425 252.99861L32.70625 252.99861L32.70625 252.02986L36.628124 246.46736L37.4875 246.46736L37.4875 252.02986L38.64375 252.02986L38.64375 252.99861L37.4875 252.99861L37.4875 255.06111L36.425 255.06111ZM36.425 252.02986L36.425 248.17049L33.7375 252.02986L36.425 252.02986Z" fill-rule="nonzero"/><path fill="#000000" d="M38.51875 207.8823L37.471874 207.96042Q37.33125 207.33542 37.08125 207.05417Q36.64375 206.60104 36.01875 206.60104Q35.51875 206.60104 35.128124 206.8823Q34.64375 207.2573 34.346874 207.96042Q34.065624 208.64792 34.05 209.92917Q34.425 209.35104 34.971874 209.0698Q35.534374 208.78854 36.14375 208.78854Q37.190624 208.78854 37.925 209.5698Q38.675 210.35104 38.675 211.5698Q38.675 212.3823 38.315624 213.08542Q37.971874 213.77292 37.3625 214.14792Q36.753124 214.5073 35.9875 214.5073Q34.659374 214.5073 33.83125 213.53854Q33.003124 212.5698 33.003124 210.35104Q33.003124 207.85104 33.925 206.72604Q34.721874 205.74167 36.08125 205.74167Q37.096874 205.74167 37.7375 206.3198Q38.39375 206.8823 38.51875 207.8823ZM34.221874 211.58542Q34.221874 212.1323 34.440624 212.6323Q34.675 213.11667 35.08125 213.3823Q35.503124 213.64792 35.971874 213.64792Q36.628124 213.64792 37.1125 213.11667Q37.596874 212.5698 37.596874 211.64792Q37.596874 210.7573 37.1125 210.24167Q36.64375 209.72604 35.925 209.72604Q35.20625 209.72604 34.70625 210.24167Q34.221874 210.7573 34.221874 211.58542Z" fill-rule="nonzero"/><path fill="#000000" d="M34.675 169.01598Q34.01875 168.76598 33.690624 168.32848Q33.378124 167.87535 33.378124 167.26598Q33.378124 166.32848 34.05 165.68785Q34.7375 165.04723 35.846874 165.04723Q36.971874 165.04723 37.659374 165.70348Q38.346874 166.35973 38.346874 167.29723Q38.346874 167.89098 38.034374 168.32848Q37.721874 168.76598 37.08125 169.01598Q37.878124 169.26598 38.284374 169.8441Q38.690624 170.42223 38.690624 171.2191Q38.690624 172.31285 37.909374 173.06285Q37.14375 173.81285 35.8625 173.81285Q34.596874 173.81285 33.815624 173.06285Q33.034374 172.31285 33.034374 171.18785Q33.034374 170.3441 33.45625 169.7816Q33.89375 169.2191 34.675 169.01598ZM34.45625 167.2191Q34.45625 167.82848 34.846874 168.2191Q35.253124 168.60973 35.878124 168.60973Q36.4875 168.60973 36.878124 168.23473Q37.26875 167.8441 37.26875 167.2816Q37.26875 166.70348 36.8625 166.31285Q36.45625 165.9066 35.8625 165.9066Q35.253124 165.9066 34.846874 166.29723Q34.45625 166.68785 34.45625 167.2191ZM34.128124 171.18785Q34.128124 171.64098 34.33125 172.06285Q34.55 172.48473 34.971874 172.7191Q35.39375 172.95348 35.878124 172.95348Q36.628124 172.95348 37.1125 172.4691Q37.6125 171.98473 37.6125 171.23473Q37.6125 170.4691 37.1125 169.9691Q36.6125 169.4691 35.846874 169.4691Q35.096874 169.4691 34.6125 169.9691Q34.128124 170.45348 34.128124 171.18785Z" fill-rule="nonzero"/><path fill="#000000" d="M30.01875 132.97778L28.971874 132.97778L28.971874 126.25903Q28.58125 126.61841 27.95625 126.99341Q27.346874 127.35278 26.8625 127.52466L26.8625 126.50903Q27.7375 126.08716 28.39375 125.50903Q29.065624 124.91528 29.346874 124.35278L30.01875 124.35278L30.01875 132.97778ZM33.05 128.74341Q33.05 127.21216 33.3625 126.29028Q33.675 125.35278 34.284374 124.85278Q34.909374 124.35278 35.846874 124.35278Q36.534374 124.35278 37.05 124.63403Q37.58125 124.91528 37.925 125.44653Q38.26875 125.96216 38.45625 126.71216Q38.64375 127.46216 38.64375 128.74341Q38.64375 130.25903 38.33125 131.18091Q38.034374 132.10278 37.409374 132.61841Q36.8 133.11841 35.846874 133.11841Q34.6125 133.11841 33.89375 132.22778Q33.05 131.16528 33.05 128.74341ZM34.128124 128.74341Q34.128124 130.85278 34.628124 131.55591Q35.128124 132.25903 35.846874 132.25903Q36.58125 132.25903 37.065624 131.55591Q37.565624 130.85278 37.565624 128.74341Q37.565624 126.61841 37.065624 125.93091Q36.58125 125.22778 35.83125 125.22778Q35.1125 125.22778 34.675 125.83716Q34.128124 126.61841 34.128124 128.74341Z" fill-rule="nonzero"/><path fill="#000000" d="M30.01875 92.28333L28.971874 92.28333L28.971874 85.56458Q28.58125 85.92396 27.95625 86.29896Q27.346874 86.65833 26.8625 86.83021L26.8625 85.81458Q27.7375 85.39271 28.39375 84.81458Q29.065624 84.22083 29.346874 83.65833L30.01875 83.65833L30.01875 92.28333ZM38.596874 91.26771L38.596874 92.28333L32.909374 92.28333Q32.909374 91.90833 33.034374 91.54896Q33.253124 90.97083 33.721874 90.40833Q34.20625 89.84583 35.1125 89.11146Q36.51875 87.95521 37.003124 87.28333Q37.503124 86.61146 37.503124 86.01771Q37.503124 85.39271 37.05 84.97083Q36.596874 84.53333 35.878124 84.53333Q35.1125 84.53333 34.659374 84.98646Q34.20625 85.43958 34.190624 86.25208L33.1125 86.14271Q33.221874 84.92396 33.940624 84.29896Q34.675 83.65833 35.909374 83.65833Q37.14375 83.65833 37.8625 84.34583Q38.58125 85.03333 38.58125 86.04896Q38.58125 86.56458 38.3625 87.06458Q38.159374 87.54896 37.659374 88.11146Q37.175 88.65833 36.05 89.61146Q35.096874 90.40833 34.815624 90.70521Q34.55 90.98646 34.378124 91.26771L38.596874 91.26771Z" fill-rule="nonzero"/><path fill="#000000" d="M81.46875 349.45L80.421875 349.45L80.421875 342.73126Q80.03125 343.09064 79.40625 343.46564Q78.796875 343.825 78.3125 343.9969L78.3125 342.98126Q79.1875 342.5594 79.84375 341.98126Q80.515625 341.3875 80.796875 340.825L81.46875 340.825L81.46875 349.45Z" fill-rule="nonzero"/><path fill="#000000" d="M134.82465 348.4344L134.82465 349.45L129.13715 349.45Q129.13715 349.075 129.26215 348.71564Q129.4809 348.1375 129.94965 347.575Q130.43402 347.0125 131.34027 346.27814Q132.74652 345.1219 133.2309 344.45Q133.7309 343.77814 133.7309 343.1844Q133.7309 342.5594 133.27777 342.1375Q132.82465 341.7 132.1059 341.7Q131.34027 341.7 130.88715 342.15314Q130.43402 342.60626 130.4184 343.41876L129.34027 343.3094Q129.44965 342.09064 130.1684 341.46564Q130.90277 340.825 132.13715 340.825Q133.37152 340.825 134.09027 341.5125Q134.80902 342.2 134.80902 343.21564Q134.80902 343.73126 134.59027 344.23126Q134.38715 344.71564 133.88715 345.27814Q133.40277 345.825 132.27777 346.77814Q131.32465 347.575 131.0434 347.8719Q130.77777 348.15314 130.6059 348.4344L134.82465 348.4344Z" fill-rule="nonzero"/><path fill="#000000" d="M181.05556 347.1844L182.11806 347.04376Q182.28993 347.9344 182.72743 348.34064Q183.16493 348.73126 183.78993 348.73126Q184.53993 348.73126 185.05556 348.21564Q185.57118 347.7 185.57118 346.9344Q185.57118 346.21564 185.0868 345.7469Q184.61806 345.2625 183.88368 345.2625Q183.5868 345.2625 183.13368 345.3875L183.25868 344.45Q183.36806 344.46564 183.43056 344.46564Q184.10243 344.46564 184.63368 344.1219Q185.18056 343.7625 185.18056 343.02814Q185.18056 342.45 184.78993 342.075Q184.3993 341.6844 183.7743 341.6844Q183.16493 341.6844 182.74306 342.075Q182.3368 342.46564 182.22743 343.23126L181.16493 343.04376Q181.35243 341.9969 182.03993 341.41876Q182.72743 340.825 183.74306 340.825Q184.44618 340.825 185.03993 341.1375Q185.63368 341.4344 185.94618 341.95Q186.25868 342.46564 186.25868 343.0594Q186.25868 343.60626 185.9618 344.075Q185.66493 344.52814 185.0868 344.79376Q185.8368 344.96564 186.25868 345.52814Q186.68056 346.075 186.68056 346.91876Q186.68056 348.04376 185.85243 348.825Q185.03993 349.60626 183.78993 349.60626Q182.66493 349.60626 181.91493 348.9344Q181.16493 348.2469 181.05556 347.1844Z" fill-rule="nonzero"/><path fill="#000000" d="M236.20833 349.45L236.20833 347.3875L232.48958 347.3875L232.48958 346.41876L236.41145 340.85626L237.27083 340.85626L237.27083 346.41876L238.42708 346.41876L238.42708 347.3875L237.27083 347.3875L237.27083 349.45L236.20833 349.45ZM236.20833 346.41876L236.20833 342.5594L233.52083 346.41876L236.20833 346.41876Z" fill-rule="nonzero"/><path fill="#000000" d="M284.6111 347.2L285.7205 347.10626Q285.8455 347.91876 286.283 348.325Q286.7361 348.73126 287.37674 348.73126Q288.12674 348.73126 288.658 348.15314Q289.18924 347.575 289.18924 346.6375Q289.18924 345.73126 288.6736 345.21564Q288.1736 344.6844 287.3455 344.6844Q286.8455 344.6844 286.4236 344.91876Q286.01736 345.15314 285.783 345.5125L284.7986 345.3875L285.62674 340.98126L289.908 340.98126L289.908 341.98126L286.4705 341.98126L286.01736 344.29376Q286.783 343.7469 287.62674 343.7469Q288.75174 343.7469 289.51736 344.52814Q290.2986 345.3094 290.2986 346.54376Q290.2986 347.7 289.62674 348.5594Q288.7986 349.59064 287.37674 349.59064Q286.20486 349.59064 285.45486 348.9344Q284.7205 348.27814 284.6111 347.2Z" fill-rule="nonzero"/><path fill="#000000" d="M341.85764 342.96564L340.81076 343.04376Q340.67014 342.41876 340.42014 342.1375Q339.98264 341.6844 339.35764 341.6844Q338.85764 341.6844 338.467 341.96564Q337.98264 342.34064 337.68576 343.04376Q337.4045 343.73126 337.3889 345.0125Q337.7639 344.4344 338.31076 344.15314Q338.87326 343.8719 339.48264 343.8719Q340.5295 343.8719 341.2639 344.65314Q342.0139 345.4344 342.0139 346.65314Q342.0139 347.46564 341.6545 348.16876Q341.31076 348.85626 340.7014 349.23126Q340.092 349.59064 339.3264 349.59064Q337.99826 349.59064 337.17014 348.6219Q336.342 347.65314 336.342 345.4344Q336.342 342.9344 337.2639 341.8094Q338.06076 340.825 339.42014 340.825Q340.43576 340.825 341.0764 341.40314Q341.73264 341.96564 341.85764 342.96564ZM337.56076 346.66876Q337.56076 347.21564 337.7795 347.71564Q338.0139 348.2 338.42014 348.46564Q338.842 348.73126 339.31076 348.73126Q339.967 348.73126 340.4514 348.2Q340.93576 347.65314 340.93576 346.73126Q340.93576 345.84064 340.4514 345.325Q339.98264 344.8094 339.2639 344.8094Q338.54514 344.8094 338.04514 345.325Q337.56076 345.84064 337.56076 346.66876Z" fill-rule="nonzero"/><path fill="#000000" d="M388.22916 341.98126L388.22916 340.96564L393.79166 340.96564L393.79166 341.79376Q392.97916 342.66876 392.16666 344.1219Q391.36978 345.5594 390.93228 347.09064Q390.60416 348.16876 390.52603 349.45L389.43228 349.45Q389.4479 348.4344 389.8229 346.9969Q390.21353 345.5594 390.91666 344.23126Q391.6354 342.90314 392.4479 341.98126L388.22916 341.98126Z" fill-rule="nonzero"/><path fill="#000000" d="M441.56946 344.79376Q440.9132 344.54376 440.58508 344.10626Q440.27258 343.65314 440.27258 343.04376Q440.27258 342.10626 440.94446 341.46564Q441.63196 340.825 442.74133 340.825Q443.86633 340.825 444.55383 341.48126Q445.24133 342.1375 445.24133 343.075Q445.24133 343.66876 444.92883 344.10626Q444.61633 344.54376 443.9757 344.79376Q444.77258 345.04376 445.17883 345.6219Q445.58508 346.2 445.58508 346.9969Q445.58508 348.09064 444.80383 348.84064Q444.0382 349.59064 442.75696 349.59064Q441.49133 349.59064 440.71008 348.84064Q439.92883 348.09064 439.92883 346.96564Q439.92883 346.1219 440.3507 345.5594Q440.7882 344.9969 441.56946 344.79376ZM441.3507 342.9969Q441.3507 343.60626 441.74133 343.9969Q442.14758 344.3875 442.77258 344.3875Q443.38196 344.3875 443.77258 344.0125Q444.1632 343.6219 444.1632 343.0594Q444.1632 342.48126 443.75696 342.09064Q443.3507 341.6844 442.75696 341.6844Q442.14758 341.6844 441.74133 342.075Q441.3507 342.46564 441.3507 342.9969ZM441.02258 346.96564Q441.02258 347.41876 441.2257 347.84064Q441.44446 348.2625 441.86633 348.4969Q442.2882 348.73126 442.77258 348.73126Q443.52258 348.73126 444.00696 348.2469Q444.50696 347.7625 444.50696 347.0125Q444.50696 346.2469 444.00696 345.7469Q443.50696 345.2469 442.74133 345.2469Q441.99133 345.2469 441.50696 345.7469Q441.02258 346.23126 441.02258 346.96564Z" fill-rule="nonzero"/><path fill="#000000" d="M491.87848 347.46564L492.8941 347.3719Q493.0191 348.09064 493.37848 348.41876Q493.75348 348.73126 494.31598 348.73126Q494.80035 348.73126 495.15973 348.5125Q495.53473 348.27814 495.7691 347.91876Q496.00348 347.54376 496.15973 346.91876Q496.31598 346.27814 496.31598 345.6219Q496.31598 345.54376 496.31598 345.40314Q496.00348 345.90314 495.4566 346.23126Q494.90973 346.54376 494.2691 346.54376Q493.19098 346.54376 492.4566 345.77814Q491.72223 344.9969 491.72223 343.73126Q491.72223 342.41876 492.48785 341.6219Q493.2691 340.825 494.42535 340.825Q495.25348 340.825 495.94098 341.27814Q496.6441 341.73126 497.00348 342.575Q497.36285 343.40314 497.36285 344.98126Q497.36285 346.6219 497.00348 347.60626Q496.65973 348.575 495.94098 349.09064Q495.23785 349.59064 494.30035 349.59064Q493.28473 349.59064 492.6441 349.04376Q492.00348 348.48126 491.87848 347.46564ZM496.19098 343.66876Q496.19098 342.7625 495.7066 342.23126Q495.23785 341.7 494.55035 341.7Q493.84723 341.7 493.31598 342.27814Q492.80035 342.84064 492.80035 343.7625Q492.80035 344.575 493.30035 345.09064Q493.80035 345.60626 494.5191 345.60626Q495.25348 345.60626 495.72223 345.09064Q496.19098 344.575 496.19098 343.66876Z" fill-rule="nonzero"/><path fill="#000000" d="M543.96875 349.45L542.9219 349.45L542.9219 342.73126Q542.53125 343.09064 541.90625 343.46564Q541.2969 343.825 540.8125 343.9969L540.8125 342.98126Q541.6875 342.5594 542.34375 341.98126Q543.0156 341.3875 543.2969 340.825L543.96875 340.825L543.96875 349.45ZM547.0 345.21564Q547.0 343.6844 547.3125 342.7625Q547.625 341.825 548.2344 341.325Q548.8594 340.825 549.7969 340.825Q550.4844 340.825 551.0 341.10626Q551.53125 341.3875 551.875 341.91876Q552.21875 342.4344 552.40625 343.1844Q552.59375 343.9344 552.59375 345.21564Q552.59375 346.73126 552.28125 347.65314Q551.9844 348.575 551.3594 349.09064Q550.75 349.59064 549.7969 349.59064Q548.5625 349.59064 547.84375 348.7Q547.0 347.6375 547.0 345.21564ZM548.0781 345.21564Q548.0781 347.325 548.5781 348.02814Q549.0781 348.73126 549.7969 348.73126Q550.53125 348.73126 551.0156 348.02814Q551.5156 347.325 551.5156 345.21564Q551.5156 343.09064 551.0156 342.40314Q550.53125 341.7 549.78125 341.7Q549.0625 341.7 548.625 342.3094Q548.0781 343.09064 548.0781 345.21564Z" fill-rule="nonzero"/><path fill="#4285f4" d="M227.5 56.916668C227.5 56.364384 227.94771 55.916668 228.5 55.916668L238.5 55.916668C239.05229 55.916668 239.5 56.364384 239.5 56.916668L239.5 66.916664C239.5 67.46895 239.05229 67.916664 238.5 67.916664L228.5 67.916664C227.94771 67.916664 227.5 67.46895 227.5 66.916664Z" fill-rule="nonzero"/><path fill="#1a1a1a" d="M254.5625 62.90104L255.6875 63.197914Q255.32812 64.58854 254.40625 65.322914Q253.48438 66.05729 252.14062 66.05729Q250.75 66.05729 249.875 65.49479Q249.0 64.93229 248.54688 63.86979Q248.09375 62.791664 248.09375 61.55729Q248.09375 60.21354 248.60938 59.21354Q249.125 58.21354 250.0625 57.697914Q251.01562 57.18229 252.15625 57.18229Q253.4375 57.18229 254.3125 57.83854Q255.20312 58.49479 255.54688 59.68229L254.42188 59.947914Q254.125 59.010414 253.54688 58.58854Q252.98438 58.15104 252.125 58.15104Q251.14062 58.15104 250.46875 58.635414Q249.8125 59.104164 249.53125 59.90104Q249.26562 60.697914 249.26562 61.55729Q249.26562 62.65104 249.57812 63.46354Q249.90625 64.27604 250.57812 64.68229Q251.25 65.08854 252.04688 65.08854Q253.0 65.08854 253.65625 64.541664Q254.32812 63.99479 254.5625 62.90104ZM257.625 65.916664L257.625 57.322914L258.75 57.322914L258.75 65.916664L257.625 65.916664ZM260.42188 65.916664L260.42188 57.322914L261.57812 57.322914L266.09375 64.072914L266.09375 57.322914L267.1875 57.322914L267.1875 65.916664L266.01562 65.916664L261.5 59.166664L261.5 65.916664L260.42188 65.916664ZM271.60938 65.916664L271.60938 58.33854L268.78125 58.33854L268.78125 57.322914L275.59375 57.322914L275.59375 58.33854L272.75 58.33854L272.75 65.916664L271.60938 65.916664ZM276.625 65.916664L276.625 57.322914L277.75 57.322914L277.75 65.916664L276.625 65.916664ZM279.375 65.916664L279.375 57.322914L280.51562 57.322914L280.51562 64.90104L284.75 64.90104L284.75 65.916664L279.375 65.916664Z" fill-rule="nonzero"/><path fill="#ea4335" d="M301.5 56.916668C301.5 56.364384 301.94772 55.916668 302.5 55.916668L312.5 55.916668C313.05228 55.916668 313.5 56.364384 313.5 56.916668L313.5 66.916664C313.5 67.46895 313.05228 67.916664 312.5 67.916664L302.5 67.916664C301.94772 67.916664 301.5 67.46895 301.5 66.916664Z" fill-rule="nonzero"/><path fill="#1a1a1a" d="M322.375 65.916664L322.375 57.322914L325.60938 57.322914Q326.59375 57.322914 327.1875 57.58854Q327.78125 57.854164 328.10938 58.40104Q328.45312 58.93229 328.45312 59.52604Q328.45312 60.072914 328.15625 60.55729Q327.85938 61.041664 327.25 61.33854Q328.03125 61.572914 328.4375 62.135414Q328.85938 62.68229 328.85938 63.43229Q328.85938 64.02604 328.60938 64.55729Q328.35938 65.072914 327.98438 65.354164Q327.60938 65.635414 327.03125 65.77604Q326.46875 65.916664 325.65625 65.916664L322.375 65.916664ZM323.51562 60.93229L325.375 60.93229Q326.125 60.93229 326.45312 60.83854Q326.89062 60.71354 327.10938 60.416664Q327.32812 60.104164 327.32812 59.65104Q327.32812 59.229164 327.125 58.90104Q326.92188 58.572914 326.53125 58.46354Q326.15625 58.33854 325.23438 58.33854L323.51562 58.33854L323.51562 60.93229ZM323.51562 64.90104L325.65625 64.90104Q326.20312 64.90104 326.42188 64.854164Q326.82812 64.791664 327.07812 64.635414Q327.34375 64.46354 327.51562 64.15104Q327.6875 63.83854 327.6875 63.43229Q327.6875 62.947914 327.4375 62.58854Q327.20312 62.229164 326.76562 62.08854Q326.32812 61.947914 325.5 61.947914L323.51562 61.947914L323.51562 64.90104ZM330.07812 61.729164Q330.07812 59.58854 331.21875 58.385414Q332.375 57.166664 334.1875 57.166664Q335.39062 57.166664 336.34375 57.74479Q337.29688 58.30729 337.79688 59.322914Q338.29688 60.33854 338.29688 61.635414Q338.29688 62.93229 337.76562 63.96354Q337.23438 64.99479 336.26562 65.52604Q335.3125 66.05729 334.1875 66.05729Q332.96875 66.05729 332.01562 65.479164Q331.0625 64.885414 330.5625 63.885414Q330.07812 62.86979 330.07812 61.729164ZM331.25 61.74479Q331.25 63.30729 332.07812 64.197914Q332.92188 65.08854 334.1875 65.08854Q335.46875 65.08854 336.29688 64.197914Q337.125 63.291664 337.125 61.61979Q337.125 60.572914 336.76562 59.791664Q336.42188 59.010414 335.73438 58.58854Q335.04688 58.15104 334.20312 58.15104Q333.0 58.15104 332.125 58.979164Q331.25 59.80729 331.25 61.74479ZM339.04688 63.15104L340.10938 63.05729Q340.1875 63.71354 340.46875 64.11979Q340.75 64.52604 341.32812 64.791664Q341.92188 65.041664 342.65625 65.041664Q343.29688 65.041664 343.79688 64.854164Q344.29688 64.65104 344.53125 64.322914Q344.78125 63.979164 344.78125 63.58854Q344.78125 63.18229 344.54688 62.885414Q344.3125 62.572914 343.78125 62.36979Q343.42188 62.229164 342.23438 61.947914Q341.0625 61.666664 340.59375 61.416664Q339.96875 61.08854 339.67188 60.61979Q339.375 60.135414 339.375 59.541664Q339.375 58.90104 339.73438 58.33854Q340.10938 57.760414 340.8125 57.479164Q341.53125 57.18229 342.39062 57.18229Q343.34375 57.18229 344.07812 57.49479Q344.8125 57.791664 345.20312 58.40104Q345.59375 58.99479 345.625 59.74479L344.53125 59.822914Q344.4375 59.010414 343.92188 58.604164Q343.42188 58.18229 342.4375 58.18229Q341.40625 58.18229 340.9375 58.55729Q340.46875 58.93229 340.46875 59.46354Q340.46875 59.93229 340.79688 60.229164Q341.125 60.52604 342.5 60.83854Q343.89062 61.15104 344.40625 61.385414Q345.15625 61.74479 345.51562 62.27604Q345.875 62.791664 345.875 63.49479Q345.875 64.18229 345.48438 64.791664Q345.09375 65.385414 344.35938 65.729164Q343.625 66.05729 342.70312 66.05729Q341.53125 66.05729 340.73438 65.729164Q339.95312 65.385414 339.5 64.697914Q339.0625 64.010414 339.04688 63.15104ZM353.9375 64.99479Q354.73438 65.541664 355.39062 65.791664L355.0625 66.58854Q354.14062 66.24479 353.21875 65.52604Q352.26562 66.05729 351.10938 66.05729Q349.9375 66.05729 348.98438 65.49479Q348.04688 64.93229 347.53125 63.916664Q347.01562 62.90104 347.01562 61.61979Q347.01562 60.354164 347.53125 59.30729Q348.04688 58.260414 349.0 57.71354Q349.95312 57.166664 351.125 57.166664Q352.3125 57.166664 353.26562 57.74479Q354.23438 58.30729 354.73438 59.322914Q355.23438 60.33854 355.23438 61.61979Q355.23438 62.68229 354.90625 63.52604Q354.59375 64.36979 353.9375 64.99479ZM351.4375 63.541664Q352.42188 63.822914 353.0625 64.36979Q354.0625 63.447914 354.0625 61.61979Q354.0625 60.572914 353.70312 59.791664Q353.34375 59.010414 352.65625 58.58854Q351.98438 58.15104 351.14062 58.15104Q349.85938 58.15104 349.01562 59.02604Q348.1875 59.885414 348.1875 61.61979Q348.1875 63.291664 349.01562 64.197914Q349.84375 65.08854 351.14062 65.08854Q351.75 65.08854 352.28125 64.854164Q351.75 64.510414 351.15625 64.36979L351.4375 63.541664ZM362.0625 57.322914L363.20312 57.322914L363.20312 62.291664Q363.20312 63.58854 362.90625 64.354164Q362.60938 65.104164 361.84375 65.58854Q361.07812 66.05729 359.84375 66.05729Q358.64062 66.05729 357.85938 65.65104Q357.09375 65.229164 356.76562 64.447914Q356.4375 63.65104 356.4375 62.291664L356.4375 57.322914L357.57812 57.322914L357.57812 62.27604Q357.57812 63.40104 357.78125 63.93229Q358.0 64.46354 358.5 64.760414Q359.01562 65.041664 359.75 65.041664Q361.0 65.041664 361.53125 64.479164Q362.0625 63.90104 362.0625 62.27604L362.0625 57.322914ZM365.45312 65.916664L365.45312 57.322914L371.65625 57.322914L371.65625 58.33854L366.59375 58.33854L366.59375 60.96354L371.34375 60.96354L371.34375 61.979164L366.59375 61.979164L366.59375 64.90104L371.85938 64.90104L371.85938 65.916664L365.45312 65.916664Z" fill-rule="nonzero"/><path fill="#757575" d="M26.64375 33.753124L28.3625 33.971874Q28.08125 35.76875 26.909374 36.784374Q25.753124 37.784374 24.05 37.784374Q21.925 37.784374 20.628124 36.39375Q19.33125 35.003124 19.33125 32.409374Q19.33125 30.721874 19.878124 29.471874Q20.440624 28.20625 21.58125 27.58125Q22.721874 26.940624 24.065624 26.940624Q25.753124 26.940624 26.815624 27.8Q27.89375 28.659374 28.20625 30.221874L26.4875 30.4875Q26.253124 29.440624 25.628124 28.925Q25.003124 28.39375 24.128124 28.39375Q22.8 28.39375 21.971874 29.346874Q21.14375 30.3 21.14375 32.346874Q21.14375 34.440624 21.940624 35.39375Q22.7375 36.33125 24.034374 36.33125Q25.065624 36.33125 25.753124 35.70625Q26.45625 35.065624 26.64375 33.753124ZM29.221874 32.3625Q29.221874 29.4875 30.815624 28.096874Q32.159374 26.940624 34.08125 26.940624Q36.221874 26.940624 37.565624 28.346874Q38.925 29.753124 38.925 32.221874Q38.925 34.221874 38.33125 35.378124Q37.7375 36.51875 36.58125 37.159374Q35.440624 37.784374 34.08125 37.784374Q31.89375 37.784374 30.55 36.39375Q29.221874 34.9875 29.221874 32.3625ZM31.01875 32.3625Q31.01875 34.3625 31.878124 35.346874Q32.753124 36.33125 34.08125 36.33125Q35.39375 36.33125 36.253124 35.346874Q37.128124 34.346874 37.128124 32.3Q37.128124 30.378124 36.253124 29.39375Q35.378124 28.39375 34.08125 28.39375Q32.753124 28.39375 31.878124 29.39375Q31.01875 30.378124 31.01875 32.3625ZM40.8625 37.55L40.8625 27.175L42.440624 27.175L42.440624 28.628124Q42.925 27.878124 43.7375 27.409374Q44.55 26.940624 45.58125 26.940624Q46.7375 26.940624 47.471874 27.425Q48.20625 27.89375 48.51875 28.753124Q49.753124 26.940624 51.721874 26.940624Q53.26875 26.940624 54.096874 27.8Q54.925 28.659374 54.925 30.425L54.925 37.55L53.175 37.55L53.175 31.01875Q53.175 29.95625 53.003124 29.503124Q52.83125 29.034374 52.378124 28.753124Q51.940624 28.471874 51.33125 28.471874Q50.2375 28.471874 49.503124 29.20625Q48.784374 29.925 48.784374 31.51875L48.784374 37.55L47.034374 37.55L47.034374 30.815624Q47.034374 29.64375 46.596874 29.065624Q46.175 28.471874 45.190624 28.471874Q44.45625 28.471874 43.815624 28.8625Q43.190624 29.253124 42.909374 30.003124Q42.628124 30.753124 42.628124 32.175L42.628124 37.55L40.8625 37.55ZM57.8625 41.51875L57.8625 27.175L59.471874 27.175L59.471874 28.51875Q60.034374 27.7375 60.7375 27.346874Q61.45625 26.940624 62.471874 26.940624Q63.8 26.940624 64.81563 27.628124Q65.83125 28.315624 66.34688 29.565624Q66.87813 30.8 66.87813 32.284374Q66.87813 33.878124 66.3 35.159374Q65.7375 36.425 64.64375 37.1125Q63.55 37.784374 62.346874 37.784374Q61.471874 37.784374 60.76875 37.409374Q60.08125 37.034374 59.628124 36.471874L59.628124 41.51875L57.8625 41.51875ZM59.45625 32.425Q59.45625 34.425 60.26875 35.378124Q61.08125 36.33125 62.2375 36.33125Q63.409374 36.33125 64.2375 35.346874Q65.08125 34.3625 65.08125 32.26875Q65.08125 30.3 64.25313 29.315624Q63.440624 28.315624 62.315624 28.315624Q61.190624 28.315624 60.315624 29.378124Q59.45625 30.425 59.45625 32.425ZM75.64375 36.26875Q74.65938 37.096874 73.75313 37.440624Q72.84688 37.784374 71.81563 37.784374Q70.1125 37.784374 69.19063 36.95625Q68.26875 36.1125 68.26875 34.815624Q68.26875 34.05 68.6125 33.425Q68.97188 32.8 69.53438 32.425Q70.09688 32.034374 70.8 31.83125Q71.31563 31.70625 72.3625 31.565624Q74.4875 31.315624 75.4875 30.971874Q75.50313 30.6125 75.50313 30.503124Q75.50313 29.440624 75.00313 28.9875Q74.33125 28.39375 73.00313 28.39375Q71.75313 28.39375 71.15938 28.83125Q70.58125 29.26875 70.3 30.378124L68.58125 30.14375Q68.81563 29.034374 69.34688 28.3625Q69.87813 27.675 70.89375 27.315624Q71.90938 26.940624 73.25313 26.940624Q74.58125 26.940624 75.40938 27.253124Q76.2375 27.565624 76.62813 28.05Q77.01875 28.51875 77.175 29.2375Q77.26875 29.690624 77.26875 30.8625L77.26875 33.20625Q77.26875 35.659374 77.37813 36.315624Q77.4875 36.95625 77.83125 37.55L75.9875 37.55Q75.72188 37.003124 75.64375 36.26875ZM75.4875 32.346874Q74.53438 32.7375 72.6125 33.003124Q71.53438 33.159374 71.08125 33.3625Q70.64375 33.55 70.39375 33.925Q70.14375 34.3 70.14375 34.76875Q70.14375 35.471874 70.675 35.940624Q71.20625 36.409374 72.2375 36.409374Q73.25313 36.409374 74.03438 35.971874Q74.83125 35.51875 75.20625 34.753124Q75.4875 34.14375 75.4875 32.9875L75.4875 32.346874ZM79.84688 37.55L79.84688 27.175L81.425 27.175L81.425 28.753124Q82.03438 27.64375 82.55 27.3Q83.06563 26.940624 83.675 26.940624Q84.56563 26.940624 85.4875 27.503124L84.87813 29.14375Q84.2375 28.753124 83.59688 28.753124Q83.01875 28.753124 82.55 29.1125Q82.09688 29.45625 81.89375 30.065624Q81.6125 31.003124 81.6125 32.1125L81.6125 37.55L79.84688 37.55ZM93.64375 36.26875Q92.65938 37.096874 91.75313 37.440624Q90.84688 37.784374 89.81563 37.784374Q88.1125 37.784374 87.19063 36.95625Q86.26875 36.1125 86.26875 34.815624Q86.26875 34.05 86.6125 33.425Q86.97188 32.8 87.53438 32.425Q88.09688 32.034374 88.8 31.83125Q89.31563 31.70625 90.3625 31.565624Q92.4875 31.315624 93.4875 30.971874Q93.50313 30.6125 93.50313 30.503124Q93.50313 29.440624 93.00313 28.9875Q92.33125 28.39375 91.00313 28.39375Q89.75313 28.39375 89.15938 28.83125Q88.58125 29.26875 88.3 30.378124L86.58125 30.14375Q86.81563 29.034374 87.34688 28.3625Q87.87813 27.675 88.89375 27.315624Q89.90938 26.940624 91.25313 26.940624Q92.58125 26.940624 93.40938 27.253124Q94.2375 27.565624 94.62813 28.05Q95.01875 28.51875 95.175 29.2375Q95.26875 29.690624 95.26875 30.8625L95.26875 33.20625Q95.26875 35.659374 95.37813 36.315624Q95.4875 36.95625 95.83125 37.55L93.9875 37.55Q93.72188 37.003124 93.64375 36.26875ZM93.4875 32.346874Q92.53438 32.7375 90.6125 33.003124Q89.53438 33.159374 89.08125 33.3625Q88.64375 33.55 88.39375 33.925Q88.14375 34.3 88.14375 34.76875Q88.14375 35.471874 88.675 35.940624Q89.20625 36.409374 90.2375 36.409374Q91.25313 36.409374 92.03438 35.971874Q92.83125 35.51875 93.20625 34.753124Q93.4875 34.14375 93.4875 32.9875L93.4875 32.346874ZM101.70625 35.971874L101.95625 37.534374Q101.22188 37.690624 100.62813 37.690624Q99.675 37.690624 99.14375 37.39375Q98.62813 37.08125 98.40938 36.596874Q98.19063 36.096874 98.19063 34.51875L98.19063 28.55L96.90938 28.55L96.90938 27.175L98.19063 27.175L98.19063 24.6125L99.94063 23.55L99.94063 27.175L101.70625 27.175L101.70625 28.55L99.94063 28.55L99.94063 34.6125Q99.94063 35.3625 100.03438 35.58125Q100.12813 35.784374 100.33125 35.925Q100.55 36.05 100.94063 36.05Q101.22188 36.05 101.70625 35.971874ZM103.87813 25.253124L103.87813 23.2375L105.64375 23.2375L105.64375 25.253124L103.87813 25.253124ZM103.87813 37.55L103.87813 27.175L105.64375 27.175L105.64375 37.55L103.87813 37.55ZM110.75313 37.55L106.8 27.175L108.65938 27.175L110.89375 33.39375Q111.25313 34.39375 111.55 35.471874Q111.78438 34.659374 112.20625 33.503124L114.50313 27.175L116.31563 27.175L112.39375 37.55L110.75313 37.55ZM117.22188 32.3625Q117.22188 29.4875 118.81563 28.096874Q120.15938 26.940624 122.08125 26.940624Q124.22188 26.940624 125.56563 28.346874Q126.925 29.753124 126.925 32.221874Q126.925 34.221874 126.33125 35.378124Q125.7375 36.51875 124.58125 37.159374Q123.44063 37.784374 122.08125 37.784374Q119.89375 37.784374 118.55 36.39375Q117.22188 34.9875 117.22188 32.3625ZM119.01875 32.3625Q119.01875 34.3625 119.87813 35.346874Q120.75313 36.33125 122.08125 36.33125Q123.39375 36.33125 124.25313 35.346874Q125.12813 34.346874 125.12813 32.3Q125.12813 30.378124 124.25313 29.39375Q123.37813 28.39375 122.08125 28.39375Q120.75313 28.39375 119.87813 29.39375Q119.01875 30.378124 119.01875 32.3625ZM128.15938 34.45625L129.90938 34.175Q130.05 35.221874 130.72188 35.784374Q131.39375 36.33125 132.59688 36.33125Q133.8 36.33125 134.37813 35.846874Q134.97188 35.346874 134.97188 34.690624Q134.97188 34.096874 134.45625 33.753124Q134.09688 33.51875 132.65938 33.159374Q130.72188 32.659374 129.97188 32.315624Q129.2375 31.95625 128.84688 31.33125Q128.45625 30.690624 128.45625 29.925Q128.45625 29.2375 128.76875 28.64375Q129.09688 28.05 129.64375 27.659374Q130.05 27.3625 130.75313 27.159374Q131.47188 26.940624 132.28438 26.940624Q133.50313 26.940624 134.425 27.3Q135.34688 27.64375 135.78438 28.253124Q136.22188 28.846874 136.39375 29.846874L134.675 30.08125Q134.55 29.284374 133.9875 28.846874Q133.425 28.39375 132.40938 28.39375Q131.19063 28.39375 130.675 28.8Q130.15938 29.190624 130.15938 29.721874Q130.15938 30.065624 130.37813 30.346874Q130.58125 30.628124 131.05 30.815624Q131.31563 30.909374 132.59688 31.253124Q134.47188 31.753124 135.20625 32.08125Q135.94063 32.39375 136.3625 33.003124Q136.78438 33.596874 136.78438 34.503124Q136.78438 35.378124 136.26875 36.159374Q135.75313 36.940624 134.78438 37.3625Q133.81563 37.784374 132.59688 37.784374Q130.58125 37.784374 129.51875 36.940624Q128.45625 36.096874 128.15938 34.45625ZM151.97188 34.20625L153.78438 34.440624Q153.3625 36.01875 152.19063 36.909374Q151.03438 37.784374 149.22188 37.784374Q146.95625 37.784374 145.6125 36.39375Q144.28438 34.9875 144.28438 32.45625Q144.28438 29.83125 145.62813 28.39375Q146.97188 26.940624 149.12813 26.940624Q151.20625 26.940624 152.51875 28.3625Q153.84688 29.76875 153.84688 32.346874Q153.84688 32.503124 153.83125 32.815624L146.09688 32.815624Q146.19063 34.51875 147.06563 35.425Q147.94063 36.33125 149.2375 36.33125Q150.20625 36.33125 150.87813 35.83125Q151.56563 35.315624 151.97188 34.20625ZM146.19063 31.3625L151.9875 31.3625Q151.87813 30.065624 151.33125 29.409374Q150.4875 28.39375 149.14375 28.39375Q147.94063 28.39375 147.1125 29.20625Q146.28438 30.003124 146.19063 31.3625ZM155.8625 37.55L155.8625 27.175L157.45625 27.175L157.45625 28.659374Q158.59688 26.940624 160.75313 26.940624Q161.69063 26.940624 162.47188 27.284374Q163.26875 27.6125 163.65938 28.159374Q164.05 28.70625 164.20625 29.45625Q164.3 29.95625 164.3 31.175L164.3 37.55L162.53438 37.55L162.53438 31.2375Q162.53438 30.159374 162.33125 29.628124Q162.12813 29.096874 161.59688 28.784374Q161.08125 28.471874 160.37813 28.471874Q159.25313 28.471874 158.44063 29.190624Q157.62813 29.89375 157.62813 31.878124L157.62813 37.55L155.8625 37.55ZM170.70625 35.971874L170.95625 37.534374Q170.22188 37.690624 169.62813 37.690624Q168.675 37.690624 168.14375 37.39375Q167.62813 37.08125 167.40938 36.596874Q167.19063 36.096874 167.19063 34.51875L167.19063 28.55L165.90938 28.55L165.90938 27.175L167.19063 27.175L167.19063 24.6125L168.94063 23.55L168.94063 27.175L170.70625 27.175L170.70625 28.55L168.94063 28.55L168.94063 34.6125Q168.94063 35.3625 169.03438 35.58125Q169.12813 35.784374 169.33125 35.925Q169.55 36.05 169.94063 36.05Q170.22188 36.05 170.70625 35.971874ZM172.84688 37.55L172.84688 27.175L174.425 27.175L174.425 28.753124Q175.03438 27.64375 175.55 27.3Q176.06563 26.940624 176.675 26.940624Q177.56563 26.940624 178.4875 27.503124L177.87813 29.14375Q177.2375 28.753124 176.59688 28.753124Q176.01875 28.753124 175.55 29.1125Q175.09688 29.45625 174.89375 30.065624Q174.6125 31.003124 174.6125 32.1125L174.6125 37.55L172.84688 37.55ZM186.97188 34.20625L188.78438 34.440624Q188.3625 36.01875 187.19063 36.909374Q186.03438 37.784374 184.22188 37.784374Q181.95625 37.784374 180.6125 36.39375Q179.28438 34.9875 179.28438 32.45625Q179.28438 29.83125 180.62813 28.39375Q181.97188 26.940624 184.12813 26.940624Q186.20625 26.940624 187.51875 28.3625Q188.84688 29.76875 188.84688 32.346874Q188.84688 32.503124 188.83125 32.815624L181.09688 32.815624Q181.19063 34.51875 182.06563 35.425Q182.94063 36.33125 184.2375 36.33125Q185.20625 36.33125 185.87813 35.83125Q186.56563 35.315624 186.97188 34.20625ZM181.19063 31.3625L186.9875 31.3625Q186.87813 30.065624 186.33125 29.409374Q185.4875 28.39375 184.14375 28.39375Q182.94063 28.39375 182.1125 29.20625Q181.28438 30.003124 181.19063 31.3625ZM203.64375 36.26875Q202.65938 37.096874 201.75313 37.440624Q200.84688 37.784374 199.81563 37.784374Q198.1125 37.784374 197.19063 36.95625Q196.26875 36.1125 196.26875 34.815624Q196.26875 34.05 196.6125 33.425Q196.97188 32.8 197.53438 32.425Q198.09688 32.034374 198.8 31.83125Q199.31563 31.70625 200.3625 31.565624Q202.4875 31.315624 203.4875 30.971874Q203.50313 30.6125 203.50313 30.503124Q203.50313 29.440624 203.00313 28.9875Q202.33125 28.39375 201.00313 28.39375Q199.75313 28.39375 199.15938 28.83125Q198.58125 29.26875 198.3 30.378124L196.58125 30.14375Q196.81563 29.034374 197.34688 28.3625Q197.87813 27.675 198.89375 27.315624Q199.90938 26.940624 201.25313 26.940624Q202.58125 26.940624 203.40938 27.253124Q204.2375 27.565624 204.62813 28.05Q205.01875 28.51875 205.175 29.2375Q205.26875 29.690624 205.26875 30.8625L205.26875 33.20625Q205.26875 35.659374 205.37813 36.315624Q205.4875 36.95625 205.83125 37.55L203.9875 37.55Q203.72188 37.003124 203.64375 36.26875ZM203.4875 32.346874Q202.53438 32.7375 200.6125 33.003124Q199.53438 33.159374 199.08125 33.3625Q198.64375 33.55 198.39375 33.925Q198.14375 34.3 198.14375 34.76875Q198.14375 35.471874 198.675 35.940624Q199.20625 36.409374 200.2375 36.409374Q201.25313 36.409374 202.03438 35.971874Q202.83125 35.51875 203.20625 34.753124Q203.4875 34.14375 203.4875 32.9875L203.4875 32.346874ZM199.72188 25.89375L201.01875 23.159374L203.31563 23.159374L201.175 25.89375L199.72188 25.89375ZM207.84688 37.55L207.84688 27.175L209.425 27.175L209.425 28.753124Q210.03438 27.64375 210.55 27.3Q211.06563 26.940624 211.675 26.940624Q212.56563 26.940624 213.4875 27.503124L212.87813 29.14375Q212.2375 28.753124 211.59688 28.753124Q211.01875 28.753124 210.55 29.1125Q210.09688 29.45625 209.89375 30.065624Q209.6125 31.003124 209.6125 32.1125L209.6125 37.55L207.84688 37.55ZM217.75313 37.55L213.8 27.175L215.65938 27.175L217.89375 33.39375Q218.25313 34.39375 218.55 35.471874Q218.78438 34.659374 219.20625 33.503124L221.50313 27.175L223.31563 27.175L219.39375 37.55L217.75313 37.55ZM224.22188 32.3625Q224.22188 29.4875 225.81563 28.096874Q227.15938 26.940624 229.08125 26.940624Q231.22188 26.940624 232.56563 28.346874Q233.925 29.753124 233.925 32.221874Q233.925 34.221874 233.33125 35.378124Q232.7375 36.51875 231.58125 37.159374Q230.44063 37.784374 229.08125 37.784374Q226.89375 37.784374 225.55 36.39375Q224.22188 34.9875 224.22188 32.3625ZM226.01875 32.3625Q226.01875 34.3625 226.87813 35.346874Q227.75313 36.33125 229.08125 36.33125Q230.39375 36.33125 231.25313 35.346874Q232.12813 34.346874 232.12813 32.3Q232.12813 30.378124 231.25313 29.39375Q230.37813 28.39375 229.08125 28.39375Q227.75313 28.39375 226.87813 29.39375Q226.01875 30.378124 226.01875 32.3625ZM235.84688 37.55L235.84688 27.175L237.425 27.175L237.425 28.753124Q238.03438 27.64375 238.55 27.3Q239.06563 26.940624 239.675 26.940624Q240.56563 26.940624 241.4875 27.503124L240.87813 29.14375Q240.2375 28.753124 239.59688 28.753124Q239.01875 28.753124 238.55 29.1125Q238.09688 29.45625 237.89375 30.065624Q237.6125 31.003124 237.6125 32.1125L237.6125 37.55L235.84688 37.55ZM249.97188 34.20625L251.78438 34.440624Q251.3625 36.01875 250.19063 36.909374Q249.03438 37.784374 247.22188 37.784374Q244.95625 37.784374 243.6125 36.39375Q242.28438 34.9875 242.28438 32.45625Q242.28438 29.83125 243.62813 28.39375Q244.97188 26.940624 247.12813 26.940624Q249.20625 26.940624 250.51875 28.3625Q251.84688 29.76875 251.84688 32.346874Q251.84688 32.503124 251.83125 32.815624L244.09688 32.815624Q244.19063 34.51875 245.06563 35.425Q245.94063 36.33125 247.2375 36.33125Q248.20625 36.33125 248.87813 35.83125Q249.56563 35.315624 249.97188 34.20625ZM244.19063 31.3625L249.9875 31.3625Q249.87813 30.065624 249.33125 29.409374Q248.4875 28.39375 247.14375 28.39375Q245.94063 28.39375 245.1125 29.20625Q244.28438 30.003124 244.19063 31.3625ZM253.15938 34.45625L254.90938 34.175Q255.05 35.221874 255.72188 35.784374Q256.39374 36.33125 257.59686 36.33125Q258.8 36.33125 259.3781 35.846874Q259.97186 35.346874 259.97186 34.690624Q259.97186 34.096874 259.45624 33.753124Q259.09686 33.51875 257.65936 33.159374Q255.72188 32.659374 254.97188 32.315624Q254.2375 31.95625 253.84688 31.33125Q253.45625 30.690624 253.45625 29.925Q253.45625 29.2375 253.76875 28.64375Q254.09688 28.05 254.64375 27.659374Q255.05 27.3625 255.75313 27.159374Q256.47186 26.940624 257.28436 26.940624Q258.5031 26.940624 259.425 27.3Q260.34686 27.64375 260.78436 28.253124Q261.22186 28.846874 261.39374 29.846874L259.675 30.08125Q259.55 29.284374 258.9875 28.846874Q258.425 28.39375 257.40936 28.39375Q256.1906 28.39375 255.675 28.8Q255.15938 29.190624 255.15938 29.721874Q255.15938 30.065624 255.37813 30.346874Q255.58125 30.628124 256.05 30.815624Q256.3156 30.909374 257.59686 31.253124Q259.47186 31.753124 260.20624 32.08125Q260.9406 32.39375 261.3625 33.003124Q261.78436 33.596874 261.78436 34.503124Q261.78436 35.378124 261.26874 36.159374Q260.7531 36.940624 259.78436 37.3625Q258.8156 37.784374 257.59686 37.784374Q255.58125 37.784374 254.51875 36.940624Q253.45625 36.096874 253.15938 34.45625ZM276.97186 34.20625L278.78436 34.440624Q278.3625 36.01875 277.1906 36.909374Q276.03436 37.784374 274.22186 37.784374Q271.95624 37.784374 270.6125 36.39375Q269.28436 34.9875 269.28436 32.45625Q269.28436 29.83125 270.6281 28.39375Q271.97186 26.940624 274.1281 26.940624Q276.20624 26.940624 277.51874 28.3625Q278.84686 29.76875 278.84686 32.346874Q278.84686 32.503124 278.83124 32.815624L271.09686 32.815624Q271.1906 34.51875 272.0656 35.425Q272.9406 36.33125 274.2375 36.33125Q275.20624 36.33125 275.8781 35.83125Q276.5656 35.315624 276.97186 34.20625ZM271.1906 31.3625L276.9875 31.3625Q276.8781 30.065624 276.33124 29.409374Q275.4875 28.39375 274.14374 28.39375Q272.9406 28.39375 272.1125 29.20625Q271.28436 30.003124 271.1906 31.3625ZM279.6906 37.55L283.4875 32.159374L279.9875 27.175L282.175 27.175L283.76874 29.6125Q284.22186 30.3 284.4875 30.76875Q284.925 30.128124 285.28436 29.628124L287.03436 27.175L289.1281 27.175L285.55 32.065624L289.40936 37.55L287.2531 37.55L285.1125 34.33125L284.55 33.45625L281.83124 37.55L279.6906 37.55ZM297.64374 36.26875Q296.65936 37.096874 295.7531 37.440624Q294.84686 37.784374 293.8156 37.784374Q292.1125 37.784374 291.1906 36.95625Q290.26874 36.1125 290.26874 34.815624Q290.26874 34.05 290.6125 33.425Q290.97186 32.8 291.53436 32.425Q292.09686 32.034374 292.8 31.83125Q293.3156 31.70625 294.3625 31.565624Q296.4875 31.315624 297.4875 30.971874Q297.5031 30.6125 297.5031 30.503124Q297.5031 29.440624 297.0031 28.9875Q296.33124 28.39375 295.0031 28.39375Q293.7531 28.39375 293.15936 28.83125Q292.58124 29.26875 292.3 30.378124L290.58124 30.14375Q290.8156 29.034374 291.34686 28.3625Q291.8781 27.675 292.89374 27.315624Q293.90936 26.940624 295.2531 26.940624Q296.58124 26.940624 297.40936 27.253124Q298.2375 27.565624 298.6281 28.05Q299.01874 28.51875 299.175 29.2375Q299.26874 29.690624 299.26874 30.8625L299.26874 33.20625Q299.26874 35.659374 299.3781 36.315624Q299.4875 36.95625 299.83124 37.55L297.9875 37.55Q297.72186 37.003124 297.64374 36.26875ZM297.4875 32.346874Q296.53436 32.7375 294.6125 33.003124Q293.53436 33.159374 293.08124 33.3625Q292.64374 33.55 292.39374 33.925Q292.14374 34.3 292.14374 34.76875Q292.14374 35.471874 292.675 35.940624Q293.20624 36.409374 294.2375 36.409374Q295.2531 36.409374 296.03436 35.971874Q296.83124 35.51875 297.20624 34.753124Q297.4875 34.14375 297.4875 32.9875L297.4875 32.346874ZM305.70624 35.971874L305.95624 37.534374Q305.22186 37.690624 304.6281 37.690624Q303.675 37.690624 303.14374 37.39375Q302.6281 37.08125 302.40936 36.596874Q302.1906 36.096874 302.1906 34.51875L302.1906 28.55L300.90936 28.55L300.90936 27.175L302.1906 27.175L302.1906 24.6125L303.9406 23.55L303.9406 27.175L305.70624 27.175L305.70624 28.55L303.9406 28.55L303.9406 34.6125Q303.9406 35.3625 304.03436 35.58125Q304.1281 35.784374 304.33124 35.925Q304.55 36.05 304.9406 36.05Q305.22186 36.05 305.70624 35.971874ZM314.64374 36.26875Q313.65936 37.096874 312.7531 37.440624Q311.84686 37.784374 310.8156 37.784374Q309.1125 37.784374 308.1906 36.95625Q307.26874 36.1125 307.26874 34.815624Q307.26874 34.05 307.6125 33.425Q307.97186 32.8 308.53436 32.425Q309.09686 32.034374 309.8 31.83125Q310.3156 31.70625 311.3625 31.565624Q313.4875 31.315624 314.4875 30.971874Q314.5031 30.6125 314.5031 30.503124Q314.5031 29.440624 314.0031 28.9875Q313.33124 28.39375 312.0031 28.39375Q310.7531 28.39375 310.15936 28.83125Q309.58124 29.26875 309.3 30.378124L307.58124 30.14375Q307.8156 29.034374 308.34686 28.3625Q308.8781 27.675 309.89374 27.315624Q310.90936 26.940624 312.2531 26.940624Q313.58124 26.940624 314.40936 27.253124Q315.2375 27.565624 315.6281 28.05Q316.01874 28.51875 316.175 29.2375Q316.26874 29.690624 316.26874 30.8625L316.26874 33.20625Q316.26874 35.659374 316.3781 36.315624Q316.4875 36.95625 316.83124 37.55L314.9875 37.55Q314.72186 37.003124 314.64374 36.26875ZM314.4875 32.346874Q313.53436 32.7375 311.6125 33.003124Q310.53436 33.159374 310.08124 33.3625Q309.64374 33.55 309.39374 33.925Q309.14374 34.3 309.14374 34.76875Q309.14374 35.471874 309.675 35.940624Q310.20624 36.409374 311.2375 36.409374Q312.2531 36.409374 313.03436 35.971874Q313.83124 35.51875 314.20624 34.753124Q314.4875 34.14375 314.4875 32.9875L314.4875 32.346874ZM318.15936 34.45625L319.90936 34.175Q320.05 35.221874 320.72186 35.784374Q321.39374 36.33125 322.59686 36.33125Q323.8 36.33125 324.3781 35.846874Q324.97186 35.346874 324.97186 34.690624Q324.97186 34.096874 324.45624 33.753124Q324.09686 33.51875 322.65936 33.159374Q320.72186 32.659374 319.97186 32.315624Q319.2375 31.95625 318.84686 31.33125Q318.45624 30.690624 318.45624 29.925Q318.45624 29.2375 318.76874 28.64375Q319.09686 28.05 319.64374 27.659374Q320.05 27.3625 320.7531 27.159374Q321.47186 26.940624 322.28436 26.940624Q323.5031 26.940624 324.425 27.3Q325.34686 27.64375 325.78436 28.253124Q326.22186 28.846874 326.39374 29.846874L324.675 30.08125Q324.55 29.284374 323.9875 28.846874Q323.425 28.39375 322.40936 28.39375Q321.1906 28.39375 320.675 28.8Q320.15936 29.190624 320.15936 29.721874Q320.15936 30.065624 320.3781 30.346874Q320.58124 30.628124 321.05 30.815624Q321.3156 30.909374 322.59686 31.253124Q324.47186 31.753124 325.20624 32.08125Q325.9406 32.39375 326.3625 33.003124Q326.78436 33.596874 326.78436 34.503124Q326.78436 35.378124 326.26874 36.159374Q325.7531 36.940624 324.78436 37.3625Q323.8156 37.784374 322.59686 37.784374Q320.58124 37.784374 319.51874 36.940624Q318.45624 36.096874 318.15936 34.45625Z" fill-rule="nonzero"/></svg>