<svg xmlns="http://www.w3.org/2000/svg" xmlns:xlink="http://www.w3.org/1999/xlink" xmlns:lucid="lucid" width="777" height="467"><g transform="translate(-273 -141)" lucid:page-tab-id="42wa2BPW1M9O"><path d="M0 0h1760v1360H0z" fill="#fff"/><path d="M400 208c0-4.42 3.58-8 8-8h484c4.42 0 8 3.58 8 8v284c0 4.42-3.58 8-8 8H408c-4.42 0-8-3.58-8-8z" stroke="#333" fill="#fff"/><path d="M460 318c0-4.42 3.58-8 8-8h144c4.42 0 8 3.58 8 8v64c0 4.42-3.58 8-8 8H468c-4.42 0-8-3.58-8-8z" stroke="#333" fill="#fff"/><use xlink:href="#a" transform="matrix(1,0,0,1,460,310) translate(38.05499999999999 31.9)"/><use xlink:href="#b" transform="matrix(1,0,0,1,460,310) translate(101.95500000000001 31.9)"/><use xlink:href="#c" transform="matrix(1,0,0,1,460,310) translate(35.55499999999999 53.5)"/><path d="M680 318c0-4.42 3.58-8 8-8h144c4.42 0 8 3.58 8 8v64c0 4.42-3.58 8-8 8H688c-4.42 0-8-3.58-8-8z" stroke="#333" fill="#fff"/><use xlink:href="#d" transform="matrix(1,0,0,1,680,310) translate(28.62999999999999 44.4)"/><path d="M680 508c0-4.42 3.58-8 8-8h144c4.42 0 8 3.58 8 8v64c0 4.42-3.58 8-8 8H688c-4.42 0-8-3.58-8-8z" stroke="#333" fill="#fff"/><use xlink:href="#e" transform="matrix(1,0,0,1,680,500) translate(38.58 44.4)"/><path d="M520 148c0-4.42 3.58-8 8-8h224c4.42 0 8 3.58 8 8v44c0 4.42-3.58 8-8 8H528c-4.42 0-8-3.58-8-8z" stroke="#000" stroke-opacity="0" fill="#fff" fill-opacity="0"/><use xlink:href="#f" transform="matrix(1,0,0,1,525,145) translate(52.074999999999996 30.025)"/><use xlink:href="#g" transform="matrix(1,0,0,1,525,145) translate(125.025 30.025)"/><path d="M260 328c0-4.42 3.58-8 8-8h64c4.42 0 8 3.58 8 8v44c0 4.42-3.58 8-8 8h-64c-4.42 0-8-3.58-8-8z" stroke="#000" stroke-opacity="0" fill="#fff" fill-opacity="0"/><use xlink:href="#h" transform="matrix(1,0,0,1,265,325) translate(29 30.025)"/><path d="M340.5 350h102.62" stroke="#333" fill="none"/><path d="M340.5 350.5h-.5v-1h.5z" fill="#333"/><path d="M457.88 350l-14.26 4.64v-9.28z" stroke="#333" fill="#333"/><path d="M621 350h42.12" stroke="#333" fill="none"/><path d="M621 350.5h-.5v-1h.5z" fill="#333"/><path d="M677.88 350l-14.26 4.64v-9.28z" stroke="#333" fill="#333"/><path d="M760 391v92.12" stroke="#333" fill="none"/><path d="M760.5 391h-1v-.5h1z" fill="#333"/><path d="M760 497.88l-4.64-14.26h9.28z" stroke="#333" fill="#333"/><path d="M841 350h142.62" stroke="#333" fill="none"/><path d="M841 350.5h-.5v-1h.5z" fill="#333"/><path d="M998.38 350l-14.26 4.64v-9.28z" stroke="#333" fill="#333"/><path d="M1000 328c0-4.42 3.58-8 8-8h24c4.42 0 8 3.58 8 8v44c0 4.42-3.58 8-8 8h-24c-4.42 0-8-3.58-8-8z" stroke="#000" stroke-opacity="0" fill="#fff" fill-opacity="0"/><g><use xlink:href="#i" transform="matrix(1,0,0,1,1005,325) translate(8.57037037037037 27.433333333333337)"/></g><defs><path fill="#333" d="M240 0l2-218c-23 76-54 145-80 218h-23L58-218 59 0H30v-248h44l77 211c21-75 51-140 76-211h43V0h-30" id="j"/><path fill="#333" d="M100-194c62-1 85 37 85 99 1 63-27 99-86 99S16-35 15-95c0-66 28-99 85-99zM99-20c44 1 53-31 53-75 0-43-8-75-51-75s-53 32-53 75 10 74 51 75" id="k"/><path fill="#333" d="M85-194c31 0 48 13 60 33l-1-100h32l1 261h-30c-2-10 0-23-3-31C134-8 116 4 85 4 32 4 16-35 15-94c0-66 23-100 70-100zm9 24c-40 0-46 34-46 75 0 40 6 74 45 74 42 0 51-32 51-76 0-42-9-74-50-73" id="l"/><path fill="#333" d="M100-194c63 0 86 42 84 106H49c0 40 14 67 53 68 26 1 43-12 49-29l28 8c-11 28-37 45-77 45C44 4 14-33 15-96c1-61 26-98 85-98zm52 81c6-60-76-77-97-28-3 7-6 17-6 28h103" id="m"/><path fill="#333" d="M24 0v-261h32V0H24" id="n"/><g id="a"><use transform="matrix(0.05,0,0,0.05,0,0)" xlink:href="#j"/><use transform="matrix(0.05,0,0,0.05,14.950000000000001,0)" xlink:href="#k"/><use transform="matrix(0.05,0,0,0.05,24.950000000000003,0)" xlink:href="#l"/><use transform="matrix(0.05,0,0,0.05,34.95,0)" xlink:href="#m"/><use transform="matrix(0.05,0,0,0.05,44.95,0)" xlink:href="#n"/><use transform="matrix(0.05,0,0,0.05,48.900000000000006,0)" xlink:href="#k"/></g><g id="b"><use transform="matrix(0.05,0,0,0.05,0,0)" xlink:href="#l"/><use transform="matrix(0.05,0,0,0.05,10,0)" xlink:href="#m"/></g><path fill="#333" d="M30 0v-248h33v221h125V0H30" id="o"/><path fill="#333" d="M24-231v-30h32v30H24zM24 0v-190h32V0H24" id="p"/><path fill="#333" d="M117-194c89-4 53 116 60 194h-32v-121c0-31-8-49-39-48C34-167 62-67 57 0H25l-1-190h30c1 10-1 24 2 32 11-22 29-35 61-36" id="q"/><path fill="#333" d="M177-190C167-65 218 103 67 71c-23-6-38-20-44-43l32-5c15 47 100 32 89-28v-30C133-14 115 1 83 1 29 1 15-40 15-95c0-56 16-97 71-98 29-1 48 16 59 35 1-10 0-23 2-32h30zM94-22c36 0 50-32 50-73 0-42-14-75-50-75-39 0-46 34-46 75s6 73 46 73" id="r"/><path fill="#333" d="M84 4C-5 8 30-112 23-190h32v120c0 31 7 50 39 49 72-2 45-101 50-169h31l1 190h-30c-1-10 1-25-2-33-11 22-28 36-60 37" id="s"/><path fill="#333" d="M141-36C126-15 110 5 73 4 37 3 15-17 15-53c-1-64 63-63 125-63 3-35-9-54-41-54-24 1-41 7-42 31l-33-3c5-37 33-52 76-52 45 0 72 20 72 64v82c-1 20 7 32 28 27v20c-31 9-61-2-59-35zM48-53c0 20 12 33 32 33 41-3 63-29 60-74-43 2-92-5-92 41" id="t"/><path fill="#333" d="M210-169c-67 3-38 105-44 169h-31v-121c0-29-5-50-35-48C34-165 62-65 56 0H25l-1-190h30c1 10-1 24 2 32 10-44 99-50 107 0 11-21 27-35 58-36 85-2 47 119 55 194h-31v-121c0-29-5-49-35-48" id="u"/><g id="c"><use transform="matrix(0.05,0,0,0.05,0,0)" xlink:href="#o"/><use transform="matrix(0.05,0,0,0.05,10,0)" xlink:href="#p"/><use transform="matrix(0.05,0,0,0.05,13.949999999999998,0)" xlink:href="#q"/><use transform="matrix(0.05,0,0,0.05,23.95,0)" xlink:href="#r"/><use transform="matrix(0.05,0,0,0.05,33.95,0)" xlink:href="#s"/><use transform="matrix(0.05,0,0,0.05,43.95,0)" xlink:href="#t"/><use transform="matrix(0.05,0,0,0.05,53.95,0)" xlink:href="#r"/><use transform="matrix(0.05,0,0,0.05,63.95,0)" xlink:href="#m"/><use transform="matrix(0.05,0,0,0.05,73.95,0)" xlink:href="#u"/></g><path fill="#333" d="M212-179c-10-28-35-45-73-45-59 0-87 40-87 99 0 60 29 101 89 101 43 0 62-24 78-52l27 14C228-24 195 4 139 4 59 4 22-46 18-125c-6-104 99-153 187-111 19 9 31 26 39 46" id="v"/><path fill="#333" d="M135-143c-3-34-86-38-87 0 15 53 115 12 119 90S17 21 10-45l28-5c4 36 97 45 98 0-10-56-113-15-118-90-4-57 82-63 122-42 12 7 21 19 24 35" id="w"/><path fill="#333" d="M101-234c-31-9-42 10-38 44h38v23H63V0H32v-167H5v-23h27c-7-52 17-82 69-68v24" id="x"/><path fill="#333" d="M96-169c-40 0-48 33-48 73s9 75 48 75c24 0 41-14 43-38l32 2c-6 37-31 61-74 61-59 0-76-41-82-99-10-93 101-131 147-64 4 7 5 14 7 22l-32 3c-4-21-16-35-41-35" id="y"/><path fill="#333" d="M114-163C36-179 61-72 57 0H25l-1-190h30c1 12-1 29 2 39 6-27 23-49 58-41v29" id="z"/><g id="d"><use transform="matrix(0.05,0,0,0.05,0,0)" xlink:href="#v"/><use transform="matrix(0.05,0,0,0.05,12.950000000000001,0)" xlink:href="#n"/><use transform="matrix(0.05,0,0,0.05,16.900000000000002,0)" xlink:href="#t"/><use transform="matrix(0.05,0,0,0.05,26.900000000000002,0)" xlink:href="#w"/><use transform="matrix(0.05,0,0,0.05,35.900000000000006,0)" xlink:href="#w"/><use transform="matrix(0.05,0,0,0.05,44.900000000000006,0)" xlink:href="#p"/><use transform="matrix(0.05,0,0,0.05,48.85000000000001,0)" xlink:href="#x"/><use transform="matrix(0.05,0,0,0.05,53.85,0)" xlink:href="#p"/><use transform="matrix(0.05,0,0,0.05,57.80000000000001,0)" xlink:href="#y"/><use transform="matrix(0.05,0,0,0.05,66.80000000000001,0)" xlink:href="#t"/><use transform="matrix(0.05,0,0,0.05,76.80000000000001,0)" xlink:href="#l"/><use transform="matrix(0.05,0,0,0.05,86.80000000000001,0)" xlink:href="#k"/><use transform="matrix(0.05,0,0,0.05,96.80000000000001,0)" xlink:href="#z"/></g><path fill="#333" d="M143 4C61 4 22-44 18-125c-5-107 100-154 193-111 17 8 29 25 37 43l-32 9c-13-25-37-40-76-40-61 0-88 39-88 99 0 61 29 100 91 101 35 0 62-11 79-27v-45h-74v-28h105v86C228-13 192 4 143 4" id="A"/><path fill="#333" d="M141-36C126-15 110 5 73 4 37 3 15-17 15-53c-1-64 63-63 125-63 3-35-9-54-41-54-24 1-41 7-42 31l-33-3c5-37 33-52 76-52 45 0 72 20 72 64v82c-1 20 7 32 28 27v20c-31 9-61-2-59-35zM48-53c0 20 12 33 32 33 41-3 63-29 60-74-43 2-92-5-92 41zm25-158c8-23 27-35 38-54h36v5l-58 49H73" id="B"/><path fill="#333" d="M59-47c-2 24 18 29 38 22v24C64 9 27 4 27-40v-127H5v-23h24l9-43h21v43h35v23H59v120" id="C"/><g id="e"><use transform="matrix(0.05,0,0,0.05,0,0)" xlink:href="#A"/><use transform="matrix(0.05,0,0,0.05,14,0)" xlink:href="#z"/><use transform="matrix(0.05,0,0,0.05,19.95,0)" xlink:href="#t"/><use transform="matrix(0.05,0,0,0.05,29.950000000000003,0)" xlink:href="#u"/><use transform="matrix(0.05,0,0,0.05,44.9,0)" xlink:href="#B"/><use transform="matrix(0.05,0,0,0.05,54.900000000000006,0)" xlink:href="#C"/><use transform="matrix(0.05,0,0,0.05,59.900000000000006,0)" xlink:href="#p"/><use transform="matrix(0.05,0,0,0.05,63.85,0)" xlink:href="#y"/><use transform="matrix(0.05,0,0,0.05,72.85,0)" xlink:href="#t"/></g><path fill="#333" d="M185-189c-5-48-123-54-124 2 14 75 158 14 163 119 3 78-121 87-175 55-17-10-28-26-33-46l33-7c5 56 141 63 141-1 0-78-155-14-162-118-5-82 145-84 179-34 5 7 8 16 11 25" id="D"/><g id="f"><use transform="matrix(0.05,0,0,0.05,0,0)" xlink:href="#D"/><use transform="matrix(0.05,0,0,0.05,12,0)" xlink:href="#C"/><use transform="matrix(0.05,0,0,0.05,17,0)" xlink:href="#t"/><use transform="matrix(0.05,0,0,0.05,27,0)" xlink:href="#q"/><use transform="matrix(0.05,0,0,0.05,37,0)" xlink:href="#x"/><use transform="matrix(0.05,0,0,0.05,42,0)" xlink:href="#k"/><use transform="matrix(0.05,0,0,0.05,52,0)" xlink:href="#z"/><use transform="matrix(0.05,0,0,0.05,57.95,0)" xlink:href="#l"/></g><path fill="#333" d="M30-248c87 1 191-15 191 75 0 78-77 80-158 76V0H30v-248zm33 125c57 0 124 11 124-50 0-59-68-47-124-48v98" id="E"/><g id="g"><use transform="matrix(0.05,0,0,0.05,0,0)" xlink:href="#E"/><use transform="matrix(0.05,0,0,0.05,12,0)" xlink:href="#t"/><use transform="matrix(0.05,0,0,0.05,22,0)" xlink:href="#z"/><use transform="matrix(0.05,0,0,0.05,27.950000000000003,0)" xlink:href="#w"/><use transform="matrix(0.05,0,0,0.05,36.95,0)" xlink:href="#m"/><use transform="matrix(0.05,0,0,0.05,46.95,0)" xlink:href="#z"/></g><use transform="matrix(0.05,0,0,0.05,0,0)" xlink:href="#D" id="h"/><path fill="#4d5156" d="M223 0c-34 10-63 1-63-40v-127H89c2 62-6 119-17 167H39c12-48 20-106 19-167-17-1-32 2-44 6v-24c62-12 148-2 219-5v23h-42v120c-1 21 11 31 32 24V0" id="F"/><use transform="matrix(0.05185185185185186,0,0,0.05185185185185186,0,0)" xlink:href="#F" id="i"/></defs></g></svg>