<svg xmlns="http://www.w3.org/2000/svg" xmlns:xlink="http://www.w3.org/1999/xlink" xmlns:lucid="lucid" width="981" height="357"><g transform="translate(-191 -163)" lucid:page-tab-id="GpxakgEQ.e-j"><path d="M0 0h1760v1360H0z" fill="#fff"/><path d="M320 228c0-4.42 3.58-8 8-8h704c4.42 0 8 3.58 8 8v224c0 4.42-3.58 8-8 8H328c-4.42 0-8-3.58-8-8z" stroke="#333" fill="#fff"/><use xlink:href="#a" transform="matrix(1,0,0,1,320,220) translate(333.53 126.9)"/><path d="M360 308c0-4.42 3.58-8 8-8h144c4.42 0 8 3.58 8 8v104c0 4.42-3.58 8-8 8H368c-4.42 0-8-3.58-8-8z" stroke="#333" fill="#fff"/><use xlink:href="#b" transform="matrix(1,0,0,1,360,300) translate(36.58 40.65)"/><use xlink:href="#c" transform="matrix(1,0,0,1,360,300) translate(103.43 40.65)"/><use xlink:href="#d" transform="matrix(1,0,0,1,360,300) translate(6.104999999999999 62.25)"/><use xlink:href="#e" transform="matrix(1,0,0,1,360,300) translate(82.00500000000001 62.25)"/><use xlink:href="#c" transform="matrix(1,0,0,1,360,300) translate(133.905 62.25)"/><use xlink:href="#f" transform="matrix(1,0,0,1,360,300) translate(54.555 83.85000000000001)"/><path d="M600 308c0-4.42 3.58-8 8-8h144c4.42 0 8 3.58 8 8v104c0 4.42-3.58 8-8 8H608c-4.42 0-8-3.58-8-8z" stroke="#333" fill="#fff"/><use xlink:href="#g" transform="matrix(1,0,0,1,600,300) translate(20.380000000000003 19.41)"/><use xlink:href="#h" transform="matrix(1,0,0,1,600,300) translate(119.63000000000001 19.41)"/><use xlink:href="#i" transform="matrix(1,0,0,1,600,300) translate(56.029999999999994 41.01)"/><use xlink:href="#j" transform="matrix(1,0,0,1,600,300) translate(98.97999999999999 41.01)"/><use xlink:href="#k" transform="matrix(1,0,0,1,600,300) translate(27.57999999999999 62.61)"/><use xlink:href="#l" transform="matrix(1,0,0,1,600,300) translate(25.57999999999999 84.21000000000001)"/><use xlink:href="#m" transform="matrix(1,0,0,1,600,300) translate(114.43 84.21000000000001)"/><use xlink:href="#f" transform="matrix(1,0,0,1,600,300) translate(54.555 105.81)"/><path d="M840 308c0-4.42 3.58-8 8-8h144c4.42 0 8 3.58 8 8v104c0 4.42-3.58 8-8 8H848c-4.42 0-8-3.58-8-8z" stroke="#333" fill="#fff"/><use xlink:href="#n" transform="matrix(1,0,0,1,840,300) translate(13.104999999999999 40.65)"/><use xlink:href="#o" transform="matrix(1,0,0,1,840,300) translate(93.95500000000001 40.65)"/><use xlink:href="#p" transform="matrix(1,0,0,1,840,300) translate(7.5550000000000015 62.25)"/><use xlink:href="#q" transform="matrix(1,0,0,1,840,300) translate(32.555 62.25)"/><use xlink:href="#r" transform="matrix(1,0,0,1,840,300) translate(88.455 62.25)"/><use xlink:href="#s" transform="matrix(1,0,0,1,840,300) translate(113.455 62.25)"/><use xlink:href="#t" transform="matrix(1,0,0,1,840,300) translate(49.555 83.85000000000001)"/><path d="M200 338c0-4.42 3.58-8 8-8h44c4.42 0 8 3.58 8 8v44c0 4.42-3.58 8-8 8h-44c-4.42 0-8-3.58-8-8z" stroke="#000" stroke-opacity="0" fill="#fff" fill-opacity="0"/><g><use xlink:href="#u" transform="matrix(1,0,0,1,205,335) translate(19 30.025)"/></g><path d="M1100 338c0-4.42 3.58-8 8-8h44c4.42 0 8 3.58 8 8v44c0 4.42-3.58 8-8 8h-44c-4.42 0-8-3.58-8-8z" stroke="#000" stroke-opacity="0" fill="#fff" fill-opacity="0"/><g><use xlink:href="#v" transform="matrix(1,0,0,1,1105,335) translate(17.014814814814812 27.433333333333337)"/></g><path d="M560 228c0-4.42 3.58-8 8-8h224c4.42 0 8 3.58 8 8v44c0 4.42-3.58 8-8 8H568c-4.42 0-8-3.58-8-8z" stroke="#000" stroke-opacity="0" fill="#fff" fill-opacity="0"/><g><use xlink:href="#w" transform="matrix(1,0,0,1,565,225) translate(71.9 30.025)"/></g><path d="M260.5 360h82.62" stroke="#333" fill="none"/><path d="M260.5 360.5h-.5v-1h.5z" fill="#333"/><path d="M357.88 360l-14.26 4.64v-9.28z" stroke="#333" fill="#333"/><path d="M521 360h62.12" stroke="#333" fill="none"/><path d="M521 360.5h-.5v-1h.5z" fill="#333"/><path d="M597.88 360l-14.26 4.64v-9.28z" stroke="#333" fill="#333"/><path d="M761 360h62.12" stroke="#333" fill="none"/><path d="M761 360.5h-.5v-1h.5z" fill="#333"/><path d="M837.88 360l-14.26 4.64v-9.28z" stroke="#333" fill="#333"/><path d="M1001 360h82.62" stroke="#333" fill="none"/><path d="M1001 360.5h-.5v-1h.5z" fill="#333"/><path d="M1098.38 360l-14.26 4.64v-9.28z" stroke="#333" fill="#333"/><defs><path fill="#333" d="M140-251c81 0 123 46 123 126C263-46 219 4 140 4 59 4 17-45 17-125s42-126 123-126zm0 227c63 0 89-41 89-101s-29-99-89-99c-61 0-89 39-89 99S79-25 140-24" id="x"/><path fill="#333" d="M115-194c53 0 69 39 70 98 0 66-23 100-70 100C84 3 66-7 56-30L54 0H23l1-261h32v101c10-23 28-34 59-34zm-8 174c40 0 45-34 45-75 0-40-5-75-45-74-42 0-51 32-51 76 0 43 10 73 51 73" id="y"/><path fill="#333" d="M24-231v-30h32v30H24zM-9 49c24 4 33-6 33-30v-209h32V24c2 40-23 58-65 49V49" id="z"/><path fill="#333" d="M100-194c63 0 86 42 84 106H49c0 40 14 67 53 68 26 1 43-12 49-29l28 8c-11 28-37 45-77 45C44 4 14-33 15-96c1-61 26-98 85-98zm52 81c6-60-76-77-97-28-3 7-6 17-6 28h103" id="A"/><path fill="#333" d="M59-47c-2 24 18 29 38 22v24C64 9 27 4 27-40v-127H5v-23h24l9-43h21v43h35v23H59v120" id="B"/><path fill="#333" d="M100-194c62-1 85 37 85 99 1 63-27 99-86 99S16-35 15-95c0-66 28-99 85-99zM99-20c44 1 53-31 53-75 0-43-8-75-51-75s-53 32-53 75 10 74 51 75" id="C"/><g id="a"><use transform="matrix(0.05,0,0,0.05,0,0)" xlink:href="#x"/><use transform="matrix(0.05,0,0,0.05,14,0)" xlink:href="#y"/><use transform="matrix(0.05,0,0,0.05,24,0)" xlink:href="#z"/><use transform="matrix(0.05,0,0,0.05,27.950000000000003,0)" xlink:href="#A"/><use transform="matrix(0.05,0,0,0.05,37.95,0)" xlink:href="#B"/><use transform="matrix(0.05,0,0,0.05,42.95,0)" xlink:href="#C"/></g><path d="M212-179c-10-28-35-45-73-45-59 0-87 40-87 99 0 60 29 101 89 101 43 0 62-24 78-52l27 14C228-24 195 4 139 4 59 4 22-46 18-125c-6-104 99-153 187-111 19 9 31 26 39 46" id="D"/><path d="M114-163C36-179 61-72 57 0H25l-1-190h30c1 12-1 29 2 39 6-27 23-49 58-41v29" id="E"/><path d="M24-231v-30h32v30H24zM24 0v-190h32V0H24" id="F"/><path d="M141-36C126-15 110 5 73 4 37 3 15-17 15-53c-1-64 63-63 125-63 3-35-9-54-41-54-24 1-41 7-42 31l-33-3c5-37 33-52 76-52 45 0 72 20 72 64v82c-1 20 7 32 28 27v20c-31 9-61-2-59-35zM48-53c0 20 12 33 32 33 41-3 63-29 60-74-43 2-92-5-92 41" id="G"/><path d="M96-169c-40 0-48 33-48 73s9 75 48 75c24 0 41-14 43-38l32 2c-6 37-31 61-74 61-59 0-76-41-82-99-10-93 101-131 147-64 4 7 5 14 7 22l-32 3c-4-21-16-35-41-35zm3 187c19-1 33 8 33 26 0 31-30 33-64 32V58c18 2 39 4 41-13 1-15-18-13-34-13L87 0h19" id="H"/><path d="M141-36C126-15 110 5 73 4 37 3 15-17 15-53c-1-64 63-63 125-63 3-35-9-54-41-54-24 1-41 7-42 31l-33-3c5-37 33-52 76-52 45 0 72 20 72 64v82c-1 20 7 32 28 27v20c-31 9-61-2-59-35zM48-53c0 20 12 33 32 33 41-3 63-29 60-74-43 2-92-5-92 41zm117-205c-3 23-9 48-36 47-26-1-65-44-74 0H39c4-23 8-48 36-47s64 44 74 0h16" id="I"/><path d="M100-194c62-1 85 37 85 99 1 63-27 99-86 99S16-35 15-95c0-66 28-99 85-99zM99-20c44 1 53-31 53-75 0-43-8-75-51-75s-53 32-53 75 10 74 51 75" id="J"/><g id="b"><use transform="matrix(0.05,0,0,0.05,0,0)" xlink:href="#D"/><use transform="matrix(0.05,0,0,0.05,12.950000000000001,0)" xlink:href="#E"/><use transform="matrix(0.05,0,0,0.05,18.900000000000002,0)" xlink:href="#F"/><use transform="matrix(0.05,0,0,0.05,22.85,0)" xlink:href="#G"/><use transform="matrix(0.05,0,0,0.05,32.85,0)" xlink:href="#H"/><use transform="matrix(0.05,0,0,0.05,41.85,0)" xlink:href="#I"/><use transform="matrix(0.05,0,0,0.05,51.85,0)" xlink:href="#J"/></g><path d="M85-194c31 0 48 13 60 33l-1-100h32l1 261h-30c-2-10 0-23-3-31C134-8 116 4 85 4 32 4 16-35 15-94c0-66 23-100 70-100zm9 24c-40 0-46 34-46 75 0 40 6 74 45 74 42 0 51-32 51-76 0-42-9-74-50-73" id="K"/><g id="c"><use transform="matrix(0.05,0,0,0.05,0,0)" xlink:href="#K"/><use transform="matrix(0.05,0,0,0.05,10,0)" xlink:href="#G"/></g><path d="M100-194c63 0 86 42 84 106H49c0 40 14 67 53 68 26 1 43-12 49-29l28 8c-11 28-37 45-77 45C44 4 14-33 15-96c1-61 26-98 85-98zm52 81c6-60-76-77-97-28-3 7-6 17-6 28h103" id="L"/><path d="M135-143c-3-34-86-38-87 0 15 53 115 12 119 90S17 21 10-45l28-5c4 36 97 45 98 0-10-56-113-15-118-90-4-57 82-63 122-42 12 7 21 19 24 35" id="M"/><path d="M59-47c-2 24 18 29 38 22v24C64 9 27 4 27-40v-127H5v-23h24l9-43h21v43h35v23H59v120" id="N"/><path d="M84 4C-5 8 30-112 23-190h32v120c0 31 7 50 39 49 72-2 45-101 50-169h31l1 190h-30c-1-10 1-25-2-33-11 22-28 36-60 37" id="O"/><g id="d"><use transform="matrix(0.05,0,0,0.05,0,0)" xlink:href="#L"/><use transform="matrix(0.05,0,0,0.05,10,0)" xlink:href="#M"/><use transform="matrix(0.05,0,0,0.05,19,0)" xlink:href="#N"/><use transform="matrix(0.05,0,0,0.05,24,0)" xlink:href="#E"/><use transform="matrix(0.05,0,0,0.05,29.950000000000003,0)" xlink:href="#O"/><use transform="matrix(0.05,0,0,0.05,39.95,0)" xlink:href="#N"/><use transform="matrix(0.05,0,0,0.05,44.95,0)" xlink:href="#O"/><use transform="matrix(0.05,0,0,0.05,54.95,0)" xlink:href="#E"/><use transform="matrix(0.05,0,0,0.05,60.900000000000006,0)" xlink:href="#G"/></g><path d="M24 0v-261h32V0H24" id="P"/><path d="M100-194c62-1 85 37 85 99 1 63-27 99-86 99S16-35 15-95c0-66 28-99 85-99zM99-20c44 1 53-31 53-75 0-43-8-75-51-75s-53 32-53 75 10 74 51 75zM76-211c8-23 27-35 38-54h36v5l-58 49H76" id="Q"/><path d="M177-190C167-65 218 103 67 71c-23-6-38-20-44-43l32-5c15 47 100 32 89-28v-30C133-14 115 1 83 1 29 1 15-40 15-95c0-56 16-97 71-98 29-1 48 16 59 35 1-10 0-23 2-32h30zM94-22c36 0 50-32 50-73 0-42-14-75-50-75-39 0-46 34-46 75s6 73 46 73" id="R"/><path d="M96-169c-40 0-48 33-48 73s9 75 48 75c24 0 41-14 43-38l32 2c-6 37-31 61-74 61-59 0-76-41-82-99-10-93 101-131 147-64 4 7 5 14 7 22l-32 3c-4-21-16-35-41-35" id="S"/><g id="e"><use transform="matrix(0.05,0,0,0.05,0,0)" xlink:href="#P"/><use transform="matrix(0.05,0,0,0.05,3.95,0)" xlink:href="#Q"/><use transform="matrix(0.05,0,0,0.05,13.949999999999998,0)" xlink:href="#R"/><use transform="matrix(0.05,0,0,0.05,23.95,0)" xlink:href="#F"/><use transform="matrix(0.05,0,0,0.05,27.899999999999995,0)" xlink:href="#S"/><use transform="matrix(0.05,0,0,0.05,36.9,0)" xlink:href="#G"/></g><path d="M141-36C126-15 110 5 73 4 37 3 15-17 15-53c-1-64 63-63 125-63 3-35-9-54-41-54-24 1-41 7-42 31l-33-3c5-37 33-52 76-52 45 0 72 20 72 64v82c-1 20 7 32 28 27v20c-31 9-61-2-59-35zM48-53c0 20 12 33 32 33 41-3 63-29 60-74-43 2-92-5-92 41zm25-158c8-23 27-35 38-54h36v5l-58 49H73" id="T"/><path d="M108 0H70L1-190h34L89-25l56-165h34" id="U"/><g id="f"><use transform="matrix(0.05,0,0,0.05,0,0)" xlink:href="#T"/><use transform="matrix(0.05,0,0,0.05,10,0)" xlink:href="#E"/><use transform="matrix(0.05,0,0,0.05,15.949999999999998,0)" xlink:href="#U"/><use transform="matrix(0.05,0,0,0.05,24.95,0)" xlink:href="#J"/><use transform="matrix(0.05,0,0,0.05,34.95,0)" xlink:href="#E"/><use transform="matrix(0.05,0,0,0.05,40.900000000000006,0)" xlink:href="#L"/></g><path d="M127-220V0H93v-220H8v-28h204v28h-85" id="V"/><path d="M117-194c89-4 53 116 60 194h-32v-121c0-31-8-49-39-48C34-167 62-67 57 0H25l-1-190h30c1 10-1 24 2 32 11-22 29-35 61-36" id="W"/><g id="g"><use transform="matrix(0.05,0,0,0.05,0,0)" xlink:href="#V"/><use transform="matrix(0.05,0,0,0.05,10.3,0)" xlink:href="#E"/><use transform="matrix(0.05,0,0,0.05,16.25,0)" xlink:href="#G"/><use transform="matrix(0.05,0,0,0.05,26.25,0)" xlink:href="#W"/><use transform="matrix(0.05,0,0,0.05,36.25,0)" xlink:href="#M"/><use transform="matrix(0.05,0,0,0.05,45.25,0)" xlink:href="#K"/><use transform="matrix(0.05,0,0,0.05,55.25,0)" xlink:href="#O"/><use transform="matrix(0.05,0,0,0.05,65.25,0)" xlink:href="#H"/><use transform="matrix(0.05,0,0,0.05,74.25,0)" xlink:href="#I"/><use transform="matrix(0.05,0,0,0.05,84.25,0)" xlink:href="#J"/></g><g id="h"><use transform="matrix(0.05,0,0,0.05,0,0)" xlink:href="#K"/><use transform="matrix(0.05,0,0,0.05,10,0)" xlink:href="#L"/></g><g id="i"><use transform="matrix(0.05,0,0,0.05,0,0)" xlink:href="#V"/><use transform="matrix(0.05,0,0,0.05,8.950000000000001,0)" xlink:href="#G"/><use transform="matrix(0.05,0,0,0.05,18.950000000000003,0)" xlink:href="#R"/><use transform="matrix(0.05,0,0,0.05,28.950000000000003,0)" xlink:href="#M"/></g><path d="M0 4l72-265h28L28 4H0" id="X"/><use transform="matrix(0.05,0,0,0.05,0,0)" xlink:href="#X" id="j"/><path d="M240 0l2-218c-23 76-54 145-80 218h-23L58-218 59 0H30v-248h44l77 211c21-75 51-140 76-211h43V0h-30" id="Y"/><path d="M101-234c-31-9-42 10-38 44h38v23H63V0H32v-167H5v-23h27c-7-52 17-82 69-68v24" id="Z"/><path d="M100-194c62-1 85 37 85 99 1 63-27 99-86 99S16-35 15-95c0-66 28-99 85-99zM99-20c44 1 53-31 53-75 0-43-8-75-51-75s-53 32-53 75 10 74 51 75zm66-238c-3 23-9 48-36 47-26-1-65-44-74 0H39c4-23 8-48 36-47s64 44 74 0h16" id="aa"/><g id="k"><use transform="matrix(0.05,0,0,0.05,0,0)" xlink:href="#Y"/><use transform="matrix(0.05,0,0,0.05,14.950000000000001,0)" xlink:href="#J"/><use transform="matrix(0.05,0,0,0.05,24.950000000000003,0)" xlink:href="#K"/><use transform="matrix(0.05,0,0,0.05,34.95,0)" xlink:href="#F"/><use transform="matrix(0.05,0,0,0.05,38.900000000000006,0)" xlink:href="#Z"/><use transform="matrix(0.05,0,0,0.05,43.900000000000006,0)" xlink:href="#F"/><use transform="matrix(0.05,0,0,0.05,47.85000000000001,0)" xlink:href="#S"/><use transform="matrix(0.05,0,0,0.05,56.85,0)" xlink:href="#G"/><use transform="matrix(0.05,0,0,0.05,66.85000000000001,0)" xlink:href="#H"/><use transform="matrix(0.05,0,0,0.05,75.85000000000001,0)" xlink:href="#aa"/><use transform="matrix(0.05,0,0,0.05,85.85000000000001,0)" xlink:href="#L"/><use transform="matrix(0.05,0,0,0.05,95.85000000000001,0)" xlink:href="#M"/></g><g id="l"><use transform="matrix(0.05,0,0,0.05,0,0)" xlink:href="#L"/><use transform="matrix(0.05,0,0,0.05,10,0)" xlink:href="#M"/><use transform="matrix(0.05,0,0,0.05,19,0)" xlink:href="#N"/><use transform="matrix(0.05,0,0,0.05,24,0)" xlink:href="#E"/><use transform="matrix(0.05,0,0,0.05,29.950000000000003,0)" xlink:href="#O"/><use transform="matrix(0.05,0,0,0.05,39.95,0)" xlink:href="#N"/><use transform="matrix(0.05,0,0,0.05,44.95,0)" xlink:href="#O"/><use transform="matrix(0.05,0,0,0.05,54.95,0)" xlink:href="#E"/><use transform="matrix(0.05,0,0,0.05,60.900000000000006,0)" xlink:href="#G"/><use transform="matrix(0.05,0,0,0.05,70.9,0)" xlink:href="#F"/><use transform="matrix(0.05,0,0,0.05,74.85000000000001,0)" xlink:href="#M"/></g><g id="m"><use transform="matrix(0.05,0,0,0.05,0,0)" xlink:href="#W"/><use transform="matrix(0.05,0,0,0.05,10,0)" xlink:href="#G"/></g><path d="M233-177c-1 41-23 64-60 70L243 0h-38l-65-103H63V0H30v-248c88 3 205-21 203 71zM63-129c60-2 137 13 137-47 0-61-80-42-137-45v92" id="ab"/><g id="n"><use transform="matrix(0.05,0,0,0.05,0,0)" xlink:href="#ab"/><use transform="matrix(0.05,0,0,0.05,12.950000000000001,0)" xlink:href="#L"/><use transform="matrix(0.05,0,0,0.05,22.950000000000003,0)" xlink:href="#L"/><use transform="matrix(0.05,0,0,0.05,32.95,0)" xlink:href="#M"/><use transform="matrix(0.05,0,0,0.05,41.95,0)" xlink:href="#S"/><use transform="matrix(0.05,0,0,0.05,50.95,0)" xlink:href="#E"/><use transform="matrix(0.05,0,0,0.05,56.900000000000006,0)" xlink:href="#F"/><use transform="matrix(0.05,0,0,0.05,60.85,0)" xlink:href="#N"/><use transform="matrix(0.05,0,0,0.05,65.85000000000001,0)" xlink:href="#G"/></g><path d="M141 0L90-78 38 0H4l68-98-65-92h35l48 74 47-74h35l-64 92 68 98h-35" id="ac"/><g id="o"><use transform="matrix(0.05,0,0,0.05,0,0)" xlink:href="#N"/><use transform="matrix(0.05,0,0,0.05,5,0)" xlink:href="#L"/><use transform="matrix(0.05,0,0,0.05,15,0)" xlink:href="#ac"/><use transform="matrix(0.05,0,0,0.05,24,0)" xlink:href="#N"/><use transform="matrix(0.05,0,0,0.05,29,0)" xlink:href="#O"/><use transform="matrix(0.05,0,0,0.05,39,0)" xlink:href="#G"/><use transform="matrix(0.05,0,0,0.05,49,0)" xlink:href="#P"/></g><g id="p"><use transform="matrix(0.05,0,0,0.05,0,0)" xlink:href="#K"/><use transform="matrix(0.05,0,0,0.05,10,0)" xlink:href="#G"/></g><g id="q"><use transform="matrix(0.05,0,0,0.05,0,0)" xlink:href="#T"/><use transform="matrix(0.05,0,0,0.05,10,0)" xlink:href="#E"/><use transform="matrix(0.05,0,0,0.05,15.949999999999998,0)" xlink:href="#U"/><use transform="matrix(0.05,0,0,0.05,24.95,0)" xlink:href="#J"/><use transform="matrix(0.05,0,0,0.05,34.95,0)" xlink:href="#E"/><use transform="matrix(0.05,0,0,0.05,40.900000000000006,0)" xlink:href="#L"/></g><g id="r"><use transform="matrix(0.05,0,0,0.05,0,0)" xlink:href="#W"/><use transform="matrix(0.05,0,0,0.05,10,0)" xlink:href="#J"/></g><g id="s"><use transform="matrix(0.05,0,0,0.05,0,0)" xlink:href="#W"/><use transform="matrix(0.05,0,0,0.05,10,0)" xlink:href="#J"/><use transform="matrix(0.05,0,0,0.05,20,0)" xlink:href="#U"/><use transform="matrix(0.05,0,0,0.05,29,0)" xlink:href="#J"/></g><path d="M210-169c-67 3-38 105-44 169h-31v-121c0-29-5-50-35-48C34-165 62-65 56 0H25l-1-190h30c1 10-1 24 2 32 10-44 99-50 107 0 11-21 27-35 58-36 85-2 47 119 55 194h-31v-121c0-29-5-49-35-48" id="ad"/><g id="t"><use transform="matrix(0.05,0,0,0.05,0,0)" xlink:href="#Z"/><use transform="matrix(0.05,0,0,0.05,5,0)" xlink:href="#J"/><use transform="matrix(0.05,0,0,0.05,15,0)" xlink:href="#E"/><use transform="matrix(0.05,0,0,0.05,20.95,0)" xlink:href="#ad"/><use transform="matrix(0.05,0,0,0.05,35.9,0)" xlink:href="#G"/><use transform="matrix(0.05,0,0,0.05,45.9,0)" xlink:href="#N"/><use transform="matrix(0.05,0,0,0.05,50.9,0)" xlink:href="#J"/></g><path fill="#333" d="M185-189c-5-48-123-54-124 2 14 75 158 14 163 119 3 78-121 87-175 55-17-10-28-26-33-46l33-7c5 56 141 63 141-1 0-78-155-14-162-118-5-82 145-84 179-34 5 7 8 16 11 25" id="ae"/><use transform="matrix(0.05,0,0,0.05,0,0)" xlink:href="#ae" id="u"/><path fill="#4d5156" d="M185-189c-5-48-123-54-124 2 14 75 158 14 163 119 3 78-121 87-175 55-17-10-28-26-33-46l33-7c5 56 141 63 141-1 0-78-155-14-162-118-5-82 145-84 179-34 5 7 8 16 11 25" id="af"/><path fill="#4d5156" d="M47-170H22l-4-78h33" id="ag"/><g id="v"><use transform="matrix(0.05185185185185186,0,0,0.05185185185185186,0,0)" xlink:href="#af"/><use transform="matrix(0.05185185185185186,0,0,0.05185185185185186,12.444444444444446,0)" xlink:href="#ag"/></g><path fill="#333" d="M127-220V0H93v-220H8v-28h204v28h-85" id="ah"/><path fill="#333" d="M114-163C36-179 61-72 57 0H25l-1-190h30c1 12-1 29 2 39 6-27 23-49 58-41v29" id="ai"/><path fill="#333" d="M141-36C126-15 110 5 73 4 37 3 15-17 15-53c-1-64 63-63 125-63 3-35-9-54-41-54-24 1-41 7-42 31l-33-3c5-37 33-52 76-52 45 0 72 20 72 64v82c-1 20 7 32 28 27v20c-31 9-61-2-59-35zM48-53c0 20 12 33 32 33 41-3 63-29 60-74-43 2-92-5-92 41" id="aj"/><path fill="#333" d="M117-194c89-4 53 116 60 194h-32v-121c0-31-8-49-39-48C34-167 62-67 57 0H25l-1-190h30c1 10-1 24 2 32 11-22 29-35 61-36" id="ak"/><path fill="#333" d="M135-143c-3-34-86-38-87 0 15 53 115 12 119 90S17 21 10-45l28-5c4 36 97 45 98 0-10-56-113-15-118-90-4-57 82-63 122-42 12 7 21 19 24 35" id="al"/><path fill="#333" d="M85-194c31 0 48 13 60 33l-1-100h32l1 261h-30c-2-10 0-23-3-31C134-8 116 4 85 4 32 4 16-35 15-94c0-66 23-100 70-100zm9 24c-40 0-46 34-46 75 0 40 6 74 45 74 42 0 51-32 51-76 0-42-9-74-50-73" id="am"/><path fill="#333" d="M84 4C-5 8 30-112 23-190h32v120c0 31 7 50 39 49 72-2 45-101 50-169h31l1 190h-30c-1-10 1-25-2-33-11 22-28 36-60 37" id="an"/><g id="w"><use transform="matrix(0.05,0,0,0.05,0,0)" xlink:href="#ah"/><use transform="matrix(0.05,0,0,0.05,10.3,0)" xlink:href="#ai"/><use transform="matrix(0.05,0,0,0.05,16.25,0)" xlink:href="#aj"/><use transform="matrix(0.05,0,0,0.05,26.25,0)" xlink:href="#ak"/><use transform="matrix(0.05,0,0,0.05,36.25,0)" xlink:href="#al"/><use transform="matrix(0.05,0,0,0.05,45.25,0)" xlink:href="#am"/><use transform="matrix(0.05,0,0,0.05,55.25,0)" xlink:href="#an"/><use transform="matrix(0.05,0,0,0.05,65.25,0)" xlink:href="#B"/><use transform="matrix(0.05,0,0,0.05,70.25,0)" xlink:href="#C"/><use transform="matrix(0.05,0,0,0.05,80.25,0)" xlink:href="#ai"/></g></defs></g></svg>