<svg version="1.1" viewBox="0.0 0.0 600.0 371.0" fill="none" stroke="none" stroke-linecap="square" stroke-miterlimit="10" width="600" height="371" xmlns:xlink="http://www.w3.org/1999/xlink" xmlns="http://www.w3.org/2000/svg"><path fill="#ffffff" d="M0 0L600.0 0L600.0 371.0L0 371.0L0 0Z" fill-rule="nonzero"/><path stroke="#333333" stroke-width="1.0" stroke-linecap="butt" d="M59.5 300.5L490.5 300.5" fill-rule="nonzero"/><path stroke="#cccccc" stroke-width="1.0" stroke-linecap="butt" d="M59.5 220.5L490.5 220.5" fill-rule="nonzero"/><path stroke="#cccccc" stroke-width="1.0" stroke-linecap="butt" d="M59.5 141.5L490.5 141.5" fill-rule="nonzero"/><path stroke="#cccccc" stroke-width="1.0" stroke-linecap="butt" d="M59.5 61.5L490.5 61.5" fill-rule="nonzero"/><clipPath id="id_0"><path d="M59.55 61.916668L490.61444 61.916668L490.61444 300.45L59.55 300.45L59.55 61.916668Z" clip-rule="nonzero"/></clipPath><path stroke="#000000" stroke-width="0.0" stroke-linecap="butt" stroke-opacity="0.0" clip-path="url(#id_0)" d="M77.0 300.0L73.0 300.0L73.0 276.0C73.0 274.89542 73.89543 274.0 75.0 274.0L75.0 274.0C76.10457 274.0 77.0 274.89542 77.0 276.0Z" fill-rule="nonzero"/><path fill="#4285f4" clip-path="url(#id_0)" d="M77.0 300.0L73.0 300.0L73.0 276.0C73.0 274.89542 73.89543 274.0 75.0 274.0L75.0 274.0C76.10457 274.0 77.0 274.89542 77.0 276.0Z" fill-rule="nonzero"/><path stroke="#000000" stroke-width="0.0" stroke-linecap="butt" stroke-opacity="0.0" clip-path="url(#id_0)" d="M118.0 300.0L114.0 300.0L114.0 276.0C114.0 274.89542 114.89543 274.0 116.0 274.0L116.0 274.0C117.10457 274.0 118.0 274.89542 118.0 276.0Z" fill-rule="nonzero"/><path fill="#4285f4" clip-path="url(#id_0)" d="M118.0 300.0L114.0 300.0L114.0 276.0C114.0 274.89542 114.89543 274.0 116.0 274.0L116.0 274.0C117.10457 274.0 118.0 274.89542 118.0 276.0Z" fill-rule="nonzero"/><path stroke="#000000" stroke-width="0.0" stroke-linecap="butt" stroke-opacity="0.0" clip-path="url(#id_0)" d="M160.0 300.0L156.0 300.0L156.0 276.0C156.0 274.89542 156.89543 274.0 158.0 274.0L158.0 274.0C159.10457 274.0 160.0 274.89542 160.0 276.0Z" fill-rule="nonzero"/><path fill="#4285f4" clip-path="url(#id_0)" d="M160.0 300.0L156.0 300.0L156.0 276.0C156.0 274.89542 156.89543 274.0 158.0 274.0L158.0 274.0C159.10457 274.0 160.0 274.89542 160.0 276.0Z" fill-rule="nonzero"/><path stroke="#000000" stroke-width="0.0" stroke-linecap="butt" stroke-opacity="0.0" clip-path="url(#id_0)" d="M202.0 300.0L198.0 300.0L198.0 276.0C198.0 274.89542 198.89543 274.0 200.0 274.0L200.0 274.0C201.10457 274.0 202.0 274.89542 202.0 276.0Z" fill-rule="nonzero"/><path fill="#4285f4" clip-path="url(#id_0)" d="M202.0 300.0L198.0 300.0L198.0 276.0C198.0 274.89542 198.89543 274.0 200.0 274.0L200.0 274.0C201.10457 274.0 202.0 274.89542 202.0 276.0Z" fill-rule="nonzero"/><path stroke="#000000" stroke-width="0.0" stroke-linecap="butt" stroke-opacity="0.0" clip-path="url(#id_0)" d="M243.0 300.0L239.0 300.0L239.0 276.0C239.0 274.89542 239.89543 274.0 241.0 274.0L241.0 274.0C242.10457 274.0 243.0 274.89542 243.0 276.0Z" fill-rule="nonzero"/><path fill="#4285f4" clip-path="url(#id_0)" d="M243.0 300.0L239.0 300.0L239.0 276.0C239.0 274.89542 239.89543 274.0 241.0 274.0L241.0 274.0C242.10457 274.0 243.0 274.89542 243.0 276.0Z" fill-rule="nonzero"/><path stroke="#000000" stroke-width="0.0" stroke-linecap="butt" stroke-opacity="0.0" clip-path="url(#id_0)" d="M285.0 300.0L281.0 300.0L281.0 276.0C281.0 274.89542 281.89542 274.0 283.0 274.0L283.0 274.0C284.10458 274.0 285.0 274.89542 285.0 276.0Z" fill-rule="nonzero"/><path fill="#4285f4" clip-path="url(#id_0)" d="M285.0 300.0L281.0 300.0L281.0 276.0C281.0 274.89542 281.89542 274.0 283.0 274.0L283.0 274.0C284.10458 274.0 285.0 274.89542 285.0 276.0Z" fill-rule="nonzero"/><path stroke="#000000" stroke-width="0.0" stroke-linecap="butt" stroke-opacity="0.0" clip-path="url(#id_0)" d="M327.0 300.0L323.0 300.0L323.0 276.0C323.0 274.89542 323.89542 274.0 325.0 274.0L325.0 274.0C326.10458 274.0 327.0 274.89542 327.0 276.0Z" fill-rule="nonzero"/><path fill="#4285f4" clip-path="url(#id_0)" d="M327.0 300.0L323.0 300.0L323.0 276.0C323.0 274.89542 323.89542 274.0 325.0 274.0L325.0 274.0C326.10458 274.0 327.0 274.89542 327.0 276.0Z" fill-rule="nonzero"/><path stroke="#000000" stroke-width="0.0" stroke-linecap="butt" stroke-opacity="0.0" clip-path="url(#id_0)" d="M368.0 300.0L364.0 300.0L364.0 275.0C364.0 273.89542 364.89542 273.0 366.0 273.0L366.0 273.0C367.10458 273.0 368.0 273.89542 368.0 275.0Z" fill-rule="nonzero"/><path fill="#4285f4" clip-path="url(#id_0)" d="M368.0 300.0L364.0 300.0L364.0 275.0C364.0 273.89542 364.89542 273.0 366.0 273.0L366.0 273.0C367.10458 273.0 368.0 273.89542 368.0 275.0Z" fill-rule="nonzero"/><path stroke="#000000" stroke-width="0.0" stroke-linecap="butt" stroke-opacity="0.0" clip-path="url(#id_0)" d="M410.0 300.0L406.0 300.0L406.0 276.0C406.0 274.89542 406.89542 274.0 408.0 274.0L408.0 274.0C409.10458 274.0 410.0 274.89542 410.0 276.0Z" fill-rule="nonzero"/><path fill="#4285f4" clip-path="url(#id_0)" d="M410.0 300.0L406.0 300.0L406.0 276.0C406.0 274.89542 406.89542 274.0 408.0 274.0L408.0 274.0C409.10458 274.0 410.0 274.89542 410.0 276.0Z" fill-rule="nonzero"/><path stroke="#000000" stroke-width="0.0" stroke-linecap="butt" stroke-opacity="0.0" clip-path="url(#id_0)" d="M452.0 300.0L448.0 300.0L448.0 275.0C448.0 273.89542 448.89542 273.0 450.0 273.0L450.0 273.0C451.10458 273.0 452.0 273.89542 452.0 275.0Z" fill-rule="nonzero"/><path fill="#4285f4" clip-path="url(#id_0)" d="M452.0 300.0L448.0 300.0L448.0 275.0C448.0 273.89542 448.89542 273.0 450.0 273.0L450.0 273.0C451.10458 273.0 452.0 273.89542 452.0 275.0Z" fill-rule="nonzero"/><path stroke="#000000" stroke-width="0.0" stroke-linecap="butt" stroke-opacity="0.0" clip-path="url(#id_0)" d="M82.0 300.0L78.0 300.0L78.0 300.0C78.0 300.0 78.0 300.0 78.0 300.0L82.0 300.0C82.0 300.0 82.0 300.0 82.0 300.0Z" fill-rule="nonzero"/><path fill="#ea4335" clip-path="url(#id_0)" d="M82.0 300.0L78.0 300.0L78.0 300.0C78.0 300.0 78.0 300.0 78.0 300.0L82.0 300.0C82.0 300.0 82.0 300.0 82.0 300.0Z" fill-rule="nonzero"/><path stroke="#000000" stroke-width="0.0" stroke-linecap="butt" stroke-opacity="0.0" clip-path="url(#id_0)" d="M123.0 300.0L119.0 300.0L119.0 300.0C119.0 300.0 119.0 300.0 119.0 300.0L123.0 300.0C123.0 300.0 123.0 300.0 123.0 300.0Z" fill-rule="nonzero"/><path fill="#ea4335" clip-path="url(#id_0)" d="M123.0 300.0L119.0 300.0L119.0 300.0C119.0 300.0 119.0 300.0 119.0 300.0L123.0 300.0C123.0 300.0 123.0 300.0 123.0 300.0Z" fill-rule="nonzero"/><path stroke="#000000" stroke-width="0.0" stroke-linecap="butt" stroke-opacity="0.0" clip-path="url(#id_0)" d="M165.0 300.0L161.0 300.0L161.0 300.0C161.0 300.0 161.0 300.0 161.0 300.0L165.0 300.0C165.0 300.0 165.0 300.0 165.0 300.0Z" fill-rule="nonzero"/><path fill="#ea4335" clip-path="url(#id_0)" d="M165.0 300.0L161.0 300.0L161.0 300.0C161.0 300.0 161.0 300.0 161.0 300.0L165.0 300.0C165.0 300.0 165.0 300.0 165.0 300.0Z" fill-rule="nonzero"/><path stroke="#000000" stroke-width="0.0" stroke-linecap="butt" stroke-opacity="0.0" clip-path="url(#id_0)" d="M207.0 300.0L203.0 300.0L203.0 300.0C203.0 300.0 203.0 300.0 203.0 300.0L207.0 300.0C207.0 300.0 207.0 300.0 207.0 300.0Z" fill-rule="nonzero"/><path fill="#ea4335" clip-path="url(#id_0)" d="M207.0 300.0L203.0 300.0L203.0 300.0C203.0 300.0 203.0 300.0 203.0 300.0L207.0 300.0C207.0 300.0 207.0 300.0 207.0 300.0Z" fill-rule="nonzero"/><path stroke="#000000" stroke-width="0.0" stroke-linecap="butt" stroke-opacity="0.0" clip-path="url(#id_0)" d="M248.0 300.0L244.0 300.0L244.0 300.0C244.0 300.0 244.0 300.0 244.0 300.0L248.0 300.0C248.0 300.0 248.0 300.0 248.0 300.0Z" fill-rule="nonzero"/><path fill="#ea4335" clip-path="url(#id_0)" d="M248.0 300.0L244.0 300.0L244.0 300.0C244.0 300.0 244.0 300.0 244.0 300.0L248.0 300.0C248.0 300.0 248.0 300.0 248.0 300.0Z" fill-rule="nonzero"/><path stroke="#000000" stroke-width="0.0" stroke-linecap="butt" stroke-opacity="0.0" clip-path="url(#id_0)" d="M290.0 300.0L286.0 300.0L286.0 300.0C286.0 300.0 286.0 300.0 286.0 300.0L290.0 300.0C290.0 300.0 290.0 300.0 290.0 300.0Z" fill-rule="nonzero"/><path fill="#ea4335" clip-path="url(#id_0)" d="M290.0 300.0L286.0 300.0L286.0 300.0C286.0 300.0 286.0 300.0 286.0 300.0L290.0 300.0C290.0 300.0 290.0 300.0 290.0 300.0Z" fill-rule="nonzero"/><path stroke="#000000" stroke-width="0.0" stroke-linecap="butt" stroke-opacity="0.0" clip-path="url(#id_0)" d="M332.0 300.0L328.0 300.0L328.0 300.0C328.0 300.0 328.0 300.0 328.0 300.0L332.0 300.0C332.0 300.0 332.0 300.0 332.0 300.0Z" fill-rule="nonzero"/><path fill="#ea4335" clip-path="url(#id_0)" d="M332.0 300.0L328.0 300.0L328.0 300.0C328.0 300.0 328.0 300.0 328.0 300.0L332.0 300.0C332.0 300.0 332.0 300.0 332.0 300.0Z" fill-rule="nonzero"/><path stroke="#000000" stroke-width="0.0" stroke-linecap="butt" stroke-opacity="0.0" clip-path="url(#id_0)" d="M373.0 300.0L369.0 300.0L369.0 300.0C369.0 300.0 369.0 300.0 369.0 300.0L373.0 300.0C373.0 300.0 373.0 300.0 373.0 300.0Z" fill-rule="nonzero"/><path fill="#ea4335" clip-path="url(#id_0)" d="M373.0 300.0L369.0 300.0L369.0 300.0C369.0 300.0 369.0 300.0 369.0 300.0L373.0 300.0C373.0 300.0 373.0 300.0 373.0 300.0Z" fill-rule="nonzero"/><path stroke="#000000" stroke-width="0.0" stroke-linecap="butt" stroke-opacity="0.0" clip-path="url(#id_0)" d="M415.0 300.0L411.0 300.0L411.0 300.0C411.0 300.0 411.0 300.0 411.0 300.0L415.0 300.0C415.0 300.0 415.0 300.0 415.0 300.0Z" fill-rule="nonzero"/><path fill="#ea4335" clip-path="url(#id_0)" d="M415.0 300.0L411.0 300.0L411.0 300.0C411.0 300.0 411.0 300.0 411.0 300.0L415.0 300.0C415.0 300.0 415.0 300.0 415.0 300.0Z" fill-rule="nonzero"/><path stroke="#000000" stroke-width="0.0" stroke-linecap="butt" stroke-opacity="0.0" clip-path="url(#id_0)" d="M457.0 300.0L453.0 300.0L453.0 300.0C453.0 300.0 453.0 300.0 453.0 300.0L457.0 300.0C457.0 300.0 457.0 300.0 457.0 300.0Z" fill-rule="nonzero"/><path fill="#ea4335" clip-path="url(#id_0)" d="M457.0 300.0L453.0 300.0L453.0 300.0C453.0 300.0 453.0 300.0 453.0 300.0L457.0 300.0C457.0 300.0 457.0 300.0 457.0 300.0Z" fill-rule="nonzero"/><path stroke="#000000" stroke-width="0.0" stroke-linecap="butt" stroke-opacity="0.0" clip-path="url(#id_0)" d="M87.0 300.0L83.0 300.0L83.0 86.0C83.0 84.89543 83.89543 84.0 85.0 84.0L85.0 84.0C86.10457 84.0 87.0 84.89543 87.0 86.0Z" fill-rule="nonzero"/><path fill="#fbbc04" clip-path="url(#id_0)" d="M87.0 300.0L83.0 300.0L83.0 86.0C83.0 84.89543 83.89543 84.0 85.0 84.0L85.0 84.0C86.10457 84.0 87.0 84.89543 87.0 86.0Z" fill-rule="nonzero"/><path stroke="#000000" stroke-width="0.0" stroke-linecap="butt" stroke-opacity="0.0" clip-path="url(#id_0)" d="M128.0 300.0L124.0 300.0L124.0 83.0C124.0 81.89543 124.89543 81.0 126.0 81.0L126.0 81.0C127.10457 81.0 128.0 81.89543 128.0 83.0Z" fill-rule="nonzero"/><path fill="#fbbc04" clip-path="url(#id_0)" d="M128.0 300.0L124.0 300.0L124.0 83.0C124.0 81.89543 124.89543 81.0 126.0 81.0L126.0 81.0C127.10457 81.0 128.0 81.89543 128.0 83.0Z" fill-rule="nonzero"/><path stroke="#000000" stroke-width="0.0" stroke-linecap="butt" stroke-opacity="0.0" clip-path="url(#id_0)" d="M170.0 300.0L166.0 300.0L166.0 85.0C166.0 83.89543 166.89543 83.0 168.0 83.0L168.0 83.0C169.10457 83.0 170.0 83.89543 170.0 85.0Z" fill-rule="nonzero"/><path fill="#fbbc04" clip-path="url(#id_0)" d="M170.0 300.0L166.0 300.0L166.0 85.0C166.0 83.89543 166.89543 83.0 168.0 83.0L168.0 83.0C169.10457 83.0 170.0 83.89543 170.0 85.0Z" fill-rule="nonzero"/><path stroke="#000000" stroke-width="0.0" stroke-linecap="butt" stroke-opacity="0.0" clip-path="url(#id_0)" d="M212.0 300.0L208.0 300.0L208.0 85.0C208.0 83.89543 208.89543 83.0 210.0 83.0L210.0 83.0C211.10457 83.0 212.0 83.89543 212.0 85.0Z" fill-rule="nonzero"/><path fill="#fbbc04" clip-path="url(#id_0)" d="M212.0 300.0L208.0 300.0L208.0 85.0C208.0 83.89543 208.89543 83.0 210.0 83.0L210.0 83.0C211.10457 83.0 212.0 83.89543 212.0 85.0Z" fill-rule="nonzero"/><path stroke="#000000" stroke-width="0.0" stroke-linecap="butt" stroke-opacity="0.0" clip-path="url(#id_0)" d="M253.0 300.0L249.0 300.0L249.0 85.0C249.0 83.89543 249.89543 83.0 251.0 83.0L251.0 83.0C252.10457 83.0 253.0 83.89543 253.0 85.0Z" fill-rule="nonzero"/><path fill="#fbbc04" clip-path="url(#id_0)" d="M253.0 300.0L249.0 300.0L249.0 85.0C249.0 83.89543 249.89543 83.0 251.0 83.0L251.0 83.0C252.10457 83.0 253.0 83.89543 253.0 85.0Z" fill-rule="nonzero"/><path stroke="#000000" stroke-width="0.0" stroke-linecap="butt" stroke-opacity="0.0" clip-path="url(#id_0)" d="M295.0 300.0L291.0 300.0L291.0 84.0C291.0 82.89543 291.89542 82.0 293.0 82.0L293.0 82.0C294.10458 82.0 295.0 82.89543 295.0 84.0Z" fill-rule="nonzero"/><path fill="#fbbc04" clip-path="url(#id_0)" d="M295.0 300.0L291.0 300.0L291.0 84.0C291.0 82.89543 291.89542 82.0 293.0 82.0L293.0 82.0C294.10458 82.0 295.0 82.89543 295.0 84.0Z" fill-rule="nonzero"/><path stroke="#000000" stroke-width="0.0" stroke-linecap="butt" stroke-opacity="0.0" clip-path="url(#id_0)" d="M337.0 300.0L333.0 300.0L333.0 84.0C333.0 82.89543 333.89542 82.0 335.0 82.0L335.0 82.0C336.10458 82.0 337.0 82.89543 337.0 84.0Z" fill-rule="nonzero"/><path fill="#fbbc04" clip-path="url(#id_0)" d="M337.0 300.0L333.0 300.0L333.0 84.0C333.0 82.89543 333.89542 82.0 335.0 82.0L335.0 82.0C336.10458 82.0 337.0 82.89543 337.0 84.0Z" fill-rule="nonzero"/><path stroke="#000000" stroke-width="0.0" stroke-linecap="butt" stroke-opacity="0.0" clip-path="url(#id_0)" d="M378.0 300.0L374.0 300.0L374.0 85.0C374.0 83.89543 374.89542 83.0 376.0 83.0L376.0 83.0C377.10458 83.0 378.0 83.89543 378.0 85.0Z" fill-rule="nonzero"/><path fill="#fbbc04" clip-path="url(#id_0)" d="M378.0 300.0L374.0 300.0L374.0 85.0C374.0 83.89543 374.89542 83.0 376.0 83.0L376.0 83.0C377.10458 83.0 378.0 83.89543 378.0 85.0Z" fill-rule="nonzero"/><path stroke="#000000" stroke-width="0.0" stroke-linecap="butt" stroke-opacity="0.0" clip-path="url(#id_0)" d="M420.0 300.0L416.0 300.0L416.0 84.0C416.0 82.89543 416.89542 82.0 418.0 82.0L418.0 82.0C419.10458 82.0 420.0 82.89543 420.0 84.0Z" fill-rule="nonzero"/><path fill="#fbbc04" clip-path="url(#id_0)" d="M420.0 300.0L416.0 300.0L416.0 84.0C416.0 82.89543 416.89542 82.0 418.0 82.0L418.0 82.0C419.10458 82.0 420.0 82.89543 420.0 84.0Z" fill-rule="nonzero"/><path stroke="#000000" stroke-width="0.0" stroke-linecap="butt" stroke-opacity="0.0" clip-path="url(#id_0)" d="M462.0 300.0L458.0 300.0L458.0 84.0C458.0 82.89543 458.89542 82.0 460.0 82.0L460.0 82.0C461.10458 82.0 462.0 82.89543 462.0 84.0Z" fill-rule="nonzero"/><path fill="#fbbc04" clip-path="url(#id_0)" d="M462.0 300.0L458.0 300.0L458.0 84.0C458.0 82.89543 458.89542 82.0 460.0 82.0L460.0 82.0C461.10458 82.0 462.0 82.89543 462.0 84.0Z" fill-rule="nonzero"/><path stroke="#000000" stroke-width="0.0" stroke-linecap="butt" stroke-opacity="0.0" clip-path="url(#id_0)" d="M92.0 300.0L88.0 300.0L88.0 299.0C88.0 298.44772 88.447716 298.0 89.0 298.0L91.0 298.0C91.552284 298.0 92.0 298.44772 92.0 299.0Z" fill-rule="nonzero"/><path fill="#34a853" clip-path="url(#id_0)" d="M92.0 300.0L88.0 300.0L88.0 299.0C88.0 298.44772 88.447716 298.0 89.0 298.0L91.0 298.0C91.552284 298.0 92.0 298.44772 92.0 299.0Z" fill-rule="nonzero"/><path stroke="#000000" stroke-width="0.0" stroke-linecap="butt" stroke-opacity="0.0" clip-path="url(#id_0)" d="M133.0 300.0L129.0 300.0L129.0 299.0C129.0 298.44772 129.44771 298.0 130.0 298.0L132.0 298.0C132.55229 298.0 133.0 298.44772 133.0 299.0Z" fill-rule="nonzero"/><path fill="#34a853" clip-path="url(#id_0)" d="M133.0 300.0L129.0 300.0L129.0 299.0C129.0 298.44772 129.44771 298.0 130.0 298.0L132.0 298.0C132.55229 298.0 133.0 298.44772 133.0 299.0Z" fill-rule="nonzero"/><path stroke="#000000" stroke-width="0.0" stroke-linecap="butt" stroke-opacity="0.0" clip-path="url(#id_0)" d="M175.0 300.0L171.0 300.0L171.0 299.0C171.0 298.44772 171.44771 298.0 172.0 298.0L174.0 298.0C174.55229 298.0 175.0 298.44772 175.0 299.0Z" fill-rule="nonzero"/><path fill="#34a853" clip-path="url(#id_0)" d="M175.0 300.0L171.0 300.0L171.0 299.0C171.0 298.44772 171.44771 298.0 172.0 298.0L174.0 298.0C174.55229 298.0 175.0 298.44772 175.0 299.0Z" fill-rule="nonzero"/><path stroke="#000000" stroke-width="0.0" stroke-linecap="butt" stroke-opacity="0.0" clip-path="url(#id_0)" d="M217.0 300.0L213.0 300.0L213.0 299.0C213.0 298.44772 213.44771 298.0 214.0 298.0L216.0 298.0C216.55229 298.0 217.0 298.44772 217.0 299.0Z" fill-rule="nonzero"/><path fill="#34a853" clip-path="url(#id_0)" d="M217.0 300.0L213.0 300.0L213.0 299.0C213.0 298.44772 213.44771 298.0 214.0 298.0L216.0 298.0C216.55229 298.0 217.0 298.44772 217.0 299.0Z" fill-rule="nonzero"/><path stroke="#000000" stroke-width="0.0" stroke-linecap="butt" stroke-opacity="0.0" clip-path="url(#id_0)" d="M258.0 300.0L254.0 300.0L254.0 299.0C254.0 298.44772 254.44771 298.0 255.0 298.0L257.0 298.0C257.55228 298.0 258.0 298.44772 258.0 299.0Z" fill-rule="nonzero"/><path fill="#34a853" clip-path="url(#id_0)" d="M258.0 300.0L254.0 300.0L254.0 299.0C254.0 298.44772 254.44771 298.0 255.0 298.0L257.0 298.0C257.55228 298.0 258.0 298.44772 258.0 299.0Z" fill-rule="nonzero"/><path stroke="#000000" stroke-width="0.0" stroke-linecap="butt" stroke-opacity="0.0" clip-path="url(#id_0)" d="M300.0 300.0L296.0 300.0L296.0 299.0C296.0 298.44772 296.44772 298.0 297.0 298.0L299.0 298.0C299.55228 298.0 300.0 298.44772 300.0 299.0Z" fill-rule="nonzero"/><path fill="#34a853" clip-path="url(#id_0)" d="M300.0 300.0L296.0 300.0L296.0 299.0C296.0 298.44772 296.44772 298.0 297.0 298.0L299.0 298.0C299.55228 298.0 300.0 298.44772 300.0 299.0Z" fill-rule="nonzero"/><path stroke="#000000" stroke-width="0.0" stroke-linecap="butt" stroke-opacity="0.0" clip-path="url(#id_0)" d="M342.0 300.0L338.0 300.0L338.0 299.0C338.0 298.44772 338.44772 298.0 339.0 298.0L341.0 298.0C341.55228 298.0 342.0 298.44772 342.0 299.0Z" fill-rule="nonzero"/><path fill="#34a853" clip-path="url(#id_0)" d="M342.0 300.0L338.0 300.0L338.0 299.0C338.0 298.44772 338.44772 298.0 339.0 298.0L341.0 298.0C341.55228 298.0 342.0 298.44772 342.0 299.0Z" fill-rule="nonzero"/><path stroke="#000000" stroke-width="0.0" stroke-linecap="butt" stroke-opacity="0.0" clip-path="url(#id_0)" d="M383.0 300.0L379.0 300.0L379.0 299.0C379.0 298.44772 379.44772 298.0 380.0 298.0L382.0 298.0C382.55228 298.0 383.0 298.44772 383.0 299.0Z" fill-rule="nonzero"/><path fill="#34a853" clip-path="url(#id_0)" d="M383.0 300.0L379.0 300.0L379.0 299.0C379.0 298.44772 379.44772 298.0 380.0 298.0L382.0 298.0C382.55228 298.0 383.0 298.44772 383.0 299.0Z" fill-rule="nonzero"/><path stroke="#000000" stroke-width="0.0" stroke-linecap="butt" stroke-opacity="0.0" clip-path="url(#id_0)" d="M425.0 300.0L421.0 300.0L421.0 299.0C421.0 298.44772 421.44772 298.0 422.0 298.0L424.0 298.0C424.55228 298.0 425.0 298.44772 425.0 299.0Z" fill-rule="nonzero"/><path fill="#34a853" clip-path="url(#id_0)" d="M425.0 300.0L421.0 300.0L421.0 299.0C421.0 298.44772 421.44772 298.0 422.0 298.0L424.0 298.0C424.55228 298.0 425.0 298.44772 425.0 299.0Z" fill-rule="nonzero"/><path stroke="#000000" stroke-width="0.0" stroke-linecap="butt" stroke-opacity="0.0" clip-path="url(#id_0)" d="M467.0 300.0L463.0 300.0L463.0 299.0C463.0 298.44772 463.44772 298.0 464.0 298.0L466.0 298.0C466.55228 298.0 467.0 298.44772 467.0 299.0Z" fill-rule="nonzero"/><path fill="#34a853" clip-path="url(#id_0)" d="M467.0 300.0L463.0 300.0L463.0 299.0C463.0 298.44772 463.44772 298.0 464.0 298.0L466.0 298.0C466.55228 298.0 467.0 298.44772 467.0 299.0Z" fill-rule="nonzero"/><path stroke="#000000" stroke-width="0.0" stroke-linecap="butt" stroke-opacity="0.0" clip-path="url(#id_0)" d="M97.0 300.0L93.0 300.0L93.0 232.0C93.0 230.89543 93.89543 230.0 95.0 230.0L95.0 230.0C96.10457 230.0 97.0 230.89543 97.0 232.0Z" fill-rule="nonzero"/><path fill="#ff6d01" clip-path="url(#id_0)" d="M97.0 300.0L93.0 300.0L93.0 232.0C93.0 230.89543 93.89543 230.0 95.0 230.0L95.0 230.0C96.10457 230.0 97.0 230.89543 97.0 232.0Z" fill-rule="nonzero"/><path stroke="#000000" stroke-width="0.0" stroke-linecap="butt" stroke-opacity="0.0" clip-path="url(#id_0)" d="M138.0 300.0L134.0 300.0L134.0 232.0C134.0 230.89543 134.89543 230.0 136.0 230.0L136.0 230.0C137.10457 230.0 138.0 230.89543 138.0 232.0Z" fill-rule="nonzero"/><path fill="#ff6d01" clip-path="url(#id_0)" d="M138.0 300.0L134.0 300.0L134.0 232.0C134.0 230.89543 134.89543 230.0 136.0 230.0L136.0 230.0C137.10457 230.0 138.0 230.89543 138.0 232.0Z" fill-rule="nonzero"/><path stroke="#000000" stroke-width="0.0" stroke-linecap="butt" stroke-opacity="0.0" clip-path="url(#id_0)" d="M180.0 300.0L176.0 300.0L176.0 232.0C176.0 230.89543 176.89543 230.0 178.0 230.0L178.0 230.0C179.10457 230.0 180.0 230.89543 180.0 232.0Z" fill-rule="nonzero"/><path fill="#ff6d01" clip-path="url(#id_0)" d="M180.0 300.0L176.0 300.0L176.0 232.0C176.0 230.89543 176.89543 230.0 178.0 230.0L178.0 230.0C179.10457 230.0 180.0 230.89543 180.0 232.0Z" fill-rule="nonzero"/><path stroke="#000000" stroke-width="0.0" stroke-linecap="butt" stroke-opacity="0.0" clip-path="url(#id_0)" d="M222.0 300.0L218.0 300.0L218.0 232.0C218.0 230.89543 218.89543 230.0 220.0 230.0L220.0 230.0C221.10457 230.0 222.0 230.89543 222.0 232.0Z" fill-rule="nonzero"/><path fill="#ff6d01" clip-path="url(#id_0)" d="M222.0 300.0L218.0 300.0L218.0 232.0C218.0 230.89543 218.89543 230.0 220.0 230.0L220.0 230.0C221.10457 230.0 222.0 230.89543 222.0 232.0Z" fill-rule="nonzero"/><path stroke="#000000" stroke-width="0.0" stroke-linecap="butt" stroke-opacity="0.0" clip-path="url(#id_0)" d="M263.0 300.0L259.0 300.0L259.0 232.0C259.0 230.89543 259.89542 230.0 261.0 230.0L261.0 230.0C262.10458 230.0 263.0 230.89543 263.0 232.0Z" fill-rule="nonzero"/><path fill="#ff6d01" clip-path="url(#id_0)" d="M263.0 300.0L259.0 300.0L259.0 232.0C259.0 230.89543 259.89542 230.0 261.0 230.0L261.0 230.0C262.10458 230.0 263.0 230.89543 263.0 232.0Z" fill-rule="nonzero"/><path stroke="#000000" stroke-width="0.0" stroke-linecap="butt" stroke-opacity="0.0" clip-path="url(#id_0)" d="M305.0 300.0L301.0 300.0L301.0 232.0C301.0 230.89543 301.89542 230.0 303.0 230.0L303.0 230.0C304.10458 230.0 305.0 230.89543 305.0 232.0Z" fill-rule="nonzero"/><path fill="#ff6d01" clip-path="url(#id_0)" d="M305.0 300.0L301.0 300.0L301.0 232.0C301.0 230.89543 301.89542 230.0 303.0 230.0L303.0 230.0C304.10458 230.0 305.0 230.89543 305.0 232.0Z" fill-rule="nonzero"/><path stroke="#000000" stroke-width="0.0" stroke-linecap="butt" stroke-opacity="0.0" clip-path="url(#id_0)" d="M347.0 300.0L343.0 300.0L343.0 232.0C343.0 230.89543 343.89542 230.0 345.0 230.0L345.0 230.0C346.10458 230.0 347.0 230.89543 347.0 232.0Z" fill-rule="nonzero"/><path fill="#ff6d01" clip-path="url(#id_0)" d="M347.0 300.0L343.0 300.0L343.0 232.0C343.0 230.89543 343.89542 230.0 345.0 230.0L345.0 230.0C346.10458 230.0 347.0 230.89543 347.0 232.0Z" fill-rule="nonzero"/><path stroke="#000000" stroke-width="0.0" stroke-linecap="butt" stroke-opacity="0.0" clip-path="url(#id_0)" d="M388.0 300.0L384.0 300.0L384.0 232.0C384.0 230.89543 384.89542 230.0 386.0 230.0L386.0 230.0C387.10458 230.0 388.0 230.89543 388.0 232.0Z" fill-rule="nonzero"/><path fill="#ff6d01" clip-path="url(#id_0)" d="M388.0 300.0L384.0 300.0L384.0 232.0C384.0 230.89543 384.89542 230.0 386.0 230.0L386.0 230.0C387.10458 230.0 388.0 230.89543 388.0 232.0Z" fill-rule="nonzero"/><path stroke="#000000" stroke-width="0.0" stroke-linecap="butt" stroke-opacity="0.0" clip-path="url(#id_0)" d="M430.0 300.0L426.0 300.0L426.0 232.0C426.0 230.89543 426.89542 230.0 428.0 230.0L428.0 230.0C429.10458 230.0 430.0 230.89543 430.0 232.0Z" fill-rule="nonzero"/><path fill="#ff6d01" clip-path="url(#id_0)" d="M430.0 300.0L426.0 300.0L426.0 232.0C426.0 230.89543 426.89542 230.0 428.0 230.0L428.0 230.0C429.10458 230.0 430.0 230.89543 430.0 232.0Z" fill-rule="nonzero"/><path stroke="#000000" stroke-width="0.0" stroke-linecap="butt" stroke-opacity="0.0" clip-path="url(#id_0)" d="M472.0 300.0L468.0 300.0L468.0 231.0C468.0 229.89543 468.89542 229.0 470.0 229.0L470.0 229.0C471.10458 229.0 472.0 229.89543 472.0 231.0Z" fill-rule="nonzero"/><path fill="#ff6d01" clip-path="url(#id_0)" d="M472.0 300.0L468.0 300.0L468.0 231.0C468.0 229.89543 468.89542 229.0 470.0 229.0L470.0 229.0C471.10458 229.0 472.0 229.89543 472.0 231.0Z" fill-rule="nonzero"/><path stroke="#000000" stroke-width="0.0" stroke-linecap="butt" stroke-opacity="0.0" clip-path="url(#id_0)" d="M102.0 300.0L98.0 300.0L98.0 78.0C98.0 76.89543 98.89543 76.0 100.0 76.0L100.0 76.0C101.10457 76.0 102.0 76.89543 102.0 78.0Z" fill-rule="nonzero"/><path fill="#46bdc6" clip-path="url(#id_0)" d="M102.0 300.0L98.0 300.0L98.0 78.0C98.0 76.89543 98.89543 76.0 100.0 76.0L100.0 76.0C101.10457 76.0 102.0 76.89543 102.0 78.0Z" fill-rule="nonzero"/><path stroke="#000000" stroke-width="0.0" stroke-linecap="butt" stroke-opacity="0.0" clip-path="url(#id_0)" d="M143.0 300.0L139.0 300.0L139.0 76.0C139.0 74.89543 139.89543 74.0 141.0 74.0L141.0 74.0C142.10457 74.0 143.0 74.89543 143.0 76.0Z" fill-rule="nonzero"/><path fill="#46bdc6" clip-path="url(#id_0)" d="M143.0 300.0L139.0 300.0L139.0 76.0C139.0 74.89543 139.89543 74.0 141.0 74.0L141.0 74.0C142.10457 74.0 143.0 74.89543 143.0 76.0Z" fill-rule="nonzero"/><path stroke="#000000" stroke-width="0.0" stroke-linecap="butt" stroke-opacity="0.0" clip-path="url(#id_0)" d="M185.0 300.0L181.0 300.0L181.0 78.0C181.0 76.89543 181.89543 76.0 183.0 76.0L183.0 76.0C184.10457 76.0 185.0 76.89543 185.0 78.0Z" fill-rule="nonzero"/><path fill="#46bdc6" clip-path="url(#id_0)" d="M185.0 300.0L181.0 300.0L181.0 78.0C181.0 76.89543 181.89543 76.0 183.0 76.0L183.0 76.0C184.10457 76.0 185.0 76.89543 185.0 78.0Z" fill-rule="nonzero"/><path stroke="#000000" stroke-width="0.0" stroke-linecap="butt" stroke-opacity="0.0" clip-path="url(#id_0)" d="M227.0 300.0L223.0 300.0L223.0 77.0C223.0 75.89543 223.89543 75.0 225.0 75.0L225.0 75.0C226.10457 75.0 227.0 75.89543 227.0 77.0Z" fill-rule="nonzero"/><path fill="#46bdc6" clip-path="url(#id_0)" d="M227.0 300.0L223.0 300.0L223.0 77.0C223.0 75.89543 223.89543 75.0 225.0 75.0L225.0 75.0C226.10457 75.0 227.0 75.89543 227.0 77.0Z" fill-rule="nonzero"/><path stroke="#000000" stroke-width="0.0" stroke-linecap="butt" stroke-opacity="0.0" clip-path="url(#id_0)" d="M268.0 300.0L264.0 300.0L264.0 77.0C264.0 75.89543 264.89542 75.0 266.0 75.0L266.0 75.0C267.10458 75.0 268.0 75.89543 268.0 77.0Z" fill-rule="nonzero"/><path fill="#46bdc6" clip-path="url(#id_0)" d="M268.0 300.0L264.0 300.0L264.0 77.0C264.0 75.89543 264.89542 75.0 266.0 75.0L266.0 75.0C267.10458 75.0 268.0 75.89543 268.0 77.0Z" fill-rule="nonzero"/><path stroke="#000000" stroke-width="0.0" stroke-linecap="butt" stroke-opacity="0.0" clip-path="url(#id_0)" d="M310.0 300.0L306.0 300.0L306.0 77.0C306.0 75.89543 306.89542 75.0 308.0 75.0L308.0 75.0C309.10458 75.0 310.0 75.89543 310.0 77.0Z" fill-rule="nonzero"/><path fill="#46bdc6" clip-path="url(#id_0)" d="M310.0 300.0L306.0 300.0L306.0 77.0C306.0 75.89543 306.89542 75.0 308.0 75.0L308.0 75.0C309.10458 75.0 310.0 75.89543 310.0 77.0Z" fill-rule="nonzero"/><path stroke="#000000" stroke-width="0.0" stroke-linecap="butt" stroke-opacity="0.0" clip-path="url(#id_0)" d="M352.0 300.0L348.0 300.0L348.0 77.0C348.0 75.89543 348.89542 75.0 350.0 75.0L350.0 75.0C351.10458 75.0 352.0 75.89543 352.0 77.0Z" fill-rule="nonzero"/><path fill="#46bdc6" clip-path="url(#id_0)" d="M352.0 300.0L348.0 300.0L348.0 77.0C348.0 75.89543 348.89542 75.0 350.0 75.0L350.0 75.0C351.10458 75.0 352.0 75.89543 352.0 77.0Z" fill-rule="nonzero"/><path stroke="#000000" stroke-width="0.0" stroke-linecap="butt" stroke-opacity="0.0" clip-path="url(#id_0)" d="M393.0 300.0L389.0 300.0L389.0 77.0C389.0 75.89543 389.89542 75.0 391.0 75.0L391.0 75.0C392.10458 75.0 393.0 75.89543 393.0 77.0Z" fill-rule="nonzero"/><path fill="#46bdc6" clip-path="url(#id_0)" d="M393.0 300.0L389.0 300.0L389.0 77.0C389.0 75.89543 389.89542 75.0 391.0 75.0L391.0 75.0C392.10458 75.0 393.0 75.89543 393.0 77.0Z" fill-rule="nonzero"/><path stroke="#000000" stroke-width="0.0" stroke-linecap="butt" stroke-opacity="0.0" clip-path="url(#id_0)" d="M435.0 300.0L431.0 300.0L431.0 77.0C431.0 75.89543 431.89542 75.0 433.0 75.0L433.0 75.0C434.10458 75.0 435.0 75.89543 435.0 77.0Z" fill-rule="nonzero"/><path fill="#46bdc6" clip-path="url(#id_0)" d="M435.0 300.0L431.0 300.0L431.0 77.0C431.0 75.89543 431.89542 75.0 433.0 75.0L433.0 75.0C434.10458 75.0 435.0 75.89543 435.0 77.0Z" fill-rule="nonzero"/><path stroke="#000000" stroke-width="0.0" stroke-linecap="butt" stroke-opacity="0.0" clip-path="url(#id_0)" d="M477.0 300.0L473.0 300.0L473.0 76.0C473.0 74.89543 473.89542 74.0 475.0 74.0L475.0 74.0C476.10458 74.0 477.0 74.89543 477.0 76.0Z" fill-rule="nonzero"/><path fill="#46bdc6" clip-path="url(#id_0)" d="M477.0 300.0L473.0 300.0L473.0 76.0C473.0 74.89543 473.89542 74.0 475.0 74.0L475.0 74.0C476.10458 74.0 477.0 74.89543 477.0 76.0Z" fill-rule="nonzero"/><path fill="#000000" d="M254.53535 346.075L254.53535 345.075L258.16034 345.0594L258.16034 348.2469Q257.3322 348.91876 256.4416 349.2625Q255.55098 349.59064 254.61348 349.59064Q253.34785 349.59064 252.30098 349.0594Q251.26973 348.5125 250.73848 347.4969Q250.22285 346.46564 250.22285 345.2Q250.22285 343.9344 250.73848 342.85626Q251.26973 341.7625 252.2541 341.2469Q253.23848 340.71564 254.51973 340.71564Q255.45723 340.71564 256.2072 341.0125Q256.9572 341.3094 257.3791 341.85626Q257.8166 342.3875 258.03534 343.2625L257.0197 343.54376Q256.8166 342.8875 256.5197 342.5125Q256.23846 342.1375 255.70723 341.91876Q255.17598 341.6844 254.53535 341.6844Q253.7541 341.6844 253.17598 341.91876Q252.61348 342.15314 252.2541 342.54376Q251.91035 342.9344 251.72285 343.40314Q251.39473 344.2 251.39473 345.1219Q251.39473 346.27814 251.78535 347.0594Q252.1916 347.825 252.9416 348.2Q253.6916 348.575 254.55098 348.575Q255.28535 348.575 255.98848 348.29376Q256.6916 347.9969 257.05096 347.6844L257.05096 346.075L254.53535 346.075ZM259.36346 349.45L259.36346 343.23126L260.3166 343.23126L260.3166 344.16876Q260.67596 343.5125 260.97284 343.3094Q261.28534 343.09064 261.66034 343.09064Q262.1916 343.09064 262.73846 343.41876L262.3791 344.40314Q261.98846 344.16876 261.61346 344.16876Q261.2541 344.16876 260.97284 344.3875Q260.7072 344.59064 260.59784 344.96564Q260.41034 345.52814 260.41034 346.1844L260.41034 349.45L259.36346 349.45ZM267.4416 348.6844Q266.84784 349.1844 266.30096 349.3875Q265.7697 349.59064 265.1447 349.59064Q264.11346 349.59064 263.5666 349.09064Q263.0197 348.59064 263.0197 347.8094Q263.0197 347.35626 263.22284 346.98126Q263.42596 346.59064 263.7697 346.3719Q264.11346 346.1375 264.53534 346.02814Q264.8322 345.9344 265.47284 345.85626Q266.73846 345.71564 267.34784 345.4969Q267.34784 345.27814 267.34784 345.23126Q267.34784 344.575 267.05096 344.3094Q266.6447 343.96564 265.84784 343.96564Q265.11346 343.96564 264.7541 344.23126Q264.3947 344.48126 264.22284 345.1375L263.1916 344.9969Q263.3322 344.34064 263.66034 343.9344Q263.98846 343.52814 264.59784 343.3094Q265.2072 343.09064 266.0041 343.09064Q266.80096 343.09064 267.30096 343.27814Q267.80096 343.46564 268.03534 343.7469Q268.2697 344.02814 268.36346 344.46564Q268.41034 344.73126 268.41034 345.4344L268.41034 346.84064Q268.41034 348.3094 268.47284 348.7Q268.55096 349.09064 268.7541 349.45L267.6447 349.45Q267.48846 349.1219 267.4416 348.6844ZM267.34784 346.325Q266.7697 346.5594 265.6291 346.73126Q264.97284 346.825 264.7072 346.95Q264.4416 347.0594 264.28534 347.27814Q264.1447 347.4969 264.1447 347.77814Q264.1447 348.2 264.4572 348.48126Q264.78534 348.7625 265.3947 348.7625Q266.0041 348.7625 266.47284 348.4969Q266.9572 348.23126 267.17596 347.7625Q267.34784 347.40314 267.34784 346.71564L267.34784 346.325ZM270.3791 349.45L270.3791 343.23126L271.3166 343.23126L271.3166 344.10626Q271.61346 343.6375 272.09784 343.3719Q272.5822 343.09064 273.2072 343.09064Q273.8947 343.09064 274.3322 343.3719Q274.78534 343.65314 274.9572 344.16876Q275.7072 343.09064 276.8791 343.09064Q277.8166 343.09064 278.30096 343.60626Q278.80096 344.10626 278.80096 345.1844L278.80096 349.45L277.7541 349.45L277.7541 345.52814Q277.7541 344.90314 277.6447 344.6219Q277.55096 344.34064 277.28534 344.16876Q277.0197 343.9969 276.6447 343.9969Q275.98846 343.9969 275.55096 344.4344Q275.1291 344.8719 275.1291 345.84064L275.1291 349.45L274.0666 349.45L274.0666 345.40314Q274.0666 344.7 273.80096 344.35626Q273.55096 343.9969 272.97284 343.9969Q272.5197 343.9969 272.1447 344.23126Q271.7697 344.46564 271.59784 344.91876Q271.42596 345.3719 271.42596 346.21564L271.42596 349.45L270.3791 349.45ZM280.3791 349.45L280.3791 343.23126L281.3166 343.23126L281.3166 344.10626Q281.61346 343.6375 282.09784 343.3719Q282.5822 343.09064 283.2072 343.09064Q283.8947 343.09064 284.3322 343.3719Q284.78534 343.65314 284.9572 344.16876Q285.7072 343.09064 286.8791 343.09064Q287.8166 343.09064 288.30096 343.60626Q288.80096 344.10626 288.80096 345.1844L288.80096 349.45L287.7541 349.45L287.7541 345.52814Q287.7541 344.90314 287.6447 344.6219Q287.55096 344.34064 287.28534 344.16876Q287.0197 343.9969 286.6447 343.9969Q285.98846 343.9969 285.55096 344.4344Q285.1291 344.8719 285.1291 345.84064L285.1291 349.45L284.0666 349.45L284.0666 345.40314Q284.0666 344.7 283.80096 344.35626Q283.55096 343.9969 282.97284 343.9969Q282.5197 343.9969 282.1447 344.23126Q281.7697 344.46564 281.59784 344.91876Q281.42596 345.3719 281.42596 346.21564L281.42596 349.45L280.3791 349.45ZM294.4416 348.6844Q293.84784 349.1844 293.30096 349.3875Q292.7697 349.59064 292.1447 349.59064Q291.11346 349.59064 290.5666 349.09064Q290.0197 348.59064 290.0197 347.8094Q290.0197 347.35626 290.22284 346.98126Q290.42596 346.59064 290.7697 346.3719Q291.11346 346.1375 291.53534 346.02814Q291.8322 345.9344 292.47284 345.85626Q293.73846 345.71564 294.34784 345.4969Q294.34784 345.27814 294.34784 345.23126Q294.34784 344.575 294.05096 344.3094Q293.6447 343.96564 292.84784 343.96564Q292.11346 343.96564 291.7541 344.23126Q291.3947 344.48126 291.22284 345.1375L290.1916 344.9969Q290.3322 344.34064 290.66034 343.9344Q290.98846 343.52814 291.59784 343.3094Q292.2072 343.09064 293.0041 343.09064Q293.80096 343.09064 294.30096 343.27814Q294.80096 343.46564 295.03534 343.7469Q295.2697 344.02814 295.36346 344.46564Q295.41034 344.73126 295.41034 345.4344L295.41034 346.84064Q295.41034 348.3094 295.47284 348.7Q295.55096 349.09064 295.7541 349.45L294.6447 349.45Q294.48846 349.1219 294.4416 348.6844ZM294.34784 346.325Q293.7697 346.5594 292.6291 346.73126Q291.97284 346.825 291.7072 346.95Q291.4416 347.0594 291.28534 347.27814Q291.1447 347.4969 291.1447 347.77814Q291.1447 348.2 291.4572 348.48126Q291.78534 348.7625 292.3947 348.7625Q293.0041 348.7625 293.47284 348.4969Q293.9572 348.23126 294.17596 347.7625Q294.34784 347.40314 294.34784 346.71564L294.34784 346.325ZM297.36346 349.45L297.36346 343.23126L298.3166 343.23126L298.3166 344.16876Q298.67596 343.5125 298.97284 343.3094Q299.28534 343.09064 299.66034 343.09064Q300.1916 343.09064 300.73846 343.41876L300.3791 344.40314Q299.98846 344.16876 299.61346 344.16876Q299.2541 344.16876 298.97284 344.3875Q298.7072 344.59064 298.59784 344.96564Q298.41034 345.52814 298.41034 346.1844L298.41034 349.45L297.36346 349.45Z" fill-rule="nonzero"/><path fill="#000000" d="M47.05 300.21564Q47.05 298.6844 47.3625 297.7625Q47.675 296.825 48.284374 296.325Q48.909374 295.825 49.846874 295.825Q50.534374 295.825 51.05 296.10626Q51.58125 296.3875 51.925 296.91876Q52.26875 297.4344 52.45625 298.1844Q52.64375 298.9344 52.64375 300.21564Q52.64375 301.73126 52.33125 302.65314Q52.034374 303.575 51.409374 304.09064Q50.8 304.59064 49.846874 304.59064Q48.6125 304.59064 47.89375 303.7Q47.05 302.6375 47.05 300.21564ZM48.128124 300.21564Q48.128124 302.325 48.628124 303.02814Q49.128124 303.73126 49.846874 303.73126Q50.58125 303.73126 51.065624 303.02814Q51.565624 302.325 51.565624 300.21564Q51.565624 298.09064 51.065624 297.40314Q50.58125 296.7 49.83125 296.7Q49.1125 296.7 48.675 297.3094Q48.128124 298.09064 48.128124 300.21564Z" fill-rule="nonzero"/><path fill="#000000" d="M26.05 222.68889L27.159374 222.59514Q27.284374 223.40764 27.721874 223.81389Q28.175 224.22014 28.815624 224.22014Q29.565624 224.22014 30.096874 223.64201Q30.628124 223.06389 30.628124 222.12639Q30.628124 221.22014 30.1125 220.70451Q29.6125 220.17326 28.784374 220.17326Q28.284374 220.17326 27.8625 220.40764Q27.45625 220.64201 27.221874 221.00139L26.2375 220.87639L27.065624 216.47014L31.346874 216.47014L31.346874 217.47014L27.909374 217.47014L27.45625 219.78264Q28.221874 219.23576 29.065624 219.23576Q30.190624 219.23576 30.95625 220.01701Q31.7375 220.79826 31.7375 222.03264Q31.7375 223.18889 31.065624 224.04826Q30.2375 225.07951 28.815624 225.07951Q27.64375 225.07951 26.89375 224.42326Q26.159374 223.76701 26.05 222.68889ZM33.05 220.70451Q33.05 219.17326 33.3625 218.25139Q33.675 217.31389 34.284374 216.81389Q34.909374 216.31389 35.846874 216.31389Q36.534374 216.31389 37.05 216.59514Q37.58125 216.87639 37.925 217.40764Q38.26875 217.92326 38.45625 218.67326Q38.64375 219.42326 38.64375 220.70451Q38.64375 222.22014 38.33125 223.14201Q38.034374 224.06389 37.409374 224.57951Q36.8 225.07951 35.846874 225.07951Q34.6125 225.07951 33.89375 224.18889Q33.05 223.12639 33.05 220.70451ZM34.128124 220.70451Q34.128124 222.81389 34.628124 223.51701Q35.128124 224.22014 35.846874 224.22014Q36.58125 224.22014 37.065624 223.51701Q37.565624 222.81389 37.565624 220.70451Q37.565624 218.57951 37.065624 217.89201Q36.58125 217.18889 35.83125 217.18889Q35.1125 217.18889 34.675 217.79826Q34.128124 218.57951 34.128124 220.70451ZM40.05 220.70451Q40.05 219.17326 40.3625 218.25139Q40.675 217.31389 41.284374 216.81389Q41.909374 216.31389 42.846874 216.31389Q43.534374 216.31389 44.05 216.59514Q44.58125 216.87639 44.925 217.40764Q45.26875 217.92326 45.45625 218.67326Q45.64375 219.42326 45.64375 220.70451Q45.64375 222.22014 45.33125 223.14201Q45.034374 224.06389 44.409374 224.57951Q43.8 225.07951 42.846874 225.07951Q41.6125 225.07951 40.89375 224.18889Q40.05 223.12639 40.05 220.70451ZM41.128124 220.70451Q41.128124 222.81389 41.628124 223.51701Q42.128124 224.22014 42.846874 224.22014Q43.58125 224.22014 44.065624 223.51701Q44.565624 222.81389 44.565624 220.70451Q44.565624 218.57951 44.065624 217.89201Q43.58125 217.18889 42.83125 217.18889Q42.1125 217.18889 41.675 217.79826Q41.128124 218.57951 41.128124 220.70451ZM47.05 220.70451Q47.05 219.17326 47.3625 218.25139Q47.675 217.31389 48.284374 216.81389Q48.909374 216.31389 49.846874 216.31389Q50.534374 216.31389 51.05 216.59514Q51.58125 216.87639 51.925 217.40764Q52.26875 217.92326 52.45625 218.67326Q52.64375 219.42326 52.64375 220.70451Q52.64375 222.22014 52.33125 223.14201Q52.034374 224.06389 51.409374 224.57951Q50.8 225.07951 49.846874 225.07951Q48.6125 225.07951 47.89375 224.18889Q47.05 223.12639 47.05 220.70451ZM48.128124 220.70451Q48.128124 222.81389 48.628124 223.51701Q49.128124 224.22014 49.846874 224.22014Q50.58125 224.22014 51.065624 223.51701Q51.565624 222.81389 51.565624 220.70451Q51.565624 218.57951 51.065624 217.89201Q50.58125 217.18889 49.83125 217.18889Q49.1125 217.18889 48.675 217.79826Q48.128124 218.57951 48.128124 220.70451Z" fill-rule="nonzero"/><path fill="#000000" d="M23.01875 145.42778L21.971874 145.42778L21.971874 138.70903Q21.58125 139.0684 20.95625 139.4434Q20.346874 139.80278 19.8625 139.97466L19.8625 138.95903Q20.7375 138.53716 21.39375 137.95903Q22.065624 137.36528 22.346874 136.80278L23.01875 136.80278L23.01875 145.42778ZM26.05 141.1934Q26.05 139.66216 26.3625 138.74028Q26.675 137.80278 27.284374 137.30278Q27.909374 136.80278 28.846874 136.80278Q29.534374 136.80278 30.05 137.08403Q30.58125 137.36528 30.925 137.89653Q31.26875 138.41216 31.45625 139.16216Q31.64375 139.91216 31.64375 141.1934Q31.64375 142.70903 31.33125 143.6309Q31.034374 144.55278 30.409374 145.0684Q29.8 145.5684 28.846874 145.5684Q27.6125 145.5684 26.89375 144.67778Q26.05 143.61528 26.05 141.1934ZM27.128124 141.1934Q27.128124 143.30278 27.628124 144.0059Q28.128124 144.70903 28.846874 144.70903Q29.58125 144.70903 30.065624 144.0059Q30.565624 143.30278 30.565624 141.1934Q30.565624 139.0684 30.065624 138.3809Q29.58125 137.67778 28.83125 137.67778Q28.1125 137.67778 27.675 138.28716Q27.128124 139.0684 27.128124 141.1934ZM33.05 141.1934Q33.05 139.66216 33.3625 138.74028Q33.675 137.80278 34.284374 137.30278Q34.909374 136.80278 35.846874 136.80278Q36.534374 136.80278 37.05 137.08403Q37.58125 137.36528 37.925 137.89653Q38.26875 138.41216 38.45625 139.16216Q38.64375 139.91216 38.64375 141.1934Q38.64375 142.70903 38.33125 143.6309Q38.034374 144.55278 37.409374 145.0684Q36.8 145.5684 35.846874 145.5684Q34.6125 145.5684 33.89375 144.67778Q33.05 143.61528 33.05 141.1934ZM34.128124 141.1934Q34.128124 143.30278 34.628124 144.0059Q35.128124 144.70903 35.846874 144.70903Q36.58125 144.70903 37.065624 144.0059Q37.565624 143.30278 37.565624 141.1934Q37.565624 139.0684 37.065624 138.3809Q36.58125 137.67778 35.83125 137.67778Q35.1125 137.67778 34.675 138.28716Q34.128124 139.0684 34.128124 141.1934ZM40.05 141.1934Q40.05 139.66216 40.3625 138.74028Q40.675 137.80278 41.284374 137.30278Q41.909374 136.80278 42.846874 136.80278Q43.534374 136.80278 44.05 137.08403Q44.58125 137.36528 44.925 137.89653Q45.26875 138.41216 45.45625 139.16216Q45.64375 139.91216 45.64375 141.1934Q45.64375 142.70903 45.33125 143.6309Q45.034374 144.55278 44.409374 145.0684Q43.8 145.5684 42.846874 145.5684Q41.6125 145.5684 40.89375 144.67778Q40.05 143.61528 40.05 141.1934ZM41.128124 141.1934Q41.128124 143.30278 41.628124 144.0059Q42.128124 144.70903 42.846874 144.70903Q43.58125 144.70903 44.065624 144.0059Q44.565624 143.30278 44.565624 141.1934Q44.565624 139.0684 44.065624 138.3809Q43.58125 137.67778 42.83125 137.67778Q42.1125 137.67778 41.675 138.28716Q41.128124 139.0684 41.128124 141.1934ZM47.05 141.1934Q47.05 139.66216 47.3625 138.74028Q47.675 137.80278 48.284374 137.30278Q48.909374 136.80278 49.846874 136.80278Q50.534374 136.80278 51.05 137.08403Q51.58125 137.36528 51.925 137.89653Q52.26875 138.41216 52.45625 139.16216Q52.64375 139.91216 52.64375 141.1934Q52.64375 142.70903 52.33125 143.6309Q52.034374 144.55278 51.409374 145.0684Q50.8 145.5684 49.846874 145.5684Q48.6125 145.5684 47.89375 144.67778Q47.05 143.61528 47.05 141.1934ZM48.128124 141.1934Q48.128124 143.30278 48.628124 144.0059Q49.128124 144.70903 49.846874 144.70903Q50.58125 144.70903 51.065624 144.0059Q51.565624 143.30278 51.565624 141.1934Q51.565624 139.0684 51.065624 138.3809Q50.58125 137.67778 49.83125 137.67778Q49.1125 137.67778 48.675 138.28716Q48.128124 139.0684 48.128124 141.1934Z" fill-rule="nonzero"/><path fill="#000000" d="M23.01875 65.916664L21.971874 65.916664L21.971874 59.197914Q21.58125 59.55729 20.95625 59.93229Q20.346874 60.291664 19.8625 60.46354L19.8625 59.447914Q20.7375 59.02604 21.39375 58.447914Q22.065624 57.854164 22.346874 57.291664L23.01875 57.291664L23.01875 65.916664ZM26.05 63.666664L27.159374 63.572914Q27.284374 64.385414 27.721874 64.791664Q28.175 65.197914 28.815624 65.197914Q29.565624 65.197914 30.096874 64.61979Q30.628124 64.041664 30.628124 63.104164Q30.628124 62.197914 30.1125 61.68229Q29.6125 61.15104 28.784374 61.15104Q28.284374 61.15104 27.8625 61.385414Q27.45625 61.61979 27.221874 61.979164L26.2375 61.854164L27.065624 57.447914L31.346874 57.447914L31.346874 58.447914L27.909374 58.447914L27.45625 60.760414Q28.221874 60.21354 29.065624 60.21354Q30.190624 60.21354 30.95625 60.99479Q31.7375 61.77604 31.7375 63.010414Q31.7375 64.166664 31.065624 65.02604Q30.2375 66.05729 28.815624 66.05729Q27.64375 66.05729 26.89375 65.40104Q26.159374 64.74479 26.05 63.666664ZM33.05 61.68229Q33.05 60.15104 33.3625 59.229164Q33.675 58.291664 34.284374 57.791664Q34.909374 57.291664 35.846874 57.291664Q36.534374 57.291664 37.05 57.572914Q37.58125 57.854164 37.925 58.385414Q38.26875 58.90104 38.45625 59.65104Q38.64375 60.40104 38.64375 61.68229Q38.64375 63.197914 38.33125 64.11979Q38.034374 65.041664 37.409374 65.55729Q36.8 66.05729 35.846874 66.05729Q34.6125 66.05729 33.89375 65.166664Q33.05 64.104164 33.05 61.68229ZM34.128124 61.68229Q34.128124 63.791664 34.628124 64.49479Q35.128124 65.197914 35.846874 65.197914Q36.58125 65.197914 37.065624 64.49479Q37.565624 63.791664 37.565624 61.68229Q37.565624 59.55729 37.065624 58.86979Q36.58125 58.166664 35.83125 58.166664Q35.1125 58.166664 34.675 58.77604Q34.128124 59.55729 34.128124 61.68229ZM40.05 61.68229Q40.05 60.15104 40.3625 59.229164Q40.675 58.291664 41.284374 57.791664Q41.909374 57.291664 42.846874 57.291664Q43.534374 57.291664 44.05 57.572914Q44.58125 57.854164 44.925 58.385414Q45.26875 58.90104 45.45625 59.65104Q45.64375 60.40104 45.64375 61.68229Q45.64375 63.197914 45.33125 64.11979Q45.034374 65.041664 44.409374 65.55729Q43.8 66.05729 42.846874 66.05729Q41.6125 66.05729 40.89375 65.166664Q40.05 64.104164 40.05 61.68229ZM41.128124 61.68229Q41.128124 63.791664 41.628124 64.49479Q42.128124 65.197914 42.846874 65.197914Q43.58125 65.197914 44.065624 64.49479Q44.565624 63.791664 44.565624 61.68229Q44.565624 59.55729 44.065624 58.86979Q43.58125 58.166664 42.83125 58.166664Q42.1125 58.166664 41.675 58.77604Q41.128124 59.55729 41.128124 61.68229ZM47.05 61.68229Q47.05 60.15104 47.3625 59.229164Q47.675 58.291664 48.284374 57.791664Q48.909374 57.291664 49.846874 57.291664Q50.534374 57.291664 51.05 57.572914Q51.58125 57.854164 51.925 58.385414Q52.26875 58.90104 52.45625 59.65104Q52.64375 60.40104 52.64375 61.68229Q52.64375 63.197914 52.33125 64.11979Q52.034374 65.041664 51.409374 65.55729Q50.8 66.05729 49.846874 66.05729Q48.6125 66.05729 47.89375 65.166664Q47.05 64.104164 47.05 61.68229ZM48.128124 61.68229Q48.128124 63.791664 48.628124 64.49479Q49.128124 65.197914 49.846874 65.197914Q50.58125 65.197914 51.065624 64.49479Q51.565624 63.791664 51.565624 61.68229Q51.565624 59.55729 51.065624 58.86979Q50.58125 58.166664 49.83125 58.166664Q49.1125 58.166664 48.675 58.77604Q48.128124 59.55729 48.128124 61.68229Z" fill-rule="nonzero"/><path fill="#000000" d="M88.631645 317.45L87.58477 317.45L87.58477 310.73126Q87.194145 311.09064 86.569145 311.46564Q85.95977 311.825 85.475395 311.9969L85.475395 310.98126Q86.350395 310.5594 87.006645 309.98126Q87.67852 309.3875 87.95977 308.825L88.631645 308.825L88.631645 317.45Z" fill-rule="nonzero"/><path fill="#000000" d="M131.85852 316.4344L131.85852 317.45L126.17101 317.45Q126.17101 317.075 126.29601 316.71564Q126.51476 316.1375 126.98351 315.575Q127.46789 315.0125 128.37415 314.27814Q129.7804 313.1219 130.26477 312.45Q130.76477 311.77814 130.76477 311.1844Q130.76477 310.5594 130.31165 310.1375Q129.85852 309.7 129.13977 309.7Q128.37415 309.7 127.92101 310.15314Q127.46789 310.60626 127.45226 311.41876L126.37414 311.3094Q126.48351 310.09064 127.20226 309.46564Q127.93664 308.825 129.17102 308.825Q130.4054 308.825 131.12415 309.5125Q131.8429 310.2 131.8429 311.21564Q131.8429 311.73126 131.62415 312.23126Q131.42102 312.71564 130.92102 313.27814Q130.43665 313.825 129.31165 314.77814Q128.35852 315.575 128.07727 315.8719Q127.81164 316.15314 127.63976 316.4344L131.85852 316.4344Z" fill-rule="nonzero"/><path fill="#000000" d="M167.96037 315.1844L169.02287 315.04376Q169.19475 315.9344 169.63225 316.34064Q170.06975 316.73126 170.69475 316.73126Q171.44475 316.73126 171.96037 316.21564Q172.476 315.7 172.476 314.9344Q172.476 314.21564 171.99162 313.7469Q171.52287 313.2625 170.7885 313.2625Q170.49162 313.2625 170.0385 313.3875L170.1635 312.45Q170.27287 312.46564 170.33537 312.46564Q171.00725 312.46564 171.5385 312.1219Q172.08537 311.7625 172.08537 311.02814Q172.08537 310.45 171.69475 310.075Q171.30412 309.6844 170.67912 309.6844Q170.06975 309.6844 169.64787 310.075Q169.24162 310.46564 169.13225 311.23126L168.06975 311.04376Q168.25725 309.9969 168.94475 309.41876Q169.63225 308.825 170.64787 308.825Q171.351 308.825 171.94475 309.1375Q172.5385 309.4344 172.851 309.95Q173.1635 310.46564 173.1635 311.0594Q173.1635 311.60626 172.86662 312.075Q172.56975 312.52814 171.99162 312.79376Q172.74162 312.96564 173.1635 313.52814Q173.58537 314.075 173.58537 314.91876Q173.58537 316.04376 172.75725 316.825Q171.94475 317.60626 170.69475 317.60626Q169.56975 317.60626 168.81975 316.9344Q168.06975 316.2469 167.96037 315.1844Z" fill-rule="nonzero"/><path fill="#000000" d="M212.98412 317.45L212.98412 315.3875L209.26537 315.3875L209.26537 314.41876L213.18724 308.85626L214.04662 308.85626L214.04662 314.41876L215.20287 314.41876L215.20287 315.3875L214.04662 315.3875L214.04662 317.45L212.98412 317.45ZM212.98412 314.41876L212.98412 310.5594L210.29662 314.41876L212.98412 314.41876Z" fill-rule="nonzero"/><path fill="#000000" d="M251.25786 315.2L252.36723 315.10626Q252.49223 315.91876 252.92973 316.325Q253.38286 316.73126 254.02348 316.73126Q254.77348 316.73126 255.30473 316.15314Q255.83598 315.575 255.83598 314.6375Q255.83598 313.73126 255.32036 313.21564Q254.82036 312.6844 253.99223 312.6844Q253.49223 312.6844 253.07036 312.91876Q252.66411 313.15314 252.42973 313.5125L251.44536 313.3875L252.27348 308.98126L256.55475 308.98126L256.55475 309.98126L253.11723 309.98126L252.66411 312.29376Q253.42973 311.7469 254.27348 311.7469Q255.39848 311.7469 256.16412 312.52814Q256.94537 313.3094 256.94537 314.54376Q256.94537 315.7 256.2735 316.5594Q255.44536 317.59064 254.02348 317.59064Q252.85161 317.59064 252.10161 316.9344Q251.36723 316.27814 251.25786 315.2Z" fill-rule="nonzero"/><path fill="#000000" d="M298.37534 310.96564L297.32846 311.04376Q297.18784 310.41876 296.93784 310.1375Q296.50034 309.6844 295.87534 309.6844Q295.37534 309.6844 294.9847 309.96564Q294.50034 310.34064 294.20346 311.04376Q293.9222 311.73126 293.9066 313.0125Q294.2816 312.4344 294.82846 312.15314Q295.39096 311.8719 296.00034 311.8719Q297.0472 311.8719 297.7816 312.65314Q298.5316 313.4344 298.5316 314.65314Q298.5316 315.46564 298.1722 316.16876Q297.82846 316.85626 297.2191 317.23126Q296.6097 317.59064 295.8441 317.59064Q294.51596 317.59064 293.68784 316.6219Q292.8597 315.65314 292.8597 313.4344Q292.8597 310.9344 293.7816 309.8094Q294.57846 308.825 295.93784 308.825Q296.95346 308.825 297.5941 309.40314Q298.25034 309.96564 298.37534 310.96564ZM294.07846 314.66876Q294.07846 315.21564 294.2972 315.71564Q294.5316 316.2 294.93784 316.46564Q295.3597 316.73126 295.82846 316.73126Q296.4847 316.73126 296.9691 316.2Q297.45346 315.65314 297.45346 314.73126Q297.45346 313.84064 296.9691 313.325Q296.50034 312.8094 295.7816 312.8094Q295.06284 312.8094 294.56284 313.325Q294.07846 313.84064 294.07846 314.66876Z" fill-rule="nonzero"/><path fill="#000000" d="M334.61783 309.98126L334.61783 308.96564L340.18033 308.96564L340.18033 309.79376Q339.36783 310.66876 338.55533 312.1219Q337.75845 313.5594 337.32095 315.09064Q336.99283 316.16876 336.9147 317.45L335.82095 317.45Q335.83658 316.4344 336.21158 314.9969Q336.6022 313.5594 337.30533 312.23126Q338.02408 310.90314 338.83658 309.98126L334.61783 309.98126Z" fill-rule="nonzero"/><path fill="#000000" d="M377.82907 312.79376Q377.17282 312.54376 376.8447 312.10626Q376.5322 311.65314 376.5322 311.04376Q376.5322 310.10626 377.20407 309.46564Q377.89157 308.825 379.00095 308.825Q380.12595 308.825 380.81345 309.48126Q381.50095 310.1375 381.50095 311.075Q381.50095 311.66876 381.18845 312.10626Q380.87595 312.54376 380.23532 312.79376Q381.0322 313.04376 381.43845 313.6219Q381.8447 314.2 381.8447 314.9969Q381.8447 316.09064 381.06345 316.84064Q380.29782 317.59064 379.01657 317.59064Q377.75095 317.59064 376.9697 316.84064Q376.18845 316.09064 376.18845 314.96564Q376.18845 314.1219 376.61032 313.5594Q377.04782 312.9969 377.82907 312.79376ZM377.61032 310.9969Q377.61032 311.60626 378.00095 311.9969Q378.4072 312.3875 379.0322 312.3875Q379.64157 312.3875 380.0322 312.0125Q380.42282 311.6219 380.42282 311.0594Q380.42282 310.48126 380.01657 310.09064Q379.61032 309.6844 379.01657 309.6844Q378.4072 309.6844 378.00095 310.075Q377.61032 310.46564 377.61032 310.9969ZM377.2822 314.96564Q377.2822 315.41876 377.48532 315.84064Q377.70407 316.2625 378.12595 316.4969Q378.54782 316.73126 379.0322 316.73126Q379.7822 316.73126 380.26657 316.2469Q380.76657 315.7625 380.76657 315.0125Q380.76657 314.2469 380.26657 313.7469Q379.76657 313.2469 379.00095 313.2469Q378.25095 313.2469 377.76657 313.7469Q377.2822 314.23126 377.2822 314.96564Z" fill-rule="nonzero"/><path fill="#000000" d="M418.00906 315.46564L419.0247 315.3719Q419.1497 316.09064 419.50906 316.41876Q419.88406 316.73126 420.44656 316.73126Q420.93094 316.73126 421.2903 316.5125Q421.6653 316.27814 421.8997 315.91876Q422.13406 315.54376 422.2903 314.91876Q422.44656 314.27814 422.44656 313.6219Q422.44656 313.54376 422.44656 313.40314Q422.13406 313.90314 421.5872 314.23126Q421.0403 314.54376 420.3997 314.54376Q419.32156 314.54376 418.5872 313.77814Q417.8528 312.9969 417.8528 311.73126Q417.8528 310.41876 418.61844 309.6219Q419.3997 308.825 420.55594 308.825Q421.38406 308.825 422.07156 309.27814Q422.7747 309.73126 423.13406 310.575Q423.49344 311.40314 423.49344 312.98126Q423.49344 314.6219 423.13406 315.60626Q422.7903 316.575 422.07156 317.09064Q421.36844 317.59064 420.43094 317.59064Q419.4153 317.59064 418.7747 317.04376Q418.13406 316.48126 418.00906 315.46564ZM422.32156 311.66876Q422.32156 310.7625 421.8372 310.23126Q421.36844 309.7 420.68094 309.7Q419.9778 309.7 419.44656 310.27814Q418.93094 310.84064 418.93094 311.7625Q418.93094 312.575 419.43094 313.09064Q419.93094 313.60626 420.6497 313.60626Q421.38406 313.60626 421.8528 313.09064Q422.32156 312.575 422.32156 311.66876Z" fill-rule="nonzero"/><path fill="#000000" d="M459.9703 317.45L458.92343 317.45L458.92343 310.73126Q458.5328 311.09064 457.9078 311.46564Q457.29843 311.825 456.81406 311.9969L456.81406 310.98126Q457.68906 310.5594 458.3453 309.98126Q459.01718 309.3875 459.29843 308.825L459.9703 308.825L459.9703 317.45ZM463.00156 313.21564Q463.00156 311.6844 463.31406 310.7625Q463.62656 309.825 464.23593 309.325Q464.86093 308.825 465.79843 308.825Q466.48593 308.825 467.00156 309.10626Q467.5328 309.3875 467.87656 309.91876Q468.2203 310.4344 468.4078 311.1844Q468.5953 311.9344 468.5953 313.21564Q468.5953 314.73126 468.2828 315.65314Q467.98593 316.575 467.36093 317.09064Q466.75156 317.59064 465.79843 317.59064Q464.56406 317.59064 463.8453 316.7Q463.00156 315.6375 463.00156 313.21564ZM464.07968 313.21564Q464.07968 315.325 464.57968 316.02814Q465.07968 316.73126 465.79843 316.73126Q466.5328 316.73126 467.01718 316.02814Q467.51718 315.325 467.51718 313.21564Q467.51718 311.09064 467.01718 310.40314Q466.5328 309.7 465.7828 309.7Q465.06406 309.7 464.62656 310.3094Q464.07968 311.09064 464.07968 313.21564Z" fill-rule="nonzero"/><path fill="#4285f4" d="M510.45 56.916668C510.45 56.364384 510.8977 55.916668 511.45 55.916668L521.45 55.916668C522.00226 55.916668 522.45 56.364384 522.45 56.916668L522.45 66.916664C522.45 67.46895 522.00226 67.916664 521.45 67.916664L511.45 67.916664C510.8977 67.916664 510.45 67.46895 510.45 66.916664Z" fill-rule="nonzero"/><path fill="#1a1a1a" d="M530.9969 63.15104L532.0594 63.05729Q532.1375 63.71354 532.41876 64.11979Q532.7 64.52604 533.27814 64.791664Q533.8719 65.041664 534.60626 65.041664Q535.2469 65.041664 535.7469 64.854164Q536.2469 64.65104 536.48126 64.322914Q536.73126 63.979164 536.73126 63.58854Q536.73126 63.18229 536.4969 62.885414Q536.2625 62.572914 535.73126 62.36979Q535.3719 62.229164 534.1844 61.947914Q533.0125 61.666664 532.54376 61.416664Q531.91876 61.08854 531.6219 60.61979Q531.325 60.135414 531.325 59.541664Q531.325 58.90104 531.6844 58.33854Q532.0594 57.760414 532.7625 57.479164Q533.48126 57.18229 534.34064 57.18229Q535.29376 57.18229 536.02814 57.49479Q536.7625 57.791664 537.15314 58.40104Q537.54376 58.99479 537.575 59.74479L536.48126 59.822914Q536.3875 59.010414 535.8719 58.604164Q535.3719 58.18229 534.3875 58.18229Q533.35626 58.18229 532.8875 58.55729Q532.41876 58.93229 532.41876 59.46354Q532.41876 59.93229 532.7469 60.229164Q533.075 60.52604 534.45 60.83854Q535.84064 61.15104 536.35626 61.385414Q537.10626 61.74479 537.46564 62.27604Q537.825 62.791664 537.825 63.49479Q537.825 64.18229 537.4344 64.791664Q537.04376 65.385414 536.3094 65.729164Q535.575 66.05729 534.65314 66.05729Q533.48126 66.05729 532.6844 65.729164Q531.90314 65.385414 531.45 64.697914Q531.0125 64.010414 530.9969 63.15104ZM541.54376 64.979164L541.7 65.90104Q541.2469 65.99479 540.90314 65.99479Q540.325 65.99479 540.0125 65.822914Q539.7 65.635414 539.5594 65.33854Q539.4344 65.041664 539.4344 64.08854L539.4344 60.510414L538.66876 60.510414L538.66876 59.697914L539.4344 59.697914L539.4344 58.15104L540.48126 57.52604L540.48126 59.697914L541.54376 59.697914L541.54376 60.510414L540.48126 60.510414L540.48126 64.15104Q540.48126 64.604164 540.52814 64.729164Q540.59064 64.854164 540.71564 64.93229Q540.84064 65.010414 541.075 65.010414Q541.2625 65.010414 541.54376 64.979164ZM546.3094 65.15104Q545.71564 65.65104 545.16876 65.854164Q544.6375 66.05729 544.0125 66.05729Q542.98126 66.05729 542.4344 65.55729Q541.8875 65.05729 541.8875 64.27604Q541.8875 63.822914 542.09064 63.447914Q542.29376 63.05729 542.6375 62.83854Q542.98126 62.604164 543.40314 62.49479Q543.7 62.40104 544.34064 62.322914Q545.60626 62.18229 546.21564 61.96354Q546.21564 61.74479 546.21564 61.697914Q546.21564 61.041664 545.91876 60.77604Q545.5125 60.43229 544.71564 60.43229Q543.98126 60.43229 543.6219 60.697914Q543.2625 60.947914 543.09064 61.604164L542.0594 61.46354Q542.2 60.80729 542.52814 60.40104Q542.85626 59.99479 543.46564 59.77604Q544.075 59.55729 544.8719 59.55729Q545.66876 59.55729 546.16876 59.74479Q546.66876 59.93229 546.90314 60.21354Q547.1375 60.49479 547.23126 60.93229Q547.27814 61.197914 547.27814 61.90104L547.27814 63.30729Q547.27814 64.77604 547.34064 65.166664Q547.41876 65.55729 547.6219 65.916664L546.5125 65.916664Q546.35626 65.58854 546.3094 65.15104ZM546.21564 62.791664Q545.6375 63.02604 544.4969 63.197914Q543.84064 63.291664 543.575 63.416664Q543.3094 63.52604 543.15314 63.74479Q543.0125 63.96354 543.0125 64.24479Q543.0125 64.666664 543.325 64.947914Q543.65314 65.229164 544.2625 65.229164Q544.8719 65.229164 545.34064 64.96354Q545.825 64.697914 546.04376 64.229164Q546.21564 63.86979 546.21564 63.18229L546.21564 62.791664ZM551.54376 64.979164L551.7 65.90104Q551.2469 65.99479 550.90314 65.99479Q550.325 65.99479 550.0125 65.822914Q549.7 65.635414 549.5594 65.33854Q549.4344 65.041664 549.4344 64.08854L549.4344 60.510414L548.66876 60.510414L548.66876 59.697914L549.4344 59.697914L549.4344 58.15104L550.48126 57.52604L550.48126 59.697914L551.54376 59.697914L551.54376 60.510414L550.48126 60.510414L550.48126 64.15104Q550.48126 64.604164 550.52814 64.729164Q550.59064 64.854164 550.71564 64.93229Q550.84064 65.010414 551.075 65.010414Q551.2625 65.010414 551.54376 64.979164ZM556.4969 63.916664L557.59064 64.041664Q557.34064 64.99479 556.6375 65.52604Q555.9344 66.05729 554.85626 66.05729Q553.4969 66.05729 552.6844 65.21354Q551.8875 64.36979 551.8875 62.854164Q551.8875 61.291664 552.7 60.43229Q553.5125 59.55729 554.79376 59.55729Q556.04376 59.55729 556.825 60.40104Q557.6219 61.24479 557.6219 62.791664Q557.6219 62.885414 557.6219 63.072914L552.98126 63.072914Q553.04376 64.104164 553.5594 64.65104Q554.075 65.18229 554.85626 65.18229Q555.4344 65.18229 555.84064 64.885414Q556.2625 64.572914 556.4969 63.916664ZM553.04376 62.21354L556.5125 62.21354Q556.45 61.416664 556.1219 61.02604Q555.60626 60.416664 554.8094 60.416664Q554.075 60.416664 553.575 60.90104Q553.09064 61.385414 553.04376 62.21354ZM558.825 64.05729L559.85626 63.90104Q559.95 64.52604 560.34064 64.854164Q560.7469 65.18229 561.48126 65.18229Q562.2 65.18229 562.54376 64.90104Q562.90314 64.604164 562.90314 64.197914Q562.90314 63.83854 562.59064 63.635414Q562.3719 63.49479 561.5125 63.27604Q560.35626 62.979164 559.90314 62.77604Q559.46564 62.55729 559.23126 62.18229Q558.9969 61.80729 558.9969 61.33854Q558.9969 60.93229 559.1844 60.572914Q559.3719 60.21354 559.7 59.979164Q559.95 59.80729 560.3719 59.68229Q560.79376 59.55729 561.29376 59.55729Q562.0125 59.55729 562.5594 59.77604Q563.1219 59.979164 563.3875 60.33854Q563.65314 60.697914 563.7469 61.291664L562.71564 61.43229Q562.65314 60.96354 562.3094 60.697914Q561.98126 60.416664 561.35626 60.416664Q560.6375 60.416664 560.325 60.666664Q560.0125 60.90104 560.0125 61.229164Q560.0125 61.43229 560.1375 61.58854Q560.27814 61.760414 560.54376 61.86979Q560.7 61.93229 561.48126 62.135414Q562.60626 62.447914 563.04376 62.635414Q563.48126 62.822914 563.73126 63.18229Q563.98126 63.541664 563.98126 64.08854Q563.98126 64.61979 563.66876 65.08854Q563.3719 65.541664 562.79376 65.80729Q562.21564 66.05729 561.48126 66.05729Q560.2625 66.05729 559.6219 65.55729Q558.9969 65.041664 558.825 64.05729Z" fill-rule="nonzero"/><path fill="#ea4335" d="M510.45 80.916664C510.45 80.36438 510.8977 79.916664 511.45 79.916664L521.45 79.916664C522.00226 79.916664 522.45 80.36438 522.45 80.916664L522.45 90.916664C522.45 91.46895 522.00226 91.916664 521.45 91.916664L511.45 91.916664C510.8977 91.916664 510.45 91.46895 510.45 90.916664Z" fill-rule="nonzero"/><path fill="#1a1a1a" d="M533.5594 89.916664L533.5594 82.33854L530.73126 82.33854L530.73126 81.322914L537.54376 81.322914L537.54376 82.33854L534.7 82.33854L534.7 89.916664L533.5594 89.916664ZM542.3094 89.15104Q541.71564 89.65104 541.16876 89.854164Q540.6375 90.05729 540.0125 90.05729Q538.98126 90.05729 538.4344 89.55729Q537.8875 89.05729 537.8875 88.27604Q537.8875 87.822914 538.09064 87.447914Q538.29376 87.05729 538.6375 86.83854Q538.98126 86.604164 539.40314 86.49479Q539.7 86.40104 540.34064 86.322914Q541.60626 86.18229 542.21564 85.96354Q542.21564 85.74479 542.21564 85.697914Q542.21564 85.041664 541.91876 84.77604Q541.5125 84.43229 540.71564 84.43229Q539.98126 84.43229 539.6219 84.697914Q539.2625 84.947914 539.09064 85.604164L538.0594 85.46354Q538.2 84.80729 538.52814 84.40104Q538.85626 83.99479 539.46564 83.77604Q540.075 83.55729 540.8719 83.55729Q541.66876 83.55729 542.16876 83.74479Q542.66876 83.93229 542.90314 84.21354Q543.1375 84.49479 543.23126 84.93229Q543.27814 85.197914 543.27814 85.90104L543.27814 87.30729Q543.27814 88.77604 543.34064 89.166664Q543.41876 89.55729 543.6219 89.916664L542.5125 89.916664Q542.35626 89.58854 542.3094 89.15104ZM542.21564 86.791664Q541.6375 87.02604 540.4969 87.197914Q539.84064 87.291664 539.575 87.416664Q539.3094 87.52604 539.15314 87.74479Q539.0125 87.96354 539.0125 88.24479Q539.0125 88.666664 539.325 88.947914Q539.65314 89.229164 540.2625 89.229164Q540.8719 89.229164 541.34064 88.96354Q541.825 88.697914 542.04376 88.229164Q542.21564 87.86979 542.21564 87.18229L542.21564 86.791664ZM545.04376 90.43229L546.075 90.58854Q546.1375 91.05729 546.4344 91.27604Q546.825 91.572914 547.4969 91.572914Q548.23126 91.572914 548.6219 91.27604Q549.02814 90.979164 549.16876 90.46354Q549.2625 90.135414 549.2469 89.104164Q548.5594 89.916664 547.52814 89.916664Q546.2469 89.916664 545.54376 88.99479Q544.84064 88.05729 544.84064 86.77604Q544.84064 85.885414 545.15314 85.135414Q545.48126 84.36979 546.09064 83.96354Q546.7 83.55729 547.52814 83.55729Q548.6375 83.55729 549.35626 84.447914L549.35626 83.697914L550.325 83.697914L550.325 89.072914Q550.325 90.52604 550.02814 91.135414Q549.73126 91.74479 549.09064 92.08854Q548.45 92.447914 547.5125 92.447914Q546.40314 92.447914 545.71564 91.947914Q545.02814 91.447914 545.04376 90.43229ZM545.91876 86.697914Q545.91876 87.916664 546.40314 88.479164Q546.8875 89.041664 547.6219 89.041664Q548.35626 89.041664 548.84064 88.479164Q549.34064 87.916664 549.34064 86.729164Q549.34064 85.58854 548.825 85.010414Q548.325 84.43229 547.60626 84.43229Q546.90314 84.43229 546.40314 85.010414Q545.91876 85.572914 545.91876 86.697914ZM551.825 88.05729L552.85626 87.90104Q552.95 88.52604 553.34064 88.854164Q553.7469 89.18229 554.48126 89.18229Q555.2 89.18229 555.54376 88.90104Q555.90314 88.604164 555.90314 88.197914Q555.90314 87.83854 555.59064 87.635414Q555.3719 87.49479 554.5125 87.27604Q553.35626 86.979164 552.90314 86.77604Q552.46564 86.55729 552.23126 86.18229Q551.9969 85.80729 551.9969 85.33854Q551.9969 84.93229 552.1844 84.572914Q552.3719 84.21354 552.7 83.979164Q552.95 83.80729 553.3719 83.68229Q553.79376 83.55729 554.29376 83.55729Q555.0125 83.55729 555.5594 83.77604Q556.1219 83.979164 556.3875 84.33854Q556.65314 84.697914 556.7469 85.291664L555.71564 85.43229Q555.65314 84.96354 555.3094 84.697914Q554.98126 84.416664 554.35626 84.416664Q553.6375 84.416664 553.325 84.666664Q553.0125 84.90104 553.0125 85.229164Q553.0125 85.43229 553.1375 85.58854Q553.27814 85.760414 553.54376 85.86979Q553.7 85.93229 554.48126 86.135414Q555.60626 86.447914 556.04376 86.635414Q556.48126 86.822914 556.73126 87.18229Q556.98126 87.541664 556.98126 88.08854Q556.98126 88.61979 556.66876 89.08854Q556.3719 89.541664 555.79376 89.80729Q555.21564 90.05729 554.48126 90.05729Q553.2625 90.05729 552.6219 89.55729Q551.9969 89.041664 551.825 88.05729Z" fill-rule="nonzero"/><path fill="#fbbc04" d="M510.45 104.916664C510.45 104.36438 510.8977 103.916664 511.45 103.916664L521.45 103.916664C522.00226 103.916664 522.45 104.36438 522.45 104.916664L522.45 114.916664C522.45 115.46895 522.00226 115.916664 521.45 115.916664L511.45 115.916664C510.8977 115.916664 510.45 115.46895 510.45 114.916664Z" fill-rule="nonzero"/><path fill="#1a1a1a" d="M532.8719 113.916664L530.59064 105.322914L531.7625 105.322914L533.075 110.96354Q533.27814 111.83854 533.4344 112.71354Q533.7625 111.33854 533.825 111.11979L535.45 105.322914L536.825 105.322914L538.0594 109.666664Q538.5125 111.291664 538.73126 112.71354Q538.8875 111.90104 539.15314 110.83854L540.4969 105.322914L541.6375 105.322914L539.29376 113.916664L538.1844 113.916664L536.3875 107.36979Q536.15314 106.55729 536.10626 106.36979Q535.98126 106.947914 535.85626 107.36979L534.04376 113.916664L532.8719 113.916664ZM541.85626 110.80729Q541.85626 109.072914 542.8094 108.24479Q543.60626 107.55729 544.7625 107.55729Q546.04376 107.55729 546.85626 108.40104Q547.6844 109.229164 547.6844 110.71354Q547.6844 111.916664 547.325 112.604164Q546.96564 113.291664 546.2625 113.68229Q545.575 114.05729 544.7625 114.05729Q543.46564 114.05729 542.65314 113.229164Q541.85626 112.385414 541.85626 110.80729ZM542.9344 110.80729Q542.9344 111.99479 543.45 112.58854Q543.98126 113.18229 544.7625 113.18229Q545.5594 113.18229 546.075 112.58854Q546.59064 111.99479 546.59064 110.77604Q546.59064 109.61979 546.0594 109.02604Q545.54376 108.43229 544.7625 108.43229Q543.98126 108.43229 543.45 109.02604Q542.9344 109.604164 542.9344 110.80729ZM549.23126 113.916664L549.23126 107.697914L550.1844 107.697914L550.1844 108.635414Q550.54376 107.979164 550.84064 107.77604Q551.15314 107.55729 551.52814 107.55729Q552.0594 107.55729 552.60626 107.885414L552.2469 108.86979Q551.85626 108.635414 551.48126 108.635414Q551.1219 108.635414 550.84064 108.854164Q550.575 109.05729 550.46564 109.43229Q550.27814 109.99479 550.27814 110.65104L550.27814 113.916664L549.23126 113.916664ZM557.27814 113.916664L557.27814 113.135414Q556.6844 114.05729 555.54376 114.05729Q554.79376 114.05729 554.16876 113.65104Q553.54376 113.229164 553.2 112.49479Q552.85626 111.760414 552.85626 110.80729Q552.85626 109.885414 553.16876 109.11979Q553.48126 108.354164 554.10626 107.96354Q554.73126 107.55729 555.4969 107.55729Q556.0594 107.55729 556.4969 107.791664Q556.9344 108.02604 557.21564 108.40104L557.21564 105.322914L558.2625 105.322914L558.2625 113.916664L557.27814 113.916664ZM553.95 110.80729Q553.95 112.010414 554.45 112.604164Q554.95 113.18229 555.6375 113.18229Q556.325 113.18229 556.8094 112.61979Q557.29376 112.05729 557.29376 110.90104Q557.29376 109.61979 556.79376 109.02604Q556.3094 108.43229 555.59064 108.43229Q554.8875 108.43229 554.41876 109.010414Q553.95 109.572914 553.95 110.80729ZM559.825 112.05729L560.85626 111.90104Q560.95 112.52604 561.34064 112.854164Q561.7469 113.18229 562.48126 113.18229Q563.2 113.18229 563.54376 112.90104Q563.90314 112.604164 563.90314 112.197914Q563.90314 111.83854 563.59064 111.635414Q563.3719 111.49479 562.5125 111.27604Q561.35626 110.979164 560.90314 110.77604Q560.46564 110.55729 560.23126 110.18229Q559.9969 109.80729 559.9969 109.33854Q559.9969 108.93229 560.1844 108.572914Q560.3719 108.21354 560.7 107.979164Q560.95 107.80729 561.3719 107.68229Q561.79376 107.55729 562.29376 107.55729Q563.0125 107.55729 563.5594 107.77604Q564.1219 107.979164 564.3875 108.33854Q564.65314 108.697914 564.7469 109.291664L563.71564 109.43229Q563.65314 108.96354 563.3094 108.697914Q562.98126 108.416664 562.35626 108.416664Q561.6375 108.416664 561.325 108.666664Q561.0125 108.90104 561.0125 109.229164Q561.0125 109.43229 561.1375 109.58854Q561.27814 109.760414 561.54376 109.86979Q561.7 109.93229 562.48126 110.135414Q563.60626 110.447914 564.04376 110.635414Q564.48126 110.822914 564.73126 111.18229Q564.98126 111.541664 564.98126 112.08854Q564.98126 112.61979 564.66876 113.08854Q564.3719 113.541664 563.79376 113.80729Q563.21564 114.05729 562.48126 114.05729Q561.2625 114.05729 560.6219 113.55729Q559.9969 113.041664 559.825 112.05729Z" fill-rule="nonzero"/><path fill="#34a853" d="M510.45 128.91667C510.45 128.36438 510.8977 127.916664 511.45 127.916664L521.45 127.916664C522.00226 127.916664 522.45 128.36438 522.45 128.91667L522.45 138.91667C522.45 139.46895 522.00226 139.91667 521.45 139.91667L511.45 139.91667C510.8977 139.91667 510.45 139.46895 510.45 138.91667Z" fill-rule="nonzero"/><path fill="#1a1a1a" d="M537.0125 129.32292L538.15314 129.32292L538.15314 134.29167Q538.15314 135.58855 537.85626 136.35417Q537.5594 137.10417 536.79376 137.58855Q536.02814 138.0573 534.79376 138.0573Q533.59064 138.0573 532.8094 137.65105Q532.04376 137.22917 531.71564 136.44792Q531.3875 135.65105 531.3875 134.29167L531.3875 129.32292L532.52814 129.32292L532.52814 134.27605Q532.52814 135.40105 532.73126 135.9323Q532.95 136.46355 533.45 136.76042Q533.96564 137.04167 534.7 137.04167Q535.95 137.04167 536.48126 136.47917Q537.0125 135.90105 537.0125 134.27605L537.0125 129.32292ZM540.2469 137.91667L540.2469 131.69792L541.1844 131.69792L541.1844 132.57292Q541.8719 131.5573 543.16876 131.5573Q543.73126 131.5573 544.2 131.76042Q544.6844 131.96355 544.91876 132.29167Q545.15314 132.6198 545.2469 133.0573Q545.29376 133.35417 545.29376 134.08855L545.29376 137.91667L544.2469 137.91667L544.2469 134.13542Q544.2469 133.47917 544.1219 133.16667Q543.9969 132.85417 543.6844 132.66667Q543.3719 132.46355 542.95 132.46355Q542.27814 132.46355 541.77814 132.90105Q541.29376 133.32292 541.29376 134.51042L541.29376 137.91667L540.2469 137.91667ZM551.3094 137.15105Q550.71564 137.65105 550.16876 137.85417Q549.6375 138.0573 549.0125 138.0573Q547.98126 138.0573 547.4344 137.5573Q546.8875 137.0573 546.8875 136.27605Q546.8875 135.82292 547.09064 135.44792Q547.29376 135.0573 547.6375 134.83855Q547.98126 134.60417 548.40314 134.4948Q548.7 134.40105 549.34064 134.32292Q550.60626 134.1823 551.21564 133.96355Q551.21564 133.7448 551.21564 133.69792Q551.21564 133.04167 550.91876 132.77605Q550.5125 132.4323 549.71564 132.4323Q548.98126 132.4323 548.6219 132.69792Q548.2625 132.94792 548.09064 133.60417L547.0594 133.46355Q547.2 132.8073 547.52814 132.40105Q547.85626 131.9948 548.46564 131.77605Q549.075 131.5573 549.8719 131.5573Q550.66876 131.5573 551.16876 131.7448Q551.66876 131.9323 551.90314 132.21355Q552.1375 132.4948 552.23126 132.9323Q552.27814 133.19792 552.27814 133.90105L552.27814 135.3073Q552.27814 136.77605 552.34064 137.16667Q552.41876 137.5573 552.6219 137.91667L551.5125 137.91667Q551.35626 137.58855 551.3094 137.15105ZM551.21564 134.79167Q550.6375 135.02605 549.4969 135.19792Q548.84064 135.29167 548.575 135.41667Q548.3094 135.52605 548.15314 135.7448Q548.0125 135.96355 548.0125 136.2448Q548.0125 136.66667 548.325 136.94792Q548.65314 137.22917 549.2625 137.22917Q549.8719 137.22917 550.34064 136.96355Q550.825 136.69792 551.04376 136.22917Q551.21564 135.8698 551.21564 135.1823L551.21564 134.79167ZM554.23126 137.91667L554.23126 131.69792L555.1844 131.69792L555.1844 132.63542Q555.54376 131.97917 555.84064 131.77605Q556.15314 131.5573 556.52814 131.5573Q557.0594 131.5573 557.60626 131.88542L557.2469 132.8698Q556.85626 132.63542 556.48126 132.63542Q556.1219 132.63542 555.84064 132.85417Q555.575 133.0573 555.46564 133.4323Q555.27814 133.9948 555.27814 134.65105L555.27814 137.91667L554.23126 137.91667ZM558.2 140.3073L558.075 139.32292Q558.41876 139.41667 558.6844 139.41667Q559.02814 139.41667 559.23126 139.29167Q559.45 139.1823 559.59064 138.97917Q559.6844 138.8073 559.91876 138.1823Q559.9344 138.10417 560.0125 137.9323L557.6375 131.69792L558.77814 131.69792L560.075 135.29167Q560.325 135.97917 560.52814 136.7448Q560.71564 136.01042 560.96564 135.32292L562.29376 131.69792L563.34064 131.69792L560.98126 138.02605Q560.59064 139.04167 560.3875 139.4323Q560.10626 139.96355 559.73126 140.19792Q559.3719 140.44792 558.8719 140.44792Q558.575 140.44792 558.2 140.3073ZM564.3875 137.91667L564.3875 129.32292L568.2 129.32292Q569.35626 129.32292 569.95 129.5573Q570.54376 129.79167 570.90314 130.38542Q571.2625 130.96355 571.2625 131.66667Q571.2625 132.58855 570.66876 133.21355Q570.075 133.83855 568.84064 134.01042Q569.29376 134.22917 569.52814 134.4323Q570.02814 134.88542 570.46564 135.57292L571.96564 137.91667L570.52814 137.91667L569.40314 136.13542Q568.90314 135.35417 568.575 134.94792Q568.2625 134.54167 567.9969 134.38542Q567.7469 134.21355 567.48126 134.13542Q567.29376 134.10417 566.85626 134.10417L565.52814 134.10417L565.52814 137.91667L564.3875 137.91667ZM565.52814 133.1198L567.98126 133.1198Q568.7469 133.1198 569.1844 132.96355Q569.6375 132.79167 569.85626 132.44792Q570.09064 132.08855 570.09064 131.66667Q570.09064 131.0573 569.6375 130.66667Q569.2 130.27605 568.2469 130.27605L565.52814 130.27605L565.52814 133.1198Z" fill-rule="nonzero"/><path fill="#ff6d01" d="M510.45 152.91667C510.45 152.36438 510.8977 151.91667 511.45 151.91667L521.45 151.91667C522.00226 151.91667 522.45 152.36438 522.45 152.91667L522.45 162.91667C522.45 163.46895 522.00226 163.91667 521.45 163.91667L511.45 163.91667C510.8977 163.91667 510.45 163.46895 510.45 162.91667Z" fill-rule="nonzero"/><path fill="#1a1a1a" d="M531.325 161.91667L531.325 153.32292L534.5594 153.32292Q535.54376 153.32292 536.1375 153.58855Q536.73126 153.85417 537.0594 154.40105Q537.40314 154.9323 537.40314 155.52605Q537.40314 156.07292 537.10626 156.5573Q536.8094 157.04167 536.2 157.33855Q536.98126 157.57292 537.3875 158.13542Q537.8094 158.6823 537.8094 159.4323Q537.8094 160.02605 537.5594 160.5573Q537.3094 161.07292 536.9344 161.35417Q536.5594 161.63542 535.98126 161.77605Q535.41876 161.91667 534.60626 161.91667L531.325 161.91667ZM532.46564 156.9323L534.325 156.9323Q535.075 156.9323 535.40314 156.83855Q535.84064 156.71355 536.0594 156.41667Q536.27814 156.10417 536.27814 155.65105Q536.27814 155.22917 536.075 154.90105Q535.8719 154.57292 535.48126 154.46355Q535.10626 154.33855 534.1844 154.33855L532.46564 154.33855L532.46564 156.9323ZM532.46564 160.90105L534.60626 160.90105Q535.15314 160.90105 535.3719 160.85417Q535.77814 160.79167 536.02814 160.63542Q536.29376 160.46355 536.46564 160.15105Q536.6375 159.83855 536.6375 159.4323Q536.6375 158.94792 536.3875 158.58855Q536.15314 158.22917 535.71564 158.08855Q535.27814 157.94792 534.45 157.94792L532.46564 157.94792L532.46564 160.90105ZM539.2469 154.54167L539.2469 153.32292L540.3094 153.32292L540.3094 154.54167L539.2469 154.54167ZM539.2469 161.91667L539.2469 155.69792L540.3094 155.69792L540.3094 161.91667L539.2469 161.91667ZM542.2469 161.91667L542.2469 155.69792L543.1844 155.69792L543.1844 156.57292Q543.8719 155.5573 545.16876 155.5573Q545.73126 155.5573 546.2 155.76042Q546.6844 155.96355 546.91876 156.29167Q547.15314 156.6198 547.2469 157.0573Q547.29376 157.35417 547.29376 158.08855L547.29376 161.91667L546.2469 161.91667L546.2469 158.13542Q546.2469 157.47917 546.1219 157.16667Q545.9969 156.85417 545.6844 156.66667Q545.3719 156.46355 544.95 156.46355Q544.27814 156.46355 543.77814 156.90105Q543.29376 157.32292 543.29376 158.51042L543.29376 161.91667L542.2469 161.91667ZM553.3094 161.15105Q552.71564 161.65105 552.16876 161.85417Q551.6375 162.0573 551.0125 162.0573Q549.98126 162.0573 549.4344 161.5573Q548.8875 161.0573 548.8875 160.27605Q548.8875 159.82292 549.09064 159.44792Q549.29376 159.0573 549.6375 158.83855Q549.98126 158.60417 550.40314 158.4948Q550.7 158.40105 551.34064 158.32292Q552.60626 158.1823 553.21564 157.96355Q553.21564 157.7448 553.21564 157.69792Q553.21564 157.04167 552.91876 156.77605Q552.5125 156.4323 551.71564 156.4323Q550.98126 156.4323 550.6219 156.69792Q550.2625 156.94792 550.09064 157.60417L549.0594 157.46355Q549.2 156.8073 549.52814 156.40105Q549.85626 155.9948 550.46564 155.77605Q551.075 155.5573 551.8719 155.5573Q552.66876 155.5573 553.16876 155.7448Q553.66876 155.9323 553.90314 156.21355Q554.1375 156.4948 554.23126 156.9323Q554.27814 157.19792 554.27814 157.90105L554.27814 159.3073Q554.27814 160.77605 554.34064 161.16667Q554.41876 161.5573 554.6219 161.91667L553.5125 161.91667Q553.35626 161.58855 553.3094 161.15105ZM553.21564 158.79167Q552.6375 159.02605 551.4969 159.19792Q550.84064 159.29167 550.575 159.41667Q550.3094 159.52605 550.15314 159.7448Q550.0125 159.96355 550.0125 160.2448Q550.0125 160.66667 550.325 160.94792Q550.65314 161.22917 551.2625 161.22917Q551.8719 161.22917 552.34064 160.96355Q552.825 160.69792 553.04376 160.22917Q553.21564 159.8698 553.21564 159.1823L553.21564 158.79167ZM556.23126 161.91667L556.23126 155.69792L557.1844 155.69792L557.1844 156.63542Q557.54376 155.97917 557.84064 155.77605Q558.15314 155.5573 558.52814 155.5573Q559.0594 155.5573 559.60626 155.88542L559.2469 156.8698Q558.85626 156.63542 558.48126 156.63542Q558.1219 156.63542 557.84064 156.85417Q557.575 157.0573 557.46564 157.4323Q557.27814 157.9948 557.27814 158.65105L557.27814 161.91667L556.23126 161.91667ZM560.2 164.3073L560.075 163.32292Q560.41876 163.41667 560.6844 163.41667Q561.02814 163.41667 561.23126 163.29167Q561.45 163.1823 561.59064 162.97917Q561.6844 162.8073 561.91876 162.1823Q561.9344 162.10417 562.0125 161.9323L559.6375 155.69792L560.77814 155.69792L562.075 159.29167Q562.325 159.97917 562.52814 160.7448Q562.71564 160.01042 562.96564 159.32292L564.29376 155.69792L565.34064 155.69792L562.98126 162.02605Q562.59064 163.04167 562.3875 163.4323Q562.10626 163.96355 561.73126 164.19792Q561.3719 164.44792 560.8719 164.44792Q560.575 164.44792 560.2 164.3073ZM566.3875 161.91667L566.3875 153.32292L570.2 153.32292Q571.35626 153.32292 571.95 153.5573Q572.54376 153.79167 572.90314 154.38542Q573.2625 154.96355 573.2625 155.66667Q573.2625 156.58855 572.66876 157.21355Q572.075 157.83855 570.84064 158.01042Q571.29376 158.22917 571.52814 158.4323Q572.02814 158.88542 572.46564 159.57292L573.96564 161.91667L572.52814 161.91667L571.40314 160.13542Q570.90314 159.35417 570.575 158.94792Q570.2625 158.54167 569.9969 158.38542Q569.7469 158.21355 569.48126 158.13542Q569.29376 158.10417 568.85626 158.10417L567.52814 158.10417L567.52814 161.91667L566.3875 161.91667ZM567.52814 157.1198L569.98126 157.1198Q570.7469 157.1198 571.1844 156.96355Q571.6375 156.79167 571.85626 156.44792Q572.09064 156.08855 572.09064 155.66667Q572.09064 155.0573 571.6375 154.66667Q571.2 154.27605 570.2469 154.27605L567.52814 154.27605L567.52814 157.1198Z" fill-rule="nonzero"/><path fill="#46bdc6" d="M510.45 176.91667C510.45 176.36438 510.8977 175.91667 511.45 175.91667L521.45 175.91667C522.00226 175.91667 522.45 176.36438 522.45 176.91667L522.45 186.91667C522.45 187.46895 522.00226 187.91667 521.45 187.91667L511.45 187.91667C510.8977 187.91667 510.45 187.46895 510.45 186.91667Z" fill-rule="nonzero"/><path fill="#1a1a1a" d="M533.5594 185.91667L533.5594 178.33855L530.73126 178.33855L530.73126 177.32292L537.54376 177.32292L537.54376 178.33855L534.7 178.33855L534.7 185.91667L533.5594 185.91667ZM542.3094 185.15105Q541.71564 185.65105 541.16876 185.85417Q540.6375 186.0573 540.0125 186.0573Q538.98126 186.0573 538.4344 185.5573Q537.8875 185.0573 537.8875 184.27605Q537.8875 183.82292 538.09064 183.44792Q538.29376 183.0573 538.6375 182.83855Q538.98126 182.60417 539.40314 182.4948Q539.7 182.40105 540.34064 182.32292Q541.60626 182.1823 542.21564 181.96355Q542.21564 181.7448 542.21564 181.69792Q542.21564 181.04167 541.91876 180.77605Q541.5125 180.4323 540.71564 180.4323Q539.98126 180.4323 539.6219 180.69792Q539.2625 180.94792 539.09064 181.60417L538.0594 181.46355Q538.2 180.8073 538.52814 180.40105Q538.85626 179.9948 539.46564 179.77605Q540.075 179.5573 540.8719 179.5573Q541.66876 179.5573 542.16876 179.7448Q542.66876 179.9323 542.90314 180.21355Q543.1375 180.4948 543.23126 180.9323Q543.27814 181.19792 543.27814 181.90105L543.27814 183.3073Q543.27814 184.77605 543.34064 185.16667Q543.41876 185.5573 543.6219 185.91667L542.5125 185.91667Q542.35626 185.58855 542.3094 185.15105ZM542.21564 182.79167Q541.6375 183.02605 540.4969 183.19792Q539.84064 183.29167 539.575 183.41667Q539.3094 183.52605 539.15314 183.7448Q539.0125 183.96355 539.0125 184.2448Q539.0125 184.66667 539.325 184.94792Q539.65314 185.22917 540.2625 185.22917Q540.8719 185.22917 541.34064 184.96355Q541.825 184.69792 542.04376 184.22917Q542.21564 183.8698 542.21564 183.1823L542.21564 182.79167ZM545.04376 186.4323L546.075 186.58855Q546.1375 187.0573 546.4344 187.27605Q546.825 187.57292 547.4969 187.57292Q548.23126 187.57292 548.6219 187.27605Q549.02814 186.97917 549.16876 186.46355Q549.2625 186.13542 549.2469 185.10417Q548.5594 185.91667 547.52814 185.91667Q546.2469 185.91667 545.54376 184.9948Q544.84064 184.0573 544.84064 182.77605Q544.84064 181.88542 545.15314 181.13542Q545.48126 180.3698 546.09064 179.96355Q546.7 179.5573 547.52814 179.5573Q548.6375 179.5573 549.35626 180.44792L549.35626 179.69792L550.325 179.69792L550.325 185.07292Q550.325 186.52605 550.02814 187.13542Q549.73126 187.7448 549.09064 188.08855Q548.45 188.44792 547.5125 188.44792Q546.40314 188.44792 545.71564 187.94792Q545.02814 187.44792 545.04376 186.4323ZM545.91876 182.69792Q545.91876 183.91667 546.40314 184.47917Q546.8875 185.04167 547.6219 185.04167Q548.35626 185.04167 548.84064 184.47917Q549.34064 183.91667 549.34064 182.72917Q549.34064 181.58855 548.825 181.01042Q548.325 180.4323 547.60626 180.4323Q546.90314 180.4323 546.40314 181.01042Q545.91876 181.57292 545.91876 182.69792ZM552.04376 186.4323L553.075 186.58855Q553.1375 187.0573 553.4344 187.27605Q553.825 187.57292 554.4969 187.57292Q555.23126 187.57292 555.6219 187.27605Q556.02814 186.97917 556.16876 186.46355Q556.2625 186.13542 556.2469 185.10417Q555.5594 185.91667 554.52814 185.91667Q553.2469 185.91667 552.54376 184.9948Q551.84064 184.0573 551.84064 182.77605Q551.84064 181.88542 552.15314 181.13542Q552.48126 180.3698 553.09064 179.96355Q553.7 179.5573 554.52814 179.5573Q555.6375 179.5573 556.35626 180.44792L556.35626 179.69792L557.325 179.69792L557.325 185.07292Q557.325 186.52605 557.02814 187.13542Q556.73126 187.7448 556.09064 188.08855Q555.45 188.44792 554.5125 188.44792Q553.40314 188.44792 552.71564 187.94792Q552.02814 187.44792 552.04376 186.4323ZM552.91876 182.69792Q552.91876 183.91667 553.40314 184.47917Q553.8875 185.04167 554.6219 185.04167Q555.35626 185.04167 555.84064 184.47917Q556.34064 183.91667 556.34064 182.72917Q556.34064 181.58855 555.825 181.01042Q555.325 180.4323 554.60626 180.4323Q553.90314 180.4323 553.40314 181.01042Q552.91876 181.57292 552.91876 182.69792ZM559.2469 178.54167L559.2469 177.32292L560.3094 177.32292L560.3094 178.54167L559.2469 178.54167ZM559.2469 185.91667L559.2469 179.69792L560.3094 179.69792L560.3094 185.91667L559.2469 185.91667ZM562.2469 185.91667L562.2469 179.69792L563.1844 179.69792L563.1844 180.57292Q563.8719 179.5573 565.16876 179.5573Q565.73126 179.5573 566.2 179.76042Q566.6844 179.96355 566.91876 180.29167Q567.15314 180.6198 567.2469 181.0573Q567.29376 181.35417 567.29376 182.08855L567.29376 185.91667L566.2469 185.91667L566.2469 182.13542Q566.2469 181.47917 566.1219 181.16667Q565.9969 180.85417 565.6844 180.66667Q565.3719 180.46355 564.95 180.46355Q564.27814 180.46355 563.77814 180.90105Q563.29376 181.32292 563.29376 182.51042L563.29376 185.91667L562.2469 185.91667ZM569.04376 186.4323L570.075 186.58855Q570.1375 187.0573 570.4344 187.27605Q570.825 187.57292 571.4969 187.57292Q572.23126 187.57292 572.6219 187.27605Q573.02814 186.97917 573.16876 186.46355Q573.2625 186.13542 573.2469 185.10417Q572.5594 185.91667 571.52814 185.91667Q570.2469 185.91667 569.54376 184.9948Q568.84064 184.0573 568.84064 182.77605Q568.84064 181.88542 569.15314 181.13542Q569.48126 180.3698 570.09064 179.96355Q570.7 179.5573 571.52814 179.5573Q572.6375 179.5573 573.35626 180.44792L573.35626 179.69792L574.325 179.69792L574.325 185.07292Q574.325 186.52605 574.02814 187.13542Q573.73126 187.7448 573.09064 188.08855Q572.45 188.44792 571.5125 188.44792Q570.40314 188.44792 569.71564 187.94792Q569.02814 187.44792 569.04376 186.4323ZM569.91876 182.69792Q569.91876 183.91667 570.40314 184.47917Q570.8875 185.04167 571.6219 185.04167Q572.35626 185.04167 572.84064 184.47917Q573.34064 183.91667 573.34064 182.72917Q573.34064 181.58855 572.825 181.01042Q572.325 180.4323 571.60626 180.4323Q570.90314 180.4323 570.40314 181.01042Q569.91876 181.57292 569.91876 182.69792ZM575.825 184.0573L576.85626 183.90105Q576.95 184.52605 577.34064 184.85417Q577.7469 185.1823 578.48126 185.1823Q579.2 185.1823 579.54376 184.90105Q579.90314 184.60417 579.90314 184.19792Q579.90314 183.83855 579.59064 183.63542Q579.3719 183.4948 578.5125 183.27605Q577.35626 182.97917 576.90314 182.77605Q576.46564 182.5573 576.23126 182.1823Q575.9969 181.8073 575.9969 181.33855Q575.9969 180.9323 576.1844 180.57292Q576.3719 180.21355 576.7 179.97917Q576.95 179.8073 577.3719 179.6823Q577.79376 179.5573 578.29376 179.5573Q579.0125 179.5573 579.5594 179.77605Q580.1219 179.97917 580.3875 180.33855Q580.65314 180.69792 580.7469 181.29167L579.71564 181.4323Q579.65314 180.96355 579.3094 180.69792Q578.98126 180.41667 578.35626 180.41667Q577.6375 180.41667 577.325 180.66667Q577.0125 180.90105 577.0125 181.22917Q577.0125 181.4323 577.1375 181.58855Q577.27814 181.76042 577.54376 181.8698Q577.7 181.9323 578.48126 182.13542Q579.60626 182.44792 580.04376 182.63542Q580.48126 182.82292 580.73126 183.1823Q580.98126 183.54167 580.98126 184.08855Q580.98126 184.6198 580.66876 185.08855Q580.3719 185.54167 579.79376 185.8073Q579.21564 186.0573 578.48126 186.0573Q577.2625 186.0573 576.6219 185.5573Q575.9969 185.04167 575.825 184.0573Z" fill-rule="nonzero"/><path fill="#757575" d="M23.7375 37.55L23.7375 24.925L19.01875 24.925L19.01875 23.2375L30.3625 23.2375L30.3625 24.925L25.628124 24.925L25.628124 37.55L23.7375 37.55ZM31.846874 37.55L31.846874 27.175L33.425 27.175L33.425 28.753124Q34.034374 27.64375 34.55 27.3Q35.065624 26.940624 35.675 26.940624Q36.565624 26.940624 37.4875 27.503124L36.878124 29.14375Q36.2375 28.753124 35.596874 28.753124Q35.01875 28.753124 34.55 29.1125Q34.096874 29.45625 33.89375 30.065624Q33.6125 31.003124 33.6125 32.1125L33.6125 37.55L31.846874 37.55ZM45.971874 34.20625L47.784374 34.440624Q47.3625 36.01875 46.190624 36.909374Q45.034374 37.784374 43.221874 37.784374Q40.95625 37.784374 39.6125 36.39375Q38.284374 34.9875 38.284374 32.45625Q38.284374 29.83125 39.628124 28.39375Q40.971874 26.940624 43.128124 26.940624Q45.20625 26.940624 46.51875 28.3625Q47.846874 29.76875 47.846874 32.346874Q47.846874 32.503124 47.83125 32.815624L40.096874 32.815624Q40.190624 34.51875 41.065624 35.425Q41.940624 36.33125 43.2375 36.33125Q44.20625 36.33125 44.878124 35.83125Q45.565624 35.315624 45.971874 34.20625ZM40.190624 31.3625L45.9875 31.3625Q45.878124 30.065624 45.33125 29.409374Q44.4875 28.39375 43.14375 28.39375Q41.940624 28.39375 41.1125 29.20625Q40.284374 30.003124 40.190624 31.3625ZM49.878124 25.253124L49.878124 23.2375L51.64375 23.2375L51.64375 25.253124L49.878124 25.253124ZM49.878124 37.55L49.878124 27.175L51.64375 27.175L51.64375 37.55L49.878124 37.55ZM53.8625 37.55L53.8625 27.175L55.45625 27.175L55.45625 28.659374Q56.596874 26.940624 58.753124 26.940624Q59.690624 26.940624 60.471874 27.284374Q61.26875 27.6125 61.659374 28.159374Q62.05 28.70625 62.20625 29.45625Q62.3 29.95625 62.3 31.175L62.3 37.55L60.534374 37.55L60.534374 31.2375Q60.534374 30.159374 60.33125 29.628124Q60.128124 29.096874 59.596874 28.784374Q59.08125 28.471874 58.378124 28.471874Q57.253124 28.471874 56.440624 29.190624Q55.628124 29.89375 55.628124 31.878124L55.628124 37.55L53.8625 37.55ZM71.64375 36.26875Q70.65938 37.096874 69.75313 37.440624Q68.84688 37.784374 67.81563 37.784374Q66.1125 37.784374 65.19063 36.95625Q64.26875 36.1125 64.26875 34.815624Q64.26875 34.05 64.6125 33.425Q64.97188 32.8 65.53438 32.425Q66.09688 32.034374 66.8 31.83125Q67.31563 31.70625 68.3625 31.565624Q70.4875 31.315624 71.4875 30.971874Q71.50313 30.6125 71.50313 30.503124Q71.50313 29.440624 71.00313 28.9875Q70.33125 28.39375 69.00313 28.39375Q67.75313 28.39375 67.15938 28.83125Q66.58125 29.26875 66.3 30.378124L64.58125 30.14375Q64.81563 29.034374 65.34688 28.3625Q65.87813 27.675 66.89375 27.315624Q67.90938 26.940624 69.25313 26.940624Q70.58125 26.940624 71.40938 27.253124Q72.2375 27.565624 72.62813 28.05Q73.01875 28.51875 73.175 29.2375Q73.26875 29.690624 73.26875 30.8625L73.26875 33.20625Q73.26875 35.659374 73.37813 36.315624Q73.4875 36.95625 73.83125 37.55L71.9875 37.55Q71.72188 37.003124 71.64375 36.26875ZM71.4875 32.346874Q70.53438 32.7375 68.6125 33.003124Q67.53438 33.159374 67.08125 33.3625Q66.64375 33.55 66.39375 33.925Q66.14375 34.3 66.14375 34.76875Q66.14375 35.471874 66.675 35.940624Q67.20625 36.409374 68.2375 36.409374Q69.25313 36.409374 70.03438 35.971874Q70.83125 35.51875 71.20625 34.753124Q71.4875 34.14375 71.4875 32.9875L71.4875 32.346874ZM75.8625 37.55L75.8625 27.175L77.44063 27.175L77.44063 28.628124Q77.925 27.878124 78.7375 27.409374Q79.55 26.940624 80.58125 26.940624Q81.7375 26.940624 82.47188 27.425Q83.20625 27.89375 83.51875 28.753124Q84.75313 26.940624 86.72188 26.940624Q88.26875 26.940624 89.09688 27.8Q89.925 28.659374 89.925 30.425L89.925 37.55L88.175 37.55L88.175 31.01875Q88.175 29.95625 88.00313 29.503124Q87.83125 29.034374 87.37813 28.753124Q86.94063 28.471874 86.33125 28.471874Q85.2375 28.471874 84.50313 29.20625Q83.78438 29.925 83.78438 31.51875L83.78438 37.55L82.03438 37.55L82.03438 30.815624Q82.03438 29.64375 81.59688 29.065624Q81.175 28.471874 80.19063 28.471874Q79.45625 28.471874 78.81563 28.8625Q78.19063 29.253124 77.90938 30.003124Q77.62813 30.753124 77.62813 32.175L77.62813 37.55L75.8625 37.55ZM99.97188 34.20625L101.78438 34.440624Q101.3625 36.01875 100.19063 36.909374Q99.03438 37.784374 97.22188 37.784374Q94.95625 37.784374 93.6125 36.39375Q92.28438 34.9875 92.28438 32.45625Q92.28438 29.83125 93.62813 28.39375Q94.97188 26.940624 97.12813 26.940624Q99.20625 26.940624 100.51875 28.3625Q101.84688 29.76875 101.84688 32.346874Q101.84688 32.503124 101.83125 32.815624L94.09688 32.815624Q94.19063 34.51875 95.06563 35.425Q95.94063 36.33125 97.2375 36.33125Q98.20625 36.33125 98.87813 35.83125Q99.56563 35.315624 99.97188 34.20625ZM94.19063 31.3625L99.9875 31.3625Q99.87813 30.065624 99.33125 29.409374Q98.4875 28.39375 97.14375 28.39375Q95.94063 28.39375 95.1125 29.20625Q94.28438 30.003124 94.19063 31.3625ZM103.8625 37.55L103.8625 27.175L105.45625 27.175L105.45625 28.659374Q106.59688 26.940624 108.75313 26.940624Q109.69063 26.940624 110.47188 27.284374Q111.26875 27.6125 111.65938 28.159374Q112.05 28.70625 112.20625 29.45625Q112.3 29.95625 112.3 31.175L112.3 37.55L110.53438 37.55L110.53438 31.2375Q110.53438 30.159374 110.33125 29.628124Q110.12813 29.096874 109.59688 28.784374Q109.08125 28.471874 108.37813 28.471874Q107.25313 28.471874 106.44063 29.190624Q105.62813 29.89375 105.62813 31.878124L105.62813 37.55L103.8625 37.55ZM118.70625 35.971874L118.95625 37.534374Q118.22188 37.690624 117.62813 37.690624Q116.675 37.690624 116.14375 37.39375Q115.62813 37.08125 115.40938 36.596874Q115.19063 36.096874 115.19063 34.51875L115.19063 28.55L113.90938 28.55L113.90938 27.175L115.19063 27.175L115.19063 24.6125L116.94063 23.55L116.94063 27.175L118.70625 27.175L118.70625 28.55L116.94063 28.55L116.94063 34.6125Q116.94063 35.3625 117.03438 35.58125Q117.12813 35.784374 117.33125 35.925Q117.55 36.05 117.94063 36.05Q118.22188 36.05 118.70625 35.971874ZM120.22188 32.3625Q120.22188 29.4875 121.81563 28.096874Q123.15938 26.940624 125.08125 26.940624Q127.22188 26.940624 128.56563 28.346874Q129.925 29.753124 129.925 32.221874Q129.925 34.221874 129.33125 35.378124Q128.7375 36.51875 127.58125 37.159374Q126.44063 37.784374 125.08125 37.784374Q122.89375 37.784374 121.55 36.39375Q120.22188 34.9875 120.22188 32.3625ZM122.01875 32.3625Q122.01875 34.3625 122.87813 35.346874Q123.75313 36.33125 125.08125 36.33125Q126.39375 36.33125 127.25313 35.346874Q128.12813 34.346874 128.12813 32.3Q128.12813 30.378124 127.25313 29.39375Q126.37813 28.39375 125.08125 28.39375Q123.75313 28.39375 122.87813 29.39375Q122.01875 30.378124 122.01875 32.3625ZM137.19063 33.253124L137.19063 31.4875L142.58125 31.4875L142.58125 33.253124L137.19063 33.253124ZM151.01875 37.55L151.01875 23.2375L156.39375 23.2375Q158.03438 23.2375 159.01875 23.675Q160.00313 24.096874 160.56563 25.003124Q161.12813 25.909374 161.12813 26.89375Q161.12813 27.815624 160.62813 28.628124Q160.14375 29.440624 159.12813 29.925Q160.425 30.315624 161.12813 31.2375Q161.83125 32.14375 161.83125 33.39375Q161.83125 34.409374 161.39375 35.26875Q160.97188 36.128124 160.34688 36.596874Q159.72188 37.065624 158.78438 37.315624Q157.84688 37.55 156.47188 37.55L151.01875 37.55ZM152.90938 29.253124L156.00313 29.253124Q157.26875 29.253124 157.81563 29.08125Q158.53438 28.8625 158.89375 28.378124Q159.26875 27.878124 159.26875 27.1125Q159.26875 26.409374 158.925 25.8625Q158.58125 25.315624 157.94063 25.128124Q157.31563 24.925 155.76875 24.925L152.90938 24.925L152.90938 29.253124ZM152.90938 35.8625L156.47188 35.8625Q157.39375 35.8625 157.76875 35.784374Q158.425 35.675 158.8625 35.409374Q159.3 35.128124 159.58125 34.6125Q159.8625 34.08125 159.8625 33.39375Q159.8625 32.596874 159.45625 32.003124Q159.05 31.409374 158.31563 31.175Q157.58125 30.940624 156.22188 30.940624L152.90938 30.940624L152.90938 35.8625ZM163.51875 30.58125Q163.51875 27.01875 165.425 25.003124Q167.34688 22.971874 170.37813 22.971874Q172.3625 22.971874 173.94063 23.925Q175.53438 24.878124 176.3625 26.58125Q177.20625 28.26875 177.20625 30.409374Q177.20625 32.58125 176.33125 34.3Q175.45625 36.01875 173.83125 36.909374Q172.22188 37.8 170.3625 37.8Q168.34688 37.8 166.75313 36.83125Q165.15938 35.846874 164.33125 34.159374Q163.51875 32.45625 163.51875 30.58125ZM165.47188 30.6125Q165.47188 33.190624 166.8625 34.690624Q168.25313 36.175 170.34688 36.175Q172.4875 36.175 173.8625 34.675Q175.25313 33.159374 175.25313 30.39375Q175.25313 28.659374 174.65938 27.3625Q174.08125 26.05 172.94063 25.33125Q171.8 24.6125 170.37813 24.6125Q168.37813 24.6125 166.925 26.003124Q165.47188 27.378124 165.47188 30.6125ZM179.45625 32.95625L181.2375 32.8Q181.3625 33.8625 181.81563 34.55Q182.28438 35.2375 183.25313 35.675Q184.2375 36.096874 185.47188 36.096874Q186.55 36.096874 187.37813 35.784374Q188.20625 35.45625 188.6125 34.89375Q189.01875 34.33125 189.01875 33.659374Q189.01875 32.9875 188.62813 32.4875Q188.2375 31.9875 187.34688 31.64375Q186.76875 31.409374 184.78438 30.940624Q182.81563 30.471874 182.03438 30.05Q181.00313 29.51875 180.50313 28.721874Q180.00313 27.925 180.00313 26.940624Q180.00313 25.846874 180.6125 24.909374Q181.22188 23.971874 182.40938 23.4875Q183.59688 22.9875 185.03438 22.9875Q186.62813 22.9875 187.84688 23.503124Q189.06563 24.01875 189.70625 25.01875Q190.3625 26.003124 190.40938 27.26875L188.59688 27.409374Q188.45625 26.05 187.6125 25.3625Q186.76875 24.659374 185.1125 24.659374Q183.39375 24.659374 182.59688 25.3Q181.81563 25.925 181.81563 26.8Q181.81563 27.58125 182.37813 28.08125Q182.925 28.58125 185.2375 29.096874Q187.55 29.6125 188.40938 30.003124Q189.65938 30.58125 190.25313 31.471874Q190.84688 32.346874 190.84688 33.503124Q190.84688 34.64375 190.19063 35.659374Q189.53438 36.675 188.3 37.2375Q187.08125 37.8 185.55 37.8Q183.6125 37.8 182.3 37.2375Q180.9875 36.659374 180.2375 35.51875Q179.4875 34.378124 179.45625 32.95625ZM203.94063 36.01875Q205.26875 36.925 206.37813 37.346874L205.81563 38.659374Q204.26875 38.1125 202.7375 36.909374Q201.14375 37.8 199.22188 37.8Q197.28438 37.8 195.69063 36.8625Q194.1125 35.925 193.25313 34.221874Q192.40938 32.51875 192.40938 30.39375Q192.40938 28.26875 193.26875 26.534374Q194.12813 24.8 195.70625 23.89375Q197.3 22.971874 199.26875 22.971874Q201.25313 22.971874 202.83125 23.925Q204.425 24.8625 205.25313 26.565624Q206.09688 28.253124 206.09688 30.378124Q206.09688 32.14375 205.56563 33.565624Q205.03438 34.971874 203.94063 36.01875ZM199.76875 33.596874Q201.40938 34.05 202.47188 34.95625Q204.14375 33.440624 204.14375 30.378124Q204.14375 28.64375 203.55 27.346874Q202.97188 26.05 201.83125 25.33125Q200.69063 24.6125 199.26875 24.6125Q197.15938 24.6125 195.75313 26.065624Q194.3625 27.503124 194.3625 30.39375Q194.3625 33.190624 195.7375 34.690624Q197.12813 36.175 199.26875 36.175Q200.28438 36.175 201.19063 35.784374Q200.3 35.221874 199.31563 34.971874L199.76875 33.596874ZM218.4875 23.2375L220.37813 23.2375L220.37813 31.503124Q220.37813 33.659374 219.89375 34.940624Q219.40938 36.20625 218.12813 37.003124Q216.8625 37.8 214.78438 37.8Q212.76875 37.8 211.4875 37.1125Q210.22188 36.409374 209.675 35.096874Q209.12813 33.784374 209.12813 31.503124L209.12813 23.2375L211.01875 23.2375L211.01875 31.4875Q211.01875 33.3625 211.3625 34.253124Q211.70625 35.128124 212.55 35.6125Q213.39375 36.08125 214.62813 36.08125Q216.70625 36.08125 217.59688 35.14375Q218.4875 34.190624 218.4875 31.4875L218.4875 23.2375ZM223.12813 37.55L223.12813 23.2375L233.4875 23.2375L233.4875 24.925L225.03438 24.925L225.03438 29.3L232.94063 29.3L232.94063 30.9875L225.03438 30.9875L225.03438 35.8625L233.81563 35.8625L233.81563 37.55L223.12813 37.55Z" fill-rule="nonzero"/></svg>