<svg version="1.1" viewBox="0.0 0.0 600.0 371.0" fill="none" stroke="none" stroke-linecap="square" stroke-miterlimit="10" width="600" height="371" xmlns:xlink="http://www.w3.org/1999/xlink" xmlns="http://www.w3.org/2000/svg"><path fill="#ffffff" d="M0 0L600.0 0L600.0 371.0L0 371.0L0 0Z" fill-rule="nonzero"/><path stroke="#333333" stroke-width="1.0" stroke-linecap="butt" d="M52.5 300.5L490.5 300.5" fill-rule="nonzero"/><path stroke="#cccccc" stroke-width="1.0" stroke-linecap="butt" d="M52.5 240.5L490.5 240.5" fill-rule="nonzero"/><path stroke="#cccccc" stroke-width="1.0" stroke-linecap="butt" d="M52.5 181.5L490.5 181.5" fill-rule="nonzero"/><path stroke="#cccccc" stroke-width="1.0" stroke-linecap="butt" d="M52.5 121.5L490.5 121.5" fill-rule="nonzero"/><path stroke="#cccccc" stroke-width="1.0" stroke-linecap="butt" d="M52.5 61.5L490.5 61.5" fill-rule="nonzero"/><clipPath id="id_0"><path d="M52.55 61.916668L490.61444 61.916668L490.61444 300.45L52.55 300.45L52.55 61.916668Z" clip-rule="nonzero"/></clipPath><path stroke="#000000" stroke-width="0.0" stroke-linecap="butt" stroke-opacity="0.0" clip-path="url(#id_0)" d="M70.0 300.0L66.0 300.0L66.0 296.0C66.0 294.89542 66.89543 294.0 68.0 294.0L68.0 294.0C69.10457 294.0 70.0 294.89542 70.0 296.0Z" fill-rule="nonzero"/><path fill="#4285f4" clip-path="url(#id_0)" d="M70.0 300.0L66.0 300.0L66.0 296.0C66.0 294.89542 66.89543 294.0 68.0 294.0L68.0 294.0C69.10457 294.0 70.0 294.89542 70.0 296.0Z" fill-rule="nonzero"/><path stroke="#000000" stroke-width="0.0" stroke-linecap="butt" stroke-opacity="0.0" clip-path="url(#id_0)" d="M112.0 300.0L108.0 300.0L108.0 295.0C108.0 293.89542 108.89543 293.0 110.0 293.0L110.0 293.0C111.10457 293.0 112.0 293.89542 112.0 295.0Z" fill-rule="nonzero"/><path fill="#4285f4" clip-path="url(#id_0)" d="M112.0 300.0L108.0 300.0L108.0 295.0C108.0 293.89542 108.89543 293.0 110.0 293.0L110.0 293.0C111.10457 293.0 112.0 293.89542 112.0 295.0Z" fill-rule="nonzero"/><path stroke="#000000" stroke-width="0.0" stroke-linecap="butt" stroke-opacity="0.0" clip-path="url(#id_0)" d="M155.0 300.0L151.0 300.0L151.0 296.0C151.0 294.89542 151.89543 294.0 153.0 294.0L153.0 294.0C154.10457 294.0 155.0 294.89542 155.0 296.0Z" fill-rule="nonzero"/><path fill="#4285f4" clip-path="url(#id_0)" d="M155.0 300.0L151.0 300.0L151.0 296.0C151.0 294.89542 151.89543 294.0 153.0 294.0L153.0 294.0C154.10457 294.0 155.0 294.89542 155.0 296.0Z" fill-rule="nonzero"/><path stroke="#000000" stroke-width="0.0" stroke-linecap="butt" stroke-opacity="0.0" clip-path="url(#id_0)" d="M197.0 300.0L193.0 300.0L193.0 295.0C193.0 293.89542 193.89543 293.0 195.0 293.0L195.0 293.0C196.10457 293.0 197.0 293.89542 197.0 295.0Z" fill-rule="nonzero"/><path fill="#4285f4" clip-path="url(#id_0)" d="M197.0 300.0L193.0 300.0L193.0 295.0C193.0 293.89542 193.89543 293.0 195.0 293.0L195.0 293.0C196.10457 293.0 197.0 293.89542 197.0 295.0Z" fill-rule="nonzero"/><path stroke="#000000" stroke-width="0.0" stroke-linecap="butt" stroke-opacity="0.0" clip-path="url(#id_0)" d="M239.0 300.0L235.0 300.0L235.0 295.0C235.0 293.89542 235.89543 293.0 237.0 293.0L237.0 293.0C238.10457 293.0 239.0 293.89542 239.0 295.0Z" fill-rule="nonzero"/><path fill="#4285f4" clip-path="url(#id_0)" d="M239.0 300.0L235.0 300.0L235.0 295.0C235.0 293.89542 235.89543 293.0 237.0 293.0L237.0 293.0C238.10457 293.0 239.0 293.89542 239.0 295.0Z" fill-rule="nonzero"/><path stroke="#000000" stroke-width="0.0" stroke-linecap="butt" stroke-opacity="0.0" clip-path="url(#id_0)" d="M282.0 300.0L278.0 300.0L278.0 295.0C278.0 293.89542 278.89542 293.0 280.0 293.0L280.0 293.0C281.10458 293.0 282.0 293.89542 282.0 295.0Z" fill-rule="nonzero"/><path fill="#4285f4" clip-path="url(#id_0)" d="M282.0 300.0L278.0 300.0L278.0 295.0C278.0 293.89542 278.89542 293.0 280.0 293.0L280.0 293.0C281.10458 293.0 282.0 293.89542 282.0 295.0Z" fill-rule="nonzero"/><path stroke="#000000" stroke-width="0.0" stroke-linecap="butt" stroke-opacity="0.0" clip-path="url(#id_0)" d="M324.0 300.0L320.0 300.0L320.0 295.0C320.0 293.89542 320.89542 293.0 322.0 293.0L322.0 293.0C323.10458 293.0 324.0 293.89542 324.0 295.0Z" fill-rule="nonzero"/><path fill="#4285f4" clip-path="url(#id_0)" d="M324.0 300.0L320.0 300.0L320.0 295.0C320.0 293.89542 320.89542 293.0 322.0 293.0L322.0 293.0C323.10458 293.0 324.0 293.89542 324.0 295.0Z" fill-rule="nonzero"/><path stroke="#000000" stroke-width="0.0" stroke-linecap="butt" stroke-opacity="0.0" clip-path="url(#id_0)" d="M366.0 300.0L362.0 300.0L362.0 295.0C362.0 293.89542 362.89542 293.0 364.0 293.0L364.0 293.0C365.10458 293.0 366.0 293.89542 366.0 295.0Z" fill-rule="nonzero"/><path fill="#4285f4" clip-path="url(#id_0)" d="M366.0 300.0L362.0 300.0L362.0 295.0C362.0 293.89542 362.89542 293.0 364.0 293.0L364.0 293.0C365.10458 293.0 366.0 293.89542 366.0 295.0Z" fill-rule="nonzero"/><path stroke="#000000" stroke-width="0.0" stroke-linecap="butt" stroke-opacity="0.0" clip-path="url(#id_0)" d="M409.0 300.0L405.0 300.0L405.0 295.0C405.0 293.89542 405.89542 293.0 407.0 293.0L407.0 293.0C408.10458 293.0 409.0 293.89542 409.0 295.0Z" fill-rule="nonzero"/><path fill="#4285f4" clip-path="url(#id_0)" d="M409.0 300.0L405.0 300.0L405.0 295.0C405.0 293.89542 405.89542 293.0 407.0 293.0L407.0 293.0C408.10458 293.0 409.0 293.89542 409.0 295.0Z" fill-rule="nonzero"/><path stroke="#000000" stroke-width="0.0" stroke-linecap="butt" stroke-opacity="0.0" clip-path="url(#id_0)" d="M451.0 300.0L447.0 300.0L447.0 295.0C447.0 293.89542 447.89542 293.0 449.0 293.0L449.0 293.0C450.10458 293.0 451.0 293.89542 451.0 295.0Z" fill-rule="nonzero"/><path fill="#4285f4" clip-path="url(#id_0)" d="M451.0 300.0L447.0 300.0L447.0 295.0C447.0 293.89542 447.89542 293.0 449.0 293.0L449.0 293.0C450.10458 293.0 451.0 293.89542 451.0 295.0Z" fill-rule="nonzero"/><path stroke="#000000" stroke-width="0.0" stroke-linecap="butt" stroke-opacity="0.0" clip-path="url(#id_0)" d="M75.0 300.0L71.0 300.0L71.0 300.0C71.0 300.0 71.0 300.0 71.0 300.0L75.0 300.0C75.0 300.0 75.0 300.0 75.0 300.0Z" fill-rule="nonzero"/><path fill="#ea4335" clip-path="url(#id_0)" d="M75.0 300.0L71.0 300.0L71.0 300.0C71.0 300.0 71.0 300.0 71.0 300.0L75.0 300.0C75.0 300.0 75.0 300.0 75.0 300.0Z" fill-rule="nonzero"/><path stroke="#000000" stroke-width="0.0" stroke-linecap="butt" stroke-opacity="0.0" clip-path="url(#id_0)" d="M117.0 300.0L113.0 300.0L113.0 300.0C113.0 300.0 113.0 300.0 113.0 300.0L117.0 300.0C117.0 300.0 117.0 300.0 117.0 300.0Z" fill-rule="nonzero"/><path fill="#ea4335" clip-path="url(#id_0)" d="M117.0 300.0L113.0 300.0L113.0 300.0C113.0 300.0 113.0 300.0 113.0 300.0L117.0 300.0C117.0 300.0 117.0 300.0 117.0 300.0Z" fill-rule="nonzero"/><path stroke="#000000" stroke-width="0.0" stroke-linecap="butt" stroke-opacity="0.0" clip-path="url(#id_0)" d="M160.0 300.0L156.0 300.0L156.0 300.0C156.0 300.0 156.0 300.0 156.0 300.0L160.0 300.0C160.0 300.0 160.0 300.0 160.0 300.0Z" fill-rule="nonzero"/><path fill="#ea4335" clip-path="url(#id_0)" d="M160.0 300.0L156.0 300.0L156.0 300.0C156.0 300.0 156.0 300.0 156.0 300.0L160.0 300.0C160.0 300.0 160.0 300.0 160.0 300.0Z" fill-rule="nonzero"/><path stroke="#000000" stroke-width="0.0" stroke-linecap="butt" stroke-opacity="0.0" clip-path="url(#id_0)" d="M202.0 300.0L198.0 300.0L198.0 300.0C198.0 300.0 198.0 300.0 198.0 300.0L202.0 300.0C202.0 300.0 202.0 300.0 202.0 300.0Z" fill-rule="nonzero"/><path fill="#ea4335" clip-path="url(#id_0)" d="M202.0 300.0L198.0 300.0L198.0 300.0C198.0 300.0 198.0 300.0 198.0 300.0L202.0 300.0C202.0 300.0 202.0 300.0 202.0 300.0Z" fill-rule="nonzero"/><path stroke="#000000" stroke-width="0.0" stroke-linecap="butt" stroke-opacity="0.0" clip-path="url(#id_0)" d="M244.0 300.0L240.0 300.0L240.0 300.0C240.0 300.0 240.0 300.0 240.0 300.0L244.0 300.0C244.0 300.0 244.0 300.0 244.0 300.0Z" fill-rule="nonzero"/><path fill="#ea4335" clip-path="url(#id_0)" d="M244.0 300.0L240.0 300.0L240.0 300.0C240.0 300.0 240.0 300.0 240.0 300.0L244.0 300.0C244.0 300.0 244.0 300.0 244.0 300.0Z" fill-rule="nonzero"/><path stroke="#000000" stroke-width="0.0" stroke-linecap="butt" stroke-opacity="0.0" clip-path="url(#id_0)" d="M287.0 300.0L283.0 300.0L283.0 300.0C283.0 300.0 283.0 300.0 283.0 300.0L287.0 300.0C287.0 300.0 287.0 300.0 287.0 300.0Z" fill-rule="nonzero"/><path fill="#ea4335" clip-path="url(#id_0)" d="M287.0 300.0L283.0 300.0L283.0 300.0C283.0 300.0 283.0 300.0 283.0 300.0L287.0 300.0C287.0 300.0 287.0 300.0 287.0 300.0Z" fill-rule="nonzero"/><path stroke="#000000" stroke-width="0.0" stroke-linecap="butt" stroke-opacity="0.0" clip-path="url(#id_0)" d="M329.0 300.0L325.0 300.0L325.0 300.0C325.0 300.0 325.0 300.0 325.0 300.0L329.0 300.0C329.0 300.0 329.0 300.0 329.0 300.0Z" fill-rule="nonzero"/><path fill="#ea4335" clip-path="url(#id_0)" d="M329.0 300.0L325.0 300.0L325.0 300.0C325.0 300.0 325.0 300.0 325.0 300.0L329.0 300.0C329.0 300.0 329.0 300.0 329.0 300.0Z" fill-rule="nonzero"/><path stroke="#000000" stroke-width="0.0" stroke-linecap="butt" stroke-opacity="0.0" clip-path="url(#id_0)" d="M371.0 300.0L367.0 300.0L367.0 300.0C367.0 300.0 367.0 300.0 367.0 300.0L371.0 300.0C371.0 300.0 371.0 300.0 371.0 300.0Z" fill-rule="nonzero"/><path fill="#ea4335" clip-path="url(#id_0)" d="M371.0 300.0L367.0 300.0L367.0 300.0C367.0 300.0 367.0 300.0 367.0 300.0L371.0 300.0C371.0 300.0 371.0 300.0 371.0 300.0Z" fill-rule="nonzero"/><path stroke="#000000" stroke-width="0.0" stroke-linecap="butt" stroke-opacity="0.0" clip-path="url(#id_0)" d="M414.0 300.0L410.0 300.0L410.0 300.0C410.0 300.0 410.0 300.0 410.0 300.0L414.0 300.0C414.0 300.0 414.0 300.0 414.0 300.0Z" fill-rule="nonzero"/><path fill="#ea4335" clip-path="url(#id_0)" d="M414.0 300.0L410.0 300.0L410.0 300.0C410.0 300.0 410.0 300.0 410.0 300.0L414.0 300.0C414.0 300.0 414.0 300.0 414.0 300.0Z" fill-rule="nonzero"/><path stroke="#000000" stroke-width="0.0" stroke-linecap="butt" stroke-opacity="0.0" clip-path="url(#id_0)" d="M456.0 300.0L452.0 300.0L452.0 300.0C452.0 300.0 452.0 300.0 452.0 300.0L456.0 300.0C456.0 300.0 456.0 300.0 456.0 300.0Z" fill-rule="nonzero"/><path fill="#ea4335" clip-path="url(#id_0)" d="M456.0 300.0L452.0 300.0L452.0 300.0C452.0 300.0 452.0 300.0 452.0 300.0L456.0 300.0C456.0 300.0 456.0 300.0 456.0 300.0Z" fill-rule="nonzero"/><path stroke="#000000" stroke-width="0.0" stroke-linecap="butt" stroke-opacity="0.0" clip-path="url(#id_0)" d="M80.0 300.0L76.0 300.0L76.0 137.0C76.0 135.89543 76.89543 135.0 78.0 135.0L78.0 135.0C79.10457 135.0 80.0 135.89543 80.0 137.0Z" fill-rule="nonzero"/><path fill="#fbbc04" clip-path="url(#id_0)" d="M80.0 300.0L76.0 300.0L76.0 137.0C76.0 135.89543 76.89543 135.0 78.0 135.0L78.0 135.0C79.10457 135.0 80.0 135.89543 80.0 137.0Z" fill-rule="nonzero"/><path stroke="#000000" stroke-width="0.0" stroke-linecap="butt" stroke-opacity="0.0" clip-path="url(#id_0)" d="M122.0 300.0L118.0 300.0L118.0 113.0C118.0 111.89543 118.89543 111.0 120.0 111.0L120.0 111.0C121.10457 111.0 122.0 111.89543 122.0 113.0Z" fill-rule="nonzero"/><path fill="#fbbc04" clip-path="url(#id_0)" d="M122.0 300.0L118.0 300.0L118.0 113.0C118.0 111.89543 118.89543 111.0 120.0 111.0L120.0 111.0C121.10457 111.0 122.0 111.89543 122.0 113.0Z" fill-rule="nonzero"/><path stroke="#000000" stroke-width="0.0" stroke-linecap="butt" stroke-opacity="0.0" clip-path="url(#id_0)" d="M165.0 300.0L161.0 300.0L161.0 115.0C161.0 113.89543 161.89543 113.0 163.0 113.0L163.0 113.0C164.10457 113.0 165.0 113.89543 165.0 115.0Z" fill-rule="nonzero"/><path fill="#fbbc04" clip-path="url(#id_0)" d="M165.0 300.0L161.0 300.0L161.0 115.0C161.0 113.89543 161.89543 113.0 163.0 113.0L163.0 113.0C164.10457 113.0 165.0 113.89543 165.0 115.0Z" fill-rule="nonzero"/><path stroke="#000000" stroke-width="0.0" stroke-linecap="butt" stroke-opacity="0.0" clip-path="url(#id_0)" d="M207.0 300.0L203.0 300.0L203.0 112.0C203.0 110.89543 203.89543 110.0 205.0 110.0L205.0 110.0C206.10457 110.0 207.0 110.89543 207.0 112.0Z" fill-rule="nonzero"/><path fill="#fbbc04" clip-path="url(#id_0)" d="M207.0 300.0L203.0 300.0L203.0 112.0C203.0 110.89543 203.89543 110.0 205.0 110.0L205.0 110.0C206.10457 110.0 207.0 110.89543 207.0 112.0Z" fill-rule="nonzero"/><path stroke="#000000" stroke-width="0.0" stroke-linecap="butt" stroke-opacity="0.0" clip-path="url(#id_0)" d="M249.0 300.0L245.0 300.0L245.0 112.0C245.0 110.89543 245.89543 110.0 247.0 110.0L247.0 110.0C248.10457 110.0 249.0 110.89543 249.0 112.0Z" fill-rule="nonzero"/><path fill="#fbbc04" clip-path="url(#id_0)" d="M249.0 300.0L245.0 300.0L245.0 112.0C245.0 110.89543 245.89543 110.0 247.0 110.0L247.0 110.0C248.10457 110.0 249.0 110.89543 249.0 112.0Z" fill-rule="nonzero"/><path stroke="#000000" stroke-width="0.0" stroke-linecap="butt" stroke-opacity="0.0" clip-path="url(#id_0)" d="M292.0 300.0L288.0 300.0L288.0 107.0C288.0 105.89543 288.89542 105.0 290.0 105.0L290.0 105.0C291.10458 105.0 292.0 105.89543 292.0 107.0Z" fill-rule="nonzero"/><path fill="#fbbc04" clip-path="url(#id_0)" d="M292.0 300.0L288.0 300.0L288.0 107.0C288.0 105.89543 288.89542 105.0 290.0 105.0L290.0 105.0C291.10458 105.0 292.0 105.89543 292.0 107.0Z" fill-rule="nonzero"/><path stroke="#000000" stroke-width="0.0" stroke-linecap="butt" stroke-opacity="0.0" clip-path="url(#id_0)" d="M334.0 300.0L330.0 300.0L330.0 108.0C330.0 106.89543 330.89542 106.0 332.0 106.0L332.0 106.0C333.10458 106.0 334.0 106.89543 334.0 108.0Z" fill-rule="nonzero"/><path fill="#fbbc04" clip-path="url(#id_0)" d="M334.0 300.0L330.0 300.0L330.0 108.0C330.0 106.89543 330.89542 106.0 332.0 106.0L332.0 106.0C333.10458 106.0 334.0 106.89543 334.0 108.0Z" fill-rule="nonzero"/><path stroke="#000000" stroke-width="0.0" stroke-linecap="butt" stroke-opacity="0.0" clip-path="url(#id_0)" d="M376.0 300.0L372.0 300.0L372.0 109.0C372.0 107.89543 372.89542 107.0 374.0 107.0L374.0 107.0C375.10458 107.0 376.0 107.89543 376.0 109.0Z" fill-rule="nonzero"/><path fill="#fbbc04" clip-path="url(#id_0)" d="M376.0 300.0L372.0 300.0L372.0 109.0C372.0 107.89543 372.89542 107.0 374.0 107.0L374.0 107.0C375.10458 107.0 376.0 107.89543 376.0 109.0Z" fill-rule="nonzero"/><path stroke="#000000" stroke-width="0.0" stroke-linecap="butt" stroke-opacity="0.0" clip-path="url(#id_0)" d="M419.0 300.0L415.0 300.0L415.0 112.0C415.0 110.89543 415.89542 110.0 417.0 110.0L417.0 110.0C418.10458 110.0 419.0 110.89543 419.0 112.0Z" fill-rule="nonzero"/><path fill="#fbbc04" clip-path="url(#id_0)" d="M419.0 300.0L415.0 300.0L415.0 112.0C415.0 110.89543 415.89542 110.0 417.0 110.0L417.0 110.0C418.10458 110.0 419.0 110.89543 419.0 112.0Z" fill-rule="nonzero"/><path stroke="#000000" stroke-width="0.0" stroke-linecap="butt" stroke-opacity="0.0" clip-path="url(#id_0)" d="M461.0 300.0L457.0 300.0L457.0 109.0C457.0 107.89543 457.89542 107.0 459.0 107.0L459.0 107.0C460.10458 107.0 461.0 107.89543 461.0 109.0Z" fill-rule="nonzero"/><path fill="#fbbc04" clip-path="url(#id_0)" d="M461.0 300.0L457.0 300.0L457.0 109.0C457.0 107.89543 457.89542 107.0 459.0 107.0L459.0 107.0C460.10458 107.0 461.0 107.89543 461.0 109.0Z" fill-rule="nonzero"/><path stroke="#000000" stroke-width="0.0" stroke-linecap="butt" stroke-opacity="0.0" clip-path="url(#id_0)" d="M85.0 300.0L81.0 300.0L81.0 298.5C81.0 297.67157 81.67157 297.0 82.5 297.0L83.5 297.0C84.32843 297.0 85.0 297.67157 85.0 298.5Z" fill-rule="nonzero"/><path fill="#34a853" clip-path="url(#id_0)" d="M85.0 300.0L81.0 300.0L81.0 298.5C81.0 297.67157 81.67157 297.0 82.5 297.0L83.5 297.0C84.32843 297.0 85.0 297.67157 85.0 298.5Z" fill-rule="nonzero"/><path stroke="#000000" stroke-width="0.0" stroke-linecap="butt" stroke-opacity="0.0" clip-path="url(#id_0)" d="M127.0 300.0L123.0 300.0L123.0 298.5C123.0 297.67157 123.67157 297.0 124.5 297.0L125.5 297.0C126.32843 297.0 127.0 297.67157 127.0 298.5Z" fill-rule="nonzero"/><path fill="#34a853" clip-path="url(#id_0)" d="M127.0 300.0L123.0 300.0L123.0 298.5C123.0 297.67157 123.67157 297.0 124.5 297.0L125.5 297.0C126.32843 297.0 127.0 297.67157 127.0 298.5Z" fill-rule="nonzero"/><path stroke="#000000" stroke-width="0.0" stroke-linecap="butt" stroke-opacity="0.0" clip-path="url(#id_0)" d="M170.0 300.0L166.0 300.0L166.0 298.5C166.0 297.67157 166.67157 297.0 167.5 297.0L168.5 297.0C169.32843 297.0 170.0 297.67157 170.0 298.5Z" fill-rule="nonzero"/><path fill="#34a853" clip-path="url(#id_0)" d="M170.0 300.0L166.0 300.0L166.0 298.5C166.0 297.67157 166.67157 297.0 167.5 297.0L168.5 297.0C169.32843 297.0 170.0 297.67157 170.0 298.5Z" fill-rule="nonzero"/><path stroke="#000000" stroke-width="0.0" stroke-linecap="butt" stroke-opacity="0.0" clip-path="url(#id_0)" d="M212.0 300.0L208.0 300.0L208.0 298.5C208.0 297.67157 208.67157 297.0 209.5 297.0L210.5 297.0C211.32843 297.0 212.0 297.67157 212.0 298.5Z" fill-rule="nonzero"/><path fill="#34a853" clip-path="url(#id_0)" d="M212.0 300.0L208.0 300.0L208.0 298.5C208.0 297.67157 208.67157 297.0 209.5 297.0L210.5 297.0C211.32843 297.0 212.0 297.67157 212.0 298.5Z" fill-rule="nonzero"/><path stroke="#000000" stroke-width="0.0" stroke-linecap="butt" stroke-opacity="0.0" clip-path="url(#id_0)" d="M254.0 300.0L250.0 300.0L250.0 298.5C250.0 297.67157 250.67157 297.0 251.5 297.0L252.5 297.0C253.32843 297.0 254.0 297.67157 254.0 298.5Z" fill-rule="nonzero"/><path fill="#34a853" clip-path="url(#id_0)" d="M254.0 300.0L250.0 300.0L250.0 298.5C250.0 297.67157 250.67157 297.0 251.5 297.0L252.5 297.0C253.32843 297.0 254.0 297.67157 254.0 298.5Z" fill-rule="nonzero"/><path stroke="#000000" stroke-width="0.0" stroke-linecap="butt" stroke-opacity="0.0" clip-path="url(#id_0)" d="M297.0 300.0L293.0 300.0L293.0 298.5C293.0 297.67157 293.67157 297.0 294.5 297.0L295.5 297.0C296.32843 297.0 297.0 297.67157 297.0 298.5Z" fill-rule="nonzero"/><path fill="#34a853" clip-path="url(#id_0)" d="M297.0 300.0L293.0 300.0L293.0 298.5C293.0 297.67157 293.67157 297.0 294.5 297.0L295.5 297.0C296.32843 297.0 297.0 297.67157 297.0 298.5Z" fill-rule="nonzero"/><path stroke="#000000" stroke-width="0.0" stroke-linecap="butt" stroke-opacity="0.0" clip-path="url(#id_0)" d="M339.0 300.0L335.0 300.0L335.0 298.5C335.0 297.67157 335.67157 297.0 336.5 297.0L337.5 297.0C338.32843 297.0 339.0 297.67157 339.0 298.5Z" fill-rule="nonzero"/><path fill="#34a853" clip-path="url(#id_0)" d="M339.0 300.0L335.0 300.0L335.0 298.5C335.0 297.67157 335.67157 297.0 336.5 297.0L337.5 297.0C338.32843 297.0 339.0 297.67157 339.0 298.5Z" fill-rule="nonzero"/><path stroke="#000000" stroke-width="0.0" stroke-linecap="butt" stroke-opacity="0.0" clip-path="url(#id_0)" d="M381.0 300.0L377.0 300.0L377.0 298.5C377.0 297.67157 377.67157 297.0 378.5 297.0L379.5 297.0C380.32843 297.0 381.0 297.67157 381.0 298.5Z" fill-rule="nonzero"/><path fill="#34a853" clip-path="url(#id_0)" d="M381.0 300.0L377.0 300.0L377.0 298.5C377.0 297.67157 377.67157 297.0 378.5 297.0L379.5 297.0C380.32843 297.0 381.0 297.67157 381.0 298.5Z" fill-rule="nonzero"/><path stroke="#000000" stroke-width="0.0" stroke-linecap="butt" stroke-opacity="0.0" clip-path="url(#id_0)" d="M424.0 300.0L420.0 300.0L420.0 298.5C420.0 297.67157 420.67157 297.0 421.5 297.0L422.5 297.0C423.32843 297.0 424.0 297.67157 424.0 298.5Z" fill-rule="nonzero"/><path fill="#34a853" clip-path="url(#id_0)" d="M424.0 300.0L420.0 300.0L420.0 298.5C420.0 297.67157 420.67157 297.0 421.5 297.0L422.5 297.0C423.32843 297.0 424.0 297.67157 424.0 298.5Z" fill-rule="nonzero"/><path stroke="#000000" stroke-width="0.0" stroke-linecap="butt" stroke-opacity="0.0" clip-path="url(#id_0)" d="M466.0 300.0L462.0 300.0L462.0 298.5C462.0 297.67157 462.67157 297.0 463.5 297.0L464.5 297.0C465.32843 297.0 466.0 297.67157 466.0 298.5Z" fill-rule="nonzero"/><path fill="#34a853" clip-path="url(#id_0)" d="M466.0 300.0L462.0 300.0L462.0 298.5C462.0 297.67157 462.67157 297.0 463.5 297.0L464.5 297.0C465.32843 297.0 466.0 297.67157 466.0 298.5Z" fill-rule="nonzero"/><path stroke="#000000" stroke-width="0.0" stroke-linecap="butt" stroke-opacity="0.0" clip-path="url(#id_0)" d="M90.0 300.0L86.0 300.0L86.0 281.0C86.0 279.89542 86.89543 279.0 88.0 279.0L88.0 279.0C89.10457 279.0 90.0 279.89542 90.0 281.0Z" fill-rule="nonzero"/><path fill="#ff6d01" clip-path="url(#id_0)" d="M90.0 300.0L86.0 300.0L86.0 281.0C86.0 279.89542 86.89543 279.0 88.0 279.0L88.0 279.0C89.10457 279.0 90.0 279.89542 90.0 281.0Z" fill-rule="nonzero"/><path stroke="#000000" stroke-width="0.0" stroke-linecap="butt" stroke-opacity="0.0" clip-path="url(#id_0)" d="M132.0 300.0L128.0 300.0L128.0 277.0C128.0 275.89542 128.89543 275.0 130.0 275.0L130.0 275.0C131.10457 275.0 132.0 275.89542 132.0 277.0Z" fill-rule="nonzero"/><path fill="#ff6d01" clip-path="url(#id_0)" d="M132.0 300.0L128.0 300.0L128.0 277.0C128.0 275.89542 128.89543 275.0 130.0 275.0L130.0 275.0C131.10457 275.0 132.0 275.89542 132.0 277.0Z" fill-rule="nonzero"/><path stroke="#000000" stroke-width="0.0" stroke-linecap="butt" stroke-opacity="0.0" clip-path="url(#id_0)" d="M175.0 300.0L171.0 300.0L171.0 278.0C171.0 276.89542 171.89543 276.0 173.0 276.0L173.0 276.0C174.10457 276.0 175.0 276.89542 175.0 278.0Z" fill-rule="nonzero"/><path fill="#ff6d01" clip-path="url(#id_0)" d="M175.0 300.0L171.0 300.0L171.0 278.0C171.0 276.89542 171.89543 276.0 173.0 276.0L173.0 276.0C174.10457 276.0 175.0 276.89542 175.0 278.0Z" fill-rule="nonzero"/><path stroke="#000000" stroke-width="0.0" stroke-linecap="butt" stroke-opacity="0.0" clip-path="url(#id_0)" d="M217.0 300.0L213.0 300.0L213.0 277.0C213.0 275.89542 213.89543 275.0 215.0 275.0L215.0 275.0C216.10457 275.0 217.0 275.89542 217.0 277.0Z" fill-rule="nonzero"/><path fill="#ff6d01" clip-path="url(#id_0)" d="M217.0 300.0L213.0 300.0L213.0 277.0C213.0 275.89542 213.89543 275.0 215.0 275.0L215.0 275.0C216.10457 275.0 217.0 275.89542 217.0 277.0Z" fill-rule="nonzero"/><path stroke="#000000" stroke-width="0.0" stroke-linecap="butt" stroke-opacity="0.0" clip-path="url(#id_0)" d="M259.0 300.0L255.0 300.0L255.0 277.0C255.0 275.89542 255.89543 275.0 257.0 275.0L257.0 275.0C258.10458 275.0 259.0 275.89542 259.0 277.0Z" fill-rule="nonzero"/><path fill="#ff6d01" clip-path="url(#id_0)" d="M259.0 300.0L255.0 300.0L255.0 277.0C255.0 275.89542 255.89543 275.0 257.0 275.0L257.0 275.0C258.10458 275.0 259.0 275.89542 259.0 277.0Z" fill-rule="nonzero"/><path stroke="#000000" stroke-width="0.0" stroke-linecap="butt" stroke-opacity="0.0" clip-path="url(#id_0)" d="M302.0 300.0L298.0 300.0L298.0 277.0C298.0 275.89542 298.89542 275.0 300.0 275.0L300.0 275.0C301.10458 275.0 302.0 275.89542 302.0 277.0Z" fill-rule="nonzero"/><path fill="#ff6d01" clip-path="url(#id_0)" d="M302.0 300.0L298.0 300.0L298.0 277.0C298.0 275.89542 298.89542 275.0 300.0 275.0L300.0 275.0C301.10458 275.0 302.0 275.89542 302.0 277.0Z" fill-rule="nonzero"/><path stroke="#000000" stroke-width="0.0" stroke-linecap="butt" stroke-opacity="0.0" clip-path="url(#id_0)" d="M344.0 300.0L340.0 300.0L340.0 277.0C340.0 275.89542 340.89542 275.0 342.0 275.0L342.0 275.0C343.10458 275.0 344.0 275.89542 344.0 277.0Z" fill-rule="nonzero"/><path fill="#ff6d01" clip-path="url(#id_0)" d="M344.0 300.0L340.0 300.0L340.0 277.0C340.0 275.89542 340.89542 275.0 342.0 275.0L342.0 275.0C343.10458 275.0 344.0 275.89542 344.0 277.0Z" fill-rule="nonzero"/><path stroke="#000000" stroke-width="0.0" stroke-linecap="butt" stroke-opacity="0.0" clip-path="url(#id_0)" d="M386.0 300.0L382.0 300.0L382.0 277.0C382.0 275.89542 382.89542 275.0 384.0 275.0L384.0 275.0C385.10458 275.0 386.0 275.89542 386.0 277.0Z" fill-rule="nonzero"/><path fill="#ff6d01" clip-path="url(#id_0)" d="M386.0 300.0L382.0 300.0L382.0 277.0C382.0 275.89542 382.89542 275.0 384.0 275.0L384.0 275.0C385.10458 275.0 386.0 275.89542 386.0 277.0Z" fill-rule="nonzero"/><path stroke="#000000" stroke-width="0.0" stroke-linecap="butt" stroke-opacity="0.0" clip-path="url(#id_0)" d="M429.0 300.0L425.0 300.0L425.0 278.0C425.0 276.89542 425.89542 276.0 427.0 276.0L427.0 276.0C428.10458 276.0 429.0 276.89542 429.0 278.0Z" fill-rule="nonzero"/><path fill="#ff6d01" clip-path="url(#id_0)" d="M429.0 300.0L425.0 300.0L425.0 278.0C425.0 276.89542 425.89542 276.0 427.0 276.0L427.0 276.0C428.10458 276.0 429.0 276.89542 429.0 278.0Z" fill-rule="nonzero"/><path stroke="#000000" stroke-width="0.0" stroke-linecap="butt" stroke-opacity="0.0" clip-path="url(#id_0)" d="M471.0 300.0L467.0 300.0L467.0 277.0C467.0 275.89542 467.89542 275.0 469.0 275.0L469.0 275.0C470.10458 275.0 471.0 275.89542 471.0 277.0Z" fill-rule="nonzero"/><path fill="#ff6d01" clip-path="url(#id_0)" d="M471.0 300.0L467.0 300.0L467.0 277.0C467.0 275.89542 467.89542 275.0 469.0 275.0L469.0 275.0C470.10458 275.0 471.0 275.89542 471.0 277.0Z" fill-rule="nonzero"/><path stroke="#000000" stroke-width="0.0" stroke-linecap="butt" stroke-opacity="0.0" clip-path="url(#id_0)" d="M95.0 300.0L91.0 300.0L91.0 131.0C91.0 129.89543 91.89543 129.0 93.0 129.0L93.0 129.0C94.10457 129.0 95.0 129.89543 95.0 131.0Z" fill-rule="nonzero"/><path fill="#46bdc6" clip-path="url(#id_0)" d="M95.0 300.0L91.0 300.0L91.0 131.0C91.0 129.89543 91.89543 129.0 93.0 129.0L93.0 129.0C94.10457 129.0 95.0 129.89543 95.0 131.0Z" fill-rule="nonzero"/><path stroke="#000000" stroke-width="0.0" stroke-linecap="butt" stroke-opacity="0.0" clip-path="url(#id_0)" d="M137.0 300.0L133.0 300.0L133.0 106.0C133.0 104.89543 133.89543 104.0 135.0 104.0L135.0 104.0C136.10457 104.0 137.0 104.89543 137.0 106.0Z" fill-rule="nonzero"/><path fill="#46bdc6" clip-path="url(#id_0)" d="M137.0 300.0L133.0 300.0L133.0 106.0C133.0 104.89543 133.89543 104.0 135.0 104.0L135.0 104.0C136.10457 104.0 137.0 104.89543 137.0 106.0Z" fill-rule="nonzero"/><path stroke="#000000" stroke-width="0.0" stroke-linecap="butt" stroke-opacity="0.0" clip-path="url(#id_0)" d="M180.0 300.0L176.0 300.0L176.0 108.0C176.0 106.89543 176.89543 106.0 178.0 106.0L178.0 106.0C179.10457 106.0 180.0 106.89543 180.0 108.0Z" fill-rule="nonzero"/><path fill="#46bdc6" clip-path="url(#id_0)" d="M180.0 300.0L176.0 300.0L176.0 108.0C176.0 106.89543 176.89543 106.0 178.0 106.0L178.0 106.0C179.10457 106.0 180.0 106.89543 180.0 108.0Z" fill-rule="nonzero"/><path stroke="#000000" stroke-width="0.0" stroke-linecap="butt" stroke-opacity="0.0" clip-path="url(#id_0)" d="M222.0 300.0L218.0 300.0L218.0 105.0C218.0 103.89543 218.89543 103.0 220.0 103.0L220.0 103.0C221.10457 103.0 222.0 103.89543 222.0 105.0Z" fill-rule="nonzero"/><path fill="#46bdc6" clip-path="url(#id_0)" d="M222.0 300.0L218.0 300.0L218.0 105.0C218.0 103.89543 218.89543 103.0 220.0 103.0L220.0 103.0C221.10457 103.0 222.0 103.89543 222.0 105.0Z" fill-rule="nonzero"/><path stroke="#000000" stroke-width="0.0" stroke-linecap="butt" stroke-opacity="0.0" clip-path="url(#id_0)" d="M264.0 300.0L260.0 300.0L260.0 104.0C260.0 102.89543 260.89542 102.0 262.0 102.0L262.0 102.0C263.10458 102.0 264.0 102.89543 264.0 104.0Z" fill-rule="nonzero"/><path fill="#46bdc6" clip-path="url(#id_0)" d="M264.0 300.0L260.0 300.0L260.0 104.0C260.0 102.89543 260.89542 102.0 262.0 102.0L262.0 102.0C263.10458 102.0 264.0 102.89543 264.0 104.0Z" fill-rule="nonzero"/><path stroke="#000000" stroke-width="0.0" stroke-linecap="butt" stroke-opacity="0.0" clip-path="url(#id_0)" d="M307.0 300.0L303.0 300.0L303.0 99.0C303.0 97.89543 303.89542 97.0 305.0 97.0L305.0 97.0C306.10458 97.0 307.0 97.89543 307.0 99.0Z" fill-rule="nonzero"/><path fill="#46bdc6" clip-path="url(#id_0)" d="M307.0 300.0L303.0 300.0L303.0 99.0C303.0 97.89543 303.89542 97.0 305.0 97.0L305.0 97.0C306.10458 97.0 307.0 97.89543 307.0 99.0Z" fill-rule="nonzero"/><path stroke="#000000" stroke-width="0.0" stroke-linecap="butt" stroke-opacity="0.0" clip-path="url(#id_0)" d="M349.0 300.0L345.0 300.0L345.0 100.0C345.0 98.89543 345.89542 98.0 347.0 98.0L347.0 98.0C348.10458 98.0 349.0 98.89543 349.0 100.0Z" fill-rule="nonzero"/><path fill="#46bdc6" clip-path="url(#id_0)" d="M349.0 300.0L345.0 300.0L345.0 100.0C345.0 98.89543 345.89542 98.0 347.0 98.0L347.0 98.0C348.10458 98.0 349.0 98.89543 349.0 100.0Z" fill-rule="nonzero"/><path stroke="#000000" stroke-width="0.0" stroke-linecap="butt" stroke-opacity="0.0" clip-path="url(#id_0)" d="M391.0 300.0L387.0 300.0L387.0 102.0C387.0 100.89543 387.89542 100.0 389.0 100.0L389.0 100.0C390.10458 100.0 391.0 100.89543 391.0 102.0Z" fill-rule="nonzero"/><path fill="#46bdc6" clip-path="url(#id_0)" d="M391.0 300.0L387.0 300.0L387.0 102.0C387.0 100.89543 387.89542 100.0 389.0 100.0L389.0 100.0C390.10458 100.0 391.0 100.89543 391.0 102.0Z" fill-rule="nonzero"/><path stroke="#000000" stroke-width="0.0" stroke-linecap="butt" stroke-opacity="0.0" clip-path="url(#id_0)" d="M434.0 300.0L430.0 300.0L430.0 105.0C430.0 103.89543 430.89542 103.0 432.0 103.0L432.0 103.0C433.10458 103.0 434.0 103.89543 434.0 105.0Z" fill-rule="nonzero"/><path fill="#46bdc6" clip-path="url(#id_0)" d="M434.0 300.0L430.0 300.0L430.0 105.0C430.0 103.89543 430.89542 103.0 432.0 103.0L432.0 103.0C433.10458 103.0 434.0 103.89543 434.0 105.0Z" fill-rule="nonzero"/><path stroke="#000000" stroke-width="0.0" stroke-linecap="butt" stroke-opacity="0.0" clip-path="url(#id_0)" d="M476.0 300.0L472.0 300.0L472.0 101.0C472.0 99.89543 472.89542 99.0 474.0 99.0L474.0 99.0C475.10458 99.0 476.0 99.89543 476.0 101.0Z" fill-rule="nonzero"/><path fill="#46bdc6" clip-path="url(#id_0)" d="M476.0 300.0L472.0 300.0L472.0 101.0C472.0 99.89543 472.89542 99.0 474.0 99.0L474.0 99.0C475.10458 99.0 476.0 99.89543 476.0 101.0Z" fill-rule="nonzero"/><path fill="#000000" d="M251.03535 346.075L251.03535 345.075L254.66035 345.0594L254.66035 348.2469Q253.83223 348.91876 252.9416 349.2625Q252.05098 349.59064 251.11348 349.59064Q249.84785 349.59064 248.80098 349.0594Q247.76973 348.5125 247.23848 347.4969Q246.72285 346.46564 246.72285 345.2Q246.72285 343.9344 247.23848 342.85626Q247.76973 341.7625 248.7541 341.2469Q249.73848 340.71564 251.01973 340.71564Q251.95723 340.71564 252.70723 341.0125Q253.45723 341.3094 253.8791 341.85626Q254.3166 342.3875 254.53535 343.2625L253.51973 343.54376Q253.3166 342.8875 253.01973 342.5125Q252.73848 342.1375 252.20723 341.91876Q251.67598 341.6844 251.03535 341.6844Q250.2541 341.6844 249.67598 341.91876Q249.11348 342.15314 248.7541 342.54376Q248.41035 342.9344 248.22285 343.40314Q247.89473 344.2 247.89473 345.1219Q247.89473 346.27814 248.28535 347.0594Q248.6916 347.825 249.4416 348.2Q250.1916 348.575 251.05098 348.575Q251.78535 348.575 252.48848 348.29376Q253.1916 347.9969 253.55098 347.6844L253.55098 346.075L251.03535 346.075ZM255.86348 349.45L255.86348 343.23126L256.8166 343.23126L256.8166 344.16876Q257.17596 343.5125 257.47284 343.3094Q257.78534 343.09064 258.16034 343.09064Q258.6916 343.09064 259.23846 343.41876L258.8791 344.40314Q258.48846 344.16876 258.11346 344.16876Q257.7541 344.16876 257.47284 344.3875Q257.2072 344.59064 257.09784 344.96564Q256.91034 345.52814 256.91034 346.1844L256.91034 349.45L255.86348 349.45ZM263.9416 348.6844Q263.34784 349.1844 262.80096 349.3875Q262.2697 349.59064 261.6447 349.59064Q260.61346 349.59064 260.0666 349.09064Q259.5197 348.59064 259.5197 347.8094Q259.5197 347.35626 259.72284 346.98126Q259.92596 346.59064 260.2697 346.3719Q260.61346 346.1375 261.03534 346.02814Q261.3322 345.9344 261.97284 345.85626Q263.23846 345.71564 263.84784 345.4969Q263.84784 345.27814 263.84784 345.23126Q263.84784 344.575 263.55096 344.3094Q263.1447 343.96564 262.34784 343.96564Q261.61346 343.96564 261.2541 344.23126Q260.8947 344.48126 260.72284 345.1375L259.6916 344.9969Q259.8322 344.34064 260.16034 343.9344Q260.48846 343.52814 261.09784 343.3094Q261.7072 343.09064 262.5041 343.09064Q263.30096 343.09064 263.80096 343.27814Q264.30096 343.46564 264.53534 343.7469Q264.7697 344.02814 264.86346 344.46564Q264.91034 344.73126 264.91034 345.4344L264.91034 346.84064Q264.91034 348.3094 264.97284 348.7Q265.05096 349.09064 265.2541 349.45L264.1447 349.45Q263.98846 349.1219 263.9416 348.6844ZM263.84784 346.325Q263.2697 346.5594 262.1291 346.73126Q261.47284 346.825 261.2072 346.95Q260.9416 347.0594 260.78534 347.27814Q260.6447 347.4969 260.6447 347.77814Q260.6447 348.2 260.9572 348.48126Q261.28534 348.7625 261.8947 348.7625Q262.5041 348.7625 262.97284 348.4969Q263.4572 348.23126 263.67596 347.7625Q263.84784 347.40314 263.84784 346.71564L263.84784 346.325ZM266.8791 349.45L266.8791 343.23126L267.8166 343.23126L267.8166 344.10626Q268.11346 343.6375 268.59784 343.3719Q269.0822 343.09064 269.7072 343.09064Q270.3947 343.09064 270.8322 343.3719Q271.28534 343.65314 271.4572 344.16876Q272.2072 343.09064 273.3791 343.09064Q274.3166 343.09064 274.80096 343.60626Q275.30096 344.10626 275.30096 345.1844L275.30096 349.45L274.2541 349.45L274.2541 345.52814Q274.2541 344.90314 274.1447 344.6219Q274.05096 344.34064 273.78534 344.16876Q273.5197 343.9969 273.1447 343.9969Q272.48846 343.9969 272.05096 344.4344Q271.6291 344.8719 271.6291 345.84064L271.6291 349.45L270.5666 349.45L270.5666 345.40314Q270.5666 344.7 270.30096 344.35626Q270.05096 343.9969 269.47284 343.9969Q269.0197 343.9969 268.6447 344.23126Q268.2697 344.46564 268.09784 344.91876Q267.92596 345.3719 267.92596 346.21564L267.92596 349.45L266.8791 349.45ZM276.8791 349.45L276.8791 343.23126L277.8166 343.23126L277.8166 344.10626Q278.11346 343.6375 278.59784 343.3719Q279.0822 343.09064 279.7072 343.09064Q280.3947 343.09064 280.8322 343.3719Q281.28534 343.65314 281.4572 344.16876Q282.2072 343.09064 283.3791 343.09064Q284.3166 343.09064 284.80096 343.60626Q285.30096 344.10626 285.30096 345.1844L285.30096 349.45L284.2541 349.45L284.2541 345.52814Q284.2541 344.90314 284.1447 344.6219Q284.05096 344.34064 283.78534 344.16876Q283.5197 343.9969 283.1447 343.9969Q282.48846 343.9969 282.05096 344.4344Q281.6291 344.8719 281.6291 345.84064L281.6291 349.45L280.5666 349.45L280.5666 345.40314Q280.5666 344.7 280.30096 344.35626Q280.05096 343.9969 279.47284 343.9969Q279.0197 343.9969 278.6447 344.23126Q278.2697 344.46564 278.09784 344.91876Q277.92596 345.3719 277.92596 346.21564L277.92596 349.45L276.8791 349.45ZM290.9416 348.6844Q290.34784 349.1844 289.80096 349.3875Q289.2697 349.59064 288.6447 349.59064Q287.61346 349.59064 287.0666 349.09064Q286.5197 348.59064 286.5197 347.8094Q286.5197 347.35626 286.72284 346.98126Q286.92596 346.59064 287.2697 346.3719Q287.61346 346.1375 288.03534 346.02814Q288.3322 345.9344 288.97284 345.85626Q290.23846 345.71564 290.84784 345.4969Q290.84784 345.27814 290.84784 345.23126Q290.84784 344.575 290.55096 344.3094Q290.1447 343.96564 289.34784 343.96564Q288.61346 343.96564 288.2541 344.23126Q287.8947 344.48126 287.72284 345.1375L286.6916 344.9969Q286.8322 344.34064 287.16034 343.9344Q287.48846 343.52814 288.09784 343.3094Q288.7072 343.09064 289.5041 343.09064Q290.30096 343.09064 290.80096 343.27814Q291.30096 343.46564 291.53534 343.7469Q291.7697 344.02814 291.86346 344.46564Q291.91034 344.73126 291.91034 345.4344L291.91034 346.84064Q291.91034 348.3094 291.97284 348.7Q292.05096 349.09064 292.2541 349.45L291.1447 349.45Q290.98846 349.1219 290.9416 348.6844ZM290.84784 346.325Q290.2697 346.5594 289.1291 346.73126Q288.47284 346.825 288.2072 346.95Q287.9416 347.0594 287.78534 347.27814Q287.6447 347.4969 287.6447 347.77814Q287.6447 348.2 287.9572 348.48126Q288.28534 348.7625 288.8947 348.7625Q289.5041 348.7625 289.97284 348.4969Q290.4572 348.23126 290.67596 347.7625Q290.84784 347.40314 290.84784 346.71564L290.84784 346.325ZM293.86346 349.45L293.86346 343.23126L294.8166 343.23126L294.8166 344.16876Q295.17596 343.5125 295.47284 343.3094Q295.78534 343.09064 296.16034 343.09064Q296.6916 343.09064 297.23846 343.41876L296.8791 344.40314Q296.48846 344.16876 296.11346 344.16876Q295.7541 344.16876 295.47284 344.3875Q295.2072 344.59064 295.09784 344.96564Q294.91034 345.52814 294.91034 346.1844L294.91034 349.45L293.86346 349.45Z" fill-rule="nonzero"/><path fill="#000000" d="M40.05 300.21564Q40.05 298.6844 40.3625 297.7625Q40.675 296.825 41.284374 296.325Q41.909374 295.825 42.846874 295.825Q43.534374 295.825 44.05 296.10626Q44.58125 296.3875 44.925 296.91876Q45.26875 297.4344 45.45625 298.1844Q45.64375 298.9344 45.64375 300.21564Q45.64375 301.73126 45.33125 302.65314Q45.034374 303.575 44.409374 304.09064Q43.8 304.59064 42.846874 304.59064Q41.6125 304.59064 40.89375 303.7Q40.05 302.6375 40.05 300.21564ZM41.128124 300.21564Q41.128124 302.325 41.628124 303.02814Q42.128124 303.73126 42.846874 303.73126Q43.58125 303.73126 44.065624 303.02814Q44.565624 302.325 44.565624 300.21564Q44.565624 298.09064 44.065624 297.40314Q43.58125 296.7 42.83125 296.7Q42.1125 296.7 41.675 297.3094Q41.128124 298.09064 41.128124 300.21564Z" fill-rule="nonzero"/><path fill="#000000" d="M23.01875 244.81667L21.971874 244.81667L21.971874 238.09792Q21.58125 238.45729 20.95625 238.83229Q20.346874 239.19167 19.8625 239.36354L19.8625 238.34792Q20.7375 237.92604 21.39375 237.34792Q22.065624 236.75417 22.346874 236.19167L23.01875 236.19167L23.01875 244.81667ZM26.05 240.58229Q26.05 239.05104 26.3625 238.12917Q26.675 237.19167 27.284374 236.69167Q27.909374 236.19167 28.846874 236.19167Q29.534374 236.19167 30.05 236.47292Q30.58125 236.75417 30.925 237.28542Q31.26875 237.80104 31.45625 238.55104Q31.64375 239.30104 31.64375 240.58229Q31.64375 242.09792 31.33125 243.01979Q31.034374 243.94167 30.409374 244.45729Q29.8 244.95729 28.846874 244.95729Q27.6125 244.95729 26.89375 244.06667Q26.05 243.00417 26.05 240.58229ZM27.128124 240.58229Q27.128124 242.69167 27.628124 243.39479Q28.128124 244.09792 28.846874 244.09792Q29.58125 244.09792 30.065624 243.39479Q30.565624 242.69167 30.565624 240.58229Q30.565624 238.45729 30.065624 237.76979Q29.58125 237.06667 28.83125 237.06667Q28.1125 237.06667 27.675 237.67604Q27.128124 238.45729 27.128124 240.58229ZM33.05 240.58229Q33.05 239.05104 33.3625 238.12917Q33.675 237.19167 34.284374 236.69167Q34.909374 236.19167 35.846874 236.19167Q36.534374 236.19167 37.05 236.47292Q37.58125 236.75417 37.925 237.28542Q38.26875 237.80104 38.45625 238.55104Q38.64375 239.30104 38.64375 240.58229Q38.64375 242.09792 38.33125 243.01979Q38.034374 243.94167 37.409374 244.45729Q36.8 244.95729 35.846874 244.95729Q34.6125 244.95729 33.89375 244.06667Q33.05 243.00417 33.05 240.58229ZM34.128124 240.58229Q34.128124 242.69167 34.628124 243.39479Q35.128124 244.09792 35.846874 244.09792Q36.58125 244.09792 37.065624 243.39479Q37.565624 242.69167 37.565624 240.58229Q37.565624 238.45729 37.065624 237.76979Q36.58125 237.06667 35.83125 237.06667Q35.1125 237.06667 34.675 237.67604Q34.128124 238.45729 34.128124 240.58229ZM40.05 240.58229Q40.05 239.05104 40.3625 238.12917Q40.675 237.19167 41.284374 236.69167Q41.909374 236.19167 42.846874 236.19167Q43.534374 236.19167 44.05 236.47292Q44.58125 236.75417 44.925 237.28542Q45.26875 237.80104 45.45625 238.55104Q45.64375 239.30104 45.64375 240.58229Q45.64375 242.09792 45.33125 243.01979Q45.034374 243.94167 44.409374 244.45729Q43.8 244.95729 42.846874 244.95729Q41.6125 244.95729 40.89375 244.06667Q40.05 243.00417 40.05 240.58229ZM41.128124 240.58229Q41.128124 242.69167 41.628124 243.39479Q42.128124 244.09792 42.846874 244.09792Q43.58125 244.09792 44.065624 243.39479Q44.565624 242.69167 44.565624 240.58229Q44.565624 238.45729 44.065624 237.76979Q43.58125 237.06667 42.83125 237.06667Q42.1125 237.06667 41.675 237.67604Q41.128124 238.45729 41.128124 240.58229Z" fill-rule="nonzero"/><path fill="#000000" d="M24.596874 184.16771L24.596874 185.18333L18.909374 185.18333Q18.909374 184.80833 19.034374 184.44896Q19.253124 183.87083 19.721874 183.30833Q20.20625 182.74583 21.1125 182.01146Q22.51875 180.85521 23.003124 180.18333Q23.503124 179.51146 23.503124 178.91771Q23.503124 178.29271 23.05 177.87083Q22.596874 177.43333 21.878124 177.43333Q21.1125 177.43333 20.659374 177.88646Q20.20625 178.33958 20.190624 179.15208L19.1125 179.04271Q19.221874 177.82396 19.940624 177.19896Q20.675 176.55833 21.909374 176.55833Q23.14375 176.55833 23.8625 177.24583Q24.58125 177.93333 24.58125 178.94896Q24.58125 179.46458 24.3625 179.96458Q24.159374 180.44896 23.659374 181.01146Q23.175 181.55833 22.05 182.51146Q21.096874 183.30833 20.815624 183.60521Q20.55 183.88646 20.378124 184.16771L24.596874 184.16771ZM26.05 180.94896Q26.05 179.41771 26.3625 178.49583Q26.675 177.55833 27.284374 177.05833Q27.909374 176.55833 28.846874 176.55833Q29.534374 176.55833 30.05 176.83958Q30.58125 177.12083 30.925 177.65208Q31.26875 178.16771 31.45625 178.91771Q31.64375 179.66771 31.64375 180.94896Q31.64375 182.46458 31.33125 183.38646Q31.034374 184.30833 30.409374 184.82396Q29.8 185.32396 28.846874 185.32396Q27.6125 185.32396 26.89375 184.43333Q26.05 183.37083 26.05 180.94896ZM27.128124 180.94896Q27.128124 183.05833 27.628124 183.76146Q28.128124 184.46458 28.846874 184.46458Q29.58125 184.46458 30.065624 183.76146Q30.565624 183.05833 30.565624 180.94896Q30.565624 178.82396 30.065624 178.13646Q29.58125 177.43333 28.83125 177.43333Q28.1125 177.43333 27.675 178.04271Q27.128124 178.82396 27.128124 180.94896ZM33.05 180.94896Q33.05 179.41771 33.3625 178.49583Q33.675 177.55833 34.284374 177.05833Q34.909374 176.55833 35.846874 176.55833Q36.534374 176.55833 37.05 176.83958Q37.58125 177.12083 37.925 177.65208Q38.26875 178.16771 38.45625 178.91771Q38.64375 179.66771 38.64375 180.94896Q38.64375 182.46458 38.33125 183.38646Q38.034374 184.30833 37.409374 184.82396Q36.8 185.32396 35.846874 185.32396Q34.6125 185.32396 33.89375 184.43333Q33.05 183.37083 33.05 180.94896ZM34.128124 180.94896Q34.128124 183.05833 34.628124 183.76146Q35.128124 184.46458 35.846874 184.46458Q36.58125 184.46458 37.065624 183.76146Q37.565624 183.05833 37.565624 180.94896Q37.565624 178.82396 37.065624 178.13646Q36.58125 177.43333 35.83125 177.43333Q35.1125 177.43333 34.675 178.04271Q34.128124 178.82396 34.128124 180.94896ZM40.05 180.94896Q40.05 179.41771 40.3625 178.49583Q40.675 177.55833 41.284374 177.05833Q41.909374 176.55833 42.846874 176.55833Q43.534374 176.55833 44.05 176.83958Q44.58125 177.12083 44.925 177.65208Q45.26875 178.16771 45.45625 178.91771Q45.64375 179.66771 45.64375 180.94896Q45.64375 182.46458 45.33125 183.38646Q45.034374 184.30833 44.409374 184.82396Q43.8 185.32396 42.846874 185.32396Q41.6125 185.32396 40.89375 184.43333Q40.05 183.37083 40.05 180.94896ZM41.128124 180.94896Q41.128124 183.05833 41.628124 183.76146Q42.128124 184.46458 42.846874 184.46458Q43.58125 184.46458 44.065624 183.76146Q44.565624 183.05833 44.565624 180.94896Q44.565624 178.82396 44.065624 178.13646Q43.58125 177.43333 42.83125 177.43333Q42.1125 177.43333 41.675 178.04271Q41.128124 178.82396 41.128124 180.94896Z" fill-rule="nonzero"/><path fill="#000000" d="M19.05 123.28438L20.1125 123.14375Q20.284374 124.03438 20.721874 124.44063Q21.159374 124.83125 21.784374 124.83125Q22.534374 124.83125 23.05 124.31563Q23.565624 123.8 23.565624 123.03438Q23.565624 122.31563 23.08125 121.84688Q22.6125 121.3625 21.878124 121.3625Q21.58125 121.3625 21.128124 121.4875L21.253124 120.55Q21.3625 120.56563 21.425 120.56563Q22.096874 120.56563 22.628124 120.22188Q23.175 119.8625 23.175 119.12813Q23.175 118.55 22.784374 118.175Q22.39375 117.78438 21.76875 117.78438Q21.159374 117.78438 20.7375 118.175Q20.33125 118.56563 20.221874 119.33125L19.159374 119.14375Q19.346874 118.09688 20.034374 117.51875Q20.721874 116.925 21.7375 116.925Q22.440624 116.925 23.034374 117.2375Q23.628124 117.53438 23.940624 118.05Q24.253124 118.56563 24.253124 119.15938Q24.253124 119.70625 23.95625 120.175Q23.659374 120.62813 23.08125 120.89375Q23.83125 121.06563 24.253124 121.62813Q24.675 122.175 24.675 123.01875Q24.675 124.14375 23.846874 124.925Q23.034374 125.70625 21.784374 125.70625Q20.659374 125.70625 19.909374 125.03438Q19.159374 124.34688 19.05 123.28438ZM26.05 121.31563Q26.05 119.78438 26.3625 118.8625Q26.675 117.925 27.284374 117.425Q27.909374 116.925 28.846874 116.925Q29.534374 116.925 30.05 117.20625Q30.58125 117.4875 30.925 118.01875Q31.26875 118.53438 31.45625 119.28438Q31.64375 120.03438 31.64375 121.31563Q31.64375 122.83125 31.33125 123.75313Q31.034374 124.675 30.409374 125.19063Q29.8 125.69063 28.846874 125.69063Q27.6125 125.69063 26.89375 124.8Q26.05 123.7375 26.05 121.31563ZM27.128124 121.31563Q27.128124 123.425 27.628124 124.12813Q28.128124 124.83125 28.846874 124.83125Q29.58125 124.83125 30.065624 124.12813Q30.565624 123.425 30.565624 121.31563Q30.565624 119.19063 30.065624 118.50313Q29.58125 117.8 28.83125 117.8Q28.1125 117.8 27.675 118.40938Q27.128124 119.19063 27.128124 121.31563ZM33.05 121.31563Q33.05 119.78438 33.3625 118.8625Q33.675 117.925 34.284374 117.425Q34.909374 116.925 35.846874 116.925Q36.534374 116.925 37.05 117.20625Q37.58125 117.4875 37.925 118.01875Q38.26875 118.53438 38.45625 119.28438Q38.64375 120.03438 38.64375 121.31563Q38.64375 122.83125 38.33125 123.75313Q38.034374 124.675 37.409374 125.19063Q36.8 125.69063 35.846874 125.69063Q34.6125 125.69063 33.89375 124.8Q33.05 123.7375 33.05 121.31563ZM34.128124 121.31563Q34.128124 123.425 34.628124 124.12813Q35.128124 124.83125 35.846874 124.83125Q36.58125 124.83125 37.065624 124.12813Q37.565624 123.425 37.565624 121.31563Q37.565624 119.19063 37.065624 118.50313Q36.58125 117.8 35.83125 117.8Q35.1125 117.8 34.675 118.40938Q34.128124 119.19063 34.128124 121.31563ZM40.05 121.31563Q40.05 119.78438 40.3625 118.8625Q40.675 117.925 41.284374 117.425Q41.909374 116.925 42.846874 116.925Q43.534374 116.925 44.05 117.20625Q44.58125 117.4875 44.925 118.01875Q45.26875 118.53438 45.45625 119.28438Q45.64375 120.03438 45.64375 121.31563Q45.64375 122.83125 45.33125 123.75313Q45.034374 124.675 44.409374 125.19063Q43.8 125.69063 42.846874 125.69063Q41.6125 125.69063 40.89375 124.8Q40.05 123.7375 40.05 121.31563ZM41.128124 121.31563Q41.128124 123.425 41.628124 124.12813Q42.128124 124.83125 42.846874 124.83125Q43.58125 124.83125 44.065624 124.12813Q44.565624 123.425 44.565624 121.31563Q44.565624 119.19063 44.065624 118.50313Q43.58125 117.8 42.83125 117.8Q42.1125 117.8 41.675 118.40938Q41.128124 119.19063 41.128124 121.31563Z" fill-rule="nonzero"/><path fill="#000000" d="M22.425 65.916664L22.425 63.854164L18.70625 63.854164L18.70625 62.885414L22.628124 57.322914L23.4875 57.322914L23.4875 62.885414L24.64375 62.885414L24.64375 63.854164L23.4875 63.854164L23.4875 65.916664L22.425 65.916664ZM22.425 62.885414L22.425 59.02604L19.7375 62.885414L22.425 62.885414ZM26.05 61.68229Q26.05 60.15104 26.3625 59.229164Q26.675 58.291664 27.284374 57.791664Q27.909374 57.291664 28.846874 57.291664Q29.534374 57.291664 30.05 57.572914Q30.58125 57.854164 30.925 58.385414Q31.26875 58.90104 31.45625 59.65104Q31.64375 60.40104 31.64375 61.68229Q31.64375 63.197914 31.33125 64.11979Q31.034374 65.041664 30.409374 65.55729Q29.8 66.05729 28.846874 66.05729Q27.6125 66.05729 26.89375 65.166664Q26.05 64.104164 26.05 61.68229ZM27.128124 61.68229Q27.128124 63.791664 27.628124 64.49479Q28.128124 65.197914 28.846874 65.197914Q29.58125 65.197914 30.065624 64.49479Q30.565624 63.791664 30.565624 61.68229Q30.565624 59.55729 30.065624 58.86979Q29.58125 58.166664 28.83125 58.166664Q28.1125 58.166664 27.675 58.77604Q27.128124 59.55729 27.128124 61.68229ZM33.05 61.68229Q33.05 60.15104 33.3625 59.229164Q33.675 58.291664 34.284374 57.791664Q34.909374 57.291664 35.846874 57.291664Q36.534374 57.291664 37.05 57.572914Q37.58125 57.854164 37.925 58.385414Q38.26875 58.90104 38.45625 59.65104Q38.64375 60.40104 38.64375 61.68229Q38.64375 63.197914 38.33125 64.11979Q38.034374 65.041664 37.409374 65.55729Q36.8 66.05729 35.846874 66.05729Q34.6125 66.05729 33.89375 65.166664Q33.05 64.104164 33.05 61.68229ZM34.128124 61.68229Q34.128124 63.791664 34.628124 64.49479Q35.128124 65.197914 35.846874 65.197914Q36.58125 65.197914 37.065624 64.49479Q37.565624 63.791664 37.565624 61.68229Q37.565624 59.55729 37.065624 58.86979Q36.58125 58.166664 35.83125 58.166664Q35.1125 58.166664 34.675 58.77604Q34.128124 59.55729 34.128124 61.68229ZM40.05 61.68229Q40.05 60.15104 40.3625 59.229164Q40.675 58.291664 41.284374 57.791664Q41.909374 57.291664 42.846874 57.291664Q43.534374 57.291664 44.05 57.572914Q44.58125 57.854164 44.925 58.385414Q45.26875 58.90104 45.45625 59.65104Q45.64375 60.40104 45.64375 61.68229Q45.64375 63.197914 45.33125 64.11979Q45.034374 65.041664 44.409374 65.55729Q43.8 66.05729 42.846874 66.05729Q41.6125 66.05729 40.89375 65.166664Q40.05 64.104164 40.05 61.68229ZM41.128124 61.68229Q41.128124 63.791664 41.628124 64.49479Q42.128124 65.197914 42.846874 65.197914Q43.58125 65.197914 44.065624 64.49479Q44.565624 63.791664 44.565624 61.68229Q44.565624 59.55729 44.065624 58.86979Q43.58125 58.166664 42.83125 58.166664Q42.1125 58.166664 41.675 58.77604Q41.128124 59.55729 41.128124 61.68229Z" fill-rule="nonzero"/><path fill="#000000" d="M82.08817 317.45L81.0413 317.45L81.0413 310.73126Q80.65067 311.09064 80.02567 311.46564Q79.4163 311.825 78.93192 311.9969L78.93192 310.98126Q79.80692 310.5594 80.46317 309.98126Q81.13505 309.3875 81.4163 308.825L82.08817 308.825L82.08817 317.45Z" fill-rule="nonzero"/><path fill="#000000" d="M125.99136 316.4344L125.99136 317.45L120.30386 317.45Q120.30386 317.075 120.42886 316.71564Q120.64761 316.1375 121.11636 315.575Q121.60074 315.0125 122.50699 314.27814Q123.91324 313.1219 124.39761 312.45Q124.89761 311.77814 124.89761 311.1844Q124.89761 310.5594 124.44449 310.1375Q123.99136 309.7 123.27261 309.7Q122.50699 309.7 122.05386 310.15314Q121.60074 310.60626 121.58511 311.41876L120.50699 311.3094Q120.61636 310.09064 121.33511 309.46564Q122.06949 308.825 123.30386 308.825Q124.53824 308.825 125.25699 309.5125Q125.97574 310.2 125.97574 311.21564Q125.97574 311.73126 125.75699 312.23126Q125.55386 312.71564 125.05386 313.27814Q124.56949 313.825 123.44449 314.77814Q122.49136 315.575 122.21011 315.8719Q121.94449 316.15314 121.77261 316.4344L125.99136 316.4344Z" fill-rule="nonzero"/><path fill="#000000" d="M162.76956 315.1844L163.83206 315.04376Q164.00394 315.9344 164.44144 316.34064Q164.87894 316.73126 165.50394 316.73126Q166.25394 316.73126 166.76956 316.21564Q167.28519 315.7 167.28519 314.9344Q167.28519 314.21564 166.80081 313.7469Q166.33206 313.2625 165.59769 313.2625Q165.30081 313.2625 164.84769 313.3875L164.97269 312.45Q165.08206 312.46564 165.14456 312.46564Q165.81644 312.46564 166.34769 312.1219Q166.89456 311.7625 166.89456 311.02814Q166.89456 310.45 166.50394 310.075Q166.11331 309.6844 165.48831 309.6844Q164.87894 309.6844 164.45706 310.075Q164.05081 310.46564 163.94144 311.23126L162.87894 311.04376Q163.06644 309.9969 163.75394 309.41876Q164.44144 308.825 165.45706 308.825Q166.16019 308.825 166.75394 309.1375Q167.34769 309.4344 167.66019 309.95Q167.97269 310.46564 167.97269 311.0594Q167.97269 311.60626 167.67581 312.075Q167.37894 312.52814 166.80081 312.79376Q167.55081 312.96564 167.97269 313.52814Q168.39456 314.075 168.39456 314.91876Q168.39456 316.04376 167.56644 316.825Q166.75394 317.60626 165.50394 317.60626Q164.37894 317.60626 163.62894 316.9344Q162.87894 316.2469 162.76956 315.1844Z" fill-rule="nonzero"/><path fill="#000000" d="M208.46962 317.45L208.46962 315.3875L204.75087 315.3875L204.75087 314.41876L208.67274 308.85626L209.53212 308.85626L209.53212 314.41876L210.68837 314.41876L210.68837 315.3875L209.53212 315.3875L209.53212 317.45L208.46962 317.45ZM208.46962 314.41876L208.46962 310.5594L205.78212 314.41876L208.46962 314.41876Z" fill-rule="nonzero"/><path fill="#000000" d="M247.4197 315.2L248.52907 315.10626Q248.65407 315.91876 249.09157 316.325Q249.5447 316.73126 250.18532 316.73126Q250.93532 316.73126 251.46657 316.15314Q251.99782 315.575 251.99782 314.6375Q251.99782 313.73126 251.4822 313.21564Q250.9822 312.6844 250.15407 312.6844Q249.65407 312.6844 249.2322 312.91876Q248.82594 313.15314 248.59157 313.5125L247.6072 313.3875L248.43532 308.98126L252.71657 308.98126L252.71657 309.98126L249.27907 309.98126L248.82594 312.29376Q249.59157 311.7469 250.43532 311.7469Q251.56032 311.7469 252.32594 312.52814Q253.1072 313.3094 253.1072 314.54376Q253.1072 315.7 252.43532 316.5594Q251.6072 317.59064 250.18532 317.59064Q249.01344 317.59064 248.26344 316.9344Q247.52907 316.27814 247.4197 315.2Z" fill-rule="nonzero"/><path fill="#000000" d="M295.2135 310.96564L294.16663 311.04376Q294.026 310.41876 293.776 310.1375Q293.3385 309.6844 292.7135 309.6844Q292.2135 309.6844 291.82288 309.96564Q291.3385 310.34064 291.04163 311.04376Q290.76038 311.73126 290.74475 313.0125Q291.11975 312.4344 291.66663 312.15314Q292.22913 311.8719 292.8385 311.8719Q293.88538 311.8719 294.61975 312.65314Q295.36975 313.4344 295.36975 314.65314Q295.36975 315.46564 295.01038 316.16876Q294.66663 316.85626 294.05725 317.23126Q293.44788 317.59064 292.68225 317.59064Q291.35413 317.59064 290.526 316.6219Q289.69788 315.65314 289.69788 313.4344Q289.69788 310.9344 290.61975 309.8094Q291.41663 308.825 292.776 308.825Q293.79163 308.825 294.43225 309.40314Q295.0885 309.96564 295.2135 310.96564ZM290.91663 314.66876Q290.91663 315.21564 291.13538 315.71564Q291.36975 316.2 291.776 316.46564Q292.19788 316.73126 292.66663 316.73126Q293.32288 316.73126 293.80725 316.2Q294.29163 315.65314 294.29163 314.73126Q294.29163 313.84064 293.80725 313.325Q293.3385 312.8094 292.61975 312.8094Q291.901 312.8094 291.401 313.325Q290.91663 313.84064 290.91663 314.66876Z" fill-rule="nonzero"/><path fill="#000000" d="M332.13232 309.98126L332.13232 308.96564L337.69482 308.96564L337.69482 309.79376Q336.88232 310.66876 336.06982 312.1219Q335.27295 313.5594 334.83545 315.09064Q334.50732 316.16876 334.4292 317.45L333.33545 317.45Q333.35107 316.4344 333.72607 314.9969Q334.1167 313.5594 334.81982 312.23126Q335.53857 310.90314 336.35107 309.98126L332.13232 309.98126Z" fill-rule="nonzero"/><path fill="#000000" d="M376.0199 312.79376Q375.36365 312.54376 375.03552 312.10626Q374.72302 311.65314 374.72302 311.04376Q374.72302 310.10626 375.3949 309.46564Q376.0824 308.825 377.19177 308.825Q378.31677 308.825 379.00427 309.48126Q379.69177 310.1375 379.69177 311.075Q379.69177 311.66876 379.37927 312.10626Q379.06677 312.54376 378.42615 312.79376Q379.22302 313.04376 379.62927 313.6219Q380.03552 314.2 380.03552 314.9969Q380.03552 316.09064 379.25427 316.84064Q378.48865 317.59064 377.2074 317.59064Q375.94177 317.59064 375.16052 316.84064Q374.37927 316.09064 374.37927 314.96564Q374.37927 314.1219 374.80115 313.5594Q375.23865 312.9969 376.0199 312.79376ZM375.80115 310.9969Q375.80115 311.60626 376.19177 311.9969Q376.59802 312.3875 377.22302 312.3875Q377.8324 312.3875 378.22302 312.0125Q378.61365 311.6219 378.61365 311.0594Q378.61365 310.48126 378.2074 310.09064Q377.80115 309.6844 377.2074 309.6844Q376.59802 309.6844 376.19177 310.075Q375.80115 310.46564 375.80115 310.9969ZM375.47302 314.96564Q375.47302 315.41876 375.67615 315.84064Q375.8949 316.2625 376.31677 316.4969Q376.73865 316.73126 377.22302 316.73126Q377.97302 316.73126 378.4574 316.2469Q378.9574 315.7625 378.9574 315.0125Q378.9574 314.2469 378.4574 313.7469Q377.9574 313.2469 377.19177 313.2469Q376.44177 313.2469 375.9574 313.7469Q375.47302 314.23126 375.47302 314.96564Z" fill-rule="nonzero"/><path fill="#000000" d="M416.87622 315.46564L417.89185 315.3719Q418.01685 316.09064 418.37622 316.41876Q418.75122 316.73126 419.31372 316.73126Q419.7981 316.73126 420.15747 316.5125Q420.53247 316.27814 420.76685 315.91876Q421.00122 315.54376 421.15747 314.91876Q421.31372 314.27814 421.31372 313.6219Q421.31372 313.54376 421.31372 313.40314Q421.00122 313.90314 420.45435 314.23126Q419.90747 314.54376 419.26685 314.54376Q418.18872 314.54376 417.45435 313.77814Q416.71997 312.9969 416.71997 311.73126Q416.71997 310.41876 417.4856 309.6219Q418.26685 308.825 419.4231 308.825Q420.25122 308.825 420.93872 309.27814Q421.64185 309.73126 422.00122 310.575Q422.3606 311.40314 422.3606 312.98126Q422.3606 314.6219 422.00122 315.60626Q421.65747 316.575 420.93872 317.09064Q420.2356 317.59064 419.2981 317.59064Q418.28247 317.59064 417.64185 317.04376Q417.00122 316.48126 416.87622 315.46564ZM421.18872 311.66876Q421.18872 310.7625 420.70435 310.23126Q420.2356 309.7 419.5481 309.7Q418.84497 309.7 418.31372 310.27814Q417.7981 310.84064 417.7981 311.7625Q417.7981 312.575 418.2981 313.09064Q418.7981 313.60626 419.51685 313.60626Q420.25122 313.60626 420.71997 313.09064Q421.18872 312.575 421.18872 311.66876Z" fill-rule="nonzero"/><path fill="#000000" d="M459.51376 317.45L458.4669 317.45L458.4669 310.73126Q458.07626 311.09064 457.45126 311.46564Q456.8419 311.825 456.3575 311.9969L456.3575 310.98126Q457.2325 310.5594 457.88876 309.98126Q458.56064 309.3875 458.8419 308.825L459.51376 308.825L459.51376 317.45ZM462.545 313.21564Q462.545 311.6844 462.8575 310.7625Q463.17 309.825 463.7794 309.325Q464.4044 308.825 465.3419 308.825Q466.0294 308.825 466.545 309.10626Q467.07626 309.3875 467.42 309.91876Q467.76376 310.4344 467.95126 311.1844Q468.13876 311.9344 468.13876 313.21564Q468.13876 314.73126 467.82626 315.65314Q467.5294 316.575 466.9044 317.09064Q466.295 317.59064 465.3419 317.59064Q464.1075 317.59064 463.38876 316.7Q462.545 315.6375 462.545 313.21564ZM463.62314 313.21564Q463.62314 315.325 464.12314 316.02814Q464.62314 316.73126 465.3419 316.73126Q466.07626 316.73126 466.56064 316.02814Q467.06064 315.325 467.06064 313.21564Q467.06064 311.09064 466.56064 310.40314Q466.07626 309.7 465.32626 309.7Q464.6075 309.7 464.17 310.3094Q463.62314 311.09064 463.62314 313.21564Z" fill-rule="nonzero"/><path fill="#4285f4" d="M510.45 56.916668C510.45 56.364384 510.8977 55.916668 511.45 55.916668L521.45 55.916668C522.00226 55.916668 522.45 56.364384 522.45 56.916668L522.45 66.916664C522.45 67.46895 522.00226 67.916664 521.45 67.916664L511.45 67.916664C510.8977 67.916664 510.45 67.46895 510.45 66.916664Z" fill-rule="nonzero"/><path fill="#1a1a1a" d="M530.9969 63.15104L532.0594 63.05729Q532.1375 63.71354 532.41876 64.11979Q532.7 64.52604 533.27814 64.791664Q533.8719 65.041664 534.60626 65.041664Q535.2469 65.041664 535.7469 64.854164Q536.2469 64.65104 536.48126 64.322914Q536.73126 63.979164 536.73126 63.58854Q536.73126 63.18229 536.4969 62.885414Q536.2625 62.572914 535.73126 62.36979Q535.3719 62.229164 534.1844 61.947914Q533.0125 61.666664 532.54376 61.416664Q531.91876 61.08854 531.6219 60.61979Q531.325 60.135414 531.325 59.541664Q531.325 58.90104 531.6844 58.33854Q532.0594 57.760414 532.7625 57.479164Q533.48126 57.18229 534.34064 57.18229Q535.29376 57.18229 536.02814 57.49479Q536.7625 57.791664 537.15314 58.40104Q537.54376 58.99479 537.575 59.74479L536.48126 59.822914Q536.3875 59.010414 535.8719 58.604164Q535.3719 58.18229 534.3875 58.18229Q533.35626 58.18229 532.8875 58.55729Q532.41876 58.93229 532.41876 59.46354Q532.41876 59.93229 532.7469 60.229164Q533.075 60.52604 534.45 60.83854Q535.84064 61.15104 536.35626 61.385414Q537.10626 61.74479 537.46564 62.27604Q537.825 62.791664 537.825 63.49479Q537.825 64.18229 537.4344 64.791664Q537.04376 65.385414 536.3094 65.729164Q535.575 66.05729 534.65314 66.05729Q533.48126 66.05729 532.6844 65.729164Q531.90314 65.385414 531.45 64.697914Q531.0125 64.010414 530.9969 63.15104ZM541.54376 64.979164L541.7 65.90104Q541.2469 65.99479 540.90314 65.99479Q540.325 65.99479 540.0125 65.822914Q539.7 65.635414 539.5594 65.33854Q539.4344 65.041664 539.4344 64.08854L539.4344 60.510414L538.66876 60.510414L538.66876 59.697914L539.4344 59.697914L539.4344 58.15104L540.48126 57.52604L540.48126 59.697914L541.54376 59.697914L541.54376 60.510414L540.48126 60.510414L540.48126 64.15104Q540.48126 64.604164 540.52814 64.729164Q540.59064 64.854164 540.71564 64.93229Q540.84064 65.010414 541.075 65.010414Q541.2625 65.010414 541.54376 64.979164ZM546.3094 65.15104Q545.71564 65.65104 545.16876 65.854164Q544.6375 66.05729 544.0125 66.05729Q542.98126 66.05729 542.4344 65.55729Q541.8875 65.05729 541.8875 64.27604Q541.8875 63.822914 542.09064 63.447914Q542.29376 63.05729 542.6375 62.83854Q542.98126 62.604164 543.40314 62.49479Q543.7 62.40104 544.34064 62.322914Q545.60626 62.18229 546.21564 61.96354Q546.21564 61.74479 546.21564 61.697914Q546.21564 61.041664 545.91876 60.77604Q545.5125 60.43229 544.71564 60.43229Q543.98126 60.43229 543.6219 60.697914Q543.2625 60.947914 543.09064 61.604164L542.0594 61.46354Q542.2 60.80729 542.52814 60.40104Q542.85626 59.99479 543.46564 59.77604Q544.075 59.55729 544.8719 59.55729Q545.66876 59.55729 546.16876 59.74479Q546.66876 59.93229 546.90314 60.21354Q547.1375 60.49479 547.23126 60.93229Q547.27814 61.197914 547.27814 61.90104L547.27814 63.30729Q547.27814 64.77604 547.34064 65.166664Q547.41876 65.55729 547.6219 65.916664L546.5125 65.916664Q546.35626 65.58854 546.3094 65.15104ZM546.21564 62.791664Q545.6375 63.02604 544.4969 63.197914Q543.84064 63.291664 543.575 63.416664Q543.3094 63.52604 543.15314 63.74479Q543.0125 63.96354 543.0125 64.24479Q543.0125 64.666664 543.325 64.947914Q543.65314 65.229164 544.2625 65.229164Q544.8719 65.229164 545.34064 64.96354Q545.825 64.697914 546.04376 64.229164Q546.21564 63.86979 546.21564 63.18229L546.21564 62.791664ZM551.54376 64.979164L551.7 65.90104Q551.2469 65.99479 550.90314 65.99479Q550.325 65.99479 550.0125 65.822914Q549.7 65.635414 549.5594 65.33854Q549.4344 65.041664 549.4344 64.08854L549.4344 60.510414L548.66876 60.510414L548.66876 59.697914L549.4344 59.697914L549.4344 58.15104L550.48126 57.52604L550.48126 59.697914L551.54376 59.697914L551.54376 60.510414L550.48126 60.510414L550.48126 64.15104Q550.48126 64.604164 550.52814 64.729164Q550.59064 64.854164 550.71564 64.93229Q550.84064 65.010414 551.075 65.010414Q551.2625 65.010414 551.54376 64.979164ZM556.4969 63.916664L557.59064 64.041664Q557.34064 64.99479 556.6375 65.52604Q555.9344 66.05729 554.85626 66.05729Q553.4969 66.05729 552.6844 65.21354Q551.8875 64.36979 551.8875 62.854164Q551.8875 61.291664 552.7 60.43229Q553.5125 59.55729 554.79376 59.55729Q556.04376 59.55729 556.825 60.40104Q557.6219 61.24479 557.6219 62.791664Q557.6219 62.885414 557.6219 63.072914L552.98126 63.072914Q553.04376 64.104164 553.5594 64.65104Q554.075 65.18229 554.85626 65.18229Q555.4344 65.18229 555.84064 64.885414Q556.2625 64.572914 556.4969 63.916664ZM553.04376 62.21354L556.5125 62.21354Q556.45 61.416664 556.1219 61.02604Q555.60626 60.416664 554.8094 60.416664Q554.075 60.416664 553.575 60.90104Q553.09064 61.385414 553.04376 62.21354ZM558.825 64.05729L559.85626 63.90104Q559.95 64.52604 560.34064 64.854164Q560.7469 65.18229 561.48126 65.18229Q562.2 65.18229 562.54376 64.90104Q562.90314 64.604164 562.90314 64.197914Q562.90314 63.83854 562.59064 63.635414Q562.3719 63.49479 561.5125 63.27604Q560.35626 62.979164 559.90314 62.77604Q559.46564 62.55729 559.23126 62.18229Q558.9969 61.80729 558.9969 61.33854Q558.9969 60.93229 559.1844 60.572914Q559.3719 60.21354 559.7 59.979164Q559.95 59.80729 560.3719 59.68229Q560.79376 59.55729 561.29376 59.55729Q562.0125 59.55729 562.5594 59.77604Q563.1219 59.979164 563.3875 60.33854Q563.65314 60.697914 563.7469 61.291664L562.71564 61.43229Q562.65314 60.96354 562.3094 60.697914Q561.98126 60.416664 561.35626 60.416664Q560.6375 60.416664 560.325 60.666664Q560.0125 60.90104 560.0125 61.229164Q560.0125 61.43229 560.1375 61.58854Q560.27814 61.760414 560.54376 61.86979Q560.7 61.93229 561.48126 62.135414Q562.60626 62.447914 563.04376 62.635414Q563.48126 62.822914 563.73126 63.18229Q563.98126 63.541664 563.98126 64.08854Q563.98126 64.61979 563.66876 65.08854Q563.3719 65.541664 562.79376 65.80729Q562.21564 66.05729 561.48126 66.05729Q560.2625 66.05729 559.6219 65.55729Q558.9969 65.041664 558.825 64.05729Z" fill-rule="nonzero"/><path fill="#ea4335" d="M510.45 80.916664C510.45 80.36438 510.8977 79.916664 511.45 79.916664L521.45 79.916664C522.00226 79.916664 522.45 80.36438 522.45 80.916664L522.45 90.916664C522.45 91.46895 522.00226 91.916664 521.45 91.916664L511.45 91.916664C510.8977 91.916664 510.45 91.46895 510.45 90.916664Z" fill-rule="nonzero"/><path fill="#1a1a1a" d="M533.5594 89.916664L533.5594 82.33854L530.73126 82.33854L530.73126 81.322914L537.54376 81.322914L537.54376 82.33854L534.7 82.33854L534.7 89.916664L533.5594 89.916664ZM542.3094 89.15104Q541.71564 89.65104 541.16876 89.854164Q540.6375 90.05729 540.0125 90.05729Q538.98126 90.05729 538.4344 89.55729Q537.8875 89.05729 537.8875 88.27604Q537.8875 87.822914 538.09064 87.447914Q538.29376 87.05729 538.6375 86.83854Q538.98126 86.604164 539.40314 86.49479Q539.7 86.40104 540.34064 86.322914Q541.60626 86.18229 542.21564 85.96354Q542.21564 85.74479 542.21564 85.697914Q542.21564 85.041664 541.91876 84.77604Q541.5125 84.43229 540.71564 84.43229Q539.98126 84.43229 539.6219 84.697914Q539.2625 84.947914 539.09064 85.604164L538.0594 85.46354Q538.2 84.80729 538.52814 84.40104Q538.85626 83.99479 539.46564 83.77604Q540.075 83.55729 540.8719 83.55729Q541.66876 83.55729 542.16876 83.74479Q542.66876 83.93229 542.90314 84.21354Q543.1375 84.49479 543.23126 84.93229Q543.27814 85.197914 543.27814 85.90104L543.27814 87.30729Q543.27814 88.77604 543.34064 89.166664Q543.41876 89.55729 543.6219 89.916664L542.5125 89.916664Q542.35626 89.58854 542.3094 89.15104ZM542.21564 86.791664Q541.6375 87.02604 540.4969 87.197914Q539.84064 87.291664 539.575 87.416664Q539.3094 87.52604 539.15314 87.74479Q539.0125 87.96354 539.0125 88.24479Q539.0125 88.666664 539.325 88.947914Q539.65314 89.229164 540.2625 89.229164Q540.8719 89.229164 541.34064 88.96354Q541.825 88.697914 542.04376 88.229164Q542.21564 87.86979 542.21564 87.18229L542.21564 86.791664ZM545.04376 90.43229L546.075 90.58854Q546.1375 91.05729 546.4344 91.27604Q546.825 91.572914 547.4969 91.572914Q548.23126 91.572914 548.6219 91.27604Q549.02814 90.979164 549.16876 90.46354Q549.2625 90.135414 549.2469 89.104164Q548.5594 89.916664 547.52814 89.916664Q546.2469 89.916664 545.54376 88.99479Q544.84064 88.05729 544.84064 86.77604Q544.84064 85.885414 545.15314 85.135414Q545.48126 84.36979 546.09064 83.96354Q546.7 83.55729 547.52814 83.55729Q548.6375 83.55729 549.35626 84.447914L549.35626 83.697914L550.325 83.697914L550.325 89.072914Q550.325 90.52604 550.02814 91.135414Q549.73126 91.74479 549.09064 92.08854Q548.45 92.447914 547.5125 92.447914Q546.40314 92.447914 545.71564 91.947914Q545.02814 91.447914 545.04376 90.43229ZM545.91876 86.697914Q545.91876 87.916664 546.40314 88.479164Q546.8875 89.041664 547.6219 89.041664Q548.35626 89.041664 548.84064 88.479164Q549.34064 87.916664 549.34064 86.729164Q549.34064 85.58854 548.825 85.010414Q548.325 84.43229 547.60626 84.43229Q546.90314 84.43229 546.40314 85.010414Q545.91876 85.572914 545.91876 86.697914ZM551.825 88.05729L552.85626 87.90104Q552.95 88.52604 553.34064 88.854164Q553.7469 89.18229 554.48126 89.18229Q555.2 89.18229 555.54376 88.90104Q555.90314 88.604164 555.90314 88.197914Q555.90314 87.83854 555.59064 87.635414Q555.3719 87.49479 554.5125 87.27604Q553.35626 86.979164 552.90314 86.77604Q552.46564 86.55729 552.23126 86.18229Q551.9969 85.80729 551.9969 85.33854Q551.9969 84.93229 552.1844 84.572914Q552.3719 84.21354 552.7 83.979164Q552.95 83.80729 553.3719 83.68229Q553.79376 83.55729 554.29376 83.55729Q555.0125 83.55729 555.5594 83.77604Q556.1219 83.979164 556.3875 84.33854Q556.65314 84.697914 556.7469 85.291664L555.71564 85.43229Q555.65314 84.96354 555.3094 84.697914Q554.98126 84.416664 554.35626 84.416664Q553.6375 84.416664 553.325 84.666664Q553.0125 84.90104 553.0125 85.229164Q553.0125 85.43229 553.1375 85.58854Q553.27814 85.760414 553.54376 85.86979Q553.7 85.93229 554.48126 86.135414Q555.60626 86.447914 556.04376 86.635414Q556.48126 86.822914 556.73126 87.18229Q556.98126 87.541664 556.98126 88.08854Q556.98126 88.61979 556.66876 89.08854Q556.3719 89.541664 555.79376 89.80729Q555.21564 90.05729 554.48126 90.05729Q553.2625 90.05729 552.6219 89.55729Q551.9969 89.041664 551.825 88.05729Z" fill-rule="nonzero"/><path fill="#fbbc04" d="M510.45 104.916664C510.45 104.36438 510.8977 103.916664 511.45 103.916664L521.45 103.916664C522.00226 103.916664 522.45 104.36438 522.45 104.916664L522.45 114.916664C522.45 115.46895 522.00226 115.916664 521.45 115.916664L511.45 115.916664C510.8977 115.916664 510.45 115.46895 510.45 114.916664Z" fill-rule="nonzero"/><path fill="#1a1a1a" d="M532.8719 113.916664L530.59064 105.322914L531.7625 105.322914L533.075 110.96354Q533.27814 111.83854 533.4344 112.71354Q533.7625 111.33854 533.825 111.11979L535.45 105.322914L536.825 105.322914L538.0594 109.666664Q538.5125 111.291664 538.73126 112.71354Q538.8875 111.90104 539.15314 110.83854L540.4969 105.322914L541.6375 105.322914L539.29376 113.916664L538.1844 113.916664L536.3875 107.36979Q536.15314 106.55729 536.10626 106.36979Q535.98126 106.947914 535.85626 107.36979L534.04376 113.916664L532.8719 113.916664ZM541.85626 110.80729Q541.85626 109.072914 542.8094 108.24479Q543.60626 107.55729 544.7625 107.55729Q546.04376 107.55729 546.85626 108.40104Q547.6844 109.229164 547.6844 110.71354Q547.6844 111.916664 547.325 112.604164Q546.96564 113.291664 546.2625 113.68229Q545.575 114.05729 544.7625 114.05729Q543.46564 114.05729 542.65314 113.229164Q541.85626 112.385414 541.85626 110.80729ZM542.9344 110.80729Q542.9344 111.99479 543.45 112.58854Q543.98126 113.18229 544.7625 113.18229Q545.5594 113.18229 546.075 112.58854Q546.59064 111.99479 546.59064 110.77604Q546.59064 109.61979 546.0594 109.02604Q545.54376 108.43229 544.7625 108.43229Q543.98126 108.43229 543.45 109.02604Q542.9344 109.604164 542.9344 110.80729ZM549.23126 113.916664L549.23126 107.697914L550.1844 107.697914L550.1844 108.635414Q550.54376 107.979164 550.84064 107.77604Q551.15314 107.55729 551.52814 107.55729Q552.0594 107.55729 552.60626 107.885414L552.2469 108.86979Q551.85626 108.635414 551.48126 108.635414Q551.1219 108.635414 550.84064 108.854164Q550.575 109.05729 550.46564 109.43229Q550.27814 109.99479 550.27814 110.65104L550.27814 113.916664L549.23126 113.916664ZM557.27814 113.916664L557.27814 113.135414Q556.6844 114.05729 555.54376 114.05729Q554.79376 114.05729 554.16876 113.65104Q553.54376 113.229164 553.2 112.49479Q552.85626 111.760414 552.85626 110.80729Q552.85626 109.885414 553.16876 109.11979Q553.48126 108.354164 554.10626 107.96354Q554.73126 107.55729 555.4969 107.55729Q556.0594 107.55729 556.4969 107.791664Q556.9344 108.02604 557.21564 108.40104L557.21564 105.322914L558.2625 105.322914L558.2625 113.916664L557.27814 113.916664ZM553.95 110.80729Q553.95 112.010414 554.45 112.604164Q554.95 113.18229 555.6375 113.18229Q556.325 113.18229 556.8094 112.61979Q557.29376 112.05729 557.29376 110.90104Q557.29376 109.61979 556.79376 109.02604Q556.3094 108.43229 555.59064 108.43229Q554.8875 108.43229 554.41876 109.010414Q553.95 109.572914 553.95 110.80729ZM559.825 112.05729L560.85626 111.90104Q560.95 112.52604 561.34064 112.854164Q561.7469 113.18229 562.48126 113.18229Q563.2 113.18229 563.54376 112.90104Q563.90314 112.604164 563.90314 112.197914Q563.90314 111.83854 563.59064 111.635414Q563.3719 111.49479 562.5125 111.27604Q561.35626 110.979164 560.90314 110.77604Q560.46564 110.55729 560.23126 110.18229Q559.9969 109.80729 559.9969 109.33854Q559.9969 108.93229 560.1844 108.572914Q560.3719 108.21354 560.7 107.979164Q560.95 107.80729 561.3719 107.68229Q561.79376 107.55729 562.29376 107.55729Q563.0125 107.55729 563.5594 107.77604Q564.1219 107.979164 564.3875 108.33854Q564.65314 108.697914 564.7469 109.291664L563.71564 109.43229Q563.65314 108.96354 563.3094 108.697914Q562.98126 108.416664 562.35626 108.416664Q561.6375 108.416664 561.325 108.666664Q561.0125 108.90104 561.0125 109.229164Q561.0125 109.43229 561.1375 109.58854Q561.27814 109.760414 561.54376 109.86979Q561.7 109.93229 562.48126 110.135414Q563.60626 110.447914 564.04376 110.635414Q564.48126 110.822914 564.73126 111.18229Q564.98126 111.541664 564.98126 112.08854Q564.98126 112.61979 564.66876 113.08854Q564.3719 113.541664 563.79376 113.80729Q563.21564 114.05729 562.48126 114.05729Q561.2625 114.05729 560.6219 113.55729Q559.9969 113.041664 559.825 112.05729Z" fill-rule="nonzero"/><path fill="#34a853" d="M510.45 128.91667C510.45 128.36438 510.8977 127.916664 511.45 127.916664L521.45 127.916664C522.00226 127.916664 522.45 128.36438 522.45 128.91667L522.45 138.91667C522.45 139.46895 522.00226 139.91667 521.45 139.91667L511.45 139.91667C510.8977 139.91667 510.45 139.46895 510.45 138.91667Z" fill-rule="nonzero"/><path fill="#1a1a1a" d="M537.0125 129.32292L538.15314 129.32292L538.15314 134.29167Q538.15314 135.58855 537.85626 136.35417Q537.5594 137.10417 536.79376 137.58855Q536.02814 138.0573 534.79376 138.0573Q533.59064 138.0573 532.8094 137.65105Q532.04376 137.22917 531.71564 136.44792Q531.3875 135.65105 531.3875 134.29167L531.3875 129.32292L532.52814 129.32292L532.52814 134.27605Q532.52814 135.40105 532.73126 135.9323Q532.95 136.46355 533.45 136.76042Q533.96564 137.04167 534.7 137.04167Q535.95 137.04167 536.48126 136.47917Q537.0125 135.90105 537.0125 134.27605L537.0125 129.32292ZM540.2469 137.91667L540.2469 131.69792L541.1844 131.69792L541.1844 132.57292Q541.8719 131.5573 543.16876 131.5573Q543.73126 131.5573 544.2 131.76042Q544.6844 131.96355 544.91876 132.29167Q545.15314 132.6198 545.2469 133.0573Q545.29376 133.35417 545.29376 134.08855L545.29376 137.91667L544.2469 137.91667L544.2469 134.13542Q544.2469 133.47917 544.1219 133.16667Q543.9969 132.85417 543.6844 132.66667Q543.3719 132.46355 542.95 132.46355Q542.27814 132.46355 541.77814 132.90105Q541.29376 133.32292 541.29376 134.51042L541.29376 137.91667L540.2469 137.91667ZM551.3094 137.15105Q550.71564 137.65105 550.16876 137.85417Q549.6375 138.0573 549.0125 138.0573Q547.98126 138.0573 547.4344 137.5573Q546.8875 137.0573 546.8875 136.27605Q546.8875 135.82292 547.09064 135.44792Q547.29376 135.0573 547.6375 134.83855Q547.98126 134.60417 548.40314 134.4948Q548.7 134.40105 549.34064 134.32292Q550.60626 134.1823 551.21564 133.96355Q551.21564 133.7448 551.21564 133.69792Q551.21564 133.04167 550.91876 132.77605Q550.5125 132.4323 549.71564 132.4323Q548.98126 132.4323 548.6219 132.69792Q548.2625 132.94792 548.09064 133.60417L547.0594 133.46355Q547.2 132.8073 547.52814 132.40105Q547.85626 131.9948 548.46564 131.77605Q549.075 131.5573 549.8719 131.5573Q550.66876 131.5573 551.16876 131.7448Q551.66876 131.9323 551.90314 132.21355Q552.1375 132.4948 552.23126 132.9323Q552.27814 133.19792 552.27814 133.90105L552.27814 135.3073Q552.27814 136.77605 552.34064 137.16667Q552.41876 137.5573 552.6219 137.91667L551.5125 137.91667Q551.35626 137.58855 551.3094 137.15105ZM551.21564 134.79167Q550.6375 135.02605 549.4969 135.19792Q548.84064 135.29167 548.575 135.41667Q548.3094 135.52605 548.15314 135.7448Q548.0125 135.96355 548.0125 136.2448Q548.0125 136.66667 548.325 136.94792Q548.65314 137.22917 549.2625 137.22917Q549.8719 137.22917 550.34064 136.96355Q550.825 136.69792 551.04376 136.22917Q551.21564 135.8698 551.21564 135.1823L551.21564 134.79167ZM554.23126 137.91667L554.23126 131.69792L555.1844 131.69792L555.1844 132.63542Q555.54376 131.97917 555.84064 131.77605Q556.15314 131.5573 556.52814 131.5573Q557.0594 131.5573 557.60626 131.88542L557.2469 132.8698Q556.85626 132.63542 556.48126 132.63542Q556.1219 132.63542 555.84064 132.85417Q555.575 133.0573 555.46564 133.4323Q555.27814 133.9948 555.27814 134.65105L555.27814 137.91667L554.23126 137.91667ZM558.2 140.3073L558.075 139.32292Q558.41876 139.41667 558.6844 139.41667Q559.02814 139.41667 559.23126 139.29167Q559.45 139.1823 559.59064 138.97917Q559.6844 138.8073 559.91876 138.1823Q559.9344 138.10417 560.0125 137.9323L557.6375 131.69792L558.77814 131.69792L560.075 135.29167Q560.325 135.97917 560.52814 136.7448Q560.71564 136.01042 560.96564 135.32292L562.29376 131.69792L563.34064 131.69792L560.98126 138.02605Q560.59064 139.04167 560.3875 139.4323Q560.10626 139.96355 559.73126 140.19792Q559.3719 140.44792 558.8719 140.44792Q558.575 140.44792 558.2 140.3073ZM564.3875 137.91667L564.3875 129.32292L568.2 129.32292Q569.35626 129.32292 569.95 129.5573Q570.54376 129.79167 570.90314 130.38542Q571.2625 130.96355 571.2625 131.66667Q571.2625 132.58855 570.66876 133.21355Q570.075 133.83855 568.84064 134.01042Q569.29376 134.22917 569.52814 134.4323Q570.02814 134.88542 570.46564 135.57292L571.96564 137.91667L570.52814 137.91667L569.40314 136.13542Q568.90314 135.35417 568.575 134.94792Q568.2625 134.54167 567.9969 134.38542Q567.7469 134.21355 567.48126 134.13542Q567.29376 134.10417 566.85626 134.10417L565.52814 134.10417L565.52814 137.91667L564.3875 137.91667ZM565.52814 133.1198L567.98126 133.1198Q568.7469 133.1198 569.1844 132.96355Q569.6375 132.79167 569.85626 132.44792Q570.09064 132.08855 570.09064 131.66667Q570.09064 131.0573 569.6375 130.66667Q569.2 130.27605 568.2469 130.27605L565.52814 130.27605L565.52814 133.1198Z" fill-rule="nonzero"/><path fill="#ff6d01" d="M510.45 152.91667C510.45 152.36438 510.8977 151.91667 511.45 151.91667L521.45 151.91667C522.00226 151.91667 522.45 152.36438 522.45 152.91667L522.45 162.91667C522.45 163.46895 522.00226 163.91667 521.45 163.91667L511.45 163.91667C510.8977 163.91667 510.45 163.46895 510.45 162.91667Z" fill-rule="nonzero"/><path fill="#1a1a1a" d="M531.325 161.91667L531.325 153.32292L534.5594 153.32292Q535.54376 153.32292 536.1375 153.58855Q536.73126 153.85417 537.0594 154.40105Q537.40314 154.9323 537.40314 155.52605Q537.40314 156.07292 537.10626 156.5573Q536.8094 157.04167 536.2 157.33855Q536.98126 157.57292 537.3875 158.13542Q537.8094 158.6823 537.8094 159.4323Q537.8094 160.02605 537.5594 160.5573Q537.3094 161.07292 536.9344 161.35417Q536.5594 161.63542 535.98126 161.77605Q535.41876 161.91667 534.60626 161.91667L531.325 161.91667ZM532.46564 156.9323L534.325 156.9323Q535.075 156.9323 535.40314 156.83855Q535.84064 156.71355 536.0594 156.41667Q536.27814 156.10417 536.27814 155.65105Q536.27814 155.22917 536.075 154.90105Q535.8719 154.57292 535.48126 154.46355Q535.10626 154.33855 534.1844 154.33855L532.46564 154.33855L532.46564 156.9323ZM532.46564 160.90105L534.60626 160.90105Q535.15314 160.90105 535.3719 160.85417Q535.77814 160.79167 536.02814 160.63542Q536.29376 160.46355 536.46564 160.15105Q536.6375 159.83855 536.6375 159.4323Q536.6375 158.94792 536.3875 158.58855Q536.15314 158.22917 535.71564 158.08855Q535.27814 157.94792 534.45 157.94792L532.46564 157.94792L532.46564 160.90105ZM539.2469 154.54167L539.2469 153.32292L540.3094 153.32292L540.3094 154.54167L539.2469 154.54167ZM539.2469 161.91667L539.2469 155.69792L540.3094 155.69792L540.3094 161.91667L539.2469 161.91667ZM542.2469 161.91667L542.2469 155.69792L543.1844 155.69792L543.1844 156.57292Q543.8719 155.5573 545.16876 155.5573Q545.73126 155.5573 546.2 155.76042Q546.6844 155.96355 546.91876 156.29167Q547.15314 156.6198 547.2469 157.0573Q547.29376 157.35417 547.29376 158.08855L547.29376 161.91667L546.2469 161.91667L546.2469 158.13542Q546.2469 157.47917 546.1219 157.16667Q545.9969 156.85417 545.6844 156.66667Q545.3719 156.46355 544.95 156.46355Q544.27814 156.46355 543.77814 156.90105Q543.29376 157.32292 543.29376 158.51042L543.29376 161.91667L542.2469 161.91667ZM553.3094 161.15105Q552.71564 161.65105 552.16876 161.85417Q551.6375 162.0573 551.0125 162.0573Q549.98126 162.0573 549.4344 161.5573Q548.8875 161.0573 548.8875 160.27605Q548.8875 159.82292 549.09064 159.44792Q549.29376 159.0573 549.6375 158.83855Q549.98126 158.60417 550.40314 158.4948Q550.7 158.40105 551.34064 158.32292Q552.60626 158.1823 553.21564 157.96355Q553.21564 157.7448 553.21564 157.69792Q553.21564 157.04167 552.91876 156.77605Q552.5125 156.4323 551.71564 156.4323Q550.98126 156.4323 550.6219 156.69792Q550.2625 156.94792 550.09064 157.60417L549.0594 157.46355Q549.2 156.8073 549.52814 156.40105Q549.85626 155.9948 550.46564 155.77605Q551.075 155.5573 551.8719 155.5573Q552.66876 155.5573 553.16876 155.7448Q553.66876 155.9323 553.90314 156.21355Q554.1375 156.4948 554.23126 156.9323Q554.27814 157.19792 554.27814 157.90105L554.27814 159.3073Q554.27814 160.77605 554.34064 161.16667Q554.41876 161.5573 554.6219 161.91667L553.5125 161.91667Q553.35626 161.58855 553.3094 161.15105ZM553.21564 158.79167Q552.6375 159.02605 551.4969 159.19792Q550.84064 159.29167 550.575 159.41667Q550.3094 159.52605 550.15314 159.7448Q550.0125 159.96355 550.0125 160.2448Q550.0125 160.66667 550.325 160.94792Q550.65314 161.22917 551.2625 161.22917Q551.8719 161.22917 552.34064 160.96355Q552.825 160.69792 553.04376 160.22917Q553.21564 159.8698 553.21564 159.1823L553.21564 158.79167ZM556.23126 161.91667L556.23126 155.69792L557.1844 155.69792L557.1844 156.63542Q557.54376 155.97917 557.84064 155.77605Q558.15314 155.5573 558.52814 155.5573Q559.0594 155.5573 559.60626 155.88542L559.2469 156.8698Q558.85626 156.63542 558.48126 156.63542Q558.1219 156.63542 557.84064 156.85417Q557.575 157.0573 557.46564 157.4323Q557.27814 157.9948 557.27814 158.65105L557.27814 161.91667L556.23126 161.91667ZM560.2 164.3073L560.075 163.32292Q560.41876 163.41667 560.6844 163.41667Q561.02814 163.41667 561.23126 163.29167Q561.45 163.1823 561.59064 162.97917Q561.6844 162.8073 561.91876 162.1823Q561.9344 162.10417 562.0125 161.9323L559.6375 155.69792L560.77814 155.69792L562.075 159.29167Q562.325 159.97917 562.52814 160.7448Q562.71564 160.01042 562.96564 159.32292L564.29376 155.69792L565.34064 155.69792L562.98126 162.02605Q562.59064 163.04167 562.3875 163.4323Q562.10626 163.96355 561.73126 164.19792Q561.3719 164.44792 560.8719 164.44792Q560.575 164.44792 560.2 164.3073ZM566.3875 161.91667L566.3875 153.32292L570.2 153.32292Q571.35626 153.32292 571.95 153.5573Q572.54376 153.79167 572.90314 154.38542Q573.2625 154.96355 573.2625 155.66667Q573.2625 156.58855 572.66876 157.21355Q572.075 157.83855 570.84064 158.01042Q571.29376 158.22917 571.52814 158.4323Q572.02814 158.88542 572.46564 159.57292L573.96564 161.91667L572.52814 161.91667L571.40314 160.13542Q570.90314 159.35417 570.575 158.94792Q570.2625 158.54167 569.9969 158.38542Q569.7469 158.21355 569.48126 158.13542Q569.29376 158.10417 568.85626 158.10417L567.52814 158.10417L567.52814 161.91667L566.3875 161.91667ZM567.52814 157.1198L569.98126 157.1198Q570.7469 157.1198 571.1844 156.96355Q571.6375 156.79167 571.85626 156.44792Q572.09064 156.08855 572.09064 155.66667Q572.09064 155.0573 571.6375 154.66667Q571.2 154.27605 570.2469 154.27605L567.52814 154.27605L567.52814 157.1198Z" fill-rule="nonzero"/><path fill="#46bdc6" d="M510.45 176.91667C510.45 176.36438 510.8977 175.91667 511.45 175.91667L521.45 175.91667C522.00226 175.91667 522.45 176.36438 522.45 176.91667L522.45 186.91667C522.45 187.46895 522.00226 187.91667 521.45 187.91667L511.45 187.91667C510.8977 187.91667 510.45 187.46895 510.45 186.91667Z" fill-rule="nonzero"/><path fill="#1a1a1a" d="M533.5594 185.91667L533.5594 178.33855L530.73126 178.33855L530.73126 177.32292L537.54376 177.32292L537.54376 178.33855L534.7 178.33855L534.7 185.91667L533.5594 185.91667ZM542.3094 185.15105Q541.71564 185.65105 541.16876 185.85417Q540.6375 186.0573 540.0125 186.0573Q538.98126 186.0573 538.4344 185.5573Q537.8875 185.0573 537.8875 184.27605Q537.8875 183.82292 538.09064 183.44792Q538.29376 183.0573 538.6375 182.83855Q538.98126 182.60417 539.40314 182.4948Q539.7 182.40105 540.34064 182.32292Q541.60626 182.1823 542.21564 181.96355Q542.21564 181.7448 542.21564 181.69792Q542.21564 181.04167 541.91876 180.77605Q541.5125 180.4323 540.71564 180.4323Q539.98126 180.4323 539.6219 180.69792Q539.2625 180.94792 539.09064 181.60417L538.0594 181.46355Q538.2 180.8073 538.52814 180.40105Q538.85626 179.9948 539.46564 179.77605Q540.075 179.5573 540.8719 179.5573Q541.66876 179.5573 542.16876 179.7448Q542.66876 179.9323 542.90314 180.21355Q543.1375 180.4948 543.23126 180.9323Q543.27814 181.19792 543.27814 181.90105L543.27814 183.3073Q543.27814 184.77605 543.34064 185.16667Q543.41876 185.5573 543.6219 185.91667L542.5125 185.91667Q542.35626 185.58855 542.3094 185.15105ZM542.21564 182.79167Q541.6375 183.02605 540.4969 183.19792Q539.84064 183.29167 539.575 183.41667Q539.3094 183.52605 539.15314 183.7448Q539.0125 183.96355 539.0125 184.2448Q539.0125 184.66667 539.325 184.94792Q539.65314 185.22917 540.2625 185.22917Q540.8719 185.22917 541.34064 184.96355Q541.825 184.69792 542.04376 184.22917Q542.21564 183.8698 542.21564 183.1823L542.21564 182.79167ZM545.04376 186.4323L546.075 186.58855Q546.1375 187.0573 546.4344 187.27605Q546.825 187.57292 547.4969 187.57292Q548.23126 187.57292 548.6219 187.27605Q549.02814 186.97917 549.16876 186.46355Q549.2625 186.13542 549.2469 185.10417Q548.5594 185.91667 547.52814 185.91667Q546.2469 185.91667 545.54376 184.9948Q544.84064 184.0573 544.84064 182.77605Q544.84064 181.88542 545.15314 181.13542Q545.48126 180.3698 546.09064 179.96355Q546.7 179.5573 547.52814 179.5573Q548.6375 179.5573 549.35626 180.44792L549.35626 179.69792L550.325 179.69792L550.325 185.07292Q550.325 186.52605 550.02814 187.13542Q549.73126 187.7448 549.09064 188.08855Q548.45 188.44792 547.5125 188.44792Q546.40314 188.44792 545.71564 187.94792Q545.02814 187.44792 545.04376 186.4323ZM545.91876 182.69792Q545.91876 183.91667 546.40314 184.47917Q546.8875 185.04167 547.6219 185.04167Q548.35626 185.04167 548.84064 184.47917Q549.34064 183.91667 549.34064 182.72917Q549.34064 181.58855 548.825 181.01042Q548.325 180.4323 547.60626 180.4323Q546.90314 180.4323 546.40314 181.01042Q545.91876 181.57292 545.91876 182.69792ZM552.04376 186.4323L553.075 186.58855Q553.1375 187.0573 553.4344 187.27605Q553.825 187.57292 554.4969 187.57292Q555.23126 187.57292 555.6219 187.27605Q556.02814 186.97917 556.16876 186.46355Q556.2625 186.13542 556.2469 185.10417Q555.5594 185.91667 554.52814 185.91667Q553.2469 185.91667 552.54376 184.9948Q551.84064 184.0573 551.84064 182.77605Q551.84064 181.88542 552.15314 181.13542Q552.48126 180.3698 553.09064 179.96355Q553.7 179.5573 554.52814 179.5573Q555.6375 179.5573 556.35626 180.44792L556.35626 179.69792L557.325 179.69792L557.325 185.07292Q557.325 186.52605 557.02814 187.13542Q556.73126 187.7448 556.09064 188.08855Q555.45 188.44792 554.5125 188.44792Q553.40314 188.44792 552.71564 187.94792Q552.02814 187.44792 552.04376 186.4323ZM552.91876 182.69792Q552.91876 183.91667 553.40314 184.47917Q553.8875 185.04167 554.6219 185.04167Q555.35626 185.04167 555.84064 184.47917Q556.34064 183.91667 556.34064 182.72917Q556.34064 181.58855 555.825 181.01042Q555.325 180.4323 554.60626 180.4323Q553.90314 180.4323 553.40314 181.01042Q552.91876 181.57292 552.91876 182.69792ZM559.2469 178.54167L559.2469 177.32292L560.3094 177.32292L560.3094 178.54167L559.2469 178.54167ZM559.2469 185.91667L559.2469 179.69792L560.3094 179.69792L560.3094 185.91667L559.2469 185.91667ZM562.2469 185.91667L562.2469 179.69792L563.1844 179.69792L563.1844 180.57292Q563.8719 179.5573 565.16876 179.5573Q565.73126 179.5573 566.2 179.76042Q566.6844 179.96355 566.91876 180.29167Q567.15314 180.6198 567.2469 181.0573Q567.29376 181.35417 567.29376 182.08855L567.29376 185.91667L566.2469 185.91667L566.2469 182.13542Q566.2469 181.47917 566.1219 181.16667Q565.9969 180.85417 565.6844 180.66667Q565.3719 180.46355 564.95 180.46355Q564.27814 180.46355 563.77814 180.90105Q563.29376 181.32292 563.29376 182.51042L563.29376 185.91667L562.2469 185.91667ZM569.04376 186.4323L570.075 186.58855Q570.1375 187.0573 570.4344 187.27605Q570.825 187.57292 571.4969 187.57292Q572.23126 187.57292 572.6219 187.27605Q573.02814 186.97917 573.16876 186.46355Q573.2625 186.13542 573.2469 185.10417Q572.5594 185.91667 571.52814 185.91667Q570.2469 185.91667 569.54376 184.9948Q568.84064 184.0573 568.84064 182.77605Q568.84064 181.88542 569.15314 181.13542Q569.48126 180.3698 570.09064 179.96355Q570.7 179.5573 571.52814 179.5573Q572.6375 179.5573 573.35626 180.44792L573.35626 179.69792L574.325 179.69792L574.325 185.07292Q574.325 186.52605 574.02814 187.13542Q573.73126 187.7448 573.09064 188.08855Q572.45 188.44792 571.5125 188.44792Q570.40314 188.44792 569.71564 187.94792Q569.02814 187.44792 569.04376 186.4323ZM569.91876 182.69792Q569.91876 183.91667 570.40314 184.47917Q570.8875 185.04167 571.6219 185.04167Q572.35626 185.04167 572.84064 184.47917Q573.34064 183.91667 573.34064 182.72917Q573.34064 181.58855 572.825 181.01042Q572.325 180.4323 571.60626 180.4323Q570.90314 180.4323 570.40314 181.01042Q569.91876 181.57292 569.91876 182.69792ZM575.825 184.0573L576.85626 183.90105Q576.95 184.52605 577.34064 184.85417Q577.7469 185.1823 578.48126 185.1823Q579.2 185.1823 579.54376 184.90105Q579.90314 184.60417 579.90314 184.19792Q579.90314 183.83855 579.59064 183.63542Q579.3719 183.4948 578.5125 183.27605Q577.35626 182.97917 576.90314 182.77605Q576.46564 182.5573 576.23126 182.1823Q575.9969 181.8073 575.9969 181.33855Q575.9969 180.9323 576.1844 180.57292Q576.3719 180.21355 576.7 179.97917Q576.95 179.8073 577.3719 179.6823Q577.79376 179.5573 578.29376 179.5573Q579.0125 179.5573 579.5594 179.77605Q580.1219 179.97917 580.3875 180.33855Q580.65314 180.69792 580.7469 181.29167L579.71564 181.4323Q579.65314 180.96355 579.3094 180.69792Q578.98126 180.41667 578.35626 180.41667Q577.6375 180.41667 577.325 180.66667Q577.0125 180.90105 577.0125 181.22917Q577.0125 181.4323 577.1375 181.58855Q577.27814 181.76042 577.54376 181.8698Q577.7 181.9323 578.48126 182.13542Q579.60626 182.44792 580.04376 182.63542Q580.48126 182.82292 580.73126 183.1823Q580.98126 183.54167 580.98126 184.08855Q580.98126 184.6198 580.66876 185.08855Q580.3719 185.54167 579.79376 185.8073Q579.21564 186.0573 578.48126 186.0573Q577.2625 186.0573 576.6219 185.5573Q575.9969 185.04167 575.825 184.0573Z" fill-rule="nonzero"/><path fill="#757575" d="M23.7375 37.55L23.7375 24.925L19.01875 24.925L19.01875 23.2375L30.3625 23.2375L30.3625 24.925L25.628124 24.925L25.628124 37.55L23.7375 37.55ZM31.846874 37.55L31.846874 27.175L33.425 27.175L33.425 28.753124Q34.034374 27.64375 34.55 27.3Q35.065624 26.940624 35.675 26.940624Q36.565624 26.940624 37.4875 27.503124L36.878124 29.14375Q36.2375 28.753124 35.596874 28.753124Q35.01875 28.753124 34.55 29.1125Q34.096874 29.45625 33.89375 30.065624Q33.6125 31.003124 33.6125 32.1125L33.6125 37.55L31.846874 37.55ZM45.971874 34.20625L47.784374 34.440624Q47.3625 36.01875 46.190624 36.909374Q45.034374 37.784374 43.221874 37.784374Q40.95625 37.784374 39.6125 36.39375Q38.284374 34.9875 38.284374 32.45625Q38.284374 29.83125 39.628124 28.39375Q40.971874 26.940624 43.128124 26.940624Q45.20625 26.940624 46.51875 28.3625Q47.846874 29.76875 47.846874 32.346874Q47.846874 32.503124 47.83125 32.815624L40.096874 32.815624Q40.190624 34.51875 41.065624 35.425Q41.940624 36.33125 43.2375 36.33125Q44.20625 36.33125 44.878124 35.83125Q45.565624 35.315624 45.971874 34.20625ZM40.190624 31.3625L45.9875 31.3625Q45.878124 30.065624 45.33125 29.409374Q44.4875 28.39375 43.14375 28.39375Q41.940624 28.39375 41.1125 29.20625Q40.284374 30.003124 40.190624 31.3625ZM49.878124 25.253124L49.878124 23.2375L51.64375 23.2375L51.64375 25.253124L49.878124 25.253124ZM49.878124 37.55L49.878124 27.175L51.64375 27.175L51.64375 37.55L49.878124 37.55ZM53.8625 37.55L53.8625 27.175L55.45625 27.175L55.45625 28.659374Q56.596874 26.940624 58.753124 26.940624Q59.690624 26.940624 60.471874 27.284374Q61.26875 27.6125 61.659374 28.159374Q62.05 28.70625 62.20625 29.45625Q62.3 29.95625 62.3 31.175L62.3 37.55L60.534374 37.55L60.534374 31.2375Q60.534374 30.159374 60.33125 29.628124Q60.128124 29.096874 59.596874 28.784374Q59.08125 28.471874 58.378124 28.471874Q57.253124 28.471874 56.440624 29.190624Q55.628124 29.89375 55.628124 31.878124L55.628124 37.55L53.8625 37.55ZM71.64375 36.26875Q70.65938 37.096874 69.75313 37.440624Q68.84688 37.784374 67.81563 37.784374Q66.1125 37.784374 65.19063 36.95625Q64.26875 36.1125 64.26875 34.815624Q64.26875 34.05 64.6125 33.425Q64.97188 32.8 65.53438 32.425Q66.09688 32.034374 66.8 31.83125Q67.31563 31.70625 68.3625 31.565624Q70.4875 31.315624 71.4875 30.971874Q71.50313 30.6125 71.50313 30.503124Q71.50313 29.440624 71.00313 28.9875Q70.33125 28.39375 69.00313 28.39375Q67.75313 28.39375 67.15938 28.83125Q66.58125 29.26875 66.3 30.378124L64.58125 30.14375Q64.81563 29.034374 65.34688 28.3625Q65.87813 27.675 66.89375 27.315624Q67.90938 26.940624 69.25313 26.940624Q70.58125 26.940624 71.40938 27.253124Q72.2375 27.565624 72.62813 28.05Q73.01875 28.51875 73.175 29.2375Q73.26875 29.690624 73.26875 30.8625L73.26875 33.20625Q73.26875 35.659374 73.37813 36.315624Q73.4875 36.95625 73.83125 37.55L71.9875 37.55Q71.72188 37.003124 71.64375 36.26875ZM71.4875 32.346874Q70.53438 32.7375 68.6125 33.003124Q67.53438 33.159374 67.08125 33.3625Q66.64375 33.55 66.39375 33.925Q66.14375 34.3 66.14375 34.76875Q66.14375 35.471874 66.675 35.940624Q67.20625 36.409374 68.2375 36.409374Q69.25313 36.409374 70.03438 35.971874Q70.83125 35.51875 71.20625 34.753124Q71.4875 34.14375 71.4875 32.9875L71.4875 32.346874ZM75.8625 37.55L75.8625 27.175L77.44063 27.175L77.44063 28.628124Q77.925 27.878124 78.7375 27.409374Q79.55 26.940624 80.58125 26.940624Q81.7375 26.940624 82.47188 27.425Q83.20625 27.89375 83.51875 28.753124Q84.75313 26.940624 86.72188 26.940624Q88.26875 26.940624 89.09688 27.8Q89.925 28.659374 89.925 30.425L89.925 37.55L88.175 37.55L88.175 31.01875Q88.175 29.95625 88.00313 29.503124Q87.83125 29.034374 87.37813 28.753124Q86.94063 28.471874 86.33125 28.471874Q85.2375 28.471874 84.50313 29.20625Q83.78438 29.925 83.78438 31.51875L83.78438 37.55L82.03438 37.55L82.03438 30.815624Q82.03438 29.64375 81.59688 29.065624Q81.175 28.471874 80.19063 28.471874Q79.45625 28.471874 78.81563 28.8625Q78.19063 29.253124 77.90938 30.003124Q77.62813 30.753124 77.62813 32.175L77.62813 37.55L75.8625 37.55ZM99.97188 34.20625L101.78438 34.440624Q101.3625 36.01875 100.19063 36.909374Q99.03438 37.784374 97.22188 37.784374Q94.95625 37.784374 93.6125 36.39375Q92.28438 34.9875 92.28438 32.45625Q92.28438 29.83125 93.62813 28.39375Q94.97188 26.940624 97.12813 26.940624Q99.20625 26.940624 100.51875 28.3625Q101.84688 29.76875 101.84688 32.346874Q101.84688 32.503124 101.83125 32.815624L94.09688 32.815624Q94.19063 34.51875 95.06563 35.425Q95.94063 36.33125 97.2375 36.33125Q98.20625 36.33125 98.87813 35.83125Q99.56563 35.315624 99.97188 34.20625ZM94.19063 31.3625L99.9875 31.3625Q99.87813 30.065624 99.33125 29.409374Q98.4875 28.39375 97.14375 28.39375Q95.94063 28.39375 95.1125 29.20625Q94.28438 30.003124 94.19063 31.3625ZM103.8625 37.55L103.8625 27.175L105.45625 27.175L105.45625 28.659374Q106.59688 26.940624 108.75313 26.940624Q109.69063 26.940624 110.47188 27.284374Q111.26875 27.6125 111.65938 28.159374Q112.05 28.70625 112.20625 29.45625Q112.3 29.95625 112.3 31.175L112.3 37.55L110.53438 37.55L110.53438 31.2375Q110.53438 30.159374 110.33125 29.628124Q110.12813 29.096874 109.59688 28.784374Q109.08125 28.471874 108.37813 28.471874Q107.25313 28.471874 106.44063 29.190624Q105.62813 29.89375 105.62813 31.878124L105.62813 37.55L103.8625 37.55ZM118.70625 35.971874L118.95625 37.534374Q118.22188 37.690624 117.62813 37.690624Q116.675 37.690624 116.14375 37.39375Q115.62813 37.08125 115.40938 36.596874Q115.19063 36.096874 115.19063 34.51875L115.19063 28.55L113.90938 28.55L113.90938 27.175L115.19063 27.175L115.19063 24.6125L116.94063 23.55L116.94063 27.175L118.70625 27.175L118.70625 28.55L116.94063 28.55L116.94063 34.6125Q116.94063 35.3625 117.03438 35.58125Q117.12813 35.784374 117.33125 35.925Q117.55 36.05 117.94063 36.05Q118.22188 36.05 118.70625 35.971874ZM120.22188 32.3625Q120.22188 29.4875 121.81563 28.096874Q123.15938 26.940624 125.08125 26.940624Q127.22188 26.940624 128.56563 28.346874Q129.925 29.753124 129.925 32.221874Q129.925 34.221874 129.33125 35.378124Q128.7375 36.51875 127.58125 37.159374Q126.44063 37.784374 125.08125 37.784374Q122.89375 37.784374 121.55 36.39375Q120.22188 34.9875 120.22188 32.3625ZM122.01875 32.3625Q122.01875 34.3625 122.87813 35.346874Q123.75313 36.33125 125.08125 36.33125Q126.39375 36.33125 127.25313 35.346874Q128.12813 34.346874 128.12813 32.3Q128.12813 30.378124 127.25313 29.39375Q126.37813 28.39375 125.08125 28.39375Q123.75313 28.39375 122.87813 29.39375Q122.01875 30.378124 122.01875 32.3625ZM137.19063 33.253124L137.19063 31.4875L142.58125 31.4875L142.58125 33.253124L137.19063 33.253124ZM161.31563 32.534374L163.20625 33.003124Q162.6125 35.346874 161.06563 36.58125Q159.51875 37.8 157.26875 37.8Q154.95625 37.8 153.50313 36.8625Q152.06563 35.909374 151.3 34.128124Q150.55 32.33125 150.55 30.284374Q150.55 28.05 151.39375 26.39375Q152.25313 24.721874 153.83125 23.8625Q155.40938 22.9875 157.3 22.9875Q159.45625 22.9875 160.90938 24.08125Q162.37813 25.175 162.95625 27.159374L161.09688 27.596874Q160.59688 26.034374 159.64375 25.33125Q158.70625 24.6125 157.26875 24.6125Q155.6125 24.6125 154.50313 25.409374Q153.39375 26.190624 152.94063 27.534374Q152.50313 28.8625 152.50313 30.26875Q152.50313 32.096874 153.03438 33.471874Q153.56563 34.83125 154.69063 35.503124Q155.81563 36.175 157.1125 36.175Q158.70625 36.175 159.81563 35.253124Q160.925 34.33125 161.31563 32.534374ZM165.40938 37.55L165.40938 23.2375L167.31563 23.2375L167.31563 37.55L165.40938 37.55ZM171.08125 37.55L171.08125 23.2375L173.01875 23.2375L180.53438 34.471874L180.53438 23.2375L182.34688 23.2375L182.34688 37.55L180.40938 37.55L172.89375 26.3L172.89375 37.55L171.08125 37.55ZM188.7375 37.55L188.7375 24.925L184.01875 24.925L184.01875 23.2375L195.3625 23.2375L195.3625 24.925L190.62813 24.925L190.62813 37.55L188.7375 37.55ZM197.40938 37.55L197.40938 23.2375L199.31563 23.2375L199.31563 37.55L197.40938 37.55ZM203.01875 37.55L203.01875 23.2375L204.90938 23.2375L204.90938 35.8625L211.95625 35.8625L211.95625 37.55L203.01875 37.55Z" fill-rule="nonzero"/></svg>